<svg xmlns="http://www.w3.org/2000/svg" viewBox="0 0 410.31 609.33"><path style="fill:#ea4b8b;stroke-width:0" d="M0 0h410.31v609.33H0z"/><path d="M395.93 6.35c4.04 7.3-3.19 9.97-6.91 13.98-3.45 3.71-5.7 2.96-7.89-1.77-.15-.31-.28-.63-.43-.94q-3.38-7.53 2.29-13.54c1.25-1.33 2.46-2.7 3.72-4.03.02-.02.04-.04.05-.06h-5.52c-.67.71-1.34 1.4-2.03 2.09-2.56 2.56-4.34 2.17-6.29-.96-.25-.4-.48-.77-.7-1.13h-15.95c-.81.67-1.64 1.27-2.54 1.73-1.84.93-3.09-.25-4.07-1.73h-5.24c2.61 3.54 4.63 8.89 3.25 10.36-3.52 3.77-7.34 7.3-11.4 10.46-.76.6-3.88-.51-4.78-1.7-1.63-2.14-2.34-4.96-3.58-7.42-1.12-2.22-.45-4.14 1.08-5.62 2.18-2.1 4.46-4.11 6.76-6.08h-4.81c-.62.55-1.25 1.1-1.87 1.64-2.62 2.3-5.28 1.82-7.01-1.2-.09-.16-.17-.29-.25-.44h-5.09c1.36 3.28 1.01 7.51-1.53 9.76a65.297 65.297 0 0 1-6.82 5.24c-.87.58-2.22.88-3.25.71-3.72-.62-5.06-3.75-6.17-6.76-.86-2.33-.24-4.42 1.88-6.12 1.07-.86 2.03-1.84 2.99-2.82h-3.01c-3.27 2.33-4.9 2.32-7.25 0h-4.66c.84 1.12 1.35 2.43 1.93 3.62 1.1 2.25.75 4.43-1.46 6.13-2 1.54-3.84 3.29-5.78 4.93-2.87 2.42-6.26 1.63-7.85-1.8-2.94-6.31-2.83-7.02 2.61-11.6.53-.45 1.08-.87 1.62-1.27h-17.38c.38.7.77 1.39 1.13 2.1 1.85 3.69 1.09 7.32-2.2 9.78-2.1 1.57-4.3 3.03-6.52 4.43-.74.47-1.7.82-2.56.83-4.85.05-6.9-3.55-8.75-7.13-1.54-2.99-1.56-5.89 1.38-8.31.64-.53 1.26-1.11 1.86-1.69h-12.56c.16.71.24 1.43.21 2.16-.15 3.99-5.73 8.94-9.94 8.83-3.54-.09-7.76-5.31-7.55-9.36.03-.5.19-1.06.45-1.63h-7.68s.04.07.06.11c-1.03 1.49-1.65 2.85-2.66 3.77-2.46 2.24-5.11 4.26-7.66 6.39-2.57 2.14-4.76 1.8-6.51-1.05-2.32-3.79-3.13-6.57-2.31-9.22h-10.66c-.06.08-.11.16-.17.23-1.6 1.93-3.54 3.59-5.42 5.28-2.51 2.27-4.86 1.71-6.11-1.38-.55-1.35-1.09-2.72-1.65-4.13h-8.98c-.12 1.38-.75 2.75-2.06 4.09-1.28 1.31-2.55 2.67-3.97 3.83-1.88 1.53-4.11 3.51-6.45 1.74-2.13-1.61-3.54-4.16-5.22-6.25.7-1.43 1.1-2.53 1.57-3.41h-5.6c-.03 1.23-.51 2.39-1.72 3.47-2.22 2-4.39 4.05-6.54 6.12-3.31 3.18-6.74 2.59-8.77-1.53-1.87-3.81-2.18-5.74-.52-8.06h-7.23c.13.46.26.91.43 1.34.46 1.19-.59 3.29-1.5 4.59-1.02 1.47-2.54 2.67-4.04 3.71-1.95 1.35-4.13 1.34-5.3-.93-1.18-2.31-1.8-4.91-2.46-6.8 0-.54.18-1.2.49-1.9h-8.19c-.16.24-.33.47-.5.66-1.56 1.81-3.51 3.27-5.26 4.91-1.97 1.84-3.71 1.4-5.28-.52-1.62-1.99-2.56-3.57-2.85-5.04H65.86c-1.74 2.76-4.35 5.02-6.56 4.84-1.14-.09-2.5-.54-3.28-1.32C54.81 2.37 53.98 1.2 53.5.04h-8.61c-2 2.15-4.05 4.27-6.16 6.31-.6.58-1.7 1.06-2.48.96-3.91-.52-4.57-4.07-6.08-6.83a9.02 9.02 0 0 1-.22-.44H17.67c-2.98 2.56-5.35 2.82-7.35.53-.15-.17-.3-.35-.44-.53H0v.32c.77.38 1.39 1.1 1.91 2.05 1.15 2.12 2.08 4.37 3.36 6.4 1.52 2.42 1.04 4.31-.97 6.07-1.43 1.23-2.87 2.51-4.3 3.78v5.81c1.24-.98 2.46-1.97 3.64-3.02 3.05-2.72 5.42-2.48 7.52 1.07.93 1.58 1.97 3.22 2.32 4.97.28 1.38.06 3.35-.78 4.37-2.38 2.9-5.28 5.38-7.81 8.17C3.4 41.67 1.83 42.75 0 42.79v16.87c1.09 1.43 2.13 2.89 2.91 4.48.52 1.06-.78 3.36-1.76 4.74-.33.46-.72.88-1.15 1.27v5.16c.43-.4.85-.81 1.28-1.21 1.93-1.77 4.68-1.6 6.33.49 1.06 1.34 1.98 2.8 2.83 4.28 2.05 3.58 1.73 5.12-1.44 7.97-.85.77-1.65 1.59-2.51 2.34C3.37 91.89 2 92.67 0 91.52v13.72c2.2 1.81 3.12 4.64 3.8 7.35.36 1.46-1.68 3.52-2.54 5.16 3.11-.8 5.53 1.01 7.23 4.15 2.07 3.83 1.63 5.81-1.92 8.54-2.19 1.68-4.38 3.36-6.57 5.03v4.22c2.42-1.8 4.84-3.6 7.24-5.43 3.77-2.88 7.02-2.35 9.16 1.88 3.66 7.25 3.95 7.2-2.73 11.9-4.5 3.16-9.09 6.18-13.67 9.22v6.35c3.46-2.17 6.93-4.34 10.36-6.56 3.08-1.99 6.05-4.17 9.12-6.16 2.19-1.42 4.35-.79 5.9.97 2.11 2.4 3.73 5.25 5.86 7.63 2.03 2.27 1.57 4.4-.22 6.09-6.83 6.44-13.79 12.76-20.81 18.99-2.18 1.93-5.02 1.21-6.79-1.39-1.15-1.68-2.28-3.37-3.42-5.07v27.61c3.99-1.23 7.32.26 9.54 4.46 2.62 4.96 4.59 10.32 7.67 14.96 3.3 4.96 2.4 9.26-.38 13.68-2.8 4.46-5.83 8.78-8.74 13.17C5.43 256 2.78 260.02 0 264.21v72.55c.13-.31.26-.6.39-.92 4.7 7.47 9.31 14.8 13.9 22.13.61.97.95 2.19 1.73 2.95 4.71 4.57 4.91 9.35 1.53 14.88-2.5 4.09-4.46 8.52-6.46 12.89-2.92 6.39-5.94 8.26-11.1 6.22v24.79c.95-1.41 1.91-2.81 2.87-4.21 1.79-2.6 4.31-2.76 6.72-.68 6.6 5.71 13.23 11.37 19.9 16.99 2.71 2.28 3.04 5 .79 7.75-1.89 2.31-3.87 4.57-5.6 6.99-1.8 2.52-4.03 2.59-6.28 1.15-6.17-3.94-12.27-8-18.39-12.05v5.71c.64.32 1.28.65 1.88 1.04 5.32 3.44 10.59 6.96 15.85 10.48 3.22 2.15 3.66 3.96 1.6 7.15-1.3 2-2.67 4.03-4.35 5.7-2.24 2.22-4.46 1.88-6.94-.25-2.54-2.19-5.29-4.13-8.03-6.08v4.16c2.76 1.99 5.53 3.99 8.25 6.03 4.6 3.46 4.6 6 .17 11.51-2.49 3.09-4.89 3.31-8.42.66v1.68c1.42.9 2.8 1.84 3.93 3.02 2.59 2.7.06 8.63-3.93 10.9v10.03c1.54-.14 3.04.5 4.6 1.61 9.46 6.71 9.51 6.75 3.4 16.34-1.64 2.57-4.22 3.11-6.78 1.39-.41-.28-.82-.56-1.22-.85v4.31c2.89 2.7 2.99 5.42 0 9.21v14.99c2.51-.37 4.69 1.29 6.88 2.9-1.58-2.06-3.37-4-4.68-6.22-1.38-2.32 1.81-10.46 4.4-11.13 1.37-.35 3.44-.17 4.44.67 3.69 3.08 7.11 6.49 10.51 9.9.72.72 1.5 2.18 1.24 2.96-1.04 3.1-2.16 6.28-3.9 9.01-1.22 1.91-3.62 1.82-5.53.34-1.62-1.26-3.13-2.67-4.69-4.02 1.84 2.14 3.65 4.3 5.51 6.43 1.57 1.79 3.72 3.36 2.59 6.21-1.46 3.69-2.46 7.85-6.74 9.4-.87.32-2.42-.4-3.31-1.1-2.29-1.8-4.52-3.69-6.74-5.59v7.16c2.13 1.98 4.26 3.96 6.36 5.96.38.36.8 1.16.65 1.5-1.65 3.68-3.27 7.41-5.33 10.86-.13.21-.82.09-1.67-.13v9.83h11.45c-1.52-1.64-2.62-3.59-2.59-5.15.1-4.08 3.61-8.35 6.83-8.32 3.26.03 8.42 5.51 8.35 8.86-.03 1.58-.69 3.23-1.67 4.61h12.76c-.3-.27-.6-.56-.91-.88-1.58-1.66-3.28-3.23-4.75-4.99-.77-.92-1.17-2.16-2.16-4.05 1.89-2.58 3.65-5.47 5.97-7.81.57-.58 3.32.2 4.44 1.12 2.56 2.1 4.94 4.52 6.95 7.14.87 1.14.84 3.11.86 4.71 0 .81-.78 1.63-1.21 2.44-.5.93-1 1.7-1.52 2.33h25.58c.59-.79 1.3-1.59 2.14-2.42.83-.82 2.13-1.18 3.4-1.84 1.11.64 2.19 1.04 2.98 1.76.88.81 1.73 1.65 2.57 2.51h3.21c-.27-.26-.54-.54-.82-.85-1.31-1.45-3.01-2.71-3.81-4.4-.67-1.43-.84-3.56-.27-5 .88-2.2 2.58-4.07 4.02-6.21 1.4.87 2.13 1.2 2.71 1.71 2.07 1.84 4.27 3.58 6.03 5.68.78.93.85 2.64.83 3.99-.02.96-.72 1.92-1.12 2.88-.36.88-.72 1.61-1.1 2.21h1.37c1.5-2.22 3.95-3.7 6.97-4.03-3.5-4.58-3.74-9.55-.14-14.25.88-1.15 3.86-2.22 4.63-1.65 2.74 2.04 6.76 4.7 6.9 7.31.19 3.48-2.63 7.23-4.53 10.65-.4.71-2.46.5-3.72.7.42.44.79.85 1.14 1.26h8.07c.18-.53.37-1.05.54-1.57.8-2.38 1.78-4.85 4.78-5.37.23-.04.46-.09.69-.09 1.73-.05 5.86 3.5 8.48 7.04h11.82c.44-.54.94-1.06 1.46-1.52.87-.77 1.98-1.26 3.73-2.34 1.5 1.35 3.07 2.58 4.54 3.86h16.5c1-.93 2.28-1.86 3.58-3.09 1.3 1.12 2.57 2.12 3.77 3.09h13.94c.87-1.36 1.78-2.7 2.8-3.95.53-.65 2.93-.58 3.87.05 1.83 1.22 3.63 2.52 5.36 3.9h11.76c.58-3.16 2.86-6.24 5.83-6.7 2.21-.34 4.69 1.03 7.05 1.63.69.94 1.4 1.87 2.06 2.83.52.76.93 1.5 1.24 2.24h9.72c.27-2.15 1.53-4.15 3.72-5.5.67-.41 1.46-.74 2.23-.85 2.73-.38 7.2 2.76 9.69 6.35h14.66c-.07-2.92 1.42-5.86 4.51-8.64.88-.79 2.19-1.1 3.42-1.69 4.24 1.59 7.65 4.2 10.02 7.71.58.86.78 1.74.75 2.62h9.52c-1.35-1.73-1.05-4.11.47-6.06 1.33-1.7 3.04-3.1 4.67-4.73 1.97.99 3.33 1.51 4.51 2.31 1.32.9 2.45 2.08 3.7 3.08 1.81 1.45 2.71 3.42 2.77 5.39h11.81c-1.73-2.23-1.59-4.02.11-7.18.44-.81.79-1.67 1.24-2.47 2.39-4.16 4.6-4.65 8.32-1.76 2.55 1.98 5.1 3.97 7.47 6.14 1.2 1.1 2 2.62 3.35 4.44-.19.27-.36.55-.54.82h5.76c-.19-.38-.35-.74-.46-1.08 2.39-3.23 4.78-6.47 7.19-9.69.11-.15.52-.3.61-.23 2.42 1.85 5.08 3.49 7.08 5.72.75.84.2 3.14-.21 4.64-.06.22-.14.42-.23.63h10.98c-.57-.55-1.14-1.09-1.7-1.65-.75-.74-1.18-1.8-1.97-3.05 1.86-3.06 3.42-6.16 5.57-8.76.55-.67 3.51-.33 4.5.53 3.55 3.1 6.86 6.5 9.96 10.06.54.62.73 1.79.68 2.87h7.63c-.5-1.26-.57-2.97-.33-4.27.48-2.67 1.57-5.26 2.6-7.8 1.59-3.92 4.4-4.54 7.51-1.65 1.84 1.71 3.63 3.47 5.41 5.24v-5.39c-1.42-1.33-2.85-2.66-4.34-3.91-2.43-2.04-2.45-4.48-1.57-7.16.43-1.31.95-2.58 1.38-3.89 1.34-4.12 2.36-5.41 4.53-4.42v-7.52c-1.27-1.58-1.14-3.07 0-5.89V542c-.57-.13-1.13-.28-1.66-.5-.89-.37-1.52-1.37-2.26-2.09-3.84-3.71-3.89-9.11.04-12.6 1.3-1.15 2.6-1.28 3.88-.92v-4.99c-1.86-1.85-1.79-3.32 0-6.5v-18.7c-3.4-2.2-6.8-4.39-10.03-6.82-.97-.73-1.31-2.78-1.27-4.21.04-1.41.88-2.82 1.47-4.19 1.94-4.53 3.82-5.15 8.23-2.79.53.28 1.07.56 1.61.82v-.4c-1.52-1.31-3.04-2.62-4.58-3.91-2.24-1.87-3.66-3.84-1.36-6.66.48-.59.66-1.45.95-2.19 1.38-3.48 2.43-4.7 4.98-4.8v-5.95c-3.17-2.27-6.36-4.53-9.42-6.94-3.35-2.65-3.29-4.65-.2-8.81 2.83-3.82 4.72-4.3 8.29-2.11.44.27.89.54 1.33.82v-6.02c-.84-1.05-.84-2.13 0-3.54v-38.86c-3.39-4.52-6.8-9.03-10.07-13.63-1.5-2.1-1.08-4.31.21-6.71 3.43-6.39 6.61-12.9 9.87-19.38v-26.46c-2.16 6.27-4.66 12.43-7.26 18.54-1.66 3.9-3.86 7.57-5.8 11.36-2.39 4.69-7.13 5.66-11.04 2.13-7.51-6.78-15-13.58-22.37-20.5-.69-.65-1.01-2.46-.63-3.37 4.44-10.62 5.42-21.7 5.38-33.1-.03-9.26-1.17-18.21-3.99-26.99-.11-.33-.08-.74-.27-1-3.43-4.6-.23-7.38 2.75-10.29 6.09-5.95 12.16-11.91 18.2-17.92 3.66-3.64 9.52-2.61 12.1 2.58 3.99 8.01 8.15 16.01 11.24 24.38.71 1.93 1.24 3.94 1.69 5.97v-21.98c-3.7-7.45-7.4-14.89-10.88-22.44-.68-1.48-.38-4.16.57-5.52 3.27-4.65 6.8-9.13 10.32-13.62v-50.18c-.12.05-.24.1-.36.16-.72.34-1.35.95-2.1 1.16-2.48.67-5.41-1.67-7.58-5.94-1.24-2.43-.17-4.18 1.75-5.63 2.76-2.07 5.53-4.14 8.29-6.2v-5.46c-1.55.29-2.99.1-3.83-1.99-3.16-7.88-5.04-6.11.39-11.84-3.91 1.63-5.9.05-7-3.29-.32-.97-.89-1.85-1.29-2.79-1.25-2.93-1.34-5.46 1.87-7.4 3.34-2.01 6.6-4.17 9.87-6.31V73.8c-2.6.41-3.06-.52-5.12-4.84-2.58-5.4-.11-10.86 5.12-12.56V34.96c-.93-2.27-1.04-3.42 0-4.81v-6.47c-.26.25-.54.49-.79.74-1.95 1.97-3.69 1.95-4.81-.48-1.52-3.29-2.81-6.71-3.96-10.15-.27-.81.08-2.27.7-2.86 2.89-2.76 5.88-5.42 8.86-8.08V0h-3.11c-2.03 2.24-4.1 4.44-6.27 6.54-.82.79-3.23-.08-5-.19Zm-9.84 33.84c-.8 1.83-1 2.93-1.64 3.63-1.71 1.86-3.5 3.69-5.47 5.27-2.06 1.66-4.2 1.61-6.1-.53-2.9-3.28-2.95-9.63-.05-12.77.08-.08.15-.18.25-.24 2.36-1.47 3.8-6.2 7-4.02 2.79 1.9 4.18 5.87 6.02 8.67ZM20.96 79.31c.66-.74 2.23-1.04 3.32-.89 1.02.13 2.15.91 2.83 1.74 2.15 2.63 4.12 5.42 6.6 8.74-1.83 1.36-3.25 2.88-5.01 3.55-.89.34-2.85-.52-3.47-1.42-1.81-2.63-3.32-5.49-4.64-8.39-.41-.91-.26-2.63.37-3.32Zm-1.32-12.63c-1.43-2.07-3.86-4.48-1.62-7.39 1.53-1.99 3.37-3.75 5.19-5.49 2.12-2.03 5.1-1.19 5.85 1.64.41 1.54.64 3.13.95 4.7.23.23.46.46.69.68-2.13 2.52-4.04 5.3-6.53 7.4-.67.57-3.75-.43-4.52-1.54ZM31.93 83.6c-2.26-2.71-4.42-5.51-6.39-8.44-.39-.58-.11-2.2.44-2.69 1.8-1.61 3.97-4.21 5.8-4.06 3.35.27 1.92 3.98 2.39 6.25.5 2.45.71 4.95 1.12 7.97-.14.24-.39 1.29-.91 1.44-.74.21-2.02.05-2.45-.47Zm-1.18-36.03c-.04-2.5 3.25-7.08 5.41-7.28 1.2-.11 3.19.36 3.61 1.19 1.01 2 2.25 4.67 1.66 6.5-.79 2.43-3.05 4.53-5.04 6.38-1.87 1.74-3.77.94-4.58-1.35-.64-1.81-.77-3.8-1.07-5.44Zm10.43 6.04c1.66-1.36 3.18-1.54 4.84.12 3.06 3.06 3.45 6.72 1.1 10.32-.73 1.12-1.11 2.48-1.65 3.72a.36.36 0 0 1 .1-.07c-.95 1.49-1.71 3.14-2.9 4.39-1.02 1.07-2.64 2.37-3.83 2.23-1.06-.13-1.99-2.04-2.8-3.28-.34-.52-.08-1.41-.36-2.01-3.25-6.97.56-11.38 5.5-15.42Zm-.65 25.58c1.5-3.9 3.35-7.67 5.06-11.49 4.88-3.57 4.7-3.39 7.3 2.81 1.37 3.27 1.25 5.3-1.7 7.43-2.67 1.93-4.9 4.46-7.45 6.57-.96.79-2.28 1.13-3.44 1.67-.35-.22-.7-.44-1.05-.67.41-2.12.53-4.35 1.29-6.33Zm173.59-10.38c-.1.37-.08.87-.3 1.02-4.22 2.95-8.4 5.98-12.81 8.63-.54.32-2.68-1.19-3.47-2.3-1.67-2.32-2.99-4.91-4.37-7.44-1.3-2.37-.23-4.37 1.57-5.75 3.01-2.3 6.13-4.53 9.47-6.28 1.12-.59 3.89-.17 4.47.72 2.11 3.25 3.63 6.9 5.34 10.41.14.29.07.68.1.99ZM316.2 87.16c4.29-1.95 8.64 1.67 8.4 6.44-.27 5.23-12.28 14.27-17.17 12.52-2.01-.72-4.53-2.68-4.94-4.49-.49-2.22.2-5.79 1.79-7.16 3.49-3.01 7.69-5.4 11.92-7.32Zm-9.27-14.42c.04-2.76 4.9-7.55 7.66-7.55 3.25 0 6.27 4.24 6.18 8.68-.05 2.6-5.24 6.74-8.28 6.61-2.78-.12-5.62-4.07-5.56-7.74Zm43.67 387.83c3.27 1.9 6.51 3.86 9.7 5.9 2.85 1.83 3.39 4.22 1.9 7.47-2.06 4.46-4.51 6.34-7.73 4.8-4.39-2.09-8.66-4.65-12.48-7.64-2.89-2.26-1.14-5.72.03-8.28.77-1.69 2.95-2.75 4.34-3.95 1.94.76 3.18 1.09 4.25 1.71Zm-3.21-12.75c1.22-2.19 1.77-4.74 2.76-7.06 1.53-3.57 4-4.45 7.09-2.27a387.01 387.01 0 0 1 15.52 11.53c1.14.89 1.72 2.49 2.79 4.14-2.31 3.45-4.2 6.74-6.61 9.58-.69.81-3.23.93-4.39.33-5.2-2.7-10.33-5.57-15.22-8.79-2.49-1.64-3.79-4.16-1.95-7.45Zm7.06 67.67c.84-1.59.8-3.65 1.67-5.21.78-1.41 2.26-2.45 3.29-3.51 1.55.54 2.38.65 3 1.08 4.43 3.07 8.82 6.2 13.22 9.32.09.07.22.14.25.23.46 1.64 1.75 3.67 1.21 4.86-1.7 3.76-.68 9.25-5.89 10.86-1.31.4-3.41-.51-4.68-1.44-3.6-2.65-7.08-5.5-10.38-8.51-2.23-2.03-3.38-4.51-1.7-7.68Zm-5-22.33c-3-1.7-5.99-3.42-8.92-5.24-2.8-1.74-3.66-4.29-2.7-7.44.96-3.15 3.06-4.76 6.95-4.68.45.13 1.53.23 2.4.72 3.11 1.73 6.21 3.5 9.2 5.44 3.25 2.11 4.08 5.45 2.29 8.33-2.48 3.98-5.54 4.96-9.22 2.88Zm-3.46-57.95c-1.76 3.44-1.78 8.18-6.22 9.82-.93.34-2.41.04-3.31-.51-3.9-2.38-8.01-4.6-11.4-7.61-2.2-1.95-3.27-5.16-4.3-6.88.71-4.53 1.01-7.64 1.72-10.66.85-3.64 4.64-5.03 7.52-2.66 5.15 4.25 10.21 8.61 14.98 13.27 1.08 1.06 1.66 3.93 1 5.22ZM93.62 530.22c-1.85-1.82-3.77-3.59-5.54-5.49-2.58-2.76-2.19-8.16.69-11.25 2.62-2.8 5.73-2.67 9.35.42 1.05.89 2.13 1.77 3.05 2.78 3.46 3.82 2.92 10.05-1.47 12.73-1.6.98-4.07.54-6.14.74l.06.06Zm259.96-414.75c-2.77 1.82-5.65 3.5-8.6 5.01-4.83 2.47-8.71.03-8.9-6.72.66-.85 1.67-2.84 3.27-4.05 2.45-1.86 5.28-3.24 8.01-4.7 3.22-1.73 5.59-.91 7.7 2.5 1.7 2.76 1.17 6.24-1.48 7.97Zm6.21 3.11c2.06 1.33 3.24 4.03 4.96 6.39-1.38 1.97-2.04 3.73-3.3 4.55-3.44 2.24-7.05 4.23-10.75 6.02-2.92 1.41-5.78.31-7.03-2.24-1.9-3.9-1.19-7.69 1.79-9.41 2.77-1.59 5.46-3.38 8.39-4.61 1.83-.76 4.62-1.55 5.94-.7Zm-26.3 29.38c-3.11 2.16-6.31 4.21-9.6 6.06-4.21 2.36-6.99.35-7.93-4.38-1.48-7.49 3.74-9.86 8.65-12.62 2.07-1.17 4.29-2.08 6.54-3.15 1.16.55 2.36.82 3.15 1.54 3.43 3.09 3.01 9.9-.81 12.55Zm16.56-47.6c-3.12 2.34-6.31 4.6-9.62 6.66-2.3 1.43-4.3.44-5.32-2.23-2.2-5.76-1.84-7.05 3.04-10.84 1.81-1.4 3.61-2.83 5.47-4.16.7-.5 1.57-.78 3.16-1.54 1.36 1.55 3.11 2.86 3.91 4.61 1.11 2.43 2.24 5.34-.65 7.5Zm-16.77 26.21c-3.8 2.76-7.77 5.4-11.97 7.46-3.99 1.95-7.43-1.17-7.38-7.43.65-.87 1.6-2.96 3.21-4.13 3.25-2.34 6.76-4.37 10.35-6.16 2.29-1.15 4.47-.34 5.98 1.89 2.15 3.19 2.34 6.53-.19 8.37Zm-21.99 315.57c-.59 1.39-1.28 3.24-2.43 3.75-1.11.49-3.18-.04-4.29-.85-4.63-3.36-5.14-8.08-1.33-12.23.74-.81 2.81-1.37 3.64-.91 1.74.96 3.28 2.53 4.47 4.15.55.74.09 2.22.09 3.37h-.09c0 .91.27 1.95-.06 2.72Zm-45.76 36.53c-6.48-4.48-12.7-9.36-18.8-14.36-.94-.77-1.3-3.29-.79-4.54.56-1.38 2.43-2.22 3.91-3.44 4.77 2.33 8.98 4.34 13.15 6.44 2.96 1.49 5.93 2.98 8.75 4.71 2.8 1.71 3.3 4.29 1.7 7.09-2.7 4.73-4.91 6.18-7.92 4.1Zm1.57 8.08c-.66 2.57-4.12 5.34-6.9 5.97-3.21-2.08-7.12-3.59-9.45-6.4-2.49-3 .99-5.67 2.86-7.95 1.6-1.95 3.82-1.81 5.86-.35 1.58 1.14 3.11 2.34 4.71 3.46 1.84 1.29 3.6 2.62 2.92 5.27Zm-102.4-32.29c-.29 4.14-3.55 6.02-7.28 4.3-5.6-2.57-6.48-6.49-2.49-11.09 2.1-2.42 4.16-4.88 6.3-7.26.53-.59 1.34-.93 2.02-1.38.51.8 1.38 1.56 1.47 2.39.21 2.15.07 4.33.07 6.5h-.07c0 2.18.12 4.36-.03 6.53Zm-55.53 44.57c-2.38-1.59-4.93-2.99-7.1-4.83-1.45-1.24-2.37-3.1-3.99-5.32 1.96-2.74 3.23-5.75 5.5-7.39 2.75-1.99 5.63-.15 8.05 1.88 1.84 1.55 3.85 2.9 5.73 4.39 3.36 2.67 3.77 5.95 1.23 9.31-2.86 3.77-5.8 4.38-9.42 1.95Zm-.85 14.91c-.69.86-2.19 1.4-3.35 1.47-3.54.21-10.31-6.76-11.04-10.84 1.48-2.16 2.6-4.74 4.52-6.39 2.43-2.1 4.97-.5 7.16 1.2.63.49 1.33.9 1.99 1.38 6.04 4.4 5.16 7.64.71 13.18ZM81.74 137.09c-1.28-3.54-2.01-7.28-3.06-11.25.5-.86.84-2.09 1.64-2.74 3.93-3.17 7.94-6.25 12.01-9.24 2.33-1.71 4.17-.94 5.14 1.66.88 2.37 1.94 4.78 2.16 7.24.14 1.54-.76 3.53-1.83 4.75-3.1 3.52-6.55 6.73-9.82 10.11-2.14 2.21-5.27 2.13-6.24-.53Zm1.3 24.11c-.86 1.33-1.51 3.46-2.65 3.78-1.15.32-3.02-.91-4.18-1.92-1.16-1.01-2.39-2.51-2.56-3.93-.21-1.68.24-3.81 1.21-5.17.83-1.15 3.14-2.34 4.19-1.94 1.27.49 2.15 2.54 2.74 4.09.54 1.45.47 3.13.68 4.71.19.13.38.25.57.38Zm6.34-19.82c3.12-3.05 6.32-6.01 9.55-8.94 1.78-1.61 4.29-1.18 5.5 1.18a45.57 45.57 0 0 1 3.26 8.27c.28.97-.33 2.72-1.13 3.37-3.82 3.11-7.84 5.98-11.81 8.89-.43.32-1.06.37-1.61.55-.81-.23-1.68-.29-2.31-.7-2.69-1.73-3.71-10.42-1.44-12.64Zm220.74 15.73c.15.55.17 1.13.21 1.4-.01 3.44-2.64 6.45-5.68 6.71-.65.05-1.39-.1-1.97-.4-2.13-1.08-3.76-8.36-2.11-10.04 1.9-1.94 2.96-5.45 6.65-4.59 3.95.91 2.24 4.48 2.9 6.93Zm-3.12-11.7c-2.09 1.75-4.19 3.61-6.58 4.85-.98.51-2.94-.19-4.09-.91-1.08-.68-1.76-2.08-2.5-3.24-2.2-3.43-1.99-4.84 1.27-7.22 2.84-2.08 5.81-3.98 8.62-5.89 1.43.63 2.5.86 3.24 1.48 2.23 1.88 2.26 9.07.04 10.93Zm-9.51 20.66c.39.9-.2 2.88-1.01 3.54-5.92 4.89-12 9.59-18.07 14.28-.76.59-1.81.8-3.06 1.33-.97-.72-2.24-1.24-2.83-2.18-2.5-3.98-4.71-8.14-7.19-12.13-1.6-2.56-.89-4.65 1.11-6.32 5.71-4.79 11.53-9.45 17.32-14.14 2.35-1.9 4.96-2.11 6.49.6 2.72 4.84 5.04 9.92 7.24 15.02Zm-16.16-22.15c-5.83 4.84-11.76 9.57-17.82 14.12-3.14 2.35-4.67 1.83-7.03-1.53-1.45-2.06-2.93-4.1-4.33-6.2-.49-.74-.78-1.61-1.39-2.89 1.04-1.12 1.88-2.62 3.15-3.31 6.54-3.56 13.08-7.17 19.86-10.23 4.21-1.9 5.08 2.91 7.26 4.86 1.53 1.37 2.15 3.64.29 5.18Zm-27.77 31.38c1.58 1.29 3.35 2.24 4.4 3.71 2.13 2.97 3.94 6.19 5.76 9.38 2.37 4.15 1.84 6.22-1.49 9.39-3.73 3.54-7.36 7.22-10.79 11.05-3.92 4.38-8.59 4.14-11.42-1.05-2.09-3.82-3.85-7.82-5.7-11.77-1.63-3.49-.13-6.28 2.35-8.58 3.54-3.28 7.14-6.52 10.94-9.48 1.54-1.21 3.67-1.66 5.96-2.64Zm5.52 138.39c-.03 7.8-1.58 15.32-4.68 22.47-2.7 6.22-5.64 12.34-8.45 18.52-2.16 4.76-6.33 5.99-10.24 2.63-5.74-4.95-11.23-10.19-16.87-15.26-1.71-1.54-3.57-2.9-5.67-4.59 6.73-10.48 6.69-21.98 6.44-33.54-.12-5.71.35-11.46-.16-17.13-.5-5.56-1.71-11.09-3.01-16.54-.5-2.09-.28-3.42 1.15-4.91 5.98-6.22 11.84-12.56 17.83-18.76 3.23-3.34 7.94-2.96 11.05 2.59 2.85 5.09 4.98 10.59 7.3 15.96 4.19 9.66 5.8 19.73 5.24 30.27-.32 6.08.08 12.2.06 18.31Zm3.66 94.57c-1.92 3.51-4 6.97-6.35 10.2-2.47 3.41-6.39 3.79-9.58 1.07-4.16-3.55-8.29-7.16-12.18-11-2.18-2.15-2.16-4.71-.45-7.51 2.27-3.71 3.87-7.83 6.19-11.5.96-1.52 3.02-2.33 4.8-3.63 2.03 1.27 3.75 1.98 5 3.18 3.89 3.74 7.67 7.61 11.38 11.53 2.09 2.21 2.67 4.96 1.2 7.65Zm2.19 18.26c1.9-2.73 3.43-5.73 5.33-8.46.83-1.19 2.2-2.01 3.44-3.1 1.33.77 2.24 1.19 3.04 1.76 4.86 3.5 9.7 7.03 14.55 10.54 2.51 1.82 3.83 3.99 2.24 7.11-1.98 3.87-3.77 7.84-5.96 11.58-1.55 2.65-3.81 2.97-6.39.91-5.04-4.01-10.25-7.8-15.29-11.82-3.47-2.76-3.52-4.83-.95-8.52ZM148.86 222c3.14-3.9 6.84-7.34 10.34-10.95.47-.49 1.2-.75 1.63-1.27 5.7-6.89 15.8-5.67 20.63 4.25 1.6 3.29 3.19 6.6 4.4 10.04 1.01 2.87.01 5.35-2.06 7.77-5.23 6.1-10.15 12.47-15.21 18.73-1.21 1.5-2.45 2.98-3.98 4.85-3.91-9.84-9.48-18.1-16.51-25.52-2.22-2.35-1-5.73.74-7.9Zm-7-8.6c-1.75-4.57-2.98-9.34-3.85-12.2-.68-6.33 2.27-8.9 5.12-11.4 2.5-2.19 5.3-4.02 7.9-6.09 4.35-3.46 9.09-1.79 11.51.9 3.91 4.36 4.52 10.26 1.13 13.83-5.13 5.41-10.54 10.55-15.91 15.72-1.87 1.79-5.02 1.51-5.9-.77Zm69.74 93.25 1.06.09c-.87 6.45-1.53 12.94-2.67 19.35-1.34 7.52-5.55 13.78-9.6 20.07-2 3.1-4.14 6.14-5.81 9.41-2.71 5.3-9.85 5.51-13.09 1.04-4.65-6.41-9.89-12.39-14.92-18.51-1.99-2.42-2.53-4.57-1.62-8.01 1.66-6.26 2.54-12.86 2.74-19.35.33-10.98.07-22-.33-32.98-.15-4.2-1.44-8.36-2.03-12.56-.15-1.09-.02-2.57.62-3.37 5.88-7.38 11.8-14.72 17.9-21.91 3.09-3.64 9.26-2.05 11.82 2.74 2.93 5.47 5.97 10.88 8.96 16.31 5.41 9.8 7.95 20.18 7.04 31.45-.43 5.38-.07 10.82-.07 16.23Zm-30.77 59.11c.65.8 1.36 1.58 2.15 2.24 4.78 3.98 5.91 7.92 3.28 13.55-1.89 4.04-4.08 7.97-6.45 11.75-3.7 5.88-11.99 6.72-17.06 2.71-5.8-4.59-10.92-10.11-16.01-15.54-3.19-3.41-2.57-8.41.2-12.07 5.74-7.57 11.22-15.34 17-23.31 5.46 6.68 11.17 13.68 16.89 20.66Zm.48 53.97c1.82-.1 3.99.21 5.47 1.16 4.73 3.06 9.25 6.45 13.79 9.81 4.12 3.04 5.53 8.68 3.19 12.18-3.76 5.59-9.33 7.08-14.47 3.84-3.7-2.33-7.4-4.67-11.05-7.06-3.05-2-4.39-4.92-4.38-8.2.81-6.54 2.72-11.46 7.46-11.73Zm18.89.49c-3.69-2.32-7.29-4.79-10.86-7.29-4.83-3.37-6.53-8.23-4.87-13.56 1.91-6.14 6.6-9.88 12.85-10.66 2.13.97 4.57 1.57 6.33 3 3.92 3.19 7.59 6.71 11.2 10.26 3.98 3.9 4.51 10.32 1.39 14.14-5.12 6.26-10.39 7.67-16.04 4.11Zm1.93-43.54c-3.5-3.54-3.64-5.94-1.02-10.27 3.32-5.48 6.98-10.76 10.64-16.36 5.99 4.99 11.69 9.76 17.42 14.5 1.77 1.46 3.72 2.72 5.4 4.28 2.97 2.74 3.55 6.04 1.84 9.61-1.83 3.83-3.7 7.66-5.62 11.44-2.5 4.92-8.25 5.87-12.11 2.3-5.55-5.13-11.24-10.13-16.55-15.5Zm18.41 51.93c1.87-3.55 3.73-7.12 5.84-10.52.75-1.21 2.23-1.96 3.42-2.95 1.44.79 2.53 1.19 3.39 1.88 4.2 3.39 8.37 6.82 12.48 10.32 3.02 2.58 3.02 3.68.71 6.86-1.61 2.22-3.04 4.58-4.52 6.9-1.34 2.1-3.21 2.63-5.34 1.55-4.81-2.43-9.59-4.93-14.31-7.54-2.72-1.5-3.04-3.89-1.66-6.5Zm24.05-257.44c-3.91 3.87-8.07 7.49-12.33 10.98-3.15 2.57-5.51 1.88-7.4-1.82-1.62-3.17-3.16-6.37-4.71-9.57-.34-.7-.53-1.47-.97-2.69.59-.85 1.04-2.14 1.95-2.7 4.29-2.66 8.64-5.25 13.11-7.6 2.64-1.39 5.07-1.03 6.75 1.93 1.35 2.38 3.31 4.47 4.36 6.96.52 1.23.16 3.63-.75 4.53Zm-12.03 36.63c2.3 4.1 4.28 8.37 6.43 12.56 1.39 2.72 1.04 7.21-1.02 9.42-8.28 8.9-16.64 17.74-25 26.63-5.34-8.73-10.5-17.09-15.55-25.51-1.48-2.47-.77-4.99.96-7.01 2.59-3.03 5.31-5.97 8.19-8.72 3.82-3.64 7.82-7.1 11.81-10.56 5.64-4.9 11.02-2.42 14.18 3.19Zm-19.22-11.96c-3.41 3.38-6.92 6.69-10.58 9.8-6.18 5.25-14.7 3.01-17.75-4.53-3.59-8.87-2.99-11.74 4.57-17.63 3.5-2.73 7.42-4.94 11.24-7.23 1.13-.68 2.57-.85 3.25-1.07 4.97-.08 9.62 3.19 11.59 7.68 2.08 4.73 1.36 9.33-2.32 12.98Zm-12.1-27.17c-4.73 3.98-9.97 7.37-15.11 10.84-3.63 2.45-8.61 1.34-10.2-2.57-1.92-4.73-4.08-9.83-.47-14.7 1.53-2.06 3.71-3.73 5.86-5.2 3.02-2.08 6.31-3.76 9.44-5.69 6.35-3.94 14.77 2.62 15.32 9.79-1.58 2.55-2.66 5.7-4.84 7.54Zm-7.8-27.37c-5.92 4.52-12.13 8.64-18.25 12.89-.44.3-1.1.29-1.94.49-.73-.38-1.86-.65-2.48-1.35-2.37-2.7-1.11-10.5 1.98-12.36 4.63-2.78 9.3-5.48 14-8.13 2.12-1.2 4.39-1.66 6.24.47 2.32 2.67 2.76 6.24.46 8Zm-7.72-10.63c-4.16 2.65-8.38 5.19-12.59 7.75-4.82 2.93-8.02.91-9.15-5.84 1.17-1.59 2.09-3.46 3.55-4.72 3.38-2.94 7.03-5.56 10.53-8.35 3.67-2.93 5.86-3 7.89-.17 3.7 5.14 3.66 8.86-.22 11.34Zm-21.49 13.52c-.01 1.96 0 3.92 0 6.45.11 1.49.45 3.57.31 5.61-.06.91-.96 1.97-1.78 2.5-.32.21-1.65-.71-2.2-1.38-2.49-3.01-4.86-6.11-7.28-9.18-1.6-2.02-2.08-4.24-.38-6.31 1.84-2.24 3.99-4.43 7.32-3.45 2.75.8 4.03 2.88 4.01 5.76Zm-5.46-13.22c-1.88 1.84-3.8 3.77-6.04 5.08-1.25.73-3.97 1.01-4.66.25-2.32-2.55-4.02-5.66-5.34-7.64 0-4.61 10.22-11.46 13.3-10.23 3.51 1.4 5.42 9.91 2.74 12.53Zm-8.04 23.54c1.33 1.88 2.77 3.68 4.04 5.6 2.21 3.33 1.62 7.64-1.46 10.2-5.13 4.26-10.28 8.52-15.55 12.61-4.58 3.56-9.68 1.61-11.38-4.06-.49-1.64-1.5-3.11-2.07-4.74-.53-1.5-.78-3.1-1.33-5.37.85-1.34 1.64-3.31 3.05-4.63 4.11-3.85 8.44-7.46 12.72-11.11 4.01-3.42 8.95-2.77 11.98 1.5Zm-11.83-6.88c-4.11 3.51-8.17 7.07-12.22 10.64-2.96 2.61-7.34 2.06-9.08-1.44-1.46-2.94-2.46-6.11-3.9-9.77 1.15-1.5 2.04-3.24 3.44-4.37 4.01-3.26 8.18-6.33 12.37-9.37 3.76-2.73 6.1-2.32 9.12 1.39.65.8 1.28 1.63 1.84 2.5 2.9 4.48 2.49 6.96-1.56 10.42ZM131.16 129c-3.68 2.74-7.43 5.39-11.17 8.05-4.26 3.03-7.8 1.85-9.43-3.11-.68-2.08-1.38-4.15-2.04-6.24-.14-.43-.13-.91-.32-2.33.73-1.05 1.62-2.93 3.04-4.24 2.61-2.42 5.49-4.56 8.34-6.71 4.1-3.11 6.94-2.6 9.78 1.73 1.32 2.01 2.62 4.07 3.7 6.21 1.37 2.7.38 4.96-1.89 6.65Zm-14.19-19.15c-2.16 1.5-4.16 3.22-6.23 4.84-2.27 1.78-4.68 2.59-7.15.52-2.34-1.96-3.78-7.69-1.91-9.44 3.27-3.05 7.15-5.46 11.5-8.67 2.25 2.48 4.42 4.19 5.62 6.42 1.2 2.23.59 4.66-1.82 6.33Zm-24.49 52.9c3.07-2.72 6.41-5.17 9.85-7.43 1.21-.8 3.08-1.16 4.53-.94 4.6.71 5.96 4.64 7.16 8.32 1.03 3.16.29 6.11-2.46 8.34-3.82 3.1-7.45 6.46-11.49 9.24-1.67 1.15-4.48 1.93-6.21 1.3-1.45-.53-2.42-3.23-2.98-5.15-.76-2.61-.92-5.39-1.49-9.03.79-1.24 1.6-3.34 3.09-4.67Zm6.75 26.15c4.45-3.04 8.56-6.57 12.89-9.79 1.05-.78 2.39-1.15 4.2-1.98 1.48 1.48 3.31 2.64 4.15 4.3 1.7 3.36 3.14 6.93 4.12 10.56.43 1.59.06 4.08-.97 5.27-4.57 5.27-9.4 10.34-14.4 15.21-1.38 1.35-3.72 2.58-5.52 2.46-2.57-.18-3.67-2.48-4.1-5.19-.73-4.63-1.93-9.18-2.97-13.76-.67-2.95-.15-5.18 2.62-7.07Zm5.09 35.26c4.65-5.62 9.63-11.01 14.9-16.06 2.94-2.82 9.32-1.68 11.88 1.66 2.91 3.8 4.7 8.12 4.79 13.01.06 3.06-.63 5.73-2.76 8.2-2.76 3.2-5.05 6.81-7.58 10.2-2.47 3.31-4.99 6.58-7.76 10.21-3.69-5.84-7.16-11.34-10.66-16.82-.49-.76-1.09-1.48-1.76-2.1-2.89-2.65-3.62-5.2-1.04-8.31Zm22.27 59.18c-.31-4.62-1.56-9.28-3.08-13.68-.93-2.69-.62-4.58.96-6.62 3.89-5 7.75-10.02 11.65-15.02 2.96-3.79 7.56-3.84 10.63.11 3.16 4.08 6.27 8.24 8.99 12.63 5.68 9.17 7.92 19.26 7.19 29.82 0 9.05.11 17.9-.03 26.75-.16 9.76-3.78 18.36-9.4 26.2-2.35 3.28-4.6 6.63-7.03 9.85-3.56 4.73-7.65 4.52-11.18-.15-3.46-4.58-7.06-9.07-10.88-13.34-2.15-2.41-3.05-4.39-1.4-7.59 3.85-7.48 3.88-15.76 4.02-23.91.14-8.35.15-16.73-.42-25.05Zm4.03 80.06c5.82 7.09 6.32 12.92 1.72 20.95-3.13 5.46-10.12 6.77-14.71 2.35-4.54-4.38-8.76-9.09-12.87-13.88-2.69-3.13-2.11-7.06.44-10.3 3.98-5.06 7.69-10.33 11.78-15.87 4.67 5.74 9.14 11.27 13.65 16.75Zm6.66 51.89c5.42 4.03 10.67 8.29 15.78 12.71 1.31 1.14 1.8 3.23 2.75 5.05-.9 1.81-1.51 3.4-2.43 4.76-.89 1.31-2.25 2.31-3.16 3.61-4.06 5.79-8.49 4.59-12.55 1.21-3.86-3.22-7.63-6.56-11.39-9.9-2.34-2.08-2.7-4.65-1.57-7.51.96-2.43 1.82-4.91 2.82-7.33 1.4-3.4 6.56-4.97 9.74-2.6Zm-29.87-32.16c3.35 3.15 6.3 6.7 9.48 10.03 1.59 1.67 3.22 3.3 4.93 4.83 3.44 3.08 4 4.63 2.28 9.03-1.49 3.81-2.98 7.71-5.13 11.16-1.79 2.87-4.22 2.84-6.79.83-4.71-3.67-9.48-7.27-14.07-11.08-1.37-1.14-2.21-2.9-3.08-4.1 1.43-6.67 2.49-12.57 4-18.35 1.05-3.99 5.38-5.21 8.39-2.37ZM96.9 415.71c5.07 3.74 10.01 7.71 14.55 12.07 2.77 2.66 1.75 6.32 0 9.32-1.57 2.69-2.98 5.91-7.06 5.56-3.61.05-16.34-8.83-16.46-12.26-.15-4.27.53-8.68 1.62-12.83.72-2.71 4.8-3.75 7.35-1.86Zm-7.82 23.86c1.18.48 2.12.65 2.8 1.17 3.66 2.78 7.27 5.62 10.87 8.47 1.89 1.5 2.7 3.38 1.87 5.79-.89 2.61-1.57 5.3-2.62 7.85-1.18 2.86-4.37 3.59-6.46 1.58-3.15-3.02-6.28-6.06-9.29-9.22-2.58-2.71-2.85-10.5-.44-13.46.79-.97 2.17-1.47 3.27-2.18Zm23.06 36.98c-2.45-2.76.26-11.8 3.71-13.12 1.31-.5 3.35-.41 4.52.29 3.74 2.23 7.32 4.77 10.76 7.43 1.06.82 1.5 2.43 2.65 4.41-2.29 3.1-4.26 6.46-6.97 9.06-.93.89-4.11.51-5.54-.42-3.32-2.16-6.53-4.69-9.14-7.64Zm18.36-13.2c-3.38-2.18-6.71-4.45-10.06-6.68-.19-.13-.41-.21-.58-.36-2.26-1.94-3.21-4.42-1.79-7.07 1.74-3.27.95-8.6 7.42-8.79.54.27 1.78.64 2.74 1.39 3.9 3.03 7.81 6.05 11.52 9.31 3.99 3.51 3.76 6.37-.52 11.84-2.27 2.9-4.58 3.04-8.72.37Zm11.6 5.07c.4-.7.84-1.37 1.28-2.05 3.93-6.07 6.98-6.61 11.91-1.32 1.87 2.01 5.27 2.93 4.7 6.68-.28 1.35-.39 2.77-.86 4.06-2.14 5.92-4.98 6.4-9.25 3.31-1.96-1.41-4.09-2.57-6.12-3.89-2.76-1.79-3.28-3.94-1.66-6.79Zm18.86-46.4c-3.85 2.12-7.99 1.4-11.48-1.74-2.46-2.22-5.03-4.33-7.63-6.4-6.4-5.09-7.26-7.83-4.6-15.5.94-2.71 2.04-5.37 3.09-8.04 1.4-3.56 4.48-4.3 7.29-1.62 1.74 1.66 3.13 3.69 4.88 5.35 3.58 3.41 7.5 6.48 10.88 10.07 1.92 2.04 3.06 4.81 4.05 6.44-.84 5.61-2.81 9.42-6.47 11.44Zm5.86 45.24c.44-3.34 2.8-4.92 5.8-3.37 3.87 2.01 7.8 4 11.33 6.53 1.45 1.04 2.98 3.77 2.58 5.19-.71 2.51-1.04 6.31-5.9 6.11-.43-.22-1.39-.57-2.22-1.14-2.85-1.95-5.6-4.03-8.48-5.93-2.74-1.81-3.53-4.23-3.11-7.39Zm8.07-10.41c-2.97-1.4-4.13-3.44-4.31-6.8.88-2.38 1.07-5.69 2.78-6.93 2.66-1.94 4.93 1.17 7.17 2.63 3.85 2.5 7.77 4.92 11.56 7.52 4.44 3.04 4.82 5.92 1.51 10.02-1.42 1.76-3.13 1.66-4.94.71-4.58-2.4-9.09-4.95-13.77-7.14Zm17.73 28.29c.83-1.88 1.63-3.82 2.8-5.47.7-.99 2.1-1.49 3.08-2.14 1.17.4 1.98.54 2.63.94 3.81 2.32 7.59 4.7 11.37 7.08.37.23.63.67.88 1.04 1.67 2.44.87 5.77-2.45 9.2-1.98 2.05-4.13 3.67-7.18 1.39-3.02-2.26-6.29-4.19-9.39-6.35-2.02-1.4-2.8-3.34-1.75-5.7Zm18.9-4.14c-3.31-1.86-6.58-3.79-9.84-5.75-2.07-1.25-2.71-3.06-1.76-5.33.98-2.36 1.86-4.84 5.53-4.95.97.44 2.4.92 3.66 1.68 2.76 1.67 5.44 3.46 8.14 5.23 2.55 1.67 3.15 3.85 1.58 6.51-1.86 3.16-4.56 4.15-7.32 2.61Zm-1.33-20.84c-2.25-1.37-2.31-3.53-1.46-5.48 1.6-3.68 3.42-7.3 5.48-10.74.79-1.31 2.5-2.07 4.13-3.36 5.98 4.02 13 5.6 17.42 11.28.62.8.49 2.83-.1 3.81-2.2 3.64-4.76 7.05-7.12 10.59-1.46 2.2-3.54 2.79-5.66 1.61-4.33-2.4-8.46-5.14-12.69-7.72Zm13.3 23.91c1.32-2.92 2.66-6 6.31-6.48 2.56-.08 11.3 5.9 10.84 7.85-.68 2.86-2.28 5.74-4.26 7.92-.79.86-3.76.21-5.5-.41-1.79-.63-3.31-2.05-4.94-3.13-2.08-1.38-3.63-3.14-2.44-5.74Zm12.56-4.98c-.65-.46-1.41-.75-2.1-1.17-5.31-3.24-5.62-9.31-.45-12.91 1.21-.84 3.24-1.09 4.73-.8 3.38.66 8.95 6.28 9.57 8.97-1.69 2.34-3.04 5.07-5.15 6.92-2.08 1.82-4.54.43-6.6-1.02Zm38.22-16.07c-6.3-3.76-12.93-6.96-19.35-10.53-1.53-.85-2.74-2.25-4.11-3.39.86-1.86 1.23-2.94 1.82-3.89 1.39-2.26 2.86-4.46 4.32-6.67 1.7-2.58 4.35-3.11 6.75-1.26 6.09 4.71 12.16 9.45 18.21 14.21 2.61 2.05 2.85 4.11.89 6.86-.94 1.31-1.86 2.64-2.91 3.85-1.59 1.84-3.09 2.34-5.61.84Zm9.21 3.76q5.69-6.42 13.16-1.92c1.87 1.13 3.82 2.16 5.5 3.52 1.07.86 1.72 2.23 2.71 3.58-1.41 2.8-2.35 5.6-4.11 7.72-.75.9-3.55 1.04-4.84.39-4.07-2.08-7.89-4.65-11.76-7.12-2.69-1.73-2.85-3.7-.67-6.16Zm20.65-2.97c-2.55-1.77-5.1-3.53-7.59-5.37-.72-.53-1.92-1.58-1.78-1.94 1.05-2.65 2.13-5.38 3.78-7.67.57-.79 3.12-1.01 4.19-.43 2.49 1.35 4.73 3.23 6.86 5.14.76.68.92 2.05 1.3 2.97-.42 2.01-.64 3.87-1.22 5.61-.82 2.47-3.4 3.19-5.54 1.7Zm6.24-46.83c-.84 4.46-4.38 5.69-8.02 2.89-6.08-4.68-12.19-9.31-18.38-13.84-2.19-1.6-2.5-3.27-1.27-5.58 2.74-5.18 5.27-10.46 8.11-15.58.69-1.24 2.26-1.98 3.6-3.1 1.3.88 2.36 1.34 3.06 2.12 4.53 5.02 8.9 10.2 13.5 15.15 1.85 1.99 2.43 3.87 1.73 6.53-.99 3.75-1.6 7.6-2.33 11.41Zm-24.98-37.33c-2 4.13-4.1 8.22-6.4 12.19-3.56 6.14-13.81 7.23-18.66 2.08-3.39-3.61-6.66-7.32-10.09-10.89-3.66-3.82-3.93-8.39-2.04-12.78 3.54-8.22 7.64-16.2 11.6-24.46 7.73 6.58 15.13 12.92 22.59 19.2 3.56 3 5.18 10.16 3 14.67Zm-36.61-150.06c-1.86-4.36-1.36-8.5 2.17-12.03 2.83-2.84 5.59-5.76 8.33-8.69 3.46-3.7 9.25-4.74 13.13-1.56 5.5 4.49 8.55 10.83 10.19 17.55 1.32 5.42-2.92 9.36-5.9 13.02-4.98 6.13-10.82 11.55-16.5 17.48-4.1-9.21-7.88-17.43-11.43-25.76Zm31.16-34.18c-1.59-2.75-1.52-5.08 1.04-6.97 7.46-5.51 14.99-10.94 22.52-16.35.71-.51 1.65-.69 2.48-1.02 2.91.08 4.37 1.63 4.91 4.2 1.11 5.28 2.27 10.55 3.16 15.87.21 1.24-.18 2.99-.97 3.94-5.16 6.2-10.53 12.22-15.77 18.35-2.38 2.79-6.26 3.22-8.19-1.06-2.63-5.85-5.97-11.39-9.19-16.95Zm44.37-80.44c-3.05 2.2-6.24 4.22-9.45 6.18-3.14 1.91-5.53 1.49-7.6-1.06-1.87-2.3-2.12-6.86.05-8.56 3.77-2.95 7.86-5.49 11.88-8.1.72-.47 1.76-.46 2.92-.74.74.36 1.79.64 2.53 1.28 3.28 2.86 3.16 8.51-.32 11.01Zm-17.76 9.74c-.31.65-.48 1.73-1.1 2.2-3.3 2.47-6.62 4.94-10.12 7.1-2.11 1.3-3.97.69-5.55-1.55-4.95-6.98-5.11-6.36 2.67-11.38 1.92-1.24 3.78-2.57 5.73-3.76 3.64-2.23 6.09-1.27 7.24 2.79.41 1.44.72 2.9 1.14 4.6Zm-8.64-10.6c-4.08 2.91-8.49 5.38-12.8 7.95-.65.39-1.53.38-2.2.54-4.27-.39-5.58-3.83-6.5-6.81-.53-1.73.27-4.9 1.62-5.98 3.73-2.98 7.98-5.36 12.19-7.68 2.54-1.41 5.47.02 7.52 3.14 2.18 3.33 2.52 7.17.17 8.84Zm-12.63-12.18c-3.08 2.34-6.34 4.48-9.66 6.47-2.12 1.27-4.39 1.36-6.22-.77-2.26-2.63-2.8-5.83-.55-7.72 3.47-2.93 7.25-5.6 11.24-7.74 2.88-1.54 7.15 2.32 7.08 6.75-.37.62-.83 2.21-1.88 3.01Zm-11.89 24.58c.65 2.88-.87 4.73-3.38 6.06-5.69 3.03-11.28 6.23-16.98 9.24-1.59.84-3.37 1.45-5.13 1.85-2.15.48-4.18.14-5.25-2.18-1.12-2.4-1.3-4.73.99-6.57 6.18-4.98 12.36-9.96 18.64-14.81 1.02-.79 2.53-.95 3.17-1.18 3.39.07 7.09 3.77 7.95 7.58Zm-10.87-9.74c-.79.4-1.36 1.23-2.1 1.77-5.77 4.25-7.61 3.84-10.57-2.6-.47-1.02-.6-3.06 0-3.55 2.71-2.2 5.73-4.01 9.4-6.47 2.04 2.27 4.06 3.94 5.29 6.05 1.12 1.93.09 3.73-2.01 4.79Zm-5.3-14.41c-2.06 2.1-4.62 3.76-7.12 5.36-2.56 1.64-4.82 1.18-6.37-1.61-1.04-1.87-2.06-3.75-3.09-5.63.68-1.29.95-2.42 1.66-3.01 2.4-1.96 4.89-3.83 7.49-5.52 2.47-1.61 4.58-.94 5.99 1.63.77 1.41 1.83 2.8 2.1 4.31.26 1.45.22 3.58-.65 4.47Zm-9.94 19.66c1.1 2.59-.09 4.38-2.54 5.55-.7.33-1.23 1.02-1.87 1.5-4.67 3.47-8.97 2.22-10.99-3.35-.39-1.09-.57-3.04.04-3.57 2.7-2.36 5.73-4.34 8.04-6.03 4.49.59 6.12 3.11 7.3 5.91Zm-11.09-6.95c-.93 1.21-2.49 2.1-3.94 2.7-1.88.78-4.66 2.19-5.76 1.44-2.19-1.5-3.5-4.29-5.21-6.6.79-1.21 1.12-2.16 1.78-2.66 2.57-1.91 5.23-3.7 7.91-5.46.54-.36 1.69-.74 1.9-.52 1.85 2.05 3.97 4.04 5.11 6.47.5 1.06-.78 3.32-1.79 4.62Zm-13.63 18.7c3.56-2.23 5-2 7.42 1.5 2.02 2.92 3.89 5.94 5.71 8.99 1.86 3.11 1.5 5.13-1.55 7-4.39 2.69-8.98 5.06-13.44 7.63-2.17 1.25-4.06.44-5.08-1.27-2.29-3.83-4.17-7.9-6.19-11.89-.2-.39-.15-.89-.3-1.91.66-.83 1.34-2.22 2.46-3 3.57-2.48 7.29-4.74 10.98-7.05Zm-3.84-7.84c-3.47 2.41-7.13 4.56-10.71 6.81-2.28 1.44-4.33 1.43-5.93-1-2.6-3.93-2.88-6.86-.37-8.62 3.56-2.49 7.29-4.77 11.12-6.79 2.99-1.58 7.59 2.23 7.69 6.99-.32.49-.81 1.91-1.8 2.6Zm-7.74-12.29c-3.4 2.72-7.06 5.17-10.86 7.28-1.17.65-3.94.5-4.58-.34-1.83-2.41-2.95-5.36-4.53-8.47 1.23-1.48 2.09-2.98 3.37-3.96 2.55-1.95 5.32-3.61 8-5.39 1.96-1.31 3.94-1.57 5.58.38 1.61 1.92 3.37 3.88 4.3 6.13.47 1.13-.26 3.56-1.27 4.37Zm-11.72-12.06c-1.98 1.36-3.82 2.91-5.78 4.29-3.7 2.6-6.43 1.72-7.93-2.46-.5-1.4-1.06-2.78-1.56-4.1.91-4.66 4.97-5.95 8.2-7.9 2.49-1.5 5.27-1.48 7.69.71 3.92 3.55 3.73 6.49-.61 9.46ZM181.5 89.53c-2.58-2.42-4.21-6.23-5.22-9.72-.35-1.2 2.34-3.42 3.86-4.95.86-.87 2.19-1.24 3.25-1.93 3.83-2.47 5.19-2.19 7.61 1.78 1.24 2.03 2.33 4.15 3.23 5.76.14 4.24-10.21 11.43-12.72 9.07Zm-.36 12.41c1.38 2.2 2.65 4.57 3.36 7.04.31 1.08-.5 3.03-1.44 3.85-3.54 3.07-7.25 5.95-11.07 8.67-3.73 2.65-6.42 1.55-7.69-2.82-.58-1.98-1.18-3.95-1.76-5.93-.1-.33-.12-.68-.3-1.75.53-.72 1.14-2.18 2.24-2.96 3.54-2.51 7.21-4.84 10.92-7.11 2.12-1.3 4.35-1.2 5.75 1.03Zm-8.32-6.09c-3.36 2.75-7.05 5.11-10.71 7.47-2.39 1.54-4.88.77-6.31-1.74-1.13-1.99-2.11-4.07-3.38-5.96-1.74-2.59-1.33-5.04.87-6.73 3.81-2.93 7.94-5.45 11.95-8.12.37-.24.83-.33 1.79-.7 1.02.87 2.53 1.65 3.26 2.89 1.55 2.66 3 5.47 3.85 8.41.38 1.31-.28 3.65-1.31 4.5Zm-17.31 11.85c1.16 2.15.22 4.33-1.76 5.74-3.17 2.26-6.35 4.53-9.7 6.51-3.35 1.99-5.58 1.25-7.77-2.06-1.33-2.01-2.78-3.94-4.05-5.98-.58-.94-.86-2.06-1.45-3.55.78-1.05 1.39-2.46 2.46-3.22 3.53-2.53 7.08-5.12 10.93-7.06 1.36-.68 4.32-.2 5.36.89 2.4 2.53 4.3 5.63 5.98 8.73Zm-16.52-11.4c-2.86 2.56-6.07 4.72-9.22 6.94-.59.42-1.56.54-2.31.45-4.21-.5-4.43-4.6-5.91-7.29-.69-1.24.13-4.35 1.32-5.4 3.06-2.69 6.64-4.83 10.17-6.94 2.41-1.44 5.45-.2 6.85 2.69.68 1.4.86 3.05 1.39 5.06-.67 1.39-1.07 3.39-2.28 4.49ZM128.7 80.9c-2.39 1.59-4.8 3.15-7.22 4.71-2.15 1.39-4.29 1.35-5.8-.79-1.76-2.5-3.19-5.23-4.77-7.87.58-1.15.82-2.07 1.39-2.7 2.24-2.46 4.48-4.94 6.92-7.19 2.56-2.37 5.41-1.8 7.17 1.16 1.23 2.07 2.45 4.15 3.72 6.19 1.66 2.65 1.12 4.8-1.42 6.49Zm-18.71 14.17c-.92.69-1.87 1.35-2.73 2.11-1.93 1.73-4.53 3.08-6.49 1.51-2.11-1.69-3.23-4.63-4.84-7.11 1.09-1.79 1.59-3.09 2.49-3.98 1.78-1.78 3.75-3.38 5.7-4.97 2.18-1.78 4.39-1.81 6.49.18 4.28 4.05 4.03 8.76-.62 12.26Zm-15.63-8.74c-1.94-.1-3.19-2.22-4.15-4.68-1.04-2.64-2.01-5.28.54-7.65 1.52-1.41 3.09-2.76 4.61-4.16 3.87-3.57 7.11-2.9 9.34 1.94 2.74 5.96-2.68 14.51-10.34 14.54Zm-2.21 21.24c-2.94 3.58-7.06 6.29-10.98 8.91-2.4 1.61-4.68-.09-6.3-2.05-1.79-2.17-2.28-5.21-.54-7.05 3.1-3.3 6.97-5.9 10.56-8.73.41-.33 1.09-.33 1.56-.45 4.54-.15 8.54 5.93 5.71 9.38Zm-5.73-12.99c-2.26 2.67-5.03 4.99-7.86 7.07-2.88 2.12-5.78 1.15-7.21-2.09-.73-1.66-1.17-3.45-1.58-4.68.05-3.26 10.13-12.13 12.78-11.79 4.45.56 7.05 7.73 3.88 11.49Zm-16.3 28.44c-.36.66-.85 2.12-1.81 3.14-1.55 1.66-3.41 3.02-5.12 4.53-2.11 1.86-4.81 2.36-6.38.17-1.26-1.75-2.19-5.34-1.25-6.73 1.88-2.75 4.91-5.04 7.94-6.6 3.03-1.56 6.48 1.26 6.61 5.49Zm-3.93 10.8c1.56-1.17 3.18-2.25 4.7-3.47 2.06-1.65 3.94-1.07 4.79 1 1.46 3.58 2.39 7.37 3.78 11.84-1.97 2.22-3.83 4.78-6.21 6.7-.6.48-3.15-.72-4.24-1.75-1.64-1.55-2.79-3.62-4.14-5.47-3.34-4.59-3.21-5.47 1.32-8.86Zm10.99 41.47c.65-.55 3.26-.13 3.3.12.92 5.38 2.1 10.79 2.07 16.2-.01 2.06-2.78 4.21-4.5 6.14-3.29 3.69-6.86 7.12-10.07 10.88-3.36 3.94-8.81 3.98-11.63-.41-1.58-2.47-2.59-5.31-4.11-8.53 1.67-2.29 2.95-4.75 4.86-6.53 6.55-6.11 13.28-12.03 20.09-17.86Zm-12.52 45.84c3.76-4.6 7.61-9.18 11.86-13.32 3.97-3.86 10.06-1.35 11.83 4.76 1.31 4.51 2.3 9.12 3.19 13.74.28 1.48.31 3.43-.43 4.61-4.91 7.82-10.05 15.49-15.61 23.95-3.1-7.07-5.73-13.15-8.44-19.19-.94-2.09-2.12-4.06-3.14-6.11-1.47-2.95-1.26-5.98.74-8.44Zm13.92 111.13c3.66-9.76 4.29-19.89 3.96-30.15-.24-7.52-.43-15.05-.91-22.55-.18-2.84-.54-5.96-1.88-8.35-2.13-3.78-.74-6.39 1.4-9.26 3.78-5.08 7.48-10.21 11.19-15.33 3.68-5.07 7.69-4.79 10.96.58 2.74 4.52 6.02 8.72 8.58 13.34 4.36 7.86 6.38 16.43 6.12 25.43 0 11.04.34 22.09-.1 33.11-.43 10.69-5.25 19.89-11.59 28.29-2.21 2.93-4.47 5.83-6.96 8.53-2.03 2.2-5.19 1.98-6.87-.47-4.55-6.61-8.97-13.32-13.33-20.06-.54-.83-.88-2.24-.55-3.1Zm11.63 31.3c.72 1.04 1.45 2.08 2.3 3.01 2.27 2.52 2.95 5.33 2.08 8.63-1.36 5.22-2.58 10.48-3.87 15.72-1.63 6.63-8.64 9.08-13.57 4.3-4.6-4.46-8.56-9.58-12.68-14.52-3.81-4.57-2.09-9.34.08-13.87 3.53-7.34 7.3-14.56 10.97-21.83.2-.39.44-.75.84-1.41 4.72 6.81 9.28 13.39 13.85 19.96Zm-26.65 28.18c2.85-.74 5.02.29 6.86 2.19 4.31 4.47 8.58 8.98 12.72 13.59 1.15 1.28 1.82 2.99 2.35 3.89-.7 4.82-1.14 8.71-1.91 12.54-.21 1.03-1.31 2.09-2.29 2.65-.4.23-1.65-.72-2.33-1.33-6.45-5.88-12.8-11.87-19.33-17.67-2.3-2.04-3.73-4.36-2.65-7.23 1.29-3.44 2.05-7.46 6.57-8.63Zm14.22 41.37c2.11-.89 4.27.83 4.27 2.62-.44 3.38-.61 6.03-1.18 8.6-.58 2.61-3.47 3.27-5.41 1.41-3.41-3.28-2.03-10.8 2.32-12.63Zm-3.53 16.37c1.71 2.08 3.27 4.3 4.63 6.11-1.24 4.85-2.1 9.04-3.41 13.08-.82 2.55-3.61 3.03-5.61 1.36-2.11-1.75-4.18-3.57-6.39-5.18-2.48-1.8-3.14-3.84-1.43-6.49 1.87-2.9 3.61-5.9 5.62-8.7 1.93-2.68 4.51-2.71 6.59-.18Zm-8.86 19.8c1.64 1.43 3.56 2.56 5.07 4.1 1.13 1.16 1.81 2.75 2.38 3.65-.7 4.83-4.89 8.08-8.92 5.57-2.04-1.27-4.01-2.68-5.91-4.16-3.32-2.59-3.61-6.14-.87-9.3 2.43-2.81 4.96-2.74 8.26.13Zm-4.68 13.98c1.63 1.45 3.43 2.71 5 4.23 1 .97 1.72 2.24 2.43 3.2-1 2.72-1.48 5.06-2.66 6.97-1.29 2.1-3.04 3.23-5.58.85-2.76-2.58-5.93-4.72-9.03-6.91-2.24-1.58-2.82-3.27-1.65-5.88 3.48-7.77 5.08-8.15 11.49-2.46Zm2.01 39.52c.23-5.07 1.36-7.89 4.62-9.56 3.33-1.71 6.14-.89 8.81 1.48 2.99 2.66 6.41 5.04 6.3 9.64-.09 3.61-1.71 6.41-5.1 7.93-3.18 1.42-5.83.21-8.18-1.94-2.81-2.57-6.71-4.42-6.44-7.55Zm14.96-9.83c-2.17-1.51-4.2-3.24-6.18-5-3.03-2.71-3.13-8.23-.13-11.02.94-.87 2.33-1.25 2.79-1.48 7.44.12 13.68 9.71 10.96 15.44-1.51 3.19-4.51 4.11-7.44 2.07Zm7.29-13.55c-2.1-1.61-4.01-3.45-6.09-5.08-2.61-2.03-3.31-4.8-2.53-7.71.77-2.86 3.24-4.01 6.1-4.24.45-.04.89-.12 1.37-.19-.11-.3-.14-.56-.27-.7-1.75-1.85-4.94-3.65-4.98-5.53-.08-3.74 1.23-7.65 2.63-11.23.81-2.08 3.12-2.22 4.92-.59 3.48 3.16 6.98 6.33 10.3 9.66 1.61 1.62 2.23 3.68 1.05 5.99-.57 1.11-.63 2.5-1.28 3.54-1.02 1.62-2.34 3.05-3.43 4.43.7 1.69 2.49 4.12 2.47 6.53-.02 1.92-1.92 4.2-3.58 5.63-2.05 1.78-4.61 1.07-6.68-.52Zm23.9 29.48c.39-.51 2.5-.4 3.21.17 2.96 2.37 5.7 5.02 8.51 7.58.17.15.32.33.46.52 1.46 1.99-.1 6.25-3.72 9.91-2.01 2.03-3.97 1.34-5.75-.36-2.33-2.22-4.63-4.47-6.85-6.8-.51-.54-.66-1.42-1.3-2.86 1.67-2.57 3.38-5.49 5.44-8.15Zm10.81.57c-2.07-1.81-4.14-3.69-5.83-5.83-.81-1.03-1.34-2.91-.98-4.1.68-2.26 1.84-4.49 3.27-6.38 1.67-2.21 3.89-3.02 6.53-1.03 2.38 1.8 4.98 3.3 7.42 5.02 2.09 1.47 2.66 3.42 1.32 5.69-1.28 2.17-2.54 4.39-4.08 6.38-.83 1.07-2.24 1.7-3.58 2.68-1.6-.93-3-1.48-4.07-2.41Zm10.31-16.42c-2.47-1.47-4.85-3.09-7.24-4.68-2.38-1.59-3.05-3.71-1.61-6.24 1.37-2.41 2.12-5.54 4.29-5.56 5.67.16 12.79 6.62 13.35 10.7.41 2.95-.73 5.03-3.15 6.7-2.3 1.59-3.94.1-5.65-.92Zm3.41-20.56c-2.62-1.8-3.19-4.08-1.64-6.86 1.35-2.41 2.62-4.87 4.13-7.17 1.64-2.5 3.92-3.66 6.75-1.85 3.58 2.29 7.14 4.61 10.53 7.15 1.08.81 1.6 2.35 2.82 4.26-2.68 3.91-5.14 7.85-8.02 11.46-.58.72-3.06.75-4.09.14-3.63-2.15-7-4.74-10.48-7.14Zm20.13 10.14c1.26-1.44 1.94-3.37 2.96-5.03 1.59-2.59 3.73-3.26 6.37-1.56 2.9 1.86 5.83 3.67 8.6 5.7.99.73 1.55 2.04 2.48 3.33-1.71 3.57-2.95 7.07-5.01 10-.71 1.01-3.82 1.33-5.21.66-3.27-1.58-6.33-3.74-9.17-6.05-2.24-1.82-3.56-4.14-1.02-7.04Zm10.05-12.85c-1.15-.88-1.99-3.24-1.74-4.7 1.8-10.27 5.28-11.4 13.25-4.64 1.92 1.63 4.06 3.02 5.92 4.71 1.02.93 1.66 2.26 2.26 3.11-.74 4.07-2.11 7.07-5.19 8.82-.85.48-2.53.24-3.47-.3-3.79-2.16-7.59-4.37-11.04-7Zm19.51 10.17c.64-1.82 1.48-3.65 2.62-5.19 1.61-2.19 4.05-2.85 6.36-1.36 3.46 2.23 6.76 4.75 9.97 7.34.97.78 1.42 2.19 1.72 2.68-.05 5.78-6.92 9.35-11.46 6.78-2.39-1.35-4.68-2.89-7.02-4.33-2.27-1.4-3.05-3.46-2.18-5.92Zm19.26 22.11c.42-.62 2.35-.95 3.05-.53 3.15 1.89 6.15 4.04 9.09 6.25.73.55 1.03 1.68 1.77 2.97-1.79 3.32-3.38 6.76-5.51 9.82-.48.68-3.15.56-4.3-.08-2.99-1.68-5.77-3.78-8.48-5.92-.76-.6-1.59-2.25-1.28-2.86 1.67-3.33 3.57-6.56 5.66-9.64Zm9.15-.04c-2.35-1.66-4.96-3.06-6.95-5.07-1.03-1.04-1.66-3.33-1.3-4.76 1.11-4.38 3.77-6.93 6.3-6.92 2.73 0 11.94 6.77 11.59 9.31-.38 2.84-1.97 5.78-3.79 8.08-1.66 2.09-3.99.68-5.86-.64Zm-.2-19.19c-.2-.14-.12-.66-.17-1l-.65-.47c2.13-2.89 4.18-5.83 6.45-8.6.39-.48 1.94-.61 2.54-.24 3.39 2.12 6.96 4.11 9.86 6.8 2.23 2.07-3.69 12.66-6.44 11.52-4.24-1.76-7.77-5.23-11.58-8.01Zm18.31 17.21c.47-.51 2.28-.35 3.08.14 3.05 1.84 6.1 3.76 8.8 6.06.94.8 1.18 2.78 1.16 4.22-.02 1.17-.84 2.36-1.41 3.49-1.99 3.95-4.06 4.6-7.68 2.19-2.48-1.66-4.85-3.52-7.09-5.48-.88-.77-1.28-2.07-2.27-3.77 1.78-2.32 3.42-4.74 5.39-6.84Zm10.84 1.46c-3.12-1.67-5.93-3.94-8.75-6.13-.63-.49-.8-1.58-1.49-3.04 1.77-2.77 3.51-5.83 5.64-8.58.55-.71 2.68-1.07 3.47-.58 2.91 1.8 5.8 3.79 8.19 6.21.91.92.92 3.35.49 4.84-.62 2.17-1.71 4.38-3.19 6.05-.89.99-3.35 1.77-4.35 1.24Zm.8-20.24c-.97-.71-1.36-2.22-2.19-3.64 1.99-2.93 3.62-5.85 5.82-8.25.67-.73 3.16-.52 4.38.1 2.95 1.51 5.71 3.44 8.42 5.37 2.23 1.59 3.1 3.49 1 6.06-1.28 1.57-1.77 3.86-3.17 5.26-.99.99-3.33 1.84-4.37 1.33-3.48-1.71-6.73-3.94-9.89-6.23Zm19.02 7.67c1.29-2.91 3.21-5.26 6.47-6.1 1 .34 1.98.47 2.73.95 4.17 2.67 8.31 5.38 12.39 8.19.69.48 1.19 1.41 1.49 2.24.92 2.57-1.08 7.36-3.92 9.35-2.51 1.76-5.11 1.34-7.42-.31-3.46-2.48-6.81-5.13-10.13-7.8-2.12-1.71-2.73-4-1.61-6.51Zm19.03-.21c-4.37-2.55-8.59-5.38-12.66-8.38-1.23-.91-1.76-2.78-2.17-3.48-.04-6.56 5.12-10.03 10.03-7.38 4.34 2.34 8.43 5.19 12.43 8.09 2.65 1.92 2.92 5.31 1.1 8.05-2.4 3.62-5.57 4.96-8.74 3.11Zm6.64-16.59c-2.68-1.57-5.32-3.2-8.01-4.75-2.42-1.39-3.93-3.2-3.12-6.19.96-3.58 3.72-5.98 7.7-5.88.64.28 2.15.8 3.52 1.59 2.29 1.32 4.5 2.79 6.72 4.22 3.55 2.28 4.18 4.94 2.03 8.5-2.47 4.1-4.92 4.8-8.82 2.52Zm11.23 12.29c3.37.04 8.72 4.99 8.66 8-.08 3.84-3.79 8.13-6.97 8.05-3.38-.08-9.21-5.17-9.19-8.03.03-4 3.84-8.07 7.5-8.03Zm8.46 1.67c-2.76-1.86-3.67-4.58-2.64-7.83.94-2.95 3.93-5.07 7.1-5.07 2.88 0 14.58 8.53 15.47 11.23.98 2.96-.39 5.63-2.4 7.01-1.77 1.21-4.98 1.73-6.92.96-3.78-1.5-7.19-4-10.61-6.3Zm18.86-12.9c-2.26 2.15-4.42.02-6.46-1.25-2.64-1.65-5.4-3.11-7.97-4.85-3.02-2.04-3.36-5.46-1.08-8.76 1.97-2.87 4.57-3.24 7.73-1.2 2.8 1.8 5.75 3.39 8.46 5.32 1.28.91 2.16 2.4 3.55 4.01-1.53 2.52-2.46 5.06-4.23 6.73Zm1.89-13.58c-2.38-1.37-4.78-2.72-7.19-4.05-4.77-2.64-6.1-5.39-4.46-9.36 1.42-3.44 4.15-4.12 9.44-2.37-2.24-1.39-4.51-2.73-6.7-4.19-2.81-1.86-3.69-8.14-1.65-11.24 1.71-2.6 4.9-2.78 8.62-.5 2.36 1.44 4.8 2.76 7.05 4.35 2.68 1.9 4.26 4.5 4.08 7.94-.24 4.65-3.7 6.95-8.01 5.36-.75-.28-1.52-.52-2.28-.78 2.4 1.54 4.8 3.08 7.2 4.63 3.37 2.17 3.96 4.78 1.85 8.15-2.26 3.62-4.35 4.15-7.97 2.05Zm-4.69-88.19c-3.04 4.53-9.25 4.58-13.26.63-3.6-3.54-6.95-7.35-10.16-11.26-5.4-6.56-4.93-13.86-1.56-20.98 2.49-5.26 5.79-10.14 8.77-15.26 8.16 7.9 16.17 15.28 23.61 23.21 1.42 1.51 1.44 5.5.57 7.75-2.13 5.52-4.69 11.01-7.97 15.91Zm-12.05-80.62c-.08 7.13-1.86 13.88-5.19 20.16-2.74 5.18-5.76 10.2-8.58 15.33-3.34 6.06-8.41 7.16-13.57 2.57-6.09-5.42-11.95-11.08-18.1-16.83 5.16-11.26 4.25-23.48 4.08-35.59-.1-7.18-.48-14.36-.74-21.53-.02-.58.09-1.25-.16-1.71-3.58-6.5.5-10.26 4.81-14.09 3.27-2.9 6.48-5.9 9.43-9.12 4.89-5.32 10.58-3.12 13.97 1.69 3.09 4.39 5.63 9.19 8.21 13.93 4.74 8.7 6.33 18.06 5.8 27.93-.31 5.74.1 11.51.04 17.26Zm-1.2-53.95c-3.11-6.72-6.09-13.13-9.04-19.55-3.48-7.58-1.35-13.99 4.13-19.71 1.75-1.82 3.6-3.57 5.15-5.54 3.78-4.79 9.77-5.77 13.44.02 2.62 4.14 5.24 8.47 6.73 13.08 2.04 6.3-1.65 11.24-5.7 15.69-4.71 5.18-9.46 10.32-14.7 16.02Zm11.1-76.51c-.82-3.79-1.18-7.69-1.74-11.54-.05-5.75 3.59-9.04 7.75-11.89 3.32-2.27 6.8-4.3 10.23-6.4 3.72-2.28 7.62-.94 9.21 3.14.54 1.39.91 2.86 1.57 4.19 4.05 8.06 1.56 8.61-3.65 13.23-4.62 4.1-9.49 7.92-14.15 11.98-3.61 3.16-8.22 1.98-9.23-2.71Zm26.99-32.57c-1.15-2.88.04-4.94 2.32-6.43 4.59-3.01 9.26-5.9 13.94-8.77.64-.4 1.52-.41 2.31-.61.69.2 1.66.18 1.93.61 2.12 3.33 4.27 6.67 6.01 10.21.31.64-.96 2.47-1.91 3.24-4.88 3.96-9.88 7.78-14.87 11.61-2.34 1.8-5.59 1.08-6.63-1.49-1.11-2.76-2.01-5.6-3.11-8.36Zm17.44-45.77c-2.27-5.17-1.81-6.66 2.83-10.14 2.66-1.99 5.21-4.13 7.81-6.2 1.88-1.49 4.21-1.83 5.54.06 1.66 2.36 2.5 5.3 3.73 8.09-.86 1.16-1.34 2.27-2.19 2.9-3.4 2.54-6.89 4.97-10.39 7.39-3.46 2.39-5.64 1.74-7.32-2.09Zm11.18-20.43c-3.45 2.86-7.05 5.54-10.62 8.25-3.25 2.47-5.66 1.79-7.01-2.13-1.24-3.58-3.63-7.3.16-10.8 2.45-2.27 5.02-4.41 7.56-6.59.69-.6 1.46-1.1 2.14-1.7 2.18-1.93 4.84-1.93 6.15.51 1.51 2.81 2.4 5.94 3.7 9.3-.63 1-1.11 2.37-2.07 3.16Zm-7.16-19.03c-3.64 3.15-7.22 6.36-10.84 9.53-1.99 1.74-5.19 1.61-6.28-.7-1.45-3.07-2.29-6.44-3.5-10.03.65-1.04 1.16-2.35 2.07-3.23 3.56-3.41 7.27-6.65 10.88-10.01 3.21-2.99 5.91-2.44 7.49 1.65.78 2.03 1.43 4.11 2.22 6.14 1.08 2.78.05 4.83-2.04 6.64Zm-6.66-16.43c-2.45 2.39-5.21 4.47-7.85 6.67-3.04 2.53-5.38 2.06-7.08-1.58-1.02-2.18-1.97-4.43-2.52-6.75-.28-1.16-.03-2.98.73-3.77 3.42-3.52 7.02-6.88 10.74-10.09 2.88-2.49 5.22-1.7 6.5 1.88.81 2.26 1.67 4.5 2.47 6.77.15.42.11.91.27 2.34-.79 1.13-1.78 3.09-3.26 4.53Zm-17.41 26.75c.47 1.89.9 3.78 1.5 6.3-.59.82-1.24 2.22-2.31 3.09-2.93 2.37-5.98 4.59-9.09 6.73-1.87 1.28-3.6.63-4.71-1.19-2.57-4.21-1.69-9.09 2.06-12.35 1.9-1.65 3.68-3.44 5.66-4.98 3.06-2.4 5.96-1.34 6.89 2.4Zm-4.36-9.42c-2.62 2.55-5.33 5.02-8.16 7.35-3.05 2.52-6.82 1.52-8.47-2.06-2.63-5.7-2.33-7.19 2.53-11.54 2.3-2.06 4.65-4.06 7.04-5.99.67-.54 1.6-.75 2.11-.98.87.15 1.34.17 1.77.31 2.85.94 5.34 10.8 3.17 12.91Zm-41.62 28.03c-3.23.16-6.35-3.53-6.42-7.58-.04-2.65 4.61-6.94 7.76-7.17 2.76-.2 6.27 4.18 6.37 7.93.07 2.55-4.59 6.66-7.71 6.82Zm-7.8-13.12c-3.56.08-7.28-3.81-7.36-7.7-.07-3.74 5.15-8.73 9.15-8.74 3.78 0 7.13 3.57 7.24 7.76.11 4.2-4.45 8.58-9.04 8.68Zm-9.51-13.42c-3.77.02-7.91-4.46-7.88-8.53.03-3.68 5.84-8.8 10.01-8.81 3.74 0 7.43 4.01 7.46 8.12.02 3.43-5.99 9.21-9.59 9.22Zm.26 13.65c.95 1.67 1.91 3.32 3.12 5.43-1.07 1.68-1.75 3.67-3.15 4.76-3.52 2.75-7.31 5.18-11.09 7.56-2.8 1.76-5.66.78-7.92-2.43-2.78-3.95-2.8-7.21.09-9.52 3.31-2.65 6.68-5.24 10.11-7.74 3.62-2.63 6.65-1.91 8.83 1.94Zm-11.35-6.12c-3.7 3.08-7.57 5.96-11.45 8.83-2.16 1.6-4.8.98-6.1-1.42-1.36-2.52-2.71-5.06-3.75-7.71-.34-.88-.07-2.58.58-3.16 3.33-2.96 6.82-5.75 10.38-8.44.84-.64 2.16-.64 2.71-.79 4.16-.05 9.91 5.41 9.67 8.98-.09 1.3-1.01 2.86-2.04 3.72Zm-11.16-17.5c-2.22 1.64-4.39 3.34-6.56 5.05-2.41 1.9-4.91 2.08-7.18.02-2.62-2.37-3.12-5.7-1.06-8.06 3-3.43 6.09-6.9 10.49-7.99 3.49.2 5.12 2.28 6.08 4.84.87 2.33.4 4.52-1.77 6.14ZM245.8 76.1c1.88 2.81 3.25 5.96 4.42 8.19.1 4.02-9.53 11.83-12.4 10.82-1.13-.4-2.14-1.68-2.79-2.8-5.6-9.58-4.86-7.98 2.67-13.65 1.1-.83 2.08-1.82 3.2-2.61 1.62-1.14 3.64-1.84 4.9.05Zm-17.57 2.43c-4.22-1.57-5.9-9-2.58-11.94 2.31-2.04 4.77-3.95 7.35-5.64 2.65-1.74 4.44-1.07 5.8 1.81.97 2.06 1.86 4.16 2.52 5.64.08 3.7-10.32 11.16-13.1 10.13Zm-2.41 12.51c.95 1.12 1.45 2.61 2.22 3.89 2.54 4.2 2.25 5.67-1.85 8.43-2 1.35-3.98 2.75-6.11 3.87-.9.47-2.76.74-3.14.26-2.47-3.07-4.65-6.36-6.9-9.55.88-1.45 1.2-2.59 1.95-3.13 2.78-2.02 5.64-3.94 8.59-5.7 2.38-1.43 3.93.38 5.25 1.94Zm-7.19-7.96c-2.71 2.27-5.44 4.54-8.38 6.48-.73.48-2.76.15-3.33-.53-1.52-1.82-2.85-3.92-3.68-6.13-.32-.85.62-2.61 1.49-3.39 2.12-1.9 4.53-3.48 6.85-5.16 2.79-2.02 4.6-1.53 6.15 1.6.75 1.52 1.51 3.03 2.31 4.62-.53.99-.78 1.98-1.41 2.51Zm-13.68-29.04c-2.58 1.89-5.38 3.49-8.09 5.22-2.07 1.32-4.11 1.19-5.45-.85a44.099 44.099 0 0 1-3.95-7.59c-.3-.74.35-2.33 1.06-2.94 3.03-2.62 6.13-5.21 9.48-7.41 1-.66 3.7-.54 4.21.19 2.05 2.97 3.54 6.33 5.44 9.91-.94 1.25-1.6 2.66-2.71 3.46Zm-17.41 8.41c1.09 2.32-.06 4.31-2.03 5.67-2.65 1.83-5.24 3.91-8.17 5.07-1.47.58-4.65-.04-5.32-1.16-1.58-2.64-2.18-5.89-3.05-8.94-.16-.55.12-1.55.55-1.88 3.09-2.4 6.25-4.71 9.43-6.99.43-.31 1.1-.3 1.52-.4.38.05.61.05.83.11 4.24 1.24 4.73 5.31 6.23 8.52Zm-8.5-11.09c-2.35 2.14-5.1 3.97-7.96 5.38-1.19.59-3.44.27-4.57-.53-2.19-1.55-3.51-4.36-1.94-6.67 2.36-3.48 5.49-6.46 8.42-9.53.55-.58 1.68-.59 2.15-.74.8.08 1.35-.01 1.46.17 1.46 2.36 3.28 4.63 4.1 7.21.42 1.31-.53 3.69-1.66 4.71Zm-14.93 8.57c-.37.41-.75.81-1.12 1.22-1.64-1.29-3.44-2.45-4.82-3.97-.38-.42.48-1.96.77-2.98.97.29 2.35.29 2.82.94 1.03 1.42 1.59 3.18 2.35 4.79Zm-3.97 5c1.25.92 2.73 1.61 3.64 2.76 1.05 1.31 1.65 3 2.35 4.56 1.18 2.66.7 4.93-1.79 6.62-3.61 2.44-7.11 5.07-10.87 7.25-3.92 2.27-5.98 1.19-9.34-4.22-1.82-2.92-1.41-4.84 1.8-7.28 3.65-2.78 7.37-5.46 11.1-8.12.81-.58 1.79-.91 3.11-1.57Zm-8.8-12.7c-2.9-1.51-5.4-3.8-8.05-5.78-.25-.18-.38-.57-.48-.89-.59-1.87 2.36-6.68 4.74-7.38 2.49-.72 4.21.5 5.25 2.75 1.01 2.18 2 4.38 2.97 6.58.18.41.2.89.22.98.07 3.41-1.98 5.14-4.66 3.74Zm.73 5.03c3.43 3.84 3.08 6.67-1.16 9.73-2.06 1.48-4.05 3.06-6.15 4.47-1.11.75-2.4 1.24-3.22 1.65-.64-.09-.75-.1-.86-.12-4.76-1.12-6.19-5.41-7.74-9.05-.73-1.7.12-4.9 1.4-6.5 6.44-8.01 10.83-7.92 17.75-.17Zm-16.42-10.04c-2.49 4.79-6.25 7.87-10.71 7.89-2.36-.15-3.82-2.75-5.16-5.27-1.2-2.26-1.29-4.66.74-6.68 1.47-1.46 2.94-2.93 4.47-4.33 2.58-2.35 5.45-2.71 7.71-.51 3.36 3.27 4.94 5.07 2.95 8.9Zm-13.29 9.67c.55 1.02.53 3.16-.18 3.92-2.63 2.86-5.56 5.48-8.56 7.97-1.86 1.54-3.63.36-4.7-1.23-1.34-1.99-2.35-4.22-3.34-6.42-.29-.64-.35-1.85.04-2.27 2.98-3.16 6.09-6.2 9.19-9.25.3-.3.83-.37 2.17-.93 1.77 2.63 3.8 5.29 5.37 8.2Zm-9.46-10.18c-1.83 3.84-5.48 6.88-8.65 9.98-.64.62-3.23.52-3.6-.08-2.05-3.28-3.69-6.81-5.43-10.19.63-1.07.9-1.86 1.43-2.39 2.37-2.35 4.83-4.61 7.23-6.92 1.79-1.72 3.35-.86 4.85.41.33.28.54.74.74 1.15 1.28 2.73 4.27 6.3 3.44 8.04ZM96.98 57.49c1.17 2.58.8 4.85-1.74 6.64-1.68 1.18-3 2.89-4.67 4.09-2.12 1.53-4.28 1.39-6.18-.6-3.93-4.12-3.82-9.22.38-12.99 1.65-1.48 3.45-2.79 5.18-4.17 5.01.31 5.69 4.08 7.03 7.03ZM83.56 73.9c.12 4.27-7.69 11.46-12.06 11.54-3.63.07-5.5-1.46-7.08-5.75-1.13-3.09-.94-5.84 1.84-8.05 1.71-1.35 3.42-2.71 5.01-4.2 2.32-2.16 4.87-3.07 7.81-1.55 3.19 1.65 4.39 4.75 4.48 8.01ZM69.54 59.48c-1.36 1.53-2.97 2.83-4.53 4.17-2.91 2.5-5.87 2.98-7.63 1.02-2.02-2.26-3.75-6.42-.63-9.6 1.2-1.23 2.31-2.56 3.6-3.69 1.8-1.58 3.91-3.76 6.31-1.99 2.03 1.49 3.3 4.02 4.84 6.02-.89 1.9-1.19 3.19-1.96 4.06Zm-3.15-18.32c-2.67 4.1-6.64 7.36-10.16 10.89-.34.34-1.07.29-2.51.63-1.26-1.26-3.44-2.56-4.13-4.41-.64-1.71-.32-4.41.69-5.97 1.83-2.84 4.42-5.21 6.8-7.67 1.99-2.07 4.98-2.77 6.75-.85 1.69 1.84 3.48 5.98 2.57 7.37ZM42.72 88.32c2.67-2.33 5.32-4.77 8.33-6.58 1.14-.68 4.07-.37 4.73.54 1.68 2.32 2.99 5.14 3.61 7.94.6 2.68-10.6 11.99-13.4 11.4-1.01-.21-2.34-1.02-2.68-1.89-1.05-2.64-1.7-5.45-2.6-8.54.62-.91 1.13-2.11 2.02-2.88Zm6.09 21.34c3.66-3.12 7.51-6.02 11.32-8.96.34-.26.86-.31 1.54-.54.55.35 1.51.61 1.79 1.19 1.26 2.68 2.42 5.42 3.39 8.22.18.51-.48 1.56-1.04 2.04-3.4 2.9-6.89 5.7-10.34 8.55-1.8 1.49-3.41.8-4.37-.82-1.22-2.05-2.16-4.32-2.89-6.6-.29-.9-.05-2.53.59-3.08Zm2.27 25.94c1.5.56 2.46 2.58 3.82 4.13-1.26 2.08-1.93 3.83-3.14 5.07-2.95 3.04-6.11 5.9-9.27 8.73-2.07 1.86-5.59 1.5-7.51-.59-2.3-2.51-2.59-6.48-.35-8.41 3.49-3 6.99-6.03 10.82-8.54 1.42-.93 3.99-1.01 5.63-.4Zm-9.18 27.64c3.33-3.17 6.78-6.22 10.28-9.2 4.57-3.88 8.99-2.95 12.24 2.15 1.65 2.59 3.92 4.78 5.7 7.3 2.19 3.11 1.8 6.73-.82 9.4-3.54 3.61-6.97 7.35-10.72 10.72-1.93 1.74-4.47 2.8-6.74 4.17-4.08-.78-6.19-2.94-7.58-5.9-1.51-3.22-2.84-6.52-4.2-9.8-1.38-3.34-.73-6.39 1.85-8.84Zm11.52 54.18c3.57 6.36 1.79 11.63-1.51 17.09-4.63 7.66-9.2 15.36-13.82 23.03-.39.65-.95 1.2-1.57 1.97-2.16-5.1-4.19-9.92-6.26-14.72-1.09-2.52-2.15-5.06-3.4-7.5-2.49-4.85-.78-8.91 2.28-12.68 2.6-3.2 5.72-6.03 7.97-9.44 3.61-5.48 11.64-6.07 16.31 2.26Zm-11.45 85.44c-.22-8.01-.57-16.02-1.08-24.02-.17-2.62-.41-5.52-1.65-7.72-2.24-3.97-.64-6.92 1.36-10.08 3.57-5.64 7.08-11.32 10.62-16.98 2.6-4.16 7.11-5.47 10.2-2.46 1.7 1.65 2.55 4.29 3.48 6.6 3.64 9.06 7.76 17.99 10.51 27.32 1.92 6.49 1.89 13.55 2.74 20.35.03 13.15-.14 26.18-5.21 38.51-3.24 7.86-6.86 15.59-10.74 23.15-2.13 4.16-7.63 4.07-10.44.32-4.2-5.61-8.36-11.25-12.65-16.79-2.04-2.64-2.61-4.98-1.36-8.45 3.46-9.56 4.49-19.62 4.22-29.77Zm11.42 63.01c4.29 6.17 3.46 13.51-1.44 19.11-3.55 4.06-10.74 3.48-14.6-1.2-3.21-3.9-6.52-7.74-9.53-11.8-2.45-3.31-3.25-6.86-1.12-10.92 3.13-5.99 5.86-12.19 9.04-18.89 6.19 8.26 12.16 15.81 17.65 23.7Zm4.17 44.9c4.46 4.3 8.91 8.61 13.41 12.86 3.32 3.14 3.5 6.58.83 10.33-2.98 4.2-5.63 8.64-8.52 12.9-3.71 5.47-7.99 6.05-12.98 1.82-4.78-4.05-6.95-9.31-7.41-15.59.55-2.44.83-4.98 1.72-7.29 1.8-4.7 3.86-9.3 5.95-13.88 1.42-3.13 4.51-3.55 6.99-1.16Zm-13.25 37.6c3.03 2.47 6.21 4.77 9.24 7.24 4.37 3.57 4.1 8.9-.77 11.65-1.15.65-3.38.61-4.47-.1-4.62-3.01-9.05-6.33-13.43-9.69-.9-.69-1.31-2.02-2.29-3.63 1.88-2.36 3.41-4.98 5.59-6.82 2.13-1.8 4.26-.18 6.14 1.35Zm2.71 45.98c3.7-1.28 5.8 1.9 8.24 3.88.89.72 1.66 1.6 2.55 2.32 4.79 3.82 4.93 8.44.47 12.98-1.52 1.55-3.1 2.04-4.86.71-3.29-2.48-6.56-5.01-9.69-7.69-.76-.65-.95-1.97-1.22-2.59.15-.74.18-.97.25-1.19.94-3.07.42-7.09 4.26-8.42Zm-2.78 18.8c3.34 2.81 6.6 5.7 9.94 8.49 1.59 1.33 2.36 2.5.96 4.61-1.17 1.78-1.63 4.01-2.56 5.97-.85 1.79-2.18 2.5-3.73.75-4.48-5.08-7.81-10.78-8.68-17.62-.15-1.16.51-2.43.9-4.12 1.63.97 2.48 1.34 3.16 1.91Zm-1.98 13.01c2.42 3.45 4.57 7.11 6.6 10.81 1.43 2.6-1.82 8.94-4.74 9.61-.22.05-.45.11-.67.1-2.2-.12-9.56-8.61-9.49-11.68.34-2.11.54-5.01 1.36-7.73.39-1.28 1.86-2.89 3.04-3.07 1.2-.18 3.12.87 3.89 1.97Zm-7.5-12.25c-.64 4.76-1.42 9.5-2.28 14.23-.16.9-.75 2.32-1.33 2.42-.91.16-2.17-.37-2.93-1.03-1.37-1.2-2.69-2.57-3.62-4.12-.55-.91-.83-2.65-.32-3.39 2.33-3.4 4.96-6.59 7.53-9.81.33-.41.97-.58 2.04-1.18.36 1.09 1.02 2.04.9 2.88Zm-4.17 39.35c1.08-2.33 2.2-4.65 3.31-6.97 2 1.31 4.2 2.4 5.94 4 2.14 1.98 4.61 4 2.07 7.62-1.34 1.91-2.01 4.35-4.96 3.79-2.66-.5-6.54-5.13-6.48-7.54.03-.22-.02-.6.12-.9Zm14.85 10.06c2.03-1.88 4.65-1.61 7 .67 1.65 1.59 3.46 3.03 4.98 4.74 1.07 1.21 1.77 2.76 3.11 4.91-1.78 1.96-3.09 4.21-5.04 5.32-2.23 1.27-4.59.41-6.31-1.88-1.51-2.01-3.41-3.72-4.99-5.69-2.24-2.8-1.81-5.24 1.24-8.06Zm11.06-.74c-1.93-2.4-4.55-4.32-6.17-6.89-.99-1.57-1.42-4.27-.75-5.9.77-1.86 3.05-3.1 4.67-4.61 3.5.88 12.88 9.37 13.1 12.16.24 3.12-1.01 5.81-3.83 7.1-2.56 1.17-5.05.6-7.02-1.86Zm10.77-10.99c-.87-.16-1.87-.43-2.5-1-2.57-2.3-5.1-4.65-7.45-7.17-.88-.94-1.2-2.39-2.2-4.51 1.6-2.12 2.89-4.97 5.1-6.49 2.56-1.75 5.43-.67 7.68 1.74 1.79 1.92 4 3.45 5.82 5.36 2.19 2.31 2.12 4.97.48 7.61-1.6 2.57-3.27 5.13-6.93 4.46Zm9.83-4.17c2.34-1.7 4.44.7 6.64 2.03 5.17 3.11 5.46 6.16 2.15 11.58-1.76 2.88-5.55 3.34-8.01 1-2.15-2.04-4.11-4.28-6.75-7.06 2.28-3 3.68-5.9 5.97-7.56Zm10.82-.57c-6.16-5.38-5.56-7.38-3.45-12.12 2.13-4.77 4.04-5.72 9.22-4.42 1.64 1.67 3.31 3.28 4.87 5.01 2.68 2.97 1.97 8.22-1.53 11.82-2.69 2.77-5.66 2.72-9.11-.29Zm10.33 4.73c.64-2.52 1.77-5.06 3.29-7.15.73-1.01 3.54-1.85 4.25-1.3 2.66 2.08 4.87 4.75 7.18 7.27.42.46.47 1.27.9 2.5-1.84 2.35-3.59 5.22-6.02 7.28-.64.54-3.69-1.1-5.13-2.33-1.96-1.66-5.33-2.82-4.45-6.27Zm19.34 7.63c2.95.03 7.82 5.42 7.74 8.57-.1 3.65-3.44 7.35-6.56 7.27-3.04-.08-8.35-5.29-8.36-8.2-.01-3.47 3.93-7.66 7.19-7.63Zm4.14-4.46c-.16-3.9 3.24-7.79 6.8-7.78 2.81 0 8.26 5.71 8.35 8.74.1 3.1-3.68 7.01-6.84 7.07-3.1.06-8.18-4.86-8.31-8.04Zm14.06-7.54c-6.74-6.78-6.82-9.48-.54-16.81 2.24-2.61 5.2-3.23 7.96-1.27 3.07 2.18 6.04 4.53 8.82 7.06 2.08 1.89 1.67 4.46-.05 6.2-2.65 2.68-5.73 4.96-8.7 7.31-.57.45-1.5.45-2.72.78-.95-.54-2.14-1.14-3.26-1.86-.57-.37-1.02-.92-1.51-1.41Zm11.94-22.1c-4.3-3.2-4.01-4.92-1.88-8.33 3.97-6.34 5.85-6.89 12.09-2.83 3.37 2.19 6.9 4.14 10.19 6.44 1.18.83 1.88 2.35 3.08 3.91-1.77 3.42-3.08 6.78-5.18 9.54-.69.9-3.84.92-5.17.14-4.55-2.66-8.89-5.72-13.13-8.87Zm8.92 18.04c1.7-2.08 3.82-3.81 5.79-5.67.48.36.97.71 1.45 1.07-1.15 2.46-2.17 5-3.53 7.33-.31.53-2.33.82-2.65.44-.7-.82-1.46-2.68-1.06-3.17Zm2.89 12.79c1.11-1.66 3.04-1.44 4.54 0 2.66 2.55 5.43 5.01 7.89 7.74 2.36 2.62-1.79 13.07-5.32 13.63-.75.12-1.84.15-2.3-.29-3.27-3.04-6.43-6.2-9.58-9.36-.27-.27-.19-.88-.28-1.33-.21-.12-.42-.25-.63-.37 1.87-3.36 3.55-6.85 5.68-10.03Zm11.4 5.09c-2.5-2.52-4.91-5.14-7.14-7.9-1.89-2.33-.69-4.44.94-6.47 1.56-1.95 3.27-2.36 5.35-.99 2.78 1.82 5.61 3.57 8.26 5.56.9.67 1.32 1.99 2.09 3.22-1.28 2.38-2.12 4.86-3.71 6.68-1.6 1.84-4.01 1.69-5.79-.1Zm1.19-20.7c-1.78-1.22-3.48-3.16-2.07-5.89.53-1.02.78-2.17 1.26-3.21 1.84-4 3.93-4.66 7.61-2.38 1.76 1.09 3.55 2.18 5.1 3.53.96.83 1.5 2.13 2.45 3.56-1.49 2.65-2.85 5.13-4.28 7.57-.2.35-.74.55-1.16.71-4.17 1.55-6.25-2.06-8.91-3.88Zm12.61-13.83q-7.87-4.84-4.66-13.27c2.37-6.23 4.59-6.87 9.91-2.92.92.69 1.85 1.37 2.82 1.99 5.25 3.35 5.52 4.22 2.76 9.7-.83 1.64-1.66 3.33-2.8 4.76-.85 1.07-2.19 1.74-3.5 2.72-1.75-1.15-3.11-2.11-4.53-2.98Zm8.28 13.97c.48-.6 2.49-.61 3.36-.13 3.09 1.73 6 3.8 8.98 5.74.1.06.21.11.29.19 2.36 2.35 2.04 3.42-2.02 10.77-1.42 2.57-3.65 2.59-5.84 1.07a135.64 135.64 0 0 1-8.5-6.39c-.7-.57-.88-1.78-1.61-3.4 1.67-2.52 3.32-5.34 5.35-7.85Zm12.02 25.2c1-4.02 2.22-8.02 5.97-10.44.68-.44 2.1-.47 2.79-.05 3.33 2.04 6.59 4.23 9.75 6.53.83.61 1.23 1.82 2.12 3.2-1.91 3.49-3.6 7.13-5.88 10.35-.56.78-3.49.78-4.64.05-3.29-2.07-6.27-4.65-9.26-7.17-.59-.5-1.02-1.75-.84-2.48Zm19.26-10.78c-2.71-1.49-5.33-3.28-7.61-5.36-1.57-1.44-2.64-3.36-.87-5.79 1.34-1.82 1.79-4.3 3.16-6.09.78-1.02 3.11-2.11 3.88-1.67 3.27 1.88 6.26 4.27 9.25 6.6.52.41.56 1.44 1.02 2.74-1.58 2.83-3.12 6.03-5.13 8.91-.53.76-2.81 1.15-3.72.65Zm7.88 2.28c1.08-3.91 4.49-6.88 8.62-6.89 3.44 1.52 7.48 3.8 10.01 7.71 2 3.09-.12 5.97-1.96 8.53-2.47 3.45-6.63 4-9.93 1.39-1.26-1-2.44-2.14-3.79-3-2.95-1.88-3.84-4.52-2.95-7.75Zm17.45-3.55c-2.46-2.2-5.04-4.28-7.31-6.66-2.33-2.44-1.39-5.18.19-7.57 1.63-2.47 4.41-3.66 6.9-2.3 3.58 1.95 6.79 4.64 9.92 7.3.89.75.97 2.46 1.72 4.58-1.36 1.7-2.54 4-4.41 5.31-2.15 1.5-4.84 1.29-7.01-.65Zm10.56-18.97c-2.57-1.93-5.19-3.8-7.75-5.74-1.81-1.37-2.3-2.9-.89-5.02 1.32-1.99 2.21-4.26 3.36-6.36 1.15-2.1 2.87-2.62 4.88-1.29 3.92 2.6 7.82 5.24 11.63 8 .9.65 1.42 1.83 2.63 3.46-2.27 2.8-4.04 5.77-6.55 7.84-2.23 1.85-5.02.82-7.31-.89Zm11.27 15.59c4.2-.07 10.03 5.58 10.1 9.78.06 3.5-3.09 6.54-6.7 6.46-3.81-.08-9.53-5.68-9.71-9.5-.17-3.59 2.73-6.69 6.31-6.75Zm8.87 1.77c-4.69-.05-10.3-5.73-10.24-10.36.06-4.24 4.85-9.17 8.84-9.09 4.5.1 10.21 5.71 10.22 10.04 0 4.71-4.43 9.45-8.82 9.4Zm1.08-24.97c.17-3.46 3.85-6.76 7.51-6.73 3.93.03 8.98 4.7 8.9 8.24-.08 3.91-3.69 7.38-7.69 7.4-3.57.02-8.9-5.42-8.73-8.91Zm9.3 27.04c2.31-5.08 5.7-8.85 8.7-7.27 3.76 1.97 7.79 4.29 10.3 7.53 3.07 3.97-2.52 13.34-8.51 13.44-.6-.29-2.23-.82-3.58-1.77-1.69-1.19-3.02-2.88-4.72-4.05-3-2.08-3.57-4.86-2.19-7.88Zm17.86-6.47c-3 1.44-5.11-.32-7.12-1.97-5.12-4.19-4.82-6.26-2.9-9.86 1.44-2.72 3.21-4.89 6.69-4.17 3.42.71 7.75 5.49 7.71 8.7-.44 2.78-1.11 5.74-4.37 7.31Zm-1.9-23.8c.16-4.11 3.21-7.96 6.23-7.88 3.36.09 7.18 3.99 7.04 7.19-.19 4.44-2.91 7.9-6.14 7.82-3.29-.08-7.25-4.04-7.13-7.12Zm12.02 26.91c2.87-8.73 4.48-8.51 11.62-2.85 1.71 1.36 3.46 2.69 5.06 4.18.78.73 1.25 1.79 2.14 3.11-1.38 2.69-2.46 5.52-4.23 7.81-.56.72-3.35.51-4.51-.22-3.19-2.03-6.09-4.52-9.04-6.9-1.71-1.38-1.79-2.82-1.03-5.11Zm16.95-1.25c-4.02-2.63-7.77-5.68-11.55-8.66-.43-.33-.38-1.26-.68-2.36.91-2.14 1.64-4.76 3.06-6.92 1.39-2.1 3.75-2.04 5.84-.74 1.36.84 2.61 1.88 3.84 2.92 7.71 6.57 6.85 3.94 3.45 13.77-.74 2.14-2.4 3.01-3.96 1.99Zm.28-23.87c-1.19-1.5-3.09-2.43-4.34-3.89-2.84-3.32-2.93-8.27-.25-11.46.58-.69 1.75-.88 2.56-1.26.88.26 1.63.3 2.16.67 3.41 2.35 6.9 4.6 10.06 7.26.97.82.98 2.79 1.39 4.24.05.19-.11.44-.16.66-1.79 8.87-6.25 10.28-11.41 3.77Zm9.85-12.23c-5.16-1.8-10.37-4.83-12.38-10.06-.97-2.53 1.11-6.41 2.34-9.46.26-.64 3.12-.94 4.3-.38 3.61 1.73 7.14 3.74 10.39 6.08 1.52 1.09 2.31 3.2 2.93 4.11-.05 7.13-3.27 11.22-7.58 9.72Zm3.57 25.8c.72-3.22 1.41-6.51 2.77-9.48.44-.95 3.51-1.86 4.31-1.28 4.37 3.12 8.47 6.65 12.52 10.19.76.66.9 2.04 1.3 3.02-1.15 3.07-1.94 6.13-3.43 8.8-1.03 1.84-3.27 2.28-5.1.78-3.82-3.14-7.54-6.4-11.23-9.7-.61-.55-1.29-1.65-1.14-2.32Zm20.28 14.7c.58-2.3 1.46-4.58 2.62-6.64.8-1.43 2.27-2.49 3.76-4.05 2.38 1.53 4.28 2.53 5.92 3.85 6.59 5.34 7.46 5.22 3.15 12.79-.51.89-.73 1.94-1.2 2.86-1.41 2.81-3.73 3.54-6.18 1.63-2.62-2.04-5.12-4.28-7.37-6.72-.74-.8-.98-2.57-.7-3.71Zm13.96-10.2c-1.48-1.28-3.06-2.46-4.43-3.84-.82-.83-1.33-1.98-2.03-3.05 1.21-3.18 2.02-6.24 3.58-8.86.52-.89 3.45-1.43 4.37-.81 3.1 2.12 5.91 4.72 8.56 7.41.64.65.47 2.4.23 3.55-.28 1.32-1.01 2.56-1.61 3.81-2.4 4.97-4.49 5.4-8.67 1.79Zm-11.88-33.74c-1.48-1.09-2.97-2.17-4.46-3.25-5.03-3.66-5.61-7.08-1.84-11.93.63-.81 1.77-1.21 2.6-1.75 1.09.37 1.91.5 2.57.9 3.63 2.22 7.22 4.5 10.82 6.78 2.06 1.3 2.45 3.12 1.78 5.39-2.57 8.71-4.13 9.25-11.45 3.86Zm9.75-15.05c-3.94-2.09-7.79-4.49-11.27-7.28-2.69-2.16-2.01-6.33 1.08-10.05 2.07-2.5 4.29-1.39 6.46-.12 2.68 1.58 5.44 3.06 7.97 4.84 1.3.91 2.21 2.4 3.27 3.59-1.12 2.96-1.71 5.65-3.13 7.79-.66 1-3.35 1.77-4.38 1.23Zm.05-18.39c-2.14-1.53-4.52-2.73-6.77-4.1-2.62-1.6-3.27-3.74-1.62-6.42 1.03-1.66 1.92-3.44 3.18-4.91.91-1.06 2.31-1.68 3.35-2.4 1.28.43 2.29.52 2.99 1.04 3.32 2.47 6.72 4.88 9.72 7.71.99.93 1.59 3.32 1.12 4.56-2.73 7.2-5.87 8.87-11.97 4.52Zm-2.32-34.58c-2.03 2.74-3.4 2.75-6.11.62-4.34-3.42-8.79-6.69-13.24-9.97-2.58-1.9-3.45-3.96-1.76-7.05 2.2-4.03 3.96-8.31 6.06-12.4 1.9-3.7 3.53-4.1 6.78-1.67 4.6 3.44 9.23 6.88 13.6 10.61 1.6 1.37 2.49 3.57 3.62 5.27-.85 2.19-1.19 3.81-2.05 5.09-2.18 3.25-4.57 6.35-6.9 9.5ZM360.37 406c-1.46 4.62-3.92 9.04-6.65 13.08-1.22 1.81-4.08 2.51-6.83 4.07-3.26-1.92-6.49-3.37-9.16-5.51-3.67-2.95-6.9-6.45-10.36-9.67-2.4-2.23-3.94-5.27-2.71-8.08 2.6-5.92 5.62-11.75 9.26-17.08 2.38-3.5 5.72-3.12 8.84-.05 5.23 5.17 10.62 10.23 15.44 15.76 1.59 1.83 2.84 5.37 2.18 7.47Zm-30.4-56.86c-3.44-4.54-7.78-8.42-11.85-12.47-2.42-2.4-3.8-4.36-1.69-8.1 3.46-6.13 3.61-13.21 3.74-20.11.11-6.04.25-12.12-.34-18.11-.51-5.2-2.1-10.29-3.05-15.46-.2-1.11-.11-2.73.56-3.48 4.87-5.51 9.88-10.9 14.94-16.24 3.58-3.78 8.72-2.64 11.45 1.11 4.5 6.17 8.4 12.85 11.98 19.62 3.43 6.46 4.78 13.59 4.63 20.94.31.04.62.07.93.11-.86 8.42-1.21 16.92-2.7 25.22-1.82 10.07-8.11 18.04-13.69 26.37-4.28 6.39-10.87 5.94-14.92.59Zm12.42-135.05c-3.58 3.57-7.43 3.27-10.03-1.09-2.59-4.34-4.94-8.83-7.18-13.36-1.59-3.21-.44-8.44 2.21-10.82 4.01-3.61 8.16-7.08 12.16-10.72 4.61-4.2 10.71-3.58 13.94 1.53 2.61 4.11 4.6 8.62 6.98 13.18-1.39 2.61-2.17 5.13-3.78 6.87-4.58 4.97-9.51 9.62-14.3 14.4Zm14.34-41.5c-1.86-3.76-1.09-5.32 2.33-7.71 5.45-3.82 10.83-7.76 16.03-11.91 1.97-1.57 3.69-1.6 4.99.09 3.84 5 7.42 10.19 11.04 15.35.37.52.36 1.3.7 2.63-.77 1.36-1.35 3.57-2.79 4.76-5.65 4.67-11.48 9.14-17.41 13.44-3.1 2.25-5.11 1.66-7.01-1.74-2.74-4.9-5.39-9.87-7.87-14.91Zm20.93-36.91c-.44-.8-.78-1.66-1.22-2.46-3.52-6.38-3.19-7.55 3.21-11.27 1.98-1.16 4.02-2.22 5.96-3.45 3.51-2.22 5.72-1.96 8.16 1.54 1.34 1.92 2.16 4.2 3.33 6.54-.96 1.36-1.53 2.67-2.51 3.47-3.11 2.55-6.33 4.95-9.57 7.32-2.95 2.15-5.57 1.51-7.35-1.69Zm7.99-20.16c-2.81 2.33-5.97 4.24-9.05 6.24-1.01.66-2.19 1.08-3.89 1.9-1.02-1.24-2.14-2.25-2.85-3.5-3.35-5.94-3.03-7.03 2.59-10.87 2.35-1.61 4.59-3.4 6.95-5 .82-.55 1.94-1.2 2.8-1.06 4.41.72 4.25 4.98 5.45 7.95.42 1.05-.85 3.38-2 4.34Zm-5.96-44.67c-.95-2.58-2.17-5.1-2.81-7.75-.33-1.38-.2-3.54.67-4.42 2.64-2.68 5.72-4.93 8.68-7.28.5-.4 1.26-.46 2.07-.73.78.36 1.97.5 2.33 1.13 1.95 3.33 3.95 6.69 5.36 10.26.38.97-.95 3.01-1.99 4.07a75.107 75.107 0 0 1-7.75 6.83c-2.99 2.3-5.24 1.47-6.56-2.1Zm-4.83-54.84c1.28 2.17 2.09 4.61 3.39 6.76 1.49 2.45.92 4.36-1 6.11a210.24 210.24 0 0 1-5.97 5.22c-2.22 1.86-4.72 1.44-6.35-1.4-1.44-2.48-2.44-5.21-3.62-7.84-.14-.31-.23-.66-.24-1-.1-3.01 7.45-10.49 11.4-10.39.52.53 1.73 1.38 2.42 2.54ZM365.04.24c1.15-.06 2.69.52 3.45 1.35 1.13 1.23 1.72 2.95 2.54 4.47.05.1.16.22.14.31-.25 1.25-.1 3.15-.85 3.63-2.78 1.78-4.05 6.87-7.96 5.41-2.16-.8-3.22-4.55-4.77-6.97.6-2.75 5.01-8.08 7.44-8.2ZM336.81 22.9c3.33-3.31 6.73-6.57 10.31-9.61 2.99-2.54 4.94-1.86 6.53 1.84.85 1.99 1.77 3.95 2.79 6.23-.73 1.17-1.24 2.5-2.17 3.38-3.17 2.98-6.45 5.85-9.77 8.68-2.03 1.73-4.17 1.62-5.61-.65-1.33-2.11-2.39-4.45-3.17-6.82-.27-.83.37-2.34 1.08-3.05Zm-2.77 12.39c.66 1.43 1.09 2.97 1.76 4.83-.66 1.09-1.13 2.44-2.05 3.31-2.66 2.52-5.44 4.92-8.28 7.24-2.46 2.01-5.16 1.23-6.3-1.69-.66-1.7-1.58-3.37-1.81-5.13-.15-1.15.38-2.79 1.2-3.61 2.42-2.42 5.08-4.62 7.76-6.77 3.62-2.92 5.78-2.39 7.73 1.82Zm-23.7-11.37c3.13-2.83 6.2-5.75 9.54-8.3 2.16-1.65 3.9-.3 4.95 1.83 1.02 2.04 1.76 4.24 2.91 6.2 1.52 2.62.9 4.54-1.38 6.22-2.39 1.76-4.79 3.52-7.15 5.33-2.16 1.64-4.22 1.47-5.59-.78-1.65-2.71-2.89-5.66-4.27-8.44.41-.87.54-1.64.99-2.04Zm2.38 30.57c.99 2.73.7 5.16-2.06 6.91-1.64 1.04-3.05 2.44-4.67 3.53-2.7 1.82-5.33 1.35-7.26-1.16-3.83-4.98-3.4-8.49 1.62-12.33 1.83-1.4 3.83-2.58 5.75-3.86 4.81.46 5.54 3.93 6.62 6.92Zm-12.47-23.78c4.48 2.24 4.88 6.99 6.29 10.95.94 2.65-.93 4.75-3.29 6.18-1.37.83-2.69 1.75-4.02 2.65-4.47 3.01-7.33 2.43-10.19-2.14-.55-.88-1.02-1.8-1.52-2.71-2.18-4.02-2.18-5.82 1.09-8.83 2.87-2.64 6.22-4.75 9.36-7.09.2.25.39.5.59.75.57.07 1.21 0 1.69.24Zm-18.56-9c2.2-3.05 5.59-5.25 8.53-7.75.37-.31 1.11-.19 1.47-.23 2.75-.01 4 1.4 5.01 3.65 1.23 2.76 2.45 5.48-.07 7.9-2.21 2.12-4.68 4.22-7.42 5.43-1.36.6-3.93-.38-5.38-1.44-2.48-1.81-3.96-5.02-2.13-7.55Zm-6.73 8.02c3.66-.22 5.4 1.55 6.28 4.08.88 2.52.62 4.98-1.76 6.77-1.74 1.31-3.33 3.09-5.29 3.76-1.81.62-4.5.75-5.93-.21-1.49-.99-2.63-3.53-2.68-5.43-.1-3.56 6.42-8.99 9.37-8.97Zm-20.07-7.89c2.08-2.38 4.44-4.79 7.17-6.25 1.8-.97 5.16-1.21 6.63-.14 2.35 1.72 3.71 4.8 4.67 6.16-.01 6.44-9.56 13.96-14.1 12.82-4.61-1.16-7.48-9.02-4.36-12.59Zm-8.33 6.97c3.62 0 7.1 4.01 7.19 8.3.08 3.49-6.58 9.69-10.34 9.65-3.21-.04-7.28-5.16-7.16-9.01.09-3.13 6.79-8.93 10.31-8.93Zm-10.81-18.49c3.42-.18 7.77 4.6 7.84 8.62.05 2.77-6.34 8.48-9.63 8.62-3.3.13-6.73-4.04-6.77-8.24-.03-3.07 5.45-8.84 8.56-9Zm-5.38 35.97c1.17 2.37 2.23 4.8 3.48 7.13 1.21 2.26.56 3.99-1.29 5.43-2.81 2.19-5.64 4.36-8.52 6.46-1.73 1.27-4.01 2.5-5.45.28-2.34-3.61-4.05-7.62-6.16-11.73 1.27-1.6 2.15-3.09 3.38-4.17 2.17-1.89 4.52-3.58 6.85-5.25 3.55-2.55 5.8-1.99 7.7 1.86Zm-10.5-20.19c1.43 2.99 2.91 5.95 4.26 8.69-.2.82-.15 1.49-.43 1.68-4.07 2.81-8.14 5.6-12.33 8.22-.41.26-1.89-.45-2.29-1.07-1.85-2.88-3.82-5.76-5.05-8.92-.42-1.07.86-3.29 1.98-4.35 2.4-2.28 5.1-4.29 7.86-6.15 2.72-1.84 4.57-1.11 6.01 1.89Zm-22.03-9.14c3.11-2.79 6.41-5.36 9.68-7.96.32-.26.87-.24.99-.27 4.72.3 5.94 3.9 7.43 7.07 1.24 2.65-.2 4.6-2.23 6.2-2.42 1.92-4.82 3.86-7.28 5.72-2.14 1.63-3.93.84-5.18-1.18-1.33-2.14-2.54-4.37-3.54-6.67-.36-.83-.4-2.45.13-2.92ZM192.39 23c1.1.76 2.34 1.18 2.83 2.04 1.41 2.47 2.8 5.03 3.6 7.73.35 1.2-.29 3.34-1.25 4.16-2.94 2.53-6.22 4.68-9.45 6.85-.68.46-1.81.7-2.59.5-3.76-.94-4.46-4.45-5.35-7.4-.39-1.29.55-3.41 1.54-4.62 2.01-2.47 4.4-4.67 6.77-6.82 1.06-.96 2.45-1.56 3.91-2.44Zm-19.58-11.05c1.92-2.13 4.1-4.02 6.22-5.97 2.43-2.23 5.25-1.81 6.92 1.03.34.58.47 1.29.75 1.92 3.42 7.6 3.38 7.55-2.56 13.28-2.52 2.43-5.38 3.12-8.52 1.9-3.35-1.3-4.84-4.05-4.83-8.73.34-.59.94-2.23 2.02-3.43Zm-3.11 12.32c.77 1.11 1.12 2.51 1.68 3.77 2.75 6.17 2.67 6.55-2.41 11.11-.94.84-1.86 1.7-2.75 2.6-2.73 2.79-5.24 2.46-7.12-1.06-1.03-1.93-2.06-3.89-2.74-5.96-.34-1.04-.36-2.72.25-3.45 2.49-2.98 5.26-5.73 8-8.5.45-.45 1.23-.57 2.34-1.06.87.78 2.03 1.5 2.75 2.54Zm-20.92-9.71c3.29-3.41 6.68-6.72 10.07-10.03.22-.21.65-.21 1.32-.4.56.3 1.43.62 2.1 1.18.49.41.86 1.08 1.06 1.7.91 2.88 3.26 6.58 2.25 8.52-1.84 3.55-5.5 6.29-8.76 8.93-1.99 1.61-4.04.14-5.19-1.72-1.19-1.93-2-4.11-2.85-6.22-.23-.58-.33-1.61 0-1.95Zm-5.02 8.02c.46.06.81.05 1.13.16 3.77 1.35 5.45 9.61 2.52 12.32-4.96 4.59-7.11 4.53-11.49-.87-.76-.94-.93-3.36-.26-4.28 1.87-2.57 4.29-4.73 6.57-6.98.34-.33 1.08-.26 1.53-.35Zm-19.73-4.72c2.47-3.04 5.76-5.41 8.76-7.99.47-.4 1.29-.4 1.76-.53 3.2.15 4.98 2.08 5.44 4.64.33 1.85.02 4.34-1.04 5.8-1.86 2.54-4.47 4.55-6.85 6.68-.62.55-1.56 1.04-2.35 1.05-3.24.03-7.72-7.18-5.72-9.65Zm-3.51 6.96c2.93-.07 5.89 2.64 6.07 5.55.21 3.49-4.26 8.29-7.73 8.31-2.98.01-6.03-3.12-6.13-6.3-.1-3.28 4.23-7.48 7.79-7.56Zm-7.87-17.59c3.72-.04 6.85 3.53 6.98 7.97.11 3.87-4.27 8.2-8.31 8.23-3.18.02-6.77-4.47-6.72-8.41.04-3.33 4.61-7.75 8.05-7.79Zm-13.21 11.9c.16.19.32.37.48.56.11 0 .24-.05.34-.02 3.98 1.32 3.62 5.48 5.24 8.31.51.89-.02 2.94-.78 3.87-1.58 1.93-3.63 3.49-5.5 5.17-2.33 2.1-4.38 1.72-5.74-1.11-.64-1.33-.98-2.82-1.67-4.12-1.67-3.16-1.03-5.64 1.8-7.77 2.02-1.53 3.9-3.26 5.84-4.9Zm-14.92-9.2c1.96-2.09 3.9-4.23 6.08-6.08 2.03-1.73 3.92-1.14 4.88 1.28.89 2.24 1.81 4.48 2.45 6.79.28 1 .32 2.64-.27 3.2-2.23 2.12-4.72 3.98-7.23 5.78-.51.36-1.96.33-2.24-.05-1.91-2.67-3.62-5.48-5.32-8.13.73-1.25 1.05-2.15 1.65-2.79Zm.12 22.37c3.32.06 6.28 4.27 6.29 8.93 0 3.06-6.04 8.63-9.19 8.48-2.86-.14-6.62-5.08-6.6-8.68.01-3.05 6.26-8.78 9.51-8.72Zm-3.77-9.95c2.38 5.87-2.61 13.78-10.02 13.86-.99-.96-3.24-2.28-4.1-4.22-.81-1.82-.8-4.6.04-6.4 1.01-2.17 3.15-3.89 5.02-5.55 3.35-2.98 7.36-1.89 9.06 2.31ZM61.14 10.4c1.11-1.31 2.12-2.74 3.39-3.87.97-.86 2.29-1.32 3.99-2.25 1.35 1.16 2.91 1.99 3.68 3.29 1.37 2.29 2.27 4.92.26 7.4-1.08 1.33-2.3 2.58-3.63 3.65-2.2 1.77-4.49 2.86-6.98.26-2.84-2.97-3.13-5.62-.71-8.47Zm-4.36 9.14c1.93 1.39 3.68 6.31 2.27 8.05-2.7 3.34-5.63 6.67-9.04 9.24-2.79 2.1-7.69-1.83-7.72-6.56.34-.7.78-2.17 1.65-3.31 1.66-2.17 3.5-4.21 5.39-6.2 2.18-2.29 5.35-2.74 7.46-1.23Zm-19.86-9.37c.62-.82 1.46-1.46 2.12-2.26 1.86-2.27 4.26-5.25 7.01-3.35 2.61 1.82 3.95 5.48 5.88 8.39-1.27 1.98-1.96 3.41-2.97 4.57-1.59 1.8-3.37 3.43-5.11 5.09-1.95 1.86-3.94 1.59-5.78-.14-3.99-3.75-4.38-8.07-1.15-12.3Zm-6.79 10.59c1.77 3 3.82 5.9 5.03 9.12.43 1.14-1.06 3.14-1.95 4.59-.58.94-1.7 1.53-2.5 2.36-2.98 3.06-5.08 2.85-7.21-.77-3.22-5.48-2.15-10.66 3.06-14.47.72-.52 1.67-.72 2.32-.98.6.06 1.15-.02 1.25.16ZM14.26 9.37c1.81-2.21 4.12-4.02 5.83-5.65 1.43.31 1.9.34 2.31.51 1.94.83 5.45 8.59 4.27 10.2-1.66 2.25-3.86 4.12-5.95 6.02-.39.35-1.35.26-1.99.12-3.49-.75-6.69-8.48-4.46-11.2ZM6.34 47.2c2.96-3.19 5.95-6.35 8.97-9.48 1.88-1.94 5.04-1.69 6.57.7 1.35 2.11 2.66 4.36 3.34 6.74.35 1.23-.32 3.22-1.22 4.25-2.94 3.36-6.15 6.5-9.38 9.6-1.02.98-2.41 1.56-3.34 2.14-.96-.18-1.43-.21-1.85-.37-3.96-1.5-6.01-10.46-3.09-13.59Zm2.82 22.34c.91-2.16 3.07-3.78 4.69-5.64 2.43.69 5.46 5.27 5.34 7.62-.11 2.15-2.83 5.02-4.66 4.9-1.83-.12-6.16-5.02-5.37-6.88Zm3.5 34.3c-2.83 2.24-5.31 1.63-6.88-1.6-.9-1.84-1.79-3.67-2.62-5.36.41-.98.5-1.79.95-2.2 2.93-2.69 5.77-5.53 9.02-7.77.93-.64 3.15.51 4.74.95.36.1.6.67.88 1.04 4.63 6.07 4.13 7.37-1.09 10.71-1.82 1.16-3.29 2.88-5 4.23Zm6.21 16.66c-1.23-2.19-2.82-4.45-3.1-6.82-.24-2.06.45-5.14 1.91-6.33 4.32-3.53 9.08-6.6 13.97-9.3 1.37-.76 4.65-.33 5.55.78 2.02 2.48 3.09 5.72 4.63 8.84-1.22 1.9-1.92 3.64-3.17 4.81-3.51 3.29-7.22 6.36-10.88 9.48-3.16 2.69-6.91 2.1-8.91-1.47Zm6.99 9.78c.11-3.46 10.05-14.75 13.51-14.7 1.87.03 4.32 1.12 5.44 2.56 1.81 2.34 3.08 5.75.46 8.18-3.67 3.42-7.76 6.47-12 9.16-2.99 1.9-7.52-1.53-7.41-5.21Zm-6.78 80.42c-1.84-3.81-4-7.46-5.9-11.24-1.13-2.25-.9-4.49.83-6.39 4.01-4.39 7.97-8.84 12.16-13.04 2.42-2.42 7.53-1.9 9.5 1.31 2.61 4.26 4.48 8.97 6.62 13.51.18.39.08.9.17 2.17-.46 1.01-.94 2.86-2.01 4.24-2.82 3.61-5.93 6.98-8.86 10.5-3.12 3.74-9.71 4.78-12.53-1.05Zm-.64 131.61c-4.12-6.75-8.18-13.55-12.19-20.37-.54-.93-.93-2.14-.89-3.19.36-9.32.99-18.63 1.2-27.95.08-3.52-.3-7.16-1.21-10.55-.9-3.35.35-5.75 2.01-8.22 3.79-5.62 7.59-11.24 11.47-16.8 2.17-3.12 6.68-2.68 8.55.98 5.05 9.85 9.07 20.07 10.1 31.23.15 1.59.02 3.21.02 4.81.19.01.38.03.57.04-.48 7.88-.68 15.8-1.51 23.64-1 9.53-5.46 17.96-9.53 26.43-1.79 3.71-6.42 3.54-8.61-.05Zm-2.34 64.07c-1.25-1.27-1.68-4.48-1.03-6.29 1.68-4.73 3.94-9.3 6.39-13.7 2.4-4.3 7.79-4.27 11.33-.19 1.81 2.08 3.46 4.29 5.27 6.37 1.58 1.82 3.43 3.42 4.88 5.33 1.13 1.48 1.83 3.29 2.89 5.28-2.11 5.5-3.85 10.96-6.31 16.07-1.57 3.26-4.68 3.77-7.57 1.4-5.5-4.5-10.87-9.2-15.86-14.25Zm9.3 58.83c.66-1.6 2.63-2.66 3.85-3.78 1.69.49 2.69.55 3.39 1.03 3.33 2.26 6.69 4.5 9.82 7.02 2.94 2.36 2.66 6.39-.35 9.37-2.37 2.35-5.69 2.23-8.19-.35-2.64-2.72-5.46-5.32-7.75-8.31-.93-1.21-1.34-3.61-.78-4.96Zm-3.5 8.82c2.61-1.9 5.1.45 7.14 2.41 2.89 2.79 5.87 5.5 8.66 8.38 2.82 2.91.36 11.54-3.6 12.41-1.15.25-2.82-.31-3.78-1.08-4.2-3.38-8.28-6.92-12.28-10.53-.87-.78-1.26-2.09-2.35-3.96 2-2.56 3.63-5.75 6.21-7.63ZM7.49 502.99c-2.25-2.08-2.76-4.32-.92-7.02 1.1-1.6 1.68-3.57 2.86-5.09.97-1.25 2.49-2.07 3.95-3.23 1.55.99 2.77 1.57 3.76 2.43 4.15 3.63 8.22 7.35 12.32 11.04 3.09 2.77 3.03 4.71-.12 7.52a77.118 77.118 0 0 0-4.67 4.55c-2.03 2.15-4.06 1.86-6.04.06-3.75-3.39-7.44-6.83-11.15-10.26Zm3.04 27.15c-.58-1.32-.47-3.42.2-4.71.93-1.78 2.69-3.12 4.14-4.71 1.35.75 2.23 1.06 2.88 1.64 2.82 2.51 1.33 9.88-2.26 10.99-2.75.85-4.14-1.32-4.96-3.21Zm5.98 7.31c1.54-2.16 2.94-4.44 4.7-6.4.53-.59 2.23-.64 3.13-.28 5.03 1.99 7.41 9.49 4.3 13.86-.73 1.02-2.44 1.84-3.72 1.87-2.3.05-7.64-6.23-8.42-9.05Zm14.6 48.06c-.94 2.69-2.21 5.3-3.67 7.74-.47.79-1.93 1.29-2.98 1.37-2.81.23-9.42-6.57-10.19-10.01 2.15-2.99 4.13-6.14 6.6-8.85.53-.58 3.14-.01 4.21.8 1.99 1.51 3.7 3.46 5.22 5.46.68.89 1.15 2.51.81 3.49Zm.76-7.58c-4.44.27-9.55-6.99-7.74-11.07 1.01-2.28 2.29-4.47 3.71-6.53.48-.69 1.76-1.22 2.64-1.18 2.12.11 8.08 7.24 8.47 9.52-1.42 2.72-2.72 5.52-4.33 8.13-.43.69-1.79 1.08-2.74 1.14Zm5.19 2.38c1.27-2.45 2.94-6.33 6.1-4.44 3.85 2.29 7.32 5.84 9.79 9.61 1.82 2.77-3.48 9.63-6.68 9.61-5.31-.03-11.67-10.07-9.22-14.78Zm24.04 27.66c-2.6 1.77-4.89-.34-6.83-2.36-5.08-5.27-5.48-7.64-1.88-12.52 2.3-3.12 5.46-3.48 8.29-.91 2.6 2.36 4.91 4.9 4.56 8.84.3.17.61.35.91.52-1.65 2.2-2.91 4.97-5.05 6.44Zm15.23-17.17c-1.06 2.86-2.56 5.1-5.86 5.55-4.34.58-12.17-8.36-10.66-12.47 1.02-2.79 2.73-5.32 7.14-5.46.55.27 1.85.71 2.88 1.5 1.63 1.25 3.08 2.74 4.61 4.12 2.06 1.86 2.93 3.98 1.9 6.77Zm-3.57-13.84c-1.25-1.34-2.91-2.49-3.65-4.07-.69-1.48-1.06-3.72-.41-5.06.84-1.73 2.84-2.89 4.88-4.8 3.15 2.58 6.2 4.38 8.16 6.99.89 1.19.13 4.22-.73 6-1.7 3.5-5.61 3.77-8.24.95Zm20.15 17.82c-1.09 2.17-3.23 2.23-4.94.74-2.5-2.17-4.86-4.53-7.02-7.04-.57-.66-.42-2.18-.18-3.21.3-1.32.94-2.59 1.58-3.8 1.95-3.7 3.85-5.69 7.72-1.87 1.3 1.28 2.87 2.3 4.15 3.59.82.83 1.34 1.95 2 2.96-1.16 3.1-1.99 5.99-3.31 8.62Zm5.97-16.75c-.45.71-2.7 1.17-3.33.7-2.64-1.99-5.19-4.2-7.32-6.72-.74-.88-.52-2.98-.12-4.34.64-2.19 1.49-4.45 2.84-6.25.81-1.07 3.34-2.23 4.05-1.76 2.94 1.96 5.51 4.49 8.14 6.88.36.32.33 1.07.69 2.43-1.44 2.7-3 6-4.96 9.05Zm13.54 10.51c-3.11-.04-7.8-4.92-7.81-8.13 0-3.46 3.69-7.4 6.9-7.36 3.2.04 8.15 4.88 8.08 7.87-.1 3.72-3.8 7.66-7.17 7.61Zm21.91 14.81c-1.11 2.39-3.62 4.05-5.56 2.87-3.68-2.22-6.93-5.28-9.99-8.37-2.49-2.51-.48-5.31.81-7.58.86-1.52 2.71-2.48 4.01-3.59 1.56.61 2.69.77 3.42 1.38 2.64 2.21 5.36 4.38 7.66 6.93 2.43 2.69.91 5.64-.35 8.36Zm6.97-16.58c-1.1 1.63-3.05 2.68-3.87 3.36-4.29-.12-13.29-8.61-12.55-11.39.8-3 2.85-5.75 4.75-8.33.41-.56 2.9-.42 3.66.27 2.81 2.51 5.36 5.32 7.89 8.12 2.31 2.56 1.8 5.49.12 7.98Zm15.47 7.97c3.64 4.76 1.94 10.64-3.31 11.42-3.78.56-11.3-7.1-10.66-10.85.54-3.14 3.55-5.46 8.38-5.82-5.78-3.56-5.3-7.86-2.49-12.45-3.13 1.38-5.76.89-7.91-1.92-.83-1.09-2-1.91-2.85-2.99-1.61-2.04-4.59-3.61-2.66-7.03 2.18-3.84 6.26-6.05 10.26-5.5-2.34-3.83-2.15-5.3 1.39-8.13 1.76-1.41 3.62-2.82 5.67-3.71.96-.42 2.85 0 3.61.75.77.77 1.09 2.49.87 3.66-.4 2.12-1.29 4.15-2.06 6.19-1.69 4.48-3 5.06-7.53 3.43 4.77 4.12 4.59 8.77 1.49 13.75-.16.25-.04.67-.04 1.01 3.7-3.05 4.45-3 8 .49.99.97 1.92 2 2.95 2.92 5.35 4.71 3.76 12.35-3.11 14.79Zm19.83 12.94c-.74.88-3.54.5-5.18-.02-1.29-.41-2.23-1.92-3.32-2.94-5.9-5.55-4.1-6.53-1.1-12.85.49-1.02 3.46-2.06 4.23-1.54 3.2 2.16 6.01 4.89 8.9 7.48.36.32.32 1.07.66 2.32-1.19 2.26-2.27 5.26-4.2 7.54Zm6.7-17.24c-.53.17-1.15.23-1.7.16-3.23-.43-8.61-6.92-8.53-10.23.11-4.8 5.03-7.99 9.23-5.73 1.97 1.06 3.79 2.69 5.18 4.45 1.95 2.47-1.11 10.36-4.18 11.35Zm-1.26-23.21c-.42-.42-.43-1.26-.87-2.68 1.27-1.86 2.6-4.24 4.4-6.18.57-.61 2.67-.49 3.62.07a70.12 70.12 0 0 1 8.73 6.07c.88.72 1.68 2.55 1.38 3.51-.79 2.47-1.91 5-3.54 6.98-.78.95-3.63 1.5-4.48.84-3.32-2.56-6.24-5.65-9.24-8.62Zm22.39 23.57c-.78-.11-1.53-.49-2.29-.75 1.33 1.39 2.61 2.85 4.02 4.16 1.88 1.75 2.11 3.72 1.09 5.95-.24.52-.52 1.03-.82 1.51-4.24 6.84-4.84 9.01-12.71 1.49-4.72-4.52-4.89-10.37-.26-14.86.98-.95 3.27-.57 4.95-.8-.03-.11-.04-.24-.1-.33-3.81-5.4-3.79-7.78 0-13.2 1.37-1.96 3.34-3.01 5.32-1.75 3.16 2.02 6.22 4.34 8.87 6.99 3.09 3.09.17 5.92-1.28 8.56-1.41 2.57-3.94 3.41-6.8 3.02Zm26.71 6.64c-1.88 5.29-4.83 7.11-10.86 6.7.01.02.03.03.04.05-1.64-1.52-3.22-3.09-4.92-4.53-3.29-2.78-3.64-7.19-.77-10.72 3.42-4.2 6.96-4.92 10.62-2.14.46.35.86.76 1.32 1.1 4.99 3.72 5.94 5.69 4.57 9.53Zm2.5-8.24c-4.27.07-11.02-5.87-11.12-9.78-.12-5.05 4.42-11 8.47-11.1 4.44-.11 11.37 6.17 11.41 10.35.04 4.69-4.76 10.47-8.76 10.54Zm23.2 11.84c-3.01 1.98-5.97 1.46-9.2-1.59-1-.95-2.01-1.91-3.1-2.73-2.64-1.99-3.38-4.59-2.36-7.61 1.19-3.54 4.78-6.44 7.63-6.42 2.99.02 10.42 5.32 11.31 8.08.88 2.71-1.52 8.46-4.28 10.28Zm11.95-18.52c-2.27 1.85-4.82.94-6.93-.81-1.48-1.24-3.02-2.49-4.2-3.99-2.65-3.36-2.12-6.69 1.31-9.92 2.53-2.39 5.3-2.34 8.6.33 2.54 2.06 5.68 3.78 5.42 7.82.27.2.54.41.81.61-1.65 2.01-3.04 4.34-5.01 5.95Zm19.67 13.99c-1.97 2.47-4.76 2.79-7.31.96-1.58-1.14-3.16-2.34-4.54-3.71-3.62-3.58-2.71-10.06 1.72-12.56.68-.38 1.51-.49 2.58-.82 3.98 1.42 7.35 4.05 9.59 7.65 1.92 3.08-.07 6-2.04 8.47Zm4.39-14.28c-2.35 1.54-4.78.04-6.65-2.02-1.07-1.18-2.42-2.1-3.61-3.18-2.74-2.5-2.92-5.76-.48-8.53 2.72-3.09 5.22-3.36 8.33-.93 1.54 1.2 3.26 2.19 4.64 3.54 1.14 1.13 1.9 2.65 3.29 4.67-1.96 2.38-3.34 5.02-5.52 6.45Zm21.43 15.95c-2.28 2.74-6.22 2.75-9.09.04-1.83-1.73-3.71-3.41-5.5-5.18-2.03-2-2.47-4.38-1.17-6.91 1.31-2.55 2.84-4.95 6.56-5.53 1.01.51 2.4 1.02 3.57 1.84 2.06 1.44 4.01 3.06 5.98 4.64 3.55 2.84 3.42 6.57-.35 11.11Zm10.29-14.38c-2.14 2.46-4.45 1.73-6.63-.11-2.72-2.29-5.5-4.5-8.11-6.91-.76-.7-1.04-1.94-1.65-3.16 1.48-3.01 2.71-6.11 4.46-8.89 1.48-2.35 3.6-2.91 6.08-.81 2.79 2.37 5.81 4.48 8.73 6.7.09.07.19.13.27.21 2.16 2.11.68 8.57-3.13 12.96Zm17.55 17.3c-.57.77-3.9.46-5.21-.44-3.3-2.28-6.28-5.07-9.16-7.89-2.02-1.98-2.81-4.28-.85-7.08 1.43-2.05 2.15-4.58 3.38-6.79 1.53-2.73 3.66-3.34 5.98-1.44 3.74 3.06 7.28 6.37 10.83 9.67.6.56.78 1.57 1.44 2.99-2.01 3.59-3.87 7.53-6.41 10.98Zm9.79-17.9c-.63.79-3.58.84-4.56.07-3.87-3.02-7.56-6.33-10.97-9.87-2.42-2.5 1.12-10.78 4.66-11.24.77-.1 1.79.38 2.44.91 3.62 3 7.21 6.05 10.7 9.2.78.7 1.15 1.84 1.93 3.15-1.37 2.66-2.42 5.5-4.2 7.77Zm3.56-15.74c-3.73-2.82-7.16-6.08-10.46-9.41-.77-.78-.69-2.48-.84-3.78-.06-.52.26-1.11.46-1.64 2.92-7.79 4.53-10.05 11.55-3.05 1.54 1.54 3.43 2.73 4.91 4.32 1.19 1.28 2.01 2.9 3.07 4.49-1.36 3.19-2.25 6.24-3.95 8.74-.58.85-3.73 1.09-4.74.33Zm12.14 29.2c-.35.47-1.21.71-1.87.79-3.44.4-8.72-6.55-7.44-9.75 3.36-8.42 5.23-8.79 11.52-2.19.98 1.03 1.61 2.41 2.64 4-1.66 2.48-3.19 4.87-4.85 7.15Zm1.79-16.01c-2.4-1.69-4.28-4.14-6.31-6.34-.35-.37-.67-1.17-.5-1.55 1.6-3.61 3.21-7.23 5.1-10.69.31-.57 2.41-.91 3-.45 3.08 2.37 5.97 5.01 8.85 7.63.34.31.27 1.09.59 2.59-1.57 2.73-3.23 6.28-5.59 9.27-.62.78-3.86.45-5.13-.45Zm21.47 16.06c-1.07 2.26-3.48 2.75-5.41.92-2.75-2.61-5.37-5.35-8.04-8.04-.08-.08-.22-.16-.23-.25-.16-1.25-.9-2.95-.35-3.66 2.21-2.86 2.26-7.32 6.46-9.04 1.28.92 2.53 1.72 3.66 2.66 8.62 7.14 8.67 7.39 3.92 17.42Zm6.64-18.5c-.95 2.01-3.08 1.92-4.72.48-2.24-1.98-4.54-3.97-6.38-6.29-.81-1.02-1.07-3.08-.63-4.34.89-2.58 2.3-5.02 3.74-7.37.43-.7 1.68-1.27 2.55-1.26 2.58.03 8.42 6.59 8.47 10.01-.82 2.48-1.6 5.78-3.02 8.76Zm11.41-26.45c-1.52 2.9-2.99 5.83-4.6 8.68-.29.51-1.38 1.15-1.7.98-2.34-1.26-4.87-2.39-6.73-4.2-1.17-1.14-1.91-3.47-1.67-5.09.32-2.18 1.59-4.31 2.81-6.23.65-1.02 1.97-2.04 3.12-2.23 2.52-.41 8.16 5.21 8.77 8.1Zm-9.76-23.35c-1.3 1.87-3.71 1.73-5.56.23-2.94-2.39-5.79-4.88-8.63-7.38-1.72-1.52-2.32-3.15-.91-5.43 1.06-1.71 1.34-3.89 2.26-5.71 1.01-2.01 2.9-2.92 4.88-1.61 3.72 2.46 7.29 5.17 10.8 7.92.8.62 1.1 1.87 1.71 2.97-1.54 3.15-2.69 6.33-4.55 9.01Zm8.79-26.18c.62.47.71 1.63 1.2 2.84-1.34 2.51-2.45 5.34-4.21 7.66-1.48 1.95-3.78 1.33-5.63.06-1.61-1.1-3.09-2.41-4.63-3.63-6.89-5.48-4.95-6.15-2.21-12.83.44-1.08 3.52-2.29 4.44-1.77 3.89 2.19 7.46 4.96 11.04 7.66Zm-5.26-49.54c2.34 2.64-1.18 11.05-4.67 11.9-.91.22-2.18.07-2.94-.43-3.54-2.34-7.01-4.79-10.37-7.38-.81-.62-1.1-1.91-1.4-2.45-.08-3.07 4.4-9.36 6.82-9.94.97-.23 2.36-.44 3 .06 3.32 2.59 6.79 5.11 9.56 8.23Zm-14-76.54c1.23.08 2.47 1.97 3.47 3.26 3.29 4.25 6.53 8.53 9.66 12.9 1.6 2.24 2.93 4.67 4.05 6.48-1.05 6.38-3.83 10.76-7.75 14.13-2.33 2-5.66 1.89-8.34-.27-4.11-3.31-8.23-6.6-12.19-10.07-2.51-2.2-3.08-6.33-1.44-9.18 2.81-4.88 5.62-9.75 8.69-14.47.84-1.29 2.61-2.85 3.86-2.77Zm-8.1-11.3c1.05.99 1.48 3.82.86 5.19-2.64 5.84-5.55 11.6-8.83 17.1-2.44 4.09-7.75 4.62-11.35 1.33-4.39-4.02-8.63-8.23-12.69-12.58-2.97-3.18-2.38-7.84.33-11.33 4.22-5.42 8.08-11.13 12.23-16.9 6.46 5.64 13.11 11.25 19.45 17.19Zm-2.98-128.29c-6.44 6.53-13.04 12.89-19.23 18.98-4.36-6.3-8.72-12.72-13.21-19.03-3.01-4.23-2.51-11.66 1.61-16.16 3.71-4.05 7.56-8.01 11.66-11.66 5.08-4.51 10.05-2.47 13.48 2.92 2.64 4.15 4.81 8.61 7.15 12.95 3.29 6.1 3.24 7.22-1.47 12Zm24.7-54.35c3.09 3.38 6 6.98 6.78 12.39-.63 1.55-1.05 3.83-2.3 5.48-4.43 5.85-9.12 11.5-13.75 17.19-2.36 2.91-4.7 3.22-6.69.3-4.07-5.98-7.94-12.11-11.45-18.43-1.96-3.54-1.07-6.62 2.26-9.12 4.49-3.37 9.16-6.52 13.96-9.44 3.33-2.02 8.59-1.21 11.18 1.61Zm-3.65-43.97c.87 1.85 1.73 3.71 2.56 5.48-.37.88-.46 1.69-.91 2.08-3.15 2.76-6 6.42-9.69 7.87-4.17 1.63-5.01-3.59-7.07-6-1.53-1.78-.9-3.66.91-5.05 2.63-2.02 5.27-4.02 7.95-5.98 2.7-1.98 4.84-1.41 6.26 1.6Zm7.83-51.35c1.42 2.34 2.83 4.78 3.59 7.37.35 1.19-.4 3.31-1.39 4.16-3.18 2.77-6.7 5.16-10.1 7.69-2.98 2.21-5.5 1.47-6.9-2-.3-.74-.63-1.47-.92-2.22-2.11-5.28-1.79-6.45 2.65-9.96 2.51-1.99 4.98-4.04 7.52-6 .67-.52 1.53-.8 2.56-1.33 1.11.82 2.4 1.33 2.98 2.28Zm-2.09-9.85c-.66 1.26-.96 2.49-1.73 3.18-2.64 2.36-5.38 4.64-8.25 6.71-.87.63-2.4.87-3.47.63-3.25-.75-5.54-9.19-3.2-11.56 2.25-2.27 4.56-4.5 6.97-6.6 2.73-2.38 5.29-1.84 6.92 1.4 1.01 2.02 1.83 4.13 2.76 6.24Zm1.52-35.9c1.36 2.39 2.49 4.95 3.31 7.58.87 2.78-7.16 9.93-9.98 9.07-.22-.07-.57-.1-.63-.24-1.48-3.51-3.43-6.93-4.18-10.6-.44-2.2 6.1-7.65 8.92-7.6.47.31 1.97.79 2.55 1.79Zm-4.33-10.45c-1.08 1.67-2.24 3.72-3.67 5.56-1.05 1.35-2.46 2.41-3.69 3.62-2.6 2.58-5.05 2.21-6.87-1.05-.06-.1-.06-.22-.11-.33q-4.94-9.41 2.42-16.66c.33-.32.76-.55 1.03-.91 3.79-5.18 7.46-4.08 8.97 2.82.46 2.11 1.16 4.17 1.94 6.94Z" style="stroke-width:0;fill:#fff;opacity:.1"/></svg>