<?xml version="1.0" encoding="UTF-8"?>
<svg id="Capa_2" data-name="Capa 2" xmlns="http://www.w3.org/2000/svg" viewBox="0 0 98.78 98.78">
  <defs>
    <style>
      .cls-1 {
        fill: #542626;
        stroke-width: 0px;
      }
    </style>
  </defs>
  <g id="Capa_1-2" data-name="Capa 1">
    <g>
      <path class="cls-1" d="m35.97,50.3c.36-.45.6-.75,1.02-1.27-1.88,1.04-2.79,2.59-2.6,4.23,1.69-.29,3.12-.92,3.8-2.64-.3.26-.59.53-.84.75-.53-.41-.96-.74-1.38-1.06Z"/>
      <path class="cls-1" d="m23.56,26.33c-.54-.82-1.08-1.65-1.62-2.47.26,5.18,3.96,9.56,9.96,9.98-2.2-2.18-4.33-4.28-6.53-6.46.55-.51.92-.86,1.55-1.45,2.14,2.17,4.2,4.28,6.3,6.42-.61-5.66-5.8-10.67-10.59-9.84,1.03.81,1.88,1.47,2.61,2.04-.48.66-.81,1.1-1.14,1.55-.19.08-.37.16-.56.24Z"/>
      <path class="cls-1" d="m34.65,64.64c.29,1.57.99,2.25,2.46,2.4-.34-1.54-.97-2.15-2.46-2.4Z"/>
      <path class="cls-1" d="m25.07,45.45c1.24-1.11,1.46-1.97.92-3.32-1.16.88-1.39,1.66-.92,3.32Z"/>
      <path class="cls-1" d="m70.79,30.28c-1.7,1.65-3.31,3.22-4.96,4.83,4.37-.47,7.87-4.72,7.5-9.12-5.36.6-8.4,3.23-9.08,8.1,1.83-1.85,3.45-3.49,5.1-5.16.45.42.83.77,1.44,1.35Z"/>
      <path class="cls-1" d="m69.92,49.57c1.35-.3,2.14-1.13,2.47-2.58-1.75.41-2.47,1.18-2.47,2.58Z"/>
      <path class="cls-1" d="m52.92,32.04c-.31-1.35-1.1-2.15-2.57-2.46.4,1.72,1.13,2.41,2.57,2.46Z"/>
      <path class="cls-1" d="m54.71,52.33c-1.1,1.09-1.26,2.03-.59,3.37,1.09-1.08,1.26-2.05.59-3.37Z"/>
      <path class="cls-1" d="m31.03,77.05c.16.15.32.29.47.44.62-.64,1.23-1.28,1.85-1.93-.18-.17-.36-.34-.54-.51-.59.67-1.19,1.33-1.78,2Z"/>
      <path class="cls-1" d="m55.95,69.08c-.87-3.85-3.62-6.11-6.91-5.92-.16,2.9,1.71,5.56,4.61,6.55.08-.09.16-.17.24-.26-.71-.58-1.41-1.15-2.05-1.67.49-.54.86-.94,1.25-1.36.93.86,1.81,1.68,2.87,2.66Z"/>
      <path class="cls-1" d="m37.61,38.74c1.56-.33,2.35-1.17,2.67-2.66-1.5.3-2.32,1.11-2.67,2.66Z"/>
      <path class="cls-1" d="m72.53,69c1.58-1.72,3.07-3.34,4.46-4.85-8.43.98-13.45,6.18-14.05,15.79,8.06.71,15.66-6.22,15.93-14.62-1.76,1.67-3.43,3.26-5.17,4.91-.44-.46-.81-.85-1.17-1.24Zm-2.3,4.74c-.53-.55-.85-.9-1.28-1.35.43-.34.83-.66,1.35-1.07.3.29.69.66,1.18,1.13-.42.44-.82.84-1.25,1.29Z"/>
      <path class="cls-1" d="m49.39,0C22.11,0,0,22.11,0,49.39s22.11,49.39,49.39,49.39,49.39-22.11,49.39-49.39S76.67,0,49.39,0Zm25.63,24.1c.07,0,.14.07.21.1,1.05,5.84-2.98,11.59-9.02,12.79-1.1.22-2.23.3-3.35.33-.26,0-.77-.47-.76-.72.15-7.7,4.35-12.6,12.92-12.51Zm-7.09,27.35c-.77-3.88,2-6.72,6.33-6.4.48,4.21-2.32,7-6.33,6.4Zm-14.34,7.06c-2.75-3.22-2.09-6.8,1.57-8.94,2.91,2.62,2.22,6.74-1.57,8.94Zm-5.08-30.86c4.21-.33,6.99,2.48,6.31,6.37-3.91.82-7.37-2.67-6.31-6.37Zm-17.84-4.11c3.78,3.21,4.63,7.63,4.8,12.38-9.93.56-16.32-5.56-15.9-15.79,4.08-.06,7.92.7,11.11,3.41Zm-6.25,24.57c-2.65-2.85-1.6-6.96,2.29-8.75,2.51,3.33,1.51,7.04-2.29,8.75Zm4.87,31.27c-.51-3.98,1.91-6.55,5.7-6.16,1,3.47-1.82,6.55-5.7,6.16Zm9.8-10.34c-4.11.55-6.81-2.11-6.45-6.28,3.76-.96,6.79,1.96,6.45,6.28Zm-6.71-13.94c-.66-5.27,3.51-9.41,8.45-8.47.99,4.9-3.13,9.08-8.45,8.47Zm3.48-14.47c-1-3.74,2.13-6.95,6.34-6.39.26,4.32-2.21,6.77-6.34,6.39Zm21.53,31.54c-6.12.02-10.8-3.6-10.26-10.97,6.39-.53,11.02,3.73,10.93,10.03,0,.33-.44.94-.67.94Zm3.7,9.66c-.27-13.07,7.79-20.13,19.68-19.67.63,11.95-6.88,20.17-19.68,19.67Z"/>
    </g>
  </g>
</svg>