<?xml version="1.0" encoding="UTF-8"?>
<svg id="Capa_2" data-name="Capa 2" xmlns="http://www.w3.org/2000/svg" viewBox="0 0 98.78 98.78">
  <defs>
    <style>
      .cls-1 {
        fill: #542626;
        stroke-width: 0px;
      }
    </style>
  </defs>
  <g id="Capa_1-2" data-name="Capa 1">
    <g>
      <path class="cls-1" d="m68.92,45.14c-2.95-2.57-6.47-3.33-10.26-2.87-1.81.22-3.6.69-5.4,1-3.69.64-7.36,1.56-11.08,1.8-3.63.23-6.24,1.84-8.28,4.56-1.68,2.24-1.23,4.85,1.02,6.53.9.67,1.97,1.25,3.05,1.54,1.84.48,3.75.7,5.32.97,6.26-.61,12.17-1.1,18.05-1.81,3.01-.36,5.77-1.54,7.93-3.79,2.48-2.58,2.36-5.57-.34-7.93Zm-.98,3.8c-.26.25-1.24.18-1.53-.11-1.75-1.8-3.88-2.14-6.21-1.89-.9.1-1.81.09-1.96-1.06-.15-1.14.67-1.42,1.61-1.51.51-.05,1.01-.11,1.37-.15,2.32.11,4.38.55,6.1,1.96.39.32.89.7.97,1.13.1.52,0,1.3-.35,1.63Z"/>
      <path class="cls-1" d="m49.39,0C22.11,0,0,22.11,0,49.39s22.11,49.39,49.39,49.39,49.39-22.11,49.39-49.39S76.67,0,49.39,0Zm-17.2,33.46c.12-.51.74-1.18,1.22-1.25.44-.07.98.57,1.48.89,0,.18,0,.37,0,.55-.49.35-.95.89-1.49,1-.77.16-1.39-.44-1.21-1.19Zm-1.12,27.45c.36-.06,1.22.73,1.19,1.09-.04.55-.64,1.07-1.01,1.6-.2,0-.4,0-.6,0-.32-.5-.97-1.07-.89-1.49.1-.49.79-1.12,1.31-1.2Zm42.59,16.8c-3.57,2.51-7.61,3.76-11.9,3.8-7.39.08-14.78,0-22.16-.24-4.18-.14-8.19-1.24-11.62-3.84-4.7-3.55-5.11-9.51-.99-13.73.62-.63,1.29-1.14,2.09-.42.87.77.41,1.53-.23,2.21-1.98,2.11-2.91,4.56-1.48,7.23.71,1.32,1.95,2.5,3.22,3.34,2.8,1.86,6.06,2.58,9.37,2.67,7.13.18,14.27.31,21.4.22,4.44-.05,8.61-1.29,12.03-4.34,3.29-2.94,3.59-6.78.65-10.06-3.26-3.65-7.57-5.05-12.31-4.95-3.41.07-6.8.56-10.21.85-4.25.36-8.51,1.21-12.74.11-1.79-.47-3.61-1.14-5.14-2.15-3.7-2.45-4.42-7-1.7-10.51,1.16-1.49,2.7-2.67,3.93-3.86-1.01-.78-2.28-1.6-3.34-2.62-1.25-1.2-1.86-2.79-1.65-4.53.06-.48.69-1.2,1.1-1.23.42-.03,1.17.57,1.3,1.03,1,3.59,2.7,5.05,6.56,5.69,2.96.5,5.77-.18,8.61-.76,3.26-.67,6.55-1.21,9.76-2.08,1.77-.48,3.55-1.29,5.04-2.36,2.73-1.95,2.6-4.88-.22-6.73-2.45-1.61-5.09-2.36-8.13-1.58-3.46.89-6.99,1.58-10.53,2.14-2.88.46-5.72.07-8.21-1.66-2.93-2.04-3.45-5.44-1.24-8.25,1.68-2.14,3.98-3.17,6.6-3.54,3.59-.51,7.19-.98,10.78-1.45,2.66-.35,5.1.32,7.27,1.84,2.97,2.08,3.34,5.12,1.07,7.95-.1.13-.18.27-.25.37,1.26.6,2.55,1.07,3.69,1.78,4.62,2.9,4.92,7.73.77,11.24-.19.16-.39.32-.73.6.74.25,1.35.45,1.96.67,2.13.75,4.01,1.89,5.5,3.61,2.65,3.06,2.74,6.98.07,10.02-1.16,1.32-2.65,2.37-4,3.56.28.1.72.21,1.1.42,1.87,1,3.91,1.8,5.54,3.1,6.02,4.78,5.68,12.03-.63,16.45Zm-10.44-14.74c.17-.49.77-.83,1-1.07,3.41.43,6.23,1.37,8.29,3.74.62.72.93,1.77,1.16,2.72.07.29-.55.96-.97,1.08-.34.1-1.11-.25-1.24-.57-1.15-2.92-3.7-3.65-6.37-4.23-.29-.06-.58-.11-.87-.18-.79-.19-1.26-.73-1-1.48Zm-6.96-31.46c.8-.14,1.6-.25,2.61-.4.71.22,1.62.45,2.48.79.8.31,1.09.99.73,1.77-.33.72-.95.75-1.73.6-1.18-.22-2.41-.29-3.6-.24-.87.04-1.58-.03-1.78-.97-.2-.96.42-1.4,1.28-1.55Z"/>
      <path class="cls-1" d="m58.23,20.12c-1.64-1.19-3.5-1.74-5.54-1.48-3.63.47-7.26.95-10.88,1.47-1.96.28-3.71,1.01-4.92,2.67-1.18,1.61-.98,3.43.76,4.39,1.48.82,3.2,1.19,4.82,1.76.04-.12.09-.23.13-.35.51-.03,1.03,0,1.53-.1,3.47-.68,6.95-1.3,10.38-2.14,1.36-.34,2.72-1.03,3.86-1.87,1.74-1.29,1.64-3.06-.12-4.34Zm-1.62,2.45c-.12.39-.97.93-1.3.82-1.75-.57-3.37-.02-5.01.37-.88.21-1.57.05-1.8-.87-.23-.94.34-1.41,1.2-1.6,1.28-.28,2.56-.57,3.93-.87.79.23,1.67.33,2.38.74.38.22.73,1.03.61,1.42Z"/>
    </g>
  </g>
</svg>