<?xml version="1.0" encoding="UTF-8"?>
<svg id="Capa_2" data-name="Capa 2" xmlns="http://www.w3.org/2000/svg" viewBox="0 0 85.9 88.64">
  <defs>
    <style>
      .cls-1 {
        fill: #ea4b8b;
        stroke-width: 0px;
      }
    </style>
  </defs>
  <g id="Capa_1-2" data-name="Capa 1">
    <g>
      <path class="cls-1" d="m66.87,57.36c1.49,1.35,3.03,2.51,4.28,3.93,2.31,2.61,3.45,5.77,3.49,9.25.05,5.4-.02,10.8.04,16.21.02,1.47-.57,1.9-1.97,1.9-19.87-.03-39.73-.03-59.6,0-1.45,0-1.94-.52-1.92-1.95.06-5.17,0-10.34.03-15.51.02-5.6,2.38-9.94,7.03-13.05.28-.19.55-.4.82-.59-3.49-5.34-3.08-9.01,1.39-13.71.37-.38.49-1.13.49-1.71.03-7.38.02-14.75.02-22.13,0-8.6,5.34-14.63,13.85-15.73.59-.08,1.2-.37,1.7-.71,5.99-4.08,12.31-4.78,18.76-1.42,6.44,3.35,9.56,8.93,9.6,16.17.04,7.9,0,15.8.04,23.7,0,.67.22,1.53.66,1.96,4.19,4.03,4.67,8.67,1.28,13.39Zm-53.27,23.49h7.32c.02-.38.06-.66.06-.94,0-1.97-.06-3.95.05-5.92.03-.47.63-.91.97-1.37.36.44.89.83,1.03,1.32.18.65.05,1.38.05,2.08,0,3.46,0,6.93,0,10.37h39.73c0-4.02,0-7.91,0-11.8,0-.85-.18-1.99,1.1-1.88.38.03.91,1.17.95,1.83.12,2.11.05,4.24.05,6.3h7.6c0-3.87.24-7.65-.06-11.39-.45-5.67-4.7-10.21-10.32-11.19-2.26-.4-4.6-.29-6.84-.4-2.12,7.57-6.17,11.22-12.27,11.25-6.17.02-10.15-3.52-12.4-11.15-1.53,0-3.09-.03-4.65,0-6.05.12-11.44,4.34-12.25,10.34-.55,4.08-.11,8.3-.11,12.54Zm37.54-25.06c.27.03.44.06.61.07,4.1.23,8.2.48,12.3.64.46.02,1.07-.39,1.39-.78,2.54-3.05,1.95-7.68-1.39-10.17-.97-.73-1.27-1.47-1.26-2.61.04-8.07,0-16.15.02-24.22.02-6.63-2.68-11.75-8.63-14.77-5.88-2.99-11.56-2.19-16.87,1.67-.53.38-1.22.69-1.87.75-7.42.67-12.35,5.97-12.36,13.38-.01,7.73-.02,15.45.02,23.18,0,1.14-.28,1.89-1.25,2.62-3.29,2.46-3.9,6.9-1.54,10.05.58.78,1.14,1.07,2.2.8,1.38-.36,2.86-.46,4.3-.5,2.65-.07,5.31-.02,7.92-.02.6-2.58.29-4.54-2.3-5.68-1.15-.5-2.16-1.36-3.18-2.12-1.69-1.25-2.63-2.97-2.65-5.06-.05-5.4-.06-10.8.03-16.2,0-.57.72-1.46,1.28-1.63,3.85-1.16,6.67-3.45,8.27-7.15.57-1.31,1.27-1.55,2.34-.52.63.6,1.29,1.17,1.97,1.72,4.91,3.94,10.65,5.54,16.81,5.86,1.73.09,2.1.83,2.08,2.4-.08,4.88-.07,9.76-.01,14.64.03,2.87-1.09,5.04-3.53,6.55-.79.49-1.49,1.17-2.33,1.52-2.61,1.09-2.94,3.07-2.35,5.6Zm-22.47-28.7c0,5.4-.13,10.68.1,15.95.05,1.23,1.09,2.72,2.11,3.53,2.4,1.9,5.03,3.52,7.64,5.15,2.99,1.87,6.06,1.79,9.02-.08,2.5-1.58,4.93-3.27,7.39-4.9,1.57-1.04,2.34-2.48,2.32-4.39-.04-3.25-.01-6.5-.01-9.75,0-1.77,0-3.54,0-5.48-7.43-.22-13.9-2.56-19.48-7.39-2.09,3.75-5.01,6.16-9.08,7.37Zm20.05,26.54c-5.29,2.11-6.27,2.09-11.56,0-.14,1.29.16,2.98-.55,3.78-.66.75-2.38.56-3.63.78.86,5.45,5.25,9.09,10.57,8.8,4.89-.27,9.01-4.24,9.26-8.82-1.23-.22-2.95-.02-3.55-.75-.69-.84-.4-2.49-.54-3.78ZM13.38,86.39h7.51v-3.24h-7.51v3.24Zm51.53.01h7.58v-3.27h-7.52c-.03.36-.06.64-.06.91,0,.75,0,1.49,0,2.35Z"/>
      <path class="cls-1" d="m.07,11.6C.05,3.36,7.06-1.89,13.6.79c5.2,2.14,6.96,8.17,3.57,12.31-1.76,2.15-4.07,2.89-6.7,2.2-2.37-.62-3.93-2.18-4.33-4.7-.31-1.92.72-4.07,2.38-5.07,1.51-.9,3.63-.86,4.88.28.4.36.41,1.14.6,1.72-.56.02-1.25.25-1.66,0-1.3-.77-2.42-.74-3.43.4-.99,1.12-.97,2.81-.01,4.01,1.51,1.89,4.57,1.97,6.33.16,2.16-2.22,2.05-5.78-.25-7.96-2.84-2.68-7.25-2.62-10.06.15-3.27,3.21-3.68,8.37-.95,12.09.24.33.64.6.74.95.14.53.07,1.11.09,1.67-.55-.11-1.31-.04-1.63-.37C1.09,16.51.14,13.89.07,11.6Z"/>
      <path class="cls-1" d="m10.43,44.02c-3.74-.24-7.11-1.81-9.18-5.46-1.81-3.2-1.64-6.48.31-9.59,2.81-4.46,8.83-5.11,12.25-1.36,1.67,1.83,2.09,3.99,1.35,6.32-.71,2.22-2.24,3.62-4.59,4-1.91.31-4.11-.71-5.06-2.39-.91-1.6-.91-3.26.19-4.75.32-.44,1.11-.53,1.68-.78.05.59.33,1.32.09,1.76-.72,1.33-.65,2.45.5,3.42,1.14.96,2.83.89,4.01-.09,1.97-1.65,1.88-4.86-.23-6.55-1.73-1.39-3.7-1.71-5.72-.8-2.44,1.11-3.65,3.19-3.84,5.8-.38,5.08,4.94,9.36,10.3,8.15,1.58-.35,2.99-1.43,4.52-2.08.59-.25,1.59-.59,1.88-.32.88.8,0,1.43-.59,1.95-2.16,1.84-4.68,2.73-7.87,2.77Z"/>
      <path class="cls-1" d="m85.9,26.12c-.06,6.26-6.1,10.97-11.81,9.14-4.6-1.48-6.78-7.03-4.25-10.84,1.45-2.18,4.27-3.3,6.7-2.64,2.09.56,3.66,2.47,3.85,4.68.21,2.39-1.5,4.6-3.81,4.79-.5.04-1.04-.44-1.56-.68.34-.43.61-1.13,1.04-1.25,1.59-.44,2.45-1.29,2.18-2.99-.25-1.58-1.55-2.59-3.22-2.58-2.56.03-4.51,2.38-4.11,4.97.51,3.31,3.6,5.41,6.92,4.72,3.99-.84,6.5-4.58,5.77-8.61-.75-4.17-3.85-7.15-8.08-7.75-.29-.04-.63.01-.85-.13-.47-.31-.88-.71-1.31-1.08.58-.33,1.18-.95,1.75-.93,4.83.19,9.14,3.76,10.32,8.46.22.9.31,1.82.47,2.74Z"/>
      <path class="cls-1" d="m49.87,47.24c-.78.15-1.6.55-1.89.31-1.19-.98-2.06-.69-3.21.11-1.29.9-2.81.74-4.06-.22-.86-.66-1.51-.8-2.46-.11-.4.29-1.18.04-1.79.04.21-.57.27-1.3.67-1.68,1.27-1.22,2.77-1.47,4.23-.33,1.08.84,1.98.88,3.11.04,1.62-1.2,3.59-.87,4.79.65.17.21.26.49.61,1.19Z"/>
      <path class="cls-1" d="m35.32,32.73c-.6-.66-1.15-1.12-1.49-1.7-.18-.31-.17-1.03.04-1.19.32-.24,1.07-.38,1.32-.17,1.05.89,2.07,1.86,2.91,2.94.19.25-.19,1.37-.57,1.55-1.24.6-2.58,1.03-3.92,1.34-.4.09-.93-.39-1.41-.61.26-.45.41-1.06.8-1.3.62-.39,1.39-.54,2.3-.86Z"/>
      <path class="cls-1" d="m50.57,32.72c.87.31,1.67.48,2.32.89.38.24.51.87.76,1.32-.48.2-1.02.66-1.43.56-1.29-.3-2.53-.78-3.78-1.24-1.09-.4-1.29-1.11-.49-1.98.74-.81,1.48-1.64,2.35-2.3.39-.3,1.08-.2,1.63-.29-.07.6-.03,1.24-.24,1.77-.18.44-.66.76-1.12,1.26Z"/>
      <path class="cls-1" d="m40.42,40.3c.56-2.2.98-4.06,1.54-5.89.11-.36.74-.56,1.13-.83.28.44.81.88.8,1.31-.02.79-.36,1.57-.55,2.36-.38,1.5-.95,2.98.36,4.39.2.22-.16.97-.26,1.47-.46-.1-1.1-.05-1.34-.33-.69-.82-1.22-1.77-1.68-2.48Z"/>
    </g>
  </g>
</svg>