<?xml version="1.0" encoding="UTF-8"?>
<svg id="Capa_2" data-name="Capa 2" xmlns="http://www.w3.org/2000/svg" viewBox="0 0 98.78 98.78">
  <defs>
    <style>
      .cls-1 {
        fill: #542626;
        stroke-width: 0px;
      }
    </style>
  </defs>
  <g id="Capa_1-2" data-name="Capa 1">
    <g>
      <path class="cls-1" d="m50.3,62.4c0,.4.44.94.82,1.16q4.15,2.4,8.39.28c.53-.26,1.03-.65,1.59-.76.66-.13,1.44-.2,2.04.03,1.42.55,2.76,1.3,4.16,1.98v-17.54c-2.79,1-5.45,2.2-8.23,2.87-2.79.68-5.7.83-8.81,1.25,0,.41,0,.89,0,1.37,0,3.12-.03,6.24.04,9.36Zm12.21-9.14h2.27v6.32h-2.27v-6.32Z"/>
      <path class="cls-1" d="m52.02,70.68c2.45,1.59,4.67,1.72,7.02-.04.55-.41,1.27-.6,1.85-.97.81-.51,1.52-.51,2.37-.03,1.29.73,2.65,1.33,4.04,2.01q.35-3.58-2.56-5.04c-.53-.26-1.03-.65-1.59-.76-.67-.14-1.47-.24-2.06,0-1.54.62-2.96,1.53-4.5,2.15-.6.24-1.45.24-2.06.01-1.38-.53-2.68-1.28-4.19-2.03-.03.73,0,1.26-.09,1.76-.28,1.53.57,2.15,1.77,2.93Z"/>
      <path class="cls-1" d="m47.74,54.43c.05-3.18.01-3.18-2.99-3.81-.31-.07-.64-.13-.94-.24-2.99-1.13-5.98-2.26-9.02-3.42q-2.59,3.57-.14,7.28s.07.09.09.13c.5,1.07,1.26,1.6,2.52,1.57,1.45-.04,2.9.2,4.35.2,1.04,0,1.68.41,2.2,1.29.73,1.24,1.58,2.4,2.37,3.59,2.13-1.92,1.51-4.34,1.55-6.6Zm-4.92-.67h-5.96v-2.26h5.96v2.26Z"/>
      <path class="cls-1" d="m52.75,32.5c5.97-.46,11.54-6.02,11.28-11.31h-24.93c.66,6.88,6.74,11.85,13.66,11.31Zm-4.87-9.57h7.61v2.35h-7.61v-2.35Z"/>
      <path class="cls-1" d="m35.32,64.15c-2.97.34-5.31-.58-6.48-3.59-.2-.52-.64-.95-1.08-1.57-.98,1.69-1.88,3.25-2.86,4.95,4.98,2.88,9.84,5.68,14.77,8.54,2.12-2.95,1.98-2.87.38-5.69-1.12-1.97-2.47-2.89-4.73-2.63Z"/>
      <path class="cls-1" d="m65.72,73.56c-2.51-1.57-4.78-1.78-7.17.04-.21.16-.5.21-.71.37-1.5,1.13-2.96,1.15-4.53.05-.86-.6-1.89-.95-2.97-1.49v5.56h17.09c0-.62-.06-1.11.01-1.57.23-1.48-.46-2.17-1.72-2.96Z"/>
      <path class="cls-1" d="m42.7,60.25c-.54-1.2-1.41-1.73-2.77-1.7-1.45.03-2.91-.04-4.34-.27-.69-.11-1.47-.57-1.91-1.11-.94-1.15-1.68-2.47-2.53-3.75q-2.22,2.78-.46,5.45c.12.18.27.35.35.54.75,1.75,2.03,2.44,3.94,2.24,3.32-.35,5.95.65,7.24,4.02.15.38.48.69.75,1.05q2.12-2.83.25-5.66c-.18-.27-.39-.52-.52-.81Z"/>
      <path class="cls-1" d="m69.51,23.47c-.47-.97-1.5-1.66-2.27-2.48-1.95,8.16-6.36,13.34-14.45,13.85-9.34.58-14.54-4.77-16.56-14.15-1.05,1.16-2.05,1.87-2.52,2.85-1.7,3.53-3.2,7.16-4.8,10.74-.74,1.65-.47,3.1.67,4.49,11.06,13.46,32.83,13.48,44.04.06,1.15-1.37,1.5-2.81.76-4.47-1.61-3.64-3.15-7.31-4.87-10.89Zm-36.6,15.29c-.54-.6-1.01-1.1-1.6-1.76.61-.53,1.15-1.01,1.8-1.58.54.56,1.04,1.09,1.65,1.73-.65.57-1.2,1.05-1.85,1.61Zm4.13,3.32c-.67-.48-1.28-.91-2.09-1.49.57-.71,1.03-1.27,1.54-1.9.66.49,1.24.91,1.86,1.36-.43.67-.81,1.24-1.32,2.03Zm14.54,4.33c-4.33.11-8.32-1.02-12.33-2.99.41-.76.77-1.43.95-1.77,3.86.96,7.52,1.87,11.38,2.83v1.92Zm14.66-18.3c.73-.34,1.39-.64,2.23-1.03.79,1.81,1.5,3.41,2.27,5.17-.74.34-1.41.64-2.22,1-.76-1.71-1.49-3.36-2.28-5.14Zm4.26,9.64c-.35-.78-.63-1.4-.99-2.2.72-.33,1.37-.63,2.18-1.01.35.74.66,1.38,1.04,2.19-.75.35-1.41.65-2.23,1.02Z"/>
      <path class="cls-1" d="m49.39,0C22.11,0,0,22.11,0,49.39s22.11,49.39,49.39,49.39,49.39-22.11,49.39-49.39S76.67,0,49.39,0Zm25.97,40.54c-1.37,1.43-2.81,2.83-4.34,4.08-.85.69-1.14,1.4-1.13,2.45.03,11.35.02,22.71.02,34.06v2.04h-2.41c-.04-.79-.08-1.53-.12-2.38h-7.26c-.04.72-.08,1.49-.13,2.35h-2.28c-.07-.81-.12-1.54-.19-2.37h-7.15c-.06.79-.11,1.52-.17,2.35h-2.36v-18.82c-.12-.05-.24-.09-.37-.14-2.66,4.59-5.32,9.18-8.04,13.88-.73-.41-1.37-.77-2.08-1.17.38-.75.72-1.41,1.15-2.24-2.05-1.19-4.07-2.37-6.24-3.63-.45.68-.88,1.33-1.39,2.1-.67-.38-1.3-.73-2.02-1.13.39-.77.72-1.42,1.14-2.26-2.06-1.2-4.13-2.39-6.26-3.63-.45.7-.86,1.32-1.37,2.1-.69-.39-1.36-.78-2.08-1.19,4.22-7.31,8.37-14.52,12.07-20.93-1.63-2.02-3.01-3.82-4.49-5.53-1.93-2.22-2.38-4.61-1.18-7.31,1.57-3.53,3.12-7.08,4.69-10.61,1.2-2.69,3.26-4.01,6.22-4.01,9.36.01,18.73.01,28.09,0,2.96,0,5.02,1.33,6.22,4.01,1.57,3.53,3.12,7.08,4.69,10.62,1.19,2.7.82,5.16-1.21,7.29Z"/>
    </g>
  </g>
</svg>