<?xml version="1.0" encoding="UTF-8"?>
<svg id="Capa_2" data-name="Capa 2" xmlns="http://www.w3.org/2000/svg" viewBox="0 0 98.78 98.78">
  <defs>
    <style>
      .cls-1 {
        fill: #542626;
        stroke-width: 0px;
      }
    </style>
  </defs>
  <g id="Capa_1-2" data-name="Capa 1">
    <path class="cls-1" d="m49.39,0C22.11,0,0,22.11,0,49.39s22.11,49.39,49.39,49.39,49.39-22.11,49.39-49.39S76.67,0,49.39,0Zm-21.34,38.09c-.62,1.46-1.96,2.01-3.24,1.51-1.34-.53-1.88-1.91-1.34-3.45,1.44-4.14,5.73-7.07,10.28-7.04,4.43.03,8.49,2.84,10.02,6.93.59,1.56.13,2.9-1.19,3.5-1.3.6-2.7.04-3.36-1.49-1.07-2.49-2.89-3.93-5.6-3.92-2.72.01-4.51,1.47-5.57,3.96Zm38.2,22.22c-3.97,6.04-9.65,9.04-16.8,9.37-7-.29-12.59-3.14-16.62-8.89-1.23-1.75-1.1-3.34.24-4.22,1.32-.85,2.65-.39,3.85,1.35,6.19,8.97,18.77,8.96,24.95-.03,1.22-1.77,2.51-2.23,3.84-1.37,1.24.8,1.5,2.32.53,3.79Zm7.84-20.77c-1.37.62-2.67.03-3.43-1.65-1.09-2.4-2.9-3.78-5.54-3.76-2.64.01-4.44,1.4-5.5,3.82-.69,1.58-1.98,2.18-3.31,1.65-1.39-.55-1.89-1.98-1.28-3.6,1.58-4.13,5.71-6.92,10.22-6.89,4.34.03,8.39,2.78,9.97,6.77.65,1.65.22,3.04-1.14,3.66Z"/>
  </g>
</svg>