<?xml version="1.0" encoding="UTF-8"?>
<svg id="Capa_2" data-name="Capa 2" xmlns="http://www.w3.org/2000/svg" viewBox="0 0 81.12 81.12">
  <defs>
    <style>
      .cls-1 {
        fill: #ea4b8b;
        stroke-width: 0px;
      }
    </style>
  </defs>
  <g id="Capa_1-2" data-name="Capa 1">
    <path class="cls-1" d="m15.15,30.3c-1.22-3.26-2.52-6.25-3.44-9.34-.72-2.42-.88-4.98-.39-7.52.33-1.73.4-1.85,2.19-2.11,4.83-.71,9.33.46,13.63,2.57.96.47,1.89,1.02,2.98,1.61.19-.57.37-1.01.49-1.47,1.37-5.08,3.82-9.51,7.91-12.92,1.79-1.49,2.3-1.49,4.11.04,3.7,3.13,6.11,7.09,7.5,11.7.25.82.48,1.63.78,2.64.74-.39,1.36-.69,1.97-1.03,3.99-2.24,8.26-3.46,12.86-3.35,3.75.09,4.19.54,4.27,4.33.1,4.51-1.09,8.72-3.27,12.66-.31.57-.63,1.14-.93,1.71-.03.05-.01.14-.02.37.4.14.84.31,1.3.44,5.09,1.36,9.51,3.81,12.93,7.9,1.49,1.78,1.49,2.3-.04,4.11-3.13,3.7-7.09,6.11-11.7,7.5-.82.25-1.63.48-2.64.77.38.74.69,1.36,1.03,1.96,2.24,3.99,3.46,8.26,3.34,12.86-.09,3.73-.57,4.22-4.33,4.27-4.5.06-8.73-1.05-12.67-3.25-.62-.35-1.24-.69-2.02-1.13-.19.57-.36,1.01-.49,1.47-1.35,5.01-3.75,9.38-7.74,12.79-1.95,1.66-2.45,1.65-4.44-.06-3.62-3.1-5.97-7.02-7.33-11.56-.25-.81-.48-1.63-.77-2.63-.75.4-1.37.71-1.97,1.05-3.58,2.07-7.47,3.09-11.57,3.31-1.07.06-2.17-.07-3.24-.22-1.72-.25-1.85-.39-2.11-2.18-.73-5.15.58-9.89,2.96-14.4.34-.64.7-1.26,1.04-1.9.03-.05,0-.13,0-.37-.4-.13-.85-.3-1.31-.43-4.93-1.34-9.25-3.68-12.64-7.58-1.85-2.13-1.84-2.59.06-4.77,3.09-3.53,6.96-5.82,11.42-7.16.76-.23,1.52-.44,2.28-.67.06-.02.09-.1.01,0Zm34.5,10.31c.02-5-4.1-9.14-9.1-9.14-4.92,0-9.01,4.02-9.09,8.93-.08,5.01,3.99,9.19,8.99,9.25,5,.06,9.17-4.04,9.2-9.04Zm-.42-8.71c4.03-1.5,7.76-2.25,11.63-2.12.93.03,1.44-.36,1.93-1.08,1.82-2.65,3.16-5.52,3.74-8.67.34-1.86.88-3.79.05-5.82-5.47-.32-10.26,1.34-14.59,4.5-.34.25-.61.84-.6,1.26.1,4-.66,7.85-2.15,11.93Zm-17.33,0c-1.49-4-2.27-7.72-2.13-11.6.04-.92-.33-1.44-1.05-1.94-2.71-1.86-5.64-3.23-8.88-3.8-1.8-.32-3.66-.83-5.61-.02-.37,5.46,1.31,10.24,4.44,14.58.24.34.83.62,1.25.62,4-.08,7.87.65,11.98,2.16Zm-17.87,35.05c1.43,0,2.36.07,3.28-.01,3.88-.33,7.44-1.6,10.73-3.68,1.19-.75,1.95-1.53,1.74-3.1-.14-1.05.01-2.17.2-3.23.46-2.5,1.02-4.99,1.56-7.56-3.72,1.37-7.51,2.13-11.45,1.99-.85-.03-1.3.39-1.73,1.02-1.88,2.7-3.23,5.64-3.81,8.87-.31,1.74-.34,3.54-.53,5.7Zm35.18-17.71c1.53,4.06,2.27,7.85,2.14,11.79-.03.85.38,1.3,1.02,1.74,2.7,1.87,5.64,3.23,8.87,3.81,1.8.32,3.66.82,5.64.06.37-5.53-1.32-10.37-4.55-14.74-.24-.32-.87-.5-1.31-.49-3.94.07-7.73-.66-11.8-2.16Zm-21.21-8.6c-.31-.25-.45-.42-.62-.5-3.3-1.56-6.26-3.58-8.73-6.28-.64-.69-1.32-.79-2.14-.63-4.56.89-8.66,2.71-11.97,6.07-.39.39-.69.87-1.08,1.38,3.6,4.16,8.1,6.33,13.3,7.28.91.16,1.42-.31,2.07-.84,2.17-1.77,4.41-3.46,6.67-5.12.72-.53,1.59-.87,2.5-1.36Zm12.66-12.54c1.73-3.76,3.85-6.92,6.71-9.53.81-.74.64-1.56.47-2.39-.59-2.84-1.55-5.55-3.12-8.01-1.12-1.76-2.39-3.39-4.24-4.71-.64.62-1.23,1.13-1.76,1.7-2.66,2.87-4.26,6.28-5.23,10.06-.43,1.69-.44,2.98,1.08,4.2,1.1.89,1.98,2.1,2.79,3.29,1.13,1.65,2.1,3.41,3.3,5.4Zm36.91,12.66c-.13-.36-.15-.52-.23-.62-3.42-3.93-7.86-5.98-12.89-6.93-.87-.17-1.48.13-2.09.78-2.34,2.5-5.1,4.45-8.19,5.94-.34.17-.64.43-1.14.77,3.76,1.7,6.87,3.87,9.57,6.64.41.42,1.31.66,1.91.55,5.11-.91,9.57-3.06,13.06-7.13Zm-37.19,36.83c.36-.13.52-.15.62-.24,3.93-3.42,5.98-7.86,6.93-12.89.17-.88-.14-1.48-.78-2.09-2.44-2.29-4.38-4.97-5.83-8-.2-.41-.5-.76-.88-1.33-1.69,3.77-3.87,6.87-6.64,9.58-.42.41-.66,1.31-.55,1.91.91,5.11,3.06,9.57,7.13,13.05Zm-3.02-48.85c-1.16-2.44-2.43-4.54-4.51-6.66.3,3.03.49,5.55,1.79,7.86.93-.41,1.71-.75,2.73-1.2Zm6.39.05c1.12.45,1.96.78,3.11,1.23.54-2.61,1.03-4.99,1.53-7.37-2.27,1.56-3.48,3.7-4.63,6.14Zm-13.82,5.84c-2.37-1.19-4.83-1.49-7.83-1.72,2.13,2.07,4.21,3.37,6.62,4.44.42-.95.79-1.79,1.21-2.72Zm28.59-1.58c-2.54.23-5.05.31-7.34,1.61.47,1.01.86,1.83,1.28,2.71,2.38-1.17,4.5-2.35,6.07-4.32Zm-29.77,10.74c-2.45,1.14-4.54,2.42-6.24,4.3,2.58-.08,5.07-.31,7.39-1.54-.38-.9-.71-1.7-1.16-2.76Zm22.3,3.08c2.71.56,5.08,1.05,7.45,1.54.06-.15.12-.3.18-.44-1.77-1.76-3.85-3.07-6.28-4.13-.42.93-.79,1.77-1.35,3.03Zm-16.76,4.22c-.56,2.65-1.07,5.05-1.57,7.45.17.07.34.14.51.22,1.67-1.87,3.08-3.9,4.08-6.35-.97-.42-1.75-.76-3.02-1.32Zm13.93,7.81c-.2-2.85-.49-5.34-1.7-7.7-.99.45-1.82.84-2.75,1.26,1.15,2.37,2.33,4.52,4.45,6.44Z"/>
  </g>
</svg>