<?xml version="1.0" encoding="UTF-8"?>
<svg id="Capa_2" data-name="Capa 2" xmlns="http://www.w3.org/2000/svg" viewBox="0 0 65.98 77.74">
  <defs>
    <style>
      .cls-1 {
        fill: #ea4b8b;
        stroke-width: 0px;
      }
    </style>
  </defs>
  <g id="Capa_1-2" data-name="Capa 1">
    <g>
      <path class="cls-1" d="m12.14,69.57c3.46-2.43,6.94-4.84,10.34-7.35.34-.25.43-1.16.31-1.7-.92-4.09-.3-7.94,1.65-11.59.28-.53.99-1.04,1.58-1.13.39-.07,1.13.53,1.29.99.17.47-.07,1.17-.31,1.68-1.25,2.67-1.95,5.41-1.4,8.38.03.18.1.35.2.69,4.08-3.48,7.64-7.25,10.91-11.3.29-.35.54-.74.85-1.06,2.35-2.48,3.57-5.06,2.6-8.77-.62-2.36.12-5.09.34-7.65.09-1.04.75-1.75,1.86-1.48,1.06.26,1.24,1.07,1.1,2.14-.3,2.31-.42,4.65-.62,6.98.2.05.4.1.6.15.27-.44.58-.86.8-1.33,2.31-5.04,4.61-10.09,6.91-15.14.17-.37.24-.78.41-1.14.42-.87,1.24-1.25,1.99-.76.48.32.92,1.32.77,1.83-.67,2.22-1.5,4.4-2.39,6.54-3.74,8.99-8.85,17.14-15.25,24.46-.43.49-.86.98-1.29,1.47.04.16.07.32.11.48,2.04-.25,4.11-.4,6.13-.78,2.1-.4,3.02-.3,3.15.82.21,1.85-1.33,2.01-2.52,2.13-2.9.3-5.82.38-8.73.62-.64.05-1.44.19-1.87.6-5.02,4.82-10.49,9.04-16.42,12.67-.16.1-.3.23-.49.38,13.8,3.44,28.91-2.36,39.14-18.19-1.61-.1-3.13-.21-4.66-.27-1.03-.05-1.85-.4-1.87-1.54-.02-1.04.77-1.4,1.7-1.6,5.98-1.28,9.9-4.89,11.57-10.74.97-3.43,1.59-6.96,2.46-10.85-1.55.63-2.58,1.21-3.68,1.43-.59.12-1.53-.22-1.88-.68-.25-.34-.02-1.5.37-1.8,4.51-3.41,5.44-7.94,4.2-13.13-.82-3.43-1.76-6.82-2.7-10.41-.71.33-1.13.45-1.48.69-2.25,1.54-4.58,2.99-6.7,4.69-4.28,3.43-6.04,7.98-5.43,13.42.11.99.12,1.88-1.02,2.19-1.13.3-1.66-.44-2.03-1.36-.37-.93-.75-1.86-1.24-3.07-.39.59-.73.99-.95,1.45-1.62,3.31-3.45,6.54-4.73,9.98-.8,2.16-.82,4.62-1.04,6.97-.1,1.06.22,2.26-1.22,2.54-1.34.26-1.65-.86-2.03-1.81-.09-.23-.18-.46-.38-.95-.68.78-1.22,1.47-1.83,2.09-1.64,1.65-3.3,3.27-4.98,4.88-.8.76-1.72,1-2.5.04-.74-.91-.18-1.62.51-2.36,2.65-2.84,5.01-6.01,7.94-8.5,2.71-2.3,2.89-5.64,4.54-8.34,1.94-3.18,3.64-6.51,5.46-9.77.64-1.15,1.52-1.77,2.92-.93.18-.45.34-.8.48-1.17,1.11-2.89,2.71-5.49,5.22-7.32,3.17-2.32,6.49-4.45,9.81-6.55,1.36-.86,2.13-.52,2.75.92,1.97,4.63,3.33,9.43,3.98,14.42.43,3.29.25,4.42-1,8.21,1.73.48,1.64,1.84,1.41,3.25-.59,3.63-1.06,7.29-1.8,10.9-.94,4.6-3.17,8.5-6.94,11.33.47.59,1.13,1.09,1.25,1.7.11.53-.3,1.24-.64,1.77-4.94,7.82-10.93,14.57-19.4,18.7-8.49,4.14-17.33,4.75-26.45,2.43-.78-.2-1.77-.05-2.54.26-2.34.95-4.61,2.06-6.9,3.12-.96.44-1.83.39-2.29-.66-.47-1.07.13-1.7,1.08-2.12,1.98-.89,3.93-1.86,5.94-2.67,1.21-.49,1.61-1.16,1.54-2.49-.28-5.16.85-10.04,3.17-14.64.16-.32.32-.63.5-.94.5-.88,1.27-1.24,2.16-.74.91.5.87,1.29.51,2.23-1.02,2.62-2.11,5.24-2.84,7.95-.5,1.87-.45,3.88-.65,5.83.19.11.37.23.56.34Z"/>
      <path class="cls-1" d="m17.49,50.7c-.38-.6-1.09-1.23-1.04-1.78.05-.52.86-1.28,1.43-1.37.88-.15,1.6.56,1.42,1.51-.12.6-.73,1.09-1.12,1.64-.23,0-.46,0-.69,0Z"/>
    </g>
  </g>
</svg>