<?xml version="1.0" encoding="UTF-8"?>
<svg id="Capa_2" data-name="Capa 2" xmlns="http://www.w3.org/2000/svg" viewBox="0 0 69.01 91.8">
  <defs>
    <style>
      .cls-1 {
        fill: #ea4b8b;
        stroke-width: 0px;
      }
    </style>
  </defs>
  <g id="Capa_1-2" data-name="Capa 1">
    <g>
      <path class="cls-1" d="m62.43,37.32c-1.54-1.28-2.99-2.79-3.67-4.71-.59-1.64-.36-3.34-.32-5.04.1-4.19-.36-8.75-1.84-12.7-1.27-3.31-3.4-6.29-6.03-8.66-.22-.2-.44-.39-.67-.58C45.4,1.9,39.61-.11,33.77,0,22.16.23,12.01,9.36,10.82,20.91c-.41,3.96-.17,7.99-.35,11.99-.03.68-.48,1.6-1.03,1.95-11.04,7.16-12.69,21.51-3.43,30.86,7.9,7.98,15.87,15.89,23.82,23.83,3.07,3.06,6.25,3.03,9.37-.07,2.84-2.82,5.66-5.66,8.49-8.49.97-.97,7.81-7.63,9.65-9.64,2.12-2.1,4.26-4.18,6.3-6.36,7.48-7.96,7.21-20.68-1.21-27.66ZM13.29,23.5c.18-10.31,7.91-19.13,18-20.58,6.12-.88,12.45.96,17.13,5,2.48,2.14,4.49,4.92,5.72,7.99,1.36,3.41,1.39,6.94,1.5,10.55.02.58.05,1.16.05,1.74,0,1.57,0,3.14,0,4.8-1.63-.35-2.95-.63-4.42-.94,0-2.73.03-5.41,0-8.08-.07-4.48-1.6-8.41-4.71-11.67-4.68-4.89-11.87-6.47-18.14-4.02-6.35,2.48-10.56,8.49-10.72,15.38-.06,2.79-.01,5.59-.01,8.4-1.5.32-2.83.6-4.41.93,0-3.31-.05-6.41,0-9.5Zm35.21,8.58c-5.12.38-9.31,2.26-12.9,5.59-.42.39-1.77.44-2.16.07-3.63-3.37-7.86-5.31-13.2-5.68.22-4.01-.04-8,.75-11.78,1.43-6.89,8.2-11.12,15.48-10.27,6.52.76,11.83,6.61,12.02,13.31.08,2.85.01,5.71.01,8.75Zm13.06,31.19c-2.38,2.52-4.88,4.92-7.33,7.37-.15.15-.29.3-.42.46-2.25,2.24-5.59,5.56-5.79,5.76-3.63,3.63-7.25,7.28-10.9,10.89-1.75,1.74-3.47,1.8-5.15.12-8.21-8.18-16.48-16.3-24.55-24.61-6.42-6.6-6.23-16.97.16-23.44,6.37-6.45,16.51-6.73,23.32-.64,2.72,2.44,4.45,2.44,7.17,0,3-2.7,6.52-4.19,10.53-4.36,6.98-.3,13.26,3.57,16.12,9.84,2.86,6.28,1.67,13.51-3.15,18.62Z"/>
      <path class="cls-1" d="m39.1,48.99c-2.59-2.42-6.68-2.4-9.26.03-2.73,2.58-2.93,6.65-.31,9.47.74.8.8,1.45.52,2.37-.63,2.05-1.24,4.11-1.79,6.18-.49,1.85.48,3.21,2.38,3.34,1.25.09,2.51.02,3.76.02,0,0,0,.01,0,.02,1.19,0,2.39.04,3.58,0,2.23-.09,3.22-1.43,2.65-3.57-.52-1.96-1.08-3.91-1.68-5.84-.3-.97-.31-1.67.49-2.53,2.6-2.82,2.38-6.93-.35-9.47Zm-2.18,8.17c-1.14.98-1.31,2.03-.92,3.34.67,2.28,1.32,4.57,1.97,6.86.01.05-.02.12-.06.32h-7.03c.7-2.43,1.36-4.76,2.06-7.08.42-1.38.26-2.47-.95-3.5-1.97-1.67-2.08-4.28-.42-5.99,1.61-1.66,4.13-1.69,5.77-.08,1.74,1.71,1.63,4.38-.41,6.12Z"/>
    </g>
  </g>
</svg>