<?xml version="1.0" encoding="UTF-8"?>
<svg id="Capa_2" data-name="Capa 2" xmlns="http://www.w3.org/2000/svg" viewBox="0 0 105.56 105.68">
  <defs>
    <style>
      .cls-1 {
        fill: #63c5ea;
        stroke-width: 0px;
      }
    </style>
  </defs>
  <g id="Capa_1-2" data-name="Capa 1">
    <g>
      <path class="cls-1" d="m101.82,76.24c-4.47,0-8.95-.03-13.42-.04-2.81,0-5.61.09-8.42.12-2.16.03-5.24.53-7.15-.72-1.03-.67-1.88-1.75-2.75-2.61-3.57-3.52-7.15-7.03-10.77-10.49-2.71-2.59-6.11-2.05-7.85,1.27-1.22,2.32-1.1,4.63.26,6.87.29.47.58.94,1.06,1.7-1.71-.43-3.05-.72-4.35-1.12-1.18-.36-2.3-.48-2.66.96-.34,1.35.75,1.75,1.8,2.03,2.79.74,5.58,1.47,8.37,2.22,2.7.72,2.8.89,2.32,3.74-1.07,6.37,5.16,12.19,11.31,10.46.84-.24,1.94-1.48,1.22-2.31-.37-.43-1.08-.74-1.66-.68-5.48.55-8.57-2.62-7.57-8.03.35-1.88-.18-3.4-1.45-4.7-1.68-1.73-3.54-3.3-5.04-5.17-.73-.91-1.06-2.32-1.1-3.52-.03-.69.74-1.7,1.41-2.03.44-.21,1.51.37,2.02.88,3.86,3.83,7.71,7.67,11.44,11.62,1.68,1.78,3.5,2.66,5.97,2.63,8.39-.09,16.79-.03,25.19-.03h2.28v16.61c-.38.04-.58.09-.78.07-9.13-.57-18.26-1.18-27.4-1.68-1.16-.06-2.66.15-3.48.85-3.12,2.64-6.67,3.43-10.58,3.15-5.6-.41-10.97,0-15.61,3.71-.93.75-2.15.85-2.82-.43-.65-1.26.12-2.04,1.2-2.64,1.92-1.08,3.89-2.09,5.68-3.35.56-.39,1.83-1.88,1.06-2.49-.51-.41-1.73-.59-2.36-.46-3.15.69-6.25,1.6-9.37,2.46-1.21.33-2.44.56-2.89-.97-.49-1.67.79-2.11,2.06-2.45,4.11-1.1,8.25-2.14,12.32-3.37.63-.19,1.7-.98,1.79-1.68.23-1.78-3.93-1.58-4.88-1.58-4.02,0-8.04.02-12.06.03-.61,0-1.28-.02-1.75-.42-.37-.32-.54-.84-.53-1.33,0-.4.11-.81.37-1.11.48-.56,1.32-.6,2.06-.6,4.03.01,8.06.03,12.08.04.88,0,1.76,0,2.61-.18.71-.16,2.55-.59,1.93-1.65-.33-.57-1.01-1.03-1.51-1.44-.29-.24-.77-.26-1.17-.37-2.12-.57-4.25-1.13-6.37-1.7-1.97-.53-4.19-.87-6.05-1.69-.31-.14-.62-.31-.8-.59-.24-.37-.21-.85-.13-1.28.07-.35.18-.71.42-.97.44-.47,1.18-.52,1.8-.37s1.22.44,1.86.52c.62.08,1.56-.08,2.05-.52.83-.74,0-1.85-.76-2.3-.85-.5-1.95-.63-2.96-.81-2.44-.43-4.69.98-5.44,3.36-.73,2.3.41,4.8,2.68,5.82.59.27,1.22.44,2.14.77-5.96.61-7.84,1.64-7.91,4.58-.12,5.21,3.77,5.45,7.2,5.48-.44,0-1.6,1.19-1.97,1.47-1,.74-2.25,1.46-2.63,2.73-.46,1.51.46,3.11,1.42,4.21.45.52,1,.96,1.63,1.25,1.38.63,2.97.5,4.4.15-1.01,2.74-.75,4.89,1.34,6.49,2.11,1.62,4.31,1.25,6.3-.22,3.37-2.49,7.07-3.43,11.22-2.97,1.56.17,3.22.29,4.73-.03,2.65-.56,5.56-.96,7.74-2.39,2.32-1.53,4.48-1.66,6.97-1.49,8.31.56,16.61,1.07,24.93,1.55,2.63.15,3.48-.71,3.49-3.35.02-5.23,0-10.46,0-15.69,0-3.08-.69-3.78-3.74-3.78Z"/>
      <path class="cls-1" d="m41.11,19.17c-.39-2.82-1.27-5.59-2.62-8.21-.8-1.55-1.8-2.99-2.97-4.28-2.38-2.64-5.44-4.68-8.84-5.76C20.77-.97,13.99.1,8.94,3.71c-.6.43-1.2.92-1.49,1.59s-.16,1.59.47,1.97c.9.55,1.99-.23,2.81-.89,5.28-4.21,13.29-4.27,18.96-.6,6.93,4.48,9.88,13.43,8.09,21.31-1.75,7.71-7.94,13.51-15.41,14.44-6.92.86-14.05-3.28-17.35-10.21-2.69-5.64-2.74-11.41-.39-17.19.16-.38.51-.76.49-1.12-.05-.84.03-2.06-.47-2.43-1.12-.84-1.86.14-2.33,1.15C-.04,16.83-.66,22.48.73,27.95c.87,3.44,2.25,6.82,4.51,9.6,2.61,3.21,6.11,4.6,9.6,6.6-.42,1.6-1.49,3.49-1.23,5.17.41,2.57,3.07,1.56,5.05,1.94-.43,2.22-.78,4.43-1.29,6.6-1.16,4.94-.66,9.66,1.54,14.26,1.66,3.47,1.57,7.05,1.2,10.76-.32,3.22-2.27,5.98-2.8,9.14-.61,3.62-.06,7.3,1.24,10.72.47,1.22.47,3.41,2.54,2.69,2.06-.72.76-2.45.35-3.7-.84-2.6-1.37-5.41-1.23-8.18.07-1.42.32-2.84.77-4.19s1.23-2.61,1.66-3.99c.57-1.81.91-3.69.96-5.58.11-3.67-.88-7.26-2.52-10.53-.63-1.25-1.1-2.8-1.01-4.16.31-4.62.91-9.22,1.37-13.6,2.39-.85,5.28.7,6.01-1.82.48-1.67-.59-3.79-.98-5.74.06.31,7.14-4.13,7.76-4.69,2.14-1.93,3.85-4.3,5.02-6.93,1.87-4.2,2.45-8.73,1.84-13.15Zm-24.05,28.73c.39-1.97,1.52-3.02,3.36-3.13,1.96-.12,3.18.94,3.9,3.13h-7.26Z"/>
    </g>
  </g>
</svg>