<?xml version="1.0" encoding="UTF-8"?>
<svg id="Capa_2" data-name="Capa 2" xmlns="http://www.w3.org/2000/svg" viewBox="0 0 77.81 83.66">
  <defs>
    <style>
      .cls-1 {
        fill: #63c5ea;
        stroke-width: 0px;
      }
    </style>
  </defs>
  <g id="Capa_1-2" data-name="Capa 1">
    <g>
      <path class="cls-1" d="m68.81,41.87c1.18,1.59,2.5,3.11,3.52,4.81,1.24,2.05,2.47,4.17,3.28,6.41,2.75,7.6-.82,13.76-8.81,14.79-3.68.47-7.48-.06-11.23-.11-.64,0-1.77.04-1.83.28-.29,1.14-1.69,2.13-.6,3.53,1.54,1.96,1.72,4.13.46,6.25-1.32,2.21-3.36,2.94-5.91,2.56-.59-.09-1.38.15-1.86.53-5.11,4.02-10.38,3.6-14.88-1.26-2.84-3.08-4.73-6.73-6.1-10.64-.45-1.29-1.04-1.52-2.32-1.3-4.19.74-8.41,1.01-12.6-.08-6.77-1.76-9.71-6.85-7.8-13.55,1.17-4.1,3.48-7.56,6.11-10.84.36-.45.73-.91,1.1-1.37-1.11-1.76-2.18-2.95-4.64-2.97-4.05-.04-6.13-5.18-3.62-8.49.73-.96.84-1.74.65-2.87-1.02-6.08,2.68-10.93,9.51-11.77,3.74-.46,7.6-.04,11.4.17,1.21.07,1.77-.08,2.19-1.27,1.33-3.8,3.15-7.35,5.84-10.39,5.03-5.71,11.48-5.77,16.62-.15,2.7,2.96,4.55,6.44,5.84,10.19.56,1.61,1.27,1.79,2.82,1.52,4.01-.71,8.07-.91,12.09.12,6.48,1.65,9.22,5.84,8.22,12.42-.1.64.22,1.46.59,2.03,2.26,3.46.37,8.05-3.59,8.59q-2.81.39-4.45,2.84Zm-13.51-.02c-.13-2.58-.19-5.17-.44-7.75-.07-.7-.53-1.64-1.1-1.98-4.52-2.72-9.1-5.35-13.72-7.92-.54-.3-1.54-.26-2.09.05-4.56,2.54-9.08,5.15-13.56,7.84-.58.35-1.11,1.29-1.13,1.97-.09,5.17-.09,10.34,0,15.5.01.68.53,1.63,1.1,1.98,4.52,2.72,9.1,5.35,13.71,7.92.5.28,1.43.29,1.93.01,4.66-2.61,9.28-5.27,13.86-8.02.53-.32.93-1.2.99-1.86.23-2.57.31-5.16.44-7.75Zm-44.32,2.04c-2.86,3.38-5.47,6.96-6.55,11.4-1.22,4.99.77,8.43,5.69,9.82,4.41,1.25,8.82.82,13.13-.02-.74-4.13-1.45-8.16-2.2-12.18-.08-.41-.37-.85-.69-1.12-3.03-2.59-6.09-5.15-9.37-7.9Zm43.89,21.24c1.36.2,2.74.47,4.13.59,3.41.29,6.81.3,10.08-.96,3.6-1.39,5.35-4.03,4.89-7.81-.64-5.23-3.66-9.24-6.83-13.05-3.26,2.74-6.36,5.33-9.43,7.96-.31.27-.56.74-.64,1.15-.74,3.97-1.45,7.95-2.2,12.14Zm-3.57-48.63c-.08-.25-.15-.54-.26-.81-1.66-4.24-3.53-8.36-7.19-11.33-2.9-2.35-6.06-2.56-8.93-.48-4.39,3.17-6.38,7.88-8.12,12.61,4.01,1.45,7.82,2.83,11.63,4.18.35.12.81.16,1.15.04,3.87-1.37,7.72-2.77,11.72-4.21Zm-6.68,62.07c-2.69-5.09-.25-8.87,5.77-8.97.32-.81.65-1.66,1.01-2.6-1.98-.61-3.84-1.13-5.66-1.76-2.21-.77-4.4-2.3-6.59-2.29-2.26,0-4.49,1.51-6.76,2.29-1.86.64-3.74,1.18-5.67,1.78,1.69,4.54,3.54,8.8,7.15,11.96,3.54,3.09,7.27,2.93,10.74-.42ZM23.25,18.55c-1.3-.19-2.73-.49-4.19-.6-3.72-.3-7.42-.32-10.89,1.35-3.52,1.7-5.01,5.38-3.63,8.8,5.28-.15,8.37,4.76,4.79,9.7.57.67,1.15,1.36,1.65,1.96,3.26-2.73,6.37-5.32,9.44-7.95.31-.27.54-.75.62-1.16.75-3.98,1.45-7.96,2.2-12.09Zm31.51.04c.6,2.93,1.51,5.73,1.68,8.57.19,3.26,1.68,5.3,4.24,7.11,2.27,1.61,4.22,3.68,6.38,5.61.59-.72,1.1-1.35,1.65-2.03-1.77-2.02-2.43-4.23-1.17-6.67,1.26-2.44,3.44-3.19,6.01-2.95,1.49-3.96-.37-7.8-4.57-9.33-4.71-1.72-9.48-1.19-14.22-.3Zm-34.24,16.16c-2.7,2.43-5.22,4.69-7.89,7.1,2.74,2.46,5.21,4.66,7.89,7.06v-14.16Zm37.07,14.2c2.74-2.48,5.2-4.7,7.89-7.12-2.7-2.42-5.19-4.66-7.89-7.08v14.21ZM23.65,29.31c4.22-2.45,8.06-4.67,12.28-7.11-3.55-1.13-6.69-2.13-10.11-3.22-.75,3.55-1.42,6.77-2.17,10.33Zm30.83,0c-.78-3.63-1.48-6.85-2.23-10.35-3.45,1.12-6.58,2.13-10.04,3.25,4.2,2.43,8.01,4.63,12.27,7.1Zm-28.66,35.42c3.5-1.14,6.62-2.16,10.06-3.28-4.21-2.43-8.02-4.64-12.23-7.08.74,3.54,1.41,6.76,2.17,10.36Zm28.62-10.35c-4.22,2.44-8.05,4.66-12.27,7.1,3.57,1.13,6.72,2.13,10.12,3.2.74-3.55,1.41-6.77,2.15-10.31Zm17.97-23.72c-1.64-.02-3,1.36-2.99,3.01,0,1.62,1.23,2.87,2.85,2.93,1.69.06,3.07-1.22,3.11-2.87.04-1.62-1.35-3.05-2.97-3.07Zm-64.01,2.93c-.03-1.66-1.42-3.01-3.05-2.94-1.55.06-2.87,1.41-2.89,2.97-.02,1.64,1.34,3,3.01,2.98,1.71-.01,2.97-1.29,2.94-3.01Zm40.56,44.45c1.61-.02,2.91-1.31,2.93-2.92.03-1.71-1.28-3.03-2.99-3.01-1.7.02-3,1.38-2.94,3.07.06,1.61,1.39,2.88,3,2.86Z"/>
      <path class="cls-1" d="m39.26,32.15c5.44.15,9.66,4.59,9.48,9.99-.18,5.35-4.57,9.53-9.89,9.39-5.43-.14-9.68-4.61-9.48-9.99.19-5.37,4.59-9.55,9.89-9.4Zm-.2,16.9c4.05-.02,7.25-3.27,7.2-7.31-.05-3.97-3.26-7.12-7.22-7.11-4.04,0-7.26,3.29-7.2,7.31.06,3.97,3.26,7.13,7.22,7.11Z"/>
      <path class="cls-1" d="m44.5,41.73c-.13,2.26-.95,3.71-2.5,4.63-.42.25-1.14-.02-1.72-.05.04-.58-.06-1.23.16-1.74.46-1.02,1.04-2.01,1.7-2.92.32-.44.96-.95,1.39-.9.43.05.79.76.97.96Z"/>
    </g>
  </g>
</svg>