<?xml version="1.0" encoding="UTF-8"?>
<svg id="Capa_2" data-name="Capa 2" xmlns="http://www.w3.org/2000/svg" viewBox="0 0 98.78 98.78">
  <defs>
    <style>
      .cls-1 {
        fill: #3e5054;
        stroke-width: 0px;
      }
    </style>
  </defs>
  <g id="Capa_1-2" data-name="Capa 1">
    <g>
      <path class="cls-1" d="m28.14,44.11c-1.58-1.32-3.2-.83-3.74,1.15-.51,1.85-.06,3.54.96,5.09.91,1.39,2.17,2.04,3.22,1.74,1.03-.3,1.66-1.53,1.66-3.24,0-1.83-.81-3.67-2.09-4.74Z"/>
      <path class="cls-1" d="m56.87,52.06c-3.7-2.72-7.84-3.6-12.08-1.58-6.84,3.26-10.41,8.96-11.19,16.4-.29,2.75.76,3.79,3.56,3.68,2.11-.08,4.22-.38,6.29-.77,3.61-.69,7.18-.98,10.83-.14,2.2.51,4.47.73,5.81.93,4.5.05,5.61-1.15,5.08-4.67-.87-5.75-3.62-10.42-8.3-13.86Z"/>
      <path class="cls-1" d="m43.63,40.23c.99-1.55,1.37-3.27,1.36-5.09,0-1.91-.44-3.58-1.31-5-1.58-2.56-4.14-2.63-5.63-.04-1.92,3.32-1.92,6.75,0,10.07,1.47,2.55,4,2.53,5.58.05Z"/>
      <path class="cls-1" d="m60.7,40.29c1.02-1.57,1.41-3.34,1.42-4.84,0-2.28-.55-4.19-1.47-5.53-1.57-2.3-3.86-2.29-5.42.02-1.9,2.83-1.91,7.55-.02,10.38,1.57,2.34,3.95,2.34,5.48-.02Z"/>
      <path class="cls-1" d="m49.39,0C22.11,0,0,22.11,0,49.39s22.11,49.39,49.39,49.39,49.39-22.11,49.39-49.39S76.67,0,49.39,0Zm3.03,28.11c2.92-4.33,8.01-4.37,10.99-.09,2.77,3.97,2.74,10.39-.06,14.33-2.91,4.08-7.79,4.13-10.74.09-1.59-2.18-2.18-4.69-2.18-7.36,0-2.51.57-4.87,1.98-6.97Zm-16.3-1.03c2.75-2.98,6.64-3.01,9.39-.03,2.11,2.29,2.81,5.09,2.85,7.94-.03,3.01-.69,5.63-2.51,7.87-2.74,3.37-6.95,3.45-9.84.21-3.64-4.07-3.58-11.98.11-15.99Zm-12.5,26.42c-2.53-2.68-3.47-5.87-2.37-9.44,1.26-4.1,5.57-5.33,8.9-2.62,2.37,1.93,3.38,4.53,3.45,7.54-.04.51-.03,1.04-.14,1.55-.49,2.23-1.55,4.04-3.87,4.75-2.35.71-4.36-.08-5.96-1.78Zm36.38,20.44c-1.37-.21-3.75-.42-6.05-.95-3.43-.8-6.77-.5-10.16.14-2.07.39-4.19.73-6.29.79-5.14.14-7.73-2.44-7.23-7.54.8-8.17,4.83-14.49,12.04-18.44,5.7-3.13,11.38-2.34,16.56,1.46,5.36,3.94,8.57,9.28,9.57,15.89.87,5.71-1.7,8.7-8.44,8.67Zm15.18-20.46c-1.71,1.78-3.84,2.61-6.27,1.69-2.43-.91-3.39-2.96-3.68-5.39-.04-.33-.03-.67-.05-1.07.13-2.76,1.07-5.23,3.26-7.11,3.55-3.06,8.3-1.51,9.28,3.07.72,3.36-.17,6.35-2.54,8.82Z"/>
      <path class="cls-1" d="m70.61,44.17c-1.34,1.2-1.98,2.75-2.06,4.52.02.35,0,.69.06,1.02.18,1.02.47,2.01,1.58,2.36,1.05.33,1.89-.17,2.58-.92,1.54-1.66,2.2-3.61,1.63-5.85-.51-2.05-2.22-2.55-3.8-1.14Z"/>
    </g>
  </g>
</svg>