<?xml version="1.0" encoding="UTF-8"?>
<svg id="Capa_2" data-name="Capa 2" xmlns="http://www.w3.org/2000/svg" viewBox="0 0 98.78 98.78">
  <defs>
    <style>
      .cls-1 {
        fill: #3e5054;
        stroke-width: 0px;
      }
    </style>
  </defs>
  <g id="Capa_1-2" data-name="Capa 1">
    <g>
      <path class="cls-1" d="m49.4,23.18c-1.16-.01-2.06.86-2.07,2.02-.01,1.16.87,2.07,2.02,2.08,1.15.01,2.05-.87,2.07-2.03.01-1.17-.85-2.06-2.02-2.07Z"/>
      <path class="cls-1" d="m49.39,0C22.11,0,0,22.11,0,49.39s22.11,49.39,49.39,49.39,49.39-22.11,49.39-49.39S76.67,0,49.39,0Zm-14.21,34.87c1.06-1.37,3-2.07,4.48-1.23,1.85,1.04,3.72.51,5.63.68.24-1.31.07-2.18-1.04-3.07-3.61-2.91-3.82-8.25-.62-11.57,3.18-3.3,8.37-3.25,11.53.1,3.19,3.38,2.88,8.59-.7,11.59q-1.25,1.05-.95,2.95c1.81-.19,3.64.41,5.44-.64,1.51-.88,3.53-.22,4.61,1.17,1.14,1.46,1.14,3.42,0,4.88-1.1,1.4-3.05,2.03-4.6,1.17-1.81-1.01-3.64-.46-5.6-.62,0,.75.11,1.39-.04,1.97-.1.39-.59.67-.9,1.01-.32-.32-.85-.61-.92-.98-.14-.72-.1-1.51,0-2.24.15-.97.81-1.6,1.79-1.65,1.59-.07,3.18-.06,4.77,0,.37.01.75.3,1.09.52,1.03.67,2.08.6,2.83-.22.7-.77.7-1.98,0-2.75-.73-.81-1.81-.86-2.84-.24-.47.28-1.05.5-1.59.53-1.29.08-2.59.05-3.89.01-1.44-.04-2.12-.77-2.23-2.18-.13-1.7.15-3.04,1.77-4.18,2.84-2.01,3.02-6.19.65-8.76-2.4-2.61-6.51-2.63-8.93-.04-2.38,2.54-2.22,6.76.61,8.77,1.66,1.18,1.94,2.55,1.79,4.3-.11,1.29-.78,2.04-2.05,2.09-1.46.06-2.93.06-4.39,0-.45-.02-.92-.32-1.33-.57-.99-.61-2.12-.5-2.83.34-.63.75-.61,1.91.03,2.65.72.83,1.81.89,2.84.29.51-.3,1.12-.52,1.7-.56,1.16-.09,2.34-.03,3.51-.02,1.81.02,2.52.71,2.52,2.51,0,7.03,0,14.05,0,21.08,0,1.17.03,2.34,0,3.51-.07,2.33-1.7,3.57-3.98,3.02-3.29-.8-6.33-2.14-8.99-4.25-.56-.44-1.47-.88-.78-1.78.67-.89,1.32-.19,1.9.27,2.43,1.93,5.22,3.13,8.2,3.91,1.18.31,1.72-.07,1.72-1.25.01-8.2,0-16.4,0-24.59,0-.12-.05-.23-.13-.51-1.94.18-3.82-.32-5.68.72-1.47.83-3.43.05-4.45-1.33-1.07-1.45-1.05-3.37.05-4.78Zm14.23-5.69c-2.16.03-4.01-1.79-4.01-3.96,0-2.12,1.75-3.91,3.87-3.97,2.18-.05,4.02,1.71,4.08,3.89.05,2.15-1.76,4.01-3.93,4.03Zm24.41,33.97c-.76-.33-1.5-.71-2.35-1.11-.44.77-.79,1.38-1.14,1.99-2.08,3.55-4.91,6.33-8.55,8.25-1.55.82-3.12,1.6-4.68,2.4-2.74,1.4-5,3.32-6.66,5.94-.77,1.21-1.36,1.21-2.12,0-1.69-2.65-3.98-4.59-6.77-6-1.31-.66-2.61-1.32-3.91-1.98-4.29-2.15-7.53-5.37-9.78-9.59-.16-.29-.32-.58-.55-1-.77.35-1.49.75-2.25,1.02-.42.15-1.03.23-1.36.03-.27-.16-.39-.81-.34-1.21.61-4.77,1.25-9.53,1.94-14.29.06-.42.43-1.02.76-1.1.34-.08.93.3,1.18.64,2.67,3.59,5.31,7.21,7.93,10.83.73,1.01.47,1.61-.75,1.86-.94.2-1.89.43-2.84.45-.4,0-.81-.48-1.22-.75.28-.36.5-.84.87-1.04.45-.24,1.03-.24,1.73-.38-2.03-2.77-3.96-5.42-6.07-8.31-.5,3.77-.96,7.22-1.44,10.82.33-.08.52-.09.68-.16,2.08-.91,2.1-.92,3.08,1.06,2.13,4.26,5.29,7.48,9.58,9.57,1.39.68,2.77,1.37,4.14,2.1,2.54,1.34,4.71,3.14,6.49,5.62,2.61-3.86,6.49-5.75,10.38-7.61,4.44-2.12,7.68-5.41,9.86-9.8.94-1.88.95-1.87,2.91-1,.18.08.38.14.79.3-.48-3.62-.93-7.08-1.44-10.92-2.12,2.9-4.05,5.55-6.07,8.31.53.12.89.21,1.25.28,1.45.27,1.72.83.88,2.06-2.59,3.79-6.32,6-10.56,7.46-.55.19-1.12.36-1.68.5-2.63.68-4.27-.58-4.28-3.28-.01-2.3,0-4.6,0-6.9,0-3.64,0-7.28,0-10.92,0-.77-.2-1.82.94-1.85,1.15-.03.99,1.02.99,1.79,0,5.86,0,11.71,0,17.57,0,1.87.38,2.15,2.17,1.66,3.15-.86,6.01-2.25,8.51-4.39.63-.54,1.35-.98,2.03-1.46-.13-.18-.26-.35-.39-.53-.52-.11-1.05-.18-1.56-.32-.86-.24-1.23-.79-.66-1.58,2.72-3.76,5.45-7.51,8.22-11.24.21-.28.77-.56,1.02-.46.34.13.71.61.76.98.69,4.84,1.35,9.69,1.98,14.54.15,1.17-.51,1.62-1.61,1.13Z"/>
    </g>
  </g>
</svg>