<?xml version="1.0" encoding="UTF-8"?>
<svg id="Capa_2" data-name="Capa 2" xmlns="http://www.w3.org/2000/svg" viewBox="0 0 98.78 98.78">
  <defs>
    <style>
      .cls-1 {
        fill: #3e5054;
        stroke-width: 0px;
      }
    </style>
  </defs>
  <g id="Capa_1-2" data-name="Capa 1">
    <path class="cls-1" d="m49.39,0C22.11,0,0,22.11,0,49.39s22.11,49.39,49.39,49.39,49.39-22.11,49.39-49.39S76.67,0,49.39,0Zm-15.02,64.86c-1.06.56-2.26.83-3.4,1.23-3.28,1.16-5.09,3.67-5.12,7.14-.02,3.49-.01,6.97,0,10.46,0,.95-.1,1.87-1.3,1.83-1.1-.04-1.17-.95-1.17-1.82,0-1.94,0-3.87,0-5.81.01,0,.02,0,.03,0,0-1.84-.08-3.68.02-5.52.2-3.57,1.95-6.27,5.1-7.91,1.62-.84,3.41-1.38,5.17-1.87.46-.13,1.11.41,1.67.65-.33.56-.52,1.36-1,1.62Zm9.8,9.38c-.19.33-1.06.28-1.62.41-.12-.59-.49-1.27-.33-1.76.58-1.71,1.28-3.4,2.08-5.02.24-.48.94-.98,1.45-1,.38-.02.8.72,1.43,1.34-1.04,2.12-1.94,4.12-3.01,6.03Zm10.49.41c-.55-.13-1.45-.09-1.61-.41-.94-1.92-1.77-3.91-2.49-5.92-.31-.86.25-1.46,1.46-1.6.23.26.67.58.86,1.01.76,1.7,1.51,3.41,2.11,5.17.17.49-.2,1.16-.33,1.76Zm17.74,10.88c-1.2-.02-1.19-1.03-1.19-1.94,0-3.35.01-6.7,0-10.04-.01-3.86-1.72-6.24-5.4-7.53-2.06-.72-4.14-1.37-6.17-2.18-1.06-.42-2.09-1.03-3-1.72-1.17-.89-1.07-1.77.21-2.46,6.86-3.72,10.5-9.64,10.92-17.25.57-10.24-3.18-18.95-10.95-25.66-4.97-4.29-11.03-4.31-16.17-.34-5.89,4.56-9.08,10.85-10.77,17.97-.03.13.02.28.04.64.36-.45.63-.76.87-1.08,7.71-10.26,23.73-11.59,33.05-2.77.9.85,1.39,1.72,1.33,3.03-.17,3.43.12,6.92-.35,10.31-1.06,7.54-7.75,13.41-15.16,13.73-8.21.36-15.2-4.68-17.2-12.38-.24-.94-.52-1.93.76-2.23,1.19-.28,1.38.69,1.64,1.57,1.66,5.69,5.4,9.3,11.22,10.34,5.95,1.06,10.76-1.16,14.23-6.11,1.6-2.29,2.3-4.9,2.34-7.68.03-2.43.05-4.85-.02-7.28-.02-.55-.3-1.26-.71-1.61-5.9-5.15-12.73-6.23-20-3.94-6.93,2.18-10.96,7.19-12.38,14.3-.08.42-.12.87-.05,1.28,1.69,10.09,10.34,18.04,20.69,17.11.88-.08,1.64.12,1.69,1.11.06,1.08-.74,1.29-1.66,1.36-9.65.75-18.59-5.28-22.07-14.93-2.45-6.78-1.7-13.46.72-20.05,1.97-5.36,4.86-10.14,9.27-13.88,6.41-5.44,13.9-5.53,20.44-.32,8.26,6.59,14.51,21.86,10.7,33.23-1.68,5.04-4.54,9.18-8.87,12.27-.23.17-.45.36-.68.54-.03.02-.02.08-.07.28,2.12.74,4.25,1.5,6.39,2.23,5.44,1.87,7.62,4.9,7.63,10.62,0,3.15,0,6.31,0,9.46,0,.94.05,2.03-1.27,2Z"/>
  </g>
</svg>