<?xml version="1.0" encoding="UTF-8"?>
<svg id="Capa_2" data-name="Capa 2" xmlns="http://www.w3.org/2000/svg" viewBox="0 0 63.24 75.95">
  <defs>
    <style>
      .cls-1 {
        fill: #f44a9f;
        stroke-width: 0px;
      }
    </style>
  </defs>
  <g id="Capa_1-2" data-name="Capa 1">
    <path class="cls-1" d="m31.6.02c6.57,0,13.14,0,19.71,0,1.99,0,2.48.45,2.44,2.43-.03,1.47,0,3-.34,4.41-.62,2.55-2.29,4.38-4.78,5.25-1.07.37-1.26.91-1.26,1.91,0,3.74,1.39,6.75,4.27,9.19,16.06,13.58,15.32,37.15-1.44,49.87-2.62,1.99-5.3,2.94-8.59,2.87-7.16-.15-14.32-.07-21.48-.03-2.22.01-4.1-.69-5.91-1.97-6.85-4.83-11.65-11.14-13.39-19.39-2.6-12.37.96-22.84,10.53-31.13,3.07-2.66,4.58-5.82,4.48-9.84-.02-.77-.27-1.1-.98-1.37-3.48-1.32-5.34-3.96-5.41-7.69C9.37-.19,9.32-.02,13.82,0c5.93.03,11.85,0,17.78,0Zm12.56,12.79h-25.08c-.06.24-.14.38-.13.52.31,5.61-2.14,9.76-6.39,13.28-4.49,3.71-7.26,8.65-8.6,14.35-.09.4-.2,1,0,1.23,1.9,2.11,4.46,2.94,6.88.89,2.98-2.53,6.89-2.53,9.87-.04,2,1.67,4.01,1.65,6-.03,2.86-2.42,6.9-2.43,9.77,0,2,1.69,4.01,1.7,6,.04,2.97-2.49,6.88-2.48,9.88.03,1.97,1.65,3.98,1.56,6.02-.07.91-.72,1.12-1.35.81-2.48-1.64-6.06-4.88-11.05-9.74-15.01-2.67-2.18-4.37-4.95-4.96-8.33-.24-1.39-.22-2.83-.33-4.36ZM6.01,59.81c.35.71.56,1.19.82,1.64,2.24,4,5.38,7.14,9.07,9.81,1.34.97,2.7,1.48,4.37,1.47,6.71-.05,13.43-.22,20.13.06,3.68.15,6.57-.93,9.25-3.31,3.04-2.71,5.63-5.71,7.5-9.57-2.93.53-5.21-.26-7.27-2.1-1.44-1.29-3.8-1.25-5.16.16-2.52,2.62-7.84,2.69-10.49-.03-1.41-1.45-3.86-1.45-5.26,0-2.66,2.73-7.97,2.65-10.49.04-1.28-1.33-3.58-1.51-4.91-.34-2.15,1.88-4.51,2.73-7.56,2.18Zm-2.62-13.82c-.15.06-.29.11-.44.17.27,2.44.54,4.88.82,7.32.37,3.28,4.62,4.35,6.89,2.41,3.33-2.85,6.84-2.77,10.31.03,1.59,1.28,3.73,1.32,5.34.08,3.83-2.94,6.78-2.94,10.55-.02,1.56,1.21,3.67,1.23,5.22.05,3.93-2.99,6.72-2.98,10.67,0,2.3,1.74,5.47.8,6.3-1.4,1.01-2.7,1.18-5.63.9-8.69-3.69,2.23-6.99,1.97-10.14-.85-1.43-1.28-3.68-.99-5.31.36-3.09,2.57-6.95,2.58-9.99.02-1.79-1.51-4.02-1.53-5.79-.05-3.13,2.63-6.89,2.62-10.1-.02-1.74-1.44-3.9-1.39-5.69-.03-.92.7-1.97,1.35-3.06,1.7-2.29.74-4.47.17-6.5-1.09ZM12.79,3.29c-.52,3.52,1.31,6.16,4.44,6.18,9.57.06,19.14.06,28.71,0,3.22-.02,5.27-3.05,4.38-6.18H12.79Z"/>
  </g>
</svg>