<svg xmlns="http://www.w3.org/2000/svg" viewBox="0 0 410.31 609.37"><path style="fill:#fcb424;stroke-width:0" d="M0 0h410.31v609.33H0z"/><g style="mix-blend-mode:multiply;opacity:.1"><path class="cls-2" d="M252.35 505.04c9.08.15 14.26-2.79 14.34-7.99.07-4.3-4.75-8.67-9.77-8.85-5.51-.2-10.22 4.13-10.08 9.58.09 3.58.71 7.18 5.51 7.26Zm-6.47-131.69c-.15 4.13 4.53 8.19 8.93 8.16 4.74-.04 8.34-3.71 8.32-9.77-.6-6.54-7.26-3.36-11.17-4.39-3.69-.98-5.94 2.29-6.08 6Zm29.96-55.5c-4.36.98-7.17 1.62-9.98 2.25-16.09 3.6-23.52 22.8-13.96 36.08 3.28 4.55 8.01 5.51 12.61 2.55 4.55-2.92 5.33-6.76 2.91-11.98-.98-2.12-2.34-5.48-1.41-6.8 3-4.28 7.03-7.83 10.56-11.76 1.63-1.81 4.53-4.2 4.17-5.68-.49-2.04-3.52-3.46-4.9-4.66Zm-107.61-12.51c-.46 3.09.44 7.86 5.25 7.23 3.16-.41 7.17-2.23 8.74-4.72 1.78-2.82-3.09-7.52-9.38-7.98-1.06 1.16-4.26 3.1-4.61 5.46Zm51.73 121.19c6.64-1.15 5.3-6.83 5.82-11.46.16-1.45 1.01-3.27 2.14-4.1 4.43-3.23 5.09-6.76.61-9.73-2.73-1.81-7.04-3.35-9.85-2.48-5.52 1.71-9.04 6.29-9.76 12.6.15 1.39.22 2.94.5 4.45 1.36 7.38 5.23 11.64 10.54 10.72Zm56.23-75.58c-3.67 2.49-5.07 5.99-3.05 10.03 2.05 4.07 5.62 6.12 10.09 4.1 2.33-1.06 4.14-3.28 6.17-5.01 1.12-.95 2.05-2.38 3.33-2.86 7.14-2.64 10.57-7.34 10.67-15.09.08-6.13-6.47-15.73-12.33-16.71-2.91-.49-6.84.31-9.06 2.09-1.55 1.25-1.42 5.17-1.23 7.84.14 1.97 2.02 3.78 2.35 5.79.32 1.9.3 4.51-.77 5.83-1.47 1.81-4.15 2.59-6.2 3.99Zm-82.81 36.68c-1.55-.71-3.33-.89-5-1.31-.39-.33-.78-.65-1.17-.98-2.22 2.21-4.43 4.43-6.65 6.64 1.7 1.67 3.31 3.46 5.15 4.96 1.01.82 2.36 1.35 3.65 1.69 3.54.94 7.25 1.31 8.76-2.97 1.47-4.14-1.36-6.49-4.73-8.03Zm10.45-1.74c1.93 1.27 4.81 1.09 7.45 1.58 4.49-.73 9.25-.94 13.58-2.41 2.93-1 7.15-3.49 7.51-5.82 1.13-7.33.74-14.91.84-22.39 0-.66-.58-1.71-1.15-1.93-6.16-2.44-12.23-5.99-18.62-6.74-5.47-.64-11.54 1.37-16.94 3.34-4 1.46-7.74 4.33-10.87 7.32-2.93 2.8-1.07 7.36 2.78 6.82 7.09-.99 14-3.21 21-4.81 2.28-.52 5.36-1.79 6.77-.82 1.85 1.27 3.42 4.51 3.22 6.72-.16 1.78-2.89 4.01-4.95 4.77-3.01 1.12-6.44 1.14-9.71 1.57-3.75.49-6.76 2.6-6.18 6.26.38 2.44 2.98 5.02 5.26 6.53Zm29.48 52.25c10.27 1.1 21.53-9.45 21.48-21.4-.21-1.01-.46-3.75-1.36-6.25-1.51-4.19-5.36-4.72-8.67-3.42-2.62 1.03-6.77 4.35-6.43 5.71 1.8 7.28-1.49 10.56-7.33 13.67-1.84.98-2.64 5.24-2.57 7.96.04 1.34 3.05 3.54 4.9 3.74ZM198.6 264.68c.77-1.96-1.04-4.93-1.68-7.45-2.33.8-5.05 1.08-6.9 2.51-3.29 2.53-6.3 5.55-8.96 8.74-2.93 3.52-5.35 7.47-8.52 11.99 2.98 4.38 4.81 8.14 7.63 10.91 2.69 2.65 6.24 4.57 9.69 6.23 2.15 1.04 4.82 1.01 7.26 1.45.22-2.84 1.3-5.98.44-8.44-1.18-3.35-4.1-6.04-5.77-9.28-.72-1.39-.78-3.77-.07-5.13 2.09-3.97 5.27-7.43 6.89-11.54Zm-20.31 75.58c2.57-.19 5.54-.86 7.49-2.4 3.15-2.49 3.91-6.4 1.69-9.88-1.37-2.14-3.89-3.53-4.77-4.29-7.03-.12-14.67 4.78-16.35 9.21-1.56 4.12-.03 6.21 4.15 6.28 2.61.04 5.24 1.27 7.79 1.08Zm70.47-37.16c1.76.72 3.9 1.26 5.06 2.59 5.9 6.73 13.51 6.89 21.37 5.86 6.61-.86 9-4.03 8.21-10.7.37-2.03.32-4.26 1.17-6.07 4.36-9.2-1-18.32-11.3-19.23-2.13-.19-4.15-1.45-6.26-2.09-3.75-1.13-7.51-2.95-11.3-3.05-6.29-.16-9.76 4.9-13.28 9.25-7.04 8.72-4.16 19.14 6.32 23.42Zm8.44-16.23c1.61-1.92 5.19-3.2 7.8-3.07 4.74.24 5.29 4.21 5.36 8.26-.51 2.02-.7 4.2-1.59 6.03-1.61 3.32-3.99 4.05-6.73 1.02-.9-1-1.51-2.38-2.58-3.07-3.8-2.42-5.01-5.9-2.26-9.18ZM192 147.4c-3.28 0-6.72.93-9.8.22-3.07-.71-6.55-2.32-8.46-4.67-2.42-2.99-4.5-6.75-8.52-5.43-3.94 1.3-7.99 3.83-10.7 6.94-2.89 3.32-.87 11.15 2.63 13.74 4.42 3.27 6.44-1.18 9.26-3.08 1.44-.96 2.91-2.14 4.53-2.48 1.42-.3 3.53-.11 4.51.78 5.25 4.78 10.13 9.96 15.35 14.77 2.79 2.57 3.29 5.07 1.07 8.08-1.03 1.4-2.84 2.57-3.14 4.08-.51 2.57-1.04 5.93.2 7.79.96 1.43 4.95 2.05 7 1.33 9.67-3.4 15.68-12.23 15.82-22.16.18-12.28-7.36-19.91-19.75-19.9Zm89.81 315.66c4.42-1.33 9.97-2.44 9.17-8.5-.84-6.45-6.76-4.87-11.18-5.24-2.62-.22-5.24-.5-7.86-.75-.07-.81-.15-1.62-.22-2.43 3.28-1.14 6.85-1.81 9.76-3.57 2.5-1.51 4.25-4.27 6.34-6.48-2.68-1.94-5.24-5.3-8.07-5.55-8.58-.76-16.52 1.68-22.22 8.77-5.01 6.23-3.82 15.85 2.73 19.94 6.58 4.11 13.78 6.14 21.57 3.81Z"/><path class="cls-2" d="M148.79 168.58c-1.05 2.85.16 6.93 1.36 10.09 1.3 3.45 4.13 6.3 5.55 9.73 2.07 4.98 6.22 7.56 12.52 6.88 6.71-.73 12.07-4.74 12.37-9.48.43-6.82-5.19-7.15-9.62-8.72-.18-.06-.37-.13-.56-.16-4.05-.56-5.85-2.7-4.84-6.58.26-6.4-4.25-11.42-9.22-9.48-3.14 1.23-6.41 4.57-7.56 7.72Zm156.77 88.33c-2.83-1.14-5.95-1.57-7.49-1.96-9.02 0-13.87 4.83-11.63 10.51 2.82 7.16 7.23 13.36 14.15 17.12 1.66.9 4.88.98 6.12-.06 1.07-.9 1.01-4.21.27-5.96-1.46-3.46-2.51-6.28.71-9.44 4.64-4.55 3.94-7.76-2.14-10.21Zm-184.8 17.07c2.65-.95 7.58-.23 7.18-5.63-.33-4.54-4.35-8.33-10.24-9.24-2.06 2.6-4.75 4.93-5.98 7.88-1.02 2.47 5.86 8.13 9.04 7ZM84 234.8c3.95 3.41 8.81 6.03 13.66 8.1 8.91 3.81 17.91 5.27 25.85-2.55.51-.5 1.4-.62 2.12-.89 7.59-2.84 9.18-5.08 9.48-13.6.77-5.25-2-8.89-6.87-10.42-5.43-1.71-7.89 2.11-10.04 6.45-1.52 3.07-3.4 6.33-6 8.41-2.66 2.14-6.31 3.79-9.68 4.11-3.55.34-5.1-3.56-2.32-5.26 5.87-3.59 7.27-12.16 15.5-13.24 1.5-.2 3.9-4.47 3.42-6.15-.64-2.24-3.75-5.37-5.71-5.3-4.17.13-9.06 1.05-12.24 3.5-6.17 4.75-11.56 10.6-16.9 16.34-2.88 3.11-3.52 7.69-.26 10.5Zm44.62-90.04c-4.82-3.64-21.95-.78-25.03 3.96-.41.63-.43 1.56-.91 2.11-1.74 1.99-3.52 3.96-5.44 5.77-2.42 2.27-6.7 4.03-7.23 6.61-2.9 14.24 4.81 22.74 17.02 22.71 3.57-1.53 7.51-2.54 10.55-4.79 1.53-1.13 1.43-4.49 2.06-6.83-2.12-.46-4.27-.82-6.35-1.4-2.24-.62-4.87-.91-6.54-2.29-4.65-3.82-2.12-7.5 1.19-10.57 1.61-1.5 3.81-2.37 5.74-3.52.89 1.91 2.5 3.81 2.53 5.74.1 5.54 3.79 8.78 7.83 10.4 1.64.66 5.43-3.03 7.75-5.26 6.91-6.61 2.39-18.45-3.16-22.65Zm11.45 106.89c-2.09.72-3.35 3.84-4.99 5.85 1.98 1.3 3.82 3.02 5.99 3.8 2.98 1.08 6.22 1.45 9.35 2.12l-.18 2.54c-1.51.74-3.18 1.26-4.48 2.27-1.95 1.5-3.64 3.33-5.44 5.02 2.18 1.94 4.12 5.14 6.57 5.58 6.45 1.17 12.7-.46 17.83-4.88 5-4.31 4.88-14.48-.51-17.95-7.34-4.73-15.46-7.34-24.12-4.36Zm-5.39-66.63c-5.47-.01-9.82 3.04-9.8 6.86.02 4.63 6.78 10.44 12.22 10.48 5.35.04 5.32-3.99 5.75-7.1.04-6.83-2.84-10.24-8.16-10.25Zm99.77 126.61c-4.99-3.04-10.9-4.73-16.59-6.39-7.03-2.04-12.65-.23-14.54 6.56-2.03 7.31-1.95 15.37-1.74 23.07.12 4.33 4.32 5.28 8.35 5.21 2.8-.05 5.61.41 8.41.37 2.05-.02 4.46.12 6.07-.85 4.27-2.58 8.54-5.37 12.12-8.8 2.09-2 2.84-5.38 4.78-9.32-2.38-3.59-3.83-8.02-6.86-9.86Zm-19.26 18.26c-.96.51-3.96-2.87-5.14-3.78.37-6.16 1.56-10.77 6.09-10.39 2.9.25 5.47 4.28 8.19 6.62-2.99 2.62-5.72 5.74-9.14 7.55Zm111.41 87.74c3.86-6.78 7.1-15.05 7.04-22.65-.08-9.29-8.02-14.27-17.41-14.42-3.59.64-7.16 1.51-10.78 1.84-1.89.17-4.32 0-5.73-1.05-6.82-5.08-14.54-5.56-21.85-.76-4.09 2.68-10.6 4.98-11.39 8.5-.83 3.72 3.9 8.63 6.08 13.09 2.58 5.29 7.09 7.8 12.45 9.58 5.95 1.98 11.91 4.12 17.53 6.87 6.97 3.41 21.13 4.18 24.08-1Zm-6.58-17.23c-1.28 4.42-10.47 7.54-14.56 5.4-2.97-1.55-6.23-2.55-9.34-3.82-1.94-.79-4.2-1.27-5.68-2.59-1.23-1.1-2.21-3.3-2.03-4.87.12-1.04 2.36-2.28 3.84-2.64 3.71-.89 7.54-1.34 12.37-2.13 4.28 2.05 9.51 4.44 14.57 7.14.73.39 1.13 2.47.83 3.52Zm-13.81 136.79c1.98 1.33 4.41 2 5.78 2.58 4.7-.48 8.7-1.05 8.12-5.7-.27-2.19-3.27-5.89-4.69-5.74-3.96.42-9.5-.88-10.98 4.99-.28 1.11.74 3.17 1.78 3.87ZM115.78 402.37c3.27-.43 7.42-.41 7.77-5.17.3-4.13-4.08-7.86-8.56-7.47-3.44.3-5.89 1.81-5.77 5.76.14 4.74 2.47 7.42 6.57 6.88Zm166.06 112.57c3.09.05 6.18 0 9.41 0 1.14 1.9 1.68 4.04 3 4.77 5.22 2.9 13.53.57 17.06-4.39 6.61-9.3 7.03-17.52 1-26.98-5.53-8.67-12.22-15.26-23.83-11.19-.71.25-1.53.21-2.3.28-6.55.62-8.94 2.87-8.22 7.75.71 4.85 3.96 6.64 9.96 5.63 4.61-.77 9.33-1.7 12.55 3.12 1.06 1.59 3.19 4.09 2.73 4.79-1.83 2.78-4.49 5.01-6.84 7.45-1.46-1.78-3.2-3.39-4.33-5.36-2.53-4.36-6.23-5.64-10.83-4.48-4.79 1.2-8.37 6.71-7.77 11.59.61 4.93 3.75 6.93 8.41 7.01Zm53.28-76.32c3.91-.64 6.18-1.03 8.46-1.38 2.46-.38 4.91-.92 7.39-1.03 6.9-.31 9.19-4.3 5.77-10.31-3.06-5.38-10.37-7.62-15.56-4.86-2.33 1.24-5.37 1.76-7.01 3.58-2.39 2.65-4.75 6.05-5.21 9.39-.19 1.4 4.54 3.46 6.16 4.6Zm-7.7-201.56c-3.62.12-5.18 3.13-5.32 7.22-.15 4.13 5.75 8.14 11.95 8.19 3.51.03 6.11-1.27 6.17-5.22.06-4.58-6.41-10.1-12.8-10.19ZM330.09 358c.21-4.02-5.01-8.4-9.7-8.19-4.55.2-6.43 3.42-6.81 7.3-.4 4.03 3.71 6.98 8.95 6.96 4.21.07 7.32-1.39 7.56-6.07Zm-30.34-51.72c-.34 4.07 1.87 7.8 5.42 7.4 4.91-.56 9.59-3.29 14.31-5.23.32-.13.24-1.44.2-2.19-.29-5.17-4.77-9.39-9.91-9.37-4.94.02-9.61 4.37-10.03 9.4Zm18.76 143.18c.25-4.56-6.32-10.92-11.65-11.11-5.7-.2-5.63 4.1-6 7.43-.27 6.69 2.15 9.7 7.53 9.98 5.8.3 9.89-2.24 10.11-6.29ZM76.33 70.06c3.85-.51 9.12-.13 9.09-6.53-.02-4.73-6.58-10.99-11.85-10.83-5.91.19-5.26 5.04-5.81 8.32.01 6.16 3.25 9.75 8.57 9.04Zm-2.78 40.04c5.14 3.7 11.14 5.42 14.15 12.39 1.07 2.48 8.72 2.85 13.37 2.86 6.03.01 13.9-6.89 15.09-11.97 1.3-5.55-2.26-12.69-8.17-16.66-1.57-1.06-3.38-2.18-4.29-3.74-4.44-7.54-11.84-8.61-18.36-9.4-8.08-.05-10.96 2.51-11.8 9.35-.21 1.67-.22 3.98-1.27 4.82-6.13 4.94-2.71 9.48 1.29 12.35Zm13.49-9.06c.14-1.85 2.8-3.5 4.3-5.24 2.76 3.46 5.97 6.68 7.96 10.54.45.88-3.3 3.93-4.25 5-6.1.05-8.53-3.47-8-10.3ZM76.29 356.41c-.3-4.8-4.59-8.15-9.69-7.93-4.84.2-7.72 3.13-6.92 8.56.8 5.44 2.56 10.78 4.33 16.02 4.43 13.11 12.53 15.09 26.89 16.91 1.65-.34 4.54-.7 7.27-1.57 4.41-1.4 7.93-4.2 7.02-9.23-.83-4.62-4.92-6.33-9.22-6.51-3.65-.16-7.32.38-10.98.64-7.25.52-9.8-2.04-9.27-9.37.18-2.5.73-5.02.58-7.5Zm121.09-250.42c2.25-.81 5.37.19 7.19-1 1.65-1.08 2.72-4.03 2.78-6.18.03-1.15-2.45-2.77-4.1-3.5-7.6-3.34-14.87-.03-21.93 1.98-8.84 2.52-11.05 7.8-8.2 16.22.29.85.18 1.89.05 2.82-1.17 7.94.67 11.24 8.11 14.05 4.52 1.71 9.06 3.4 13.68 4.81 5.97 1.83 12.14 3.53 16.47-3.1 1.45-2.22 2.23-4.88 3.31-7.34-2.34-1.02-4.68-2.03-7.02-3.05-.32.73-.64 1.46-.96 2.2-4.81-2.11-9.88-3.81-14.32-6.53-1.91-1.17-4.01-5.98-3.45-6.55 2.22-2.21 5.35-3.74 8.39-4.84Zm28.81 9.71c5.01.19 9.26-3.79 9.22-7.84-.32-4.81-1.72-8.16-6.81-8.19-4.76-.03-8.94 3.85-8.51 8.38.35 3.65 1.26 7.48 6.1 7.66Zm34.26 7.32c-2.86-.61-6.39-2.3-7.33 1.45-.59 2.36.89 6.19 2.76 8.02 3.57 3.51 8.3 6.63 13.53 3.85 5.91-3.13 9.4-8.43 9.84-14.44.15-7.61-3.95-12.74-11.38-15.11-3.39-1.08-7.19-2.24-9.35 1.59-2.59 4.58 1.92 5.26 4.57 6.81.49.29 1.21.63 1.31 1.07.46 1.91 1.25 3.99.83 5.75-.17.72-3.24 1.33-4.78 1Zm-43.93 25.31c.17 3.54 1.58 7.06 2.66 10.51a31.69 31.69 0 0 0 2.78 6.31c3.24 5.59 6.18 11.44 10.12 16.5 2.96 3.81 7.56 4.06 12.19 1.98 2.77-1.24 5.74-2.19 8.72-2.76 7.91-1.51 13.38-9.56 11.67-17.43-1.47-6.81-3.91-13.51-10.07-16.97-8.07-4.53-16.86-7.78-22.87-10.48-11.52 0-15.62 3.83-15.21 12.33Zm15.93 2.16c6.75 1.06 11.66 2.39 14.05 8.02.89 2.11 2.51 3.97 3.13 6.14.39 1.36.04 3.54-.87 4.51-.97 1.04-3.36 1.91-4.5 1.41-3.63-1.59-7.5-3.31-10.26-6.02-2.28-2.24-3.66-5.83-4.34-9.06-.32-1.52 1.94-3.59 2.79-5ZM292.01 82c-2.67-4.2-6.33-5.53-10.94-4.31-4.53 1.2-8.07 6.4-7.68 11.1.4 4.86 3.22 7.29 7.99 7.45 3.28.11 6.57.02 10.04.02.93 1.88 1.27 3.83 2.42 4.64 3.7 2.63 13.09.97 16.13-2.51 7.52-8.61 8.53-17.36 3.15-27.31-6.44-11.91-11.23-14.42-24.18-12.69-1.53.2-3.08.23-4.62.41-4.63.55-7.15 2.97-6.29 7.81.8 4.55 3.65 6.58 8.31 5.94 2.67-.37 5.86-1.69 7.93-.71 3.51 1.66 6.31 4.81 9.4 7.34-2.29 2.74-4.57 5.48-6.86 8.22-1.62-1.78-3.53-3.39-4.8-5.39Zm83.66-69.14c4.09-.02 10.08-4.4 10.11-7.38.02-1.8-1.29-3.77-3.17-5.25h-12.28c-.95.9-1.6 2.2-1.72 4.14-.24 4.01 3.63 8.51 7.07 8.49ZM75.1 458.54c10.1 4.77 16.14-1.95 22.76-6.77 3.71-2.7 1.53-8.73-3.23-9.65-1.82-.35-3.87-.09-5.7.37-4.5 1.12-5.6-.61-4.84-4.83.36-1.99-.11-4.12-.15-6.19-.05-2.36-.91-6.18.11-6.79 2.17-1.29 5.52-1.64 8.04-1.01 2.38.6 4.67 2.64 6.4 4.58 3.63 4.08 8.15 5.7 13.36 5.92 5.62.24 7.77-1.79 7.92-7.43.3-11.04-11.26-20.49-22.5-18.5-4.92.87-9.87 1.63-14.83 2.09-11.14 1.04-18.1 9.79-16.41 20.82.64 4.18 1.1 8.38 1.64 12.58-1.19 10.55-.04 11.28 7.44 14.82ZM0 271v30.55c5.1 6.03 7.02 7.74 14.87 1.68 1.48-1.14 4.3-.99 6.41-.74 2.25.27 4.55 2.23 6.56 1.89 2.91-.49 7.52-1.91 7.97-3.77 1.05-4.32.81-9.39-.56-13.62-.45-1.37-6.15-1.78-9.25-1.32-2.67.4-4.92 3.26-7.62 3.94-3.47.87-7.43 1.48-10.79.66-3.85-.95-3.33-4.57-2.9-8.16.82-6.79-.75-10.26-4.7-11.12Zm23.17 125.73c2.38-1.16 5.23-1.36 7.86-2 5.19-1.27 9.26-3.6 10.48-9.47.35-1.69 1.83-3.49 3.29-4.55 9.5-6.87 5.8-15.5-1.62-20.08-2.96-1.82-6.41-3.32-8.56-5.87-4.07-4.84-9.22-6.02-14.97-6.3-7.24-.16-12.58 4.16-15.7 13.07-1.36 3.87-2.79 7.75-3.96 11.68v16.36c.07.1.12.22.19.32 5.62 8.08 13.12 11.64 22.99 6.83Zm-9.95-16.13c.45-3.73.87-7.55 2.09-11.05.71-2.04 2.95-3.56 5.39-6.31 5.29 3.7 9.98 6.3 13.77 9.86 2.33 2.19-1.28 6.91-5.68 8.12-3.69 1.01-7.27 2.41-10.95 3.47-1.16.33-3.09.62-3.6.02-.83-.98-1.18-2.75-1.02-4.1ZM36.4 244.17c5.2-3.52 4.26-10.64-1.24-13.82-3.51-2.03-6.96-4.29-10.7-5.79-4.92-1.97-10-3.91-15.19-4.69-3-.45-6.13.07-9.26.53v11.09c1.04-.6 2.44-1.14 3.88-1.98 4.09 2.4 8.3 4.6 12.12 7.35.66.48.28 4.13-.71 4.9-5.04 3.9-11.59 2.83-15.3-2.09v14.63c6.73-.43 13.53-.53 19.99-2.06 5.8-1.37 11.37-4.67 16.4-8.07Zm76.88 330.92c1.02 1.82 2.96 3.66 2.91 5.44-.16 5.63 3.5 8.91 7.41 10.88 4.33 2.17 6.16-2.67 8.32-5.42 5.34-6.78 3.58-18.06-3.4-22.68-5.08-3.36-22.1-.52-25.02 4.2-.3.48-.65 1.06-.65 1.59-.07 4.15-3.1 5.03-6.19 6.56-2.7 1.33-6.22 3.86-6.69 6.36-2.74 14.5 4.99 22.58 16.93 22.19 3.25-1 7.02-1.3 9.58-3.22 1.92-1.44 2.27-4.97 3.32-7.57-2.22-.59-4.48-1.08-6.65-1.81-2.37-.8-5.14-1.29-6.89-2.86-4.37-3.94-1.02-7.26 1.77-10.16 1.43-1.48 3.49-2.35 5.26-3.5ZM24.39 277.9c4.82-.01 9.32-3.6 9.52-7.61.16-3.26-7.76-10.71-10.95-9.41-3.21 1.31-9.22-.31-8.77 6.55.37 5.66 4.74 10.48 10.2 10.46ZM220.41 7.83c4.45-.55 4.68-4.22 5.19-7.59h-15.27l.18.66c1.41 4.97 4.92 7.55 9.9 6.94Zm-68.9 524.74c1.19.46 3.78-.1 4.28-1.01.77-1.38 1.03-4.18.16-5.08-1.85-1.93-4.57-3.02-6.5-4.2-4.4.97-7.89 1.41-11.15 2.51-7.2 2.44-10.7 8.41-9.04 14.76 1.23 4.71 11.89 12.12 16.44 10.82 1.93-.55 3.9-2.87 4.67-4.84.47-1.21-.87-4.15-2.16-4.81-3.01-1.54-5.06-3.07-3.49-6.63 1.51-3.44 3.97-2.62 6.79-1.52Zm36.75 67.12c-.19 2.47-.49 5.6.8 7.3 1.04 1.37 4.63 1.93 6.57 1.29 9.54-3.12 15.85-12.08 16.12-21.98.33-12.3-7.16-20.15-19.43-20.23-3.48-.02-7.08.86-10.39.2-2.9-.58-6.37-2.09-8.05-4.34-5.44-7.29-12.74-7.84-18.41-.69-3.11 3.92-2.66 11.23 1.07 14.99 4.34 4.37 6.69-.13 9.65-2.21 1.72-1.21 3.59-2.4 5.57-2.94 1.12-.31 2.95.35 3.86 1.2 4.77 4.45 9.19 9.28 14.04 13.64 4.5 4.04 4.86 5.75 1.02 10.62-.84 1.06-2.33 2.05-2.41 3.16Zm-7.17-50.7c4.51 1.74 9.03 3.53 13.68 4.8 5.64 1.54 11.74 4.17 16.09-2.51 1.55-2.38 2.59-5.1 3.87-7.66-2.44-1.12-4.88-2.24-7.32-3.37l-1.02 2.28c-4.64-2.06-9.55-3.7-13.81-6.37-1.96-1.22-4.2-5.94-3.64-6.52 2.17-2.27 5.27-3.87 8.29-5.02 2.03-.77 5.06.44 6.65-.67 1.83-1.28 3.25-4.05 3.49-6.32.12-1.09-2.71-2.89-4.51-3.71-7.64-3.46-14.88.14-21.88 2.22-8.82 2.63-10.91 7.86-7.93 15.86.31.84.29 1.88.17 2.79-1.05 8.24.61 11.38 7.89 14.19Zm-76.24-238.67c-11.6 7.51-7.71 18.69 1.39 24.11 3.62 2.16 7.31 4.52 10.19 7.53 11.54 12.03 27.39 9.86 34.55-5.12 1.57-3.28 2.36-6.93 3.53-10.4 1.04-3.08 1.79-6.31 3.24-9.18 6.11-12.09-3.1-27.11-19.19-27.09-6.09 1.61-14.61 3.39-22.74 6.3-2.73.98-4.53 4.74-6.57 7.38-1.6 2.08-2.4 5.17-4.42 6.48Zm13.74 3.63c6.22-1.9 12.44-3.79 18.64-5.73 3.74-1.17 7.17 1.59 5.6 5.3-2.51 5.95-4.29 11.64-3.76 18.29.14 1.73-4.12 3.82-5.43 4.94-10.4-.92-16.66-5.63-21.76-11.93-2.3-2.84 1.99-9.42 6.7-10.86ZM95.34 301.8c.38-1.83 1.29-6.32-3.46-6.43-3.77-.08-9.29 4.07-8.56 7.03.55 2.23 2.95 4 5.74 7.48 2.99-3.62 5.77-5.62 6.28-8.08Zm137.7-89.64c-2.86-.95-8.5-.94-9.27.56-2.81 5.48-5.71 11.78-5.59 17.71.22 10.38 10.28 17.55 20.83 17.47 3.6-.03 7.62.98 10.73 2.76 8.68 4.96 17.15 4.57 25.32-1.49 2.15-1.6 5.16-2.5 7.88-2.8 9.95-1.09 18.53-10.09 19.12-20.11-1.23-3.19-2.04-6.64-3.78-9.53-4.57-7.61-12.74-10.48-20.28-13.75-3.48-1.51-6.3 1.46-6.93 5.13-.89 5.21 1.99 7.81 6.88 8.88 5.25 1.15 7.66 4.92 6.73 10.14-.34 1.9-1.03 3.75-1.19 5.66-.37 4.25-2.89 5.12-6.43 4.26-2.05-.5-3.98-1.45-5.99-2.12-5.99-2-11.79-2.85-18.01 0-2.28 1.04-6.33.4-8.56-1.04-5.29-3.42-9.52-7.72-7.58-15.35.46-1.79-1.99-5.75-3.88-6.37Zm-72.93 295.46c4.05-.31 8.74-.74 11.82-3 3.21-2.35 6.99-6.34 4.09-11.39-1.81-3.16-13.56-5.38-16.68-3.4-3.09 1.95-5.73 4.25-2.92 8.47.69 1.04.69 2.54 1 3.83-.44.32-.88.65-1.32.97 1.34 1.59 2.79 4.61 4.01 4.52Zm38.53-299.93c-3.58-.75-7.31-1.17-10.68-2.49-13.98-5.48-24.67 1.74-24.18 16.76.15 4.78 1.04 9.54 1.37 12.38-.36 6.97-.19 11.9 5.17 14.36 6.31 2.89 12.69 6.23 19.38.6 3.24-2.73 6.69-5.22 10.07-7.8 3.72-2.84 6.28-6.05 5.37-11.29-.32-1.84.66-4.13 1.58-5.94 4.34-8.63 1.5-14.56-8.08-16.57Zm-11.25 27.55c-1.45 1.79-5.68 2.4-8.24 1.79-1.44-.35-2.03-4.25-3.01-6.56.51-.19 1.02-.39 1.53-.58-.75-2.31-1.42-4.66-2.25-6.94-1.75-4.79.16-7.45 5.29-7.22.57.03 1.14.15 1.72.22 4.78.61 11.37.84 11.67 6.13.24 4.31-3.6 9.33-6.71 13.16Zm161.59 83.16c3.46-.77 5.7-2.54 4.32-5.93-.93-2.28-3.5-3.9-6.23-6.75-5.51 3.91-10.33 6.95-14.71 10.52-5.93 4.84-8.27 12.52-4.76 18.22 3.1 5.05 10.18 9.29 16.16 10.44 5.18.99 11.46-2.47 16.88-4.81 2.11-.91 3.83-3.95 4.57-6.37.54-1.78-.14-5.06-1.47-6.01-1.83-1.32-4.79-1.35-7.26-1.37-1.13 0-2.4 2.12-3.37 1.95-2.54-.44-6.05-.92-7.16-2.67-1.69-2.66-1.05-6.31 3.03-7.22Zm-193.41 57.36c1.48.54 2.94 3.36 2.97 5.17.07 4.54 2.32 6.86 6.35 6.3 2.83-.4 6.62-1.9 7.85-4.1 2.14-3.83 2.53-8.56-1.22-12.35-1.05-1.06-2.6-2.09-2.87-3.36-1.42-6.71-6.3-8.18-11.83-8.56-8.28.78-21.05 5.11-25 13.97-4.66 10.43-4.41 19.32 5.24 23.47 5.12 2.2 11.92 1.03 17.86.4 1.42-.15 3.14-4.12 3.34-6.45.1-1.14-2.91-2.68-4.66-3.79-2.39-1.51-5.69-2.25-7.15-4.34-1.1-1.57.07-4.73.23-7.19 2.99.2 6.19-.16 8.89.83Zm157.52-98.59c-.25 2.32-.9 5.46.27 6.86 1.65 1.98 4.82 2.68 5.87 3.21 7.37.34 12.4-4.85 13.47-11.97.9-6.04-3.04-12.66-8.7-13.86-3.04-.65-6.27-.43-9.42-.61.02 3.5.23 7.01-.01 10.5-.14 1.98-1.26 3.88-1.48 5.87Z"/><path class="cls-2" d="M263.33 205.85c1.3-3.03 1.41-5.62-3.09-6.13-2.4-.27-4.83-1.11-7.02-2.15-5.89-2.78-12.38 1.19-12.39 9.66.67.93 1.8 3.86 3.92 5.15 5.03 3.04 16.24-1.13 18.57-6.54Zm102.73 50.6c-8.51-6.08-15.82-4.61-21.21 3.95-6.22 9.87-4.16 20.35-1.86 30.88 1.76 8.05 8.04 10.72 14.59 13.39 6.15 2.5 12.2 5.23 18.3 7.86.07-.5.15-1 .22-1.5 13.12 2.04 16.8-9.42 23.77-16.13 1.06-1.02 2.11-2.28 2.54-3.63.46-1.41.68-3.28.12-4.56-2.9-6.61-6.05-13.12-9.18-19.63-.88-1.84-1.75-3.77-3.04-5.31-1.7-2.03-3.59-4.85-5.8-5.28-3.41-.68-7.31-.15-10.72.86-2.98.88-4.88 1.16-7.74-.89Zm17.79 31.23c-6.14 7.63-12.6 9.3-20.32 5.27-5.74-3-10.43-15.36-7.12-20.78 1.35-2.21 5.12-2.94 8.34-4.64 5.47 1.63 10.62 2.71 15.4 4.7 8.1 3.36 9.19 8.62 3.7 15.44Zm1.57-58.78c-3.6.45-7.58 2.59-10.04 5.27-1.16 1.27-.02 6.14 1.61 8.11 2.24 2.7 5.94 4.19 9.01 6.2 7.84-1.22 9.28-3.17 7.35-10.01-.42-1.49-.25-3.45-1.17-4.43-1.99-2.11-4.72-5.41-6.77-5.15Zm24.1-16.42c.26-.06.52-.09.79-.11v-16.86c-2.44-.45-4.87-.85-7.31-.83-3.24.03-6.68 1.06-9.58 2.53-1.02.51-1.6 4.11-.87 5.51 3.49 6.72 8.28 11.65 16.97 9.77ZM333.25 34.44c-6.08 2.37-7.17 8.9-2.68 13.65 2.79 2.95 5.77 5.73 8.54 8.69 7.9 8.45 18.45 10.39 29.16 11.81 1.61.21 3.45-.37 5.03-.99 9.75-3.86 6.71-13.6 9.31-20.74.55-1.52.63-3.6.02-5.03-.6-1.42-2.24-2.51-3.62-3.49-9.21-6.55-20.39-4.92-31.23-7.98-4.6 1.25-9.75 2.21-14.55 4.08Zm17.29 10.27c1.04-1.65 4-2.09 6.15-3.04 6.26.25 9.16 3.96 10.61 8.9.5 1.71.11 4.63-1.05 5.61-1.23 1.04-4.23 1.18-5.79.38-2.84-1.44-5.49-3.59-7.64-5.97-1.39-1.54-2.98-4.78-2.29-5.88ZM326.81 97.8v1.53c.02 8.72 13.73 23.39 22.45 23.5 2.73.04 6.07-.77 8.09-2.45 5.13-4.27 10.04-8.95 14.34-14.05 3.59-4.25 4.37-9.89 1.41-14.69-1.54-2.5-5.1-4.73-8.04-5.18-3.94-.6-6.04 2.7-6.64 6.59-.21 1.33-.14 2.98-.9 3.91-1.8 2.22-4.46 6.04-5.99 5.7-3.06-.68-6.37-3.21-8.16-5.92-2.03-3.08-.25-6.34 3.04-8.25 1.84-1.07 4.47-1.56 5.46-3.12 1.5-2.37 2.99-5.73 2.39-8.14-.45-1.79-4.53-4.22-6.49-3.83-15.03 3.03-22.6 8.83-20.97 24.4Zm31.65 500.56c-3.37-4.77-7.44-6.24-12.95-4.07-5.51 2.16-9.4 7.03-8.5 11.15.42 1.95 1.22 3.17 2.26 3.93h29.33c-.96-1.26-2.6-3.5-4.46-5.56-1.76-1.94-4.18-3.34-5.67-5.44Zm-11.67-19.49c4.91.08 9.36-3.99 9.1-8.48-.25-4.31-1.96-7.48-6.22-7.64-5.4.05-9.47 3.95-9.03 8.54.35 3.67 1.12 7.5 6.15 7.58Zm24.78-53.65c3.73-4.45 4.52-10.25 1.38-15.21-1.55-2.45-5.46-4.79-8.2-4.67-2.18.09-4.39 3.84-6.19 6.26-.84 1.13-.27 3.34-1.15 4.39-1.82 2.16-4.48 5.65-6.26 5.36-2.87-.48-6.06-3.08-7.74-5.68-1.97-3.05-.49-6.39 2.83-8.35 1.83-1.08 4.51-1.56 5.45-3.13 1.53-2.55 2.97-5.97 2.46-8.64-.31-1.6-4.47-3.65-6.76-3.48-13.74.99-21.21 9.73-20.65 24.69-.81 5.35.57 10.98 6.79 14.72 2.06 1.24 3.94 2.93 5.53 4.75 5.22 5.99 12.35 7.49 18.59 2.66 5.12-3.95 9.76-8.69 13.93-13.66Zm7.76-68.19c-9.36-6.37-20.45-4.86-31.42-8.02-4.66 1.28-9.99 2.3-14.96 4.23-5.51 2.15-6.98 8.72-2.96 12.88 9.06 9.38 17.72 19.3 32.32 20.28 5.06.34 9.54 1.94 13.92-2.5 3.77-3.82 7.14-7.02 4.49-12.94-.45-1.02.56-2.89 1.25-4.18 2.25-4.16 1.37-7.03-2.64-9.76Zm-17.71 18.6c-3.25-1.36-6.21-3.78-8.75-6.29-1.46-1.44-3.05-4.73-2.37-5.89.97-1.66 3.97-2.12 4.66-2.44 7.5.18 11.56 3.66 12.5 9.25.73 4.31-1.99 7.06-6.04 5.36ZM78.88 344.31c-.34 1.3 1.25 3.31 2.36 4.7 1.16 1.46 2.84 2.5 4.19 3.82 5.46 5.34 10.75 10.86 16.36 16.03 2.51 2.31 6 3.04 7.88-.63 3.99-7.79.59-17.7-5.8-20.71-6.33-2.97-13.13-4.95-20.14-7.51-2.2 1.82-4.48 2.81-4.86 4.29ZM42.46 218.72c1.81-.57 2.73-4.33 3.82-6.77.9-2.03 1.11-4.42 2.22-6.3 3.7-6.29 1.48-11.52-5.69-12.88-7.33-1.39-13.71 5.26-14.62 14.75 1.75 3.32 2.85 7.37 5.48 9.72 1.95 1.75 6.18 2.3 8.8 1.48Zm-21.05 98.91c-6.1 9.18-.56 19.8 10.5 20.55 3.2.22 6.48.68 9.52 1.66 16.37 5.3 32.4-3.56 35.07-19.55 1.24-7.44-12.73-23.86-21.79-23.83-1.56.49-4.77.94-7.36 2.45-7.28 4.25-14.37 8.83-21.36 13.54-1.86 1.25-3.31 3.28-4.58 5.19Zm16.26-2.15c4.88-2.47 10.27-4.4 15.67-5.25 5.24-.82 8.7 2.88 8.71 7.77 0 1.08-.22 2.74-.91 3.14-4.74 2.71-9.63 5.15-13.44 7.14-3.67-.66-5.91-.66-7.79-1.5-2.25-1.01-5.81-2.67-5.87-4.17-.09-2.41 1.61-6.1 3.64-7.13Zm7.87 117.72c1.17.74 5.48-1.1 6.37-2.82 2.35-4.52 3.6-9.6 4.47-12.08-.06-8.56-6.73-17.06-12.66-17.43-2.35-.15-5.71 2.13-7.08 4.28-1.2 1.88-1.19 6.89-.08 7.48 6.19 3.32 6.17 7.67 4.65 13.62-.5 1.94 2.16 5.58 4.32 6.94ZM7.6 115.16c-.25 4.43 4.03 7.71 10.19 7.82 4.7.08 12.98-6.13 11.25-8.49-2.9-3.96-7.38-7.49-11.94-9.28-4.16-1.63-9.19 4.39-9.5 9.95ZM328.77 15.09c2.29 2.37 6.34 3.84 9.75 4.11 4.1.32 8.31-1.34 12.51-1.62 6.88-.46 9.59-4.69 5.53-10.25-2.21-3.02-6.08-4.82-9.24-7.09h-.71c-4.33 2.06-7.57 3.78-10.95 5.11-4.11 1.61-8.91 7.65-6.88 9.75ZM105.11 464.22c-4.93 3.94-7.17 10.85-4.99 15.37 2.3 4.76 8.14 5.61 12 2.12 1.86-1.68 4.51-2.46 6.66-3.87 2.6-1.72 5.04-3.68 8.1-5.94-2.47-4.02-3.66-7.22-5.88-9.32-3.84-3.62-10.51-2.63-15.87 1.65Zm-81.54-26.07c5.56 1.61 10.38.16 11.85-4.01 1.69-4.78-2.52-6.64-5.18-9.21-1.3-1.26-2.52-2.61-3.77-3.92l1.87-1.78c-1.44-1.5-2.62-3.78-4.36-4.37-5.16-1.72-11.08 2.91-11.31 8.35-.32 7.66 3.41 12.77 10.91 14.94ZM7.58 533.94c-.16 4.25 3.78 7.37 9.73 7.69 5.01.27 13.42-5.69 11.71-8.61-2.46-4.21-7.04-7.18-10.71-10.67-5.86 1.07-10.52 6.13-10.72 11.59Zm40.52-12.39c-.7.3-1.59.4-2.09.9-1.64 1.65-4.78 4.24-4.39 5.02 1.16 2.36 3.7 4.04 5.71 5.98l.99-.96c.95-.14 1.91-.2 2.83-.42 4.97-1.17 8.28-4.99 6.75-8.26-2.15-4.61-5.97-3.89-9.8-2.26Zm4.88-420.39c-3.17 1.13-5.65 1.68-7.76 2.88-1.61.92-4.03 2.92-3.83 4 .36 1.91 2.43 4.88 3.84 4.92 3.58.09 7.41-.71 10.68-2.18 1.29-.58 2.26-4.19 1.72-5.89-.52-1.65-3.17-2.63-4.65-3.74Zm193.9-22.81c-.15 3.5.09 7.25 4.75 7.92 7.41 1.05 13.92-1.92 14.87-6.61.98-4.8-3.71-9.85-9.4-10.14-5.29-.27-10 3.62-10.22 8.83Zm13.29-37.82c6.56 4.12 13.76 6.2 21.56 3.87 4.42-1.32 9.97-2.44 9.26-8.45-.76-6.46-6.69-4.96-11.12-5.33-2.62-.22-5.24-.46-7.87-.69-.1-.81-.19-1.61-.29-2.42 3.26-1.16 6.79-1.86 9.69-3.61 2.52-1.52 4.32-4.24 6.44-6.42-2.67-1.96-5.21-5.34-8.03-5.6-8.82-.81-16.9 1.74-22.59 9.17-4.7 6.14-3.42 15.49 2.95 19.49Zm-34.68-.2c-5.78 1.88-10.81 2.88-16.09-1.96-1.91-1.75-7.82-2.22-9.43-.68-5.41 5.17-9.9 11.36-14.24 17.52-.77 1.09.26 4.41 1.49 5.75 3.34 3.63 3.98 7.7 3.76 12.33-.31 6.47 2.77 11.29 7.88 12.64 5.72 1.52 8.41-2.63 11.22-6.34.81-1.06 1.39-2.33 1.92-3.56 1.72-4.01 1.71-7.39-2.86-9.77-1.24-.64-2.69-3.04-2.37-4.16 2.98-10.4 20.35-14.23 28.19-6.05-4.41 3.23-9.09 5.73-12.52 9.39-4.96 5.29-1.27 14.23 5.93 15.52 3.49.62 6.74-.4 7.06-4.14.55-6.64 4.52-10.85 8.88-15.05 4.04-3.89 4.44-8.14 1.73-13.12-5.03-9.23-10.29-11.64-20.55-8.31ZM25.79 575.19c5.74 2.66 10.95.22 13.56-6.35 2.12-5.34 11.04-11.43 16.85-11.08 4.22.26 8.39 1.31 12.62 1.68 4.66.4 7.87-1.88 9.11-6.37 1.34-4.85-1.83-7.56-5.7-8.64-5.53-1.54-11.32-2.15-17-3.16-16.02-1.63-25.72 7.16-33.1 19.53-3.46 5.79-1.53 11.98 3.67 14.38ZM325.56.23H305.1c2.86 1.08 5.71 2.16 8.57 3.24 5.73-.47 9.39-1.3 11.89-3.24ZM18.52 66.31c4.07 1.3 8.25-2.15 9.38-7.34.2-.94-.03-2.02.34-2.86 1.66-3.79 3.47-7.51 5.23-11.26 2.71 1.49 5.4 3.01 8.13 4.46 1.19.63 2.71.86 3.62 1.74 1.27 1.24 2.72 2.82 3.01 4.45.91 5.08-1.87 8.54-7.61 9.65-4.62.89-8.59 1.98-11.8 6.24-3.14 4.16-2.33 7.73-.27 11.19 1.42 2.37 4.88 5.88 6.32 5.41 3.45-1.11 6.3-4.19 9.25-6.64.64-.53.46-1.99 1.06-2.64 1.96-2.1 3.77-4.89 6.25-5.86 7.36-2.9 10.61-7.04 10.68-15.73-.06-.7 0-1.89-.26-3.01-1.74-7.51-2.76-15.8-11.75-18.28-4.12-1.14-6.29-2.7-6.81-7.02-.61-5.09-3.74-6.36-8.36-4.45-6.47 2.67-12 6.57-14.7 13.22-2.45 6.06-4.74 12.27-6.12 18.63-.81 3.75-.62 8.49 4.41 10.1Zm112.35-55.35c.49 1.84.19 4.33-.7 6.03-2.26 4.33-1.17 7.78 1.77 11.12 5.55 6.3 12.55 10.13 20.55 12.42 1.75.5 3.79 1.24 4.89 2.55 2.97 3.53 6.42 3.7 9.79 1.48 3.32-2.19 6.01-5.31 9.21-7.71 1.74-1.31 3.97-2.79 5.97-2.79 11.91.04 17.73-5.14 17.8-16.41.04-7.02-1.88-12.88-5.58-17.41h-24.94c6.26 2.07 11.98 7.22 13.06 13.13.25 1.38-.06 3.18-.79 4.36-4.15 6.69-21.38 12.72-28.52 9.32-2.82-1.34-4.44-5.23-6.61-7.96 1.68-10.63 5.05-16.18 12.1-18.85h-27.26c-1.45 3-1.8 6.73-.74 10.72Zm-107.3 8.52c5.53 1.61 10.41.16 11.87-4 1.68-4.77-2.54-6.63-5.18-9.22-1.36-1.34-2.58-2.82-3.87-4.24.64-.58 1.28-1.15 1.92-1.73-.01-.02-.03-.03-.04-.05H14.08c-.77 1.13-1.27 2.4-1.38 3.72-.67 7.77 3.2 13.3 10.87 15.53Zm21.88-4.98c1.15.75 5.47-1.02 6.39-2.73 1.95-3.59 3.13-7.6 4.43-11.54H41.88c.4 2.12.04 4.52-.67 7.27-.51 1.96 2.09 5.6 4.24 7Zm20.56-2.06c.64 4.18 1.11 8.38 1.66 12.57-1.17 10.19.2 11.54 6.27 14.55 9.97 4.95 16.57-.88 23.47-6.04 1.29-.97 2.21-3.92 1.71-5.43-.61-1.86-2.63-3.8-4.51-4.53-1.76-.68-4.16-.03-6.21.39-3.8.77-4.93-.67-4.42-4.35.3-2.21-.06-4.51-.02-6.77.04-2.5-.68-6.48.49-7.18 2.13-1.27 5.59-1.2 8.17-.51 2.2.59 3.79 3.17 5.95 4.29 4.31 2.24 8.65 4.92 13.3 5.88 5.44 1.13 7.74-1.6 7.89-7.21.08-2.79-.58-5.46-1.8-7.87H68.11c-1.99 3.4-2.82 7.59-2.12 12.2Zm-39.87 144.2c4.96 2.02 10.37.23 12.43-4.11 5.61-11.8 12.39-15.25 24.95-12.67 1.32.27 2.63.65 3.97.83 5.03.66 8.96-1 10.39-6.1 1.53-5.45-2.23-8.01-6.56-9.14-5.19-1.34-10.6-1.85-15.91-2.72-.03.14-.06.29-.1.43-2.89.16-5.79.26-8.68.48-13.12.98-19.84 10.21-25.29 20.44-2.69 5.06 0 10.6 4.81 12.56ZM5.71 185.43c1.79 2.58 3.93 5.35 6.58 6.78 4.87 2.62 8.34-.82 11.45-4.16 3.2-3.43.35-5.87-1.39-8.6-5.32-8.38-13.63-10.9-22.35-12.64v11.76c2.65 1.37 3.95 4.31 5.71 6.85Zm8.27 154.59c3.49-5.27.97-15.41-4.62-18.39-3.1-1.65-6.23-3.26-9.35-4.86v24.04c3.82 5.22 10.13 5.03 13.98-.79ZM12.7 203.48c.45-1.17-.9-4.3-1.94-4.57-3.52-.93-7.14-1.45-10.77-1.99v15.26c5.41-.93 10.39-2.67 12.7-8.7ZM4.71 440.3c2.86-3.27 2.46-10.32-.8-11.21-1.1-.3-2.48.4-3.91 1.3v14.34c1.67-1.39 3.3-2.81 4.71-4.43Zm-1.86-15.53c2.1-.71 5.03-2.45 5.39-4.21 1.75-8.38-1.1-14.26-8.24-17.99v22.31c1.01.14 1.98.18 2.85-.11ZM6.68 565.7c1.64-1.72 2.5-5.99 1.52-8.08-2.4-5.08-5.3-9.92-8.2-14.76v27.31c2.45-1.28 4.88-2.58 6.68-4.48ZM5.6 604.2c1.68 1.56 3.05 3.61 4.68 5.17h10.81c.93-.8 1.81-1.72 2.67-2.64 3.21-3.44.3-5.85-1.42-8.59-5.3-8.42-13.62-10.9-22.33-12.66v13.84c1.9 1.59 3.78 3.19 5.6 4.87ZM0 501.79v16.92c4.39-1.27 8.78-2.53 13.15-3.87 4.06-1.24 5.88-3.79 6.7-8.3 1.6-8.78-3.08-13.73-9.03-18.5-2.55-2.04-5.43-4.4-7.99-1.42-1.59 1.85-2.28 5.66-1.57 8.07 1.58 5.43 2.12 6.47-1.24 7.09Zm2.85-34.11c3.5-.38 5.88-2.28 5.14-6.13-.68-3.54-2.44-6.05-6.82-4.84-.38.1-.77.16-1.16.19v10.78c.96.08 1.91.11 2.85 0ZM4.72 21.63c2.87-3.29 2.47-10.31-.81-11.21-1.1-.3-2.48.4-3.91 1.3v14.35c1.67-1.4 3.31-2.82 4.72-4.44ZM180.6 604.16c.19-6.82-5.5-7.17-9.95-8.39-3.73-1.02-6.12-2.4-5.28-5.81.93-5.32-.54-8.43-4.89-10.08-4.67-1.77-7.88.21-10.38 3.89-3.32 4.88-3.08 10.13.08 13.89 1.92 2.29 3.99 4.74 4.96 7.48.57 1.63 1.25 3.03 2.04 4.22h21.15c1.4-1.51 2.22-3.29 2.28-5.2Zm-45.86-.47c-4.83-.05-8.91 2.43-9.71 5.67h17.28c-1.05-3.75-3.63-5.63-7.58-5.67ZM6.66 147.02c1.64-1.73 2.51-5.99 1.53-8.08-2.39-5.07-5.29-9.9-8.19-14.73v27.3c2.44-1.29 4.86-2.59 6.66-4.49Zm53.47 462.01c-.14.1-.29.21-.44.34h9.99c-2.51-3.33-6.59-2.43-9.55-.34Zm171-601.39c-1.91 1.12-2.79 5.2-2.77 7.92 0 1.36 2.95 3.65 4.78 3.89 9.9 1.3 21.33-9.09 22.04-19.22h-16.6c-.87 3.31-3.81 5.28-7.44 7.41ZM2.85 49.02c3.48-.41 5.89-2.29 5.13-6.15-.69-3.53-2.43-6.06-6.82-4.83-.38.11-.77.17-1.16.2v10.78c.96.08 1.91.11 2.85 0ZM0 83.12v16.94c4.39-1.27 8.78-2.54 13.15-3.87 4.08-1.25 5.87-3.83 6.7-8.32 1.61-8.78-3.12-13.73-9.03-18.52-2.54-2.06-5.46-4.37-8-1.39-1.59 1.86-2.27 5.67-1.57 8.08 1.57 5.41 2.11 6.44-1.25 7.08Zm70.68 484.83c-2.04.1-4.21.81-6.03 1.78-6.11 3.26-12.1 6.74-18.12 10.17-3.7 2.11-4.42 5.07-2.49 8.83 2.53 4.93 6.62 7.48 12.03 7.8 5.54.33 10.29-1.25 13.42-6.29.99-1.59 2.4-2.91 3.5-4.44 2.21-3.1 4.33-6.26 6.49-9.39-1.18-6.64-3.11-8.73-8.81-8.46ZM2.85 6.11c2.1-.71 5.02-2.45 5.39-4.21.12-.57.22-1.12.29-1.66H0v5.99c1.01.14 1.99.18 2.85-.11ZM18.89 485.1c4.27.72 8.06-2.53 9.07-7.84.18-.94-.08-2.05.31-2.87 1.76-3.73 3.68-7.38 5.54-11.05 2.54 1.51 5.06 3.06 7.64 4.52 1.17.66 2.72.88 3.59 1.78 1.35 1.4 2.97 3.12 3.22 4.89.73 5.11-2.04 8.31-8 9.35-4.72.82-8.56 2.27-11.67 6.47-3.11 4.2-1.95 7.84.15 11.21 1.44 2.3 4.9 5.55 6.5 5.08 3.29-.95 6.02-4.01 8.79-6.43.76-.67.55-2.37 1.27-3.17 1.81-2 3.58-4.56 5.92-5.47 7.7-2.99 10.93-7.21 11.91-16.09-1.94-5.18-3.38-10.62-6.02-15.42-1.38-2.52-4.6-4.88-7.42-5.56-4.1-.99-5.67-2.91-6.41-6.82-1.05-5.57-3.49-6.73-8.72-4.53-6.43 2.71-11.89 6.73-14.53 13.43-2.33 5.9-4.32 11.97-6.02 18.08-1.26 4.5 1.55 9.87 4.86 10.43Zm301.84-352.06c-6.98-4.87-12.81-4.78-17.14.28-5.06 5.92-4.47 12.33 1.13 18.54 1.39 1.53 2.65 5.3 1.83 6.31-2.62 3.23-6.87 8.35-9.33 7.77-4.14-.97-7.5-5.64-10.9-9.06-.44-.44.74-2.76 1.49-4.01.68-1.14 2.44-1.92 2.6-3.01.38-2.69.82-5.8-.21-8.08-.49-1.1-4.52-1.49-6.52-.86-7.81 2.48-12.64 9.61-12.59 17.59.06 8.83 2.56 12.28 11.1 14.39 3.54.87 5.69 2.35 6.89 6.03.52 1.61 3.26 3.33 5.14 3.52 11.09 1.12 24.56-9.58 26.68-20.49.53-2.73 1.59-5.6 3.21-7.82 6.28-8.63 5.38-14.97-3.39-21.09Zm26.21 27.16c4.96-.07 9.28-4.11 8.94-8.63-.32-4.32-2.09-7.45-6.5-7.49-5.27.17-9.27 4.15-8.75 8.71.42 3.64 1.2 7.48 6.3 7.41Zm11.5 19.43c-3.35-4.73-7.49-6.19-12.98-4-5.51 2.2-9.4 7.1-8.46 11.18 1.4 6.08 6.54 4.58 10.79 5.27 2.02.33 5.17 1.95 5.42 3.39.92 5.36 3.57 8.46 8.88 7.64 5.31-.82 6.69-5.23 6.76-12.12-.92-1.15-2.72-3.63-4.76-5.89-1.76-1.94-4.16-3.37-5.65-5.47Z"/><path class="cls-2" d="M358.52 210.7c-2.96 3.94-6.24 4.55-10.61 3.18-3.3-1.03-6.71-1.87-10.13-2.32-8.39-1.09-12.51-7.84-9.35-15.82.63-1.6 2.34-3.01 2.39-4.55.09-2.62.09-6.02-1.43-7.68-1.15-1.26-5.34-1.33-7.08-.21-7.27 4.67-12.4 11.03-12.52 22.59.17 4.3 2.02 10.13 7.02 14.85 6.45 6.07 13.78 7.16 22.03 4.84 5.51-1.55 10.86-2.62 15.35 2.88 1.11 1.36 4.32 1.81 6.36 1.47 8.96-1.5 12.9-11.2 7.85-18.71-3.28-4.88-6.31-5.25-9.89-.5ZM175.86 74.51c-4.97-1.62-10.16-3.84-15.17-3.6-3.94.19-7.33 3.71-4.17 8.95.63 1.04.81 2.68.53 3.9-1.13 5.05 2.08 5.47 5 5.62 7.38.04 12.75-3.75 14.53-10.21.4-1.45-.01-4.43-.72-4.66ZM408.43.23c.66.21 1.3.51 1.8.86.02.02.05.04.07.06V.23h-1.87ZM208.57 263.4c-.14 1.75 1.74 3.95 3.24 5.45 1.55 1.55 3.71 2.5 6.77 4.45-2.74 1.74-4.19 3.2-5.91 3.68-6.43 1.79-9.99 5.61-9.57 12.48.12 1.96.05 4.89 1.19 5.6 1.58 1 4.89 1.27 6.29.25 8.67-6.33 17.28-12.8 25.25-19.95 1.84-1.65 2.56-6.84 1.38-9.19-4.21-8.36-16.18-11.88-24.63-7.75-1.8.88-3.85 3.19-3.99 4.99ZM315.3 106.8c-4.7 3.59-8.76 5.44-10.72 8.6-1.45 2.33 4.24 5.87 9.1 5.5 3.47-.26 7.04-1.22 6.46-5.53-.33-2.44-2.52-4.62-4.83-8.57Zm-9.56-87.16c-4.72.25-4.72 4.43-4.88 8.31-.24 6.01 2.44 9.03 7.84 9.15 6.03.13 9.8-2.4 9.83-6.59.04-4.62-6.75-10.79-12.79-10.87Zm86.76 373.3c1.17-2.81.6-4.85-2.27-5.26-7.01-.99-14.09-1.49-21.12-2.33-2.24-.27-4.67-.52-6.59-1.55-4.5-2.42-8.41-.69-11.83 1.69-1.39.96-2.44 4.35-1.83 5.93 3.46 8.96 9.5 12.29 19.05 11.32 1.53-.16 3.08-.18 3.57-.21 10.7.79 18.27-3 21.02-9.59Zm-172.22 77.63c5.43-.87 10.68-.7 15.47 4.54-2.76 1.4-5.02 2.3-7 3.62-2.22 1.48-4.52 3.07-6.21 5.09-4.88 5.8-1.33 15.14 6.15 15.66 2.17.15 6.31-2.21 6.48-3.75.76-7.07 5.27-11.39 9.72-15.96 3.38-3.47 3.72-7.28 1.53-11.68-4.87-9.81-10.56-12.44-21.24-9-5.58 1.8-10.53 2.94-15.53-1.93-1.72-1.67-5.79-1.82-8.55-1.33-5.13.91-15.09 13.09-15.56 18.25-.12 1.29-.14 3.09.61 3.88 4.68 4.96 4.5 10.95 5.12 17.19.34 3.35 4.24 7.08 7.47 9.19 3.67 2.4 7.45-.42 9.28-3.63 2.17-3.82 3.3-8.27 4.51-12.55.17-.59-1.7-1.86-2.74-2.67-1.18-.92-2.49-1.69-4.01-2.7 2.78-6.91 7.41-11.07 14.49-12.21Zm-60.84-7.08c1.61.7 4.05 1.27 5.34.54 3.79-2.12 7.67-4.48 10.58-7.62 2.37-2.55 3.96-4.13 7.94-3.94 11.34.53 16.9-5.3 16.85-16.51 0-10.57-6.08-23.54-19.71-25.9-2.07-.36-4.32-.92-5.98-2.1-5.33-3.77-10.32-2.27-15.18.6-4.43 2.61-8.69 3.98-14.18 3.45-10.45-1.02-17.06 7.69-14.31 17.43.48 1.69.48 4.03-.34 5.49-3.24 5.8-1.01 10.35 3.4 13.74 4.69 3.61 10.01 6.41 15.15 9.41 3.38 1.97 6.85 3.86 10.44 5.41Zm6.23-45.89c6.11.11 16.25 8.67 17.07 14.64.19 1.39-.17 3.17-.94 4.32-4.28 6.42-20.88 12.08-28.12 9.42-1.93-.71-4.15-2.53-4.84-4.37-4.28-11.44 4.84-24.24 16.84-24.01Zm-16.94-313.85c-3.76.81-7.06 1.22-10.16 2.24-7.22 2.36-10.8 8.17-9.36 14.61 1.06 4.72 11.46 12.27 16.21 11.12 1.96-.47 4.03-2.63 5-4.56 1.26-2.51.21-4.43-2.83-5.78-1.54-.68-3.06-3.89-2.77-5.67.48-2.97 2.94-3.21 5.92-2.22 1.6.53 3.81-.75 5.74-1.22-.58-2.03-.59-4.62-1.89-5.95-1.44-1.49-4.05-1.84-5.86-2.57Zm80.08 414.57c-4.71-.11-8.98 3.67-8.74 8.19.21 3.74 1.23 7.48 5.89 7.88 4.9.42 9.51-3.65 9.39-8.16-.12-4.22-1.43-7.71-6.55-7.9ZM113.9 497.89c2.94 1.54 6.67 1.54 10.07 2.2 11.19.1 16.52-5.02 19.93-16.7 1.39-4.77-1.98-7.16-5.96-8.4-3.33-1.05-7.77-2.19-8.94 2.19-1.97 7.4-6.6 8.06-13.04 8.09-2.39.01-5.7 3.57-6.76 6.24-.55 1.38 2.47 5.22 4.69 6.39Zm271.56-73.6c1.72-2.4-4.24-7.61-8.35-7.68-4.92-.07-8.98 2.89-8.44 6.7.55 3.85 2.13 8.68 6.63 7.89 3.76-.66 7.87-3.72 10.15-6.91ZM219.14 577.46c.71 2.18 1.66 4.32 2.8 6.3 3.23 5.59 6.16 11.45 10.1 16.51 2.94 3.79 7.52 4.16 12.16 2.05a38.72 38.72 0 0 1 8.71-2.76c8.21-1.55 13.46-9.61 11.62-17.92-1.47-6.63-3.95-13.09-9.88-16.43-8.06-4.54-16.85-7.8-22.91-10.52-11.62-.04-15.77 4.02-15.22 12.83.21 3.36 1.56 6.68 2.62 9.94Zm15.04-7.76c5.41.12 10.15 2.13 12.44 7.76.79 1.94 2.22 3.65 2.89 5.62.43 1.26.54 3.24-.17 4.14-.94 1.18-3.42 2.66-4.2 2.21-4.71-2.7-9.31-5.69-13.54-9.09-1.43-1.15-1.67-3.77-3.03-7.14 1.86-1.23 3.76-3.54 5.61-3.5Zm48.37 22.19c2.34.75 4.11 3.31 6.08 5.11 1.9 1.73 3.72 3.56 4.47 4.28 13.96.01 25.69-9.96 27.93-21.67.42-2.19 1.3-4.49 2.61-6.27 7.14-9.73 6-16.16-4.25-22.51-6.51-4.03-12.03-3.51-16.08 1.51-4.66 5.78-4.21 12.26.94 17.65 1.34 1.41 2.78 3.43 2.84 5.22.13 4.24-6.75 11.35-9.73 9.77-4.26-2.27-7.63-6.3-11.1-9.84-.36-.37 1.02-2.66 1.83-3.91.83-1.28 2.61-2.27 2.8-3.57.36-2.33.27-4.95-.51-7.14-.34-.96-2.9-1.74-4.34-1.59-7.27.76-14.45 8.82-14.92 16.36-.62 9.81 2.28 13.65 11.42 16.6Zm-12.72-37.09c5.77-3.4 9.22-8.65 9.46-14.84-.1-6.84-3.79-11.75-10.24-14.08-3.62-1.31-7.89-3.17-10.45 1.11-2.94 4.92 2.76 4.98 4.78 7.24 1.38 1.55 1.48 4.25 2.15 6.44-1.67.38-3.33.84-5.02 1.13-2.54.44-5.1.77-7.66 1.15 1.08 2.89 1.39 6.56 3.39 8.49 3.6 3.46 8.36 6.42 13.58 3.35Zm135.23-180.33c1.01-1.58-.86-5.55-2.22-7.99-5.08-9.09-14.16-12.64-23.5-13.85-7.01-.91-14.53-5.15-21.64.16-3.36 2.51-6.72 5.02-10.01 7.61-6.34 4.99-7.15 7.45-3.52 14.23 1.05 1.96 3.94 4.24 5.89 4.15 3.77-.18 7.98-1.17 11.06-3.24 3.25-2.19 5.44-5.98 7.99-9.15 3.27-4.06 6.87-3.17 10-.25 2.18 2.03 3.91 4.72 5.31 7.39 2.33 4.45 5.63 7.23 12.57 8.08 2.14-1.77 6-3.89 8.07-7.14Zm-.52-38.88c-.21-1.42-2.94-2.32-4.15-3.76-1.1-1.32-1.71-3.04-2.54-4.59 1.66-.77 3.51-2.43 4.93-2.13 2.65.56 5.23 1.96 7.52 3.5v-14.26c-3.72.32-7.43.65-10.92 1.71-4.81 1.46-9.09 4.59-13.67 6.86-5.1 2.52-6.66 8.27-2.83 12.35 5.38 5.71 11 11.2 16.75 16.53 3.18 2.94 6.78 4.29 10.67 3.99v-13.84c-2.79-.74-5.13-2.16-5.76-6.36Zm-2.28-102.46c-.12 6.34 2.6 12.75 4.25 19.08.15.56 1.63.9 2.55 1.12.42.1.84.17 1.25.26v-31.44c-4.6 1.95-7.95 5.72-8.05 10.98Zm3.9 185.64c1.13-.4 2.96.22 4.07.98.03.02.05.04.08.06v-18.75c-8.14 1.83-18.05 11.37-17.08 18.2.11.74.74 1.44.73 2.16-.04 2.62.58 5.67-.55 7.77-2.86 5.34-2.46 9.57 1.53 14.22 4.46 5.2 9.58 6.95 15.36 6.35v-15.78c-5.97-.32-8.02-4.05-6.69-11.91.21-1.26 1.42-2.91 2.54-3.3Zm-1.09 86.04c-1.48-2.4-2.16-5.62-2.14-8.52.01-1.88 2.18-3.64 2.67-5.63.97-3.99 2.27-8.18 1.93-12.16-.53-6.2-3.77-7.7-9.77-5.7-9.43 3.15-14.49 15.2-10.17 24.26 1.49 3.12 3.43 6.1 4.48 9.36 3.55 11.07 8.42 15.37 18.25 14.96v-17.45c-2.28.65-4.89 1.45-5.24.88Zm-11.56 21.89c-.55-.46-2.74.39-3.68 1.2-2.59 2.25-5.52 4.45-7.2 7.32-1.93 3.32-3.65 4.6-7.69 3.94-7.32-1.18-10.82 1.76-12.17 9.04-2.74 14.69 6.02 27.13 20.73 29.45 1.53.24 3.21.22 4.53.9 5.96 3.09 10.53.38 15.55-2.69 2.01-1.23 4.34-1.91 6.73-2.51v-42.3c-5.36-2.02-12.09-.45-16.8-4.34Zm5.33 41.67c-5.76 1.89-10.7.4-14.45-4.44-2.73-3.53-2.98-6.74-.74-11.13 2.79-5.45 5.87-8.83 12.23-10.17 9.13-1.92 13.48.82 13.4 10.12-.08 8.28-3.45 13.32-10.45 15.61Zm6.23-482.22c-1.47-2.41-2.16-5.62-2.14-8.52.01-1.88 2.18-3.64 2.66-5.63.97-3.99 2.26-8.18 1.92-12.15-.52-6.19-3.79-7.71-9.76-5.71-9.42 3.15-14.5 15.23-10.17 24.25 1.42 2.95 3.28 5.73 4.33 8.8 4.07 11.93 8.43 16.03 18.39 15.54V85.24c-2.28.66-4.9 1.46-5.24.91Zm-4.63 81.02c-3.21 2.34-6.15 5.26-9.67 6.94-6.16 2.94-5.16 7.55-3.19 12.03.88 2.01 3.56 4.29 5.61 4.49 3.74.37 7.67.71 10.73-3.51 1.74-2.4 4.02-4.4 6.38-6.35v-15.31c-3.36-.47-6.7-.59-9.87 1.71Zm3.17-163.78c.19-1.15 1.23-2.62 2.27-3.16H393.2c.01.12.01.24.03.36.1.74.75 1.44.74 2.15-.03 2.62.58 5.67-.53 7.77-2.81 5.33-2.49 9.58 1.51 14.23 4.46 5.19 9.58 6.94 15.36 6.35V15.3c-6.02-.32-8.02-4.02-6.69-11.92ZM393.5 108.04c-.62-.51-3.08.53-4.17 1.46-2.46 2.11-5.15 4.29-6.71 7.03-1.89 3.31-3.59 4.65-7.68 3.94-7.21-1.27-10.79 1.77-12.13 9.05-2.72 14.8 5.88 27.02 20.7 29.44 1.53.25 3.21.24 4.53.92 5.97 3.08 10.52.39 15.55-2.71 2-1.23 4.34-1.91 6.73-2.51v-42.32c-5.35-2.03-12.07-.46-16.81-4.3Zm5.56 41.57c-5.98 2.03-11.08.46-14.88-4.64-2.53-3.39-2.65-6.46-.65-10.65 2.76-5.8 6.28-9.06 12.7-10.43 8.74-1.87 13.04.93 13.06 9.95.01 8.32-3.29 13.42-10.22 15.77ZM114.75 41.78c-7.63 0-15.5 6.94-15.2 14.45.11 2.88 2.35 6.45 4.73 8.25 2.78 2.11 6.07.91 8.46-2.26 1.03-1.36 3.05-2.39 4.78-2.71 4.71-.88 8.16-2.74 7.67-8.17-.51-5.7-4.88-9.56-10.45-9.56ZM50.29 220.65c.55 1.62 3.34 3.42 5.2 3.5 7.17.33 18.83-12.02 18.82-21.3-.57-1.94-1.31-5.76-2.81-9.26-2.13-4.97-5.83-6.02-10.95-3.74-5.19 2.32-6.56 5.35-3.97 10.5 1.95 3.87.95 6.61-1.93 9.21-1.29 1.16-3.29 2.08-3.76 3.5-.79 2.39-1.36 5.34-.6 7.58Zm19.45-49.46c.93-1.59 2.56-2.76 3.63-4.29 2.1-2.97 4.04-6.06 6.05-9.1-1.06-6.93-3.62-9.35-9.74-8.48-2.05.29-4.1 1.17-5.94 2.17-5.75 3.12-11.39 6.43-17.08 9.66-3.68 2.09-4.57 4.96-2.66 8.77 2.48 4.95 6.53 7.58 11.95 7.92 5.77.36 10.65-1.27 13.79-6.65ZM47.88 276.92c.49.57.95 1.23 1.19 1.93 3.16 9.16 10.96 11.48 19.68 13.72 3.96-1.18 8.31-2.13 12.36-3.8 3.56-1.47 5.54-4.67 4.13-8.5-1.39-3.78.44-4.77 3.35-5.71 4.2-1.36 6.96-4.1 7.48-8.67.66-5.83-2.83-11.55-8.76-14.41-5.84-2.81-12.78-2-16.81 1.97-3.87 3.81-2.82 9.74 2.2 11.84 1.76.74 4.06.61 5.47 1.7 1.58 1.22 2.97 3.27 3.37 5.18.19.92-1.92 2.6-3.29 3.49-1.25.82-2.87 1.12-4.36 1.53-7.1 1.96-10.04.04-10.01-7.2.02-4.67-2.51-5.76-6.2-5.51-2.27.15-4.54.89-6.73 1.62q-9.58 3.17-3.06 10.84Zm352.01 309.07c-3.08 2.22-5.76 5.2-9.12 6.79-6.18 2.94-5.23 7.59-3.18 12.02.97 2.08 4.11 4.55 6.14 4.43 3.39-.19 7.06-1.74 9.91-3.73 2.37-1.66 4.54-3.6 6.67-5.59v-15.84c-3.57-.46-7.1-.46-10.41 1.92ZM137.53 56.15c-3.96-1.21-8.08-1.35-9.28 3.79-1.3 5.56-4.75 7.04-9.79 6.34-1.2 0-2.76-.48-3.44.09-2.23 1.85-4.76 3.79-5.9 6.28-.59 1.28 1 4.59 2.52 5.64 11.85 8.12 29.6.62 32.32-13.43 1.02-5.25-2.29-7.45-6.43-8.72ZM80.47 532.33c1.38.11 3.43 1.22 3.86 2.36 2.99 7.94 4.95 9.45 13.77 9.59 7.14.12 16.07-5.66 17.89-11.59 1.76-5.71-1.89-13.05-8.41-17.56-1.84-1.27-3.42-3.05-4.79-4.85-4.36-5.74-16.32-10.01-22.98-7.45-2.22.85-4.7 3.18-5.4 5.36-1.31 4.12-1.14 8.68-4.98 11.84-.56.46-.25 2.65.3 3.71 2.29 4.38 5.11 8.15 10.74 8.6Zm6.55-12.58c.15-1.85 2.8-3.5 4.31-5.24 2.77 3.45 5.98 6.67 7.97 10.51.45.87-3.3 3.93-4.25 5-6.08.07-8.58-3.52-8.03-10.27Zm244.77 87.88c0-5.54-4.19-8.29-8.45-6.49-4.04 1.71-7.25 4.65-9.53 8.23h17.13c.32-.67.61-1.28.84-1.74ZM57.34 395.94c-.69 3.92 3.46 7.28 9.14 7.45 3.43-.03 6.85-.88 7.25-5.76.34-4.19-4.24-8.55-9.17-8.62-4.57-.06-6.55 3.12-7.22 6.93Zm19.07 92.78c3.9-.5 9.09-.25 9-6.61-.04-4.71-6.75-11.05-11.92-10.77-5.81.31-5.52 5.09-5.65 9.06-.19 5.56 3.17 9.01 8.58 8.33Z"/></g></svg>