<?xml version="1.0" encoding="UTF-8"?>
<svg id="Capa_2" data-name="Capa 2" xmlns="http://www.w3.org/2000/svg" viewBox="0 0 74.34 79.1">
  <defs>
    <style>
      .cls-1 {
        fill: #fbb03b;
        stroke-width: 0px;
      }
    </style>
  </defs>
  <g id="Capa_1-2" data-name="Capa 1">
    <g>
      <path class="cls-1" d="m49.02,73.91c-2.91,5.78-7.36,6.83-11.85,2.66-1.85,1.83-4.01,2.95-6.74,2.31-2.65-.63-4.23-2.39-5.04-4.91-1.08.36-2.1.89-3.17,1.03-4.1.56-7.39-2.36-7.48-6.66-.08-3.7-.08-7.41,0-11.11.03-1.49-.51-2.16-1.95-2.6C5.25,52.35.56,46.29.08,38.39-1.13,18.89,11.95,3.74,30.36.66c14.82-2.48,27.47,2.01,36.86,13.92,6.25,7.93,8.41,17.22,6.4,27.2-1.34,6.62-5.63,10.84-12.03,12.81-1.6.49-2.09,1.25-2.04,2.84.1,3.29-.15,6.6.07,9.88.41,6.06-5.28,9.81-10.59,6.6Zm-31.64-11.56h0c0,2.06-.04,4.12.01,6.18.04,1.86,1.17,3.28,2.87,3.76,2.4.68,4.48-.74,4.98-3.45.16-.89.38-1.67,1.48-1.57,1.1.1,1.2.94,1.19,1.82-.01,1.13-.04,2.27.01,3.4.11,2.22,1.69,3.82,3.8,3.89,2.19.07,3.88-1.47,4.1-3.75.03-.31.03-.62.02-.93-.04-.97.18-1.86,1.34-1.83,1.16.03,1.3.96,1.26,1.91-.01.26-.01.52.01.77.19,2.3,1.85,3.87,4.03,3.83,2.17-.03,3.79-1.67,3.89-3.97.05-1.13.02-2.26,0-3.4-.01-.91.16-1.7,1.26-1.75,1.01-.05,1.23.66,1.39,1.5.45,2.44,2.08,3.85,4.16,3.7,2.27-.17,3.71-1.88,3.71-4.47.01-3.6,0-7.21,0-10.81,0-3.08.77-4.09,3.7-5.01,5.69-1.79,9.31-5.57,10.51-11.42,1.48-7.26.04-14.14-3.4-20.58C61.15,7.84,46.71,1,32.04,3.01,19.08,4.78,4.05,14.37,2.67,33.92c-.62,8.73,2.81,16.07,11.81,18.51,1.93.52,2.86,1.9,2.89,3.89.03,2.01,0,4.01,0,6.02Z"/>
      <path class="cls-1" d="m34.51,33.57c-.06,5.05-1.54,8.9-4.87,11.89-5.13,4.61-12.38,4.34-17.23-.57-5.43-5.5-5.73-14.89-.58-20.66,3.35-3.76,7.56-5.38,12.5-4.08,5.25,1.38,8.29,5.1,9.69,10.23.33,1.23.4,2.53.49,3.2Zm-2.6.38c-.08-.59-.12-1.58-.35-2.52-1.05-4.28-3.41-7.5-7.82-8.69-3.88-1.05-7.2.2-9.86,3.14-4.21,4.67-4.06,12.49.28,17.03,4.14,4.32,10.61,4.21,14.58-.26,2.11-2.37,3.05-5.19,3.16-8.7Z"/>
      <path class="cls-1" d="m66.19,33.63c-.15,4.72-1.43,8.38-4.38,11.33-5.07,5.08-12.78,5.04-17.8-.09-5.61-5.72-5.62-15.52-.01-21.26,7.04-7.21,18.63-3.88,21.51,6.2.4,1.42.54,2.92.69,3.8Zm-2.61.61c-.18-1.16-.23-2.36-.56-3.48-1.2-4.06-3.63-7.06-7.87-8.08-3.7-.89-6.92.26-9.49,3.05-4.25,4.61-4.33,12.04-.22,16.79,4.2,4.86,11.26,4.74,15.29-.27,1.87-2.33,2.77-5,2.86-8.01Z"/>
      <path class="cls-1" d="m37.12,57.98c-.31,0-.62.01-.93,0-4.73-.2-6.79-3.32-5.14-7.8,1.16-3.14,3.74-5.42,6.12-5.4,2.39.02,4.99,2.3,6.06,5.46.31.9.45,1.91.44,2.87-.02,2.78-1.35,4.27-4.1,4.7-.81.13-1.63.17-2.45.25,0-.02,0-.04,0-.07Zm-.01-2.68s0-.01,0-.02c.46,0,.92.02,1.38,0,2.14-.09,2.95-1.1,2.54-3.19-.1-.5-.25-1-.48-1.45-.77-1.45-1.52-3.13-3.44-3.1-1.82.02-2.63,1.61-3.33,3.04-1.48,3.05-.46,4.69,2.87,4.73.15,0,.31,0,.46,0Z"/>
      <path class="cls-1" d="m36.29,5.25s.17,0,.32,0c.9-.04,1.72.14,1.79,1.22.08,1.2-.81,1.37-1.74,1.47-1.74.17-3.51.21-5.2.59-2.14.48-4.24,1.21-6.33,1.91-.94.31-1.87.66-2.35-.52-.45-1.1.4-1.55,1.25-1.91,3.87-1.65,7.92-2.52,12.25-2.76Z"/>
      <path class="cls-1" d="m20.01,12.54c-.1.18-.22.62-.5.86-.86.74-1.72,1.51-2.7,2.04-.44.24-1.43.15-1.71-.18-.28-.33-.23-1.37.09-1.71.84-.88,1.86-1.63,2.9-2.27.86-.53,1.85.09,1.92,1.26Z"/>
    </g>
  </g>
</svg>