<?xml version="1.0" encoding="UTF-8"?>
<svg id="Capa_2" data-name="Capa 2" xmlns="http://www.w3.org/2000/svg" viewBox="0 0 98.78 98.78">
  <defs>
    <style>
      .cls-1 {
        fill: #3a3230;
        stroke-width: 0px;
      }
    </style>
  </defs>
  <g id="Capa_1-2" data-name="Capa 1">
    <g>
      <path class="cls-1" d="m34.01,40.63c1.85,1.05,3.73,2.07,5.54,3.06.56-1.96,1.15-3.94,1.67-5.93.07-.26-.08-.69-.28-.87-1.78-1.58-3.59-3.12-5.39-4.68-.18.05-.36.09-.54.14-.42,2.56-.86,5.13-1.26,7.69-.03.18.1.5.25.58Z"/>
      <path class="cls-1" d="m39.74,50.88c-.19-2.32-1.29-3.61-3.05-4.68-.47-.28-.92-.6-1.39-.88-3.75-2.2-7.8-3.49-12.12-4.13,1.73,13.32,9.46,21.58,22.05,23.79-.25-.42-.46-.78-.68-1.14-2.45-4.01-4.42-8.26-4.8-12.97Z"/>
      <path class="cls-1" d="m26.81,58.92c-1.14.75-2.2,1.44-3.33,2.18,2.13,3,4.46,5.55,7.62,7.21,3.7,1.95,7.36,1.5,11.27-.21-6.14-1.72-11.41-4.44-15.55-9.19Z"/>
      <path class="cls-1" d="m59.25,43.77c1.33-.78,2.68-1.63,4.07-2.39,1.76-.96,1.85-.94,1.54-2.96-.31-2.05-.79-4.07-1.19-6.11-.14-.04-.28-.07-.42-.11-1.8,1.55-3.61,3.07-5.37,4.67-.24.22-.32.82-.22,1.19.48,1.88,1.03,3.75,1.59,5.71Z"/>
      <path class="cls-1" d="m49.39,0C22.11,0,0,22.11,0,49.39s22.11,49.39,49.39,49.39,49.39-22.11,49.39-49.39S76.67,0,49.39,0Zm30.03,39.97c-.58,5.47-2.09,10.65-4.92,15.41-.12.2-.23.4-.36.63,1.46,1.07,2.93,2.08,4.33,3.18,1.03.8,1.17,1.59.51,2.67-2.23,3.66-5,6.81-8.69,9.06-4.52,2.76-9.26,2.84-14.08.94-1.59-.63-3.06-1.56-4.63-2.26-1.46-.66-3.04-.77-4.44.04-3.23,1.86-6.57,3.31-10.34,3.5-4.04.2-7.49-1.32-10.58-3.79-2.54-2.02-4.59-4.48-6.29-7.23-.85-1.37-.73-2.1.59-3.11,1.33-1.02,2.71-1.97,4.13-2.99-2.37-3.79-3.91-7.96-4.75-12.37-.25-1.3-.44-2.63-.56-3.95-.14-1.59.63-2.44,2.21-2.23,2.4.33,4.77.84,7.14,1.29.49.09.97.25,1.35.34.66-2.82,1.29-5.55,1.95-8.27.14-.57.35-1.12.58-1.66.56-1.36,1.59-1.8,2.8-.97,2.38,1.63,4.66,3.41,6.98,5.13.19.14.36.3.49.41,1.34-2,2.65-3.98,3.98-5.95.31-.45.67-.87,1.04-1.27,1.03-1.15,2.12-1.2,3.05.05,1.56,2.1,2.97,4.31,4.44,6.47.15.22.28.47.43.72,1.54-1.23,3.04-2.47,4.58-3.64.87-.66,1.8-1.24,2.75-1.8,1.59-.94,2.67-.63,3.16,1.12.81,2.93,1.44,5.91,2.14,8.87.05.22.07.46.11.8,1.55-.37,3.05-.76,4.56-1.07,1.26-.25,2.54-.45,3.82-.58,1.94-.19,2.71.59,2.51,2.51Z"/>
      <path class="cls-1" d="m55.75,45.94c-.41-5.87-2.92-10.9-6.33-15.64-8.56,11.54-8.56,22.83.01,34.35,4-5.7,6.8-11.66,6.31-18.7Z"/>
      <path class="cls-1" d="m60.14,47.74c-.38.32-.78.85-.81,1.32-.39,5.49-2.37,10.41-5.23,15.03-.18.28-.33.58-.52.93,11.6-1.39,22.11-12.77,22.01-23.81-.46.07-.92.13-1.37.22-5.18,1.02-10,2.84-14.07,6.32Z"/>
      <path class="cls-1" d="m56.63,68.05c6.36,3.45,13.44,1.12,18.56-7.04-1.04-.68-2.08-1.35-3.23-2.1-4.17,4.78-9.42,7.47-15.33,9.13Z"/>
    </g>
  </g>
</svg>