<?xml version="1.0" encoding="UTF-8"?>
<svg id="Capa_2" data-name="Capa 2" xmlns="http://www.w3.org/2000/svg" viewBox="0 0 77.79 67.08">
  <defs>
    <style>
      .cls-1 {
        fill: #fbb03b;
        stroke-width: 0px;
      }
    </style>
  </defs>
  <g id="Capa_1-2" data-name="Capa 1">
    <g>
      <path class="cls-1" d="m38.73,11.55c1.58-2.01,2.9-4.14,4.65-5.83C54.42-4.94,72.44-.01,76.57,14.77c2.68,9.59.82,18.53-4.42,26.82-5.98,9.46-14.52,16.03-24.26,21.2-2.59,1.37-5.18,2.75-7.82,4.01-.6.29-1.55.4-2.1.12-8.04-4.04-16.09-8.07-22.81-14.23-6.84-6.26-12.33-13.41-14.33-22.68C-.67,22.94-.36,15.96,3.57,9.65,7.62,3.16,13.63-.29,21.34.04c7.6.32,13.26,4.1,16.98,10.76.15.26.29.53.41.75Zm36.41,10.8c-.09-.83-.19-2.5-.44-4.15-1.28-8.39-7.91-14.92-15.71-15.52-8.69-.68-15.9,4.28-18.63,12.81-.09.29-.17.59-.31.85-.56.97-1.77.94-2.29-.05-.18-.35-.25-.77-.38-1.15-2.43-6.96-7.22-11.37-14.53-12.36-7.49-1.01-13.37,2.12-17.26,8.54-3.34,5.52-3.51,11.64-2.27,17.78,1.81,8.97,7.13,15.8,13.73,21.8,6.25,5.68,13.67,9.48,21.13,13.21.43.22,1.18.13,1.64-.1,2.23-1.08,4.41-2.24,6.61-3.38,7.28-3.8,13.88-8.49,19.29-14.72,5.66-6.52,9.38-13.86,9.42-23.56Z"/>
      <path class="cls-1" d="m21.17,5.14c.49.06,1.51.03,2.37.37.53.21.83,1.01,1.24,1.54-.55.32-1.17,1.01-1.63.92-6.74-1.44-13.52,3.56-14.73,9.78-.1.49-1.05,1.2-1.55,1.16-.96-.08-1.1-.95-.91-1.87,1.42-6.7,7.91-11.96,15.21-11.91Z"/>
      <g>
        <path class="cls-1" d="m38.91,50.07c-4.64-.19-8.35-2.08-11.02-5.9-.81-1.16-.73-2.22.16-2.8.87-.57,1.76-.26,2.55.9,4.11,5.95,12.45,5.94,16.55-.02.81-1.17,1.67-1.48,2.55-.91.82.53.99,1.54.35,2.51-2.64,4.01-6.4,5.99-11.14,6.21Z"/>
        <path class="cls-1" d="m28.5,23.16c2.94.02,5.63,1.89,6.65,4.59.39,1.04.09,1.92-.79,2.32-.87.4-1.79.03-2.23-.99-.71-1.65-1.91-2.61-3.72-2.6-1.8,0-2.99.98-3.7,2.63-.41.97-1.3,1.33-2.15,1-.89-.35-1.25-1.27-.89-2.29.96-2.75,3.8-4.69,6.82-4.67Z"/>
        <path class="cls-1" d="m49.39,23.16c2.88.02,5.57,1.84,6.62,4.49.43,1.09.15,2.02-.76,2.43-.91.41-1.77.02-2.27-1.09-.72-1.59-1.92-2.51-3.68-2.5-1.75,0-2.94.93-3.65,2.53-.46,1.05-1.32,1.44-2.19,1.09-.92-.37-1.26-1.32-.85-2.39,1.04-2.74,3.79-4.59,6.78-4.57Z"/>
      </g>
    </g>
  </g>
</svg>