<?xml version="1.0" encoding="UTF-8"?>
<svg id="Capa_2" data-name="Capa 2" xmlns="http://www.w3.org/2000/svg" viewBox="0 0 96.29 69.44">
  <defs>
    <style>
      .cls-1 {
        fill: #fbb03b;
        stroke-width: 0px;
      }
    </style>
  </defs>
  <g id="Capa_1-2" data-name="Capa 1">
    <g>
      <path class="cls-1" d="m88.91,63.8c-.35.59-.54.92-.72,1.24-1.64,2.86-4.12,4.36-7.41,4.36-21.7.02-43.4.01-65.1,0-3.81,0-6.4-1.94-8.18-5.62-1.52,1.6-2.91,3.08-4.33,4.53-.62.63-1.32,1.56-2.25.88-.53-.39-.86-1.38-.87-2.11-.08-7.12-.26-14.25,1.46-21.26C6.13,26.96,17.2,13.28,34.6,4.71c2.58-1.27,5.25-2.38,7.91-3.5,3.46-1.46,7.04-1.66,10.52-.3,8.34,3.25,16.35,7.11,23.07,13.23,11.53,10.51,18.33,23.46,19.85,39.02.46,4.71.31,9.49.34,14.23,0,.64-.46,1.64-.95,1.82-.5.18-1.45-.27-1.94-.72-1.53-1.45-2.94-3.04-4.49-4.68Zm-19.55-4.19h16.56c-.03-.47-.01-.8-.07-1.11-2.3-12.68-8.19-23.39-17.76-32.04-.61-.55-1.34-.99-2.08-1.35-4.97-2.39-9.98-4.69-14.93-7.12-2.07-1.02-4-1.04-6.06-.01-3.33,1.65-6.64,3.39-10.09,4.74-4.77,1.86-8.45,5.03-11.64,8.88-1.56,1.87-2.97,3.86-4.44,5.81-.27.36-.45.88-.8,1.06-.51.25-1.38.53-1.67.29-.41-.34-.62-1.17-.58-1.76.04-.51.51-1.01.85-1.48,1.44-1.98,2.9-3.94,4.63-6.28-4.16,1.96-7.89,3.77-11.68,5.47-1.14.51-1.81,1.22-2.3,2.38-3.55,8.45-4.71,17.28-4.34,26.36,0,.15.14.3.41.82.94-1.03,1.66-2.02,2.57-2.78,1-.84,1.4-1.82,1.65-3.06.6-2.95,1.37-5.86,2.13-8.77.23-.88.85-1.51,1.86-1.19.96.31,1.22,1.04.9,2-.22.67-.42,1.35-.59,2.03-.57,2.35-1.11,4.7-1.7,7.2h16.79c0-.71,0-1.33,0-1.96,0-3.72-.06-7.45.02-11.17.28-12.94,12.68-22.75,25.32-20.06,10.1,2.14,16.98,10.58,17.04,20.91.02,4.03,0,8.07,0,12.19Zm-39.72.04h4.21c0-.82,0-1.52,0-2.21,0-3.47-.07-6.94.04-10.4.26-8.46,8.01-15.2,16.38-14.13,7.78.99,13.53,7.22,12.45,17.52-.09.87-.64,1.56-1.52,1.33-.54-.14-1.07-.8-1.33-1.35-.22-.48-.05-1.13-.08-1.71-.08-1.47.02-2.98-.3-4.4-1.19-5.23-5.78-8.71-11.09-8.56-5.51.15-10.64,4.12-11.3,9.48-.59,4.73-.39,9.56-.54,14.44h23.25c0-.76-.01-1.4,0-2.04.02-1.01.37-1.82,1.53-1.79,1.05.03,1.38.8,1.41,1.72.02.69,0,1.37,0,2.11h3.63c0-4.67.22-9.23-.05-13.77-.53-8.97-7.71-16.12-16.6-16.87-9-.76-17.58,5.13-19.19,14.01-.98,5.37-.64,10.97-.9,16.62ZM10.78,30.93c.57-.25,1.15-.49,1.72-.76,10.32-4.86,20.65-9.67,30.93-14.61,3.2-1.54,6.16-1.54,9.37.02,10.49,5.08,21.05,10.03,31.59,15.02.46.22.96.39,1.83.73-3.45-6.2-7.64-11.16-12.56-15.54-1.42-1.27-2.97-2.15-4.85-2.53-2.07-.42-4.1-1.01-6.15-1.55-6.57-1.73-13.25-2.74-19.99-1.62-5.73.96-11.38,2.47-17.06,3.75-.36.08-.74.24-1.03.47-5.74,4.55-10.45,9.99-13.8,16.61Zm-.21,31.9c.02.3,0,.43.05.54,1.1,2.45,3.13,3.16,5.64,3.16,21.29-.02,42.58,0,63.88-.02.64,0,1.29-.02,1.91-.15,1.89-.4,3.15-1.53,3.92-3.53H10.57ZM75.56,29.67c.28.49.34.66.45.79,6.99,8.45,11.28,18.12,12.96,28.95.06.37.11.82.34,1.05,1.21,1.2,2.48,2.34,3.87,3.64.11-.45.21-.67.21-.9.25-8.08-.68-15.98-3.37-23.66-.94-2.68-2.25-4.62-5.04-5.45-.91-.27-1.74-.8-2.61-1.21-2.18-1.02-4.35-2.05-6.82-3.21Zm-13.26-21.02l.18-.55c-3.81-1.6-7.56-3.38-11.47-4.7-1.66-.56-3.82-.62-5.47-.06-4.15,1.4-8.13,3.29-12.18,4.98.05.16.1.32.14.48,9.58-2.57,19.18-2.61,28.79-.14Z"/>
      <path class="cls-1" d="m13.85,45.51c-.71-.85-1.32-1.28-1.46-1.83-.22-.88.39-1.5,1.27-1.55.9-.06,1.54.51,1.41,1.41-.08.56-.63,1.05-1.22,1.97Z"/>
    </g>
  </g>
</svg>