<?xml version="1.0" encoding="UTF-8"?>
<svg id="Capa_2" data-name="Capa 2" xmlns="http://www.w3.org/2000/svg" viewBox="0 0 96.13 96.17">
  <defs>
    <style>
      .cls-1 {
        fill: #fbb03b;
        stroke-width: 0px;
      }
    </style>
  </defs>
  <g id="Capa_1-2" data-name="Capa 1">
    <g>
      <path class="cls-1" d="m39.3,65.83c-.22-2.49-.38-4.86-.69-7.21-.06-.42-.73-1.02-1.18-1.08-2.29-.3-4.61-.45-6.67-.63-1.16,2.29-1.97,4.57-3.33,6.46-5.09,7.05-15.01,8.21-21.84,2.73-6.72-5.39-7.49-15.47-1.69-21.98,5.72-6.42,15.69-6.82,21.87-.81.9.87,1.62,1.04,2.8.67,4.42-1.39,8.87-2.7,13.34-3.95,1.26-.35,1.97-1.01,2.51-2.21,4.96-11.1,10.01-22.16,14.95-33.27.68-1.52,1.57-2.44,3.2-2.81,2.01-.46,3.97-1.17,5.99-1.6.83-.18,2.14-.23,2.54.24.5.59.59,1.87.35,2.71-2.77,9.5-5.64,18.98-8.47,28.47-.19.64-.32,1.29-.57,2.27,1.86-.54,3.46-.99,5.05-1.46,8.47-2.53,16.92-5.09,25.41-7.55.9-.26,2.35-.29,2.88.24.53.54.42,1.94.23,2.89-.38,1.9-1.08,3.73-1.51,5.62-.37,1.61-1.24,2.55-2.77,3.23-11.11,4.94-22.17,10-33.27,14.95-1.28.57-1.93,1.33-2.3,2.66-1.25,4.47-2.59,8.91-3.95,13.34-.31,1-.26,1.68.53,2.5,4.98,5.11,5.85,12.58,2.28,18.54-3.5,5.84-10.43,8.62-17.07,6.87-6.57-1.74-11.2-7.72-11.25-14.54-.05-7.04,4.4-12.94,11.27-14.91.36-.1.72-.19,1.38-.36Zm3.55-7.29c.38-.92.78-1.83,1.12-2.77.47-1.29,1.13-2.41,2.72-1.8,1.59.62,1.29,1.9.79,3.17-1.3,3.33-2.62,6.65-3.85,10-.56,1.53-1.45,2.23-3.14,2.42-5.41.63-9.61,5.01-10.01,10.17-.44,5.65,2.85,10.62,8.03,12.18,5.26,1.58,10.85-.74,13.48-5.59,2.58-4.76,1.54-10.53-2.75-14.13-1.45-1.21-1.65-2.37-1.12-4.1,5.15-17.1,10.24-34.22,15.34-51.33,1.19-3.99,2.37-7.99,3.62-12.18-2.42.34-4.06.86-5.12,3.27-6.15,14-12.42,27.95-18.88,41.81-1.44,3.09-.88,5.91-.22,8.87Zm-1.47-14.36c-.57.13-.99.2-1.38.32-4.02,1.18-8.06,2.31-12.05,3.6-1.67.54-2.81.27-3.92-1.13-2.34-2.93-5.53-4.31-9.25-4.14-6.2.28-10.99,5.29-11.02,11.37-.03,5.9,4.56,11.03,10.28,11.49,6.43.52,11.72-3.68,12.62-10.01.38-2.66.86-2.99,3.6-2.69,2.53.28,5.08.5,7.17.71,1.38-3.32,2.63-6.33,3.95-9.52Zm16.81,3.47c.95-.39,1.58-.62,2.19-.89,9.48-4.27,18.95-8.55,28.43-12.83,1.99-.9,2.74-2.32,2.49-4.75-9.73,2.9-19.45,5.78-29.17,8.7-.48.15-1.13.51-1.27.92-.93,2.83-1.74,5.7-2.68,8.85Z"/>
      <path class="cls-1" d="m35.34,80.85c.03-3.63,2.99-6.55,6.62-6.51,3.59.04,6.58,3.09,6.53,6.65-.06,3.61-3.08,6.55-6.67,6.51-3.61-.04-6.5-3.01-6.47-6.66Zm6.52-2.73c-1.5.01-2.71,1.22-2.74,2.74-.03,1.6,1.23,2.9,2.8,2.88,1.47-.02,2.75-1.28,2.79-2.74.04-1.54-1.29-2.88-2.84-2.87Z"/>
      <path class="cls-1" d="m50.23,50.76c-.73.49-1.47,1.38-2.19,1.36-.61-.02-1.55-1-1.71-1.7-.25-1.13.66-1.99,1.79-1.83.74.11,1.39.89,2.08,1.37l.02.8Z"/>
      <path class="cls-1" d="m21.89,54.62c.01,3.67-2.85,6.57-6.51,6.58-3.64.01-6.61-2.9-6.63-6.51-.03-3.55,3-6.61,6.57-6.64,3.59-.02,6.57,2.95,6.58,6.57Zm-6.55-2.79c-1.53,0-2.87,1.39-2.81,2.91.06,1.5,1.29,2.68,2.81,2.68,1.54,0,2.72-1.15,2.77-2.68.04-1.59-1.21-2.91-2.77-2.91Z"/>
    </g>
  </g>
</svg>