<?xml version="1.0" encoding="UTF-8"?>
<svg id="Capa_2" data-name="Capa 2" xmlns="http://www.w3.org/2000/svg" viewBox="0 0 410.31 609.33">
  <defs>
    <style>
      .cls-1, .cls-2 {
        stroke-width: 0px;
      }

      .cls-2 {
        fill: #63c5ea;
      }

      .cls-3 {
        opacity: .1;
      }
    </style>
  </defs>
  <g id="Capa_1-2" data-name="Capa 1">
    <g>
      <rect class="cls-2" x="0" width="410.31" height="609.33"/>
      <g class="cls-3">
        <path class="cls-1" d="m132.5,15.72c.63,1.75,1.26,3.5,1.9,5.25.21-.43.21-.79.12-1.14-1.01-3.87-1.89-7.79-3.09-11.6-.87-2.75-1.78-5.5-2.7-8.23h-1.87c1.88,5.24,3.77,10.48,5.65,15.72Z"/>
        <path class="cls-1" d="m184.04,47.03c-.07-1.69-.34-3.35-.58-5.01-1.46-10.23-3.31-20.4-6.24-30.32-1.16-3.93-2.45-7.83-3.77-11.71h-1.31c5.13,15.35,8.46,31.2,11.9,47.03Z"/>
        <path class="cls-1" d="m14.17,114.89c.21-.32.25-.63.2-.92-.62-4.01-1.2-8.03-1.88-12.03-2.24-13.05-5.22-25.92-9.75-38.39-.81-2.24-1.79-4.43-2.74-6.62v3.6c.4.99.8,1.97,1.15,2.98,4.7,13.34,7.93,27.08,10.83,40.9.73,3.49,1.46,6.99,2.19,10.48Z"/>
        <path class="cls-1" d="m9.8,16.59c4.96,9.12,9.63,18.4,14.24,27.7,5.46,11.01,10.04,22.4,13.51,34.21,1.06,3.63,2,7.3,3.05,11.12.04-.32.1-.47.08-.61-1.36-8.94-3.42-17.74-6.84-26.1-3.35-8.18-6.98-16.28-10.99-24.15C17,27.3,10.76,16.05,4.57,4.78,3.66,3.13,2.59,1.56,1.5,0H0v.51c3.32,5.33,6.8,10.57,9.8,16.08Z"/>
        <path class="cls-1" d="m62.18,38.65c.07-.41.12-.52.09-.61-2.51-7.65-6.06-14.81-10.37-21.59C48.29,10.75,44.4,5.25,40.19,0h-2.02c8.56,10.69,15.67,22.31,21.85,34.52.66,1.31,1.36,2.61,2.16,4.13Z"/>
        <path class="cls-1" d="m9.01,216.86c-3-1.86-6.01-3.72-9.01-5.58v1.79c2.92,1.41,5.83,2.82,8.74,4.22.09-.14.18-.29.27-.43Z"/>
        <path class="cls-1" d="m389.76,5.06c1.39,3.04,2.71,6.11,4.06,9.17-.95-3.68-2.15-7.26-3.57-10.76-.47-1.16-.95-2.32-1.44-3.47h-1.39c.78,1.69,1.56,3.37,2.34,5.06Z"/>
        <path class="cls-1" d="m339.33,16.81c.04-.43-.09-.75-.27-1.04-3.26-5.26-6.5-10.54-9.8-15.77h-2.06c4.04,5.6,8.09,11.21,12.13,16.81Z"/>
        <path class="cls-1" d="m210.58,23.23c-1.01-7.76-2.78-15.34-5.3-22.73-.06-.17-.12-.33-.18-.5h-1.55c2.78,7.6,5.09,15.35,7.02,23.23Z"/>
        <path class="cls-1" d="m275.94,5.79c.48,3.29.97,6.57,1.46,9.86.1-3.56-.04-7.09-.4-10.59-.17-1.69-.37-3.37-.57-5.06h-1.34c.28,1.93.56,3.86.84,5.79Z"/>
        <path class="cls-1" d="m205.43,225.06c-.67-.6-1.34-1.2-2.01-1.79.55.73,1.11,1.46,1.67,2.18.11-.13.23-.26.34-.39Z"/>
        <path class="cls-1" d="m410.31,20.6v-4.92c-1.42-2.24-2.86-4.46-4.16-6.77-.81-1.43-1.49-3.06-1.72-4.67-.2-1.43-.47-2.85-.79-4.25h-2.86c.87,3.22,1.68,6.46,2.32,9.73,1.31,6.72,1.93,13.58,2.68,20.39.34,3.09.39,6.22.34,9.33-.02,1.32-.39,2.75-1,3.92-1.57,3-5.33,3.87-7.78,1.56-2.39-2.26-4.36-4.97-6.39-7.59-4.53-5.86-7.45-12.6-10.22-19.38C378.14,11.62,374.57,5.84,371.11,0h-2.88c2.98,5.1,5.96,10.2,8.79,15.38,1.32,2.43,1.98,5.21,3.13,7.74,1.5,3.3,3.61,6.38,4.72,9.79,2.08,6.39,6.19,11.74,8.57,17.94,2.74,7.12,5.14,14.34,4.4,22.13-.17,1.74-.76,3.49-1.46,5.11-1.3,3.03-4.11,3.73-7.04,3.95-.3.02-.89-.74-.98-1.21-.77-4.26-1.61-8.51-2.15-12.8-.76-6.1-3.5-11.44-5.93-16.93-1.41-3.17-2.52-6.46-3.8-9.68-1.96-4.94-3.8-9.95-5.98-14.8C366.35,17.32,361.37,8.46,355.71,0h-3.13c1.85,2.93,3.82,5.96,5.69,9.06,6.74,11.19,12.01,23.08,16.67,35.26,2.45,6.39,5.19,12.68,7.48,19.12,3.1,8.72,3.99,17.79,3.39,26.99-.24,3.71-1.07,7.28-3.1,10.51-3.62,5.76-11.43,5.08-14.89,2.5-1.44-1.08-2.21-3.27-2.91-5.1-5.35-13.86-10.36-27.85-15.99-41.6-2.8-6.85-6.67-13.25-10.06-19.86-.23-.45-.48-.9-.76-1.41,8.56.91,12.5-1.6,13.37-8.82,11.45,19.62,18.19,40.8,25.84,61.63-.59-2.53-1.06-5.1-1.81-7.59-2.17-7.21-4.21-14.47-6.75-21.56-4.05-11.28-9.1-22.12-15.25-32.43-1.19-2-2.07-4.04-2.38-6.45-.64-5.01-2.62-9.64-4.71-14.2-.28-.62-.56-1.25-.72-1.58,2.26-1.53,4.35-2.95,6.62-4.48h-4.6c-1.02.58-2.25.91-3.49,1.38-.25-.46-.51-.92-.76-1.38h-2.48c3.44,6.61,6.5,13.39,7.84,20.79.38,2.1.42,4.34.17,6.45-.67,5.46-4.98,7.9-10.34,6.05-3.99-1.38-6.65-4.4-9.04-7.63-1.84-2.49-3.31-5.25-5.1-7.77-2.11-2.96-4.37-5.81-6.6-8.68-2.39-3.07-4.79-6.14-7.18-9.21h-4.17c.27.92.49,1.87.68,2.83.32,1.53.69,3.05,1.06,4.71-1.73-1.66-3.29-3.21-4.91-4.69-1.04-.96-2.1-1.91-3.16-2.84h-2.8c9.32,5.24,26.49,31.41,27.51,38.92-.87-.93-1.56-1.67-2.26-2.4-7.23-7.5-15.83-13.06-25.03-17.79-1.12-.58-2.21-1.25-3.22-2-1.42-1.06-2.89-2.05-2.61-4.28.11-.85-.54-1.79-.76-2.7-.11-.45-.02-.94-.02-1.41.46.14,1.01.17,1.35.45,2.97,2.46,5.88,4.98,8.84,7.44,1.16.96,2.42,1.79,3.63,2.68.1-.14.2-.29.31-.43-4.01-3.73-8.02-7.46-11.92-11.08,1.16-2.43,2.33-4.91,3.51-7.38h-2.55c-.42,1.39-.97,2.75-1.7,4.08-.3.54-.76,1.04-1.26,1.39-.52.35-1.43.85-1.72.64-.5-.35-.86-1.18-.91-1.84-.12-1.41-.02-2.84-.02-4.27h-1.82c.07,3.78-.09,7.56-.52,11.33-.63,5.48-1.25,11.01-3.94,16.01-.32.6-.68,1.2-1.11,1.73-2.58,3.19-5.07,3.7-8.97,2.38-4.27-1.45-6.59-4.35-7.27-8.68-.97-6.14-1.85-12.29-2.83-18.42-.23-1.45-.48-2.9-.72-4.35h-2.6c.34,1.73.68,3.49,1.03,5.3-5.39-1.26-10.48-2.44-15.67-3.65.2-.54.41-1.1.62-1.66h-2.09c-.41.87-.87,1.73-1.42,2.56-1.64,2.49-3.14,2.97-5.88,1.77C232.76,3.18,230.45,1.73,228.43,0h-2.9s.04.06.07.09c-.29-.03-.54-.06-.78-.09h-4.87c.43,2.08.84,4.15,1.23,6.23,1.3,6.98,1.36,14.06,1.32,21.14-.01,2.58.34,5.18.19,7.75-.38,6.45-4.48,8.51-10.15,5.39-4.26-2.35-7.18-5.95-9.88-9.82-3.82-5.46-6.56-11.5-9.61-17.39-2.21-4.26-2.92-8.82-3.93-13.31h-2.61c.96,3.76,1.91,7.52,2.8,11.29,3.96,16.82,5.27,33.88,4.09,51.12-.37,5.42-.81,10.84-1.44,16.23-.18,1.54-.95,3.14-1.83,4.45-1.4,2.08-4.26,2.39-5.89.48-1.68-1.97-3.18-4.23-4.21-6.59-3.94-8.98-6.33-18.44-7.91-28.09-1.09-6.64-3.23-12.96-5.38-19.3-2.27-6.69-4.47-13.39-6.75-20.07-.42-1.24-1.36-2.33-1.63-3.58-.42-1.94-.5-3.96-.8-5.93h-2.27c.03.16.06.32.09.48.52,3.14.38,6.31-.72,9.36-1.39,3.83-4.27,5.68-8.65,5.38-.39-2.52-.72-5.12-1.22-7.68-.49-2.51-1-5.02-1.53-7.53h-2.25c.95,3.46,1.69,6.98,2.07,10.58.72,6.8,1.09,13.63-1.2,20.23-2.6,7.48-8.28,9-15.26,6.68-1.52-.51-2.54-1.69-3.09-3.21-1.63-4.51-3.17-9.05-4.9-13.52C115.94,13.82,113.22,6.91,110.51,0h-2.92c1.05,2.36,2.09,4.73,3.14,7.1.2.46.33.96.36,1.04-4.3-2.27-8.79-4.63-13.27-7.03-.37-.2-.8-.57-.89-.94-.01-.05-.02-.11-.04-.16h-1.69c1.17,7.26.42,14.26-3.96,20.63-.38.56-.85,1.08-1.36,1.52-2.24,1.93-5.16.85-5.98-2.01-1.53-5.36-2.97-10.76-4.89-15.98-.52-1.41-1.1-2.8-1.74-4.16h-1.98c1.07,2.48,1.95,5.05,2.9,7.58,1.3,3.45,2.53,6.92,3.78,10.39,2.29,6.36,1.22,12.37-1.96,18.12-1.01,1.82-2.17,3.56-3.53,5.3C73.57,26.22,67.4,12.67,59.4,0h-2.42c3.55,5.49,6.55,11.29,9.4,17.19,3.7,7.67,5.65,15.88,7.25,24.16.92,4.74,1.46,9.6,1.62,14.43.17,4.97-1.2,9.72-4.09,13.88-1.59,2.29-2.71,2.61-5.43,1.56-3.97-1.53-7.19-4.11-10.02-7.27-3.49-3.91-4.89-8.71-6.5-13.54-2.15-6.43-4.6-12.78-7.38-18.97-2.6-5.8-5.64-11.42-8.75-16.98C30.27,9.42,27.31,4.45,23.6,0h-3.69c.76.98,1.52,1.98,2.27,2.99,6.88,9.32,12.82,19.21,17.53,29.81,4.79,10.78,8.45,21.94,10.52,33.57,1.35,7.59,2.51,15.2,2.29,22.97-.1,3.48.27,6.96.33,10.45.02,1.41-.08,2.86-.37,4.24-.91,4.23-3.96,5.73-8,4.11-4.81-1.93-8.11-5.57-11.02-9.66-4.08-5.74-7.15-12-10.27-18.3-2.48-5-3.23-10.32-4.53-15.55-3.17-12.7-8-24.76-13.91-36.4-1.51-2.97-3.14-5.88-4.74-8.81v5.18c2.41,4.72,4.91,9.4,7.1,14.22,6.23,13.7,10.3,28.06,13.05,42.84,1.37,7.37,2.92,14.7,3.28,22.21.24,5.12.61,10.25.44,15.36-.28,8.39-.91,16.76-1.51,25.13-.1,1.43-.61,2.9-1.22,4.22-1.67,3.63-5.33,3.99-7.82.86-2.41-3.02-3.63-6.62-4.99-10.16-3.47-9.07-5.11-18.58-6.99-28.03-.32-1.62-.83-3.2-1.34-4.79v11.16c.7,2.77,1.4,5.54,1.95,8.34,1.35,6.82,2.87,13.63,3.67,20.52,1.01,8.65,1.28,17.39-1.17,25.91-.49,1.69-1.68,3.22-2.75,4.68-.51.71-1.13.9-1.7.6v2.75c.55,1.42,1.02,2.65,1.49,3.86-.12.08-.24.17-.37.25-.38-.33-.75-.65-1.13-.98v2.34c1.69,1.7,3.43,3.36,4.96,5.2,2.62,3.15,5.13,6.41,7.5,9.76.97,1.37,1.43,3.1,2.1,4.62-4.92-2.68-9.74-5.29-14.55-7.91v1.9c5.91,3.16,11.76,6.42,16.61,11.18,5.27,5.17,8.27,11.47,9.24,18.76.13.95.22,1.91.35,3.06-1.78-1.42-3.25-2.73-4.86-3.85-4.79-3.34-9.55-6.75-14.51-9.83-2.08-1.29-4.51-2.03-6.83-2.94v2.54c7.07,2.74,13.06,7.34,19.31,11.46,6.21,4.09,10.66,9.72,13.27,16.82,1.27,3.44,3.3,6.6,3.61,10.37.14,1.67.18,3.46-1.29,4.5-1.59,1.12-3.52.89-5.08-.17-2.08-1.42-4.04-3.02-5.95-4.66-5.85-5.01-12.36-8.96-19.23-12.37-1.53-.76-3.09-1.44-4.65-2.14v2.85c2.27,1.02,4.61,1.92,6.72,3.22,6.37,3.92,12.7,7.92,18.85,12.18,2.01,1.39,3.47,3.62,5.06,5.56,2.6,3.18,5.2,6.37,7.64,9.67,4.54,6.15,8.26,12.74,9.9,20.3,1.23,5.68.28,11.13-2.21,16.32-.78,1.63-1.76,3.16-3.92,3.24-2.17.08-3.43-1.27-4.39-2.88-1.95-3.25-3.86-6.54-5.61-9.91-2.75-5.32-7.07-9.19-11.74-12.65-6.14-4.55-13.07-7.59-20.3-9.95v1.62c5.67,2.09,11.14,4.59,16.28,7.82,5.83,3.66,10.58,8.38,14.09,14.28,2.83,4.75,5.88,9.42,8.08,14.46,2.68,6.17,2.57,12.65-.39,18.86-.5,1.04-1.36,1.91-2.29,3.19-.99-2.04-1.75-3.7-2.58-5.32-2.41-4.68-4.7-9.43-7.31-13.99-3.27-5.72-8.21-10.03-13.18-14.2-3.75-3.14-7.8-5.94-11.73-8.87-.3-.22-.63-.41-.96-.58v2.35c3.49,2.41,7.07,4.7,10.38,7.34,10.62,8.51,18.01,19.4,23.03,31.98,1.39,3.48,2.72,6.98,2.9,10.78.19,3.95-1.25,7.56-2.53,11.18-.53,1.52-1.09,3.11-2.02,4.39-.59.82-1.85,1.57-2.85,1.62-7.13.36-13.38-1.84-18.01-7.4-1.79-2.15-2.77-4.96-4.33-7.32-2.08-3.15-4.35-6.18-6.56-9.25v5.16c1.67,2.36,3.4,4.67,4.87,7.15,6.41,10.84,10.22,22.61,12.11,35.03.49,3.23,1.09,6.44,1.61,9.66.08.51-.03,1.04-.05,1.56.37,4.23-1.8,6.78-6,7.01-4.62.25-8.66-1.47-12.53-3.77,0,0,0,0-.01,0v2.31c5.44,3.12,11.12,4.64,17.6,2.07,1.47,1.91,3.07,3.93,4.59,5.99,6.88,9.32,12.82,19.21,17.53,29.81,4.79,10.78,8.45,21.94,10.52,33.57,1.35,7.59,2.51,15.2,2.29,22.97-.1,3.48.27,6.96.33,10.45.02,1.41-.08,2.86-.37,4.24-.91,4.23-3.96,5.73-8,4.11-4.81-1.94-8.11-5.57-11.02-9.66-4.08-5.74-7.15-12-10.27-18.3-2.48-5-3.23-10.32-4.53-15.55-3.17-12.7-8-24.76-13.91-36.4-1.51-2.97-3.14-5.88-4.74-8.81v5.18c2.41,4.72,4.91,9.4,7.1,14.22,6.23,13.7,10.3,28.06,13.05,42.84,1.37,7.37,2.92,14.7,3.28,22.21.24,5.12.61,10.25.44,15.36-.28,8.39-.91,16.76-1.51,25.13-.1,1.43-.61,2.9-1.22,4.22-1.67,3.63-5.33,3.99-7.82.86-2.41-3.02-3.63-6.62-4.99-10.16-3.47-9.07-5.11-18.58-6.99-28.03-.32-1.62-.83-3.2-1.34-4.79v11.16c.7,2.77,1.4,5.54,1.95,8.34,1.35,6.82,2.87,13.63,3.67,20.52,1.01,8.65,1.28,17.39-1.17,25.91-.49,1.69-1.68,3.22-2.75,4.68-.51.71-1.13.9-1.7.6v2.75c.55,1.42,1.02,2.65,1.49,3.86-.12.08-.24.17-.37.25-.38-.33-.75-.65-1.13-.98v2.34c1.69,1.7,3.43,3.36,4.96,5.2,1.6,1.92,3.14,3.9,4.64,5.89h1.94c-.67-.88-1.36-1.74-2.03-2.62-.38-.5-.77-.98-1.03-1.61,2.75,1.26,5.37,2.69,7.91,4.23h3.36c-3.34-2.22-6.82-4.24-10.4-6.12-2.26-1.19-4.26-2.87-6.34-4.38-.33-.24-.53-.76-.63-1.19-.29-1.33-.51-2.67-.72-4.01-.08-.47-.07-.96-.1-1.44.51.18,1.12.23,1.5.55,2.07,1.72,4.06,3.54,6.13,5.26,1.92,1.59,3.91,3.09,5.86,4.64.13-.16.27-.32.4-.48-3.94-3.69-7.87-7.37-11.63-10.89,1.23-2.66,2.41-5.21,3.58-7.74,6.12,3.31,15.88,15.66,21.81,25.8h2.98c-1.89-3.01-4.07-5.83-6.34-8.6-1-1.21-1.93-2.48-3.02-3.9,5.36-.91,9.17-3.19,9.39-9.56,4.19,7.18,7.74,14.56,10.94,22.06h2.2c-2.87-6.63-6.07-13.13-9.6-19.5-.64-1.15-1.47-2.2-2.02-3.39-.68-1.47-1.43-2.99-1.65-4.56-.71-5.14-2.57-9.88-4.65-14.56-.34-.77-.7-1.52-.95-2.06,2.27-1.53,4.45-3.01,6.79-4.59,1.25,1.89,2.65,3.92,3.95,6.02,6.23,10.07,11.45,20.64,15.85,31.63,1.47,3.68,2.99,7.34,4.49,11.02h2.41c-1.18-2.88-2.06-5.9-3.16-8.82-5.23-13.93-11.84-27.15-20.13-39.52-.09-.13-.15-.29-.26-.4-2.59-2.36-2.03-5.41-2.05-8.43-.03-5.59-2.61-10.33-5.54-14.9-.54-.84-1.12-1.65-1.69-2.48,2.01-.83,2.87-.6,4.11.85,5.91,6.91,11.35,14.19,16.04,21.97,5.29,8.79,10.88,17.46,14.09,27.35.56,1.74,1.6,3.32,2.38,4.99,1.07,2.28,2.07,4.6,3.18,6.86,1.46,2.98,2.98,5.93,4.51,8.87.63,1.21,1.23,2.43,1.8,3.66h2.5c-.19-.43-.37-.85-.56-1.28-.19-.41-.33-.85-.44-1.4,3.94,3.73,7.99,3.02,12.22.37.39.76.75,1.53,1.13,2.3h1.23c-.13-.23-.25-.46-.38-.68-1.29-2.2-1.64-4.23.14-6.38.46-.56.58-1.6.51-2.38-.64-7.57-1.36-15.13-2.06-22.7-.05-.56-.14-1.12-.21-1.67.1-.04.2-.09.31-.13.83,1.38,1.68,2.74,2.48,4.14,5.46,9.61,10.32,19.49,14.21,29.81h2.58c-1.44-3.91-3.03-7.76-4.76-11.56-4.53-9.93-9.62-19.57-15.5-28.79-.99-1.56-1.24-3.66-1.57-5.56-1.1-6.23-3.3-12.09-5.73-17.88-.42-1.01-.77-2.05-1.1-2.93,1.92,1.84,3.83,3.8,5.87,5.6,3.86,3.4,5.79,8.14,8.6,12.26,10.47,15.4,18.57,32.09,26.48,48.87h1.82c-1.46-3.1-2.99-6.17-4.59-9.21-4.33-8.26-8.48-16.63-13.05-24.76-3.76-6.71-8.01-13.14-12.04-19.69-.24-.39-.48-.78-.67-1.28,6.23,3.79,12.62,6.41,20.23,3.35,2.89,3.99,5.98,8,8.8,12.19,7.81,11.61,14.06,24.01,18.55,37.27.24.71.46,1.42.69,2.13h2.96c-2.27-7.58-5.34-14.86-9.01-21.85-3.99-7.6-8.45-14.96-12.87-22.33-1.37-2.29-3.3-4.24-4.94-6.37-.8-1.04-1.55-2.12-2.31-3.17,2.72-4.31,1.69-8.59.78-12.94,18.67,15.48,31.13,35.45,41.81,56.73.12-.05.24-.1.35-.15-1.11-2.85-2.07-5.77-3.36-8.53-8.68-18.63-21.32-34.34-36.11-48.41-2.09-1.99-3.28-4.08-3.65-7-.8-6.4-2.8-12.54-5.06-18.57-.24-.63-.46-1.27-.49-2.14.45.35.95.66,1.36,1.06,5.5,5.39,11.07,10.71,16.46,16.21,6.01,6.13,12.01,12.3,17.74,18.7,6.05,6.76,10.42,14.65,14.66,22.65,6.01,11.35,8.9,23.61,10.87,36.12h3.61c-.6-.44-.95-1.04-1.2-1.97-.52-1.97-.42-3.38,1.25-4.81,2.52-2.17,4.11-5.05,5.32-8.51,2.28,1.34,4.44,2.52,6.5,3.86,3.67,2.38,7.4,4.71,10.88,7.35,1.55,1.17,2.93,2.6,4.23,4.08h2.9s-.02-.03-.03-.04c1.5,0,2.82-.49,4.14.04h2.48c-.59-.46-1.18-.92-1.78-1.38,2.1-3.2,1.19-6.52.69-9.96,4.94,3.55,9.94,7.02,14.17,11.34h1.78c-3.13-3.2-6.49-6.18-10.12-8.91-1.6-1.2-3.3-2.3-4.76-3.65-1.25-1.15-2.62-2.44-3.23-3.95-1.63-4-3.75-7.66-6.29-11.12-.36-.48-.6-1.05-1.11-1.98,4.86,2.5,8,6.3,11.44,9.73,3.43,3.43,6.76,6.96,10.28,10.58-.05-.31-.02-.51-.1-.62-5.51-6.94-10.96-14-18.1-19.37-2.48-1.87-3.81-3.85-3.99-6.9-.11-1.81-.74-3.59-1.21-5.71.96.47,1.81.78,2.55,1.27,6.59,4.38,13.34,8.53,19.23,13.88,5.92,5.37,10.37,11.72,13.52,19.08,1.09,2.54,2.13,5.1,3.1,7.67h1.77c-.29-.85-.58-1.69-.85-2.54.11-.12.23-.23.34-.35.39.51.74,1.05,1.17,1.51.42.45.82.92,1.23,1.38h1.92c-1.13-1.34-2.29-2.66-3.47-3.96-1.87-2.06-3.66-4.11-4.77-6.79-1.04-2.49-2.83-4.66-4.2-7.02-1.42-2.45-2.82-4.91-4.08-7.45-1.97-3.96-3.82-7.98-5.72-11.98-.17-.36-.33-.72-.48-1.04,2.82.8,5.54,1.44,8.16,2.37,1.19.42,2.3,1.28,3.25,2.15,8.42,7.63,16.43,15.64,23.56,24.52,2.39,2.98,4.61,6.05,6.69,9.2h3.53c-3.26-5.17-7-10.02-11.11-14.6-5.81-6.47-12.12-12.48-18.21-18.69-.58-.59-1.23-1.13-2.21-2.03,4.72.12,7.31-2.32,9.24-6.09.79.72,1.48,1.32,2.13,1.95,5.38,5.22,10.94,10.26,16.07,15.71,7.2,7.63,14.4,15.3,20.63,23.75h2.13c-2.57-3.41-5.32-6.68-8.17-9.88-9.07-10.22-18.06-20.51-28.31-29.6-.43-.38-.88-.75-1.32-1.13-1.72-1.49-3.82-2.7-3.73-5.45.01-.39-.27-.79-.45-1.18-1.92-4.15-3.71-8.37-5.81-12.43-1.89-3.64-4.12-7.1-6.2-10.64-.31-.53-.64-1.06-.96-1.58.08-.08.16-.15.23-.23,5.29,3.56,10.59,7.12,15.88,10.69,7.08,4.78,14.33,9.33,21.17,14.43,4.76,3.54,9.1,7.68,13.38,11.81,7.56,7.29,14.06,15.42,19.11,24.68,1.86,3.42,3.48,6.92,4.87,10.5h3.21c-.12-.33-.24-.66-.37-.98-.15-.38-.24-.77-.11-1.37.93.79,1.91,1.52,2.79,2.35h15.32s-.02-.01-.02-.02c-.13-.08-.23-.2-.5-.42,4.06-3.62,4.69-8.78,6.18-13.81.65.31,1.27.46,1.71.83,5.36,4.47,10.76,8.89,16.07,13.42h3.36c-.91-.81-1.82-1.6-2.75-2.39-5.73-4.82-11.64-9.42-17.43-14.17-.48-.39-.78-1.16-.89-1.8-.37-2.23-.65-4.48-.9-6.73-.05-.46-.01-1.14.27-1.41,2.71-2.53,4.09-5.7,4.64-9.86,1.69,1.29,3.14,2.34,4.51,3.48,9.78,8.11,18.7,17.08,26.44,27.17,1.52,1.98,3.24,3.79,4.83,5.71h1.62c-.64-1.1-1.28-2.21-1.99-3.27-6.35-9.49-14-17.84-22.53-25.38-3.27-2.89-6.79-5.52-10.3-8.12-1.87-1.38-2.58-3.03-2.41-5.29.14-1.91.03-3.84.03-5.86,1.9,1.18,3.93,2.45,5.97,3.68,7.66,4.62,13.68,11,19.38,17.76,2.7,3.19,5.46,6.33,8.19,9.49.11-.09.23-.17.34-.26-2.06-2.83-4.09-5.69-6.19-8.49-7.28-9.66-16.11-17.53-26.91-23.1-.97-.5-1.76-1.33-2.6-2.23,5.34.27,7.2-3.18,8.54-7.61,2.96,1.95,5.84,3.85,8.73,5.75,6.89,4.54,12.19,10.67,17.23,17.09,3.85,4.91,7.85,9.74,10.33,15.51,2.79,6.5,4.41,13.33,5.26,20.32h1.63c-.37-6.23-2.04-12.18-4.59-17.93-.96-2.18-1.27-4.35-.85-6.77,1-5.67-.06-11.25-1.37-16.76-1.04-4.38-2.68-8.54-5.19-12.32-.38-.58-.55-1.38-.57-2.09-.21-6.16-2.42-11.73-4.96-17.2-1.13-2.44-2.39-4.81-3.57-7.22-.16-.32-.31-.69-.31-1.04-.03-2.67-.01-5.35-.01-7.71,1.81-1.13,3.54-2.22,5.34-3.34.76,2.38,1.69,5,2.43,7.67,2.83,10.2,5.86,20.35,8.33,30.64,2.12,8.86,3.62,17.87,5.32,26.83,1.53,8.03,3.05,16.06,4.41,24.12.19,1.13.49,2.16.89,3.13h1.9c-.38-.97-.65-2.04-.83-3.18-.98-6.26-1.77-12.54-2.86-18.78-1.83-10.49-3.62-21-5.82-31.42-2.5-11.86-5.39-23.64-9.23-35.16-.23-.7-.41-1.41-.74-2.57,5.28,2.17,9.89,1.28,14.24-1.91,9.15,27.74,12.97,56.23,17.42,84.62-.32-4.65-.5-9.31-1.01-13.93-.76-6.98-1.54-13.97-2.7-20.89-1.24-7.43-2.66-14.85-4.49-22.16-2.33-9.35-5.16-18.58-7.72-27.88-.22-.79-.26-1.95.16-2.54,3-4.22,3.3-9.03,3.34-13.93,0-.21,0-.42,0-.63.04-.9-.02-2.01,1.18-2.04.42-.01,1.07.86,1.26,1.44,2.84,8.72,6.2,17.31,8.27,26.21,3.44,14.79,6,29.77,9.01,44.66,1.61,8,2.01,16.07,1.17,24.13-.53,5.06-1.58,10.11-2.92,15.02-.09.32-.2.63-.33.94h4.34v-.44c-.31-.15-.61-.29-.92-.44.31-1.55.61-3.1.92-4.66v-35.32c-1.21-5.76-2.53-11.5-3.62-17.28-1.17-6.17-1.99-12.4-3.1-18.57-1.54-8.53-4.12-16.79-6.93-24.97-1.26-3.69-2.55-7.36-3.89-11.25,4.25-1.1,5.84-4.44,7.13-8.29,1.22,3.29,2.63,6.53,3.64,9.89,2.34,7.82,4.54,15.69,6.78,23.54v-9.85c-1.05-3.08-2.11-6.16-3.16-9.24-1.52-4.48-3.01-8.98-4.56-13.46-.34-.99-.96-1.88-1.34-2.85-.42-1.07-1-2.18-1.02-3.28-.09-8.41-2.71-16.15-6.09-23.7-.12-.27-.22-.55-.2-1.01,1.6,1.74,3.52,2.61,5.83,2.59,2.3-.01,4.34-.75,6.39-2.33,1.4,3.16,2.77,6.24,4.14,9.31v-3.34c-.95-1.82-1.91-3.65-2.84-5.48-.76-1.49-.76-2.95.34-4.29.93-1.14,1.14-2.43.99-3.85-.78-7.6-1.54-15.19-2.3-22.79-.03-.35,0-.71,0-1.57,1.37,2.34,2.61,4.46,3.81,6.52v-4.92c-1.42-2.24-2.86-4.46-4.16-6.77-.81-1.43-1.49-3.06-1.72-4.67-.73-5.13-2.24-10.02-4-14.86-1-2.4-1.99-4.8-3.15-7.61,2.87,2.76,5.39,5.18,7.91,7.61.4.55.83,1.08,1.2,1.65,1.31,2,2.62,4,3.92,6v-6.2c-.55-.48-1.09-.97-1.64-1.45h-.32c-5-3.57-8.81-8.33-12.69-12.98-1.19-1.43-2.1-3.19-2.77-4.93-2.47-6.44-5.85-12.38-9.68-18.08-6.93-10.32-15.55-19.13-24.45-27.71-1.58-1.52-3.05-3.15-4.66-4.82,4.29.1,6.83-2.37,8.79-6.05,1.52,1.33,2.98,2.57,4.39,3.86,11.87,10.86,22.59,22.8,32.65,35.31,3.81,4.74,6.95,10,10.38,15.05v-3.12c-1.16-1.84-2.32-3.68-3.53-5.49-4.67-7.01-10.21-13.32-15.91-19.47-6.45-6.97-13.01-13.84-19.64-20.64-2.35-2.41-5.05-4.47-7.54-6.75-.48-.44-.74-1.17-1-1.81-.56-1.35-.96-2.77-1.59-4.08-.89-1.84-1.94-3.6-3.01-5.56,3.89-1.15,5.11-4.39,6.51-7.29,17.27,10.35,33.31,22.11,45.71,38.14v-4.85c-1.41-1.58-2.8-3.17-4.32-4.63-5.85-5.62-11.43-11.61-17.78-16.61-6.69-5.26-14.13-9.57-21.29-14.23-.91-.59-1.14-1-.8-2.11.68-2.26,1.07-4.6,1.62-7.09,1.46.6,3.07,1.19,4.61,1.92,7.38,3.49,14.92,6.71,22.06,10.64,5.55,3.06,10.63,6.97,15.91,10.53v-2.38c-2.92-2.13-5.76-4.4-8.88-6.18-5.07-2.89-10.35-5.43-15.64-7.93-5.71-2.7-11.54-5.15-17.29-7.79-.47-.22-.9-.94-1-1.49-.42-2.49-.76-5-1-7.51-.06-.6.2-1.38.58-1.86,1.2-1.47,2.52-2.82,3.95-4.39,3.99,1.68,8.19,3.23,12.2,5.18,8.34,4.06,16.58,8.33,24.85,12.52.75.38,1.48.8,2.21,1.22v-2.21c-2.74-1.56-5.45-3.17-8.27-4.56-9.54-4.7-19.14-9.28-28.72-13.9-.33-.16-.66-.31-1.07-.5.43-1.16.84-2.27,1.32-3.56,5.47.86,10.97,1.52,16.37,2.64,6.74,1.4,13.41,3.18,20.11,4.81.09.02.18.06.27.09v-1.49c-4.97-1.39-9.91-2.92-14.95-4-6.85-1.46-13.8-2.47-20.71-3.68-.2-.03-.39-.14-.56-.2v-6.54c4.55,1.36,6.69.41,8.84-3.83.48-.94,1.11-1.83,1.43-2.82.4-1.23,1.09-1.34,2.16-1,7.93,2.5,15.86,4.98,23.8,7.46v-2.58c-4.4-1.41-8.78-2.85-13.21-4.17-3.32-.99-6.7-1.79-10.05-2.69-.4-.11-.78-.25-1.34-.44,1.69-6.63,1-13.2-.43-19.98,1.24.31,2.28.56,3.31.84,7.42,2.05,14.57,4.84,21.6,7.96.04.02.07.03.11.04v-2.54c-6.83-2.42-13.65-4.83-20.48-7.24-.74-.26-1.5-.62-2.26-.68-2.57-.18-3.46-1.79-3.85-4.06-.21-1.23-.73-2.4-1.21-3.91,9.69.98,19.07,2.21,27.8,6.23v-1.58c-4.51-2.06-9.27-3.33-14.15-4.14-4.11-.68-8.25-1.18-12.39-1.66-1.32-.15-1.98-.67-2.45-1.95-1.43-3.89-3.03-7.71-4.65-11.76,2.75.56,5.36,1.15,8,1.63,4.98.91,10,1.62,14.95,2.66,3.6.76,7.14,1.8,10.7,2.76v-2.81c-3.39-.8-6.76-1.68-10.18-2.3-7.37-1.34-14.77-2.53-22.16-3.73-2.52-.41-2.53-.33-2.98-2.02,4.04,1.21,5.08.61,6.37-3.87,10.14,1.46,19.71,4.76,28.95,9.11v-2.18c-2.17-.94-4.35-1.89-6.53-2.82-.96-.41-1.95-.77-3.24-1.28,4.51-1.07,6.46-4.42,8.07-8.08.6.2,1.15.38,1.69.56v-1.76c-.31-.15-.61-.29-.92-.44.31-1.55.61-3.1.92-4.65v-35.32c-1.21-5.76-2.53-11.5-3.62-17.28-1.17-6.17-1.99-12.39-3.1-18.57-1.54-8.53-4.12-16.79-6.93-24.97-1.26-3.69-2.55-7.36-3.89-11.25,4.25-1.1,5.84-4.44,7.13-8.29,1.22,3.29,2.63,6.53,3.64,9.89,2.34,7.82,4.54,15.69,6.78,23.54v-9.85c-1.05-3.08-2.11-6.16-3.16-9.24-1.52-4.48-3.01-8.98-4.56-13.46-.34-.99-.96-1.88-1.34-2.86-.42-1.07-1-2.18-1.02-3.28-.09-8.41-2.71-16.15-6.09-23.7-.12-.27-.22-.55-.2-1.01,1.6,1.74,3.52,2.61,5.83,2.6,2.3-.01,4.34-.75,6.39-2.33,1.4,3.16,2.77,6.24,4.14,9.31v-3.34c-.95-1.82-1.91-3.65-2.84-5.48-.76-1.49-.76-2.95.34-4.29.93-1.14,1.14-2.43.99-3.85-.78-7.6-1.54-15.19-2.3-22.79-.03-.35,0-.71,0-1.57,1.37,2.34,2.61,4.46,3.81,6.52Zm-99-13.34c-.12-1.39-.54-2.76-.86-4.25,8.01,10.9,15.91,21.65,23.82,32.41-.13.1-.26.2-.39.3-1.82-2.28-3.65-4.56-5.47-6.83-4.15-5.18-8.06-10.65-13.39-14.68-2.51-1.9-3.47-4.06-3.72-6.93Zm13.05,24.34c-2.02-3.67-4.13-7.28-6.09-11.03,2.79,3.26,5.61,6.48,8.35,9.77,3.64,4.38,7.46,8.63,10.75,13.26,3.12,4.41,5.98,9.08,8.37,13.92,3.7,7.51,7.03,15.21,10.26,22.94,2.82,6.75,5.3,13.64,7.91,20.47.76,1.99-2.03,4.76-4.66,4.43-1.63-8.72-4.9-16.84-8.49-24.81-1.24-2.74-3.32-5.1-4.94-7.68-.86-1.38-1.72-2.8-2.31-4.3-2.46-6.24-5.33-12.29-9.02-17.89-1.55-2.35-3.53-4.44-5.42-6.56-1.32-1.48-2.42-2.87-2.29-5.11.15-2.69-1.15-5.11-2.43-7.42Zm31.38,111.5c-4.23-5.17-9.19-9.58-14.53-13.58-.53-.4-.98-1.22-1.03-1.87-.3-3.58-1.43-6.9-2.83-10.16-.47-1.11-.92-2.22-1.12-3.67,1.28.72,2.63,1.35,3.83,2.18,7.41,5.12,14.18,10.94,19.83,18.02,3.75,4.7,7.66,9.26,10.38,14.69,3.59,7.17,4.84,14.78,4.38,22.72,0,.14-.09.28-.19.56-3.75-5.11-7.55-9.98-10.99-15.08-4.13-6.12-9.49-10.84-15.52-14.93-3.04-2.07-6.04-4.21-8.9-6.22.36-1.62.67-2.99,1.01-4.52,8.57,5.11,14.23,13.43,21.43,20.09.11-.09.23-.18.34-.27-2.02-2.66-3.98-5.37-6.09-7.95Zm-63.98,329.92c-8.64-4.63-18.02-6.43-27.61-7.52-9.02-1.03-18.05-2.03-27.06-3.09-.5-.06-1.24-.46-1.39-.87-1.51-4.28-4.38-7.67-7.12-11.15-.68-.86-1.31-1.76-2.2-2.96,2.2.45,4.04.93,5.92,1.18,5.65.75,11.34,1.25,16.96,2.16,6.72,1.08,13.39,2.45,20.06,3.77,5.27,1.05,10.54,2.13,15.76,3.37,5.28,1.26,10.03,3.66,14.52,6.75,4.9,3.37,10.19,6.17,14.47,10.43,2.72,2.71,5.11,5.56,6.49,9.22,1.37,3.64,3.14,7.13,4.44,10.79.56,1.58.54,3.43.46,5.15-.09,1.81-1.1,2.53-2.92,2.67-2.37.18-4.21-.96-5.81-2.44-6.01-5.54-12.65-10.18-19.9-13.94-10.11-5.24-20.77-9.05-31.71-12.07-8.89-2.45-17.81-4.8-26.76-7-2.37-.58-1.02-2.5-2.14-3.41.11-.09.23-.17.34-.26,4.08.46,8.15.92,12.23,1.37,6.3.7,12.6,1.39,18.89,2.11,9.79,1.11,18.91,4.18,27.33,9.32,3.37,2.06,6.76,4.1,10.15,6.14.67.4,1.36.76,2.04,1.15-4.63-4.31-9.83-7.87-15.43-10.87Zm-111.74,16.3c-3.94-8.98-6.33-18.44-7.91-28.09-1.09-6.64-3.23-12.96-5.38-19.3-2.27-6.69-4.47-13.39-6.75-20.07-.42-1.24-1.36-2.33-1.63-3.58-.47-2.19-.49-4.48-.92-6.69-.63-3.3-1.45-6.57-2.19-9.86-1.24-3.44-2.48-6.87-3.8-10.52,3.84,3.98,7.84,3.23,12.3.58,1.5,3.32,3.01,6.63,4.51,9.95,7.49,18.6,11.56,38.14,15.79,57.65-.07-1.69-.34-3.35-.58-5.01-1.46-10.23-3.31-20.4-6.24-30.32-2.22-7.51-4.91-14.89-7.39-22.33-1.56-3.1-3.09-6.22-4.7-9.31-.9-1.73-.78-3.26.32-4.88.52-.77.85-1.83.84-2.76-.06-8.2-1.03-16.32-2.36-24.4-.03-.19-.03-.38.16-.67,1.17,1.98,2.38,3.94,3.5,5.95,6.09,10.87,11.41,22.1,15.37,33.94.23.69.34,1.42.5,2.13h.32c1.85,7.3,3.79,14.58,5.52,21.91,3.96,16.82,5.27,33.88,4.09,51.12-.37,5.42-.81,10.84-1.44,16.23-.18,1.54-.95,3.14-1.83,4.45-1.4,2.08-4.26,2.39-5.89.48-1.68-1.97-3.18-4.23-4.21-6.59Zm2.34,7.82c-2.86-.05-4.68-1.25-5.18-3.67-.46-2.26-.59-4.59-.86-6.88.21-.07.41-.14.62-.21.77,1.78,1.45,3.6,2.32,5.33.91,1.81,2,3.53,3.09,5.44Zm-15.38.41c-1.6-6.87-2.84-13.84-3.91-20.82-1.89-12.34-4.79-24.4-8.99-36.16-1.17-3.28-2.29-6.57-3.43-9.85-.21-.61-.49-1.19.49-1.47,3.14-.91,4.54-3.38,5.48-6.25.16-.49.33-.97.63-1.84.92,2.3,1.75,4.21,2.47,6.17,3.48,9.56,6.4,19.29,8.66,29.2,2.25,9.87,4.42,19.76,6.33,29.69,1.47,7.65,1.93,15.42,1.09,23.19-.36,3.38-1.19,6.73-2.05,10.02-.3,1.14-1.25,2.17-2.08,3.1-.38.42-1.32.77-1.76.58-.46-.2-.81-1.07-.86-1.68-.12-1.36-.06-2.74,0-4.12.29-6.69-.55-13.23-2.06-19.76Zm-82.44-60.92q5.06,1.58,10.25-5.87c2.54,1.13,5.16,2.21,7.71,3.44,5.15,2.49,9.94,5.53,14.16,9.45,4.66,4.33,7.56,9.56,9.11,15.74,1.86,7.4,4.11,14.71,6.19,22.06.66,2.33-.92,5.78-3.26,6.96-1.47-3.08-2.94-6.16-4.41-9.24-2.88-6.07-6.08-11.94-10.85-16.79-7.93-8.06-16.78-14.93-26.74-20.3-1.38-.74-2.33-1.47-2.02-3.23.12-.7-.08-1.45-.15-2.22Zm9.8-34.91c-1.45-4.22-2.8-8.48-4.38-12.65-1.36-3.58-2.98-7.06-4.6-10.86,1.83.61,3.47,1.11,5.06,1.73.48.19.94.68,1.2,1.14,3.11,5.68,6.2,11.38,9.27,17.09.62,1.15,1.14,2.37,1.7,3.55h.32c.78,1.77,1.55,3.53,2.33,5.3,1.83,4.14,3.66,8.27,5.49,12.41.2.46.33.96.36,1.04-4.3-2.27-8.79-4.63-13.27-7.03-.37-.2-.8-.57-.89-.94-.81-3.43-1.55-6.87-2.3-10.32-.03-.15.03-.31.04-.46h-.32Zm-14.32-86.82c-.71-1.16-.63-2.84-.84-4.28-2.35-16.68-5.82-33.12-10.56-49.28-.83-2.83-1.82-5.61-2.78-8.4-.56-1.62-.44-3.09.58-4.5,1.66-2.29,2.33-4.94,2.53-7.71.15-2.05.16-4.12.37-6.17.06-.55.62-1.06.95-1.58.41.38,1.02.68,1.19,1.14,1.66,4.55,3.32,9.11,4.85,13.7,3.71,11.13,6.1,22.59,8.23,34.11,1.64,8.87,3.41,17.71,4.93,26.6,1.33,7.75,1.5,15.58.35,23.36-.68,4.57-1.9,9.06-2.89,13.58-.09.39-.34.74-.51,1.1-.13-.02-.26-.05-.39-.07.25-1.39.68-2.77.72-4.17.25-9.74-1.55-18.97-6.72-27.42Zm-11.75-44.24c-1.56-5.23-3.69-10.3-5.59-15.43-.63-1.7-.54-1.9,1.51-2.6,4.73,14,7.9,28.36,10.21,42.93-1.22-2.5-2.44-5-3.64-7.51-.15-.31-.23-.71-.2-1.06.53-5.62-.71-11.04-2.29-16.32Zm-10.83-37.19c-.28-1.23-.6-2.45-.91-3.68-4.6-18.35-11.59-35.77-20.76-52.31-.64-1.15-1.47-2.2-2.02-3.39-.68-1.47-1.43-2.99-1.65-4.56-.71-5.14-2.57-9.88-4.65-14.56-.34-.77-.7-1.52-.95-2.06,2.27-1.53,4.45-3.01,6.79-4.59,1.25,1.89,2.65,3.92,3.95,6.02,6.23,10.07,11.45,20.64,15.85,31.63,2.96,7.39,6.08,14.71,8.9,22.15,4.2,11.08,5.93,22.51,4.14,34.33-.42,2.79-1.39,5.4-3.16,7.66-.48.61-.96,1.22-1.42,1.8-1.26-1.88-2.14-3.54-3.34-4.9-3.42-3.86-4.57-8.86-6.89-13.26-2.53-4.79-5.23-9.5-8.09-14.1-1.18-1.89-2.97-3.41-4.52-5.06-.66-.71-.76-1.46-.88-2.44-.3-2.48-.89-4.98-1.74-7.34-2.23-6.19-6.11-11.39-10.24-16.42-1-1.21-1.93-2.48-3.02-3.9,5.36-.91,9.17-3.19,9.39-9.56,11.53,19.78,18.29,41.07,25.9,62.04-.23-1.17-.43-2.34-.69-3.5Zm49.15,22.27c-2.16-13.83-5.08-27.47-9.58-40.75-2.18-6.44-4.61-12.79-8.05-18.69-1.29-2.2-1.64-4.23.14-6.38.46-.56.58-1.6.51-2.38-.64-7.57-1.36-15.13-2.06-22.7-.05-.56-.14-1.12-.21-1.67.1-.04.2-.09.31-.13.83,1.38,1.68,2.74,2.48,4.14,6.74,11.85,12.58,24.11,16.78,37.11,2.95,9.15,4.93,18.52,6.87,27.92,2.55,12.33,3.7,24.75,3.31,37.3-.24,7.64-.88,15.28-1.51,22.91-.14,1.74-.77,3.52-1.54,5.1-1.4,2.87-4.63,3.4-6.8,1.05-1.36-1.48-2.51-3.26-3.34-5.1-3.6-7.96-6.13-16.28-7.61-24.88-1.45-8.45-3.69-16.66-6.56-24.72-2.15-6.05-4.04-12.2-6.06-18.31-.2-.6-.43-1.22-.79-1.72-2.1-2.89-1.7-6.32-2.11-9.58-.83-6.49-2.85-12.62-5.57-18.54-.19-.41-.33-.85-.44-1.39,3.94,3.73,7.99,3.02,12.22.37,5.39,10.55,9.29,21.61,12.19,33.01,2.9,11.38,5.49,22.84,8.29,34.58-.31-2.37-.55-4.46-.87-6.53Zm26.34-23.85c-3.12-15.6-9.17-30.11-16.52-44.12-4.33-8.26-8.48-16.63-13.05-24.76-3.76-6.71-8.01-13.14-12.04-19.69-.24-.39-.48-.78-.67-1.28,6.23,3.79,12.62,6.41,20.23,3.35,2.89,3.99,5.98,8,8.8,12.19,7.81,11.61,14.06,24.01,18.55,37.27,3.46,10.23,5.85,20.72,6.81,31.47.48,5.41.45,10.86.66,16.29.1,2.53.45,5.08.26,7.58-.14,1.77-.65,3.71-1.62,5.16-1.36,2.05-3.88,2.29-6.61,1.22-3.53-1.38-6.41-3.66-8.74-6.6-5.08-6.4-8.93-13.48-12.39-20.89-2.2-4.73-3.33-9.59-4.46-14.56-2.3-10.05-5.75-19.73-10.03-29.1-4.53-9.93-9.62-19.57-15.5-28.79-.99-1.56-1.24-3.66-1.57-5.56-1.1-6.23-3.3-12.09-5.73-17.88-.42-1.01-.77-2.05-1.1-2.93,1.92,1.84,3.83,3.8,5.87,5.6,3.86,3.4,5.79,8.14,8.6,12.26,11.34,16.68,19.9,34.88,28.45,53.05,4.78,10.17,8.45,20.8,11.24,31.71.35,1.37.72,2.73,1.36,4.04-.27-1.68-.49-3.36-.82-5.03Zm-2.02-141.61c.75.42,1.38.72,1.95,1.11.6.42,1.1,1,1.73,1.37,2.29,1.36,3.32,3.26,3.66,5.98.6,4.9,1.69,9.75,2.56,14.62.09.5.14,1,.23,1.71-5.53-3.7-10.85-7.26-16.32-10.92,4.08-3.65,4.7-8.8,6.2-13.88Zm-.55-12.16c.89-1.16,1.89-2.23,3.03-3.55,1.2,5.79,2.38,11.44,3.56,17.1-.11.06-.23.12-.34.18-1.77-1.39-3.55-2.75-5.28-4.19-.25-.21-.28-.73-.34-1.12-.32-2.34-.64-4.69-.9-7.03-.05-.45,0-1.05.27-1.38Zm-4.06,28.89c4.47,3.17,8.99,6.3,13.6,9.26,1.89,1.22,2.04,3.02,2.39,4.84.43,2.22.78,4.46,1.22,6.69,1.26,6.35,6.1,9.04,11.52,10.93,2.33.81,4.7.17,7.12-1.6,2.11,3.62,4.5,7,6.14,10.7,2.12,4.8,3.67,9.86,5.43,14.82.67,1.88,1.29,3.78,1.89,5.68,1.19,3.75,1.25,7.51-.3,11.15-1.21,2.85-2.64,5.62-4.05,8.38-.37.72-1.01,1.3-1.64,2.11-.9-3.55-1.76-6.86-2.57-10.17-1.91-7.74-5.16-14.92-9.12-21.81-2.52-4.38-4.58-9.09-7.55-13.13-4.32-5.89-9.03-11.56-14.01-16.9-7.23-7.75-14.85-15.12-22.31-22.65-.21-.21-.41-.44-.8-.87,1.7.3,3.13.58,4.56.79.73.11,1.51.24,2.21.09,2.42-.53,4.35.33,6.28,1.7Zm46.18,26.27c-1.23-2.74-2.66-5.39-3.99-8.09-.18-.37-.41-.8-.37-1.18.45-3.55.96-7.1,1.38-10.2,1.85-1,3.49-1.9,5.26-2.86.9,1.99,1.95,4.33,3.02,6.66,2.93,6.32,5.81,12.65,7.57,19.42,1.55,6,3.93,11.81,3.48,18.23-.35,4.9-1.41,9.48-4.23,13.56-.36.52-.78.99-1.23,1.44-.96.97-2.02,1.76-3.5,1.2-1.51-.57-2.5-1.56-2.86-3.25-2.01-9.68-5.42-18.82-10.75-27.19-.88-1.38-1.86-2.69-2.71-4.08-.21-.35-.28-1-.1-1.35,1.39-2.75,2.86-5.46,4.35-8.26,3.04,5.85,6.19,11.91,9.33,17.98.12-.05.24-.11.36-.16-1.67-3.96-3.27-7.95-5.03-11.88Zm130.74,217.28c-.17-1.36-.28-2.74-.56-4.08-2.01-9.49-3.76-19.04-6.17-28.43-2.54-9.91-5.76-19.63-10.86-28.6-.16-.27-.23-.6-.4-.86-1.08-1.66-1.26-3.2-.21-5.08.68-1.21.97-2.84.87-4.24-.57-8.1-1.31-16.19-1.97-23.96,1.36,2.35,2.98,5.07,4.52,7.83,4.87,8.77,9.2,17.82,12.64,27.23,3.48,9.51,6.2,19.27,7.96,29.26,1.29,7.32,2.75,14.63,3.57,22,.7,6.34.88,12.77.75,19.15-.16,7.76-.81,15.51-1.42,23.25-.15,1.9-.74,3.84-1.51,5.6-1.37,3.14-4.72,3.63-7.1,1.15-2.7-2.82-3.86-6.48-5.26-10.01-3.53-8.93-5.08-18.36-7.12-27.67-1.15-5.24-2.85-10.36-4.46-15.48-2.04-6.48-3.87-13.07-6.5-19.31-1.74-4.12-2.59-8.21-3.08-12.58-.7-6.17-2.85-11.98-5.38-17.63-.2-.45-.38-.91-.57-1.37,4.03,3.74,8.12,2.87,12.36.35,10.7,21.39,15.29,44.53,20.41,67.54-.16-1.35-.32-2.71-.49-4.06Zm9.55-24.81c1.44,2.65,3.06,5.64,4.69,8.63-2.27-2.64-5.33-4.85-4.69-8.63Zm-119.72,99.88c-2.91-5.61-3.22-11.74-5.04-17.53-.66-2.1-1.13-4.26-1.68-6.39h-.32c-1.18-3.54-2.22-7.14-3.58-10.61-4.42-11.26-9.88-22.03-16.04-32.44-.4-.68-.81-1.36-1.3-1.98-2.23-2.78-2.86-6.08-3.64-9.47-1.13-4.91-2.89-9.67-4.46-14.47-.6-1.84-1.39-3.62-2.06-5.33,2.21,2.08,4.47,4.15,6.64,6.3,1,1,1.95,2.1,2.7,3.29,4.92,7.86,10.03,15.61,14.6,23.67,4.6,8.11,8.72,16.5,12.9,24.84,2.67,5.32,5.06,10.79,7.57,16.19,4.76,10.94,8.41,22.25,11.25,33.84-1.01-7.76-2.78-15.33-5.3-22.73-1.27-3.73-2.69-7.41-4.05-11.11h-.32c-1.24-2.89-2.33-5.86-3.75-8.66-5.25-10.34-10.44-20.72-15.99-30.9-4.3-7.9-9.1-15.53-13.42-22.84,1.38.72,3.27,1.93,5.32,2.76,4.39,1.77,8.91,2.63,13.51.7,1.03-.43,1.34.3,1.73.87,4.57,6.64,9.44,13.09,13.61,19.98,6.21,10.26,10.95,21.25,14.41,32.76.53,1.76.92,3.55,1.38,5.33,1.16,5.62,2.4,11.21,3.45,16.85,1.3,6.98,1.36,14.06,1.32,21.14-.01,2.58.34,5.18.19,7.75-.38,6.45-4.48,8.51-10.15,5.39-4.26-2.35-7.18-5.95-9.88-9.82-3.82-5.46-6.56-11.5-9.61-17.38Zm6.92,16.71c-1.86-.85-3.54-1.6-5.19-2.39-.19-.09-.36-.41-.39-.65-.4-2.71-.78-5.41-1.2-8.39,2.34,3.95,4.48,7.56,6.78,11.43Zm-65.45-10.19c-1.01-3.87-1.89-7.78-3.09-11.6-1.99-6.32-4.2-12.57-6.31-18.85-2.44-5.65-4.72-11.39-7.39-16.94-2.4-4.98-5.24-9.74-7.85-14.62-.42-.78-.85-1.64-.94-2.49-.64-5.86-2.78-11.23-5.19-16.52-.21-.47-.39-.95-.46-1.14,2.29-1.57,4.43-3.05,6.78-4.66,2.28,3.69,4.78,7.52,7.08,11.47,6.11,10.52,10.97,21.62,15.32,32.96,1.54,4.03,3.35,7.96,5.03,11.94,2.57,6.88,4.81,13.86,5.59,21.2.72,6.8,1.09,13.63-1.2,20.23-2.6,7.48-8.28,9-15.26,6.68-1.52-.51-2.54-1.69-3.09-3.21-1.63-4.51-3.17-9.05-4.9-13.52-3.91-10.13-7.91-20.22-11.87-30.33-.13-.34-.23-.69-.35-1.04h-.32c-1.59-3.48-3.09-7.01-4.81-10.44-1.72-3.43-3.65-6.75-5.59-10.32,3.13.74,6.11.68,8.89-.92,2.84-1.64,4.27-4.12,4.48-7.44,5.58,9.26,10.06,19.02,13.83,29.12h.32c.05.3.04.63.15.91,3.04,8.48,6.09,16.95,9.14,25.42.63,1.75,1.26,3.5,1.9,5.25.21-.43.21-.79.12-1.14Zm-44.37-132.28c-1.23-5.72-2.45-11.45-3.3-17.23-1.92-13.13-4.75-26.02-9.23-38.53-1.36-3.81-2.64-7.66-4-11.62,4.21-1.11,5.77-4.39,7.09-8.15.98,2.51,2.03,4.99,2.93,7.53,4.64,13.2,8.17,26.71,11,40.4,1.6,7.74,3.22,15.5,4.21,23.33,1.05,8.28,1.12,16.66-1.1,24.84-.45,1.67-1.48,3.23-2.47,4.68-.38.56-1.4.69-2.13,1.01-.29-.75-.8-1.49-.82-2.25-.08-2.74-.05-5.49.02-8.24.13-5.38-1.08-10.56-2.2-15.77Zm8.55,24.19c.79-1.68,1.3-3.5,2.09-5.69,1.5,2.38,3.06,4.43,4.16,6.71,1.3,2.69,2.33,5.52,3.25,8.37,1.17,3.62.35,7.1-1.25,10.42-.6,1.25-1.96,1.99-5.22,2.98-1.38-2.51-2.7-5.02-4.12-7.48-1.5-2.6-3.16-5.1-4.58-7.74-.47-.87-.41-2.03-.62-3.23,3.6.26,5.13-1.88,6.29-4.34Zm1.69-31.81c-.03-.2,0-.42,0-.95,2.46,4.87,4.94,9.36,7,14.03.93,2.1,1.2,4.56,1.44,6.89.18,1.73-.48,3.44-2.17,4.26-1.69.82-3.42.3-4.96-.64-.31-.19-.64-.74-.59-1.07,1.1-7.55.28-15.04-.72-22.52Zm41.42,113.39c-.31-1.36-.97-2.63-1.47-3.95h-.32c-1.23-2.67-2.54-5.32-3.68-8.03-.81-1.93-1.44-3.95-2.08-5.95-3.32-10.39-8.04-20.17-13.36-29.65-2.98-5.33-6.49-10.36-9.73-15.54-.23-.37-.38-.91-.31-1.33,1.18-6.8-1.24-12.66-4.71-18.25-.72-1.15-1.49-2.27-2.25-3.42,2.07-.78,2.82-.6,4.16.98,7.94,9.36,14.81,19.46,20.81,30.17,1.88,3.35,3.9,6.63,5.63,10.06,1.18,2.34,1.86,4.93,2.94,7.32,1.72,3.78,3.61,7.49,5.41,11.24,2.64,5.5,5.31,10.99,7.89,16.52.89,1.9,1.53,3.92,2.28,5.89.8,3.69,1.73,7.37,2.35,11.09.52,3.14.38,6.31-.72,9.36-1.39,3.83-4.27,5.68-8.65,5.38-.39-2.52-.72-5.12-1.22-7.68-.93-4.74-1.91-9.48-2.98-14.2Zm-3.57-42.15c-2.36-5.55-5.42-10.83-8.45-16.07-3.06-5.29-6.27-10.52-9.8-15.51-3.01-4.25-6.58-8.1-9.9-12.14-.4-.49-.76-1.01-1.25-1.68,4.29-5.17,2.67-10.3-.08-15.35,1.5-.28,2.93-.27,4.07-.83,1.17-.58,2.06-1.72,3.22-2.76,1.83,2.09,3.76,4.23,5.63,6.43,7.69,9.02,13.5,19.24,18.6,29.86,3.56,7.41,6.87,14.94,10.29,22.42.17.38.39.74.8,1.04-1.19-3.36-2.28-6.76-3.58-10.08-3.98-10.13-8.73-19.89-14.48-29.14-4.63-7.46-9.87-14.46-15.71-21.01-.59-.66-.6-1.11-.32-2.03.55-1.85.69-3.83.85-5.78.35-4.31.61-8.62.91-12.94.16-.14.31-.27.47-.41.45.61.84,1.28,1.36,1.82,7.23,7.49,13.98,15.37,19.59,24.18,7.52,11.82,12.98,24.57,17.03,37.96,2.65,8.77,4.16,17.77,5.3,26.82.63,5.02.76,10.11.97,15.17.06,1.45-.18,2.97-.61,4.36-1.14,3.69-5.39,4.98-8.42,2.55-1.22-.98-2.27-2.21-3.25-3.44-5.64-7.13-9.69-15.12-13.23-23.47Zm62.84-143.19c-3.53-4.12-6.92-8.38-10.73-12.23-4.94-4.99-11.18-8.06-17.66-10.59-1.25-.49-1.79-1.14-2.15-2.48-.52-1.97-.42-3.38,1.25-4.81,2.52-2.17,4.11-5.05,5.32-8.51,2.28,1.34,4.44,2.52,6.5,3.86,3.67,2.38,7.4,4.71,10.88,7.35,2.06,1.57,3.84,3.57,5.51,5.58,3.02,3.65,6.03,7.34,8.75,11.22,4.72,6.73,8.8,13.81,9.74,22.21.57,5.09-.61,9.9-3.05,14.33-1.9,3.44-5.27,3.56-7.43.24-2.15-3.31-4.03-6.8-5.89-10.29-3.13-5.86-7.93-10.1-13.24-13.8-5.84-4.08-12.35-6.81-19.07-9.08-.19-.06-.37-.17-.3-.14.74-4.55,1.46-8.98,2.24-13.71,2.88,1.39,6.04,2.79,9.09,4.39,6.18,3.25,10.78,8.4,15.72,13.15,2.23,2.15,4.56,4.19,6.88,6.25-.76-1-1.53-1.99-2.34-2.95Zm-23.27-47.17c1.63.09,3.17.06,4.67.29.79.12,1.52.67,2.24,1.09,1.08.63,2.13,1.31,3.39,1.72-1.42-1.15-2.83-2.3-3.97-3.23,1.86-3.28,3.66-6.45,5.53-9.74,3.78,3.26,8.04,6.36,10.29,11.28,1.87,4.07,3.67,8.17,5.32,12.32.55,1.38.75,2.98.77,4.48.04,3.37-2.04,4.88-5.2,3.65-1.68-.65-3.32-1.68-4.63-2.91-5.22-4.84-11-8.86-17.26-12.2-.91-.49-1.28-.98-1.19-2.06.14-1.66.04-3.35.04-4.69Zm47.16,253.53c0-.25.04-.51.07-.94,2.61.5,5.11,1.07,7.64,1.46,6.15.95,12.31,1.78,18.45,2.76,3.54.56,7.05,1.31,10.56,2.04.36.08.77.62.9,1.03.45,1.51.82,3.05,1.18,4.59.44,1.89,1.45,3.35,3.07,4.42.87.58,1.63,1.31,2.7,2.18-3.04-.57-5.73-1.26-8.46-1.56-5.77-.64-11.56-1.09-17.33-1.61-5.83-.53-11.67-1.05-17.5-1.58-.74-.07-1.24-.24-1.23-1.22.04-3.85-.02-7.7-.04-11.55Zm39.98,8.42c-.97-6.14-1.85-12.29-2.83-18.42-.8-4.99-1.67-9.98-2.52-14.96-1.67-8.16-3.46-16.29-4.96-24.48-.44-2.38-.07-4.9-.07-7.44.81.32,1.51.72,2.26.85,2.36.42,3.94-.92,5.17-2.64.94-1.31,1.62-2.81,2.43-4.22.28-.5.6-.97,1.13-1.82,1.14,5.09,2.31,9.81,3.24,14.57,1.56,7.97,2.96,15.97,4.43,23.96.08.41.21.82.31,1.22.8,5.47,1.59,10.94,2.39,16.41.48,3.29.97,6.57,1.46,9.86.1-3.56-.04-7.09-.4-10.59-.54-5.23-1.23-10.45-1.86-15.67-.67-4.37-1.2-8.78-2.06-13.12-1.43-7.29-3.07-14.54-4.63-21.8-.19-.88-.44-1.74-.68-2.6-.77-2.73-1.47-5.4-.94-8.36.92-5.12.13-10.22-1.04-15.23-.62-2.64-1.03-5.22-.57-7.95.33-1.97.19-4.01.4-6,.05-.49.66-.92,1.01-1.38.33.33.83.6.97.99,1.7,4.65,3.44,9.29,5,13.98,4.2,12.65,6.69,25.7,9.13,38.77,1.41,7.56,2.79,15.13,4.19,22.7.98,7.3,1.14,14.63.3,21.95-.63,5.48-1.25,11.01-3.94,16.01-.32.6-.68,1.2-1.11,1.73-2.58,3.19-5.07,3.7-8.97,2.38-4.27-1.45-6.59-4.35-7.27-8.68Zm-79.36-168.54c-7.52-8.97-16.37-16.45-26.16-22.8-3.13-2.03-6.55-3.61-9.8-5.44-.43-.24-.96-.76-.99-1.18-.36-5.36-.65-10.73-.96-16.23,2.53,1.26,5.2,2.46,7.75,3.87,5.66,3.15,11.43,6.16,16.86,9.67,11.97,7.73,21.53,17.77,27.69,30.75,1.94,4.08,3.57,8.31,5.18,12.54,1.52,4,1.35,8.07-.01,12.11-.76,2.25-1.53,4.49-2.28,6.74-.84,2.54-2.45,3.92-5.26,3.85-6.41-.15-12.01-2.21-16.4-7-.95-1.03-1.75-2.26-2.38-3.52-4.19-8.35-9.99-15.5-16.49-22.11-4.43-4.51-9.05-8.83-13.53-13.29-.39-.39-.57-1.13-.6-1.72-.11-2.53-.21-5.06-.16-7.58.03-1.78.3-3.56.5-5.62,15.87,8.15,28.78,19.45,40.41,32.38.1-.08.21-.16.31-.24-1.22-1.73-2.32-3.55-3.68-5.17Zm66.14,69.67c-2.97-7.11-6.23-14.07-10.48-20.53-3.93-5.97-8.94-10.96-14.34-15.54-5.99-5.08-12.21-9.91-18.29-14.89-.48-.39-.77-1.17-.89-1.82-.38-2.17-.67-4.37-.93-6.56-.06-.52-.12-1.28.17-1.56,2.72-2.59,4.22-5.74,4.62-9.84,1.1.71,2.05,1.21,2.87,1.89,11.21,9.22,21.04,19.72,30.22,30.97,4.72,5.79,7.67,12.24,10.9,18.74,4.26,8.57,6.86,17.7,9.21,26.87,1.83,7.16,1.06,14.39-2.78,20.99-.57.98-1.36,1.89-2.2,2.67-2.22,2.04-5.2,1.05-5.93-1.91-1.63-6.61-3.45-13.15-6.38-19.33-4.89-10.32-11.85-19.04-20.4-26.55-7.8-6.85-16.46-12.49-25.14-18.1-.18-.11-.34-.24-.63-.44,4.28-3.58,4.69-8.91,6.34-14.07,1.7,1.27,3.2,2.38,4.68,3.51,7.85,6,15.42,12.32,22.18,19.55,4.77,5.1,8.28,11.04,11.52,17.16,2.56,4.84,5.06,9.71,7.94,14.42-.75-1.87-1.48-3.75-2.26-5.61Zm7.9-26.88c-.25,1.29-1.35,1.71-2.46,1.15-1.33-.68-2.83-1.39-3.71-2.52-1.92-2.43-3.52-5.11-5.2-7.72-5.54-8.62-12.18-16.31-19.57-23.38-4.65-4.45-9.42-8.78-14.83-12.31-1.71-1.12-2.15-2.73-2.09-4.65.07-1.97.01-3.95.01-6.15,2.31,1.43,4.61,2.88,6.93,4.3,7.5,4.59,13.26,11.04,18.9,17.64,2.74,3.2,5.51,6.38,8.37,9.69-1.23-3.19-11.42-15.77-15.6-19.88-6.05-5.95-13.43-10.03-20.47-14.78,5.41.25,7.35-3.2,8.67-7.68,2.88,1.89,5.65,3.69,8.41,5.52,6.68,4.44,12.1,10.17,16.88,16.54,2.81,3.75,5.69,7.47,8.33,11.35,2.57,3.77,4.36,7.94,5.27,12.46.96,4.8,2.14,9.57,2.86,14.41.29,1.94-.32,4.04-.7,6.04Zm1.28.93c1.4,2.21,2.58,13.31,2.05,19.63-2.57-6.22-5.02-12.14-7.59-18.38,2.23.86,4.28,1.19,5.54-1.25Zm-3.85,91.44c.17,1.39.35,2.79.54,4.39-3.35-.83-6.64-1.65-10.06-2.5.11-.68.22-1.28.32-1.89-.33-3.93-.67-7.85-.96-11.78-.03-.44.14-1,.42-1.34,1.8-2.17,3.65-4.3,5.57-6.54.49,2.22,1.04,4.58,1.52,6.95.81,4.02,1.57,8.06,2.35,12.09.04.2-.01.41-.02.62h.32Zm-57.73-99.54c.44.01.93.22,1.31.46,9.12,5.83,18.03,11.93,26.15,19.14,8.39,7.45,15.37,15.93,19.7,26.38.68,1.65,1.12,3.4,1.71,5.09,1.13,3.22,2.24,6.46,3.46,9.65,2.52,6.61,1.54,12.85-1.85,18.85-1,1.77-2.12,3.46-3.18,5.19l-.4-.26c-1.06-4.07-2.06-8.16-3.2-12.2-1.61-5.7-3.83-11.16-6.76-16.32-3.15-5.54-6.07-11.23-9.43-16.65-4.11-6.63-9.5-12.26-14.96-17.77-7.32-7.37-14.83-14.55-22.22-21.77,3.43.07,6.55.11,9.67.21Zm48.1,103.05c3.27.87,6.56,1.74,9.85,2.65.3.08.69.4.75.67.62,2.97,1.19,5.95,1.8,9.09-5.39-1.26-10.48-2.44-15.67-3.65,1.02-2.74,2.11-5.65,3.28-8.76Zm18.21-82.37c-.74-4.58-1.36-9.12-2.24-13.61-1.4-7.12-2.93-14.23-4.54-21.31-.4-1.78-1.5-3.39-1.97-5.16-.44-1.63-.81-3.42-.61-5.06.73-6.07.42-11.98-1.79-17.74-1.1-2.89-2.1-5.81-2.88-8.97.67.84,1.55,1.59,1.96,2.55,1.27,2.95,2.22,6.03,3.56,8.95,2.41,5.26,4.9,10.5,7.57,15.63,4.93,9.47,8.72,19.31,10.3,29.91.44,2.94.29,5.89-.57,8.79-1.21,4.06-4.14,6.18-8.79,6.04Zm-10.59-46.41c0,.09-.09.17-.13.23-5.03-6.76-9.93-13.55-15.06-20.16-3.47-4.47-8.22-7.54-12.81-10.74-2.25-1.57-4.46-3.19-6.73-4.72-.73-.49-.97-.93-.63-1.81.37-.97.52-2.02.83-3.26,8.51,5.18,14.25,13.36,21.35,20.06.11-.09.22-.18.33-.27-1.97-2.62-3.85-5.31-5.92-7.84-4.34-5.29-9.41-9.81-14.93-13.84-.34-.25-.75-.71-.75-1.08-.06-4.9-2.16-9.19-4.02-13.55-.08-.19-.11-.39.1-.97,1.83,1.11,3.73,2.13,5.49,3.35,10.52,7.36,18.92,16.77,26.07,27.32,5.58,8.23,7.41,17.47,6.81,27.28Zm-6.77-30.96c-.63-.77-1.28-1.53-1.88-2.32-7.28-9.58-16-17.65-25.79-24.59-1.37-.97-3.01-1.54-4.4-2.47-1.06-.72-2.28-1.55-2.83-2.63-2.86-5.61-6.93-10.32-10.8-15.19-.29-.37-.56-.75-.99-1.32,1.92.01,3.53-.83,5.24.75,5.3,4.9,10.82,9.55,16.17,14.4,3.31,3,6.47,6.17,9.86,9.1-7.5-9.84-16.54-18.1-26.43-25.57,2.1-3.2,1.19-6.52.69-9.96,5.64,4.05,11.35,7.99,15.92,13.23,11.88,13.6,21.54,28.47,25.6,46.36-.12.08-.24.16-.36.24Zm-14.02-34.62c-5.82-8.79-12.87-16.43-21.31-22.77-1.6-1.2-3.3-2.3-4.76-3.65-1.25-1.15-2.62-2.44-3.23-3.95-1.63-4-3.75-7.66-6.29-11.12-.36-.48-.6-1.05-1.11-1.98,4.86,2.5,8,6.3,11.44,9.73,3.43,3.43,6.76,6.96,10.28,10.58-.05-.31-.02-.51-.1-.62-5.51-6.94-10.96-14-18.1-19.37-2.48-1.87-3.81-3.85-3.99-6.9-.11-1.81-.74-3.59-1.21-5.71.96.47,1.81.78,2.55,1.27,6.59,4.38,13.34,8.53,19.23,13.88,5.92,5.37,10.37,11.72,13.52,19.08,3.56,8.32,6.73,16.72,7.98,25.74.16,1.14.29,2.28.49,3.88-1.96-2.94-3.68-5.51-5.38-8.08Zm-38.22-45.28c-2.2-1.73-4.11-3.25-5.88-4.64v-12.71c3.8,5.38,5.44,11.03,5.88,17.35Zm-21.86,51.1c6.49,2.74,12.69,5.96,18.01,10.68,3.19,2.83,5.86,6.07,8.07,9.69,3.1,5.08,6.69,9.9,8.56,15.64,1.9,5.83,1.84,11.65-.65,17.31-.53,1.21-1.49,2.23-2.51,3.72-1.64-3.48-3.16-6.43-4.44-9.49-4.68-11.14-12.64-19.57-21.94-26.94-8.32-6.59-17.6-11.59-26.94-16.5-.51-.27-.99-.67-1.54-.8-4.27-.97-4.38-4.26-4.34-7.82,1.18,1.42,2.21,2.79,3.37,4.05,2.33,2.53,5.11,4.38,8.41,5.43,3.33,1.05,6.2.04,8.03-2.94.79-1.3,1.45-2.68,2.27-4.22,1.86.72,3.78,1.41,5.65,2.2Zm-27.43,40.12c1.29,1.14,2.61,2.25,3.87,3.43,7.17,6.7,14.1,13.63,19.79,21.69,4.65,6.58,8.39,13.63,11.21,21.18,3.55,9.49,5.2,19.42,6.84,29.35.22,1.34.21,2.77,0,4.11-.6,3.95-3.32,5.8-7.71,5.38-4.86-.46-9.22-2.18-12.89-5.43-3.43-3.04-7.05-5.93-10.11-9.31-2.79-3.09-5.75-6.11-7.42-10.16-1.92-4.66-4.15-9.24-6.68-13.6-5.17-8.9-11.89-16.63-19.03-24-1.62-1.67-3.29-3.28-4.87-4.98-.38-.41-.64-1.08-.65-1.64-.06-3.12-.1-6.24.02-9.35.04-.98.62-1.93,1.08-3.29,11.32,9.53,20.84,20.21,30.32,30.93,9.52,10.77,17.66,22.45,24.04,35.41-.28-.82-.54-1.65-.83-2.47-.3-.84-.6-1.69-.94-2.52-3.52-8.8-8.61-16.68-14.67-23.9-9.46-11.28-19.26-22.28-29.96-32.42-2.26-2.14-4.67-4.11-6.97-6.22-.42-.38-.71-.97-.89-1.52-.61-1.89-1.4-3.76-1.66-5.71-.67-5.01-1.1-10.04-1.31-15.34.87,1.12,1.8,2.19,2.61,3.36,3.03,4.38,5.79,8.96,9.08,13.13,2.57,3.26,6.17,5.38,10.24,6.57,2.56.75,5.48-.54,7.47-2.68Zm74.16,144.91c-2.5-9.18-5.77-18.08-9.9-26.64-4.71-9.75-9.91-19.22-16.27-28.01-1.42-1.96-3.06-3.77-4.57-5.67-.47-.59-.54-1.12-.15-1.96,1.34-2.9,1.78-5.94.65-9.07-.33-.91-.4-1.9-.41-2.94,18.62,15.44,31.07,35.36,41.99,56.51-.31-.93-.61-1.87-.93-2.8-.33-.95-.64-1.9-1.03-2.82-6.06-14.36-14.86-26.96-25.13-38.54-4.62-5.21-9.68-10.01-14.51-15.03-.4-.42-.74-1.04-.81-1.61-1.03-8-3.2-15.69-6.22-23.16-.05-.13-.06-.29-.18-.96,1.66,1.45,3.07,2.55,4.33,3.8,4.25,4.18,8.5,8.37,12.65,12.65,6.13,6.32,12.32,12.6,18.22,19.13,6.48,7.17,11.26,15.5,15.66,24.07,6.19,12.06,9.08,25.01,10.81,38.31.2,1.56.15,3.16.21,4.74-.49,4.66-1.42,9.17-4.06,13.18-1.64,2.49-3.14,2.97-5.88,1.76-6.87-3-11.63-8.05-14.48-14.94Zm4.7,10.7c-.93-.1-1.55-.17-2.29-.26-.15-1.16-.28-2.13-.45-3.41.94,1.27,1.72,2.3,2.73,3.67Zm2.98,2.72c2.02,1.59,4.47,2.74,6.89,3.7,2.72,1.07,5.1.02,6.84-2.23.64-.83,1.26-1.19,2.24-.94,4.94,1.26,9.89,2.51,14.83,3.8.32.08.78.35.83.61.67,3.33,1.28,6.68,1.9,10.02-12.54-1.99-24.91-3.96-37.28-5.92-.44-3.72-.84-7-1.24-10.36,1.85-.07,3.38.05,5,1.33Zm-3.76,25.56c.43,0,.74-.02,1.04,0,9.14.83,18.28,1.75,27.44,2.48,9.29.74,18.2,2.99,26.77,6.56,6.07,2.53,12,5.38,18.14,8.15-6.12-5.07-12.97-8.55-20.07-11.05,1.51-1.04,3.32-1.92,4.62-3.27,1.31-1.37,2.12-3.23,3.3-5.1,1.77.93,3.75,1.89,5.64,2.99,5.2,3.02,10.48,5.91,14.72,10.32,5.52,5.74,8.61,12.55,9.09,20.51.01.24-.05.48-.05.56-4.47-3.14-8.8-6.29-13.23-9.28-2.96-2-5.96-4.02-9.16-5.59-5.34-2.61-11.14-3.85-16.98-4.82-11.03-1.83-22.07-3.62-33.12-5.35-4.95-.77-9.93-1.31-14.9-2-1.08-.15-2.14-.48-3.23-.73v-4.39Zm62.61-3.32c-.89-.38-.99-.8-.79-1.68.74-3.18,1.39-6.38,2.13-9.84,1.13,1.12,2.39,2.15,3.38,3.38,3.39,4.23,6.77,8.48,9.99,12.85.93,1.27,1.32,2.94,1.95,4.42-5.43-3.56-10.88-6.65-16.66-9.14Zm1.9-16.51c.52,1.38,1.04,2.76,1.62,4.32-2.51-.84-2.42-2.01-1.62-4.32Zm.18-2.42c-.5-.35-.86-1.18-.91-1.84-.12-1.47-.01-2.96-.02-4.43-.03-3.48-.07-6.96-.11-10.45h-.32c-.65-3.46-1.31-6.93-1.96-10.39-1.03-5.43-2.26-10.84-3.05-16.3-2.02-13.97-5.2-27.64-10.05-40.92-1.1-3.01-2.09-6.06-3.18-9.26,4.27-1.05,5.72-4.4,6.88-8.47.68,1.62,1.22,2.82,1.7,4.04.5,1.27.98,2.56,1.44,3.85,4.68,13.3,8.19,26.92,11.07,40.7,1.43,6.86,2.97,13.72,3.86,20.66.68,5.3.43,10.73.59,16.09.05,5.11-.42,10.11-2.95,14.69-.3.54-.76,1.04-1.26,1.39-.52.35-1.43.85-1.72.64Zm-6.87-134.86c-2,4.02-6.9,4.53-10.4,1.21-3.89-3.69-6.53-8.25-8.71-13.09-3.03-6.72-5.95-13.49-9.06-20.17-1.04-2.24-2.43-4.32-3.79-6.39-1.71-2.62-2.13-5.69-3.22-8.52-1.64-4.27-3.6-8.43-5.52-12.59-.82-1.77-1.26-3.46-1.42-5.47-.38-4.76-1.22-9.51-2.24-14.19-.73-3.37-2.05-6.62-3.1-9.92.11-.12.23-.23.34-.35.39.51.74,1.05,1.17,1.51,8.68,9.36,15.72,19.85,21.23,31.33,4.29,8.93,8.34,17.97,12.49,26.96.13.28.28.55.73.71-.93-2.66-1.73-5.38-2.81-7.97-2.54-6.07-5.01-12.19-7.9-18.1-6.35-12.95-14.35-24.82-24.05-35.52-1.87-2.06-3.66-4.11-4.77-6.79-1.04-2.49-2.83-4.66-4.2-7.02-1.42-2.45-2.82-4.91-4.08-7.45-1.97-3.96-3.82-7.98-5.72-11.97-.17-.36-.33-.72-.48-1.04,2.82.8,5.54,1.44,8.16,2.37,1.19.42,2.3,1.28,3.25,2.15,8.42,7.63,16.43,15.64,23.56,24.52,8.83,11.01,15.47,23.21,20.6,36.32,3.58,9.12,6.48,18.44,7.93,28.09,1.33,8.86,1.93,17.83,2.72,26.76.13,1.52-.03,3.29-.69,4.62Zm-60.62-111.62c-2.45-2.15-4.74-4.53-7.38-6.41-6.36-4.52-12.88-8.8-19.33-13.19-.51-.35-1.02-.77-1.35-1.27-1.5-2.29-2.95-4.62-4.41-6.94-.18-.29-.3-.63-.45-.94l.32-.33c4.71,3.68,9.43,7.37,14.14,11.05.06-.06.12-.11.19-.17-1.03-1.13-2.02-2.29-3.08-3.39-1.06-1.1-2.12-2.22-3.3-3.18-2.82-2.3-5.71-4.5-8.56-6.75-.23-.18-.49-.42-.58-.68-1.05-3.35-2.08-6.7-3.22-10.41,17.04,10.4,28.82,24.95,37.01,42.62Zm-97.16-52.43c6.01,6.13,12.01,12.3,17.74,18.7,6.05,6.76,10.42,14.65,14.66,22.65,6.02,11.37,8.9,23.64,10.88,36.17,1.08,6.83.62,13.61-2.99,19.82-.42.73-.9,1.43-1.43,2.08-.87,1.06-1.95,1.5-3.37,1.11-4.83-1.33-8.47-4.34-11.71-7.99-3.21-3.63-4.77-8.03-6.02-12.58-2.33-8.48-5.66-16.58-9.73-24.33-3.99-7.6-8.45-14.96-12.87-22.33-1.37-2.29-3.3-4.24-4.94-6.37-.8-1.04-1.55-2.12-2.31-3.17,2.72-4.31,1.69-8.59.78-12.94,18.67,15.48,31.13,35.45,41.81,56.73.12-.05.24-.1.35-.15-1.11-2.85-2.07-5.77-3.36-8.53-8.68-18.63-21.32-34.34-36.11-48.41-2.09-1.99-3.28-4.08-3.65-7-.8-6.4-2.8-12.54-5.06-18.57-.24-.63-.46-1.27-.49-2.14.45.35.95.66,1.36,1.06,5.5,5.39,11.07,10.71,16.46,16.21Zm-46.02,98.77c.1,2.26-.34,4.64-.98,6.83-1.1,3.76-4.31,5.66-8.51,5.28-.68-4.25-1.45-8.55-2.03-12.88-.93-6.86-3.89-12.96-6.74-19.15-1.51-3.28-2.46-6.81-3.74-10.2-5.23-13.93-11.84-27.15-20.13-39.52-.09-.13-.15-.29-.26-.4-2.59-2.36-2.03-5.41-2.05-8.43-.03-5.59-2.61-10.34-5.54-14.9-.54-.84-1.12-1.65-1.69-2.48,2.01-.83,2.87-.6,4.11.85,5.91,6.91,11.35,14.19,16.04,21.97,5.29,8.79,10.88,17.46,14.09,27.35.56,1.74,1.6,3.32,2.38,4.99,1.07,2.28,2.07,4.6,3.18,6.86,1.46,2.98,2.98,5.93,4.51,8.87,4.08,7.85,7,16.06,7.38,24.96ZM31.76,117.11c-.26,1.46-1.32,2.38-2.82,2.62-2.09.34-2.83-.3-2.94-2.37-.38-7.63-.78-15.26-1.16-22.89.05-.03.11-.06.16-.09,1.69,4.01,3.44,8,5.04,12.05.81,2.05,1.51,4.17,1.92,6.33.27,1.39.07,2.93-.19,4.36Zm-5.6,7.35c3.25,4.97,5.76,10.08,5.82,16,.02,1.73-.69,3.49-1.2,5.19-.72,2.44-2.82,3.3-4.99,3.88-1.29.34-1.5-.79-1.44-1.66.56-7.72,1.18-15.43,1.8-23.41Zm61.67,225.31c2.93,4.1,5.86,8.2,8.79,12.3.11-.08.23-.15.34-.23-1.7-2.87-3.39-5.75-5.12-8.61-.95-1.58-2.52-3.04-2.78-4.72-.25-1.6.9-3.4,1.32-5.14.53-2.2.96-4.43,1.43-6.64.1-.49.23-.97.74-1.6,2.14,3.73,4.44,7.38,6.39,11.22,3.23,6.35,6.24,12.84,7.37,19.94.39,2.45.39,5.1-.1,7.52-.93,4.65-4.83,6.65-9.4,5.2-.9-.28-1.79-.66-2.62-1.1-2.66-1.43-2.35-1.5-2.3-4.45.06-3.66-.16-7.4-.87-10.99-.75-3.8-2.22-7.45-3.36-11.17-.14-.44-.17-.92-.26-1.38.14-.06.29-.12.43-.17Zm9.32,65.59c3.78,2.12,7.15,4.02,10.52,5.92.32.18.59.43.9.64,3.46,2.26,5.82,5.13,6.8,9.4.81,3.55,2.65,6.86,4.04,10.27.33.82.67,1.63,1,2.45-.1.1-.2.2-.3.29-6.87-7.22-15.47-11.58-24.82-15.02,1.84-4.31,2.13-8.79,1.87-13.94Zm33.2,75.1c.89-1.16,1.89-2.23,3.03-3.55,1.2,5.79,2.38,11.44,3.56,17.1-.11.06-.23.12-.34.18-1.77-1.39-3.55-2.75-5.28-4.19-.25-.21-.28-.73-.34-1.12-.32-2.34-.64-4.69-.9-7.03-.05-.45,0-1.05.27-1.38Zm.55,12.16c.75.42,1.38.72,1.95,1.11.6.42,1.1,1,1.73,1.37,2.29,1.36,3.32,3.26,3.66,5.98.6,4.9,1.69,9.75,2.56,14.62.09.5.14,1,.23,1.71-5.53-3.7-10.85-7.26-16.32-10.92,4.08-3.65,4.7-8.8,6.2-13.88Zm7.37-5.37c-2-9.86-4.4-19.65-6.82-29.42-1.2-4.86-2.82-9.61-4.25-14.4-.15-.5-.29-.99-.57-1.94,5.21,1.85,9.79,1.33,14.2-2.02,9.01,27.41,12.98,55.52,17.16,83.62,0-1.3.04-2.6-.01-3.89-.05-1.32-.15-2.64-.3-3.95-.89-7.82-1.45-15.69-2.78-23.43-1.84-10.69-4.05-21.34-6.52-31.91-1.56-6.71-3.86-13.25-5.86-19.85-.51-1.67-.41-3.11.67-4.61,1.9-2.66,2.42-5.8,2.53-9.01.06-1.63.07-3.28.28-4.89.07-.55.67-1.04,1.02-1.55.4.4.97.74,1.17,1.22,3.94,9.52,7,19.34,9.15,29.4,2.9,13.61,5.32,27.32,8.11,40.96,1.82,8.9,2.03,17.83,1.19,26.81-.49,5.25-1.25,10.49-3.55,15.34-.89,1.87-1.95,3.67-3.93,4.59-.92.43-1.96.87-2.94.86-2.88-.02-5.66-.93-7.68-2.9-1.34-1.31-2.36-3.32-2.75-5.18-1.06-5-1.69-10.09-2.54-15.13-1.62-9.57-3.04-19.18-4.97-28.69Zm56.39-8.82c7.68,4.82,15,9.42,22.32,14.02.1-.09.2-.17.3-.26-.43-.3-.87-.58-1.28-.91-.41-.33-.79-.71-1.18-1.05-5.55-4.84-11.6-8.96-18.07-12.44-1.46-.78-1.9-1.64-1.72-3.32.43-3.92.57-7.87.85-12.2,3.25,1.93,6.3,3.69,9.29,5.53,10.3,6.35,18.48,14.96,25.95,24.33,3.43,4.3,6.28,8.92,7.19,14.41.45,2.72.53,5.56.36,8.32-.2,3.15-1.23,3.9-4.38,4.37-7.05,1.04-13.19-1.07-18.47-5.61-3.68-3.16-6.93-6.83-10.65-9.94-5.22-4.36-10.69-8.41-16.06-12.58-.53-.42-1.1-.79-1.6-1.15,4.98-2,7.14-5.76,7.15-11.52Zm37.16,10.62c-1.31-1.29-2.5-2.71-3.67-4.14-5.86-7.17-12.63-13.29-20.65-17.98-3.64-2.13-7.24-4.33-10.83-6.55-.37-.23-.73-.76-.77-1.18-.1-1.2-.04-2.41-.04-4,8.4,4.16,16.7,7.73,23.57,13.91-.41-.55-.79-1.12-1.23-1.64-4.88-5.63-11.19-9.22-17.74-12.46-.19-.09-.38-.19-.58-.25-3.32-.94-4.74-3.02-4.07-6.49.16-.81.02-1.67.02-2.86,3.34,1.41,6.53,2.73,9.71,4.08,7.16,3.05,12.61,8.13,17.16,14.32.65.88,1.39,1.77,2.28,2.4,3.9,2.73,6.34,6.82,9.59,10.15,2.98,3.05,3.3,7.47,1.16,11.15-.46.79-1.23,1.51-2.03,1.93-.46.24-1.48,0-1.89-.4Zm-8.72-26.49c-3.88-7.2-10.35-11.23-17.35-14.63-2.88-1.4-5.93-2.46-8.93-3.61-.9-.35-1.26-.8-1.32-1.82-.18-3.47-.49-6.93-.78-10.77,3.31,1.92,6.83,2.89,9.12,5.99,3.56,4.82,8.04,8.31,14.21,9.17.67.09,1.28.59,2.19.62-.43-.18-.86-.37-1.28-.55,4.17-1.3,5.11-4.63,6.18-8.03,2.98,2.8,5.45,5.88,7.28,9.48,2.61,5.14,3.52,10.58,2.81,16.27-.41,3.31-2.49,4.41-5.55,3.12-2.68-1.13-5.19-2.66-6.57-5.23Zm101.16,15.02c-1.43-3.74-3.45-7.09-5.79-10.29-.43-.59-.75-1.26-1.11-1.89.11-.14.23-.27.34-.41,1.89,1.51,3.92,2.86,5.63,4.54,5.22,5.13,10.32,10.39,15.6,15.54-.29-.44-.54-.92-.89-1.31-4.77-5.34-9.49-10.72-14.36-15.96-1.49-1.6-3.46-2.76-5.11-4.23-.64-.57-1.25-1.41-1.43-2.23-.61-2.81-1.03-5.67-1.53-8.63.67.33,1.54.64,2.27,1.15,5.78,4.05,11.69,7.94,17.26,12.26,7.27,5.63,12.4,12.96,15.92,21.49,3.1,7.52,6.06,15.06,7.33,23.15.28,1.76.54,3.53.82,5.29-.09,0-.18.01-.28.02-2.45-3.61-4.85-7.25-7.36-10.82-4.98-7.08-10.87-13.3-17.79-18.52-2.27-1.72-4.62-3.35-6.73-5.25-1.17-1.05-2.24-2.46-2.8-3.91Zm7.94-16c-5.21-3.77-10.62-7.27-16.01-10.77-1.5-.97-2.64-2.05-3.53-3.64-1.39-2.5-3.12-4.81-4.71-7.21.05-.08.09-.15.14-.23,5.03,3.93,10.06,7.87,15.08,11.8.07-.06.14-.12.2-.18-1.29-1.38-2.53-2.82-3.89-4.14-3.87-3.75-7.87-7.34-12.56-10.06-1.39-.81-2.05-2.03-2.75-3.47-1.41-2.86-3.26-5.49-4.96-8.2-.46-.73-1.03-1.4-1.45-2.18,20.37,10.02,34.46,25.97,44.2,46.45-3.4-2.88-6.41-5.76-9.76-8.18Zm-9.54-22.75c-7.23-7.5-15.83-13.06-25.03-17.79-1.12-.58-2.21-1.25-3.22-2-1.42-1.06-2.89-2.05-2.61-4.28.11-.85-.54-1.79-.76-2.7-.11-.45-.02-.94-.02-1.41.46.14,1.01.17,1.35.45,2.97,2.46,5.88,4.98,8.84,7.44,1.16.96,2.42,1.79,3.63,2.68.1-.14.2-.29.31-.43-4.01-3.73-8.02-7.46-11.92-11.08,1.2-2.52,2.43-5.1,3.65-7.68,9.18,4.52,26.99,31.56,28.03,39.21-.87-.93-1.56-1.67-2.26-2.4Zm-25.46-40.53c.29-2.18.32-4.4.46-6.6h1.9c.87,1.06,1.62,2.25,2.62,3.15,3.07,2.78,4.23,6.43,5.03,10.29.32,1.53.69,3.05,1.06,4.71-1.73-1.66-3.29-3.21-4.91-4.69-1.71-1.57-3.43-3.13-5.21-4.61-.75-.63-1.1-1.16-.96-2.24Zm14.1,11.28c-.12-1.39-.54-2.76-.86-4.25,8.01,10.9,15.91,21.65,23.82,32.41-.13.1-.26.2-.39.3-1.82-2.28-3.65-4.56-5.47-6.83-4.15-5.18-8.06-10.65-13.39-14.68-2.51-1.9-3.47-4.06-3.72-6.93Zm18.28,18.39c-1.84-2.49-3.31-5.25-5.1-7.77-2.11-2.96-4.37-5.81-6.6-8.68-5.14-6.62-10.31-13.21-15.46-19.82-.41-.48-.77-1.02-1.24-1.43-2.6-2.28-3.82-5.05-3.8-8.57.02-2.72-.5-5.44-.77-8.09,1.06,2.17,1.97,4.53,3.3,6.62.99,1.55,2.35,3.05,3.9,4,2.67,1.65,5.08.8,8.15-2.42,2.54,3.32,5.06,6.61,7.58,9.91,6.6,9.14,13.19,18.29,19.79,27.43.04-.43-.09-.75-.27-1.04-3.6-5.82-7.16-11.66-10.84-17.43-1.94-3.05-4.09-5.98-6.14-8.96h-.32c-2.48-3.27-4.96-6.53-7.44-9.79-.44-.58-.91-1.15-.91-1.72.35-2.52.75-5.03,1.03-7.55.22-1.98.3-3.97.47-6.42,1.61,1.99,3.01,3.65,4.33,5.37,4.89,6.34,9.75,12.69,14.61,19.05.25.32.39.72.59,1.08h.32c2.01,3.4,4.16,6.71,5.98,10.2,3.52,6.73,6.68,13.65,8.05,21.2.38,2.1.42,4.34.17,6.45-.67,5.46-4.98,7.9-10.34,6.05-3.99-1.38-6.65-4.4-9.04-7.63Zm8.04-36.27c-3.16-4.94-6.9-9.41-10.84-13.75-2.31-2.55-4-5.66-6.05-8.47-1.59-2.17-3.31-4.24-4.94-6.38-.3-.39-.6-.91-.6-1.37-.04-4.48-.03-8.96-.03-13.44.17-.04.33-.09.5-.13,1.18,1.43,2.37,2.85,3.54,4.28,5.21,6.4,10.89,12.33,17.15,17.7.92.79,1.88,1.56,2.91,2.17,3.29,1.95,5.51,4.82,7.35,8.09,2,3.56,3.7,7.22,4.33,11.29.68,3.04-.12,5.85-1.34,8.59-.99,2.2-3.18,2.57-5.4,3.41-2.2-4-4.39-8-6.58-12Zm1.05-22.85c-8.18-6.97-15.29-14.95-21.92-23.38-1.01-1.28-1.41-2.52-1.51-4.1-.37-5.63-.91-11.25-1.37-16.88-.04-.47,0-.94,0-1.91,5.6,6.73,10.9,13.11,16.2,19.48.08-.05.16-.11.24-.16-.85-1.27-1.7-2.55-2.55-3.82,3.96,2.17,7.58,5.2,12.78,3.18.57,1.11,1.2,2.3,1.78,3.5,3.37,6.92,6.79,13.82,8.72,21.31.38,1.46.27,3.17-.06,4.67-.53,2.43-2.43,3.34-4.84,2.7-2.96-.78-5.22-2.69-7.47-4.61Zm3.08-33.43c-.9,3.53-3.78,4.9-7.23,3.68-4.57-1.62-7.93-4.75-10.71-8.57-4.39-6.03-7.85-12.56-11.04-19.32-2.19-4.63-3.21-9.43-4.34-14.29-2.76-11.86-6.98-23.21-12.38-34.1-3-6.05-6.28-11.95-9.49-17.89-.8-1.48-1.77-2.88-2.77-4.23-1.81-2.44-2.22-5.3-2.69-8.17-.98-5.87-3.17-11.36-5.44-16.81-.44-1.05-.81-2.13-1.14-3,2.31,2.18,4.93,4.24,7.03,6.75,2.25,2.69,3.97,5.82,5.97,8.72,7.62,11.06,14.06,22.79,19.87,34.87,4.54,9.45,9.31,18.82,13.31,28.5,3.19,7.72,5.38,15.85,7.98,23.81.46,1.39.76,2.84,1.37,4.23-.26-1.65-.45-3.31-.78-4.94-2.34-11.57-5.98-22.74-11.15-33.34-5.09-10.43-10.37-20.76-15.83-31-3.67-6.88-7.76-13.53-11.73-20.24-1.13-1.92-2.48-3.72-3.72-5.57,6.32,3.76,12.73,6.27,20.16,3.32,5.42,6.71,10.35,13.8,14.68,21.3,6.87,11.89,12.37,24.38,15.68,37.7,1.81,7.3,3.1,14.78,3.95,22.25.81,7.17.78,14.44,1.01,21.66.05,1.56-.19,3.17-.58,4.69Zm-34.06-112.32c-.52,2.56-2.54,3.8-5.06,4.05-4.8.48-9.23-1-12.96-3.74-4.19-3.07-8-6.7-11.81-10.26-1.91-1.79-3.64-3.85-5.11-6.02-1.38-2.03-2.48-4.28-3.4-6.56-4.28-10.55-10.63-19.8-18.16-28.2-5.81-6.47-12.12-12.48-18.21-18.69-.58-.59-1.23-1.13-2.21-2.03,4.72.12,7.31-2.32,9.24-6.09.79.72,1.48,1.32,2.13,1.95,5.38,5.22,10.94,10.26,16.07,15.71,8.76,9.28,17.54,18.6,24.53,29.33,3.79,5.82,7.05,11.98,10.54,18,.25.43.46.88.69,1.32.17-.08.33-.15.5-.23-1.86-4.1-3.58-8.27-5.62-12.28-4.19-8.24-9.94-15.39-16.03-22.27-9.07-10.22-18.06-20.51-28.31-29.6-.43-.39-.88-.75-1.32-1.13-1.72-1.49-3.82-2.7-3.73-5.45.01-.39-.27-.79-.45-1.18-1.92-4.15-3.71-8.37-5.81-12.43-1.89-3.64-4.12-7.1-6.2-10.64-.31-.53-.64-1.06-.96-1.58.08-.08.16-.15.23-.23,5.29,3.56,10.59,7.12,15.88,10.69,7.08,4.78,14.33,9.33,21.17,14.43,4.76,3.54,9.1,7.68,13.38,11.81,7.56,7.29,14.06,15.42,19.11,24.68,4.99,9.16,8.2,18.93,10.08,29.16.7,3.79,1.54,7.56,2.04,11.37.26,2,.18,4.13-.22,6.1Zm-9.01-47.28c-2.47-4.28-5.08-8.51-7.95-12.53-4.27-5.98-9.41-11.24-14.77-16.26-3.43-3.21-6.68-6.69-10.49-9.38-7.66-5.42-15.64-10.38-23.47-15.56-4.62-3.05-9.2-6.16-13.83-9.2-1.98-1.3-4.07-2.45-6.04-3.76-.94-.62-1.74-1.45-2.6-2.18.11-.12.22-.24.32-.35,2.34.75,4.67,1.55,7.03,2.21,1,.28,2.11.47,3.12.34,2.37-.3,4.46.38,6.56,1.34,10.06,4.59,20.16,9.09,30.2,13.73,8.53,3.94,16.31,9.15,23.35,15.3,6.07,5.3,11.66,11.15,17.46,16.75.33.32.67.64,1.01.95-2.3-4.27-5.33-7.89-8.7-11.24-7.32-7.28-15.18-13.94-24.21-18.98-5.92-3.3-12.23-5.92-18.43-8.71-6.14-2.76-12.36-5.35-18.54-8.02-.92-.4-1.82-.82-2.85-1.27,5.76-3.19,4.7-8.61,4.62-13.93,2.67.97,5.25,1.84,7.78,2.82,12.76,4.93,25.04,10.89,36.94,17.61,16.86,9.51,29.9,22.6,37.1,40.9,1.25,3.17,2.33,6.44,3.15,9.75.79,3.2.11,6.41-.87,9.51-.75,2.36-1.62,4.67-2.5,6.99-.54,1.45-1.44,2.65-3.1,2.85-7.63.91-16.31-2.75-20.3-9.67Zm26.59-16.82c-1.73-3.6-3.35-6.62-4.66-9.77-4.58-11.09-12.55-19.37-21.75-26.68-7.52-5.96-15.76-10.77-24.29-15.08-7.72-3.89-15.57-7.52-23.43-11.12-3.11-1.42-6.4-2.43-9.61-3.63-.89-.33-1.84-.62-1.62-2.27,2.1.28,4.18.52,6.24.84,6.88,1.05,13.77,2.06,20.64,3.2,11.34,1.89,22.32,4.93,32.7,10,9.79,4.78,17.41,11.79,22.58,21.41,2.07,3.84,4.44,7.57,6.09,11.58,2.31,5.62,2.14,11.47-.13,17.14-.58,1.45-1.68,2.69-2.75,4.37Zm2.73-26.78c-2.12-2.94-4.02-6.08-5.59-9.34-3.26-6.77-8.53-11.63-14.61-15.66-9.14-6.05-19.43-9.36-29.96-12-12.36-3.09-24.95-4.86-37.57-6.45-.41-.05-.96-.29-1.15-.62-1.72-3.06-3.38-6.17-5.12-9.39,3.83-1.58,4.84-4.9,4.65-8.78,6.74,1.62,13.33,3.26,19.95,4.78,13.08,3,25.8,7.12,38.13,12.44,6.53,2.81,11.68,7.45,16.69,12.36,3.04,2.98,6.22,5.83,9.39,8.69-.41-.52-.83-1.04-1.26-1.55-3.6-4.27-7.07-8.67-10.92-12.72-4.5-4.73-10.17-7.85-16.16-10.32-12.08-4.97-24.58-8.54-37.32-11.37-6.02-1.33-11.98-2.92-17.96-4.45-.52-.13-1.22-.6-1.34-1.05-.82-2.93-2.85-5.01-4.76-7.19-.51-.58-.96-1.21-1.31-1.67,1.28-.63,2.9-.91,3.51-1.85.95-1.47,1.34-3.36,1.74-5.13.24-1.05.04-2.19.04-3.49,6.11,1.43,11.98,2.7,17.8,4.18,5.87,1.5,11.78,2.94,17.52,4.86,13.16,4.42,25.67,10.22,36.93,18.48,2.5,1.84,5.1,3.54,7.58,5.41.83.62,1.47,1.52,2.11,2.35,3.35,4.34,6.91,8.54,9.96,13.09,4.66,6.94,8.87,14.18,9.19,22.89.17,4.58-.95,8.92-3.19,12.9-1.7,3.04-4.92,3.4-6.94.59Zm-109.79-77.08c-4.88-5.63-11.19-9.22-17.74-12.47-.19-.09-.38-.19-.58-.25-3.32-.94-4.74-3.02-4.07-6.49.16-.81.02-1.67.02-2.86,3.34,1.41,6.53,2.73,9.71,4.08,7.16,3.05,12.61,8.13,17.16,14.32.65.88,1.39,1.77,2.28,2.4,3.9,2.73,6.34,6.82,9.59,10.15,2.98,3.05,3.3,7.47,1.16,11.15-.46.79-1.23,1.51-2.03,1.93-.46.24-1.48,0-1.89-.4-1.31-1.29-2.5-2.71-3.67-4.14-5.86-7.17-12.63-13.29-20.65-17.98-3.64-2.13-7.24-4.33-10.83-6.55-.37-.23-.73-.76-.77-1.18-.1-1.2-.04-2.41-.04-4,8.4,4.16,16.7,7.73,23.57,13.91-.41-.55-.79-1.12-1.23-1.64Zm119.83,16.29c-4.77-5.34-9.49-10.72-14.36-15.96-1.49-1.6-3.46-2.76-5.11-4.23-.64-.57-1.25-1.41-1.43-2.23-.61-2.81-1.03-5.67-1.53-8.63.67.33,1.54.64,2.27,1.15,5.78,4.05,11.69,7.94,17.26,12.26,7.27,5.63,12.4,12.96,15.92,21.49,3.1,7.52,6.06,15.06,7.33,23.15.28,1.76.54,3.53.82,5.29-.09,0-.18.01-.28.02-2.45-3.61-4.85-7.25-7.36-10.82-4.98-7.08-10.87-13.29-17.79-18.52-2.27-1.72-4.62-3.35-6.73-5.25-1.17-1.05-2.24-2.45-2.8-3.91-1.43-3.74-3.45-7.09-5.79-10.29-.43-.59-.75-1.26-1.11-1.89l.34-.41c1.89,1.51,3.92,2.86,5.63,4.54,5.22,5.13,10.32,10.39,15.6,15.54-.29-.44-.54-.92-.89-1.31Zm-17.47-9.47c1.37,3.64,3.14,7.13,4.44,10.79.56,1.58.54,3.43.46,5.15-.09,1.81-1.1,2.53-2.92,2.67-2.37.18-4.21-.96-5.81-2.44-6.01-5.54-12.65-10.18-19.9-13.94-10.11-5.24-20.77-9.05-31.71-12.07-8.89-2.45-17.81-4.8-26.76-7-2.37-.58-1.02-2.5-2.14-3.41.11-.09.23-.17.34-.26,4.08.46,8.15.92,12.23,1.37,6.3.7,12.6,1.39,18.89,2.11,9.79,1.11,18.91,4.18,27.33,9.32,3.37,2.06,6.76,4.1,10.15,6.14.67.4,1.36.77,2.04,1.15-4.63-4.31-9.83-7.87-15.43-10.87-8.64-4.63-18.02-6.43-27.61-7.52-9.02-1.03-18.05-2.03-27.06-3.09-.5-.06-1.24-.46-1.39-.87-1.51-4.28-4.38-7.66-7.12-11.15-.68-.86-1.31-1.76-2.2-2.96,2.2.45,4.04.93,5.92,1.18,5.65.75,11.34,1.25,16.96,2.16,6.72,1.08,13.39,2.45,20.06,3.77,5.27,1.05,10.54,2.13,15.76,3.37,5.28,1.26,10.03,3.66,14.52,6.75,4.9,3.37,10.19,6.17,14.47,10.43,2.72,2.71,5.11,5.56,6.49,9.22Zm47.19,68.7c-1.11-1.41-2.22-2.82-3.34-4.22-7.14-8.92-15.32-16.8-24.95-22.92-3.71-2.36-6.7-4.77-8.87-8.71-2.17-3.92-5.39-7.26-8.15-10.86-.41-.53-.79-1.08-1.21-1.65,2.38-.65,4.32-.31,6.14,1.38,5.19,4.79,10.52,9.43,15.74,14.19,3.22,2.94,6.33,6.01,9.63,8.87-7.62-9.88-16.67-18.3-26.27-25.49.29-2.11.68-3.75.69-5.39.02-1.61-.35-3.21-.57-5.03.48.23.87.36,1.19.58,8.98,6.54,17,14.01,23.27,23.28,3.19,4.71,6.81,9.15,9.16,14.37,2.38,5.28,4.64,10.62,6.78,16,.67,1.68.77,3.59,1.12,5.39-.12.07-.24.14-.36.21Zm-25.81-73.24c-3.4-2.88-6.41-5.76-9.76-8.18-5.21-3.77-10.62-7.27-16.01-10.77-1.5-.97-2.64-2.05-3.53-3.64-1.39-2.5-3.12-4.81-4.71-7.21.05-.08.09-.15.14-.23,5.03,3.93,10.06,7.87,15.08,11.8.07-.06.14-.12.2-.18-1.29-1.38-2.53-2.82-3.89-4.14-3.87-3.75-7.87-7.34-12.56-10.06-1.39-.81-2.05-2.03-2.75-3.47-1.41-2.86-3.26-5.49-4.96-8.2-.46-.73-1.03-1.4-1.45-2.18,20.37,10.02,34.46,25.97,44.2,46.45Zm-52.63-58.91c.52,1.38,1.04,2.76,1.62,4.32-2.51-.84-2.42-2.01-1.62-4.32Zm-2.69,14.83c.74-3.18,1.39-6.38,2.13-9.84,1.13,1.12,2.39,2.15,3.38,3.38,3.39,4.23,6.77,8.48,9.99,12.85.93,1.27,1.32,2.94,1.95,4.42-5.43-3.56-10.88-6.65-16.66-9.14-.89-.38-.99-.8-.79-1.68Zm-6.58,14.04c6.07,2.53,12,5.38,18.14,8.15-6.12-5.07-12.97-8.55-20.07-11.05,1.51-1.04,3.32-1.92,4.62-3.27,1.31-1.37,2.12-3.23,3.3-5.1,1.77.93,3.75,1.89,5.64,2.99,5.2,3.02,10.48,5.91,14.72,10.32,5.52,5.74,8.61,12.55,9.09,20.51.01.24-.05.48-.05.56-4.47-3.14-8.8-6.29-13.23-9.28-2.96-2-5.96-4.02-9.16-5.59-5.34-2.61-11.14-3.85-16.98-4.82-11.03-1.83-22.07-3.62-33.12-5.35-4.95-.77-9.93-1.31-14.9-2-1.08-.15-2.14-.48-3.23-.73v-4.39c.43,0,.74-.02,1.04,0,9.14.83,18.28,1.75,27.44,2.48,9.29.74,18.2,2.99,26.77,6.56Zm-17.48-16.72c.45,1.51.82,3.05,1.18,4.59.44,1.89,1.45,3.35,3.07,4.42.87.57,1.63,1.31,2.7,2.18-3.04-.57-5.73-1.26-8.46-1.56-5.77-.64-11.56-1.09-17.33-1.61-5.83-.53-11.67-1.05-17.5-1.58-.74-.07-1.24-.24-1.23-1.22.04-3.85-.02-7.7-.04-11.55,0-.25.04-.51.07-.94,2.61.5,5.11,1.07,7.64,1.46,6.15.95,12.31,1.78,18.45,2.76,3.54.56,7.05,1.31,10.56,2.04.36.08.77.62.9,1.03ZM228.58,2.81c2.02,1.59,4.47,2.74,6.89,3.7,2.72,1.07,5.1.02,6.84-2.23.64-.83,1.26-1.19,2.24-.94,4.94,1.26,9.89,2.51,14.83,3.8.32.08.78.35.83.61.67,3.33,1.28,6.68,1.9,10.02-12.54-1.99-24.91-3.96-37.28-5.92-.44-3.72-.84-7-1.24-10.36,1.85-.07,3.38.05,5,1.33Zm-24.74,32.6c3.56,4.82,8.04,8.31,14.21,9.17.67.09,1.28.59,2.19.62-.43-.18-.86-.37-1.28-.55,4.17-1.3,5.11-4.63,6.18-8.03,2.98,2.8,5.45,5.88,7.28,9.48,2.61,5.14,3.52,10.58,2.81,16.27-.41,3.31-2.49,4.41-5.55,3.12-2.68-1.13-5.19-2.66-6.57-5.23-3.88-7.2-10.35-11.23-17.35-14.63-2.88-1.4-5.93-2.46-8.93-3.61-.9-.35-1.26-.8-1.32-1.82-.18-3.47-.49-6.93-.78-10.77,3.31,1.92,6.83,2.89,9.12,5.99Zm-10.65-16.82c2.34,3.95,4.48,7.56,6.78,11.43-1.86-.85-3.54-1.6-5.19-2.39-.19-.09-.36-.41-.39-.65-.4-2.7-.78-5.41-1.2-8.39Zm1.47,57.52c7.68,4.82,15,9.42,22.32,14.02.1-.09.2-.17.3-.26-.43-.3-.87-.58-1.28-.91-.41-.33-.79-.7-1.18-1.05-5.55-4.84-11.6-8.96-18.07-12.44-1.46-.78-1.9-1.64-1.72-3.32.43-3.92.57-7.87.85-12.2,3.25,1.93,6.3,3.69,9.29,5.53,10.3,6.35,18.48,14.96,25.95,24.33,3.43,4.3,6.28,8.92,7.19,14.41.45,2.72.53,5.56.36,8.32-.2,3.15-1.23,3.9-4.38,4.37-7.05,1.04-13.19-1.07-18.47-5.61-3.68-3.16-6.93-6.83-10.65-9.94-5.22-4.36-10.69-8.41-16.06-12.58-.53-.42-1.1-.79-1.6-1.15,4.98-2,7.14-5.76,7.15-11.52Zm-17.71-2.08c.77,1.78,1.45,3.6,2.32,5.33.91,1.81,2,3.53,3.09,5.44-2.86-.05-4.68-1.25-5.18-3.67-.46-2.26-.59-4.59-.86-6.88l.62-.21Zm42.73,70.5c.14-.1.28-.21.42-.31-.12-.34-.2-.7-.37-1.02-2.74-5.43-6.46-10.18-10.82-14.33-6.33-6.04-12.73-12.03-19.44-17.64-3.68-3.07-8.06-5.31-12.23-8,1.02-4.88,1.1-10.09.89-15.32-.02-.58.25-1.17.39-1.75.64.16,1.39.16,1.9.51,2.92,1.97,5.78,4.02,8.66,6.05,7.47,5.26,14.64,10.89,21.08,17.4,5.11,5.15,9.51,10.83,13.66,16.79,4.94,7.1,8.57,14.88,12.44,22.53.87,1.71.8,3.97.88,5.99.06,1.74-1.14,2.75-2.75,3.26-5.04,1.59-9.9.97-14.64-1.16-.63-.28-1.24-.58-1.86-.88-2.01-.96-3.74-2.17-5.03-4.13-1.12-1.69-2.77-3.03-4.15-4.55-2.76-3.04-5.42-6.17-8.25-9.15-3.88-4.09-8.56-7.17-13.28-10.19-.89-.57-1.8-1.09-2.69-1.67-.35-.23-.78-.47-.93-.81-1.21-2.73-2.28-5.53-3.56-8.23-1.25-2.64-2.56-5.28-4.12-7.75-.84-1.32-.1-2.01.35-2.95,16.68,9.92,32.22,21.08,43.45,37.31ZM151.14,16.91c3.14-.91,4.54-3.38,5.48-6.25.16-.49.33-.97.63-1.84.92,2.3,1.75,4.21,2.47,6.17,3.48,9.56,6.4,19.29,8.66,29.2,2.25,9.87,4.42,19.76,6.33,29.69,1.47,7.65,1.93,15.42,1.09,23.19-.36,3.38-1.19,6.73-2.05,10.02-.3,1.14-1.25,2.17-2.08,3.1-.38.42-1.32.77-1.76.58-.46-.2-.81-1.07-.86-1.68-.12-1.36-.06-2.74,0-4.12.29-6.69-.55-13.23-2.06-19.76-1.6-6.87-2.84-13.84-3.91-20.82-1.89-12.34-4.79-24.4-8.99-36.16-1.17-3.28-2.29-6.57-3.43-9.85-.21-.61-.49-1.19.49-1.47Zm-10.31,20.24c9.01,27.41,12.98,55.52,17.16,83.62,0-1.3.04-2.6-.01-3.89-.05-1.32-.15-2.64-.3-3.95-.89-7.82-1.45-15.69-2.78-23.43-1.84-10.69-4.05-21.34-6.52-31.91-1.56-6.71-3.86-13.25-5.86-19.85-.51-1.67-.41-3.11.67-4.61,1.9-2.66,2.42-5.8,2.53-9.01.06-1.63.07-3.28.28-4.89.07-.55.67-1.04,1.02-1.55.4.4.97.74,1.17,1.22,3.94,9.52,7,19.34,9.15,29.4,2.9,13.61,5.32,27.32,8.11,40.96,1.82,8.9,2.03,17.83,1.19,26.81-.49,5.25-1.25,10.49-3.55,15.34-.89,1.87-1.95,3.67-3.93,4.59-.92.43-1.96.87-2.94.86-2.88-.02-5.66-.93-7.68-2.9-1.34-1.31-2.36-3.32-2.75-5.18-1.06-5-1.69-10.09-2.54-15.13-1.62-9.57-3.04-19.18-4.97-28.69-2-9.86-4.4-19.65-6.82-29.42-1.2-4.86-2.82-9.61-4.25-14.4-.15-.5-.29-.99-.57-1.94,5.21,1.85,9.79,1.33,14.2-2.02ZM97.15,3.03c3.78,2.12,7.15,4.02,10.52,5.92.32.18.59.43.9.64,3.46,2.26,5.82,5.13,6.8,9.39.81,3.55,2.65,6.86,4.04,10.27.33.82.67,1.63,1,2.45-.1.1-.2.2-.3.29-6.87-7.22-15.47-11.58-24.82-15.02,1.84-4.31,2.13-8.79,1.87-13.94Zm-2.35,15.39c2.54,1.13,5.16,2.21,7.71,3.44,5.15,2.49,9.94,5.53,14.16,9.45,4.66,4.33,7.56,9.56,9.11,15.74,1.86,7.4,4.11,14.71,6.19,22.06.66,2.33-.92,5.78-3.26,6.96-1.47-3.08-2.94-6.16-4.41-9.24-2.88-6.07-6.08-11.94-10.85-16.79-7.93-8.06-16.78-14.93-26.74-20.3-1.38-.74-2.33-1.47-2.02-3.23.12-.7-.08-1.45-.15-2.22q5.06,1.58,10.25-5.87Zm-17.6,26.98c13.65,8.08,25.06,18.24,35.33,29.84-.46-2.08-5.22-8.25-9.83-12.48-3.93-3.59-7.88-7.19-12.07-10.46-4.22-3.28-8.76-6.15-13.22-9.25,3.54-3.24,6.17-7.16,7.09-12.43,2.88,1.67,5.58,3.15,8.2,4.78,7.65,4.77,14.63,10.36,20.5,17.25,4.5,5.28,8.33,11.02,11.05,17.42,1.7,4.01,3.3,8.09,4.65,12.23,1.24,3.8.51,7.64-.68,11.36-.71,2.21-1.58,4.36-2.38,6.54-.78,2.16-2.33,3.08-4.61,3.09-6.56.04-12.3-1.98-16.67-6.94-1.74-1.98-2.9-4.49-4.24-6.82-3.88-6.77-8.82-12.71-14.15-18.34-2.79-2.95-5.76-5.71-8.62-8.59-.32-.32-.7-.94-.6-1.28,1.49-5.14,1.32-10.32.25-15.92Zm-19.65,23.29c2.26,2.29,5.01,3.84,8.12,4.72,2.77.79,5.1-.06,6.72-2.3,1.34-1.86,2.3-4,3.53-6.21,3.22,3.27,6.58,6.46,9.7,9.87,10.88,11.88,18.67,25.5,22.33,41.27,1.59,6.87,2.7,13.85,3.89,20.81.21,1.25-.03,2.65-.37,3.89-.7,2.61-2.62,3.85-5.24,4.06-4.86.39-9.31-1.09-13.09-3.88-4.05-3-7.87-6.39-11.39-10-4.1-4.22-7.44-8.95-9.62-14.66-3.11-8.17-8.12-15.39-13.77-22.05-2.13-2.52-3.17-4.99-3.09-8.34.09-4.15-.52-8.31-.86-12.97,16.62,17.5,33.13,34.49,43.12,56.51.15-.08.31-.16.46-.24-1.24-2.99-2.37-6.03-3.75-8.95-4.29-9.09-10.2-17.11-16.9-24.54-7.17-7.95-14.48-15.76-21.79-23.58-1.1-1.18-1.82-2.32-1.87-3.98-.04-1.44-.42-2.87-.71-4.69,1.71,1.97,3.06,3.7,4.58,5.24Zm-33.92,17.1c.23.37.47.73.68,1.11,3.37,6.22,6.97,12.32,11.61,17.68,2.69,3.1,6.09,5.32,10.14,6.45.74.21,1.5.76,1.98,1.36,5.34,6.66,9.6,14.02,13.33,21.65,4.44,9.08,8.54,18.34,12.78,27.52.2.43.4.85.61,1.28-5.73-18.56-14.18-35.79-25.77-51.42.12-.11.19-.2.27-.25,1.26-.74,2.99-1.18,3.68-2.27,1.58-2.48,2.6-5.23,2.03-8.39-.33-1.82-.06-3.76.28-5.77,1.28,1.64,2.6,3.26,3.83,4.94,6.42,8.76,11.58,18.21,15.76,28.24,4.07,9.77,7.31,19.76,9.21,30.17,1.76,9.67,2.99,19.41,3.01,29.26,0,2.11-.39,4.14-1.92,5.7-2.38,2.42-6.09,2.07-8.59-1-4.95-6.06-9.48-12.43-12.37-19.77-3.73-9.46-8.92-18.14-13.91-26.95-4.51-7.97-10.5-14.76-16.24-21.78-.63-.77-1.19-1.6-1.74-2.34.65-1.22,1.35-2.29,1.8-3.45,1-2.56,1.04-5.17-.04-7.72-2.59-6.11-5.19-12.22-7.85-18.3-.86-1.96-1.91-3.83-2.56-5.95Zm-15.82,81.86c.87-6.38.58-12.74,0-19.6,4.32,6.04,8.35,11.67,12.38,17.31.11-.07.21-.13.32-.2-2.34-3.93-4.67-7.86-7.07-11.88,4.04,1.29,5.87,1.68,9.49-2.8,2.84,6.47,5.96,12.78,6.89,19.83.4,2.99.4,6.01-1.15,8.79-1.39,2.47-4.51,3.85-7.19,3.06-.5-.15-.93-.64-1.34-1.04-3.81-3.78-7.64-7.55-11.39-11.38-.51-.52-1.03-1.43-.94-2.08Zm-4.8,18.84c-.33-.24-.53-.76-.63-1.19-.29-1.33-.51-2.67-.72-4.01-.08-.47-.07-.96-.1-1.44.51.18,1.12.23,1.5.55,2.07,1.72,4.06,3.54,6.13,5.26,1.92,1.59,3.91,3.09,5.86,4.64.13-.16.27-.32.4-.48-3.94-3.69-7.87-7.37-11.63-10.89,1.23-2.66,2.41-5.21,3.58-7.74,9.11,4.92,26.26,29.84,26.89,37.77-2.32-2.12-4.57-4.32-6.98-6.34-5.52-4.62-11.6-8.4-17.97-11.75-2.26-1.19-4.26-2.86-6.34-4.38Zm19.22,28.26c-1.02-2.18-2.79-4.01-4.1-6.18,5.23,4.09,10.47,8.18,15.7,12.27.1-.11.2-.21.3-.32-2.67-2.57-5.22-5.29-8.04-7.68-2.85-2.41-5.96-4.5-8.99-6.69-1.1-.8-1.93-1.67-2.29-3.07-.88-3.42-3.24-5.99-5.31-8.72-.38-.5-.77-.98-1.03-1.61,10.02,4.6,18.59,11.18,26.07,19.21,7.45,7.99,13.26,17.09,18.12,27.34-2.64-2.36-4.8-4.63-7.28-6.44-5.41-3.95-10.91-7.77-16.51-11.43-2.74-1.79-5.18-3.56-6.64-6.69Zm12.73,32.41c-1.64-4.04-3.72-7.79-6.41-11.22-.28-.35-.43-.8-.64-1.21.11-.13.21-.25.32-.38,1.17.79,2.49,1.43,3.49,2.4,4.95,4.82,9.82,9.73,14.7,14.61.77.77,1.51,1.59,2.49,2.2-1.5-1.91-2.94-3.87-4.5-5.73-4.76-5.67-9.71-11.14-15.85-15.4-.4-.28-.68-.91-.78-1.42-.6-2.98-1.13-5.98-1.7-9.06.73.34,1.62.62,2.36,1.14,5.99,4.22,12.11,8.28,17.87,12.79,6.77,5.29,11.58,12.17,14.91,20.12,2.87,6.86,5.74,13.71,7.17,21.06.51,2.63.91,5.28,1.36,7.93-.12.02-.23.04-.35.06-2.79-4.01-5.52-8.06-8.38-12.02-4.37-6.06-9.45-11.46-15.4-16.02-2.8-2.15-5.64-4.26-8.32-6.55-1-.85-1.85-2.07-2.35-3.3Zm8.25,32.63c-3.18-4.39-6.24-8.86-9.37-13.29-.6-.85-1.31-1.63-2.04-2.53,2.17-.66,4-.7,5.79.96,6.6,6.13,13.31,12.16,19.96,18.24,2,1.83,3.96,3.71,5.94,5.57-7.6-10.22-16.86-18.65-26.97-26.34,2.31-3.13,1.02-6.5.61-10.24,7.69,5.73,14.69,11.47,20.49,18.71,13.77,17.18,20.5,34.89,20.8,41.4-2.13-2.59-4.11-5.09-6.18-7.52-6.63-7.81-14.34-14.43-22.78-20.21-1.04-.71-2.34-1.04-3.33-1.79-1.1-.83-2.12-1.84-2.93-2.96Zm3.9,7.41c-.22-.53-.44-1.06-.44-1.89,1.33.74,2.74,1.36,3.98,2.23,7.46,5.23,14.43,11.02,19.97,18.33,3.21,4.24,6.6,8.4,9.32,12.94,4.52,7.54,5.85,15.92,5.12,25.08-.65-1.03-1.06-1.79-1.56-2.47-4.12-5.61-8.21-11.23-12.39-16.79-3.31-4.4-7.67-7.65-12.12-10.78-2.8-1.97-5.61-3.95-8.44-5.88-.76-.52-1.07-.99-.71-1.95.37-.97.48-2.03.75-3.28,8.54,5.28,14.23,13.35,21.49,19.84-.17-.31-.31-.64-.51-.94-5.31-8.07-12.05-14.76-19.76-20.53-.49-.37-1.09-1.01-1.1-1.54-.13-4.45-1.93-8.38-3.6-12.37Zm-7.08,30.35c2.2-.17,4.34-.3,5.69-2.02,1.24-1.58,2.12-3.44,3.3-5.4,1.25.78,2.78,1.74,4.32,2.68,9.1,5.49,16.24,13.02,22.57,21.44,3.62,4.81,7.42,9.52,9.66,15.17,2.59,6.55,4.01,13.43,4.91,20.39.22,1.74-.02,3.59-.33,5.34-.42,2.35-1.98,3.16-3.89,1.75-1.94-1.44-3.68-3.29-5.11-5.26-2.87-3.97-5.29-8.26-8.2-12.19-6.44-8.69-14.13-16.21-22.39-23.16-2.01-1.69-4.21-3.17-6.36-4.69-1.59-1.12-2.41-2.53-2.3-4.54.12-2.13.03-4.27.03-6.45,1.73,1.06,3.62,2.27,5.54,3.4,7.92,4.64,14.07,11.2,19.91,18.13,2.81,3.33,5.71,6.59,8.57,9.89-4.46-7.21-9.61-13.8-15.56-19.76-5.97-5.98-13.34-10.01-20.36-14.7Zm-2.31,36.68c.65.33,1.26.51,1.72.89,6.46,5.34,12.99,10.6,19.31,16.1,6.62,5.76,11.95,12.61,16.01,20.42,1.75,3.37,3.53,6.71,5.3,10.07,1.28,2.46,2.56,4.93,3.84,7.39.1-.05.2-.1.3-.14-.96-2.42-1.92-4.83-2.87-7.25-2.98-5.87-5.78-11.84-8.99-17.58-3.49-6.24-8.52-11.28-13.9-15.89-6.49-5.56-13.2-10.85-19.78-16.3-.41-.34-.69-.98-.79-1.52-.42-2.38-.75-4.77-1.09-7.17-.04-.32-.05-.79.13-.96,2.85-2.62,4.34-5.91,4.83-10.12,1.34.99,2.46,1.75,3.5,2.6,9.04,7.41,17.39,15.52,24.77,24.6,3.35,4.13,6.94,8.12,9.85,12.54,2.29,3.49,3.65,7.58,5.53,11.36,2.94,5.92,5.17,12.11,7.05,18.43.82,2.93,1.83,5.83,2.43,8.81,1.59,7.9,1.1,15.53-3.64,22.43-.38.56-.85,1.08-1.36,1.52-2.24,1.93-5.16.85-5.98-2.01-1.53-5.36-2.97-10.76-4.89-15.98-1.94-5.3-4.78-10.2-8.13-14.77-3.94-5.8-8.63-10.97-14.06-15.34-5.94-4.78-12.23-9.14-18.4-13.64-2.21-1.61-4.52-3.07-6.91-4.68,4.13-3.65,4.71-8.83,6.23-13.82Zm-17.17,14.1c2.87.24,5.74.47,8.61.74.55.05,1.17.13,1.62.41,11.76,7.32,23.02,15.3,32.59,25.41,2.02,2.13,3.74,4.54,5.59,6.82h.32c1.72,2.88,3.65,5.67,5.12,8.68,1.5,3.06,2.58,6.32,3.78,9.52,1.3,3.45,2.53,6.92,3.78,10.39,2.29,6.36,1.22,12.37-1.96,18.12-1.01,1.82-2.17,3.56-3.53,5.3-3.74-19.48-12.83-36.3-24.32-52-10.62-11.14-21.23-22.29-31.8-33.39-.11,0,.04-.01.2,0Zm28.66,94.4c-2.15-6.43-4.6-12.78-7.38-18.97-2.6-5.8-5.64-11.42-8.75-16.98-3.25-5.79-6.67-11.5-11.21-16.43-.25-.27-.45-.59-.7-.86-1.16-1.28-1.73-2.53-.65-4.28.6-.98.6-2.32.87-3.5-.34-2.47-.69-4.95-1.03-7.42.08-.1.17-.2.25-.3,2.69,2.57,5.38,5.15,8.07,7.72h.32c.2.29.38.61.61.87,2.66,2.99,5.44,5.88,7.96,8.99,8.83,10.9,16.12,22.78,22.45,35.28.66,1.31,1.36,2.61,2.16,4.13.07-.41.12-.52.09-.61-2.51-7.65-6.06-14.81-10.37-21.59-6.15-9.68-13.05-18.78-21-27.07-3.38-3.4-6.78-6.78-10.13-10.21-.4-.41-.75-1.03-.82-1.6-1.03-7.83-3.11-15.38-6.07-22.69-.11-.28-.15-.58.05-1.09.59.52,1.22,1.02,1.78,1.57,8.65,8.58,17.33,17.14,25.91,25.79,2.59,2.61,4.92,5.47,7.37,8.22h.32c1.7,2.27,3.43,4.51,5.09,6.81,4.74,6.57,8.47,13.72,11.98,20.99,3.7,7.67,5.65,15.88,7.25,24.16.92,4.74,1.46,9.6,1.62,14.43.17,4.97-1.2,9.72-4.09,13.88-1.59,2.29-2.71,2.61-5.43,1.55-3.97-1.53-7.19-4.11-10.02-7.27-3.49-3.91-4.89-8.72-6.5-13.54Zm-19.39,119.91c.4,2.99.4,6.01-1.15,8.79-1.39,2.47-4.51,3.85-7.19,3.06-.5-.15-.93-.64-1.34-1.04-3.81-3.78-7.64-7.55-11.39-11.38-.51-.52-1.03-1.43-.94-2.08.87-6.38.58-12.74,0-19.6,4.32,6.04,8.35,11.67,12.38,17.31.11-.06.21-.13.32-.2-2.34-3.93-4.67-7.86-7.07-11.88,4.04,1.29,5.87,1.68,9.49-2.8,2.84,6.47,5.96,12.78,6.89,19.83Zm2.15-29.84c.02,1.73-.69,3.49-1.2,5.19-.72,2.44-2.82,3.3-4.99,3.88-1.29.34-1.5-.79-1.44-1.66.56-7.72,1.18-15.43,1.8-23.41,3.25,4.97,5.76,10.08,5.82,16Zm-.22-23.35c-.26,1.46-1.32,2.38-2.82,2.62-2.09.34-2.83-.3-2.94-2.37-.38-7.63-.78-15.26-1.16-22.89.05-.03.11-.06.16-.09,1.69,4.01,3.44,8,5.04,12.05.81,2.05,1.51,4.17,1.92,6.33.27,1.39.07,2.93-.19,4.36Zm52.29,40.98c1.76,9.67,2.99,19.41,3.01,29.26,0,2.11-.39,4.14-1.92,5.7-2.38,2.42-6.09,2.07-8.59-1-4.95-6.06-9.48-12.43-12.37-19.77-3.73-9.46-8.92-18.14-13.91-26.95-4.51-7.97-10.5-14.76-16.24-21.78-.63-.77-1.19-1.6-1.74-2.34.65-1.22,1.35-2.29,1.8-3.45,1-2.56,1.04-5.17-.04-7.72-2.59-6.11-5.19-12.22-7.85-18.3-.86-1.96-1.91-3.83-2.56-5.95.23.37.47.73.68,1.11,3.37,6.22,6.97,12.32,11.61,17.68,2.69,3.1,6.09,5.32,10.14,6.45.74.21,1.5.76,1.98,1.36,5.34,6.66,9.6,14.02,13.33,21.65,4.44,9.08,8.54,18.34,12.78,27.52.2.43.4.85.61,1.28-5.73-18.56-14.18-35.79-25.77-51.42.12-.11.19-.2.27-.25,1.26-.74,2.99-1.18,3.68-2.27,1.58-2.48,2.6-5.23,2.03-8.39-.33-1.82-.06-3.76.28-5.77,1.28,1.64,2.6,3.26,3.83,4.94,6.42,8.76,11.58,18.21,15.76,28.24,4.07,9.77,7.31,19.76,9.21,30.17Zm23.89-42.04c1.59,6.87,2.7,13.85,3.89,20.81.21,1.25-.03,2.65-.37,3.89-.7,2.61-2.62,3.85-5.24,4.06-4.86.39-9.31-1.09-13.09-3.88-4.05-3-7.87-6.39-11.39-10-4.1-4.22-7.44-8.95-9.62-14.66-3.11-8.17-8.12-15.39-13.77-22.05-2.13-2.52-3.17-4.99-3.09-8.34.09-4.15-.52-8.31-.86-12.97,16.62,17.5,33.13,34.49,43.12,56.51.15-.08.31-.16.46-.24-1.24-2.99-2.37-6.03-3.75-8.95-4.29-9.09-10.2-17.11-16.9-24.54-7.17-7.95-14.48-15.76-21.79-23.58-1.1-1.18-1.82-2.32-1.87-3.98-.04-1.44-.42-2.87-.71-4.69,1.71,1.97,3.06,3.7,4.58,5.24,2.26,2.29,5.01,3.84,8.12,4.72,2.77.79,5.1-.06,6.72-2.3,1.34-1.86,2.3-4,3.53-6.21,3.22,3.27,6.58,6.46,9.7,9.87,10.88,11.88,18.67,25.5,22.33,41.27Zm-3.38-19.7c-1.74-1.98-2.9-4.49-4.24-6.82-3.88-6.77-8.82-12.71-14.15-18.34-2.79-2.95-5.76-5.71-8.62-8.59-.32-.32-.7-.94-.6-1.28,1.49-5.14,1.32-10.32.25-15.92,13.65,8.08,25.06,18.24,35.33,29.84-.46-2.08-5.22-8.25-9.83-12.48-3.93-3.59-7.88-7.19-12.07-10.46-4.22-3.28-8.76-6.15-13.22-9.25,3.54-3.24,6.17-7.16,7.09-12.43,2.88,1.67,5.58,3.15,8.2,4.78,7.65,4.77,14.63,10.36,20.5,17.25,4.5,5.28,8.33,11.02,11.05,17.42,1.7,4.01,3.3,8.09,4.65,12.23,1.24,3.8.51,7.64-.68,11.36-.71,2.21-1.58,4.36-2.38,6.54-.78,2.16-2.33,3.08-4.61,3.09-6.56.04-12.3-1.98-16.67-6.94Zm70.74,83.14c-1.21,2.85-2.64,5.62-4.05,8.38-.37.72-1.01,1.3-1.64,2.11-.9-3.55-1.76-6.86-2.57-10.17-1.91-7.74-5.16-14.92-9.12-21.81-2.52-4.38-4.58-9.09-7.55-13.13-4.32-5.89-9.03-11.56-14.01-16.9-7.23-7.75-14.85-15.12-22.31-22.65-.21-.21-.41-.44-.8-.87,1.7.3,3.13.58,4.56.79.73.11,1.51.24,2.21.09,2.42-.53,4.35.33,6.28,1.7,4.47,3.17,8.99,6.3,13.6,9.26,1.89,1.22,2.04,3.02,2.39,4.84.43,2.22.78,4.46,1.22,6.69,1.26,6.35,6.1,9.04,11.52,10.93,2.33.81,4.7.17,7.12-1.6,2.11,3.62,4.5,7,6.14,10.7,2.12,4.8,3.67,9.86,5.43,14.82.67,1.88,1.29,3.78,1.89,5.68,1.19,3.75,1.25,7.51-.3,11.15Zm1.73-11.25c-2.01-9.68-5.42-18.82-10.75-27.19-.88-1.38-1.86-2.69-2.71-4.08-.21-.35-.28-1-.1-1.35,1.39-2.75,2.86-5.46,4.35-8.26,3.04,5.85,6.19,11.91,9.33,17.98.12-.05.24-.11.36-.16-1.67-3.96-3.27-7.95-5.03-11.88-1.23-2.74-2.66-5.39-3.99-8.09-.18-.37-.41-.8-.37-1.18.45-3.55.96-7.1,1.38-10.2,1.85-1,3.49-1.9,5.26-2.86.9,1.99,1.95,4.33,3.02,6.66,2.93,6.32,5.81,12.65,7.57,19.42,1.55,6,3.93,11.81,3.48,18.23-.35,4.9-1.41,9.48-4.23,13.56-.36.52-.78.99-1.23,1.44-.96.97-2.02,1.76-3.5,1.2-1.51-.57-2.5-1.56-2.86-3.25Zm22.94,6.32c1.87,4.07,3.67,8.17,5.32,12.32.55,1.38.75,2.98.77,4.48.04,3.37-2.04,4.88-5.2,3.65-1.68-.65-3.32-1.68-4.63-2.91-5.22-4.84-11-8.86-17.26-12.2-.91-.49-1.28-.98-1.19-2.06.14-1.66.04-3.35.04-4.69,1.63.09,3.17.06,4.67.29.79.12,1.52.67,2.24,1.09,1.08.63,2.13,1.31,3.39,1.72-1.42-1.15-2.83-2.3-3.97-3.23,1.86-3.28,3.66-6.45,5.53-9.74,3.78,3.26,8.04,6.36,10.29,11.28Zm-3.92-8.98c-2.2-1.73-4.11-3.25-5.88-4.64v-12.71c3.8,5.38,5.44,11.03,5.88,17.35Zm25.98,6.38c-2.45-2.15-4.74-4.53-7.38-6.41-6.36-4.52-12.88-8.79-19.33-13.19-.51-.34-1.02-.77-1.35-1.27-1.5-2.29-2.95-4.62-4.41-6.94-.18-.29-.3-.63-.45-.94.11-.11.21-.22.32-.33,4.71,3.68,9.43,7.37,14.14,11.05.06-.06.12-.11.19-.17-1.03-1.13-2.02-2.29-3.08-3.39-1.06-1.1-2.12-2.22-3.3-3.18-2.82-2.3-5.71-4.5-8.56-6.75-.23-.18-.49-.42-.58-.68-1.05-3.35-2.08-6.71-3.22-10.41,17.04,10.4,28.82,24.95,37.01,42.62Zm14.25-22.53c.87,1.71.8,3.97.88,5.99.06,1.74-1.14,2.75-2.75,3.26-5.04,1.59-9.9.97-14.64-1.16-.63-.28-1.24-.58-1.86-.88-2.01-.96-3.74-2.17-5.03-4.13-1.12-1.69-2.77-3.03-4.15-4.55-2.76-3.04-5.42-6.17-8.25-9.15-3.88-4.09-8.56-7.17-13.28-10.19-.89-.57-1.8-1.09-2.69-1.67-.35-.23-.78-.47-.93-.81-1.21-2.73-2.28-5.53-3.56-8.22-1.25-2.64-2.56-5.28-4.12-7.75-.84-1.32-.1-2.01.35-2.95,16.68,9.92,32.22,21.08,43.45,37.31.14-.1.28-.21.42-.31-.12-.34-.2-.7-.37-1.02-2.74-5.43-6.46-10.18-10.82-14.33-6.33-6.04-12.73-12.03-19.44-17.64-3.68-3.07-8.06-5.31-12.23-8,1.02-4.88,1.1-10.08.89-15.32-.02-.58.25-1.17.39-1.75.64.16,1.39.16,1.9.51,2.92,1.97,5.78,4.02,8.66,6.05,7.47,5.26,14.64,10.89,21.08,17.4,5.11,5.15,9.51,10.83,13.66,16.79,4.94,7.1,8.57,14.88,12.44,22.53Zm88.31,36.24c-.75,2.36-1.62,4.68-2.5,6.99-.54,1.45-1.44,2.65-3.1,2.85-7.63.91-16.31-2.75-20.3-9.67-2.47-4.28-5.08-8.51-7.95-12.53-4.27-5.98-9.41-11.24-14.77-16.26-3.43-3.21-6.68-6.69-10.49-9.38-7.66-5.42-15.64-10.38-23.47-15.56-4.62-3.05-9.2-6.16-13.83-9.2-1.98-1.3-4.07-2.45-6.04-3.76-.94-.62-1.74-1.45-2.6-2.18.11-.12.22-.24.32-.35,2.34.75,4.67,1.55,7.03,2.21,1,.28,2.11.47,3.12.34,2.37-.3,4.46.38,6.56,1.34,10.06,4.59,20.16,9.09,30.2,13.73,8.53,3.94,16.31,9.15,23.35,15.3,6.07,5.3,11.66,11.15,17.46,16.75.33.32.67.64,1.01.95-2.3-4.27-5.33-7.89-8.7-11.24-7.32-7.28-15.18-13.94-24.21-18.98-5.92-3.3-12.23-5.92-18.43-8.71-6.14-2.76-12.36-5.35-18.54-8.02-.92-.4-1.82-.82-2.85-1.27,5.76-3.19,4.7-8.61,4.62-13.93,2.67.97,5.25,1.84,7.78,2.82,12.76,4.93,25.04,10.89,36.94,17.61,16.86,9.51,29.9,22.6,37.1,40.9,1.25,3.17,2.33,6.44,3.15,9.75.79,3.2.11,6.41-.87,9.51Zm3.44-21.03c-.58,1.45-1.68,2.69-2.75,4.37-1.73-3.6-3.35-6.62-4.66-9.77-4.58-11.09-12.55-19.37-21.75-26.68-7.52-5.96-15.76-10.77-24.29-15.08-7.72-3.89-15.57-7.52-23.43-11.12-3.11-1.42-6.4-2.43-9.61-3.63-.89-.33-1.84-.62-1.62-2.27,2.1.28,4.18.52,6.24.84,6.88,1.05,13.77,2.06,20.64,3.2,11.34,1.89,22.32,4.93,32.7,10,9.79,4.78,17.41,11.79,22.58,21.41,2.07,3.84,4.44,7.57,6.09,11.58,2.31,5.62,2.14,11.48-.13,17.14Zm6.92-23c-1.7,3.04-4.92,3.4-6.94.59-2.12-2.93-4.02-6.08-5.59-9.34-3.26-6.77-8.53-11.63-14.61-15.66-9.14-6.05-19.43-9.36-29.96-12-12.36-3.09-24.95-4.86-37.57-6.45-.41-.05-.96-.29-1.15-.62-1.72-3.06-3.38-6.17-5.12-9.39,3.83-1.58,4.84-4.9,4.65-8.78,6.74,1.62,13.33,3.26,19.95,4.78,13.08,3,25.8,7.12,38.13,12.44,6.53,2.81,11.68,7.45,16.69,12.36,3.04,2.98,6.22,5.83,9.39,8.69-.41-.52-.83-1.04-1.26-1.55-3.6-4.27-7.07-8.67-10.92-12.72-4.5-4.73-10.17-7.85-16.16-10.32-12.08-4.97-24.58-8.54-37.32-11.37-6.02-1.33-11.98-2.92-17.96-4.45-.52-.13-1.22-.6-1.34-1.05-.82-2.93-2.85-5.01-4.76-7.19-.51-.58-.96-1.21-1.31-1.67,1.28-.63,2.9-.91,3.51-1.85.95-1.47,1.34-3.36,1.74-5.13.24-1.05.04-2.19.04-3.49,6.11,1.43,11.98,2.7,17.8,4.18,5.87,1.5,11.78,2.94,17.52,4.86,13.16,4.42,25.67,10.22,36.93,18.48,2.5,1.84,5.1,3.54,7.58,5.41.83.62,1.47,1.52,2.11,2.35,3.35,4.34,6.91,8.54,9.96,13.09,4.66,6.94,8.87,14.18,9.19,22.89.17,4.58-.95,8.92-3.19,12.9Zm35.31,7.05c3.59,7.17,4.84,14.78,4.38,22.72,0,.14-.09.28-.19.56-3.75-5.11-7.55-9.98-10.99-15.08-4.13-6.12-9.49-10.84-15.52-14.93-3.04-2.07-6.04-4.21-8.9-6.22.36-1.62.67-2.99,1.01-4.52,8.57,5.11,14.23,13.43,21.43,20.09.11-.09.23-.18.34-.27-2.02-2.66-3.98-5.37-6.09-7.95-4.23-5.17-9.19-9.58-14.53-13.58-.53-.4-.98-1.22-1.03-1.87-.3-3.58-1.43-6.9-2.83-10.16-.47-1.11-.92-2.22-1.12-3.67,1.28.72,2.63,1.35,3.83,2.18,7.41,5.12,14.18,10.94,19.83,18.02,3.75,4.7,7.66,9.26,10.38,14.69Zm-10.05-29.62c2.38,5.28,4.64,10.62,6.78,16,.67,1.68.77,3.59,1.12,5.39-.12.07-.24.14-.36.21-1.11-1.41-2.22-2.82-3.34-4.22-7.14-8.92-15.32-16.8-24.95-22.92-3.71-2.36-6.7-4.77-8.87-8.71-2.17-3.92-5.39-7.26-8.15-10.86-.41-.53-.79-1.08-1.21-1.65,2.38-.65,4.32-.31,6.14,1.38,5.19,4.79,10.52,9.43,15.74,14.19,3.22,2.94,6.33,6.01,9.63,8.87-7.62-9.88-16.67-18.3-26.27-25.49.29-2.11.68-3.75.69-5.39.02-1.61-.35-3.21-.57-5.03.48.23.87.36,1.19.58,8.98,6.54,17,14.01,23.27,23.28,3.19,4.71,6.81,9.15,9.16,14.37Zm-.97-13.72c-1.63-8.72-4.9-16.84-8.49-24.81-1.24-2.74-3.32-5.1-4.94-7.68-.86-1.38-1.72-2.8-2.31-4.3-2.46-6.24-5.33-12.29-9.02-17.89-1.55-2.35-3.53-4.44-5.42-6.56-1.32-1.48-2.42-2.86-2.29-5.11.15-2.69-1.15-5.11-2.43-7.42-2.02-3.67-4.13-7.28-6.09-11.03,2.79,3.26,5.61,6.48,8.35,9.77,3.64,4.38,7.46,8.63,10.75,13.26,3.12,4.41,5.98,9.08,8.37,13.92,3.7,7.51,7.03,15.21,10.26,22.94,2.82,6.75,5.3,13.64,7.91,20.47.76,1.99-2.03,4.76-4.66,4.43Zm26.56-14.92c-.24,3.71-1.07,7.28-3.1,10.51-3.62,5.76-11.43,5.08-14.89,2.5-1.44-1.08-2.21-3.27-2.91-5.1-5.35-13.86-10.36-27.85-15.99-41.6-2.8-6.85-6.67-13.25-10.06-19.86-.23-.45-.48-.9-.76-1.41,8.56.91,12.5-1.6,13.37-8.82,11.45,19.62,18.19,40.8,25.84,61.63-.59-2.53-1.06-5.1-1.81-7.59-2.17-7.21-4.21-14.47-6.75-21.56-4.05-11.28-9.1-22.12-15.25-32.43-1.19-2-2.07-4.04-2.38-6.45-.64-5.01-2.62-9.64-4.71-14.2-.28-.62-.56-1.25-.72-1.58,2.33-1.58,4.47-3.03,6.81-4.61,1.87,2.97,3.88,6.05,5.78,9.19,6.74,11.19,12.01,23.08,16.67,35.26,2.45,6.39,5.19,12.68,7.48,19.12,3.1,8.72,3.99,17.79,3.39,26.99Zm12.03-17.46c-.17,1.74-.76,3.49-1.46,5.11-1.3,3.03-4.11,3.73-7.04,3.95-.3.02-.89-.74-.98-1.21-.77-4.26-1.61-8.51-2.15-12.8-.76-6.1-3.5-11.44-5.93-16.93-1.41-3.17-2.52-6.46-3.8-9.68-1.96-4.94-3.8-9.95-5.98-14.8-4.66-10.42-10.33-20.28-16.86-29.65-.24-.35-.36-.86-.36-1.29.03-2.1.12-4.2.19-6.3-1-5.77-3.76-10.75-7.27-15.48,1.77-.46,3.12-.63,4.31,1,3.56,4.88,7.25,9.66,10.89,14.48h.32c1.53,2.45,3.13,4.85,4.59,7.34,3.62,6.19,7.27,12.36,10.7,18.65,1.32,2.43,1.98,5.21,3.13,7.74,1.5,3.3,3.61,6.38,4.72,9.79,2.08,6.39,6.19,11.74,8.57,17.94,2.74,7.12,5.14,14.34,4.4,22.13Zm-25.38-129.01c6.11,6.85,11.52,14.35,15.46,22.7,3.53,7.47,6.66,15.14,9.97,22.71,1.77,6.77,3.87,13.48,5.21,20.34,1.31,6.72,1.93,13.58,2.68,20.39.34,3.09.39,6.22.34,9.33-.02,1.32-.39,2.75-1,3.92-1.57,3-5.33,3.87-7.78,1.56-2.39-2.26-4.36-4.97-6.39-7.59-4.53-5.86-7.45-12.6-10.22-19.38-3.31-8.11-8.23-15.31-12.48-22.89-1.07-1.92-2.22-3.79-3.34-5.68h-.32c-2.41-3.06-4.81-6.12-7.23-9.17-1.8-2.27-3.66-4.5-5.41-6.82-.25-.34-.21-1.17.03-1.57,1.88-3.2,2.81-6.48,1.21-10.08-3.39-7.65-6.77-15.31-10.16-22.96-.18-.41-.32-.84-.23-1.48.51.41,1.07.76,1.52,1.22,9.02,9.26,18.17,18.46,25.52,29.12,4.62,6.7,8.28,14.07,12.36,21.14.1.17.1.4.14.6h.32c.13.4.21.81.39,1.19,2.23,4.83,4.5,9.65,6.71,14.49,1.39,3.04,2.71,6.11,4.06,9.17-.95-3.68-2.15-7.26-3.57-10.76-1.91-4.73-3.99-9.4-6-14.09h-.32c-1.22-2.5-2.35-5.04-3.66-7.48-7.97-14.82-18.47-27.7-30.28-39.59-1.97-1.98-4.07-3.83-6.04-5.81-.32-.32-.5-1.19-.3-1.54,1.01-1.71.85-3.52.81-5.38-.06-3.29.06-6.58.11-9.86,3.39-.11,5.62,1.35,7.6,3.37,6.78,6.94,13.83,13.64,20.29,20.87Zm-12.48-32.73c.04.09.05.21.06.31.64,4.5-.52,6.04-5.02,6.85-3.02.54-5.98.32-8.94-.4-.91-.22-1.23-.66-1.25-1.63-.05-2.74-.27-5.48-.39-8.22-.25-5.43-1.49-10.73-1.86-16.14,1.19,1.44,2.34,2.93,3.6,4.33,2.43,2.68,5.4,4.5,8.88,5.5.33.1.79.26.91.51,1.36,2.95,2.68,5.92,4,8.88Zm4.62-24.25c-.44,4.05-1.68,7.84-4.01,11.2-1.5,2.18-2.68,2.5-5.17,1.56-4.26-1.6-7.63-4.37-10.6-7.77-3.68-4.22-4.98-9.43-6.53-14.58-2.65-8.82-6.33-17.23-10.68-25.32-3.52-6.54-7.42-12.88-11.29-19.22-1.31-2.14-3.09-4-4.64-6-.9-1.16-1.77-2.35-2.67-3.56,2.8-4.31,1.63-8.6.8-12.96,18.51,15.32,30.89,35.09,41.53,56.16.14-.06.27-.12.41-.18-.97-2.51-1.81-5.08-2.93-7.53-5.89-12.92-13.87-24.5-23.23-35.11-4.7-5.33-9.82-10.3-14.8-15.39-.9-.92-1.38-1.87-1.55-3.15-.99-7.4-3.02-14.53-5.73-21.48-.15-.38-.24-.77-.11-1.37,1.05.89,2.18,1.7,3.14,2.68,10.09,10.26,20.28,20.42,30.19,30.85,7.82,8.22,13.36,18.01,18.33,28.14,4.18,8.52,6.33,17.63,8.27,26.82,1.13,5.35,1.88,10.72,1.27,16.19Zm5.81-24.44c-1.22,2.53-2.72,4.93-4.09,7.39l-.57-.18c-.43-1.88-.9-3.75-1.3-5.63-2.29-10.93-7.17-20.77-12.54-30.43-3.54-6.38-7.19-12.67-12.19-18.02-5.9-6.32-11.88-12.57-17.95-18.73-4.08-4.14-8.36-8.08-12.5-12.07,3.42.09,6.55.16,9.68.27.4.01.85.15,1.17.37,7.41,5.21,14.96,10.24,22.16,15.72,5.49,4.18,10.42,9.07,14.7,14.54,4.78,6.11,8.61,12.71,10.79,20.23,1.2,4.14,2.74,8.19,4.1,12.28,1.66,4.97.74,9.71-1.46,14.26Zm12.39-41.37c1.12,4.57,2.61,9.02,2.35,13.8-.27,5.03-1.29,9.82-4.34,13.99-.34.47-.7.93-1.12,1.33-.98.93-2.06,1.79-3.52,1.24-1.5-.56-2.54-1.55-2.88-3.25-3.79-18.69-13.08-34.11-27.62-46.4-7.59-6.42-15.81-11.94-24.19-17.24-.13-.08-.23-.2-.5-.42,4.06-3.62,4.69-8.78,6.18-13.81.65.31,1.27.46,1.71.83,6.92,5.78,13.93,11.47,20.7,17.41,7.21,6.32,12.31,14.26,16.63,22.74,2.29,4.51,4.64,8.99,6.96,13.49.13-.05.25-.1.38-.15-.84-2.08-1.66-4.18-2.53-6.25-3.04-7.2-6.34-14.26-10.8-20.73-4.09-5.93-9.19-10.89-14.65-15.49-5.73-4.82-11.64-9.42-17.43-14.17-.48-.39-.78-1.16-.89-1.8-.37-2.23-.65-4.48-.9-6.73-.05-.46-.01-1.14.27-1.41,2.71-2.53,4.09-5.7,4.64-9.86,1.69,1.29,3.14,2.34,4.51,3.48,9.78,8.11,18.7,17.08,26.44,27.17,2.88,3.75,6.52,6.91,8.51,11.36,4.51,10.1,9.43,20.01,12.09,30.87Zm-3.28-29.65c-.52,2.17-1.91,2.86-3.74,1.56-1.77-1.25-3.38-2.86-4.68-4.59-1.67-2.22-2.89-4.78-4.44-7.1-6.35-9.49-14-17.84-22.53-25.38-3.27-2.89-6.79-5.52-10.3-8.12-1.87-1.38-2.58-3.03-2.41-5.29.14-1.91.03-3.84.03-5.86,1.9,1.18,3.93,2.45,5.97,3.68,7.66,4.62,13.68,11,19.38,17.76,2.7,3.19,5.46,6.33,8.19,9.49.11-.09.23-.17.34-.26-2.06-2.83-4.09-5.69-6.19-8.49-7.28-9.66-16.11-17.53-26.91-23.1-.97-.5-1.76-1.33-2.6-2.23,5.34.27,7.2-3.18,8.54-7.61,2.96,1.95,5.84,3.85,8.73,5.75,6.89,4.54,12.19,10.67,17.23,17.09,3.85,4.91,7.85,9.74,10.33,15.51,3.16,7.36,4.82,15.15,5.56,23.12.12,1.33-.19,2.74-.51,4.07Zm12.52-.43c-.75-.18-1.51-.38-2.26-.54-.78-.16-1.56-.27-2.34-.41-1.61-.29-3.21-.65-4.82-.86-.83-.11-1.18-.33-1.17-1.25.13-7.47-1.67-14.52-4.67-21.3-.96-2.18-1.27-4.35-.85-6.77,1-5.67-.06-11.25-1.37-16.76-1.04-4.38-2.68-8.54-5.19-12.32-.38-.58-.55-1.38-.57-2.09-.21-6.16-2.42-11.73-4.96-17.2-1.13-2.44-2.39-4.81-3.57-7.22-.16-.32-.31-.69-.31-1.04-.03-2.67-.01-5.35-.01-7.71,1.81-1.13,3.54-2.22,5.34-3.34.76,2.38,1.69,5,2.43,7.67,2.83,10.2,5.86,20.35,8.33,30.64,2.12,8.86,3.62,17.87,5.32,26.83,1.53,8.03,3.05,16.06,4.41,24.12.7,4.16,2.78,7.2,6.5,9.22-.07.11-.15.23-.22.34Zm7-91.19c3.44,14.79,6,29.77,9.01,44.66,1.61,8,2.01,16.07,1.17,24.13-.53,5.06-1.58,10.11-2.92,15.02-.6,2.21-2.33,4.18-3.81,6.05-1.14,1.43-2.88,1.9-4.75,1.45-.72-.17-1.45-.28-2.17-.46-4.82-1.22-7.12-4.61-7.84-9.27-.98-6.26-1.77-12.54-2.86-18.78-1.83-10.49-3.62-21-5.82-31.42-2.5-11.86-5.39-23.64-9.23-35.16-.23-.7-.41-1.41-.74-2.57,5.28,2.17,9.89,1.28,14.24-1.91,9.15,27.74,12.97,56.23,17.42,84.62-.32-4.65-.5-9.31-1.01-13.93-.76-6.98-1.54-13.97-2.7-20.89-1.24-7.43-2.66-14.85-4.49-22.16-2.33-9.35-5.16-18.58-7.72-27.88-.22-.79-.26-1.95.16-2.54,3-4.22,3.3-9.03,3.34-13.93,0-.21,0-.42,0-.63.04-.9-.02-2.01,1.18-2.04.42-.01,1.07.86,1.26,1.44,2.84,8.72,6.2,17.31,8.27,26.21Z"/>
        <path class="cls-1" d="m0,231.13v1.68c6.09,3.49,12.18,6.98,18.28,10.48-5.64-4.75-11.52-9.12-18.28-12.15Z"/>
        <path class="cls-1" d="m325.74,120.94c-.97-.89-1.95-1.78-2.93-2.67.83,1.05,1.64,2.12,2.47,3.17.16-.17.31-.34.47-.51Z"/>
        <path class="cls-1" d="m325.74,533.28c-.97-.89-1.95-1.78-2.93-2.67.83,1.05,1.64,2.12,2.47,3.17.16-.17.31-.34.47-.51Z"/>
        <path class="cls-1" d="m14.17,527.22c.21-.32.25-.63.2-.92-.62-4.01-1.2-8.03-1.88-12.03-2.24-13.05-5.22-25.92-9.75-38.39-.81-2.24-1.79-4.43-2.74-6.62v3.6c.4.99.8,1.97,1.15,2.98,4.7,13.34,7.93,27.08,10.83,40.9.73,3.49,1.46,6.99,2.19,10.48Z"/>
        <path class="cls-1" d="m30.39,287.7c1.51,1.49,3.07,2.92,4.93,4.7-1.41-1.81-2.59-3.27-3.7-4.76-6.41-8.61-13.41-16.58-23.53-21.02-2.65-1.17-5.39-2.15-8.09-3.19v2.24c.31.13.62.26.93.38,7.04,2.69,13.7,6.02,19.15,11.38,3.46,3.4,6.86,6.86,10.32,10.27Z"/>
        <path class="cls-1" d="m18.96,338.61c.13-.12.27-.23.4-.35-1.96-2.51-3.68-5.26-5.93-7.47-4.34-4.27-8.93-8.29-13.43-12.39v2.07c5.07,4.72,10.14,9.42,15.18,14.17,1.33,1.25,2.53,2.64,3.79,3.97Z"/>
        <path class="cls-1" d="m24.04,456.63c5.46,11.01,10.04,22.4,13.51,34.21,1.06,3.63,2,7.3,3.05,11.12.04-.32.1-.47.08-.61-1.36-8.94-3.42-17.74-6.84-26.1-3.35-8.18-6.98-16.28-10.99-24.15-5.84-11.45-12.08-22.7-18.27-33.97-1.33-2.42-2.99-4.65-4.57-6.93v2.66c3.32,5.33,6.8,10.57,9.8,16.08,4.96,9.12,9.63,18.4,14.24,27.7Z"/>
        <path class="cls-1" d="m4.7,393.73c-.31-1.41-.69-2.77-1.28-4.05-1.11-2.42-2.27-4.82-3.43-7.22v2.42c.09.15.19.29.27.44,1.49,2.79,2.96,5.6,4.43,8.41Z"/>
      </g>
    </g>
  </g>
</svg>