<?xml version="1.0" encoding="UTF-8"?>
<svg id="Capa_2" data-name="Capa 2" xmlns="http://www.w3.org/2000/svg" viewBox="0 0 98.78 98.78">
  <defs>
    <style>
      .cls-1 {
        fill: #ddc7ff;
        stroke-width: 0px;
      }
    </style>
  </defs>
  <g id="Capa_1-2" data-name="Capa 1">
    <g>
      <path class="cls-1" d="m49.39,0C22.11,0,0,22.11,0,49.39s22.11,49.39,49.39,49.39,49.39-22.11,49.39-49.39S76.67,0,49.39,0Zm9.47,57.86c-5.2-.79-10.26-2.44-15.41-3.6-2.2-.5-4.43-.98-6.67-1.08-4.24-.18-7.6,3.26-7.56,7.43.04,4.09,3.41,7.49,7.57,7.25,2.06-.12,4.1-.81,6.11-1.39,3.69-1.06,7.28-2.6,11.03-3.27,7.65-1.36,13.93,4.23,13.51,11.65-.19,3.43-1.73,6.24-4.39,8.34-5.41,4.27-11.73,5.7-18.47,5.65-.6,0-1.34-.11-1.75-.47-.56-.49-1.12-1.25-1.18-1.93-.04-.47.68-1.28,1.23-1.48,1.78-.65,3.68-.96,5.44-1.64,2.62-1.01,5.25-2.06,7.71-3.39,1.77-.96,2.86-2.65,2.78-4.83-.06-1.49-.73-2.34-2.19-2.16-2.22.28-4.42.8-6.57,1.41-3.59,1.01-7.08,2.6-10.73,3.19-7.19,1.14-13.13-1.49-17.12-7.6-3.96-6.05-4-12.48-.14-18.59,3.91-6.18,9.83-8.92,17.01-7.86,5.2.77,10.27,2.42,15.41,3.59,2.15.49,4.33.96,6.52,1.07,4.26.21,7.67-3.16,7.69-7.31.02-4.16-3.33-7.59-7.6-7.38-2.47.13-4.98.67-7.36,1.39-3.55,1.07-7.03,2.27-10.8,2.25-5.4-.03-9.74-3.52-11-8.8-.14-.58-.56-1.2-1.02-1.59-1.28-1.1-1.93-2.41-1.65-4.08.61-3.64,2.01-6.81,5.51-8.58.84-.42.74-.88.29-1.43-.52-.63-1.32-1.16-.66-2.1.58-.82,1.27-.64,2.01-.14.15.1.53-.22.79-.2.55.05,1.25.03,1.58.35.24.24.19,1.2-.09,1.46-1.37,1.25-.72,1.69.54,2.51,3.31,2.16,4.77,5.47,4.71,9.33-.02,1.08-.95,2.14-1.66,3.62,1.95-.38,3.77-.66,5.56-1.1,3.48-.85,6.89-2.12,10.41-2.63,9.84-1.43,18.54,4.84,20.06,14.17,1.9,11.61-7.82,21.76-19.44,19.99Z"/>
      <path class="cls-1" d="m73.65,40.78c.69-.58,1.38-1.16,2.3-1.92-.04-.25-.17-.94-.29-1.6-2.32-.51-2.54-1.14-1.06-2.98-2.8-5.12-7.04-8.01-12.94-8.28-4.08-.19-7.9.98-11.74,2.21-2.27.73-4.67,1.12-7.05,1.43-1.57.21-2.74-.71-3.44-2.13-.5-1.01-.36-1.77.7-2.46.63-.41,1.36-1.31,1.32-1.96-.12-2.44-1.16-4.57-3.03-6.19-1.27-1.1-2.45-1.06-3.73.08-1.76,1.58-2.75,3.62-2.92,5.93-.05.67.56,1.64,1.16,2.05.8.56,1.17,1.1,1.31,2.06.68,4.66,4.26,7.85,8.99,7.5,3.08-.23,6.09-1.26,9.15-1.88,3-.61,6-1.51,9.03-1.66,4.96-.23,9.17,3.78,9.72,8.73.55,4.92-2.76,9.56-7.62,10.67-3.18.73-6.23-.12-9.28-.83-5.09-1.18-10.12-2.72-15.25-3.64-6.59-1.18-12.9,2.34-15.62,8.19,1.44,1.71,1.3,2.09-1.17,3.03-.09.66-.18,1.34-.28,2.03.13-.09.26-.19.39-.28.65.5,1.76.93,1.86,1.53.27,1.62-1.41,1.14-2.3,1.55.14.76.27,1.45.39,2.1,2.3.46,2.51,1.06,1.11,2.93,2.89,5.87,9.14,9.32,15.52,8.12,3.4-.64,6.65-2.03,9.99-3,2.26-.65,4.53-1.45,6.84-1.65,4.22-.37,6.38,2.47,5.34,6.6-.72,2.88-2.75,4.69-5.23,5.93-2.37,1.18-4.88,2.07-7.41,3.13.31,0,.52.03.72,0,.61-.09,1.22-.18,1.82-.32,4.15-.92,8.15-2.2,11.28-5.29,2.73-2.7,3.49-6.44,2.07-9.78-1.41-3.34-4.65-5.61-8.48-5.18-3.22.36-6.37,1.42-9.52,2.29-2.66.73-5.23,1.91-7.93,2.4-5.62,1.01-10.66-2.75-11.55-8.31-.84-5.21,2.87-10.51,8.3-11.07,2.78-.29,5.72.32,8.51.91,5.11,1.08,10.12,2.69,15.26,3.61,6.67,1.19,13.5-2.64,15.64-8.3-1.46-1.53-1.25-2.06,1.18-2.89.09-.66.19-1.34.28-2.03-.13.09-.26.18-.4.28-.65-.55-1.3-1.1-1.95-1.65Z"/>
    </g>
  </g>
</svg>