<?xml version="1.0" encoding="UTF-8"?>
<svg id="Capa_2" data-name="Capa 2" xmlns="http://www.w3.org/2000/svg" viewBox="0 0 81.65 81.39">
  <defs>
    <style>
      .cls-1 {
        fill: #7f59b0;
        stroke-width: 0px;
      }
    </style>
  </defs>
  <g id="Capa_1-2" data-name="Capa 1">
    <g>
      <path class="cls-1" d="m36.24,31.27c3.15-5.6,5.35-11.28,2.89-17.76-.36-.96-.74-1.95.54-2.4,1.19-.42,1.56.6,1.89,1.45,1.79,4.48,1.55,9-.02,13.44-.83,2.35-1.98,4.58-2.89,6.65,3.18,3.17,6.4,6.4,9.8,9.79.23-.14.85-.53,1.47-.91,3.85-2.35,7.93-3.89,12.53-3.7.53.02,1.06.07,1.59.15.88.13,1.71.59,1.33,1.54-.2.5-1.2,1.04-1.78.98-5.21-.57-9.57,1.41-13.78,4.23,1.15,1.73,2.39,3.29,3.28,5.02,1.01,1.97,1.9,4.05,2.48,6.17.54,1.96-.35,3.27-2.21,4.05-17,7.1-34,14.2-51.03,21.25-.62.26-1.62.25-2.13-.1-.31-.21-.24-1.38,0-1.98,7.05-17.02,14.15-34.02,21.25-51.03.8-1.92,2.17-2.79,4.19-2.24,1.93.52,3.82,1.31,5.61,2.22,1.7.87,3.23,2.05,4.99,3.19Zm-18.11,11.57c4.81,2.96,9.52,5.86,14.23,8.74.75.46,1.62.87,1.13,1.94-.52,1.14-1.43.91-2.29.39-3.72-2.28-7.45-4.56-11.15-6.87-.94-.58-1.8-1.29-2.8-2.02-.82,1.95-1.63,3.74-2.29,5.58-.13.35.23,1.11.58,1.36,6.79,4.9,14.11,8.76,22.25,10.94.45.12,1,.28,1.39.13,2.59-1.02,5.15-2.13,7.72-3.2-3.43-1.14-6.76-2.25-10.08-3.35-.9-.3-1.6-.81-1.2-1.87.41-1.09,1.27-.88,2.14-.55,1.29.5,2.59.95,3.89,1.42-7.69-6.41-14.62-13.32-19.43-22.41-1.34,3.21-2.61,6.24-4.09,9.77Zm29.94,3.63c-1.6.39-2.36,2.75-3.75,1.13-1.39-1.62,1.05-2.14,1.66-3.68-2.85-2.89-5.82-5.91-8.88-9.01-1.09,1.35-1.76,2.4-2.66,3.19-.46.41-1.53.66-2,.4-.87-.48-.52-1.35.04-2.04.76-.94,1.49-1.9,2.33-2.98-1.74-1.14-3.28-2.3-4.96-3.21-1.43-.77-3.01-1.32-4.56-1.84-.95-.32-1.49.23-1.24,1.19.31,1.17.6,2.41,1.2,3.44,5.65,9.75,13.36,17.46,23.11,23.11,1.03.6,2.27.89,3.44,1.2.99.26,1.4-.27,1.21-1.24-.11-.57-.17-1.19-.44-1.69-1.47-2.69-3.01-5.36-4.49-7.97Zm-13.15,18.36c-7.89-2.55-14.8-6.33-21.36-11.02-.92,2.21-1.75,4.2-2.53,6.07.75,1.2,3.17,1.26,2.11,3.16-.94,1.67-2.08-.2-3.29-.31-.81,1.93-1.62,3.87-2.51,6.01,2.58,1.34,5.07,2.64,7.57,3.91.26.13.66.2.91.1,2.41-.96,4.81-1.97,7.38-3.04-2.31-1.13-4.37-2.13-6.42-3.13-.92-.45-1.83-1-1.2-2.17.59-1.09,1.49-.59,2.35-.18,2.6,1.22,5.21,2.41,7.84,3.56.45.2,1.07.34,1.49.18,2.47-.95,4.9-2,7.66-3.14Zm-22.75,9.47c-2.16-1.17-3.96-2.15-5.84-3.17-.93,2.25-1.8,4.36-2.8,6.78,3.02-1.26,5.69-2.38,8.64-3.62Z"/>
      <path class="cls-1" d="m18.29,24.53c-.6.57-.93,1.14-1.4,1.3-2.07.69-3.42,1.98-4.12,4.07-.16.47-.88.99-1.38,1.03-.39.03-1.07-.57-1.22-1.02-.69-2.09-2.02-3.4-4.1-4.09-.45-.15-1.04-.84-1-1.23.05-.5.58-1.2,1.05-1.37,2.01-.69,3.33-1.93,4-3.98.16-.49.87-1.1,1.33-1.11.46,0,1.18.6,1.34,1.09.68,2.03,1.96,3.31,4,3.98.51.17.89.77,1.49,1.32Zm-6.56-1.44c-.67.54-1.31,1.05-1.72,1.39.48.54,1.03,1.16,1.37,1.55.57-.5,1.19-1.04,1.75-1.53-.53-.53-1.08-1.09-1.4-1.4Z"/>
      <path class="cls-1" d="m75.25,41.61c-.55-.61-1.14-.98-1.31-1.5-.68-2.01-1.93-3.33-3.97-4-.48-.16-1.06-.88-1.06-1.34,0-.46.6-1.17,1.08-1.33,2.05-.66,3.26-2.02,3.98-4,.17-.48.86-1,1.36-1.05.39-.04,1.08.55,1.23,1,.68,2.09,2.01,3.4,4.09,4.1.45.15,1.04.83,1.01,1.22-.04.5-.56,1.22-1.02,1.38-2.09.7-3.39,2.03-4.07,4.11-.15.47-.72.81-1.3,1.41Zm-.07-5.17c.64-.64,1.23-1.22,1.8-1.79-.54-.51-1.15-1.09-1.56-1.49-.66.61-1.26,1.18-1.8,1.69.5.51,1.06,1.08,1.56,1.59Z"/>
      <path class="cls-1" d="m54.69,72.46c-.65.55-1.03,1.11-1.55,1.29-1.95.68-3.25,1.89-3.9,3.88-.16.49-.84,1.09-1.31,1.12-.45.02-1.19-.55-1.36-1.02-.7-2.02-1.98-3.31-4-4.02-.48-.17-1.08-.88-1.07-1.33,0-.46.62-1.14,1.1-1.31,2.03-.7,3.28-2.03,3.97-4.04.15-.44.83-1.02,1.22-.99.5.04,1.21.55,1.37,1.01.71,2.09,2.08,3.38,4.15,4.07.46.15.77.73,1.37,1.33Zm-8.38-.3c.61.76,1.13,1.39,1.63,2.01.61-.64,1.18-1.23,1.49-1.56-.64-.66-1.2-1.25-1.7-1.75-.45.41-1.02.93-1.43,1.31Z"/>
      <path class="cls-1" d="m69.39,0c.59.67,1.18,1.05,1.35,1.57.65,2.05,1.97,3.29,3.99,3.99.48.17,1.01.86,1.06,1.36.04.38-.55,1.08-.99,1.23-2.06.7-3.42,1.99-4.1,4.09-.14.44-.83,1.03-1.22,1-.5-.04-1.23-.55-1.38-1.01-.69-2.1-2.05-3.37-4.11-4.08-.45-.15-1.04-.85-.99-1.23.06-.5.59-1.19,1.08-1.36,2.02-.69,3.33-1.94,3.98-3.99.16-.52.75-.9,1.34-1.57Zm.11,5.42c-.59.48-1.24,1.01-1.6,1.3.52.64,1.04,1.28,1.48,1.84.59-.58,1.16-1.13,1.79-1.74-.6-.5-1.25-1.04-1.68-1.39Z"/>
      <path class="cls-1" d="m28.32,3.54c2.97.02,5.37,2.43,5.37,5.39,0,2.94-2.44,5.38-5.39,5.4-3,.02-5.49-2.5-5.44-5.5.05-2.96,2.48-5.31,5.46-5.29Zm.02,8.14c1.51-.03,2.73-1.27,2.74-2.76,0-1.54-1.32-2.83-2.88-2.79-1.48.04-2.73,1.3-2.74,2.77,0,1.54,1.3,2.81,2.88,2.78Z"/>
      <path class="cls-1" d="m53.55,3.54c2.98.03,5.39,2.49,5.35,5.44-.05,2.97-2.53,5.39-5.48,5.34-2.98-.05-5.34-2.48-5.32-5.47.03-3,2.43-5.34,5.44-5.31Zm2.7,5.31c-.03-1.52-1.23-2.71-2.75-2.72-1.55,0-2.83,1.29-2.8,2.84.03,1.57,1.33,2.77,2.92,2.7,1.52-.07,2.66-1.29,2.63-2.82Z"/>
      <path class="cls-1" d="m74.14,56.8c-.03,3.01-2.43,5.37-5.42,5.34-2.99-.03-5.33-2.45-5.31-5.46.03-2.99,2.47-5.4,5.43-5.36,2.98.04,5.33,2.47,5.31,5.48Zm-5.36-2.86c-1.49,0-2.72,1.22-2.76,2.72-.04,1.58,1.21,2.89,2.75,2.89,1.48,0,2.73-1.23,2.76-2.72.04-1.58-1.21-2.89-2.75-2.89Z"/>
      <path class="cls-1" d="m54.93,19.9c-.45,1.48-.75,2.68-1.18,3.82-1.7,4.5-4.34,8.38-7.66,11.84-.67.7-1.41,1.32-2.3.44-.83-.81-.26-1.53.36-2.19,3.8-3.99,6.67-8.52,8.09-13.91.13-.49.92-1.12,1.4-1.11.46,0,.9.76,1.28,1.12Z"/>
      <path class="cls-1" d="m71.23,21.68c.3.35.95.77.96,1.21.02.47-.49,1.3-.9,1.4-5.32,1.3-9.47,4.47-13.34,8.12-.7.66-1.56,1.09-2.14.17-.27-.43-.03-1.58.39-2,3.84-3.84,8.14-7.01,13.47-8.51.41-.12.82-.2,1.56-.38Z"/>
    </g>
  </g>
</svg>