<?xml version="1.0" encoding="UTF-8"?>
<svg id="Capa_2" data-name="Capa 2" xmlns="http://www.w3.org/2000/svg" viewBox="0 0 98.78 98.78">
  <defs>
    <style>
      .cls-1 {
        fill: #ddc7ff;
        stroke-width: 0px;
      }
    </style>
  </defs>
  <g id="Capa_1-2" data-name="Capa 1">
    <g>
      <path class="cls-1" d="m66.18,67.57c.54.51,1,.95,1.38,1.3.44-.38.89-.79,1.42-1.25-.47-.44-.91-.85-1.4-1.3-.5.44-.95.84-1.4,1.25Z"/>
      <path class="cls-1" d="m54.42,67.74c.47.43.89.82,1.29,1.19.53-.43,1.02-.83,1.43-1.17-.5-.54-.91-.98-1.26-1.36-.49.44-.95.86-1.47,1.34Z"/>
      <path class="cls-1" d="m49.39,0C22.11,0,0,22.11,0,49.39s22.11,49.39,49.39,49.39,49.39-22.11,49.39-49.39S76.67,0,49.39,0Zm28.43,76.26c-.17.26-.52.53-.81.56-.04,0-.1-.01-.15-.04-.03.02-.05.04-.07.05-.23.12-.57.03-.86.03-8.69,0-17.39,0-26.08,0s-17.39,0-26.08,0c-.3,0-.65.07-.91-.03,0,.01-.02.02-.03.03-.02-.02-.04-.05-.07-.07-.26-.15-.51-.44-.6-.71-.05-.06-.1-.12-.14-.19-.12-.23-.03-.57-.03-.86,0-8.73,0-17.46,0-26.19,0-4.64,0-9.28,0-13.92-.03-3.09-.02-6.18-.03-9.26,0-.08.02-.14.03-.22,0-.93,0-1.86,0-2.79,0-.33-.09-.71.05-.97.03-.05.06-.09.1-.14.14-.66.87-.57,1.44-.57,17.57,0,35.14,0,52.7,0,.24,0,.52-.04.73.02.01,0,.02,0,.04,0,.95,0,.82.84.82,1.48,0,17.64,0,35.28,0,52.92,0,.29.07.64-.07.85Z"/>
      <path class="cls-1" d="m31.06,67.63c.42.47.82.92,1.28,1.44.45-.46.87-.89,1.27-1.3-.49-.54-.89-.99-1.26-1.4-.47.46-.92.89-1.29,1.25Z"/>
      <path class="cls-1" d="m42.86,67.46c.43.59.8,1.1,1.09,1.5.57-.46,1.04-.84,1.41-1.14-.48-.58-.88-1.07-1.26-1.52-.52.48-.93.88-1.24,1.16Z"/>
      <path class="cls-1" d="m22.82,37.63c.27-.35.76-.69.78-1.07.1-1.34.04-2.69.04-4.03,0-2.06,0-4.13,0-6.23h.02c0-.57,0-1.15,0-1.72-.21,0-.41,0-.62,0-.63,0-.96.29-1.02.87,0,3.16,0,6.32,0,9.48,0,.55,0,1.1.01,1.65,0,.36.51.71.78,1.06Z"/>
      <path class="cls-1" d="m76.5,38.02c.96.01,1.39-.31,1.38-1.32-.03-3.46-.01-6.91-.01-10.37,0-.62-.05-1.24-.87-1.21-.55.02-.7.34-.75.73v12.17c.08,0,.17,0,.25,0Z"/>
      <path class="cls-1" d="m67.44,38.02c-1.05.01-1.41-.39-1.39-1.42.05-2.33.04-4.66,0-6.98-.02-.94.34-1.34,1.28-1.3.84.04,1.67.03,2.51,0,.95-.04,1.3.4,1.27,1.32-.04,1.16-.01,2.31-.01,3.54h1.69v-6.55h-8.47v1.16c0,2.95-.02,5.89.01,8.84,0,.95-.31,1.4-1.32,1.39-3.09-.03-6.18-.03-9.28,0-.89,0-1.24-.36-1.23-1.24.03-2.44.02-4.87,0-7.31,0-.78.31-1.15,1.09-1.14.95.01,1.89.01,2.84,0,.78,0,1.12.38,1.11,1.14-.01,1.23,0,2.45,0,3.73h1.68v-6.59h-8.39c-.02.39-.06.77-.06,1.16,0,2.87,0,5.75,0,8.62,0,1.27-.17,1.44-1.46,1.44-3.02,0-6.04-.02-9.06.01-.93.01-1.32-.31-1.3-1.27.04-2.4.03-4.8,0-7.2-.01-.89.36-1.25,1.24-1.21.87.04,1.75.04,2.62,0,.85-.03,1.19.37,1.18,1.18,0,1.2,0,2.4,0,3.68h1.68v-6.53h-8.46c0,1.9,0,3.78,0,5.66,0,1.38-.03,2.77,0,4.15.03.96-.33,1.4-1.33,1.39-3.05-.03-6.11-.03-9.16,0-.99.01-1.36-.39-1.34-1.37.04-2.33.03-4.66,0-6.98-.01-.96.33-1.42,1.34-1.36.83.05,1.67.03,2.51,0,.84-.03,1.2.37,1.19,1.18,0,1.23,0,2.45,0,3.76h1.68v-6.61h-8.44c0,4.77,0,9.54,0,14.31,7.84,0,15.69,0,23.53,0,.25,0,.58-.08.75.04.28.2.61.52.65.82.03.21-.36.57-.64.7-.27.13-.64.05-.97.05-3.85,0-7.71,0-11.56,0s-7.84,0-11.76,0c0,1.52,0,3.04,0,4.56.32-.55.7-1.07,1.17-1.55,1.62-1.62,4.29-1.98,6.14-.9,1.87,1.09,2.99,3.44,2.32,5.4-.3.9-1.08,1.66-1.73,2.4-.18.2-.77.23-1.06.09-.22-.11-.25-.6-.35-.92,0-.03.02-.07.02-.11.14-1.34-.16-1.97-1-2.05-.93-.09-1.84.71-1.97,1.8-.16,1.29.23,2.36,1.28,3.17,2.58,1.98,5.94.97,6.96-2.11.5-1.51.86-3.08,1.47-4.55.88-2.13,2.46-3.47,4.85-3.69,2.19-.21,4.18,1.09,4.98,3.28.71,1.94.15,3.97-1.46,5.03-.32.21-.89.36-1.15.21-.25-.14-.35-.72-.35-1.11,0-.86.14-1.75-.99-1.99-.9-.19-1.86.67-2.03,1.72-.33,2.05,1.22,3.88,3.52,4.16,2.29.28,4.01-.84,4.74-3.09.49-1.52.87-3.08,1.48-4.55.88-2.14,2.48-3.45,4.87-3.65,2.07-.18,3.98,1.01,4.83,3.02.81,1.91.44,3.83-1.06,5.05-.37.3-.95.36-1.43.52-.12-.45-.33-.9-.35-1.35-.03-.75.04-1.56-.86-1.79-.94-.23-1.64.29-2,1.14-.49,1.17-.27,2.3.55,3.26,2.16,2.52,6.23,1.82,7.38-1.29.58-1.56.93-3.21,1.55-4.75.89-2.22,2.51-3.6,5-3.8,2.09-.16,4.03,1.1,4.84,3.18.75,1.94.26,3.93-1.35,5.06-.33.23-.9.38-1.25.25-.22-.08-.33-.72-.34-1.11-.02-.84.16-1.77-1.01-1.97-.94-.17-1.89.74-2.04,1.86-.25,1.9,1.21,3.64,3.35,4,2.23.38,4.04-.66,4.84-2.78.08-.2.08-.49.22-.6,0-.92,0-1.83,0-2.75v-6.68s0,0,0,0c-7.89,0-15.78,0-23.67,0-.15,0-.29,0-.44,0-.59,0-1.22-.1-1.08-.83.06-.31.66-.68,1.05-.74.74-.12,1.52-.03,2.29-.03,3.38,0,6.76,0,10.14,0,3.89,0,7.78,0,11.67,0,.01,0,.03,0,.04,0v-2.59c-2.94-.03-5.87-.04-8.81,0Z"/>
      <path class="cls-1" d="m76.25,75.08c0-4.63,0-9.26,0-13.89-.08,0-.16-.01-.24-.01-3.85,0-7.7,0-11.56,0-4,0-8,0-11.99,0-.33,0-.7.08-.97-.06-.28-.14-.62-.49-.62-.75,0-.26.34-.61.62-.74.27-.13.64-.06.97-.06,7.92,0,15.84,0,23.77,0,0,0,.01,0,.02,0,0-1.53,0-3.05,0-4.58-1.65,1.71-4.28,2.28-6.78,1.18-2.41-1.06-3.63-3.18-3.21-5.58.27-1.54,1.16-2.57,2.67-2.99,1.44-.4,2.55.14,3.35,1.4.52-1.48-.82-3.41-2.45-3.59-1.8-.19-3.23.47-4.02,2.17-.63,1.34-1.05,2.78-1.45,4.21-.73,2.59-2.17,4.41-4.95,4.89-3.83.65-7.38-2.6-6.68-6.12.3-1.53,1.18-2.56,2.69-2.96,1.45-.38,2.55.15,3.33,1.45.47-1.65-.88-3.51-2.57-3.64-1.84-.14-3.24.6-3.97,2.27-.61,1.39-1.03,2.86-1.46,4.32-.75,2.56-2.28,4.27-5,4.7-3.78.59-7.3-2.71-6.59-6.14.33-1.56,1.22-2.61,2.81-2.99,1.47-.35,2.52.28,3.28,1.55.28-1.4-.41-2.81-1.65-3.45-1.21-.62-3.15-.31-4.11.82-.56.65-1,1.44-1.31,2.23-.48,1.25-.76,2.58-1.18,3.85-1.37,4.07-5.94,5.47-9.39,2.9-1.13-.84-1.82-1.95-2.04-3.35-.3-1.88.58-3.63,2.18-4.34,1.51-.67,2.65-.3,4.02,1.3.18-1.53-.62-2.97-1.94-3.51-1.34-.54-3.29-.12-4.11,1.18-.74,1.17-1.17,2.55-1.71,3.85-.14.35-.2.74-.31,1.1,0,2.63,0,5.25,0,7.88,7.85,0,15.7,0,23.54,0,.29,0,.63-.06.86.07.25.13.56.46.54.68-.02.28-.29.64-.55.78-.26.14-.64.07-.96.07-3.93,0-7.85,0-11.78,0s-7.76,0-11.64,0c0,4.68,0,9.36,0,14.04.03,0,.07,0,.1,0,17.46,0,34.92,0,52.38,0,.04,0,.07,0,.11,0,0-.04,0-.09,0-.13Zm-49.86-3.36c-.31-.04-.55-.5-.83-.78.28-.27.55-.72.85-.75.29-.03.62.38,1.2.79-.59.38-.94.78-1.22.74Zm-.04-6.61c-.28-.02-.53-.46-.79-.71.27-.28.52-.74.83-.78.29-.04.63.37,1.26.79-.65.37-.99.72-1.31.7Zm8.97,3.3c-.75.74-1.49,1.48-2.23,2.24-.53.55-1.04.58-1.58.02-.73-.76-1.53-1.46-2.19-2.27-.24-.29-.39-1.01-.22-1.21.84-.99,1.81-1.88,2.74-2.79.1-.09.25-.12.46-.22.22.13.49.24.69.43.78.76,1.54,1.54,2.31,2.3.52.51.53.99.02,1.5Zm2.8,3.31c-.3-.05-.54-.51-.81-.8.29-.26.57-.71.87-.73.29-.02.62.4,1.18.81-.6.37-.95.76-1.24.72Zm-.08-6.62c-.27-.04-.49-.5-.73-.77.3-.26.59-.7.9-.71.29-.01.6.42,1.19.89-.67.32-1.04.65-1.36.6Zm9.15,3.16c-.83.86-1.64,1.76-2.56,2.52-.25.21-1,.13-1.29-.1-.84-.68-1.61-1.47-2.3-2.31-.23-.28-.35-.99-.17-1.21.81-.97,1.75-1.83,2.66-2.73.12-.12.31-.16.4-.2.62-.02,3.57,2.92,3.52,3.45-.02.2-.12.43-.26.58Zm2.76-4.65c.22-.03.72.45.73.71.01.31-.37.64-.77,1.23-.41-.59-.84-.94-.79-1.2.05-.3.5-.69.83-.74Zm-.08,8.1c-.3-.04-.54-.51-.81-.79.29-.26.56-.71.86-.73.29-.02.62.4,1.17.81-.59.37-.94.76-1.23.72Zm9.07-3.46c-.83.86-1.64,1.76-2.55,2.53-.24.21-.96.19-1.21-.02-.89-.74-1.71-1.58-2.45-2.47-.21-.26-.25-.97-.05-1.21.76-.92,1.63-1.76,2.52-2.55.22-.2.85-.27,1.04-.11.98.86,1.88,1.81,2.79,2.75.11.12.14.33.21.51-.1.2-.15.43-.29.57Zm2.63,3.91c-.36-.62-.75-1-.69-1.28.07-.3.54-.66.87-.69.21-.02.67.51.66.78-.02.32-.42.62-.85,1.19Zm.15-7.07c-.32-.03-.79-.41-.84-.7-.05-.28.35-.64.73-1.26.41.6.8.91.8,1.23,0,.26-.47.75-.69.73Zm8.75,3.39c-.7.74-1.43,1.44-2.14,2.17-.49.5-.98.58-1.5.06-.79-.8-1.62-1.57-2.36-2.41-.2-.23-.32-.86-.17-1.04.88-1.01,1.85-1.94,2.8-2.88.1-.09.26-.12.33-.16.69-.05,3.61,2.95,3.48,3.54-.06.26-.25.52-.44.72Zm2.94,3.68c-.39-.6-.8-.95-.76-1.23.04-.3.48-.68.81-.75.19-.04.69.46.7.73,0,.32-.36.64-.74,1.25Zm-.02-7.06c-.27,0-.77-.48-.74-.66.06-.33.41-.78.71-.84.28-.05.64.34,1.28.72-.62.41-.94.78-1.25.78Z"/>
      <path class="cls-1" d="m33.8,25.67c-.02,2.62-.01,5.24,0,7.86,0,.74-.35,1.05-1.07,1.05-.91,0-1.82-.03-2.73,0-.88.03-1.27-.34-1.24-1.23.03-1.19,0-2.38,0-3.64h-1.67v6.25h8.44c0-.5,0-1,0-1.5,0-2.8.02-5.6,0-8.4,0-.9.3-1.35,1.26-1.35,3.13.02,6.26.01,9.38,0,.82,0,1.18.35,1.18,1.19-.02,2.55-.02,5.09,0,7.64,0,.81-.29,1.23-1.15,1.2-.91-.03-1.82-.03-2.73,0-.85.02-1.17-.4-1.16-1.2.01-1.2,0-2.4,0-3.68h-1.68v6.28h8.39c.02-.37.06-.75.06-1.13,0-2.87,0-5.75,0-8.62,0-1.31.16-1.48,1.42-1.48,3.02,0,6.04.02,9.06-.02.99-.01,1.36.35,1.35,1.34-.04,2.47-.03,4.95,0,7.42,0,.86-.31,1.3-1.2,1.28-.87-.02-1.75-.02-2.62,0-.89.02-1.24-.43-1.22-1.28.02-1.19,0-2.38,0-3.64h-1.67v6.24h8.45v-2.19c0-2.62.01-5.24,0-7.86,0-.9.32-1.32,1.29-1.31,3.09.04,6.18.04,9.27,0,.97-.01,1.28.4,1.27,1.31-.02,2.47-.03,4.95,0,7.42,0,.92-.36,1.35-1.3,1.31-.84-.03-1.67-.03-2.51,0-.88.02-1.26-.39-1.24-1.26.02-1.19,0-2.39,0-3.65h-1.66v6.23h8.45c0-1.44,0-2.85,0-4.26,0-1.89,0-3.78,0-5.67,0-.16,0-.32.02-.47v-2.59c0-.21,0-.41,0-.62-.09,0-.18,0-.27,0-8.69,0-17.39,0-26.08,0h-25.54c-.24,0-.47,0-.71,0,0,0,0,.01,0,.02,0,.65,0,1.29,0,1.94,3.03,0,6.06,0,9.09,0,.71,0,1.05.35,1.04,1.09Z"/>
    </g>
  </g>
</svg>