<?xml version="1.0" encoding="UTF-8"?>
<svg id="Capa_2" data-name="Capa 2" xmlns="http://www.w3.org/2000/svg" viewBox="0 0 79.2 81.93">
  <defs>
    <style>
      .cls-1 {
        fill: #7f59b0;
        stroke-width: 0px;
      }
    </style>
  </defs>
  <g id="Capa_1-2" data-name="Capa 1">
    <g>
      <path class="cls-1" d="m41.83,34.54c.74-.64,1.6-1.62,1.78-1.51.9.56,1.61,1.4,2.47,2.23,2.2-1.89,5.02-3.19,8.23-3.52,3.51-.35,6.76.49,9.77,2.34,1.07.66,2.24,1.16,3.36,1.73.17-.12.35-.24.52-.36-.56-1.54-1.16-3.07-1.66-4.63-.48-1.53-1.33-2.08-3.02-2.03-3.87.12-7.64-.63-11.21-2.2-6.39-2.82-9.37-8.15-10.5-14.68-.48-2.76-.54-5.62-.56-8.44-.02-2.03,1.16-3.2,3.15-3.35,5-.37,9.91.05,14.6,1.99,6.45,2.67,9.56,7.9,10.84,14.42.42,2.13.56,4.33.66,6.51.05,1.02.31,1.56,1.23,2.1,3.92,2.26,6.64,5.53,7.49,10.06,1.38,7.41-4.71,13.96-12.24,13.34-3.47-.29-6.47-1.63-9.24-3.65-2.39-1.74-4.03-1.71-6.34-.1,1.32.96,2.75,1.84,3.94,2.97.47.44.39,1.46.56,2.22-.73.16-1.46.33-2.45.55-.34,2.09-.66,4.66-1.18,7.19-1.11,5.43-2.92,10.57-6.29,15.07-4.07,5.42-9.66,8.09-16.23,8.85-8.6.99-16.89-.6-24.99-3.35C1.68,77.31.03,75.1,0,72.11c-.08-8.43.92-16.72,4.43-24.51,4.26-9.47,11.78-14.11,22.01-14.63,5.31-.27,10.53.42,15.38,1.57Zm-17.51,44.65c.48,0,.96.01,1.44,0,.8-.03,1.6-.04,2.4-.12,7.34-.69,13.26-3.74,17.03-10.32,3.55-6.21,4.86-13.02,5.29-20.05.02-.4-.47-1.11-.84-1.21-1.7-.43-3.42-.8-5.16-1-2.04-.23-2.32-.7-1.78-2.64.44-1.57.55-3.22.78-4.84.14-.99-.37-1.44-1.33-1.57-4.32-.58-8.62-1.54-12.96-1.72-11.27-.46-18.64,4.21-22.74,14.08-2.98,7.16-3.81,14.71-3.67,22.39.03,1.86,1.2,3.05,2.92,3.61,6.05,1.97,12.22,3.36,18.63,3.38Zm43.07-57.33c.04-.47.09-.66.07-.84-.11-1.06-.17-2.13-.35-3.18-1.03-5.86-3.49-10.73-9.33-13.2-4.18-1.76-8.57-2.07-13.02-1.74-.36.03-.96.78-.96,1.2,0,2.13.05,4.27.31,6.38,1.38,10.96,11.46,17.99,22.01,15.39-.01-.14.02-.31-.04-.44-.3-.62-.59-1.25-.94-1.85-3.43-5.87-8.37-10.16-14.17-13.56-.46-.27-1.05-.46-1.32-.86-.27-.42-.45-1.17-.24-1.55.2-.38.92-.63,1.43-.66.42-.02.88.33,1.3.56,4.83,2.65,8.98,6.12,12.39,10.45.94,1.19,1.8,2.45,2.87,3.91Zm-21.57,22.33c.99-.4,1.93-.6,2.68-1.1,4.37-2.91,6.93-2.83,11.28-.05,1.84,1.18,3.97,2.12,6.1,2.57,4.89,1.03,9.45-2.04,10.42-6.66.9-4.28-1.94-9.37-6.49-11.59-.46.4-.94.82-1.37,1.2.71,1.96,1.52,3.82,2.05,5.75.86,3.18-.9,4.91-3.97,3.91-1.5-.49-2.92-1.27-4.3-2.06-5.06-2.89-11.19-2.1-15.25,2.07-.33.34-.57.88-.64,1.35-.21,1.36-.31,2.74-.5,4.6Z"/>
      <path class="cls-1" d="m5.47,68.24c.34-5.89,1.15-11.68,3.4-17.18,3.45-8.42,9.09-12.57,19.46-12.67.97,0,1.76.23,1.77,1.34,0,1.13-.83,1.3-1.77,1.37-1.54.1-3.08.23-4.61.46-5.32.8-9.06,3.75-11.4,8.53-3.05,6.22-3.84,12.92-4.11,19.72-.03.69.15,1.45-.08,2.06-.21.54-.85,1.26-1.3,1.26-.46,0-1.23-.73-1.31-1.24-.19-1.19-.06-2.44-.06-3.67Z"/>
      <path class="cls-1" d="m25.88,76.51c-.32,0-.72.12-.94-.03-.59-.39-1.1-.9-1.64-1.37.5-.45.95-1.2,1.52-1.31,1.5-.29,3.12-.09,4.58-.49,2.23-.6,4.41-1.47,6.54-2.38.9-.39,1.68-.88,2.35.15.68,1.05-.07,1.67-.87,2.2-3.51,2.29-7.46,2.99-11.54,3.22Z"/>
    </g>
  </g>
</svg>