<?xml version="1.0" encoding="UTF-8"?>
<svg id="Capa_2" data-name="Capa 2" xmlns="http://www.w3.org/2000/svg" viewBox="0 0 98.78 98.78">
  <defs>
    <style>
      .cls-1 {
        fill: #ddc7ff;
        stroke-width: 0px;
      }
    </style>
  </defs>
  <g id="Capa_1-2" data-name="Capa 1">
    <g>
      <path class="cls-1" d="m69.24,36.14c-9.26,3.11-17.9,7.49-25.99,12.95-.71.48-1.36,1.1-2.13,1.38-.45.16-1.28-.07-1.6-.43-.23-.26.02-1.06.24-1.54.16-.34.63-.53,1.01-.84-1.15-2.83-2.27-5.63-3.44-8.4-.23-.54-.59-1.04-.98-1.49-2.81-3.27-7.86-3.26-11.45.04.34.42.83.78,1.01,1.26,1.21,3.26,4.08,5.19,6.09,7.8,2.17,2.81,3.82,6.02,5.67,9.07,1.05,1.75,1.85,3.68,3.09,5.28,2.77,3.6,6.16,6.36,10.94,6.82,3.22.3,6.45.58,9.67.92,1.92.2,3.84.51,5.75.77-.34-.38-.75-.58-1.15-.79-3.7-1.93-7.48-3.73-11.07-5.84-2.06-1.21-3.98-2.14-6.41-1.4-.78.24-1.48-.13-1.61-1.02-.14-.96.45-1.37,1.35-1.47,1.23-.14,2.45-.29,3.67-.49,2.22-.37,4.4-.88,6.41-2.09-.72-.48-1.37-.89-1.98-1.34-.66-.49-.98-1.12-.43-1.86.53-.72,1.19-.64,1.91-.18.86.54,1.76,1.02,2.68,1.45.3.14.82.18,1.05.01,1.44-1.01,2.82-2.1,4.34-3.26-1.17-.47-2.09-.8-2.96-1.22-.72-.34-1.19-.91-.76-1.75.4-.79,1.04-.85,1.84-.53,1.02.4,2.08.73,3.15,1,.36.09.95,0,1.15-.23,1.04-1.26,1.98-2.59,3.02-3.98-1.24-.32-2.23-.56-3.2-.84-.81-.24-1.27-.8-.98-1.64.27-.81.91-.99,1.76-.76.98.27,1.99.44,3,.56.3.03.83-.18.92-.41.77-2.14,1.47-4.3,2.19-6.45-.16-.12-.32-.25-.48-.37-1.77.43-3.58.75-5.3,1.32Zm-36.19,3.14c-.5.34-.97.89-1.5.96-.81.1-1.46-.54-1.25-1.35.12-.49.82-1.11,1.31-1.15.45-.04.97.6,1.45.95,0,.2,0,.4-.01.59Z"/>
      <path class="cls-1" d="m49.39,0C22.11,0,0,22.11,0,49.39s22.11,49.39,49.39,49.39,49.39-22.11,49.39-49.39S76.67,0,49.39,0Zm27.81,35.79c-1.41,8.07-5.66,14.42-12.01,19.44-2.89,2.28-6.01,4.17-9.87,5.4,3.04,1.61,5.82,3.07,8.59,4.53,3.54,1.87,7.09,3.7,10.6,5.62,1.01.55,2.07,1.25,1.47,2.71-.4.98-1.2.98-3.04.53-3.55-.88-7.13-1.63-10.7-2.42-.3-.07-.63,0-1.2,0,2.05,1.16,3.89,2.19,5.58,3.15.48-.53.92-1.4,1.35-1.4.63,0,1.36.53,1.85,1.03.95.97,1.77,2.07,2.63,3.13.7.85.95,1.78.1,2.63-.86.86-1.76.53-2.64-.11-4.93-3.55-10.16-6.6-15.87-8.69-2.14-.78-4.46-1.05-6.7-1.56-4.16-.95-8-2.71-11.53-5.04-5.51-3.64-8.44-8.97-9.45-15.43-.32-2.06-.67-4.12-1.19-6.13-.64-2.42-2.16-4.18-4.67-4.78-2.27-.55-4.57-.98-6.87-1.35-.91-.15-1.82-.19-1.79-1.33.04-1.23,1.02-1.37,1.97-1.21,2.47.44,4.94.86,7.36,1.49.98.25,1.59.15,2.39-.43,2.84-2.1,6.02-3.27,9.59-2.53,3.13.65,5.3,2.62,6.62,5.51.53,1.16,1,2.34,1.48,3.47,3.53-2.95,6.93-6,10.56-8.73,3.09-2.32,6.42-4.32,9.73-6.34,1.06-.65,2.36-.95,3.58-1.29,1.14-.32,1.98.2,2.17,1.36.21,1.25.34,2.54.27,3.8-.02.44-.75,1.17-1.14,1.17-.43,0-1.08-.64-1.23-1.13-.24-.78-.14-1.66-.2-2.74-1.24.58-2.34,1.02-3.37,1.58-5.7,3.09-10.59,7.29-15.47,11.49-1,.86-1.92,1.82-2.95,2.65-.85.69-1.08,1.37-.21,2.31.29-.18.64-.38.98-.6,7.91-4.93,16.16-9.15,25.06-11.97,1.61-.51,3.31-.83,4.99-1.07,2.78-.39,3.64.54,3.16,3.3Z"/>
      <path class="cls-1" d="m39.32,63.66c-4.01-5.16-5.54-11.91-10.5-16.56-.5,6.07,5.57,15.57,10.5,16.56Z"/>
    </g>
  </g>
</svg>