<?xml version="1.0" encoding="UTF-8"?>
<svg id="Capa_2" data-name="Capa 2" xmlns="http://www.w3.org/2000/svg" viewBox="0 0 98.78 98.78">
  <defs>
    <style>
      .cls-1 {
        fill: #ddc7ff;
        stroke-width: 0px;
      }
    </style>
  </defs>
  <g id="Capa_1-2" data-name="Capa 1">
    <g>
      <path class="cls-1" d="m82.64,45.06c-1.38-.83-3.31-.92-5.01-1-1.51-.08-3.03.3-4.74.5,2.12,3.92-2.21,3.45-3.04,5.49.57.12,1.17.26,1.76.36,1.22.2,1.62.88,1.12,2.03-.37.86-.82,1.69-1.27,2.6,1.63.37,3.02.2,3.77-1.22,2.16-4.11,5.64-5.13,9.91-4.48.26.04.53.04.79.04.1,0,.2-.05.56-.15-1.33-1.49-2.33-3.25-3.85-4.16Z"/>
      <path class="cls-1" d="m15.28,74.3c9.31.95,18.63,1.82,27.81-.47,3.29-.82,6.36-2.52,9.52-3.87.33-.14.75-.56.77-.88.14-1.78.18-3.57.25-5.34-14.78-3.37-26.87,2.42-38.35,10.56Z"/>
      <path class="cls-1" d="m69.42,53.15c-.88-.84-1.7-1.58-2.47-2.37-.89-.92-.81-1.77.31-2.49,1.07-.68,2.11-1.4,3.47-2.31-.62-.38-1.02-.74-1.49-.88-4.29-1.3-6.76-4.12-6.96-8.63-.12-2.8-.08-5.62.12-8.41.18-2.51-.65-4.41-2.82-5.59-1.9-1.03-3.91-1.88-5.91-2.71-.33-.14-1.03.09-1.3.38-1.27,1.43-2.44,2.93-3.72,4.5.55.46.98.82,1.42,1.19,4.04,3.43,5.12,7.09,3.33,12.09-.64,1.78-1.7,3.4-2.58,5.09-.61,1.17-1.36,2.29-1.84,3.52-1.43,3.7-.21,7.12,3.17,9.19.45.28,1.06.4,1.37.77.38.45.53,1.1.78,1.67-.63.19-1.36.7-1.86.53-4.67-1.57-7.42-6.39-6.32-11.28.4-1.77,1.33-3.44,2.14-5.09.65-1.33,1.57-2.53,2.21-3.87,2.2-4.56,1.49-8.08-2.6-11.03-3.29-2.38-2.66-2.36-.55-5.05.26-.33.51-.67.95-1.26-9.49.71-18.76,1.59-28.41.18.75,1.94,1.4,3.63,2.07,5.36,3.63-.42,7.1-.82,10.58-1.22.42-.05.91-.25,1.25-.11.6.25,1.1.71,1.64,1.08-.46.47-.87,1.28-1.4,1.36-2.56.42-5.16.66-7.74.96-.95.11-1.89.22-2.85.33.45,2.29.7,2.48,2.86,2.23,3.8-.44,7.59-.87,11.39-1.32.96-.11,1.95-.16,2.08,1.06.13,1.23-.87,1.38-1.82,1.49-3.9.44-7.79.9-11.71,1.35.97,2.29,1.19,2.42,3.52,2.15,3.64-.42,7.28-.84,10.91-1.27.99-.12,2.08-.27,2.21,1.08.12,1.22-.91,1.35-1.85,1.46-3.52.4-7.03.81-10.64,1.23,3.27,3.72,9.92,3.91,13.95.51.2-.17.37-.48.58-.52.6-.1,1.22-.09,1.84-.13-.04.65.18,1.66-.16,1.9-1.52,1.11-3.1,2.31-4.85,2.9-1.68.56-2.5,1.3-2.36,3.19.48-.03.98-.03,1.48-.1.96-.13,1.95-.14,2.06,1.09.11,1.23-.9,1.38-1.84,1.46-.16.01-.32.04-.47.05q-2.38.28-2.67,2.88c.97-.11,1.92-.37,2.83-.27.53.06,1.01.67,1.51,1.04-.4.48-.71,1.2-1.21,1.37-.87.3-1.85.27-2.82.38q.89,2.46,3.12,2.21c.47-.05,1.02-.26,1.41-.11.51.2,1.22.67,1.26,1.08.05.42-.52,1.11-.98,1.33-.59.28-1.34.21-2.02.29-.05.17-.11.35-.16.52.55.22,1.08.58,1.64.62,3.85.34,7.71.54,11.55.93,2.16.22,2.27.51,2.14,2.65-.03.53-.02,1.06-.06,1.59q-.32,4.7,3.52,7.33c.94.64,1.53.35,1.6-.83.07-1.06.1-2.12.13-3.18.06-2.26,1.32-3.65,3.19-4.76,1.86-1.1,3.63-2.37,5.36-3.67.83-.62,1.5-1.47,2.4-2.37q-4.34-1.03-2.96-4.75Z"/>
      <path class="cls-1" d="m49.39,0C22.11,0,0,22.11,0,49.39s22.11,49.39,49.39,49.39,49.39-22.11,49.39-49.39S76.67,0,49.39,0Zm38.5,52.26c-.74-.07-1.48-.15-2.2-.31-4.1-.89-6.93.46-9.04,4.22-2.34,4.18-5.79,7.47-10.14,9.6-1.99.98-2.79,2.38-2.66,4.55.08,1.42-.12,2.86-.19,4.29-.25.17-.11.33.02.49.88,1.13,1.69,2.04,3.48,1.54,1.57-.43,3.36.91,3.74,2.52.15.62-.11,1.69-.56,2.01-.79.55-1.37-.09-1.79-.93-.23-.47-.9-1.05-1.33-1.01-.42.04-1,.74-1.1,1.24-.2.91-.57,1.69-1.49,1.38-.51-.18-.8-1.13-1.09-1.78-.3-.66-.32-1.49-.74-2.05-.76-1.02-1.68-1.74-3.04-2.22-1.57-.56-2.85-1.97-4.17-3.12-.77-.66-1.34-.68-2.22-.18-4.8,2.77-9.97,4.38-15.5,4.9-8.55.8-17.06.37-25.55-.72-.68-.09-1.3-.68-1.95-1.04.38-.64.62-1.45,1.17-1.88,5.17-4.11,10.76-7.57,16.91-10,3.28-1.29,6.69-2.24,10.12-3.38-.85-1.5-1.63-3.14-2.66-4.6-1.11-1.58-1.26-3.07-.61-4.89.76-2.13,1.21-4.38,1.83-6.67-5.59-1.23-7.61-2.25-10.64-5.59-4.85-5.35-7.58-11.82-9.68-18.61-.41-1.31.39-2.02,1.74-1.74,1.56.31,3.11.7,4.68.86,8.66.85,17.28.13,25.88-.8.79-.09,1.51-.74,2.3-1.05.54-.21,1.25-.54,1.7-.36,2.65,1.04,5.35,2.04,7.84,3.4,3.01,1.64,4.27,4.34,4.02,7.86-.21,2.95-.26,5.94-.02,8.88.32,3.91,3.63,6.1,7.41,5.28,1.66-.36,3.34-.63,5.01-.86,6.12-.84,9.73,3.39,11.89,8,.15.33.22.71.27,1.08.15,1.21-.37,1.83-1.63,1.71Z"/>
    </g>
  </g>
</svg>