<svg xmlns="http://www.w3.org/2000/svg" xmlns:xlink="http://www.w3.org/1999/xlink" viewBox="0 0 1109.14 1436.33"><defs><style>.cls-1{fill:none;}.cls-2{clip-path:url(#clip-path);}.cls-3{fill:#fff;}</style><clipPath id="clip-path" transform="translate(-146.21 0)"><rect class="cls-1" width="1361.1" height="1436.32"/></clipPath></defs><g id="Capa_2" data-name="Capa 2"><g id="Capa_1-2" data-name="Capa 1"><g class="cls-2"><path class="cls-3" d="M171.26,49.1c2.65-7.31,5.21-14.65,8-21.91a88.47,88.47,0,0,1,4-8,29.59,29.59,0,0,1,6.17,18.7c-.59-1.26-1.17-2.52-1.76-3.79l-.6.08a7.18,7.18,0,0,0,.14,2c2.89,8.16,3.4,16.62,2.75,25.12-.67,8.86-.93,17.61,2.5,26-15,3.59-36.13-4.18-45.18-16.62a7.06,7.06,0,0,1-1.06-4.58,129.84,129.84,0,0,1,2.18-13.28c1.35-6.14,3.14-12.1,10.3-14.51l-4,.21a5.12,5.12,0,0,1,.18-1.27c2.93-7,8.45-12.06,14.47-16,6.89-4.5,11.67-10.74,17-16.61A48.91,48.91,0,0,1,191.7.27V.06c-9.23,13.57-16.28,28.14-20.06,44.17a40.59,40.59,0,0,0-.52,4.82c-.17.45-.35.9-.52,1.34-.27,2.13-.55,4.25-.82,6.37-.08,2.41-.17,4.81-.25,7.22l.78,2.41-1.66,1,.41.18-.55.23c0-.14.05-.29.08-.44l1.57-1.05L169.4,64c.26-2.37.53-4.73.79-7.1q.51-3.15,1-6.3l.06-1.46" transform="translate(-146.21 0)"/><path class="cls-3" d="M212.2,115.78c-1.77.19-3.55.27-5.3.57a53.13,53.13,0,0,1-56.75-28.26,48.58,48.58,0,0,1-3.44-10.21c19.15,11,39.42,15.56,61.7,13.14-1.74,1.27-3.41,2.65-5.23,3.8-2,1.24-4,2.33-6.12,3.37s-4.21,1.92-6.26,3.18a88.68,88.68,0,0,0,29.11-5.73c.12.32.23.63.34,1L200,106.14c13.85,1.39,26.56-2.13,38.81-8.15-.44,7.72-9,18.37-18.27,22.74-13.47,6.33-26.62,5.84-39.36-2.24,10.55,1,21.08,2.12,31-2.85l1.53-.27-.13-.44-1.45.85" transform="translate(-146.21 0)"/><path class="cls-3" d="M191.7.27,191.49,0l.2.06Z" transform="translate(-146.21 0)"/><path class="cls-3" d="M1255.34,1436.21l-.14.12Z" transform="translate(-146.21 0)"/><path class="cls-3" d="M1255.2,1436.32c-.35-.44-.7-.88-1-1.33h0c.37.41.75.82,1.13,1.22Z" transform="translate(-146.21 0)"/></g></g></g></svg>