<svg xmlns="http://www.w3.org/2000/svg" xmlns:xlink="http://www.w3.org/1999/xlink" viewBox="0 0 1063.85 1436.33"><defs><style>.cls-1{fill:none;}.cls-2{clip-path:url(#clip-path);}.cls-3{fill:#fff;}</style><clipPath id="clip-path" transform="translate(-191.49 0)"><rect class="cls-1" width="1361.1" height="1436.32"/></clipPath></defs><g id="Capa_2" data-name="Capa 2"><g id="Capa_1-2" data-name="Capa 1"><g class="cls-2"><path class="cls-3" d="M359.78,742.5,350.43,722h.05c.16,1.52,0,3.15.52,4.53,5.38,14.74,3.1,27.75-8.34,38.87a76.85,76.85,0,0,0-17.18,25.24l11.22-3.33,2.33,0,0-.27.19.18h-2.54c-11.66,6-20.42,17.12-34.32,19.81l11.17,3.5c-9.72,2.74-19.38,2.18-30.06.31l3.92,3.5c-.11.33-.21.66-.32,1-5-1.47-10-2.74-14.91-4.43-12.68-4.37-26.46,4.27-28.59,14.06,9.66-6.43,17.08-1.82,24.16,4.33,5,4.38,11,6,17.52,6.15,1.94,0,3.88,0,6.72,0L286.51,838c17.27,7.93,29.1-.18,40.48-10.81q-1.29,2.88-2.6,5.76c9.57-5.7,17.61-12.7,23-22.45.63-1.14.23-4.8,3.52-2.31a5.44,5.44,0,0,0,1.27-1.39c7.21-12.11,13.37-24.67,14.61-39,.8-9.2-.9-17.91-6.92-25.34,0,.57,0,1.14,0,1.71l.12,2.27c.16.72.31,1.44.46,2.15a15.18,15.18,0,0,1,.64,2.83c.43,14.85-5.89,27.3-14.05,39.08-.16.23-.87.08-1.32.11l-2.07,3.49-1.77,2.59c-.11.36-.23.72-.11.35-.18.39,0,.09.1-.21.6-.87,1.2-1.74,1.81-2.6l2.1-3.49c7.68-12.77,15.34-25.56,14.4-41.34,0-.28.28-.58.43-.87l-.46-2.16-.12-2.24c-.07-.55-.14-1.1-.2-1.64" transform="translate(-191.49 0)"/><path class="cls-3" d="M349.3,720.73l.14-.11Z" transform="translate(-191.49 0)"/><path class="cls-3" d="M349.44,720.62l1,1.33h-.05l-1.13-1.22Z" transform="translate(-191.49 0)"/><path class="cls-3" d="M191.7.27,191.49,0l.2.06Z" transform="translate(-191.49 0)"/><path class="cls-3" d="M1255.34,1436.21l-.14.12Z" transform="translate(-191.49 0)"/><path class="cls-3" d="M1255.2,1436.32c-.35-.44-.7-.88-1-1.33h0c.37.41.75.82,1.13,1.22Z" transform="translate(-191.49 0)"/></g></g></g></svg>