<svg xmlns="http://www.w3.org/2000/svg" xmlns:xlink="http://www.w3.org/1999/xlink" viewBox="0 0 1190.35 1436.33"><defs><style>.cls-1{fill:none;}.cls-2{clip-path:url(#clip-path);}.cls-3{fill:#fff;}</style><clipPath id="clip-path" transform="translate(-64.99 0)"><rect class="cls-1" width="1361.1" height="1436.32"/></clipPath></defs><g id="Capa_2" data-name="Capa 2"><g id="Capa_1-2" data-name="Capa 1"><g class="cls-2"><path class="cls-3" d="M191.7.27,191.49,0l.2.06Z" transform="translate(-64.99 0)"/><path class="cls-3" d="M1255.34,1436.21l-.14.12Z" transform="translate(-64.99 0)"/><path class="cls-3" d="M1255.2,1436.32c-.35-.44-.7-.88-1-1.33h0c.37.41.75.82,1.13,1.22Z" transform="translate(-64.99 0)"/><path class="cls-3" d="M80.85,1359.42c7.58-7.33,15.17-15.52,23.67-22.64a65.5,65.5,0,0,1,32.08-14.22c14.17-2.29,26.25-8.32,36.12-18.74a14.22,14.22,0,0,1,1.52-1.28c3.84,12.17-12,28.42-27.62,34.59-.89-2.44-1.77-4.87-2.65-7.31-.31.13-.82.22-.83.36-.77,8.19-5.4,13.15-12.9,16-4.78,1.83-9.39,4.1-14.52,6.36-.47-3.93-.87-7.25-1.33-11-2.22,4.88-4,9.29-6.24,13.47a10,10,0,0,1-4.11,4.1c-15.81,7.72-27.44,19.76-36.46,34.6-.33.54-.71,1-1.69,2.48-.32-2.84-.61-4.72-.72-6.6a92,92,0,0,1,8.43-44.7c2-4.34,4.73-7.46,9.2-9.18,2.93-1.12,5.72-2.57,9.38-4.24L84,1328.36c5.21-5.27,9.86-10.17,14.77-14.79,1.05-1,3.05-1.19,4.65-1.34,3.44-.33,6.9-.39,11.55-.63l-8.47-4.76c7.67-4.71,15.1-8.57,23.21-10.95,1.38-.41,3.17.49,4.75.88s3.41,1,5.9,1.66c-1.27-2-2-3.14-3.35-5.19,3.44-.75,6.41-2,9.36-1.91a74.44,74.44,0,0,1,16.29,1.55c3.69.9,6.29.44,9.12-1.76,7-5.4,14.08-10.65,21.14-15.94.88-.66,1.85-1.18,2.78-1.77l1,1c-7.72,8.07-15.13,16.46-23.22,24.14a82.84,82.84,0,0,1-39.62,21c-23.64,5.41-40.66,20.36-52.93,39.89" transform="translate(-64.99 0)"/></g></g></g></svg>