<svg xmlns="http://www.w3.org/2000/svg" xmlns:xlink="http://www.w3.org/1999/xlink" viewBox="0 0 1063.85 1436.33"><defs><style>.cls-1{fill:none;}.cls-2{clip-path:url(#clip-path);}.cls-3{fill:#fff;}</style><clipPath id="clip-path" transform="translate(-191.49 0)"><rect class="cls-1" width="1361.1" height="1436.32"/></clipPath></defs><g id="Capa_2" data-name="Capa 2"><g id="Capa_1-2" data-name="Capa 1"><g class="cls-2"><path class="cls-3" d="M938.58,1037.74c-9.3-5-19.42-9.72-28.78-15.63a65.62,65.62,0,0,1-23.34-26.22c-6.5-12.79-15.93-22.45-28.87-28.66a16.22,16.22,0,0,1-1.69-1.07c10.43-7.36,30.72,2.71,41.38,15.75l-6.16,4.76c.22.25.47.71.6.67,8-1.76,14.18,1.13,19.19,7.4,3.19,4,6.76,7.69,10.49,11.89l-10.11,4.63c5.32.63,10.07,1,14.73,1.83a10,10,0,0,1,5.16,2.67c12.17,12.7,27.19,20.1,44.07,24.16.62.14,1.21.35,2.88.85-2.61,1.17-4.31,2-6.07,2.7a92.14,92.14,0,0,1-45.14,5.62c-4.74-.58-8.54-2.24-11.54-6-2-2.44-4.2-4.66-6.91-7.64-.15,3.15-.26,5.48-.42,8.76-6.61-3.35-12.7-6.28-18.6-9.55-1.26-.7-2.06-2.54-2.69-4-1.36-3.17-2.48-6.44-4.12-10.8l-2,9.51c-6.82-5.86-12.76-11.76-17.51-18.75-.81-1.19-.5-3.17-.61-4.8s-.13-3.53-.21-6.12l-3.92,4.78c-1.77-3-3.82-5.51-4.69-8.34a73.86,73.86,0,0,1-3.48-16c-.28-3.79-1.51-6.12-4.47-8.15-7.27-5-14.44-10.15-21.63-15.26-.89-.64-1.69-1.41-2.53-2.11.22-.41.44-.81.67-1.21,10,4.88,20.29,9.38,30.07,14.74a82.88,82.88,0,0,1,32.07,31.32c12.37,20.87,31.8,32.52,54.14,38.24" transform="translate(-191.49 0)"/><path class="cls-3" d="M191.7.27,191.49,0l.2.06Z" transform="translate(-191.49 0)"/><path class="cls-3" d="M1255.34,1436.21l-.14.12Z" transform="translate(-191.49 0)"/><path class="cls-3" d="M1255.2,1436.32c-.35-.44-.7-.88-1-1.33h0c.37.41.75.82,1.13,1.22Z" transform="translate(-191.49 0)"/></g></g></g></svg>