<svg xmlns="http://www.w3.org/2000/svg" viewBox="0 0 42.61 98.4">
  <style>
    .favicon {
      fill: #000;
    }
    @media (prefers-color-scheme: dark) {
      .favicon {
        fill: #fff;
      }
    }
  </style>
  <path
    class="favicon"
    d="m2.75,48.39c1.47,1.39,2.39,2.36,2.75,2.94l.37-.24c0-1.55.08-2.69.24-3.42-1.14-1.02-1.98-1.73-2.51-2.14v-.37c5.46-4.16,8.91-7.36,10.33-9.6.33-.2.71-.71,1.16-1.53.45-.81.9-1.32,1.35-1.53.86.08,2.02.06,3.49-.06,1.84-.12,3-.18,3.49-.18,1.02,0,1.59-.1,1.71-.31-.61-1.26-1.1-2.22-1.47-2.87-.41.08-.79.2-1.16.37-1.59-.2-2.73-.28-3.42-.24h-.79l-.37-.24c1.1-1.79,2.14-3.22,3.12-4.28,1.67,2.2,3.34,4.71,5.01,7.52.49.37,1.24,1.26,2.26,2.69.86,1.26,1.69,2.06,2.51,2.39l2.63,2.87h.18l.06-.73c0-.41-.08-.77-.24-1.1.28-1.35-.04-2.59-.98-3.73-6-7.36-9.4-12.01-10.23-13.98.14-.5.49-1.11,1.26-2.14,2.18-2.92,1.16-7.22,1.16-7.22-.36,1.92-2.16,3.31-2.16,3.31,2.17-1.91,1.35-7.39,1.35-7.39-.17,3.28-1.83,3.42-1.83,3.42,1.34-1.2,1.75-3.85,1.32-5.1-.7,1.89-2.25,2.27-2.25,2.27,1.17-.77,2.08-2.59,2.08-2.59-2.67-3.71-2.46-5.15-2.46-5.15-1.13.52-1.43,3.49-1.43,3.49,0,0-1,13.82.53,15.2.62.55,1.16,1.53,1.58,2.49l-7.05,8.27c-2.66.28-4.13.46-4.39.52-.29.73-.41,1.31-.37,1.71l-.06.18c0,.25.18.37.55.37.88,0,1.51,0,1.9-.02l-2.8,3.28c-.11-.19-.21-.33-.27-.39,0-2.32-.06-4.83-.18-7.52,0-.16-.07-.43-.21-.79-.14-.37-.21-.63-.21-.79,0-.2.06-.39.18-.55-.16-.77-1.35-1.16-3.55-1.16-.86,0-1.92-.08-3.18-.24-.49.12-.79.43-.92.92.2,2.77.18,5.01-.06,6.73l.06.92c2.24-.2,3.89-.31,4.95-.31l.49-.37c.36.36.55.68.59.98-.06.08-.25,1.77-.59,5.14,1.02-.86,1.79-1.53,2.32-2.02l.05.09L0,46.31c.37,0,1.28.69,2.75,2.08Zm10.86-16.17c.11-.02.23-.04.39-.04h.06v.31c-.19,0-.36-.08-.51-.22l.06-.05Zm-7.38-2.36c-.65.08-1.53.12-2.63.12h-.37l-.24-.67c0-.2.04-.47.12-.79.12-.16.18-.49.18-.98,0-.33.16-.49.49-.49,1.14,0,1.79.04,1.96.12.41.16.61.73.61,1.71,0,.41-.04.73-.12.98Zm1.62,7.61c-.53.65-1.02,1.1-1.44,1.32l1.44-1.32Z"
  ></path>
  <path
    class="favicon"
    d="m33.08,31.38c.37-.12.67-.2.92-.24.12.2.28.31.49.31.16,0,.38-.06.64-.18.26-.12.48-.18.64-.18.37,0,1,.12,1.9.37.9.24,1.57.37,2.02.37.37,0,.83-.08,1.41-.24l.12-.67c-.16-.37-.18-1.2-.06-2.51.16-1.79.24-2.71.24-2.75,0-.9-2.24-1.35-6.73-1.35l-.43.79v1.1c0,1.18.04,1.92.12,2.2.2.12.39.18.55.18s.28-.02.37-.06c.53-.69.8-1.26.8-1.71.16-.33.67-.49,1.53-.49.41,0,.88.04,1.41.12.28.2.43.47.43.79,0,.2-.14.86-.43,1.96-.49.41-.98.61-1.47.61-.33,0-.63-.08-.92-.24l-6.36-.67-.73.06-.06.37c.53.82.98,1.41,1.35,1.77.53.2,1.28.31,2.26.31Z"
  ></path>
  <path
    class="favicon"
    d="m9.12,75.06c.06,0,.12,0,.18.01-.21-.16-.32-.02-.18-.01Z"
  ></path>
  <path
    class="favicon"
    d="m11.52,75.34s.05,0,.07,0c-.08-.05-.13,0-.07,0Z"
  ></path>
  <path
    class="favicon"
    d="m18.4,40.22v-.38c0-.21.07-.38.21-.51.02-.13.04-.21.04-.25,0-.17-.03-.3-.1-.41-.07-.1-.15-.16-.24-.16h-.06l-.34.12c-.25.09-.46.2-.61.34-.16.14-.24.26-.24.36,0,.02.02.05.06.09.14,1.2.2,2.77.2,4.71,0,2.67-.05,4.37-.15,5.12-.1.75-.24,1.21-.42,1.4-.02.15-.04.25-.04.29,0,.33.14.49.43.49.07,0,.14,0,.2-.03.06-.02.11-.03.14-.03.05,0,.11.01.18.04.07.02.13.04.16.04.12,0,.23-.08.32-.25.09-.17.13-.38.13-.64,0-.21-.02-.48-.05-.82-.03-.34-.05-.57-.05-.72,0-.04.03-.86.1-2.44.07-1.58.1-3.71.1-6.37Z"
  ></path>
  <path
    class="favicon"
    d="m19.34,46.36c.6.23,1.27.64,2.01,1.21.74.58,1.55,1.19,2.46,1.83.9.64,1.47,1.13,1.69,1.47.23.34.48.5.77.5s.52-.12.71-.35c.19-.23.28-.52.28-.88,0-.21-.11-.35-.32-.43-.07.02-.13.04-.18.04-.07,0-.27-.06-.62-.18-.34-.12-.52-.23-.52-.33v-.02s-.08-.04-.18-.07c-.09-.03-.17-.06-.22-.08-.06-.09-.14-.15-.23-.2-.09-.05-.18-.12-.27-.2-.09-.09-.25-.18-.46-.27-.1-.08-.25-.21-.45-.4-.2-.18-.36-.31-.47-.39-.11-.07-.31-.22-.59-.42-.28-.21-.62-.46-1.02-.74-.4-.28-.69-.52-.87-.71s-.28-.41-.28-.66c0-.07.05-.19.16-.36.11-.17.19-.32.25-.45.01-.02.05-.06.11-.12.06-.06.15-.14.26-.24l.41-.37.61-.87.78-.95c.42-.5.63-.8.62-.91.52-.54.96-.94,1.34-1.19.09-.14.13-.27.13-.4v-.07c0-.12-.02-.24-.07-.34-.05-.01-.15-.02-.29-.02-.17,0-.37.03-.63.09l-1.28,1.85c-.35.48-.78,1.07-1.31,1.76-.53.69-.85,1.14-.98,1.35-.02.03-.12.11-.29.25-.18.14-.32.25-.42.33-.14.02-.29.06-.43.12-.18.25-.43.49-.76.74-.1.14-.15.27-.15.38,0,.21.23.45.69.71Z"
  ></path>
  <path
    class="favicon"
    d="m33.58,74.4c.06,0,.12,0,.18-.01.14,0,.03-.15-.18.01Z"
  ></path>
  <path class="favicon" d="m31.29,74.68s.05,0,.08,0c.06,0,0-.04-.08,0Z"></path>
  <path
    class="favicon"
    d="m42,44.15l-.35-.29c-1.83-1.63-3.12-3-3.85-4.1,0,.77-.04,1.34-.12,1.71-.12.16-.22.39-.31.67.08.24.35.62.79,1.13.45.51.73,1.13.86,1.87-.65.65-1.31,1.04-1.96,1.16-.29-.53-.43-1-.43-1.41,0-1.1.02-3.14.06-6.12.08-2.61.1-4.67.06-6.18l-.37-.67c-.94.04-1.59,0-1.96-.12,0,.29-.03.7-.09,1.25-.06.55-.09.97-.09,1.25,0,1.18.04,2.06.12,2.63.2.29.31.57.31.86,0,.16-.05.44-.15.83-.1.39-.15.68-.15.89,0,.16.02.33.06.49-.41,1.79-.61,3.3-.61,4.53,0,2,.2,3.12.61,3.36-1.59,1.59-3.16,3.2-4.71,4.83-1.83,1.88-3.26,3.63-4.28,5.26-.57.2-1.18.31-1.83.31-.41,0-1.05-.06-1.93-.18-.88-.12-1.52-.18-1.93-.18-.24,0-1.08.1-2.51.31.94,1.39,1.67,2.38,2.2,3,3.51-.24,5.28-.37,5.32-.37.86,0,1.35.18,1.47.55-.82.2-1.47.31-1.96.31l-.61-.06c-1.02,1.67-1.83,3.04-2.45,4.1-.41.04-.86-.1-1.35-.43,0-.33-.15-.77-.46-1.35-.31-.57-.46-1-.46-1.28-1.02-1.63-1.73-2.89-2.14-3.79,0,.49-.2-.08-.61-1.71-4-4.2-6.05-6.3-6.18-6.3l-.43.06c-.24-1.75-.31-3.06-.18-3.91.12-.86,0-2.36-.37-4.53l-.31-.06c.08,0-.49.47-1.71,1.41-.08,1.35-.12,2.45-.12,3.3s.04,1.39.12,1.71l-.31.61c0,.9-.14,1.39-.43,1.47.08,3.06.08,5.34,0,6.85,1.06.08,1.83.12,2.32.12-.2.37-.57.55-1.1.55-.37,0-.95-.05-1.74-.15-.79-.1-1.4-.15-1.8-.15-1.14,0-1.81.96-2.02,2.87-.08,1.55-.14,3.12-.18,4.71,2.61.16,4.79.24,6.54.24.33,0,.57-.08.73-.24.45-2.08.67-3.24.67-3.49,0-.33-.04-.65-.12-.98.08-.04.22-.06.43-.06s.51.05.92.15c.41.1.69.15.86.15.82,0,1.49-.04,2.02-.12-.16-.57-.47-1.18-.92-1.83.04-.82-.43-1.22-1.41-1.22-1.35,0-2.16-.14-2.45-.43v-4.83l.37-.31c.12.61.18,1.14.18,1.59,1.39,1.51,2.47,2.61,3.24,3.3.33.86.65,1.31.98,1.35,1.47,3.02,2.61,5.3,3.42,6.85,1.06,1.51,1.83,2.89,2.32,4.16-.08.24-.35.59-.79,1.04s-.67.79-.67,1.04c0,.73,1.35,2.99,1.22,3.3-.04.69-1.17,2.25-1.67,3.25-.65,1.3-2.16,1.04-2.97.66-.44-.3-.22-2.06-.74-2.72-.7-.87-1.83-1.23-2.35-1.26.16.09.43.5.35,2.15,0,0-.39-2.24-.84-2.32-.22-.05-1.11-.06-1.8-.1.23.18.59.73.85,2.28.04.23-.52-1.99-1.4-2.25-.46-.14-.99-.46-1.39-.73-.27-.18,1.12,1.13,1.06,2.97,0,.15-.38-2.24-1.51-3.07-.27-.2-.77-.24-.88-.54-.17-.15-.29-.47-.33-.75l-.34.66c-.14.88-.19.59.12,1.65.95,3.31,3.15,4.98,7.96,4.98,3.18,0,4.74-.86,7.1-4.24.08.08.12.2.12.37,0,.94-.47,2.14-1.41,3.61-1.1,1.75-1.73,2.94-1.9,3.55.45,1.06,1.02,1.73,1.71,2.02l.18.49c0,.16-.12.51-.37,1.04-.24.53-.37.98-.37,1.35,0,.9.45,1.96,1.35,3.18.28.98,1.38,6.16,1.62,6.77l-.15-4.76c.9-2.24,1.69-3.83,2.39-4.77,0-.61-.14-1.53-.43-2.75.12-.28.62-.67,1.5-1.16.88-.49,1.31-.98,1.31-1.47,0,.12-.29-.59-.86-2.14-1.75-.9-2.75-2.71-3-5.44h.12c.24.18.55.43.89.72.89,1.11,1.71,1.84,2.61,2.29.44.3.82.42,1.29.47.67.16,1.4.22,2.26.22,4.81,0,7.01-1.67,7.96-4.98.3-1.06.26-.77.12-1.65l-.34-.66c-.04.28-.16.6-.33.75-.11.3-.62.34-.88.54-1.13.83-1.5,3.22-1.51,3.07-.06-1.84,1.34-3.15,1.06-2.97-.4.27-.93.59-1.39.73-.88.26-1.44,2.48-1.4,2.25.26-1.55.61-2.1.85-2.28-.69.04-1.58.05-1.8.1-.45.08-.83,2.32-.83,2.32-.09-1.65.19-2.06.35-2.15-.53.03-1.66.38-2.35,1.26-.52.66-.3,2.42-.74,2.72-.48.23-1.19.4-1.83.25-.63-.53-1.03-1.02-1.4-1.38-.36-.63-.82-1.35-1.12-1.95,0-.1,0-.19,0-.28,0-.16.16-.51.49-1.04.33-.53.49-.96.49-1.28-.04-.25-.1-.45-.18-.61-1.14-1.34-2.12-2.22-2.94-2.63.37-.61,1.32-1.94,2.87-3.97,1.22-1.59,2.04-3,2.45-4.22.16,0,.42-.02.76-.06.35-.04.6-.06.76-.06.61,0,1.43.06,2.45.18,1.26.16,2.08.27,2.45.31.2-.82.28-1.49.24-2.02l-.06-.98c-4.2,0-6.5-.33-6.91-.98.73-.2,1.37-.31,1.9-.31l.61.06c1.92-1.83,3.51-3.4,4.77-4.71.33.73.49,1.43.49,2.08,0,.33-.07.87-.21,1.62-.14.76-.21,1.31-.21,1.68l.06.67.25.24.06,4.46c0,.53-.06,1.37-.18,2.51,1.35.16,2.49.25,3.42.25,1.96,0,3.16-.16,3.61-.49.08-1.1.12-2.26.12-3.49s-.04-2.34-.12-3.36c-.2-.33-.67-.49-1.41-.49-.57,0-1.26.08-2.08.24-.41.77-.61,1.39-.61,1.83.57.2,1.14.39,1.71.55.24.16.37.82.37,1.96,0,.53-.35.79-1.04.79-1.02,0-1.53-.45-1.53-1.35,0-2-.06-3.06-.18-3.18.29-1.18.43-3.81.43-7.89-.12-.12-.25-.2-.37-.24-.16,0-.31.16-.43.49-.45.16-.82.24-1.1.24,2.28-2.36,4.1-4.04,5.44-5.01.41-.77.75-1.05.92-1.16.41-.28.55-.48.73-.64l.48-.64h0s-.62-.51-.62-.51ZM7.34,63.25c-.73.16-1.35.24-1.83.24-.53,0-.94-.08-1.22-.24l-.12-.79c0-.28.04-.59.12-.92.45-.28.98-.43,1.59-.43s1.14.14,1.59.43c0,.69-.04,1.26-.12,1.71Zm1.28-14.55l-.12-.12h.12v.12Zm.67,3.42v-.49h.31c-.12.2-.22.37-.31.49Zm12.72,25.13l.37,2.2c.49.49.73.94.73,1.34l-.06.37c-.41.37-1.04.63-1.9.79-.86-.16-1.28-.53-1.28-1.1,0-.41.26-1.09.79-2.05.53-.96.98-1.48,1.35-1.56Zm13.33-29.6l-.43-.24,1.35-.79c-.37.49-.67.84-.92,1.04Z"
  ></path>
</svg>
