<svg xmlns="http://www.w3.org/2000/svg" xmlns:xlink="http://www.w3.org/1999/xlink" viewBox="0 0 1361.1 1436.33"><defs><style>.cls-1{fill:none;}.cls-2{opacity:0.4;}.cls-3{clip-path:url(#clip-path);}.cls-4{fill:#fff;}</style><clipPath id="clip-path" transform="translate(0 0)"><rect class="cls-1" width="1361.1" height="1436.32"/></clipPath></defs><g id="Capa_2" data-name="Capa 2"><g id="Capa_1-2" data-name="Capa 1"><g class="cls-2"><g class="cls-3"><path class="cls-4" d="M359.78,742.5,350.43,722h.05c.16,1.52,0,3.15.52,4.53,5.38,14.74,3.1,27.75-8.34,38.87a76.85,76.85,0,0,0-17.18,25.24l11.22-3.33,2.33,0,0-.27.19.18h-2.54c-11.66,6-20.42,17.12-34.32,19.81l11.17,3.5c-9.72,2.74-19.38,2.18-30.06.31l3.92,3.5c-.11.33-.21.66-.32,1-5-1.47-10-2.74-14.91-4.43-12.68-4.37-26.46,4.27-28.59,14.06,9.66-6.43,17.08-1.82,24.16,4.33,5,4.38,11,6,17.52,6.15,1.94,0,3.88,0,6.72,0L286.51,838c17.27,7.93,29.1-.18,40.48-10.81q-1.29,2.88-2.6,5.76c9.57-5.7,17.61-12.7,23-22.45.63-1.14.23-4.8,3.52-2.31a5.44,5.44,0,0,0,1.27-1.39c7.21-12.11,13.37-24.67,14.61-39,.8-9.2-.9-17.91-6.92-25.34,0,.57,0,1.14,0,1.71l.12,2.27c.16.72.31,1.44.46,2.15a15.18,15.18,0,0,1,.64,2.83c.43,14.85-5.89,27.3-14.05,39.08-.16.23-.87.08-1.32.11l-2.07,3.49-1.77,2.59c-.11.36-.23.72-.11.35-.18.39,0,.09.1-.21.6-.87,1.2-1.74,1.81-2.6l2.1-3.49c7.68-12.77,15.34-25.56,14.4-41.34,0-.28.28-.58.43-.87l-.46-2.16-.12-2.24c-.07-.55-.14-1.1-.2-1.64" transform="translate(0 0)"/><path class="cls-4" d="M349.3,720.73l.14-.11Z" transform="translate(0 0)"/><path class="cls-4" d="M349.44,720.62l1,1.33h-.05l-1.13-1.22Z" transform="translate(0 0)"/><polygon class="cls-4" points="329.46 855.95 329.8 856.19 329.55 856.08 329.46 855.95"/><path class="cls-4" d="M938.58,1037.74c-9.3-5-19.42-9.72-28.78-15.63a65.62,65.62,0,0,1-23.34-26.22c-6.5-12.79-15.93-22.45-28.87-28.66a16.22,16.22,0,0,1-1.69-1.07c10.43-7.36,30.72,2.71,41.38,15.75l-6.16,4.76c.22.25.47.71.6.67,8-1.76,14.18,1.13,19.19,7.4,3.19,4,6.76,7.69,10.49,11.89l-10.11,4.63c5.32.63,10.07,1,14.73,1.83a10,10,0,0,1,5.16,2.67c12.17,12.7,27.19,20.1,44.07,24.16.62.14,1.21.35,2.88.85-2.61,1.17-4.31,2-6.07,2.7a92.14,92.14,0,0,1-45.14,5.62c-4.74-.58-8.54-2.24-11.54-6-2-2.44-4.2-4.66-6.91-7.64-.15,3.15-.26,5.48-.42,8.76-6.61-3.35-12.7-6.28-18.6-9.55-1.26-.7-2.06-2.54-2.69-4-1.36-3.17-2.48-6.44-4.12-10.8l-2,9.51c-6.82-5.86-12.76-11.76-17.51-18.75-.81-1.19-.5-3.17-.61-4.8s-.13-3.53-.21-6.12l-3.92,4.78c-1.77-3-3.82-5.51-4.69-8.34a73.86,73.86,0,0,1-3.48-16c-.28-3.79-1.51-6.12-4.47-8.15-7.27-5-14.44-10.15-21.63-15.26-.89-.64-1.69-1.41-2.53-2.11.22-.41.44-.81.67-1.21,10,4.88,20.29,9.38,30.07,14.74a82.88,82.88,0,0,1,32.07,31.32c12.37,20.87,31.8,32.52,54.14,38.24" transform="translate(0 0)"/><path class="cls-4" d="M171.26,49.1c2.65-7.31,5.21-14.65,8-21.91a88.47,88.47,0,0,1,4-8,29.59,29.59,0,0,1,6.17,18.7c-.59-1.26-1.17-2.52-1.76-3.79l-.6.08a7.18,7.18,0,0,0,.14,2c2.89,8.16,3.4,16.62,2.75,25.12-.67,8.86-.93,17.61,2.5,26-15,3.59-36.13-4.18-45.18-16.62a7.06,7.06,0,0,1-1.06-4.58,129.84,129.84,0,0,1,2.18-13.28c1.35-6.14,3.14-12.1,10.3-14.51l-4,.21a5.12,5.12,0,0,1,.18-1.27c2.93-7,8.45-12.06,14.47-16,6.89-4.5,11.67-10.74,17-16.61A48.91,48.91,0,0,1,191.7.27V.06c-9.23,13.57-16.28,28.14-20.06,44.17a40.59,40.59,0,0,0-.52,4.82c-.17.45-.35.9-.52,1.34-.27,2.13-.55,4.25-.82,6.37-.08,2.41-.17,4.81-.25,7.22l.78,2.41-1.66,1,.41.18-.55.23c0-.14.05-.29.08-.44l1.57-1.05L169.4,64c.26-2.37.53-4.73.79-7.1q.51-3.15,1-6.3l.06-1.46" transform="translate(0 0)"/><path class="cls-4" d="M212.2,115.78c-1.77.19-3.55.27-5.3.57a53.13,53.13,0,0,1-56.75-28.26,48.58,48.58,0,0,1-3.44-10.21c19.15,11,39.42,15.56,61.7,13.14-1.74,1.27-3.41,2.65-5.23,3.8-2,1.24-4,2.33-6.12,3.37s-4.21,1.92-6.26,3.18a88.68,88.68,0,0,0,29.11-5.73c.12.32.23.63.34,1L200,106.14c13.85,1.39,26.56-2.13,38.81-8.15-.44,7.72-9,18.37-18.27,22.74-13.47,6.33-26.62,5.84-39.36-2.24,10.55,1,21.08,2.12,31-2.85l1.53-.27-.13-.44-1.45.85" transform="translate(0 0)"/><path class="cls-4" d="M191.7.27,191.49,0l.2.06Z" transform="translate(0 0)"/><path class="cls-4" d="M1244.86,1414.44l9.35,20.55h0c-.16-1.52,0-3.15-.52-4.53-5.38-14.74-3.1-27.75,8.34-38.87a77,77,0,0,0,17.18-25.24l-11.22,3.33-2.33,0,0,.27-.19-.17H1268c11.66-6,20.41-17.12,34.32-19.81l-11.17-3.5c9.72-2.74,19.38-2.18,30.06-.31l-3.92-3.5c.11-.33.21-.66.32-1,5,1.47,10,2.74,14.9,4.43,12.69,4.37,26.47-4.27,28.6-14.06-9.66,6.43-17.08,1.82-24.16-4.33-5-4.38-11-6-17.52-6.15-1.94,0-3.88,0-6.72,0l5.43-2.62c-17.27-7.93-29.1.18-40.49,10.81l2.61-5.76c-9.57,5.7-17.61,12.7-23,22.45-.63,1.14-.23,4.8-3.53,2.31a5.84,5.84,0,0,0-1.27,1.39c-7.2,12.11-13.36,24.67-14.6,39-.8,9.2.9,17.91,6.92,25.34,0-.57,0-1.14,0-1.71l-.12-2.27c-.16-.72-.31-1.44-.46-2.15a13.74,13.74,0,0,1-.64-2.83c-.43-14.85,5.89-27.3,14.05-39.07.16-.24.86-.09,1.32-.12l2.06-3.49c.6-.86,1.19-1.73,1.78-2.59.11-.36.22-.71.11-.35l-.1.22c-.6.86-1.2,1.73-1.81,2.59l-2.1,3.49c-7.68,12.77-15.34,25.56-14.4,41.34,0,.28-.28.58-.43.87.16.72.31,1.44.46,2.16l.12,2.24c.07.55.13,1.1.2,1.64" transform="translate(0 0)"/><path class="cls-4" d="M1255.34,1436.21l-.14.12Z" transform="translate(0 0)"/><path class="cls-4" d="M1255.2,1436.32c-.35-.44-.7-.88-1-1.33h0c.37.41.75.82,1.13,1.22Z" transform="translate(0 0)"/><polygon class="cls-4" points="1275.18 1300.99 1274.83 1300.75 1275.09 1300.87 1275.18 1300.99"/><path class="cls-4" d="M1213.45,716.43c-2.64,7.31-5.21,14.65-8,21.91a88.77,88.77,0,0,1-4,8,29.65,29.65,0,0,1-6.17-18.7l1.77,3.79.6-.08a7.59,7.59,0,0,0-.14-2c-2.89-8.16-3.4-16.62-2.76-25.12.68-8.86.94-17.61-2.49-26,15-3.59,36.12,4.18,45.17,16.62a7.07,7.07,0,0,1,1.07,4.58,132.65,132.65,0,0,1-2.18,13.28c-1.35,6.14-3.14,12.1-10.31,14.51l4-.21a5.13,5.13,0,0,1-.17,1.27c-2.93,7-8.45,12.06-14.47,16-6.9,4.5-11.67,10.74-17,16.61a48.91,48.91,0,0,1-5.27,4.42v.21c9.23-13.57,16.27-28.13,20-44.17a36.62,36.62,0,0,0,.52-4.82c.18-.45.35-.9.52-1.34.28-2.13.55-4.25.83-6.37l.24-7.22-.78-2.41,1.67-1-.41-.18.55-.23c0,.15-.06.29-.08.44l-1.58,1,.76,2.39c-.27,2.37-.53,4.73-.8,7.1q-.49,3.15-1,6.3l-.06,1.46" transform="translate(0 0)"/><path class="cls-4" d="M1172.51,649.75c1.77-.19,3.56-.27,5.31-.57a53.15,53.15,0,0,1,56.75,28.26,48,48,0,0,1,3.43,10.21c-19.15-11-39.42-15.56-61.7-13.14,1.74-1.27,3.42-2.65,5.24-3.8a68.44,68.44,0,0,1,6.12-3.37c2.07-1,4.21-1.92,6.25-3.18a88.73,88.73,0,0,0-29.11,5.73c-.11-.32-.22-.63-.34-.95l20.22-9.55c-13.85-1.39-26.57,2.13-38.82,8.15.45-7.72,9-18.37,18.28-22.74,13.47-6.33,26.62-5.84,39.35,2.24-10.54-1-21.07-2.12-31,2.85l-1.53.27.14.44,1.44-.85" transform="translate(0 0)"/><path class="cls-4" d="M1193,765.26l.21.27-.2-.06Z" transform="translate(0 0)"/><path class="cls-4" d="M1262.05,212.43c14.35,15.31,12.49,33.37,4,47.71-.57,1-2.4,1.56-3.68,1.63-2.26.12-4.55-.29-7,.06l7.48,3.45c-4,3.65-7.67,6.83-11.11,10.28-5.64,5.65-12.12,7.76-19.89,5.47a13.4,13.4,0,0,0-3-.32,18.52,18.52,0,0,0-2.42.37l12,3.81c-8.7,4.93-16.68,9.23-24.43,13.91-6.3,3.8-12.86,6.6-20.23,7.37l11.63,4,.57,1c-20.36,1-27,13.32-26.19,32.48-3.13-4.09-4.87-7.14-5-11.24-.53-26.08,15-49.11,40.64-59.71,11.4-4.72,22.7-9.59,32.73-16.93,1.34-1,2.68-2,4-3,14-11.69,16.8-22.25,9.88-40.36" transform="translate(0 0)"/><path class="cls-4" d="M1174.72,313.29c-.83-13.4,1.81-23.49,5.84-23.89,1.49-14.14,13-19.43,23-26,1-.66,2.6-.37,4.49-.59,1.39-3.25,7.36-5.49,10.45-2.76,1.23-4.3,4.68-5.29,8.45-6.31,11.6-3.12,21.69-9.2,31.07-16.57a36.55,36.55,0,0,1,5.18-3.57c-1.55,5.27-4.72,9.44-8.46,13.19-8,8-17.86,13.21-28,17.92-7.54,3.5-15.18,6.91-22.26,11.22-14.62,8.89-21.08,17.39-29.7,37.38" transform="translate(0 0)"/><path class="cls-4" d="M80.85,1359.42c7.58-7.33,15.17-15.52,23.67-22.64a65.5,65.5,0,0,1,32.08-14.22c14.17-2.29,26.25-8.32,36.12-18.74a14.22,14.22,0,0,1,1.52-1.28c3.84,12.17-12,28.42-27.62,34.59-.89-2.44-1.77-4.87-2.65-7.31-.31.13-.82.22-.83.36-.77,8.19-5.4,13.15-12.9,16-4.78,1.83-9.39,4.1-14.52,6.36-.47-3.93-.87-7.25-1.33-11-2.22,4.88-4,9.29-6.24,13.47a10,10,0,0,1-4.11,4.1c-15.81,7.72-27.44,19.76-36.46,34.6-.33.54-.71,1-1.69,2.48-.32-2.84-.61-4.72-.72-6.6a92,92,0,0,1,8.43-44.7c2-4.34,4.73-7.46,9.2-9.18,2.93-1.12,5.72-2.57,9.38-4.24L84,1328.36c5.21-5.27,9.86-10.17,14.77-14.79,1.05-1,3.05-1.19,4.65-1.34,3.44-.33,6.9-.39,11.55-.63l-8.47-4.76c7.67-4.71,15.1-8.57,23.21-10.95,1.38-.41,3.17.49,4.75.88s3.41,1,5.9,1.66c-1.27-2-2-3.14-3.35-5.19,3.44-.75,6.41-2,9.36-1.91a74.44,74.44,0,0,1,16.29,1.55c3.69.9,6.29.44,9.12-1.76,7-5.4,14.08-10.65,21.14-15.94.88-.66,1.85-1.18,2.78-1.77l1,1c-7.72,8.07-15.13,16.46-23.22,24.14a82.84,82.84,0,0,1-39.62,21c-23.64,5.41-40.66,20.36-52.93,39.89" transform="translate(0 0)"/><path class="cls-4" d="M87.49,403.21c14.34,15.31,12.49,33.37,4,47.71-.57,1-2.4,1.56-3.68,1.63-2.27.12-4.56-.29-7,.07l7.49,3.44c-4,3.65-7.67,6.83-11.11,10.28C71.51,472,65,474.1,57.25,471.82a12.76,12.76,0,0,0-3-.33,18.28,18.28,0,0,0-2.42.37l12,3.82c-8.69,4.92-16.67,9.22-24.42,13.9-6.3,3.8-12.86,6.6-20.23,7.38l11.62,4c.2.34.39.68.58,1-20.36,1-27,13.32-26.19,32.47-3.13-4.08-4.88-7.13-5-11.23-.53-26.09,15-49.12,40.64-59.72,11.39-4.72,22.69-9.59,32.73-16.93,1.34-1,2.68-2,3.95-3,14-11.69,16.81-22.25,9.89-40.36" transform="translate(0 0)"/><path class="cls-4" d="M.15,504.08C-.68,490.68,2,480.58,6,480.18c1.49-14.13,13-19.43,23-26,1-.65,2.61-.37,4.49-.59,1.4-3.25,7.37-5.49,10.45-2.76,1.24-4.29,4.69-5.29,8.46-6.31,11.59-3.12,21.69-9.2,31.07-16.56a35.16,35.16,0,0,1,5.17-3.58c-1.54,5.28-4.71,9.44-8.46,13.19-8,8-17.85,13.21-28,17.93-7.53,3.49-15.18,6.9-22.25,11.21C15.24,475.58,8.77,484.08.15,504.08" transform="translate(0 0)"/></g></g></g></g></svg>