<?xml version="1.0" encoding="UTF-8"?>
<svg id="Capa_2" data-name="Capa 2" xmlns="http://www.w3.org/2000/svg" viewBox="0 0 82.87 82.66">
  <defs>
    <style>
      .cls-1 {
        fill: #f44a9f;
        stroke-width: 0px;
      }
    </style>
  </defs>
  <g id="Capa_1-2" data-name="Capa 1">
    <g>
      <polygon class="cls-1" points="82.87 40.27 42.81 40.27 42.81 0 39.85 0 39.85 40.29 0 40.29 0 43.14 39.9 43.14 39.9 82.66 42.83 82.66 42.83 43.2 82.87 43.2 82.87 40.27"/>
      <path class="cls-1" d="m8.13,17.96c-.69-.52-1.56-.93-2.02-1.61-.36-.53-.22-1.4-.3-2.12.72.11,1.55.03,2.13.37.73.43,1.37,1.12,1.87,1.83,1.53,2.16,3.62,2.47,6.32,1.93-1.58-1.58-3.03-3.04-4.49-4.5-.37-.37-.74-.75-1.12-1.12-.73-.7-1.38-1.59-.39-2.33.41-.31,1.69,0,2.18.46,1.9,1.74,3.63,3.64,5.8,5.87,0-2.31.67-4.16-1.22-5.62-1.06-.82-2.03-1.8-2.83-2.87-.34-.46-.16-1.32-.21-2,.67.06,1.5-.11,1.97.22.73.52,1.22,1.38,1.98,2.3.79-1.48-.34-3.71,1.85-3.5.66.06,1.16,1.73,1.96,3.43.35-.61.61-1.28,1.06-1.81.65-.76,1.46-1.64,2.47-.57,1,1.06.01,1.78-.67,2.49-.53.55-1.01,1.17-1.62,1.6-2.05,1.47-2.29,3.46-1.64,6.41,1.73-1.91,3.19-3.53,4.67-5.15.35-.39.68-.92,1.13-1.08.62-.22,1.33-.14,2.01-.2-.05.67.16,1.57-.19,1.97-1.38,1.59-2.94,3.02-4.42,4.52-.44.44-.85.91-1.43,1.53,2.36.32,4.33.42,5.79-1.65.67-.94,1.56-1.78,2.5-2.44.43-.3,1.23-.08,1.86-.1-.01.63.22,1.44-.09,1.84-.58.76-1.48,1.29-2.51,2.13,1.61.68,3.65-.28,3.7,1.68.04,1.91-1.89,1.14-3.55,1.68.98.82,1.84,1.3,2.32,2.04.31.47.06,1.3.06,1.97-.63-.06-1.41.1-1.85-.22-.89-.63-1.74-1.44-2.37-2.33-1.47-2.09-3.48-1.87-6.12-1.62,2.19,2.12,4.11,3.89,5.9,5.78.42.44.74,1.49.51,1.93-.62,1.12-1.53.74-2.3-.04-1.83-1.87-3.66-3.74-5.78-5.91-.25,2.51-.58,4.52,1.52,6.01.89.63,1.73,1.46,2.33,2.37.35.53.18,1.4.24,2.11-.67-.07-1.49.06-1.99-.27-.69-.47-1.14-1.3-1.92-2.25-.63,1.55.21,3.65-1.82,3.4-.66-.08-1.13-1.64-1.8-2.71-.36.35-.95,1.15-1.73,1.61-.52.31-1.32.13-1.99.18.06-.68-.09-1.48.23-2,.47-.78,1.2-1.46,1.95-1.99,2.15-1.53,2.49-3.61,1.93-6.31-1.33,1.33-2.55,2.53-3.76,3.74-.62.62-1.24,1.24-1.86,1.86-.7.7-1.56,1.44-2.32.39-.3-.42.02-1.66.46-2.18,1.28-1.51,2.77-2.85,4.18-4.26.4-.4.78-.83,1.38-1.46-2.33-.16-4.36-.57-5.85,1.56-.63.9-1.46,1.73-2.37,2.33-.53.35-1.4.19-2.12.25.08-.68-.04-1.5.3-2.01.47-.69,1.29-1.14,2.2-1.89-1.47-.67-3.61.24-3.33-1.84.09-.66,1.63-1.14,2.51-1.69.23-.04.47-.07.7-.11Z"/>
      <path class="cls-1" d="m63.25,55.72c4.35.02,7.78,3.49,7.76,7.84-.03,4.36-3.47,7.77-7.84,7.75-4.35-.02-7.78-3.48-7.76-7.84.02-4.34,3.49-7.77,7.85-7.75Zm5.15,7.86c.04-2.85-2.37-5.28-5.22-5.26-2.79.02-5.13,2.35-5.17,5.14-.04,2.78,2.26,5.17,5.05,5.26,2.84.09,5.3-2.28,5.34-5.14Z"/>
      <path class="cls-1" d="m64.53,78.14c0,.64.18,1.36-.05,1.9-.22.54-.81,1.13-1.34,1.25-.31.07-1.11-.7-1.18-1.16-.17-1.26-.2-2.57-.02-3.83.07-.52.81-.94,1.24-1.41.45.5,1.05.93,1.32,1.52.22.48.04,1.14.04,1.73,0,0,0,0-.01,0Z"/>
      <path class="cls-1" d="m64.52,49.01c0,.64.16,1.34-.05,1.9-.19.5-.79,1.15-1.22,1.17-.43.01-1.21-.65-1.27-1.09-.18-1.32-.2-2.69-.02-4,.07-.49.85-.89,1.31-1.33.42.48,1.01.89,1.22,1.45.21.56.05,1.27.05,1.91h-.02Z"/>
      <path class="cls-1" d="m48.61,64.85c-.58,0-1.25.17-1.73-.04-.59-.27-1.03-.87-1.53-1.32.47-.44.89-1.16,1.41-1.25,1.2-.19,2.46-.19,3.66,0,.53.08.96.8,1.43,1.23-.5.46-.93,1.07-1.51,1.34-.48.22-1.15.05-1.73.05Z"/>
      <path class="cls-1" d="m77.85,64.86c-.58,0-1.24.17-1.73-.04-.59-.26-1.03-.85-1.53-1.3.46-.44.86-1.18,1.38-1.27,1.19-.19,2.46-.19,3.65,0,.53.08.96.79,1.44,1.21-.49.47-.9,1.08-1.48,1.36-.48.23-1.14.05-1.73.05Z"/>
      <path class="cls-1" d="m72.5,70.79c1.29,1.52,2.51,2.91,3.64,4.37.12.15-.25.96-.57,1.11-.39.19-1.12.2-1.42-.05-1.06-.9-2.06-1.89-2.96-2.95-.26-.3-.25-1.01-.09-1.42.13-.34.67-.53,1.4-1.05Z"/>
      <path class="cls-1" d="m53.93,56.23c-1.3-1.51-2.54-2.89-3.69-4.35-.11-.14.28-.94.6-1.09.39-.19,1.11-.21,1.41.03,1.07.89,2.07,1.88,2.97,2.94.26.3.25,1.02.09,1.44-.12.34-.66.52-1.38,1.03Z"/>
      <path class="cls-1" d="m74.5,50.2c1.4.3,2.13,1.48,1.48,2.3-.9,1.13-1.94,2.17-3.06,3.09-.84.68-2.39-.18-1.95-.93.95-1.62,2.33-2.99,3.54-4.46Z"/>
      <path class="cls-1" d="m54.49,71.15c.23.19.75.41.86.75.13.43.09,1.12-.18,1.44-.86,1.02-1.81,1.98-2.84,2.82-.33.27-1.19.29-1.54.04-.34-.24-.62-1.22-.43-1.44,1.05-1.23,2.24-2.34,3.4-3.47.1-.1.33-.07.73-.14Z"/>
      <path class="cls-1" d="m72.57,18.89c-.23,3.91-1.04,7.41-3.91,10.05-.76.7-1.7,1.39-2.66,1.62-1.41.33-1.54,1.14-1.46,2.28.05.76.17,1.58-.06,2.26-.18.53-.81,1.13-1.33,1.24-.32.07-1.07-.67-1.2-1.16-.31-1.24-.11-2.72-.35-3.92,0,0-2.04-.88-3.28-1.83-3.79-2.89-5.5-9.49-3.73-14.61,1.49-4.31,4.24-7.79,7.5-10.88.41-.39,1.74-.48,2.08-.15,3.98,3.89,7.45,8.12,8.31,13.89.07.46.07.93.09,1.2Zm-10.6,10.17c0-.58-.11-2.24-.11-2.81,0-2.22,0-4.44,0-6.66,0-1.01-.05-2.18,1.4-2.14,1.3.04,1.29,1.11,1.28,2.08,0,1.29,0,2.57,0,3.86,0,1.59,0,3.18,0,4.94,3.03-1.14,4.23-3.36,4.9-5.92,1.76-6.74-2.15-11.27-6.2-15.95-2.76,2.92-5.14,5.86-6.28,9.58-1.01,3.3-.48,6.53,1.34,9.42.72,1.15,2.55,3.25,3.66,3.61Z"/>
      <path class="cls-1" d="m10.23,63.83c-1.61-3.1-2.4-6.02-1.96-9.23.22-1.59.96-2.21,2.48-1.83,1.52.38,3.02.83,4.48,1.24.5-1.73.83-3.66,1.65-5.37.55-1.16,1.78-2,2.7-2.98.89,1.02,2.08,1.91,2.61,3.09.76,1.67,1.05,3.56,1.53,5.3,1.46-.41,3.06-.9,4.69-1.3,1.47-.37,2.21.36,2.38,1.79.3,2.61,0,5.14-1.11,7.54-.24.52-.47,1.03-.73,1.58,1.36.15,2.57.28,3.78.43,1.48.19,1.77,1.09,1.47,2.4-.48,2.06-1.61,3.79-3.41,4.7-2.73,1.39-5.63,2.49-8.52,3.54-.96.35-1.52.61-1.42,1.73.09.99.18,2.03-.04,2.97-.17.71-.75,1.75-1.29,1.84-1.08.19-1.35-.81-1.34-1.79.02-1.4,0-2.8,0-4.26-1.78-.53-3.61-.81-5.19-1.6-2.27-1.13-4.37-2.61-6.51-4-.41-.27-.67-.81-.92-1.26-1.67-2.99-.95-4.34,2.43-4.53.64-.04,1.28,0,2.23,0Zm-2.4,2.75c1.18,2.74,6.21,5.44,10.36,5.61,0-.58,0-1.16,0-1.73,0-1.7,0-3.4,0-5.09,0-.94.09-1.88,1.28-1.92,1.32-.04,1.39.99,1.41,1.97,0,.59,0,1.17,0,1.76,0,1.68,0,3.36,0,5.28,4.11-1.11,7.96-2,10.3-5.88-1.57-.05-3.08.14-4.56.48-.98.22-1.91,1.71-2.91.35-1.03-1.4.55-2.03,1.24-2.84,2.17-2.59,3.52-5.44,3.29-9.05-2.05.31-3.54,1.21-4.87,2.52-.37.37-1.18.58-1.68.44-.35-.1-.62-.88-.72-1.39-.12-.62.05-1.29-.04-1.92-.29-1.91-.98-5.71-.98-5.71,0,0-.33-1.05-.52-1.05-.15,0-.49,1.07-.49,1.07,0,0-.52,4.42-.86,6.61-.13.85-.49,1.66-.75,2.48-.73-.35-1.48-.67-2.19-1.06-1.35-.73-2.68-1.49-4.3-2.4-.24,4.4,1.4,7.48,3.99,10.24.43.46.38,1.38.56,2.08-.72.01-1.56.27-2.14,0-1.74-.83-3.48-1.21-5.42-.83Z"/>
    </g>
  </g>
</svg>