<?xml version="1.0" encoding="UTF-8"?>
<svg id="Capa_2" data-name="Capa 2" xmlns="http://www.w3.org/2000/svg" viewBox="0 0 82.79 83.04">
  <defs>
    <style>
      .cls-1 {
        fill: #f44a9f;
        stroke-width: 0px;
      }
    </style>
  </defs>
  <g id="Capa_1-2" data-name="Capa 1">
    <g>
      <path class="cls-1" d="m43.62,37.15c.9.86,1.72,1.64,2.67,2.54,5.56-3.21,11.51-3.72,17.61-1.3,4.58,1.82,8.12,4.9,10.47,9.27,4.48,8.32,2.22,18.82-5.32,24.86-7.43,5.96-18.04,5.81-25.27-.36-6.75-5.75-10.22-16.63-3.72-26.65-.77-.79-1.61-1.65-2.62-2.69-3.52,5.18-5.27,10.33-4.6,16.04,1.41,12.01,10.68,20.87,22.73,21.77,5.07.38,9.71-1.15,13.98-3.86.58-.37,1.11-.88,1.85-.64,1.01.33.94,1.6.19,2.16-2.76,2.08-5.88,3.41-9.26,4.11-7.09,1.48-13.76.41-19.9-3.5-.77-.49-1.28-.43-2.02.03-16.04,9.99-36.78.71-40.05-17.9-2.46-13.98,7.63-27.76,21.89-29.94,6.53-1,12.61.11,18.13,3.77,1.04.69,1.64.26,2.43-.23,10.5-6.47,24.09-4.81,32.45,3.95,8.62,9.04,9.98,22.7,3.24,32.7-.72,1.07-1.51,2.14-2.44,3.02-.43.41-1.23.67-1.81.45-1.01-.39-.47-1.47.03-2.05,3.04-3.57,5.11-7.58,5.88-12.26,2.05-12.43-7.54-25.4-20.06-27.07-5.94-.79-12.12.6-16.49,3.77Zm4.26,4.61c6.23,10.16,6.22,20.23.03,30.27,6.46,4.3,16.29,2.66,21.88-3.59,5.77-6.44,5.9-16.17.32-22.72-5.6-6.56-15.37-8.34-22.23-3.96Zm-12.86,30.23c-6.31-10.14-6.26-20.21,0-30.22-6.83-4.39-16.68-2.6-22.25,3.96-5.59,6.57-5.45,16.25.33,22.71,5.58,6.24,15.49,7.89,21.92,3.55Zm1.41,2.23c-10.5,6.01-21.53,1.11-26.53-5.87-5.55-7.74-4.67-18.56,2.12-25.44,6.79-6.88,17.57-7.99,25.41-2.56,4.11,2.85,6.86,6.72,8.19,11.53,1.58,5.73.65,11.13-2.66,16.2.9.87,1.74,1.67,2.59,2.48,6.34-7.68,6.54-21.12-2.39-30.34-8.75-9.03-23.36-9.44-32.74-.96C.96,47.82-.2,62.14,7.79,71.74c7.89,9.48,22.52,11.81,31.31,5.05-.83-.8-1.68-1.62-2.68-2.57Zm5.06-8.65c3.21-4.97,3.14-13.47-.07-17.23-3.19,4.18-3.2,12.73.07,17.23Z"/>
      <path class="cls-1" d="m41.47,7.87c2.38-3.08,5.36-4.18,8.97-3.13,4.48,1.3,6.83,5.97,5.11,10.3-.63,1.58-1.58,3.09-2.62,4.44-2.82,3.67-6.31,6.66-10.1,9.31-.74.52-1.43.91-2.35.26-4.4-3.11-8.52-6.51-11.6-10.98-1.65-2.39-2.58-5-1.72-7.96.09-.31.11-.73.33-.9.45-.36,1-.58,1.51-.86.25.52.84,1.15.71,1.54-1.04,3.25.13,5.99,2.23,8.2,2.74,2.89,5.83,5.44,8.82,8.08.27.24,1.07.26,1.38.03,3.75-2.69,7.29-5.63,9.84-9.55.69-1.06,1.25-2.3,1.5-3.54.63-3.12-1.43-5.85-4.57-6.31-3-.44-5.7,1.6-6.15,4.66-.02.11.03.25-.03.32-.41.54-.83,1.06-1.26,1.59-.42-.52-1.12-1-1.22-1.58-.48-2.6-1.86-4.4-4.31-4.87-1.01-.2-2.12.2-3.17.14-.62-.04-1.22-.44-1.84-.67.34-.53.56-1.3,1.05-1.54,2.49-1.22,6.22-.38,8.39,1.77.34.34.65.71,1.11,1.22Z"/>
      <path class="cls-1" d="m25.03,2.59c-.21,1.05-.8,1.51-1.74,1.09-.93-.41-1.83-.93-2.63-1.55-.32-.25-.57-.99-.43-1.35.14-.37.93-.87,1.18-.76,1.16.52,2.25,1.21,3.33,1.89.18.11.21.47.29.68Z"/>
      <path class="cls-1" d="m59.11,4.05c-.43-.33-.88-.51-1.03-.83-.16-.34-.18-1.05.02-1.19,1.09-.76,2.24-1.44,3.43-2.01.23-.11.89.33,1.11.67.17.27.12.98-.1,1.14-1.06.79-2.22,1.46-3.43,2.22Z"/>
      <path class="cls-1" d="m25.03,23.11c-.16.23-.3.63-.58.81-.85.56-1.71,1.14-2.66,1.49-.4.15-1.24-.12-1.45-.47-.21-.33-.04-1.23.28-1.49.82-.66,1.78-1.22,2.76-1.62.97-.4,1.5.17,1.65,1.27Z"/>
      <path class="cls-1" d="m59.14,21.51c1.2.76,2.34,1.44,3.4,2.23.21.16.26.88.09,1.14-.23.34-.88.76-1.13.65-1.16-.52-2.28-1.16-3.32-1.89-.24-.17-.24-.92-.1-1.31.12-.32.61-.49,1.05-.81Z"/>
      <path class="cls-1" d="m19.63,14.01c-.94-.25-2.51.53-2.56-1.16-.06-1.84,1.58-1.22,2.57-1.23.97-.01,2.52-.56,2.57,1.08.06,1.83-1.6,1.06-2.59,1.31Z"/>
      <path class="cls-1" d="m62.99,13.97c-.82-.13-2.36.44-2.33-1.21.03-1.64,1.55-1.06,2.54-1.16.43-.05.94-.15,1.28.03.53.28.95.77,1.41,1.18-.48.39-.92.87-1.46,1.14-.35.17-.85.03-1.44.03Z"/>
    </g>
  </g>
</svg>