<?xml version="1.0" encoding="UTF-8"?>
<svg id="Capa_2" data-name="Capa 2" xmlns="http://www.w3.org/2000/svg" viewBox="0 0 72.41 85.94">
  <defs>
    <style>
      .cls-1 {
        fill: #f44a9f;
        stroke-width: 0px;
      }
    </style>
  </defs>
  <g id="Capa_1-2" data-name="Capa 1">
    <g>
      <path class="cls-1" d="m17.35,52.29c.54-3.09.52-3.1-1.87-4.53-4.02-2.4-6.75-5.84-7.99-10.37-.29-1.07-.64-1.59-1.88-1.56-2.28.06-3.97-1.09-4.99-3.1-1.05-2.07-.72-4.06.47-6.05.49-.83.65-1.96.67-2.95.08-3.72,1.31-4.98,5.03-4.86.26-1.05.33-2.22.82-3.16,1.26-2.4,2.55-4.82,4.15-6.99,1.14-1.55,2.84-2.53,3.27-4.77.39-2.02,2.32-2.84,4.42-2.95.74-.04,1.46-.32,2.19-.49.05-.01.1-.04.15-.07,2.52-1.19,9.12.21,10.87,2.35.38.46.85,1.06.85,1.6,0,1.84,1.33,2.65,2.46,3.7,3.79,3.5,5.51,7.93,5.6,13.32,2.12-1.84,4.36-2.98,7.07-2.73,2.66.24,4.75,1.54,6.21,3.47,1.67-.41,3.2-1.04,4.75-1.1,3.46-.14,6.38,2.44,6.86,5.88.14,1.04.49,1.63,1.47,2.14,3.11,1.62,3.85,4.65,2.27,8.73,2.33,2.31,2.92,4.89,1.18,7.86-.2.34-.11.95.03,1.37.72,2.15.32,4.05-1.02,5.85-.35.47-.56,1.19-.52,1.77.31,3.87-2.12,6.46-5.96,6.41-.63,0-1.37.42-1.89.86-1.87,1.57-3.5,3.49-5.55,4.77-1.46.91-2.09,1.77-1.86,3.39.06.44,0,.89,0,1.61,2.47,0,4.85.03,7.23,0,2.22-.03,4.2.6,5.92,1.98,2.85,2.28,4.44,7.26,3.24,10.68-.23.66-1.23,1.35-1.96,1.45-1.54.22-3.14.19-4.69.01-.54-.06-1.24-.46-1.39-1.03-.2-.77.74-1.3,1.38-1.38,1.36-.17,2.76-.05,4.09-.05,1.04-5.57-1.9-9.17-7.24-9.19-1.85,0-3.7-.05-5.54.04-.47.02-1.18.39-1.35.79-1.25,2.94-3.35,4.61-6.59,4.51-3.17-.1-5.15-1.88-6.17-4.82-.05-.15-.15-.28-.27-.49-2.62,0-5.25-.14-7.87.03-4.38.29-6.75,3.93-5.92,9.12h1.9c3.47,0,6.94,0,10.41,0,3.47,0,6.94,0,10.41,0,1.42,0,2.84,0,4.26,0,.63,0,1.27,0,1.9,0,.73-.02,1.6-.06,2.22.38.37.26.79.73.6,1.21-.34.9-1.37.96-2.19.94-3.04-.06-6.1,0-9.14,0-3.47,0-6.94,0-10.41,0-3.47,0-6.94,0-10.41,0-3.47,0-6.94,0-10.41,0-3.47,0-6.94,0-10.41,0-.68,0-1.35,0-2.03,0-2.74,0-3.3-.57-3.3-3.37,0-4.65-.01-9.3,0-13.94,0-1.01-.32-2.42,1.24-2.47,1.58-.04,1.32,1.36,1.32,2.39.02,4.26,0,8.51,0,12.77,0,.61,0,1.21,0,1.95h21.24c0-.65,0-1.31,0-1.96.04-5.78,3.79-9.52,9.6-9.55,2.23-.01,4.46,0,6.95,0,0-1.22.06-2.32-.04-3.41-.03-.33-.45-.74-.8-.91-2.7-1.37-4.92-3.26-6.73-5.69-.28-.38-.97-.5-1.5-.66-1.36-.4-2.73-.75-4.1-1.12-.39-.1-.82-.36-1.17-.27-5.07,1.2-7.22.16-9.44-4.68-2.82,0-5.68-.14-8.52.04-2.66.17-4.97,2.57-5.41,5.23-.13.78-.22,1.29-.84,1.87-1,.93-1.77-.39-1.74-1.33.17-4.63,4.14-8.31,9.01-8.44,2.45-.06,4.9-.01,7.31-.01Zm51.88-8.26c.92-1.51.88-2.73-.41-3.96-1.28-1.22-1.54-2.43-.72-4.03,1.07-2.09.35-4.06-1.8-4.96-1.46-.62-2.16-1.53-2.24-3.16-.18-3.63-3.79-5.5-6.93-3.7-2.13,1.23-2.91,1.1-4.45-.7-2.68-3.15-6.74-3.13-9.41.05-1.45,1.73-2.34,1.87-4.32.71-3.22-1.89-6.82-.05-7.05,3.7-.09,1.55-.72,2.46-2.12,3.06-2.26.97-3,2.89-1.88,5.06.8,1.55.57,2.73-.67,3.89-1.17,1.1-1.52,2.42-.63,3.93.85-.19,1.66-.47,2.47-.51.98-.05,1.47-.41,2.08-1.24.56-.77,1.81-1.43,2.77-1.44,9.4-.1,18.8-.06,28.2-.06,1.35,0,2.34.55,3,1.78.2.37.63.74,1.03.87,1,.32,2.04.49,3.09.73Zm-45.86-2.07c-1.64-.76-3.26-1.44-4.82-2.26-.82-.43-1.35-1.29-.57-2.04.35-.34,1.37-.18,2,0,1.26.38,2.44,1.11,3.72,1.37,1.35.27,2.19-1,1.69-2.27-1.28-3.26-.14-6.28,2.96-7.94.37-.2.88-.45.97-.78.33-1.2.5-2.45.77-3.85-.74,0-1.4,0-2.07,0-4.2,0-8.4.04-12.59-.06-.56-.01-1.1-.8-1.66-1.22.56-.41,1.09-.88,1.69-1.22.25-.14.66-.03.99-.03,5.15,0,10.3.08,15.45-.03,2.29-.05,4.57-.47,6.94-.74.63-4.02-2.24-9.93-5.48-11.64-1.78.58-3.2.94-4.54,1.5-2.89,1.2-5.57,1.29-8.63.06-1.55-.62-3.44-.53-4.77-1.99-3.12,2.34-5.45,5.29-5.69,9.03-.38,5.89-.54,11.87.01,17.74.6,6.28,6.52,11.33,12.79,11.92,1.47.14,2.36-.87,1.93-2.12-.42-1.2-.77-2.41-1.1-3.43Zm9.79,1.32c0,2.93-.03,5.77,0,8.6.08,6.87,4.78,12.65,11.54,14.25,6.55,1.55,13.38-1.67,16.5-7.74,2.5-4.86,1.31-10.02,1.56-15.11h-29.61ZM19.81,3.92c-1.55-.44-2.7.56-2.74,1.88-.05,1.39,1.14,2.38,2.61,2.43.99.04,1.95.52,2.95.61,1.21.11,2.45.1,3.66-.01.85-.08,1.66-.53,2.5-.6,1.51-.13,2.49-.98,2.49-2.36,0-1.38-.99-2.22-2.5-2.35-.85-.07-1.66-.53-2.5-.61-1.21-.11-2.46-.16-3.65.01-.96.14-1.87.65-2.81.99Zm32.23,64.96h-8.07c-.02.39-.05.83-.05,1.27,0,1.06-.05,2.12.03,3.17.17,2.08,1.98,3.7,4.04,3.7,2.07,0,3.89-1.61,4.03-3.7.1-1.49.02-2.98.02-4.44Zm-31.93-19.14c0,1.5-.11,2.9.02,4.28.22,2.37,2.46,4.02,4.77,3.57.41-.08,1.12-.41,1.1-.55-.17-1.3.73-2.75-.53-3.93-.44-.41-.9-.94-1.03-1.49-.33-1.38-1.27-1.64-2.46-1.68-.55-.02-1.11-.12-1.88-.21ZM6.75,27.13c-1.49-.39-2.7-.08-3.58,1.14-.83,1.15-.86,2.41-.12,3.6.83,1.32,2.1,1.72,3.7,1.42v-6.15Zm23.73,25.02v-6.22c-2.65-.12-4.12,1.06-4.11,3.18.02,2.13,1.55,3.29,4.11,3.04Zm35-6.22v6.24c2.34.12,3.74-1.06,3.75-3.08,0-2-1.37-3.2-3.75-3.16Zm1.78,8.91c-2.42.03-2.75.44-2.96,3.57,2.28-.12,3.26-1.25,2.96-3.57Zm-35.55,3.52c-.83-4.06-.66-3.75-3.09-3.25-.02,2.28.93,3.28,3.09,3.25ZM7.11,24.37c-.35-1.11-.53-1.99-.92-2.76-.09-.18-1.19-.15-1.27.03-.37.83-.55,1.75-.83,2.73h3.02Z"/>
      <path class="cls-1" d="m24.14,19.15c-2.3,0-4.59,0-6.89,0-.92,0-1.8-.21-1.77-1.31.03-1.08.91-1.23,1.84-1.23,4.54.02,9.07.01,13.61,0,.95,0,1.93.03,1.91,1.3-.02,1.29-1.08,1.22-1.98,1.23-2.24.01-4.48,0-6.72,0Z"/>
      <path class="cls-1" d="m18.08,31.36c0,.39.14.87-.03,1.14-.29.45-.8,1.07-1.2,1.06-.41-.01-1.01-.65-1.13-1.11-.19-.73-.19-1.58,0-2.3.12-.44.78-1.04,1.18-1.03.41.01.88.63,1.15,1.09.17.28.03.76.03,1.15,0,0,0,0,0,0Z"/>
      <path class="cls-1" d="m49.14,51.55c-1.27-.23-2.23-.38-2.82,1.21-.28.76-1.56,1.46-2.48,1.59-1.7.25-3.46.14-5.19.06-1.82-.08-2.82-1.15-2.96-3-.03-.45-.02-.9-.02-1.34,0-3.57.79-4.37,4.32-4.37.9,0,1.79,0,2.69,0,2.79.01,3.44.48,4.23,3.12h2.11c.98-2.78,1.46-3.12,4.5-3.12,1.06,0,2.13-.02,3.19,0,.5.01,1.02.03,1.49.16,1.8.5,2.42,2.19,2.12,5.59-.16,1.75-1.14,2.85-2.85,2.95-1.79.1-3.58.08-5.37.01-1.79-.06-2.61-1.28-2.97-2.86Zm-10.81-3.32v3.68c1.71,0,3.32,0,4.92,0,1.45,0,.96-1.12.95-1.83,0-.7.52-1.83-.93-1.85-1.6-.02-3.2,0-4.94,0Zm19.27,3.68v-3.68c-1.72,0-3.28,0-4.84,0-1.45,0-.97,1.12-.97,1.84,0,.72-.48,1.84.97,1.84,1.56,0,3.13,0,4.84,0Z"/>
      <path class="cls-1" d="m47.97,60.57c-1.34,0-2.51-.48-3.75-1.14-.87-.46-2.1-.75-2.46-1.79-.5-1.48.92-1.88,1.95-1.13,2.84,2.04,5.7,2.02,8.55,0,.73-.52,1.58-.77,1.98.12.21.48-.13,1.66-.57,1.89-1.47.79-2.99,1.62-4.65,1.94-.36.07-.71.1-1.05.1Z"/>
    </g>
  </g>
</svg>