<?xml version="1.0" encoding="UTF-8"?>
<svg id="Capa_2" data-name="Capa 2" xmlns="http://www.w3.org/2000/svg" viewBox="0 0 98.78 98.78">
  <defs>
    <style>
      .cls-1 {
        fill: #3e5054;
        stroke-width: 0px;
      }
    </style>
  </defs>
  <g id="Capa_1-2" data-name="Capa 1">
    <g>
      <path class="cls-1" d="m33.92,37.08v31.46c1.34-1.06,2.63-2.01,3.82-3.07.41-.37.79-1.02.8-1.56.08-3.12.01-6.24.04-9.35.07-6.36,3.83-11.49,9.87-13.49,6.24-2.06,12.48-4.13,18.72-6.17.77-.25,1.25-.51,1.21-1.49-.09-2.03-.03-4.06-.03-6.3-3.32,0-6.52,0-9.71,0-.2,0-.44.08-.6.19-2.32,1.68-4.93,2.65-7.81,3.03.02.32.02.57.07.81.64,3.58-1.69,6.94-5.29,7.02-3.71.09-7.54.78-11.09-1.1Z"/>
      <path class="cls-1" d="m76.13,31.45c.04-1.25.08-2.52-.03-3.76-.1-1.11-1.03-1.81-2.08-1.69-1.11.13-1.72.79-1.74,1.9-.03,1.68,0,3.37,0,5.3,1.26-.41,2.33-.74,3.38-1.13.22-.08.47-.41.48-.63Z"/>
      <path class="cls-1" d="m42.63,32.32c-.02,1.09.85,2.01,1.92,2.02,1.05,0,1.99-.94,1.98-1.99,0-1.07-.92-1.94-2.02-1.92-1.06.02-1.87.83-1.89,1.89Z"/>
      <path class="cls-1" d="m66.41,86.46c-.92-2.89-1.92-5.84-3.7-8.34-1.07-1.5-2.5-2.71-3.71-4.09.09.1-.93,1.81-1.03,2.01-.92,1.78-1.97,3.48-2.9,5.25-.49.92-1.16,1.79-1.55,2.75.09-.22-.51-.86-.63-1.04-.46-.71-.92-1.43-1.39-2.13-.96-1.44-1.91-2.89-2.7-4.42-.13-.25-1.43-2.35-1.23-2.54-.98.89-1.91,1.72-2.91,2.63-2.28-2.12-4.58-4.05-5.57-7.16-2.33,1.79-4.36,3.95-5.86,6.48-1.56,2.63-2.81,5.42-4.03,8.22-.88,2.02-1.77,4.05-2.65,6.07-.36.81-.68,1.66-1.05,2.48,7.08,3.93,15.23,6.17,23.9,6.17,7.06,0,13.76-1.49,19.84-4.16-.95-2.72-1.94-5.42-2.82-8.17Z"/>
      <path class="cls-1" d="m49.52,21.97c-2.7-.19-5.42-.05-8.11-.05.17,1.7.34,3.35.51,5.01,4.16-1.08,8.71.57,12.6-2.1-1.28-1.64-2.96-2.73-4.99-2.87Z"/>
      <path class="cls-1" d="m71.59,41.19c.02-1.14-.17-2.28-.27-3.55-1.22.4-2.23.65-3.17,1.07-.35.16-.71.68-.75,1.06-.1,1.1-.04,2.22-.04,3.34h-3.96v-2.88c-1.22.4-2.29.73-3.32,1.13-.23.09-.49.47-.49.73-.04,2.24-.02,4.48-.02,6.63,5.59-1.15,11.19-.17,16.82-.65-.23-2.49-1.4-4.21-3.61-5.07-.94-.36-1.2-.87-1.19-1.82Z"/>
      <path class="cls-1" d="m70.66,56.03v-3.93c-2.53,0-4.99,0-7.44,0-2.15,0-3.3.74-3.46,2.85-.22,2.95-.06,5.93-.06,8.91h10.94v-3.92h-7.08v-3.91h7.1Z"/>
      <path class="cls-1" d="m49.39,0C22.11,0,0,22.11,0,49.39c0,17.3,8.9,32.51,22.37,41.34,2.21-5.08,6.11-14.07,7.02-16.18.23-.54.5-1.13.5-1.69.03-14.34.02-28.68.02-43.03,0-.25-.02-.51-.04-.87-9.69.46-12.1-6.16-11.24-12.7.35-.03.72-.08,1.09-.08,4.33,0,8.67-.12,13,.06,1.62.07,3.22.82,4.82,1.26.53.14,1.05.42,1.58.42,2.64.04,5.29.13,7.93,0,4.31-.23,7.71,1.49,10.67,4.46.45.45,1.23.77,1.87.79,2.64.09,5.28.04,7.93.04,1.63,0,3.17-.08,4.78-.75,3.61-1.5,7.51,1.21,7.74,5.22.12,2.12.07,4.25,0,6.37-.01.36-.48.87-.85,1.02-1.32.52-2.7.91-4.13,1.37.15,1.1.26,2.16.46,3.2.06.28.38.56.64.75,2.86,2.06,4.17,4.89,4.16,8.37,0,1.07,0,2.14,0,3.35h-5.63v15.72h-15.45c.46.85.64,1.49,1.05,1.9,1.47,1.45,2.9,3,4.47,4.34,2.53,2.16,3.91,4.78,4.89,7.94.88,2.85,1.93,5.64,2.92,8.46.25.72.49,1.45.73,2.17,15.2-8.42,25.49-24.62,25.49-43.22C98.78,22.11,76.67,0,49.39,0Z"/>
      <path class="cls-1" d="m38.58,34.24c.25-1.82.49-3.52.74-5.37h-5.4c-.33,3.45,2.11,5.95,4.66,5.37Z"/>
      <path class="cls-1" d="m33.66,20.19c-3.7-.2-7.42-.05-11.13-.05.18,2.67,1.87,4.62,4.47,4.74,3.53.16,7.08.04,10.7.04.03-2.44-1.65-4.6-4.05-4.73Z"/>
      <path class="cls-1" d="m51.06,70.19c.01,2.2.77,4.23,2.21,6.15,1.54-2.08,2.37-4.3,2.38-6.79.02-8.62,0-17.23,0-25.85,0-.25-.04-.5-.07-.88-1.55.51-3.02,1-4.55,1.5,0,8.73-.03,17.3.02,25.87Z"/>
      <path class="cls-1" d="m47.11,45.92c-2.61,1.86-4.27,4.07-4.42,6.93-.24,4.66-.18,9.35-.13,14.02.02,1.68.84,3.11,2.2,4.27,1.53-1.48,2.36-3.13,2.35-5.22-.03-6.19,0-12.39,0-18.58v-1.41Z"/>
    </g>
  </g>
</svg>