<?xml version="1.0" encoding="UTF-8"?>
<svg id="Capa_2" data-name="Capa 2" xmlns="http://www.w3.org/2000/svg" viewBox="0 0 98.78 98.78">
  <defs>
    <style>
      .cls-1 {
        fill: #3e5054;
        stroke-width: 0px;
      }
    </style>
  </defs>
  <g id="Capa_1-2" data-name="Capa 1">
    <path class="cls-1" d="m49.39,0C22.11,0,0,22.11,0,49.39s22.11,49.39,49.39,49.39,49.39-22.11,49.39-49.39S76.67,0,49.39,0Zm3.5,18.07c4.17-.01,8.26,3.56,8.95,7.81.07.42.11.84.16,1.26l.25.24c-.4.43-.75,1.15-1.21,1.23-.78.14-.94-.6-.99-1.3-.29-4.1-2.92-6.79-7.09-7.32-.45-.06-1.04-.26-1.28-.6-.47-.67.16-1.32,1.2-1.32Zm3.51,9.74c-.17.17-.52.78-.87.79-.35,0-.95-.57-1.01-.95-.19-1.23-.82-1.83-2-2.11-.38-.09-.64-.7-.95-1.06.41-.26.82-.75,1.24-.75,1.86,0,3.59,1.87,3.59,4.1Zm-25.03,47.94c-.56.07-1.17-.1-1.75-.21-6.79-1.36-11.76-7.96-11.11-14.75.07-.71.01-1.6,1.07-1.51,1.06.09.81.98.82,1.68,0,.21,0,.42,0,.63-.06,6.16,4.28,11.28,10.35,12.2.29.04.66.02.86.18.31.26.72.7.68,1-.05.31-.56.73-.92.77Zm.39-5.59c-.74,0-1.51-.21-2.21-.46-3.36-1.23-5.62-4.56-5.48-8.07.03-.73-.22-1.84.99-1.86,1.28-.01.86,1.08.93,1.72-.02,3.43,2.08,6.04,5.33,6.72.25.05.57.03.73.18.31.27.53.65.79.98-.36.28-.72.79-1.08.79Zm8.54-1.98c-.36.15-.92.03-1.32-.14-.27-.11-.41-.52-.61-.79-4.82-6.81-9.48-13.74-14.53-20.38-2.69-3.55-1.79-8.17,3.37-8.99-1.36-1.89-2.89-3.61-2.24-6.07.63-2.39,2.35-3.5,4.7-3.82-1.4-3.15-1.17-5.21.74-6.84,1.86-1.59,3.94-1.54,6.8.21.16-.29.31-.58.48-.86,1.79-2.94,5.9-3.3,7.96-.56,2.7,3.59,5.23,7.29,7.77,10.99.23.34-.04,1.02-.07,1.54-.5-.18-1.2-.2-1.46-.55-2.48-3.38-4.84-6.84-7.33-10.22-.49-.67-1.27-1.29-2.04-1.55-1.22-.41-2.35.08-3.09,1.18-.73,1.1-.71,2.26.03,3.34,1.51,2.2,3.07,4.37,4.61,6.54,2.22,3.15,4.45,6.29,6.67,9.44.41.58,1.03,1.24.19,1.86-.92.68-1.35-.19-1.78-.8-4.24-5.98-8.47-11.96-12.7-17.94-.24-.34-.48-.7-.77-1-1.04-1.06-2.64-1.19-3.82-.34-1.19.86-1.58,2.41-.92,3.73.19.38.45.72.69,1.06,4.06,5.74,8.12,11.48,12.17,17.22.24.34.59.68.67,1.06.07.35-.03.98-.26,1.09-.32.16-.87.07-1.23-.11-.3-.15-.48-.57-.7-.88-3.33-4.7-6.65-9.4-9.97-14.11-.78-1.11-1.79-1.69-3.14-1.46-1.19.2-1.97.94-2.32,2.09-.35,1.12.08,2.06.72,2.96,3.41,4.8,6.8,9.61,10.2,14.41.1.14.2.28.3.41.43.6.95,1.27.08,1.85-.77.51-1.22-.14-1.63-.71-2.13-3.01-4.26-6.01-6.39-9.02-.22-.31-.43-.63-.67-.93-1.06-1.3-2.76-1.55-4.08-.6-1.25.89-1.59,2.59-.78,3.96.24.4.52.77.79,1.15,4.84,6.84,9.69,13.69,14.53,20.53.2.28.5.54.54.84.06.4.02,1.1-.18,1.19Zm13.33,14.83c-.38.05-.97-.09-1.18-.36-.97-1.23-1.78-2.59-2.77-3.79-.65-.79-1.44-1.54-2.31-2.08-2.19-1.35-4.18-2.9-5.69-4.99-.28-.39-.38-1.31-.12-1.6.54-.63,1.12-.14,1.55.41,1.59,2.03,3.56,3.59,5.81,4.85.71.4,1.36,1.02,1.87,1.66,1.04,1.33,1.98,2.75,2.95,4.14.19.27.34.57.58.97-.23.29-.43.76-.68.8Zm13.5-54.27c-1.4-.06-2.47.7-2.76,2.11-.54,2.69-.96,5.42-1.55,8.1-.15.66-.62,1.42-1.17,1.8-4.5,3.09-6.89,7.32-7.25,12.76-.05.79.22,2.1-1.13,1.99-1.36-.11-.83-1.35-.78-2.15.3-4.8,2.13-8.93,5.76-12.36-1.21-1.71-2.35-3.33-3.5-4.95-.4-.57-.86-1.19-.08-1.75.78-.56,1.22.05,1.63.63,1.12,1.59,2.25,3.17,3.37,4.75.93-.27,1.31-.82,1.45-1.74.35-2.34.82-4.66,1.25-6.99.48-2.59,2.46-4.29,4.82-4.14,2.57.16,4.38,2.06,4.55,4.74.38,5.91.79,11.83,1.15,17.74.08,1.26.03,2.54-.11,3.8-.05.39-.61.73-.94,1.09-.29-.39-.82-.77-.84-1.18-.39-6.67-.72-13.35-1.06-20.03-.03-.63-.09-1.27-.19-1.9-.22-1.36-1.25-2.26-2.61-2.32Zm15.19,51.01c-.14.16-.82-.06-1.2-.23-.24-.11-.37-.45-.54-.69-3.61-5.11-7.21-10.23-10.85-15.32-.68-.95-.87-1.83-.43-2.94.43-1.09.61-2.29,1.04-3.38.14-.37.7-.79,1.07-.79.33,0,.66.55.92.8-.41,1.39-.68,2.55-1.1,3.65-.28.72-.16,1.24.27,1.85,3.54,4.96,7.04,9.93,10.56,14.9.2.28.52.54.55.84.03.44-.02,1.01-.29,1.31Z"/>
  </g>
</svg>