<?xml version="1.0" encoding="UTF-8"?>
<svg id="Capa_2" data-name="Capa 2" xmlns="http://www.w3.org/2000/svg" xmlns:xlink="http://www.w3.org/1999/xlink" viewBox="0 0 1962.16 1321.26">
  <defs>
    <style>
      .cls-1 {
        opacity: .02;
      }

      .cls-2, .cls-3, .cls-4 {
        stroke-width: 0px;
      }

      .cls-3 {
        fill: none;
      }

      .cls-4 {
        fill: #63c5ea;
      }

      .cls-5 {
        clip-path: url(#clippath);
      }
    </style>
    <clipPath id="clippath">
      <rect class="cls-3" x="21.08" y="21.17" width="1920" height="1277.71"/>
    </clipPath>
  </defs>
  <g id="Capa_1-2" data-name="Capa 1">
    <g>
      <rect class="cls-4" x="21.08" y="21.17" width="1920" height="1277.71"/>
      <g class="cls-1">
        <g class="cls-5">
          <g>
            <path class="cls-2" d="m50.61,894.6c5.64-2.03,11.27-4.07,16.9-6.11-1.38-.67-2.55-.67-3.66-.38-12.47,3.26-25.07,6.09-37.34,9.96-8.87,2.8-17.7,5.73-26.51,8.71v6.03c16.87-6.07,33.74-12.13,50.61-18.21Z"/>
            <path class="cls-2" d="m151.46,728.62c-5.45.24-10.78,1.11-16.12,1.87-32.96,4.7-65.7,10.66-97.63,20.09-12.66,3.74-25.2,7.9-37.71,12.15v4.21c49.44-16.53,100.48-27.26,151.46-38.32Z"/>
            <path class="cls-2" d="m369.96,1275.63c-1.04-.68-2.02-.8-2.96-.66-12.92,1.99-25.86,3.86-38.73,6.07-42.02,7.22-83.46,16.82-123.61,31.4-7.23,2.62-14.27,5.76-21.33,8.82h11.58c3.18-1.3,6.36-2.57,9.59-3.71,42.97-15.13,87.2-25.53,131.71-34.87,11.25-2.36,22.51-4.7,33.76-7.06Z"/>
            <path class="cls-2" d="m53.42,1289.71c29.36-15.98,59.25-31,89.2-45.85,35.47-17.58,72.12-32.34,110.15-43.49,11.69-3.43,23.5-6.45,35.8-9.81-1.04-.14-1.53-.33-1.98-.26-28.79,4.39-57.11,11-84.03,22.03-26.34,10.79-52.42,22.47-77.77,35.39-36.88,18.8-73.1,38.89-109.39,58.82-5.33,2.93-10.39,6.38-15.4,9.9v4.82h1.64c17.16-10.7,34.05-21.91,51.78-31.56Z"/>
            <path class="cls-2" d="m124.47,1121.03c-1.31-.21-1.68-.39-1.96-.3-24.64,8.07-47.68,19.51-69.53,33.38-18.37,11.66-36.07,24.19-52.98,37.73v6.51c34.43-27.55,71.84-50.47,111.16-70.37,4.23-2.14,8.41-4.39,13.31-6.95Z"/>
            <path class="cls-2" d="m698.33,1292.24c-5.99,9.67-11.99,19.35-17.98,29.02h5.77c4.53-9.39,9.07-18.77,13.6-28.16-.46-.29-.93-.57-1.39-.86Z"/>
            <path class="cls-2" d="m16.3,66.17c9.79-4.48,19.68-8.72,29.53-13.07-11.85,3.06-23.38,6.93-34.64,11.49-3.74,1.51-7.47,3.06-11.19,4.63v4.48c5.43-2.52,10.85-5.04,16.3-7.53Z"/>
            <path class="cls-2" d="m54.14,228.55c-1.38-.14-2.41.29-3.35.87-16.94,10.5-33.94,20.92-50.79,31.56v6.62c18.05-13.02,36.09-26.04,54.14-39.06Z"/>
            <path class="cls-2" d="m74.79,643.15c-24.99,3.24-49.38,8.97-73.19,17.07-.54.18-1.07.38-1.61.56v4.99c24.46-8.94,49.42-16.41,74.79-22.62Z"/>
            <path class="cls-2" d="m18.65,432.68c10.59-1.55,21.17-3.14,31.75-4.71-11.45-.31-22.82.14-34.11,1.3-5.44.56-10.87,1.18-16.29,1.82v4.3c6.22-.91,12.43-1.81,18.65-2.72Z"/>
            <path class="cls-2" d="m724.73,659.74c-1.93,2.14-3.85,4.3-5.77,6.46,2.35-1.79,4.7-3.56,7.02-5.37-.42-.36-.84-.73-1.26-1.09Z"/>
            <path class="cls-2" d="m66.35,0h-15.84c-7.2,4.58-14.37,9.2-21.79,13.39-4.61,2.6-9.85,4.8-15.04,5.54-4.62.65-9.17,1.52-13.68,2.54v9.22c10.38-2.79,20.8-5.4,31.32-7.46,21.63-4.22,43.72-6.21,65.66-8.63,9.94-1.1,20.03-1.25,30.05-1.11,4.25.06,8.87,1.26,12.63,3.24,9.64,5.07,12.46,17.17,5.01,25.05-7.27,7.69-16.01,14.05-24.44,20.57-18.87,14.59-40.57,24-62.42,32.91-20.39,8.32-39.01,19.81-57.82,30.97v9.26c16.41-9.61,32.84-19.2,49.53-28.3,7.81-4.26,16.77-6.37,24.92-10.08,10.63-4.84,20.54-11.62,31.53-15.2,20.57-6.69,37.81-19.92,57.76-27.6,22.94-8.82,46.18-16.56,71.28-14.16,5.6.54,11.24,2.45,16.46,4.69,9.76,4.19,12,13.22,12.73,22.67.08.98-2.39,2.87-3.89,3.15-13.71,2.49-27.4,5.19-41.21,6.91-19.64,2.44-36.85,11.26-54.53,19.11-10.19,4.52-20.8,8.1-31.17,12.22-15.92,6.33-32.03,12.25-47.66,19.24-29.96,13.41-58.5,29.42-85.75,47.67v10.08c9.44-5.95,19.19-12.32,29.17-18.33,36.04-21.72,74.33-38.66,113.56-53.67,20.59-7.88,40.83-16.7,61.58-24.08,28.07-9.99,57.28-12.84,86.92-10.92,11.93.77,23.45,3.44,33.85,9.98,18.54,11.66,16.36,36.8,8.06,47.96-3.46,4.65-10.53,7.11-16.42,9.38-44.63,17.22-89.69,33.36-133.94,51.48-22.04,9.02-42.68,21.49-63.95,32.41-1.46.75-2.88,1.55-4.55,2.46,2.94-27.56-5.16-40.27-28.41-43.05,63.18-36.86,131.38-58.57,198.46-83.22-8.16,1.92-16.44,3.41-24.44,5.83-23.22,6.99-46.61,13.57-69.42,21.75-36.32,13.03-71.24,29.3-104.43,49.11-6.44,3.84-13.02,6.68-20.77,7.68-16.12,2.07-31.04,8.44-45.74,15.17-2,.92-4.01,1.82-5.09,2.3-4.93-7.28-9.5-14.02-14.44-21.31v14.81c1.87,3.28,2.94,7.23,4.45,11.24-1.48.81-2.97,1.63-4.45,2.44v8c21.27-11.07,43.12-20.93,66.93-25.24,6.76-1.22,13.96-1.37,20.78-.54,17.59,2.15,25.45,16.04,19.47,33.3-4.45,12.84-14.16,21.42-24.59,29.12-8.01,5.92-16.89,10.65-25.01,16.43-9.53,6.79-18.7,14.08-27.94,21.27-9.89,7.69-19.76,15.41-29.64,23.12v13.42c2.97-.86,6.02-1.57,9.1-2.21,4.93-1.02,9.83-2.21,15.16-3.42-5.35,5.58-10.32,10.6-15.11,15.8-3.09,3.35-6.14,6.75-9.15,10.17v9.01c16.89-30.01,101.16-85.29,125.32-88.58-2.99,2.81-5.39,5.02-7.73,7.28-24.16,23.27-42.05,50.98-57.29,80.61-1.86,3.61-4.03,7.11-6.45,10.36-3.4,4.56-6.61,9.3-13.79,8.4-2.75-.35-5.76,1.74-8.71,2.44-1.43.34-3.02.06-4.53.06.46-1.47.53-3.26,1.44-4.35,7.91-9.55,16.04-18.92,23.95-28.47,3.09-3.72,5.77-7.78,8.64-11.69-.46-.33-.92-.66-1.38-.99-12.01,12.92-24.03,25.84-35.69,38.39-7.82-3.72-15.8-7.52-23.78-11.31v8.23c4.47,1.37,8.87,3.12,13.13,5.48,1.73.96,3.36,2.43,4.47,4.06,1.14,1.66,2.73,4.61,2.07,5.54-1.14,1.61-3.81,2.76-5.94,2.94-4.55.39-9.15.07-13.74.08v5.87c12.17-.24,24.34.29,36.49,1.68,17.65,2.02,35.46,4.04,51.54,12.67,1.94,1.04,3.85,2.19,5.56,3.57,10.27,8.31,11.93,16.32,7.67,28.89-4.66,13.74-14.01,21.21-27.94,23.41-19.76,3.12-39.56,5.96-59.32,9.11-4.67.74-9.34,1.54-14,2.32v8.36c5.58-1.1,11.24-2.19,17.08-3.32-4.04,17.37-7.85,33.75-11.74,50.47-1.75-.65-3.54-1.32-5.33-2v6.73c2.81,1.33,5.57,2.81,8.25,4.57,8.02,5.28,9.55,10.1,5.68,18.95-3.69,8.44-8.36,15.88-13.93,22.38v9.34c.1-.07.18-.14.28-.21-.1.93-.2,1.74-.28,2.52v15.68c6.68-1.37,13.37-2.72,20.08-3.97,22.49-4.19,45.28-4.38,68.08-4.26,8.32.04,16.68-1.08,24.96-.6,20.76,1.21,27.42,14.42,17.36,32.67-7.56,13.72-19.17,23.11-31.63,31.83-17.58,12.31-37.02,21.11-55.98,30.95-13.72,7.12-28.42,9.4-42.86,12.66v8.4c12.1-3.1,24.21-6.15,36.36-9.01,54.17-12.76,109.09-16.97,164.6-13.17,17.45,1.2,34.89,2.6,52.25,4.65,4.97.59,10.11,3.05,14.34,5.89,6.71,4.5,7.69,13.73,1.54,18.96-6.35,5.4-13.61,10.23-21.23,13.57-28.92,12.68-59.37,20.38-90.44,25.47-21.39,3.51-41.75,10.4-62.15,17.32-21.53,7.3-43.13,14.38-64.64,21.74-3.98,1.36-7.5,4.38-11.53,5.25-6.26,1.35-12.76,1.6-19.11,2.58v7.3c.51-.09,1.02-.2,1.53-.28,10.1-1.68,20.31-1.23,30.14,2.33,12.34,4.47,18.28,13.76,17.32,27.85-8.13,1.27-16.49,2.31-24.74,3.92-8.09,1.58-16.17,3.22-24.24,4.92v7.26c11.14-3.07,22.47-5.44,34.07-6.67,21.88-2.32,43.88-3.52,65.14,3.87,24.09,8.37,28.99,26.65,21.5,49.15-1.63,4.89-5.43,8.17-10.33,9.95-14.52,5.26-29.15,10.21-43.55,15.77-22.31,8.61-44.57,17.37-66.83,26.12v9.4c7.61-3.37,15.23-6.75,22.85-10.1,1.49-.66,3.09-1.07,3.35-1.16-7.31,13.84-14.92,28.32-22.64,42.74-.63,1.18-1.85,2.58-3.03,2.86-.18.04-.35.08-.53.12v5.44c23.37-3.76,45.9-1.35,66.42,12.76,1.79,1.23,3.47,2.75,4.89,4.4,6.22,7.2,2.75,16.63-6.48,19.26-17.25,4.91-34.63,9.57-51.45,15.73-4.56,1.67-9.01,3.56-13.39,5.61v6.37c7.98-3.43,16.26-6.28,24.4-9.35,11.1-4.18,22.28-8.15,33.44-12.17,20.47-7.38,39.82-3.92,58.35,6.32,5.87,3.24,11.47,6.99,17.07,11.36-48.85,9.37-92.48,29.23-133.27,55v7.79c17.68-11.44,36.37-21.1,55.35-30.27,24.69-11.92,51.15-18.19,77.79-23.36,15.27-2.96,30.93-4.7,46.47-5.22,16.01-.54,31.28,3.85,44.7,13.16,7.37,5.11,8.39,8.71,5.01,17.48-4.94,12.79-13.24,23.16-23.42,32.25-12.58,11.23-28.06,15.75-43.61,20.95-20.7,6.92-41.16,14.82-61.08,23.75-18.68,8.37-36.79,18.16-54.66,28.19-16.21,9.09-32.22,18.6-46.54,30.54v11.87c3.16-2.44,6.38-4.9,9.63-7.31,30.02-22.17,61.86-41.28,95.98-56.44,34.72-15.42,70.64-27.2,108.11-33.87,24.45-4.35,48.95-8.08,73.96-7.37,11.19.32,22.42-.87,33.64-1.05,4.55-.07,9.21.24,13.65,1.2,13.62,2.93,18.46,12.75,13.23,25.76-6.23,15.5-17.92,26.11-31.11,35.49-18.47,13.15-38.66,23.04-58.93,33.08-16.11,7.98-33.22,10.4-50.07,14.6-40.9,10.2-79.72,25.76-117.21,44.79-9.57,4.86-18.95,10.1-28.37,15.25h16.67c15.21-7.76,30.28-15.81,45.8-22.87,44.11-20.05,90.36-33.18,137.96-42.02,23.73-4.41,47.34-9.41,71.52-10.55,16.48-.77,33-1.97,49.46-1.42,27,.91,53.97,2.94,80.93,4.87,4.62.33,9.35,1.97,13.6,3.93,11.69,5.37,12.84,17.16,2.78,25.18-9.74,7.76-21.31,11.68-32.73,16.05-29.19,11.18-59.82,16.44-90.27,22.52-5.22,1.04-10.32,2.66-15.42,4.31h35.95c8.92-2.24,17.83-4.51,26.84-6.29,21.96-4.34,43.9-9.23,66.09-11.82,27.86-3.25,56-4.12,83.43,3.78,5.44,1.57,10.37,5.42,15.08,8.85,2.27,1.66,2.91,3.64,1.94,5.48h8.86c4.58-1.77,8.53-3.3,12.44-4.81.27.39.55.79.82,1.18-1.05,1.21-2.1,2.42-3.14,3.63h7.53c5.48-5.44,10.83-11.04,16.74-15.96,10.15-8.44,20.65-16.53,31.44-24.14,4.42-3.11,9.98-4.6,14.89-6.76-8.62,15.85-17.05,31.36-25.47,46.86h6.11c10.18-19.04,20.68-37.86,35.99-53.47,16.65-16.98,36.93-26.64,60.41-29.76,3.06-.41,6.14-.71,9.86-1.13-4.58,5.74-8.8,10.47-12.39,15.64-10.75,15.44-21.73,30.76-31.64,46.72-4.17,6.71-6.55,14.52-9.46,22h8.18c8.82-22.76,23.64-42.07,36.9-62.18,13.18-20,31.3-34.33,54.18-42.74,11.08-4.07,21.25-10.62,33.41-11.64,5.39-.45,11.15-.59,14.49,4.14,3.62,5.13,2.87,11.34-.55,16.36-4.56,6.69-9.74,13-15.01,19.16-16.12,18.83-28.86,39.8-39.82,61.92-2.44,4.92-4.63,9.96-6.88,14.97h9.19c3.28-7.32,6.2-14.86,10.37-21.63,12.63-20.51,25.51-40.91,39.22-60.7,4.48-6.47,11.65-11.17,17.9-16.29,10.23-8.39,20.5-16.76,31.14-24.61,19.8-14.62,41.02-26.61,65.37-31.89,18.29-3.96,35.84-.89,52.54,7.13,5.24,2.52,10.17,5.66,10.43,12.61.26,6.99-4.08,11.04-9.26,14.14-10.48,6.28-21.05,12.44-31.9,18.06-17.13,8.86-29.59,22.77-40.72,37.81-14.64,19.77-24.45,42.08-32.03,65.39h5.21c6.72-18.27,14.8-35.87,25.2-52.41,11.8-18.76,26.98-34.06,45.97-45.37,15.28-9.1,30.35-18.95,46.58-26.01,19.87-8.64,40.73-8.28,60.74,1.25,3.36,1.6,6.16,4.37,10.28,7.37-6.59,3.18-11.92,5.63-17.13,8.31-15.07,7.76-30.35,15.14-45.05,23.55-18.43,10.55-32.3,26.44-45.72,42.44-10.13,12.08-19.13,25.1-28.55,37.76-.72.96-1.31,2.03-1.87,3.11h7.57c7.76-11.23,15.13-22.78,23.64-33.41,27.4-34.19,62.48-57.99,102.99-74.15,11.22-4.47,22.47-8.76,34.7-9.35,12.73-.61,24.34,4.04,36.01,8.13,4.9,1.72,10.01,3.52,14.15,6.5,2.64,1.9,5.05,5.96,5.21,9.17,1.16,22.96-5.92,43.07-23.83,58.01-6.92,5.77-15.96,8.92-23.58,13.95-10.15,6.71-19.9,14.02-29.78,21.14h16.62c7.59-5.38,15.05-10.96,23.02-15.68,34.92-20.65,72.81-32.91,112.81-39,10.39-1.58,20.73-3.53,31.12-5.19,1.63-.26,3.35.1,5.03.17,13.61-1.19,21.85,5.81,22.58,19.32.8,14.89-4.74,27.9-12.14,40.33,0,.01-.01.03-.02.05h7.45c10.05-17.52,14.95-35.8,6.66-56.66,6.17-4.73,12.64-9.87,19.29-14.78,30.02-22.17,61.86-41.28,95.98-56.44,34.72-15.42,70.64-27.2,108.11-33.87,24.45-4.35,48.95-8.08,73.96-7.37,11.19.32,22.42-.87,33.64-1.05,4.55-.07,9.21.24,13.65,1.2,13.62,2.93,18.46,12.75,13.23,25.76-6.23,15.5-17.92,26.11-31.11,35.49-18.47,13.15-38.66,23.04-58.93,33.08-16.11,7.98-33.22,10.4-50.07,14.6-40.9,10.2-79.72,25.76-117.21,44.79-9.57,4.86-18.95,10.1-28.37,15.25h16.67c15.21-7.76,30.28-15.81,45.8-22.87,44.11-20.05,90.36-33.18,137.96-42.02,23.73-4.41,47.34-9.41,71.52-10.55,16.48-.77,33-1.97,49.46-1.42,27,.91,53.97,2.94,80.93,4.87,4.62.33,9.35,1.97,13.6,3.93,11.69,5.37,12.84,17.16,2.78,25.18-9.74,7.76-21.31,11.68-32.73,16.05-29.19,11.18-59.82,16.44-90.27,22.52-5.22,1.04-10.32,2.66-15.42,4.31h35.95c8.92-2.24,17.83-4.51,26.84-6.29,21.96-4.34,43.9-9.23,66.09-11.82,27.86-3.25,56-4.12,83.43,3.78,5.44,1.57,10.37,5.42,15.08,8.85,2.27,1.66,2.91,3.64,1.94,5.48h8.86c4.58-1.77,8.53-3.3,12.44-4.81.27.39.55.79.82,1.18-1.05,1.21-2.1,2.42-3.15,3.63h7.53c5.48-5.44,10.83-11.04,16.74-15.96,6.19-5.15,12.55-10.1,18.98-14.96v-6.24c-2.83,2.15-5.61,4.38-8.44,6.53-1.6,1.22-3.16,2.48-5.19,3.33,4.06-8.85,8.65-17.31,13.63-25.47v-10.81c-7.16,10.77-13.67,21.96-19.72,33.48-3.82,7.27-9.23,13.72-14.09,20.41-.77,1.06-2.44,1.72-3.82,2.02-4.27.93-8.59,1.64-12.91,2.33-1.52.25-3.08.22-4.63.31.56-1.63.73-3.6,1.76-4.84,5.53-6.67,11.39-13.07,16.93-19.75,5.12-6.18,9.97-12.58,14.93-18.88-.51-.43-1.03-.86-1.54-1.29-11.87,12.68-23.74,25.35-35.08,37.46-8.58-3.96-16.77-7.75-24.93-11.52,10.64-19.72,50.41-51.13,83.09-70.23v-9.6c-9.68,6.08-18.78,13.11-27.69,20.42-3.91,3.21-8,6.2-12.56,9.72-2.92-17.28-10.27-29.52-30.77-30.24,23.13-13.48,46.9-24.92,71.02-35.22v-7.1c-21.35,9.25-42.29,19.55-62.79,30.92-3.71,2.06-7.1,4.74-10.93,6.5-4.73,2.18-9.63,4.62-14.69,5.32-16.55,2.29-31.8,8.28-46.88,14.96-2.47,1.09-4.9,2.26-6.63,3.07-4.94-7.31-9.69-14.34-14.77-21.87,6.1-4.02,12.63-8.55,19.37-12.72,32.43-20.05,66.48-36.87,101.86-51.05,11.85-4.75,23.65-9.63,35.47-14.45v-7.76c-9.27,3.81-18.98,6.64-28.39,10.17-44.85,16.84-87.44,38.12-127.26,64.84-.42.28-.95.47-1.28.83-7.59,8.33-17.41,6.55-27.15,6.6-18.01.1-33.28,8.41-47.98,17.85-2.7,1.73-5.3,3.61-7.99,5.44-2.67-6.47-1.92-9.23,2.75-13.22,22.26-19.03,45.7-36.56,70.73-51.65,28.29-17.05,56.21-35.05,88.06-45.36,5.59-1.81,10.68-5.14,16.05-7.66,7.35-3.46,14.81-6.67,22.1-10.25,9.59-4.7,19.08-9.59,28.56-14.51,3.9-2.03,7.83-3.95,11.8-5.79v-8.05c-1.37.6-2.75,1.19-4.11,1.81-1.33.61-2.73,1.07-4.49,1.41,12.01-12.69,9.73-25.72,1.19-39.36,2.46-1.25,4.94-2.43,7.41-3.63v-3.95c-.73.41-1.47.8-2.2,1.23-7.09,4.15-13.61,5.27-20.55-.44-1.81-1.49-5.14-1.87-7.68-1.65-24.38,2.08-48.73,4.39-73.09,6.64-1.8.17-3.59.44-5.39.66-.14-.33-.28-.66-.42-.98,4.44-2.67,8.82-5.42,13.32-7.98,30.94-17.59,62.76-33.24,96-45.76v-8.3c-12.58,4.64-24.98,9.75-37.22,15.34-31.99,14.6-63.03,30.97-92.72,49.93-5.02,3.2-11.8,3.98-17.91,5.06-20.06,3.53-38.92,10.62-57.58,18.45-3.25,1.36-6.6,2.49-9.45,3.56,5.94-6.2,12.24-12.34,18.05-18.92,10.96-12.42,26.2-18.66,39.47-27.68,49.58-33.71,103.35-59.79,157.36-85.26v-5.86c-9.98,4.69-19.86,9.62-29.67,14.77-26.61,13.95-53.55,27.32-79.74,42.01-21.59,12.11-42.3,25.79-63.41,38.78-1.25.77-2.5,1.56-4.13,2.15,12.22-20.05,20.63-40.64,10.8-65.15,12.85-9.32,25.75-19.27,39.25-28.34,37.38-25.13,77.33-45.29,120.03-59.74,2.28-.77,4.58-1.49,6.87-2.23v-9.52c-24.41,7.32-47.86,17.19-70.36,29.01-24.47,12.86-48.18,27.21-71.9,41.44-7.36,4.42-13.66,10.61-20.5,15.91-3.34,2.59-6.83,4.99-10.21,7.44-13.89-8.76-27.67-5.44-41.68-2.5,49.85-60.13,114.15-100.25,182.69-134.64-.16-.38-.32-.76-.48-1.14-9.17,3.58-18.57,6.66-27.47,10.82-59.99,27.97-110.58,68.66-155.9,116.28-6.41,6.73-13.14,10.57-22.53,11.75-20.62,2.59-40.37,9.01-59.8,16.29-2.03.76-4.08,1.49-6.91,1.58,1.13-1.46,2.12-3.06,3.41-4.37,17.35-17.71,34.49-35.65,52.2-53,19.76-19.36,39.59-38.69,60.2-57.12,21.77-19.47,47.19-33.57,72.93-47.21,36.56-19.37,76.03-28.65,116.32-35v-11.64c-1.43,1.95-3.35,3.06-6.35,3.86-6.34,1.69-10.88,1.36-15.5-4.01-6.98-8.11-16.27-13.23-27.4-17.13,4.33-7.33,8.13-14.29,12.44-20.93,7.67-11.83,15.17-23.82,23.67-35.03,3.78-4.98,8.36-9.45,13.14-13.63v-9.34c-.05.04-.09.07-.14.11.03-4.84-1.58-9.08.14-13.33v-7.98c-1.48,1.91-2.97,3.79-4.43,5.72-10.31-6.76-20.99-3.83-32.08-2.22,11.43-15.91,22.59-32,36.51-45.64v-5.72c-10.29,10.08-19.89,20.89-28.68,32.58-3.87,5.15-7.4,10.61-11.75,15.32-3.71,4.01-7.86,8.43-12.73,10.41-12.88,5.23-24.68,12.08-35.81,20.27-1.56,1.15-3.39,1.93-6.37,3.58,8.04-15.66,20.28-25.78,31.34-36.84,11.04-11.05,22.4-21.78,34.08-33.1-1.01.16-1.65.06-2,.34-22.36,17.76-45.08,35.28-62.38,58.27-6.01,7.98-12.41,12.26-22.23,12.85-5.83.35-11.55,2.39-18.4,3.91,1.52-3.08,2.51-5.83,4.09-8.2,14.11-21.21,27.46-42.95,44.68-61.94,17.3-19.07,37.73-33.39,61.44-43.55,8.19-3.51,16.42-6.87,24.71-10v-5.69c-2.72.94-5.45,1.87-8.19,2.75-.37-.36-.74-.73-1.11-1.1,1.63-1.25,3.38-2.37,4.87-3.76,1.45-1.35,2.96-2.63,4.43-3.95v-6.18c-4.31,3.64-8.57,7.36-12.76,11.17-6.64,6.02-13.22,11.77-21.86,15.36-8.02,3.33-15,9.11-22.6,13.53-7.88,4.58-15.82,9.09-23.97,13.15-12.75,6.35-25.7,12.31-38.56,18.42-1.16.55-2.33,1.08-3.36,1.55,2.57-9.08,4.64-17.83,7.63-26.26,1.36-3.84,4.12-7.39,6.92-10.47,24.56-27.1,50.35-52.92,78.94-75.85,9.59-7.7,19.49-14.83,29.64-21.54v-11.38c-16.63,10.5-32.26,22.54-47.01,35.79-20.83,18.69-40.2,39.02-60.19,58.64-1.92,1.88-3.64,3.95-6.55,7.13.38-15.18-7.47-23.54-19.6-29.75,2.33-2.54,4.25-4.76,6.29-6.86,16.81-17.31,33.05-35.22,50.59-51.76,24.58-23.19,49.27-46.37,76.48-66.43v-6.87c-10.97,8.27-21.51,17.14-31.82,26.29-32.91,29.19-66.05,58.17-95.33,91.17-1.24,1.4-2.42,2.85-3.64,4.26-4.79,5.53-8.69,12.29-17.54,12.01-1.25-.04-2.55.87-3.78,1.44-13.37,6.18-26.97,11.95-40.04,18.72-11.72,6.07-22.87,13.26-34.27,19.96-1.71,1.01-3.4,2.05-5.1,3.08-.24-.25-.49-.5-.73-.76,11.48-17.04,22.94-34.09,34.44-51.12,15.39-22.8,30.06-46.14,46.46-68.18,11.4-15.32,24.74-29.3,38.04-43.08,23.46-24.33,49.66-45.28,79.48-61.53,11.01-6,22.3-11.2,33.83-15.67v-10.32c-1.05.4-2.11.78-3.16,1.19-1.21.47-2.49.77-4.41.36,2.53-2.99,4.89-6.14,7.57-8.98v-49.34s-.03.05-.05.08c-.26.41-.63.75-1.36,1.6-11.65-13.06-28.27-15.12-44.48-19.89.99-2.1,1.49-4.09,2.68-5.52,14.4-17.26,28.64-34.66,43.21-51.76v-10.82c-2.6,2.91-5.17,5.86-7.68,8.85-15.53,18.44-30.35,37.49-45.64,56.13-1.26,1.53-3.74,2.52-5.8,2.87-7.18,1.2-14.42,2.08-21.66,2.89-1.49.17-3.67.04-4.53-.88-8.15-8.73-18.34-13.17-31.75-14.93,4.16-5.43,7.52-10.11,11.19-14.53,26.11-31.51,55-60.22,87.48-85.15,6.36-4.88,12.2-10.43,18.39-15.54v-5.21c-3.55,2.08-7.12,4.13-10.53,6.41-30.55,20.44-57.45,45.1-81.74,72.55-9.32,10.53-17.78,21.85-26.14,33.18-4.45,6.03-9.75,8.29-17.02,7.76-6.15-.45-12.36-.09-18.87-.09,3.79-6.13,7.88-12.65,11.86-19.24,14.86-24.66,35.44-44.06,57.18-62.41,10.28-8.68,20.38-17.58,30.56-26.38-.28-.36-.56-.73-.84-1.09-9.11,6.64-18.32,13.16-27.32,19.94-31.12,23.44-56.44,51.86-74.39,86.65-1.61,3.11-4.29,5.67-7.17,8.36.88-17.19-10.25-23.2-24.5-27.51,6.28-9.53,12.41-18.82,18.53-28.11,14.61-22.2,34.35-39.27,55.03-55.5,15.8-12.4,31.36-25.28,49.93-33.26,20.93-8.99,42.93-14.19,65.44-16.94v-5.26c-20.05,1.2-39.21,6.57-57.74,14.77-7.01,3.1-14,4.1-21.79,2.73-18.27-3.22-36.23.2-53.96,4.41-14.11,3.35-27.49,8.64-39.69,16.72-1.86,1.23-4.46,1.77-6.74,1.84-19.82.67-37.77,7.78-55.39,15.96-7.84,3.64-15.5,7.68-23.26,11.49-1.04.51-2.23.99-3.36,1-8.61.08-17.22.05-24.83.05-3.65-5.83-7.13-11.39-10.76-17.19,7.67-2.44,16.11-5.43,24.71-7.82,32.84-9.13,65.55-18.88,98.68-26.82,28.53-6.84,57.55-11.64,86.4-17.13,25.85-4.92,51.72-9.83,77.67-14.2,3.62-.61,6.96-1.57,10.07-2.85v-6.12c-3.14,1.22-6.56,2.1-10.23,2.68-20.15,3.15-40.39,5.71-60.48,9.21-33.79,5.9-67.63,11.66-101.19,18.73-38.2,8.05-76.14,17.35-113.24,29.72-2.24.75-4.55,1.32-8.28,2.39,6.98-17.01,4.14-31.84-6.17-45.85,89.33-29.47,181.08-41.78,272.5-56.09-14.96,1.05-29.97,1.62-44.86,3.25-22.47,2.45-44.97,4.97-67.25,8.7-23.92,4-47.82,8.57-71.35,14.44-30.12,7.51-59.83,16.63-89.78,24.84-2.55.7-6.27.84-8.19-.53-13.59-9.67-29.09-10.62-44.86-10.76-.68,0-1.36.01-2.04-.02-2.9-.14-6.47.05-6.57-3.81-.03-1.34,2.77-3.43,4.65-4.04,28.07-9.13,55.75-19.96,84.41-26.63,47.61-11.08,95.88-19.34,143.82-29.02,25.75-5.2,51.74-6.47,77.71-3.75,16.29,1.7,32.55,5.09,48.37,9.4,1.03.28,2.03.65,3.03,1.07V0h-1.42c-.47.99-.93,1.96-1.41,2.96-5-.99-9.99-1.97-14.99-2.96h-113.73c-18.54,3.91-37.02,8.14-55.64,11.66-19.85,3.75-39.91,6.41-59.8,10-27.48,4.95-54.06,13.27-80.42,22.31-11.87,4.07-23.72,8.2-36.22,12.53-3.54-13.68-14.29-18.8-26.69-22.95,10.6-3.94,21.03-8.48,31.84-11.72,25.18-7.54,50.51-14.62,75.79-21.83h-31.71c-9.92,3.4-19.83,6.8-29.76,10.17-14.44,4.9-28.93,9.68-43.33,14.67-3.18,1.1-6.05,3.08-9.19,4.31-3.44,1.35-7.03,3.23-10.57,3.27-27.09.28-52,8.73-76.32,19.6-.87.39-1.78.7-3.24.64,5.61-5.16,8.39-11.33,8.36-18.77-.03-7.42-2.42-13.97-7.5-20.57,10.19-4.52,20.1-8.92,29.98-13.33h-10.75c-5.88,3.06-11.75,6.14-17.64,9.16-4.79,2.46-9.51,2.43-13.81-1.1-3.67-3.01-7.82-3.66-12.39-3.19-24.46,2.51-48.93,4.95-73.4,7.39-1.13.11-2.27.01-5.04.01,7.53-4.4,14.35-8.39,20.99-12.28h-15.84c-7.2,4.58-14.37,9.2-21.79,13.39-4.61,2.6-9.85,4.8-15.04,5.54-16.53,2.34-32.28,7.22-47.86,12.89-7.73,3.2-15.46,6.41-24.5,10.15,8.89-9.24,16.7-17.36,24.5-25.47,1.77-1.3,3.48-2.67,5.31-3.88,6.43-4.23,12.88-8.42,19.32-12.63h-19.95c-1.56,1.76-3.12,3.51-4.68,5.27v1.02c-11.5,16.11-26.81,28.38-41.81,40.88-4.6,3.83-10.26,6.76-15.88,8.92-20.75,7.96-39.85,18.83-58.24,31.18-33.23,22.32-61.61,50.08-89.24,78.73-4.89,5.08-10.14,9.82-15.52,15.01.32-13.8-7.63-21.99-19.47-28.31,4.29-4.88,8.27-9.58,12.42-14.12,34.97-38.22,73.41-72.75,113.7-105.15,15.25-12.26,32.21-22.4,48.45-33.42h-10.06c-5.93,3.74-11.86,7.48-17.69,11.36-22.56,15.03-42.88,32.87-62.7,51.23-22.44,20.78-44.56,41.9-66.46,63.24-7.76,7.56-14.39,16.28-21.74,24.27-1.43,1.55-3.77,2.39-5.82,3.23-4.35,1.8-8.92,3.08-13.14,5.13-5.92,2.87-11.6,6.24-17.91,9.69-3.71-12.51-14.14-16.45-23.46-20.97,33.33-55.61,71.19-107.25,122.81-147.19h-15.61c-5.07,4.54-10.2,9.03-14.91,13.92-18.1,18.84-37.38,36.81-53.47,57.26-16.94,21.54-30.81,45.51-45.82,68.55-1.92,2.94-3.23,3.65-6.79,2.58-7.27-2.19-14.82-3.45-22.82-5.21,1.94-4.69,3.82-9.88,6.17-14.85,11.25-23.77,21.6-48.04,34.27-71.03,9.85-17.87,22.44-34.24,33.91-51.22h-7.67c-6.87,9.39-14.16,18.55-19.89,28.59-9.32,16.33-17.49,33.34-25.53,50.35-8.69,18.4-16.6,37.17-25.08,55.67-.7,1.52-3.03,2.91-4.8,3.21-8.02,1.34-16.09,2.44-24.18,3.23-1.95.19-4.46-.63-5.98-1.87-4.72-3.85-9.09-8.13-14.13-12.73,5.4-12.84,10.4-26.38,16.68-39.29,13.07-26.85,26.81-53.39,40.33-80.02,1.23-2.42,2.57-4.78,3.93-7.13h-7.13c-5.01,8.82-10.2,17.56-14.68,26.65-15.13,30.73-29.87,61.65-44.76,92.49-.51,1.05-.98,2.12-1.6,3.44-3.73-1.38-7.32-2.71-11.46-4.25,2.78-17.61,4.89-35.32,8.5-52.71,4.51-21.72,10.25-43.18,15.5-64.75.07-.29.19-.58.28-.87h-4.8c-4.46,16.01-9.41,31.92-12.86,48.14-4.7,22.07-7.95,44.45-11.84,66.69-.11.64-.43,1.24-.64,1.8h-21.06c4.37-14.65,1.32-21.54-12.34-28.47-3.03-1.54-5.89-3.56-9.07-4.6-3.96-1.29-4.31-3.5-3.23-6.94,8.05-25.53,16.03-51.08,24.03-76.62h-8.31c-4.53,14.16-9.17,28.29-13.43,42.53-3.2,10.69-5.77,21.57-8.65,32.35-.34,1.27-.81,2.51-1.4,4.32-21.37-5.44-42.49-3.22-64.35,1.37,1.01-3.98,1.79-7.34,2.71-10.66,6.61-23.9,15.57-46.93,25.64-69.55.05-.11.08-.24.13-.35h-8.19c-7.78,21.98-15.57,43.96-23.33,65.95-.85,2.39-2.01,4.81-2.18,7.28-.59,8.28-5.76,11.16-13.06,12.41-3.95.68-7.72,2.34-12.59,3.88,3.15-31.2,7.11-61.4,20.06-89.53h-5.09c-6.63,14.52-10.72,29.84-13.32,45.56-2.19,13.24-3.8,26.58-5.34,39.91-.49,4.25-2.14,6.38-6.27,7.9-12.52,4.6-24.84,9.76-37.87,14.96,1.81-8.86,3.7-17.27,5.24-25.75,2.92-16.03,5.23-32.19,8.58-48.13,2.44-11.59,5.8-22.99,8.9-34.44h-9.06c-2.59,10.9-5.41,21.76-7.41,32.77-4.33,23.73-8.16,47.55-12.02,71.37-1.32,8.11-1.08,8.15-6.51,9.59,3.89-13.02,1.98-16.37-12.46-20.5,4.7-32.67,15.32-63.47,29.34-93.23h-7.02c-3.03,7-6.08,14-9.07,21.02-1.32,3.1-2.48,6.27-4.11,10.43-3.46-14.54-14.23-20.8-26.02-26,.64-1.93,1.23-3.71,1.81-5.45h-5.68c-.47.99-.93,1.96-1.41,2.96-5-.99-9.99-1.97-14.99-2.96h-113.73c-18.54,3.91-37.02,8.14-55.64,11.66-19.85,3.75-39.91,6.41-59.8,10-27.48,4.95-54.06,13.27-80.42,22.31-11.87,4.07-23.72,8.2-36.22,12.53-3.54-13.68-14.29-18.8-26.69-22.95,10.6-3.94,21.03-8.48,31.84-11.72,25.18-7.54,50.51-14.62,75.79-21.83h-31.71c-9.92,3.4-19.83,6.8-29.76,10.17-14.44,4.9-28.92,9.68-43.33,14.67-3.18,1.1-6.05,3.08-9.19,4.31-3.44,1.35-7.03,3.23-10.57,3.27-27.09.28-52,8.73-76.32,19.6-.87.39-1.78.7-3.24.64,5.61-5.16,8.39-11.33,8.36-18.77-.03-7.42-2.42-13.97-7.5-20.57,10.19-4.52,20.1-8.92,29.98-13.33h-10.75c-5.88,3.06-11.75,6.14-17.64,9.16-4.79,2.46-9.51,2.43-13.81-1.1-3.67-3.01-7.82-3.66-12.39-3.19-24.46,2.51-48.93,4.95-73.4,7.39-1.13.11-2.27.01-5.04.01,7.53-4.4,14.35-8.39,21-12.28ZM23.39,318.8c-4.48.39-8.88,1.75-13.7,2.76,35.09-25.78,69.73-51.24,104.37-76.7.32.42.63.84.95,1.26-7.34,5.87-14.68,11.74-22.01,17.62-16.69,13.38-34.3,25.96-47.29,43.1-6.12,8.08-13.07,11.16-22.33,11.97Zm78.36-42.03c-11.8,6.52-23.46,13.3-35.53,19.63,10.48-8.97,20.87-18.06,31.48-26.88,14.09-11.72,27.79-24.03,42.71-34.6,14.2-10.06,29.23-19.26,44.83-26.94,24.19-11.91,48.99-22.64,73.88-33.05,21.72-9.09,43.91-17.06,65.91-25.49,6.41-2.46,15.32,6.53,14.26,14.99-28.09,5.23-54.23,15.77-79.9,27.33-8.84,3.98-16.42,10.7-24.73,15.92-4.43,2.78-9.01,5.52-13.86,7.43-20.11,7.91-39.56,17.16-57.6,29.03-7.58,4.99-14.3,11.37-21.11,17.44-4.78,4.26-9.23,7.79-16.45,7.39-8.67-.48-16.44,3.7-23.88,7.81Zm359.04-101.04c-16.65,13.62-30.85,29.58-43.73,46.78-1.27,1.7-3.91,3.15-6.03,3.32-11.52.96-22.22,4.61-32.72,9.11-3.56,1.53-7.16,2.96-11.82,3.61,2.32-4.12,4.34-8.45,7.02-12.33,16.48-23.87,35.23-45.66,58.03-63.84,15.14-12.07,29.82-24.66,47.3-33.42,23.09-11.56,47.58-15.59,73.16-14.11.45.03.89.3,1.79.61-16.47,12.07-32.12,24.31-48.55,35.4-19.69,13.29-34.9,30.56-48.08,49.98-6.66,9.8-13.57,19.43-20.03,28.66-5.2-1.17-9.63-2.16-14.55-3.26,16.46-27.59,43.26-45.83,64.69-69.02-.29-.36-.58-.73-.88-1.1-8.55,6.52-17.29,12.81-25.61,19.61Zm1062.4,206.03c-14.92,27.81-20.7,58.03-24.2,88.9-3.3,29.05-6.53,58.11-9.94,87.15-.19,1.62-1.47,4.01-2.8,4.47-13.78,4.86-24.68,14.12-35.91,22.92-2.78,2.18-5.68,4.23-9.52,7.08,1.44-7.09,2.99-13.02,3.8-19.05,2.43-18.19,4.02-36.51,6.95-54.62,3.49-21.62,7.88-43.11,12.15-64.6,3.37-16.97,6.84-33.93,10.85-50.76,4.05-16.99,11.78-32.3,21.72-46.77,10.86-15.79,19.86-32.83,33.6-46.6,8.74-8.76,17.9-16.45,29.7-20.9,11.71-4.42,22.95-10.12,34.74-14.3,5.08-1.8,11.05-1.75,16.57-1.49,5.82.28,8.14,3.54,8.59,9.4.59,7.62-3.08,13.54-7.86,18.72-17.85,19.36-32.78,40.74-44.89,64.09-16.88,32.54-29.15,66.88-38.87,102.13-7.89,28.63-15.45,57.35-22.56,86.18-1.88,7.64-8.06,3.29-10.99,6.9-.28-.36-.55-.73-.83-1.1,1.48-13.13,2.96-26.25,4.43-39.38,2.26-20.28,4.47-40.56,6.78-60.83,3.59-31.51,13.46-60.89,30.01-87.99,6.64-10.86,13.21-21.77,19.78-32.68,1.3-2.15,2.46-4.38,3.69-6.58-13.89,14.9-25.33,31.66-35.01,49.7Zm52.48,359.81c-28.91,12.68-59.37,20.38-90.44,25.47-21.39,3.51-41.75,10.4-62.15,17.32-21.53,7.3-43.13,14.38-64.64,21.74-3.98,1.36-7.5,4.38-11.53,5.25-7.06,1.52-14.43,1.59-21.54,2.95-10.64,2.04-21.17,4.67-31.75,7.05-11.07,4-22.13,8-33.88,12.24,12.82-12.38,10.41-25.25,1.85-39.6,10.68-4.84,21.36-9.68,32.03-14.52,59.91-24.11,122.82-37.23,185.64-50.86-5.45.24-10.78,1.11-16.12,1.87-32.95,4.7-65.7,10.66-97.63,20.09-24.2,7.15-47.95,15.8-71.9,23.79-10,5.03-20.04,9.95-29.97,15.12-5.57,2.9-10.49,2.51-15.73-1.04-2.47-1.67-5.9-2.72-8.89-2.7-26.4.19-52.54,3.31-78.56,7.61-.61.1-1.24.1-2.14-.52,6.38-3.76,12.69-7.65,19.15-11.27,35.01-19.62,71.17-36.74,109.29-49.5,2.22-.74,4.57-1.08,6.85-1.61v-1.02c23.51-5.95,46.94-12.21,70.54-17.77,54.17-12.76,109.09-16.97,164.6-13.17,17.45,1.2,34.89,2.6,52.25,4.65,4.97.59,10.11,3.05,14.34,5.89,6.71,4.5,7.69,13.73,1.54,18.96-6.35,5.4-13.61,10.23-21.23,13.57Zm25.19-7.54c-.17,9.22-4.03,15.09-11.82,16.68-7.27,1.49-14.77,1.89-22.16,2.76-.23-.67-.46-1.33-.69-2,5.74-2.47,11.6-4.68,17.17-7.49,5.83-2.93,11.37-6.44,17.5-9.96Zm1.33,49.52c-22.13,5.14-44.57,9.15-67.04,12.6-39.73,6.1-78.58,15.44-116.44,28.93-10.55,3.76-21.15,7.37-31.73,11.05-1.97.68-3.82,1.58-4.74-1.57-2.94-10.11-10.9-14.63-20.13-17.64-1.56-.51-3.11-1.07-5.93-2.04,7.4-2.97,13.57-5.64,19.88-7.94,30.77-11.22,62.12-20.6,94.04-27.87,31.77-7.24,63.62-14.23,95.62-20.39,24.62-4.74,49.67-6.21,74.67-3.53,10.88,1.17,21.66,3.83,32.28,6.61,3.68.96,7,4.02,9.97,6.69,1.35,1.22,2.48,4.27,1.86,5.67-.65,1.48-3.46,2.61-5.42,2.78-4.39.38-8.84.2-13.25,0-21.55-.94-42.6,1.76-63.64,6.64Zm-196.17,265.46q5.1-16.29-18.9-33c3.63-8.19,7.11-16.63,11.08-24.83,8.03-16.58,17.81-32.01,30.42-45.6,13.93-15.02,30.8-24.34,50.69-29.34,23.84-5.99,47.37-13.25,71.04-19.94,7.52-2.12,18.63,2.96,22.41,10.49-9.92,4.73-19.83,9.48-29.76,14.19-19.55,9.28-38.44,19.58-54.06,34.95-25.96,25.55-48.08,54.02-65.38,86.11-2.39,4.43-4.75,7.5-10.39,6.5-2.25-.4-4.68.27-7.14.47Zm-112.4-31.55c-13.59,4.66-27.31,9-40.75,14.09-11.54,4.37-22.75,9.59-34.97,14.81,1.98-5.9,3.57-11.17,5.58-16.28.61-1.55,2.17-3.03,3.68-3.86,18.3-10.03,36.65-19.96,55.03-29.84,3.72-2,7.62-3.66,11.43-5.47v-1.02c5.69-2.5,11.38-4.99,17.06-7.5,13.32-5.89,26.64-11.8,39.97-17.66,1.49-.66,3.09-1.07,3.35-1.16-7.31,13.84-14.92,28.32-22.64,42.74-.63,1.18-1.85,2.58-3.03,2.86-11.04,2.61-22.13,5-33.22,7.42-.47.1-1-.08-1.5-.14v1.02Zm-279.56,46.12c-3.75,2.29-9.13,2.04-13.8,2.7-53.71,7.57-106.65,18.75-158.7,34.02-9.11,2.67-18.08,5.85-27.06,8.95-5.21,1.79-9.94,1.42-14.49-1.87-7.39-5.34-15.9-7.5-24.83-8.14-6.62-.47-13.27-.51-19.86-1.19-1.79-.18-3.4-2-5.1-3.07,1.21-1.31,2.18-3.27,3.68-3.82,14.65-5.35,29.32-10.68,44.12-15.61,35.85-11.95,72.74-19.66,109.83-26.51,28.56-5.27,57.04-10.98,85.66-15.88,24.95-4.27,50.17-4.83,75.21-1.12,14.71,2.18,29.17,6.11,43.72,9.32,1.24.27,2.37,1.09,3.55,1.65-.07.41-.15.83-.22,1.24-4.47-.8-8.93-2.19-13.41-2.31-31.36-.82-61.08,4.99-88.29,21.63Zm-142.45,37.83c-16.85,5.04-33.17,11.89-49.7,18-5.47,2.02-6.13,1.74-8.36-4.86,45.07-15.24,91.34-25.42,138.23-32.87-8.06,3.91-16.11,7.86-24.2,11.71-1.01.48-2.29.75-3.4.65-18.11-1.72-35.56,2.3-52.57,7.38Zm-119.75,34.88c-3.97.89-7.89,1.94-11.84,2.93-59.11,14.83-115.17,37.32-168.44,66.85-3.71,2.06-7.1,4.74-10.93,6.5-4.73,2.18-9.63,4.62-14.69,5.32-16.55,2.29-31.8,8.28-46.88,14.96-2.47,1.09-4.9,2.26-6.63,3.07-4.94-7.31-9.69-14.34-14.77-21.87,6.1-4.02,12.63-8.55,19.37-12.72,32.43-20.05,66.48-36.87,101.86-51.05,23.78-9.53,47.37-19.58,71.32-28.66,35.68-13.52,72.5-19.09,110.56-13.34,8.99,1.36,17.4,4.48,24.68,10.16,1.98,1.54,3.94,3.1,5.8,4.56-6.05,4.07-11.39,6.89-15.78,10.77-12.44,11.02-28.53,14.72-42.71,22.2-15.43,8.14-30.61,16.84-45.41,26.06-6.09,3.8-10.97,9.57-16.31,14.54-2.29,2.14-4.69,2.44-7.86,2.82-8,.95-16.04,2.86-23.63,5.6-19.92,7.19-36.68,19.69-52.88,32.98-3.91,3.21-8,6.2-12.56,9.72-2.92-17.28-10.27-29.52-30.77-30.24,63.71-37.13,132.25-58.9,199.77-83.41-3.76.74-7.53,1.4-11.27,2.23Zm71.72-158.26c-44.52,6.95-88.47,16.37-131.22,30.86-20.74,7.03-41.19,14.83-60.18,25.93-7.09,4.15-13.61,5.27-20.55-.44-1.81-1.49-5.14-1.87-7.68-1.65-24.38,2.08-48.73,4.39-73.09,6.64-1.8.17-3.59.44-5.39.66-.14-.33-.28-.66-.42-.98,4.44-2.67,8.82-5.42,13.32-7.98,38.16-21.7,77.63-40.52,119.49-54.05,29.45-9.51,59.65-15.86,89.92-22.13,39.69-8.22,79.71-11.92,120.13-10.65,24.62.77,49.21,2.85,73.76,4.87,5.59.46,11.32,2.48,16.41,4.96,9.25,4.52,10.94,14.9,3.37,21.89-4.75,4.39-10.51,8.09-16.42,10.76-25.63,11.58-52.44,19.75-80.12,24.51-27.21,4.67-53.63,11.87-79.61,21.12-19.5,6.94-39.3,13-58.95,19.51-1.92.64-3.92,1.37-5.53,2.54-9.32,6.77-20.36,5.46-30.85,6.8-20.9,2.66-40.63,9.19-59.71,17.92-1.33.61-2.73,1.07-4.49,1.41,12.01-12.69,9.73-25.72,1.19-39.36,33.99-17.36,69.6-29.91,106.29-39.27,36.65-9.35,73.55-17.67,111.36-26.69-7.64,1.01-14.36,1.76-21.04,2.8Zm-76.79-84.82c-50.24,10.04-96.95,29.51-142.08,53.19-26.61,13.95-53.55,27.32-79.74,42.01-21.59,12.11-42.3,25.79-63.41,38.78-1.25.77-2.5,1.56-4.13,2.15,12.22-20.05,20.63-40.64,10.8-65.15,12.85-9.32,25.75-19.27,39.25-28.34,37.38-25.13,77.33-45.29,120.03-59.74,32.93-11.15,66.71-18.85,101.35-21.95,17.41-1.56,34.97-1.46,52.46-2.14,8.15-.32,16.34-1.46,24.41-.84,5.69.44,11.94,2.11,16.62,5.21,6.6,4.38,7.38,12.51,3.94,21.28-4.46,11.36-11.79,20.64-21.26,28.15-20.6,16.35-43.4,28.76-67.26,39.88-15.22,7.09-30.89,10.71-46.89,14.38-32.37,7.41-63.54,18.51-93.72,32.28-31.99,14.6-63.03,30.97-92.72,49.93-5.02,3.2-11.8,3.98-17.91,5.06-20.06,3.53-38.92,10.62-57.58,18.45-3.25,1.36-6.6,2.49-9.45,3.56,5.94-6.2,12.24-12.34,18.05-18.92,10.96-12.42,26.2-18.66,39.47-27.68,53.7-36.52,112.31-64.08,170.83-91.61,32.74-15.4,66.98-27.21,102.1-36.19,4.4-1.13,8.78-2.33,13.02-4.39-5.4.87-10.83,1.58-16.19,2.65Zm-456.01,6.52c1.35-2.4,2.31-4.44,3.57-6.27,1.34-1.95,3.21-3.55,4.42-5.56,4.39-7.36,10.51-10.7,19.27-11.77,15.79-1.93,31.39-5.43,47.08-8.25,1.6-.29,3.22-.44,5.52-.74-11.92,17.82-23.38,34.95-35.15,52.54-11.75-13.14-28.33-15.14-44.71-19.95Zm-39.16,1.77c-3.73-2.87-7.19-6.09-11.44-9.77,18.65-3.88,36.85-7.66,55.06-11.45.2.37.39.73.59,1.1-4.47,5.68-8.87,11.43-13.49,16.99-.67.81-2.36.92-3.62,1.09-7.54,1.03-15.09,2.06-22.65,2.9-1.46.16-3.37-.03-4.46-.86Zm93.03,13.09c10.21-14.41,20.27-28.93,29.83-43.78,3.92-6.1,9.72-6.56,15.58-7.7,7.16-1.38,14.38-2.52,21.53-3.94,20.44-4.05,29.1-19.63,35.19-37.09,2.62-7.51.55-15.13-5.15-22.91,11.66-6.81,22.53-14.5,34.47-19.78,15.46-6.84,31.75-11.81,47.72-17.49,6.05-2.15,12.16-4.14,18.28-6.08,12.07-3.84,24.2-4.01,35.92.97,9.19,3.91,18.09,8.51,27,13.04,2.32,1.18,4.2,3.24,6.78,5.29-11.44,2.9-22.08,5.65-32.76,8.28-24.94,6.14-48.04,16.63-70.22,29.36-14.11,8.1-29.26,14.76-42.29,24.32-18.98,13.92-37.21,29.07-54.42,45.13-24.94,23.27-48.68,47.83-72.94,71.83-.69.68-1.43,1.31-2.81,2.57.97-5.49,1.88-10.06,2.55-14.68.34-2.34.78-4.86.29-7.11-1.7-7.79,1.06-14.01,5.47-20.24Zm84.61-148.71c-8.83,3.95-17.35,8.57-26.04,12.84-1.18.58-2.59,1.33-3.78,1.18-11.44-1.45-22.85-3.08-32.83-4.46-3.23-5.95-6.11-11.24-9.2-16.93,6.4-2.91,13.95-6.27,21.43-9.74,20.34-9.43,40.72-18.72,62.54-24.36,19.32-5,38.02-12.67,58.71-11.2,15.77,1.12,30.53,4.55,43.67,13.62,1.66,1.15,3.2,2.52,4.64,3.95,3.12,3.09,5.66,6.51,3.86,11.26-1.85,4.88-5.01,8.06-10.47,9.2-31.17,6.49-60.6,17.46-87.55,34.63-4.43,2.82-8.65,5.99-13.14,8.72-1.13.69-3.22.9-4.35.32-8.85-4.48-17.57-9.21-26.6-14.01,18.84-9.78,38.36-19.92,57.89-30.06-.17-.38-.35-.76-.52-1.15-12.76,5.37-25.61,10.54-38.25,16.19Zm699.69-421.02c-4.38.56-8.82.91-13.13,1.82-30.55,6.47-61.32,12.12-91.54,19.87-31.9,8.17-63.21,18.56-92.09,34.99-.88.5-1.92.75-2.76,1.3-5.33,3.48-10.32,4.06-16.35.67-3.89-2.18-9.14-3.11-13.66-2.79-26.08,1.84-52.13,4.23-77.17,6.34,7.56-4.37,16.31-9.59,25.22-14.55,28.23-15.7,57.37-29.61,87.67-40.69,30.62-11.2,62.05-19.97,94.23-25.63,23.57-4.15,47.1-8.87,70.86-11.49,20.4-2.25,41.12-2.85,61.66-2.43,24.98.51,49.94,2.61,74.86,4.57,6.12.48,12.37,2.39,18.03,4.86,10.12,4.41,11.7,15.2,3.7,22.85-9.1,8.69-20.88,12.43-32.24,16.92-28.76,11.38-59.11,16.37-89.11,22.94-16.86,3.69-33.36,9.18-49.86,14.37-20.88,6.57-42.09,12.46-62.2,20.94-13.28,5.6-26.45,8.34-40.51,9.93-19.85,2.26-38.58,9.16-56.79,17.31-1.46.65-2.95,1.23-4.42,1.85,12.06-12.99,9.23-26.14,1.14-39.81,68.89-34.46,143.38-49.23,217.51-65.71-4.35.52-8.71,1.02-13.06,1.58Zm-79.89-30.76c8.53-4.63,18.16-9.86,27.8-15.09-8.51,7.3-15.63,17.16-27.8,15.09Zm321.62,385.52c-18.06,9.37-37.8,10.36-56.46,16.22-6.76,2.13-13.72,3.63-20.59,5.42v1.02c-11.4,3.81-22.99,7.15-34.16,11.53-36.27,14.25-70.94,31.82-104.47,51.64-2.19,1.29-4.39,2.61-6.37,4.2-8.95,7.18-19.58,9.22-30.48,11.73-15.8,3.63-31.14,9.32-46.6,14.36-5.92,1.93-11.64,4.49-17.15,6.64,6.71-7.11,13.35-14.41,20.29-21.39,3.21-3.23,6.75-6.28,10.6-8.69,25.3-15.85,50.27-32.29,76.23-47,26.12-14.8,53.13-28.08,79.99-41.53,17.14-8.59,34.74-16.29,52.13-24.38,35.24-15.33,71.66-27.09,108.98-36.23-24.99,3.24-49.38,8.97-73.19,17.07-12.02,4.09-23.87,8.67-35.79,13.03v1.02c-9.31,4-18.87,7.51-27.89,12.09-33.3,16.91-66.71,33.62-99.5,51.48-25.44,13.86-50.01,29.31-73.54,43.21,2.33-4.43,6.22-10.53,8.89-17.13,5.71-14.14,8.48-28.7,2.27-43.52-1.4-3.33.97-4.31,2.8-5.56,21.37-14.73,42.16-30.41,64.32-43.83,33.04-20.01,68.43-35.27,105.5-46.42,5.65-1.7,11.44-2.98,17.16-4.45,18.08-3.72,36.11-7.72,54.26-11.11,22.49-4.19,45.28-4.38,68.08-4.26,8.32.04,16.68-1.08,24.96-.6,20.76,1.21,27.42,14.42,17.36,32.67-7.56,13.72-19.17,23.11-31.63,31.83-17.58,12.31-37.02,21.11-55.98,30.95Zm53.81-22.27c-2.73,5.98-5.15,11.38-7.71,16.72-.3.62-1.32,1.15-2.08,1.26-8.71,1.3-17.43,2.5-27.02,3.86,12.72-7.54,24.35-14.44,36.81-21.83Zm-32.82,210.77c-12.47,3.26-25.07,6.09-37.34,9.96-20.34,6.42-40.47,13.51-60.69,20.32-18.21,7.87-36.68,15.19-54.54,23.79-16.04,7.72-31.38,16.88-47.09,25.29-2.51,1.35-5.27,2.73-8.03,3.03-18.86,2.06-36.15,8.96-53.19,16.71-1.51.69-3.07,1.26-3.65,1.49-5.07-7.37-9.81-14.26-15.01-21.83,11.88-7.35,24.21-15.4,36.93-22.78,33.87-19.66,69.61-35.34,106.15-49.32,12.98-4.97,25.63-10.78,38.44-16.21,22.15-8.28,44.62-15.48,68.25-17.99,21.88-2.32,43.88-3.52,65.14,3.87,24.09,8.37,28.99,26.65,21.5,49.15-1.63,4.89-5.43,8.17-10.33,9.95-14.52,5.26-29.15,10.21-43.55,15.77-32.61,12.59-65.11,25.48-97.66,38.24-1.09.43-2.23.74-3.35,1.11v1.02c-11.22,5.13-22.59,9.96-33.62,15.48-11.05,5.53-21.75,11.74-33.23,17.99,2.4-10.09,2.2-19.67-2.97-28.62-5.28-9.15-13.26-13.75-23.96-14.43,29.83-17.98,61.25-32.41,93.78-44.55v-1.02c.98-.15,2.02-.14,2.94-.47,27.29-9.79,54.58-19.62,81.86-29.45,5.64-2.03,11.27-4.07,16.9-6.11-1.38-.67-2.55-.67-3.66-.38Zm-425.95,142.87c-18.41,3.96-36.87,7.9-55.49,10.63-42.28,6.2-83.78,15.31-124.07,29.71-12.27,4.39-24.65,8.49-37.43,12.88-3.58-13.56-14.15-18.57-26.23-22.83,8.08-3.16,16.07-6.55,24.25-9.43,42.5-14.95,86.01-26.3,130.08-35.41,24.92-5.15,49.92-10.36,75.13-13.55,26.67-3.37,53.66-3.61,80,3.53,5.37,1.46,10.39,4.76,15.06,7.95,1.8,1.23,2.21,4.5,3.25,6.85-2.41.92-4.79,2.56-7.23,2.64-8.84.27-17.69.15-26.53-.06-17.33-.41-34,3.49-50.78,7.1Zm77.9-27.53c-5.41-2.55-11.26-4.19-18.32-6.75,7.65-4.82,14.28-9.84,21.62-13.39,8.65-4.19,17.78-7.5,26.95-10.47,11.64-3.77,22.85-1.11,33.56,4.04,4.04,1.94,6.41,6.32,9.61,16.79-8.09,4.44-16.17,8.7-24.09,13.26-8.37,4.82-16.44,10.18-24.93,14.75-2.81,1.51-6.53,1.32-10.4,2.01.85-11.59-6.06-16.51-13.99-20.24Zm-102.42-5.43c-.66.09-1.34.01-3.06.01,15.68-7.93,30.14-15.91,45.19-22.54,6.78-2.99,14.68-3.85,22.18-4.63,5.56-.58,11.09,1.54,13.72,6.99,2.63,5.46.98,11-2.06,15.97-.61,1-2.38,2.06-3.43,1.9-24.33-3.56-48.43-.89-72.53,2.31Zm365.14-133.38c-4.37.99-8.48,3.12-12.71,4.72v1.02c-8.61,3.97-17.12,8.18-25.86,11.84-6.23,2.61-12.72,4.63-19.17,6.69-33.47,10.7-64.96,25.9-95.49,43.01-17.15,9.61-33.36,20.89-50.05,31.32-1.19.74-2.93,1.23-4.27,1-21.9-3.81-40.77,3.99-58.76,15.18-3.72,2.31-7.32,4.81-11,7.24-2.51-6.67-1.93-9.07,3.14-13.38,30.15-25.57,62.67-47.7,97.14-67,10.8-6.05,21.36-12.57,32.4-18.14,7.53-3.8,15.87-5.98,23.57-9.48,12.18-5.54,24.12-11.62,36.18-17.41,17.71-8.51,35.39-17.1,53.2-25.39,6.13-2.85,12.63-4.92,18.96-7.35,11.9-2.56,23.72-5.56,35.71-7.56,10.1-1.68,20.31-1.23,30.14,2.33,12.34,4.47,18.28,13.76,17.32,27.85-8.13,1.27-16.49,2.31-24.74,3.92-15.28,2.99-30.53,6.16-45.71,9.59Zm-135.74,11.49c-17.88,7.6-34.87,17.46-51.74,27.22-17.03,9.86-33.89,20.18-49.93,31.55-13.68,9.7-26.09,21.2-39.08,31.87-1.57,1.29-3.25,2.43-5.42,4.04-16.63-13.82-33.18-8.59-49.43.26-.89-4.83-.85-9.44-2.67-13.12-1.86-3.77-5.55-6.63-8.88-10.38,6.73-5.9,13.64-12.11,20.71-18.13,29.06-24.75,61.95-43.46,96.16-59.89,23.86-11.46,48.12-22.11,72.2-33.13,1.23-.56,2.39-1.27,3.35-2.57-10.82,3.82-21.77,7.34-32.45,11.53-32.63,12.8-64.04,28.1-93.85,46.62-24.01,14.92-46.57,31.77-67.66,50.58-2.12,1.9-3.58,1.92-6.53,1.04-5.95-1.76-12.35-2.22-18.6-2.73-13.87-1.13-27.77-1.97-41.66-2.92-.44-.5-.88-1-1.31-1.5,1.97-1.45,4.13-2.69,5.88-4.37,24.13-23.28,49.5-45.03,77.86-63.07,38.08-24.23,79.13-41.8,122.25-54.83,28.25-8.54,57.23-13.41,86.38-17.08,16.16-2.04,32.54-2.44,48.84-3.13,4.66-.2,9.57.58,14.03,1.96,11.88,3.68,16.02,17.36,8.21,27.11-3.15,3.93-7.11,7.31-11.09,10.45-22.96,18.15-48.7,31.19-75.59,42.61Zm-461.11-202.37c-13.27,11.36-26.99,22.29-39.37,34.55-16.07,15.91-25.96,36-34.1,56.87-1.57,4.02-3.69,5.77-7.98,6.92-6.34,1.69-10.88,1.36-15.5-4.01-6.98-8.11-16.27-13.23-27.4-17.13,4.33-7.33,8.13-14.29,12.44-20.93,7.67-11.83,15.17-23.82,23.67-35.03,5.04-6.65,11.51-12.38,17.98-17.74,11.76-9.74,23.64-19.41,36.12-28.17,21.67-15.21,44.49-28.34,71.52-31.36,16.38-1.84,31.89,1.97,46.15,9.84,11.08,6.11,11.46,16.97.76,23.93-10.65,6.93-21.91,12.97-33.13,18.96-18.86,10.07-32.51,25.54-44.45,42.63-13.13,18.79-21.94,39.77-29.25,61.41-.21.62-.54,1.19-.44.97-14.65-2.39-28.91-4.71-44.16-7.2,4.46-9.28,8.98-19.45,14.15-29.27,10.46-19.89,27.05-34.71,42.35-50.62,6.91-7.19,13.5-14.7,20.13-22.16-3.22,2.45-6.42,4.92-9.49,7.55Zm-151.89,74.94c.28-5.24.19-10.21.94-15.05.39-2.53,2.17-4.89,3.52-7.21,2.03-3.49,4.23-6.87,5.52-10.92-3.7,4.56-7.41,9.13-10.39,12.8-10.56-6-20.76-11.79-31.37-17.82,10.49-12.19,20.47-25.88,36.31-33.15,13.09-6.01,26.3-11.8,39.69-17.13,4.46-1.77,9.6-2.43,14.44-2.49,10.84-.14,15.7,6.57,11.74,16.75-2.1,5.39-5.42,10.68-9.36,14.92-15.59,16.81-28.53,35.41-39.3,55.57-1.56,2.93-3.17,4.12-6.65,3.83-5.36-.45-10.78-.12-15.09-.12Zm816.4-151.85c-.82,0-1.63-.12-3.02-.23,1.62-8.41,3.43-16.46,4.7-24.61,3.07-19.79,5.72-39.65,8.88-59.42,1.82-11.39,4.21-22.7,6.58-33.99.25-1.17,2-2.49,3.31-2.89,4.86-1.46,9.82-2.65,14.78-3.79,6.1-1.41,10.78-4.65,14.25-9.9,1.85-2.8,4.21-5.26,7.01-8.69-1.85,9.78-4.05,18.45-5.03,27.25-2.07,18.57-3.51,37.21-5.2,55.82-1.7,18.79-3.4,37.58-5.1,56.36-.22,2.39-.77,3.99-3.94,3.95-12.4-.13-24.8.07-37.2.13Zm27.12-128.73c-19.76,3.12-39.56,5.96-59.32,9.11-16.08,2.56-32.12,5.39-48.18,8.1-26.27,5.39-52.47,11.13-78.84,15.96-7.66,1.4-15.79.22-23.95.22,1.02-2.61,2.31-4.86,2.75-7.27,1.36-7.59-2.96-12.69-8.51-16.66-4.23-3.03-9.06-5.22-13.6-7.83-1.6-.91-3.13-1.93-5.86-3.64,16.41-3.68,31.59-7.44,46.93-10.44,25.66-5.01,51.43-9.53,77.14-14.27,1.33-.25,2.63-.67,3.94-1.01,17.61-2.56,35.23-5.12,52.83-7.7,10.59-1.55,21.17-3.14,31.75-4.71-11.46-.31-22.82.14-34.11,1.3-16.85,1.73-33.65,3.97-50.48,6-14.09,2.17-28.26,3.88-42.24,6.62-23.47,4.61-46.81,9.87-70.2,14.9-2.82.61-5.6,1.41-8.38,2.19-8.81,2.47-17.38,4.72-26.93,3.01-16.48-2.96-32.9-.43-49.04,3.35-8.5,1.99-16.8,3.33-25.6,1.85-6.33-1.07-12.91-.61-19.32-1.29-1.58-.17-2.98-2.11-4.46-3.24,1.06-1.07,1.92-2.66,3.2-3.13,14.97-5.49,29.9-11.09,45.03-16.11,40.72-13.51,82.77-21.54,124.83-29.39,24.36-4.54,48.73-8.99,73.1-13.48,23.52-3.17,47.13-3.66,70.67-.97,17.65,2.02,35.46,4.04,51.54,12.67,1.94,1.04,3.85,2.19,5.56,3.57,10.27,8.31,11.93,16.32,7.67,28.89-4.66,13.74-14.01,21.21-27.94,23.41Zm-542.72,255.56c-28.9,24.2-52.97,52.71-73.42,84.24-6.53,10.07-11.62,21.08-17.52,31.57-.77,1.38-2.44,3.09-3.79,3.18-17.27,1.17-34.55,2.08-52.28,3.08,4.04-8.14,7.91-16.73,12.48-24.94,10.14-18.24,19.85-36.79,31.15-54.3,24.88-38.55,57.21-69.32,99.02-89.16,13.14-6.24,26.77-11.5,40.38-16.68,12.87-4.9,25.99-4.35,38.99.04,7.24,2.44,14.46,4.93,21.71,7.33,8.18,2.71,12.61,7.88,12.39,16.93-.5,20.66-7.11,38.66-22.54,52.81-3.33,3.06-7.29,5.63-11.34,7.67-26.88,13.5-49.91,32.17-71.19,53.1-14.51,14.27-28.45,29.13-42.8,43.57-1.25,1.26-3.65,1.83-5.55,1.92-8.13.37-16.28.67-24.41.52-5.74-.11-11.47-.98-18.11-1.6,26.26-51.1,62.64-92.69,104.25-130.12-.26-.33-.52-.66-.78-1-5.57,3.93-11.45,7.49-16.65,11.85Zm224.35-213c-22.9,9.57-45.31,20.07-66.12,33.75-19.23,12.64-35.3,28.79-50.04,46.19-16.37,19.3-31.9,39.32-47.96,58.88-1.27,1.54-3.77,2.49-5.86,2.86-7,1.23-14.06,2.14-21.12,3-1.67.2-4.13.38-5.03-.56-8.33-8.77-18.5-13.59-31.68-14.86,2.3-3.53,3.91-6.61,6.07-9.24,29.69-36.08,63.49-67.75,99.74-97.32,18.63-15.2,39.43-24.71,60.36-35.11,27.61-13.72,57.01-22.11,86.53-29.65,23.07-5.9,46.34-3.41,67.59,8.95,3.17,1.85,6.09,4.37,8.58,7.08,6.56,7.14,3.37,16.73-6.14,19.08-21.28,5.25-42.35,11.11-62.26,20.55-33.23,15.76-61.31,38.17-85.5,65.7-22.06,25.1-40.21,53-58.3,80.95-.37.57-.78,1.1-1.43,2.02-11.52-13.8-28.69-15.11-45.31-20.41,4.11-5.47,7.67-10.29,11.31-15.06,19.32-25.27,39.66-49.65,62.95-71.43,16.43-15.36,35.54-26.68,55.27-37.09,15.59-8.23,31.27-16.3,46.42-25.55-6.02,2.42-12.08,4.76-18.07,7.27Zm-86.55-25.45c4.14.8,5.5,4.35,3.7,7.91-2.18,4.29-4.49,9.11-8.11,11.96-7.83,6.17-16.46,11.33-24.87,16.73-27.75,17.84-52.53,39.23-75.27,63.03-14.33,14.99-28.26,30.32-39.64,47.76-3.6,5.52-8.8,6.93-14.98,6.73-6.35-.21-12.72-.05-19.82-.05,4.61-7.43,9.27-14.84,13.84-22.3,14.78-24.16,35.57-42.71,56.79-60.85,10.31-8.81,20.53-17.73,31.21-26.97-10.27,3.95-50.78,36.77-64.02,50.25-19.15,19.49-32.29,43.23-47.61,65.92.8-17.43-10.3-23.68-24.74-27.93,6.07-9.27,11.87-18.21,17.76-27.09,14.28-21.51,32.74-38.97,53.27-54.35,12.09-9.06,24.06-18.31,36.54-26.82,12.15-8.28,25.57-14.05,40.12-16.96,15.46-3.1,30.82-6.91,46.4-9.21,6.25-.92,13.02,1.02,19.44,2.25Zm2.98-4.14c7.11-4.52,42.87-8.3,63.21-6.61-20.03,8.28-39.1,16.15-59.18,24.45,2.76-7.2,3.83-13.78-4.03-17.84Zm294.44,12.4c4.49-.56,8.98-1.11,14.12-1.75-2.67,10.78-5.31,21.39-8.04,32.4-2.18-.37-4.13-.7-6.09-1.03-12.64,1.05-25.28,2.16-37.93,3.08-1.41.1-3.22-.46-4.31-1.36-7-5.79-13.86-11.77-21.06-17.94,7.16-1.58,14.74-3.36,22.37-4.9,12.96-2.61,25.95-5.07,38.93-7.56.64-.12,1.33.04,2,.08v-1.02Zm-320.54,185.89c.04-1.43.7-2.98,1.49-4.21,18.77-29.37,38.42-58.07,61.65-84.22,24-27.01,51.29-49.49,84.96-63.45,5.31-2.2,10.95-3.6,16.39-5.51,10.38-3.64,20.8-7.2,31.08-11.13,21.27-8.12,41.37-4.95,60.69,5.97,5.68,3.21,11.14,6.83,16.7,10.26-.28.43-.57.86-.85,1.29-13.1,3.42-26.26,6.63-39.29,10.3-18.36,5.17-35.93,12.32-52.54,21.77-17.85,10.16-36.18,19.54-53.62,30.35-21.34,13.23-39.49,30.59-57.22,48.19-23.73,23.56-46.84,47.75-70.1,71.54.22-11.03.36-21.09.67-31.14Zm331.84-154.88c2.81-10.54,5.6-21.14,8.52-31.71.26-.96,1.28-2.24,2.15-2.42,9.56-2,19.16-3.82,29.29-5.79-4.04,17.37-7.85,33.75-11.74,50.47-8.81-3.3-18.2-6.81-28.22-10.56Zm-265.25-58.63c-14.75,2.4-29.38,4.37-43.84,7.21-22.94,4.52-45.82,9.42-68.62,14.6-5.72,1.3-10.91,4.83-16.6,6.36-5.26,1.41-11.01,2.62-16.31,1.98-19.55-2.35-38.59-1.35-57.14,5.75-9.29,3.56-18.71,6.77-28.88,9.27,2.71-2.14,5.13-4.98,8.2-6.31,9.48-4.09,19.43-7.15,28.81-11.46,16.94-7.78,33.81-15.77,50.34-24.38,30.49-15.88,62.19-28.08,96.32-33.18,9.46-1.41,18.96-.94,28.29,1.83,13.09,3.9,19.92,13.32,19.44,28.32Zm-149.45,34.1c.28.02.54.3.75.42-21.78,16.21-43.64,31.97-64.92,48.49-14.39,11.17-24.27,26.46-34.58,41.24-5.05,7.24-10.27,14.36-15.21,21.67-1.59,2.35-3,3.11-5.82,2.04-3.12-1.19-6.51-1.69-10.5-2.66,16.69-27.4,43.04-45.88,64.59-68.75-.29-.36-.57-.72-.86-1.08-8.43,6.34-17.1,12.38-25.25,19.07-17.02,13.98-31.6,30.3-44.58,48.08-.8,1.1-2.3,2.4-3.48,2.42-15.79.19-29.59,6.95-43.64,12.93-.6.25-1.27.34-3.13-.31,3.58-5.9,6.85-12.02,10.8-17.66,23.7-33.86,54-60.91,87.98-83.96,26.5-17.98,56.25-23.85,87.83-21.92Zm-99.71,21.8c-2.49,2.02-4.93,4.11-7.48,6.05-30.85,23.43-56.85,51.52-79.18,83.05-3.12,4.4-4.95,9.7-7.97,14.18-2.31,3.43-4.99,7.33-8.48,9.11-18.06,9.2-33.24,22.32-48.91,34.79-1.18.94-2.42,1.81-4.26,3.19.04-6.18-2.67-11.38,2.4-16.88,15.76-17.07,30.76-34.84,46.36-52.07,9.66-10.67,19.87-20.83,29.29-31.74-31.68,24.16-58.3,53.25-82.34,85.1-10.31-6.76-20.99-3.83-32.08-2.22,13.05-18.16,25.74-36.56,42.59-51.27,43.81-38.25,91.67-69.35,149.28-82.44.26.38.51.76.77,1.14Zm-111.48,45.16c-28.31,18.74-52.91,41.45-73.33,68.63-3.87,5.15-7.4,10.61-11.75,15.32-3.71,4.01-7.86,8.43-12.73,10.41-12.88,5.23-24.68,12.08-35.81,20.27-1.56,1.15-3.39,1.93-6.37,3.58,8.04-15.66,20.28-25.78,31.34-36.84,11.04-11.05,22.4-21.78,34.08-33.1-1.01.16-1.65.06-2,.34-22.36,17.76-45.08,35.28-62.38,58.27-6.01,7.98-12.41,12.26-22.23,12.85-5.83.35-11.55,2.39-18.4,3.91,1.52-3.08,2.51-5.83,4.09-8.2,14.11-21.21,27.46-42.95,44.68-61.94,17.3-19.07,37.73-33.39,61.44-43.55,26.78-11.47,53.84-21.67,82.88-25.7,3.67-.51,7.34-.93,12.5-1.58-9.47,6.31-17.73,11.85-26.03,17.34Zm-145.8,123.07c-5.58,7.07-10.45,13.23-14.95,18.93h-40.93c17.33-12.22,35.51-17.51,55.87-18.93Zm164.55,70.4c8.82-20.89,19.19-40.85,34.39-57.99,9.1-10.26,19.56-18.86,31.22-25.97,16.35-9.98,31.87-21.55,50.37-27.57,18.79-6.11,37.5-5.93,55.74,2.08,3.9,1.71,7.2,4.8,11.97,8.08-11.21,5.27-20.72,10.17-30.55,14.29-35.88,15.07-63.01,40.71-86.76,70.67-21.24,26.79-37.33,56.67-53.13,86.76-.87,1.65-2.17,3.2-2.57,4.95-3.12,13.76-13.72,14.1-25.2,13.99,4.58-3.79,9-7.12,13.05-10.85,8.15-7.49,14.12-16.46,17.47-27.09,3.39-10.73.13-19.96-9.48-25.85-4.17-2.56-8.63-4.66-13.6-7.31,2.33-6,4.55-12.16,7.1-18.19Zm129.21,88.34c3.67-4.15,7.26-8.41,11.06-12.47,21.58-23.1,43.89-45.39,69.83-63.73,21.19-14.98,43.9-27,68.22-36.1,30.58-11.44,62.55-16.75,94.53-22.04,4.3-.71,8.91-.67,13.22-.02,12.72,1.92,18.68,10.7,17.34,24.83-1.49,15.65-7.01,29.68-17.48,41.51-9.78,11.05-19.08,22.69-29.98,32.54-9.95,8.99-19.67,18.5-32.73,23.89-15.01,6.19-29.74,13.36-43.79,21.51-28.67,16.64-53.56,38.28-77.28,61.28-5.37,5.21-10.56,10.6-16.04,15.68-1.31,1.21-3.49,2.05-5.28,2.08-10.04.19-20.09.32-30.11-.08-3.15-.13-6.23-1.98-10.6-3.48,30.67-36.47,65.07-67.1,99.6-97.64,34.68-30.67,72.28-56.88,114.02-77.4-2.65.89-5.31,1.75-7.94,2.68-2.72.96-5.43,1.94-8.11,3.01-28.35,11.35-53.72,27.74-76.96,47.24-36.33,30.48-71.73,62.03-104.41,96.48-6.89,7.27-13.25,15.05-20.02,22.44-1.23,1.34-3.14,2.28-4.91,2.85-6.08,1.97-12.12,4.51-18.38,5.35-16.12,2.16-32.34,3.53-49.4,4.23,3.6-2.81,7.07-5.81,10.82-8.4,14.1-9.75,28.84-18.66,42.27-29.25,10.5-8.28,17.31-19.86,21.16-32.98,2.42-8.24-1.74-17.64-8.62-24.04Zm466.64-238.8c-29.56,8.04-58.21,18.57-85.79,31.89-31.39,15.17-61.89,31.92-90.19,52.41-6.32,4.58-12.14,9.85-18.25,14.71-1.9,1.51-3.6,1.74-6.31.48-9.34-4.32-19.11-5.72-29.21-2.08-2.91,1.05-6.12,1.3-9.45,1.3,49.7-59.95,113.88-100.04,181.96-135.2-3,1-6.02,1.96-9.01,3-3.05,1.06-6.13,2.05-9.09,3.3-46.24,19.5-86.8,47.84-124.11,80.92-16.76,14.87-32.24,31.18-48.4,46.73-1.34,1.29-3.36,2.37-5.18,2.6-25.76,3.33-50.53,10.3-74.56,20.01-.43.18-.94.18-3.08.57,4.66-5.35,8.21-9.88,12.23-13.96,13.48-13.68,26.95-27.36,40.73-40.73,20.36-19.74,40.57-39.66,61.59-58.68,23.08-20.88,49.9-36.26,77.51-50.43,38.83-19.93,80.55-29.24,123.35-34.82,5.04-.66,10.18-.48,15.28-.69,15,1.56,29.53,4.57,42.43,13.07,8.02,5.28,9.55,10.1,5.68,18.95-9.68,22.12-25.92,37.44-48.11,46.63Zm34.47-15.12c-.34,3-.56,5-.83,7.37-3.73.49-6.87.9-10.99,1.43,4.08-3.04,7.42-5.53,11.81-8.8Zm8.76-9.6c5.13-6.5,8.84-14.4,11.91-22.19,3.46-8.76.05-16.43-7.18-22.03-2.68-2.08-3.82-4.04-3.02-7.21,4.06-15.92,8.09-31.84,12.23-47.75.26-1.02,1.14-2.5,1.96-2.66,10.74-2.16,21.51-4.11,32.27-6.12-6.42,40.39-12.74,80.2-19.08,120.06-11.97,1.43-22.54,2.69-33.37,3.98-.24-5.94.17-10.87,4.29-16.09Zm82.29,12.11c0-1.4-.08-2.38.01-3.35,2.68-29.45,5.63-58.87,7.99-88.35,2.39-29.92,9.64-58.62,21.13-86.19,8.14-19.54,17.31-38.65,26.23-58.42-16.32,19.71-27.54,41.76-35.59,64.63-3.35-4.87-6.17-10.68-10.54-14.87-4.42-4.22-10.39-6.83-16.42-10.62,3-5.7,6.08-12.06,9.61-18.16,9.71-16.74,19.04-33.75,33.23-47.39,18.5-17.78,40.4-27.72,66.05-29.27.76-.05,1.54.15,1.79.17-10.12,14.38-20.26,28.32-29.88,42.61-6.43,9.55-12.95,19.19-17.99,29.49-8.4,17.19-12.39,35.89-15.51,54.68-5.89,35.53-11.67,71.07-17.22,106.65-2.48,15.94-4.23,31.99-6.45,47.97-.48,3.49-1.55,6.91-2.35,10.4h-14.12Zm-10.69-201.61c-1.24,2.87-2.58,3.19-5.4,2.53-10.24-2.4-20.55-4.48-31.68-6.86,3.62-3.65,6.92-7.68,10.89-10.87,13.63-10.93,27.32-21.8,41.37-32.16,4.08-3.01,9.46-4.24,14.25-6.29-11.48,17.47-21.41,35.03-29.42,53.65Zm-53.17-6.13c4.45-1.67,8.9-3.33,13.92-5.22-2.69,8.07-6.48,7.79-13.92,5.22Zm-7.81-.58c-1.14,1.61-3.81,2.76-5.94,2.94-4.73.4-9.52.04-14.28.07-11.21.09-22.43.23-33.64.36v1.02c-11.15,2.1-22.31,4.2-33.46,6.32-17.5,3.31-34.9,7.27-52.5,9.82-45,6.51-89.02,16.76-131.76,32.37-9.69,3.54-19.51,6.72-29.82,10.25-3.37-13.74-14.17-18.41-27.28-22.16,5.2-2.2,9.07-3.92,13.01-5.48,4.1-1.63,8.23-3.17,12.39-4.63,42.82-15.06,86.68-26.38,131.07-35.64,22.09-4.61,44.18-9.56,66.52-12.43,17.07-2.2,34.54-1.38,51.83-1.91,16.44-.16,32.57,1.34,47.32,9.5,1.73.96,3.36,2.43,4.47,4.06,1.14,1.66,2.73,4.61,2.07,5.54Zm-434.27,22.11c12.94,6.43,14.6,22.22,3.89,33.5-11.89,12.52-26.58,21.02-42.15,28.04-21.64,9.76-43.44,19.16-64.96,29.16-7.2,3.34-13.91,7.83-20.58,12.2-8.43,5.52-18.32,6.86-27.43,10.35-13.76,5.27-27.14,11.59-40.53,17.79-5.68,2.63-11.15,4.05-17.63,4.57-15.34,1.23-30.63,3.93-45.7,7.2-10.86,2.36-21.3,6.6-31.93,9.99-.37-.36-.74-.73-1.11-1.1,1.63-1.25,3.38-2.37,4.87-3.76,30.15-27.94,63.92-50.61,100.9-68.36,28.75-13.8,57.87-26.84,86.82-40.23.9-.42,1.76-.9,2.28-2.33-8.57,2.99-17.31,5.56-25.67,9.06-19.55,8.19-39.27,16.12-58.28,25.45-41.69,20.46-79.93,46.21-114.38,77.45-6.64,6.02-13.22,11.77-21.86,15.36-8.02,3.33-15,9.11-22.6,13.53-7.88,4.58-15.82,9.09-23.97,13.15-12.75,6.35-25.7,12.31-38.56,18.42-1.16.55-2.33,1.08-3.36,1.55,2.57-9.08,4.64-17.83,7.62-26.26,1.36-3.84,4.12-7.39,6.92-10.47,24.56-27.1,50.35-52.92,78.95-75.85,35.44-28.42,74.74-49.8,116.95-66.35,29.37-11.51,59.38-20.87,90.47-25.53,28.52-4.27,57.41-6.21,86.17-8.75,4.9-.43,10.58.08,14.88,2.22Zm-359.44,195.22c-6.93,7.89-14.59,15.26-20.64,23.77-14.55,20.47-28.32,41.48-42.47,62.23-1.11,1.63-2.48,3.27-4.1,4.34-7.37,4.85-14.86,9.5-22.34,14.18-.94.59-2.02.97-3.04,1.46-.36-.34-.72-.68-1.07-1.02,11.86-15.18,23.73-30.36,35.59-45.54-.19-.2-.37-.4-.56-.6-3.64,3.3-7.38,6.51-10.91,9.93-3.54,3.42-7.14,6.84-10.24,10.64-7.39,9.07-14.49,18.38-21.74,27.56-.59.75-1.35,1.59-2.2,1.86-10.78,3.4-21.59,6.69-33.53,10.37,33.49-54.86,80.34-92.81,137.24-119.19Zm-168.84,312.88c19.75-19.36,39.59-38.69,60.2-57.12,21.77-19.47,47.18-33.57,72.93-47.21,36.6-19.39,76.13-28.67,116.47-35.03,21.99-3.47,43.83-2.01,63.81,9.63,2.34,1.36,4.6,2.9,6.69,4.61,3.41,2.81,4.83,6.29,3.58,10.85-4.27,15.54-13.97,27.27-25.74,37.69-11.69,10.34-25.85,15.37-40.52,19.39-27.3,7.49-53.4,18.22-78.34,31.33-24.47,12.86-48.18,27.21-71.9,41.44-7.36,4.42-13.66,10.61-20.5,15.91-3.34,2.59-6.83,4.99-10.21,7.44-13.89-8.76-27.67-5.44-41.68-2.5,49.85-60.13,114.15-100.25,182.7-134.64-.16-.38-.32-.76-.48-1.14-9.17,3.58-18.57,6.66-27.47,10.82-59.99,27.97-110.58,68.66-155.9,116.28-6.41,6.73-13.14,10.57-22.53,11.75-20.62,2.59-40.37,9.01-59.81,16.29-2.03.76-4.08,1.49-6.91,1.58,1.13-1.46,2.12-3.06,3.41-4.37,17.35-17.71,34.49-35.65,52.2-53Zm318.04,148.19c7.29-.31,14.93,1.08,21.99,3.15,12.11,3.54,18.21,13.87,17,27.41-13.7,2.18-27.54,4.66-41.46,6.55-22.1,2.99-41.75,12.52-61.65,21.72-10.55,4.88-21.94,7.93-32.86,12.04-44.84,16.84-87.44,38.12-127.26,64.84-.42.28-.95.47-1.28.83-7.59,8.33-17.41,6.55-27.15,6.6-18.01.1-33.28,8.41-47.98,17.85-2.7,1.73-5.3,3.61-7.99,5.44-2.67-6.47-1.92-9.23,2.75-13.22,22.26-19.03,45.7-36.56,70.73-51.65,28.29-17.05,56.21-35.05,88.06-45.36,5.59-1.81,10.68-5.14,16.05-7.66,7.35-3.46,14.81-6.67,22.1-10.25,9.58-4.7,19.08-9.59,28.55-14.51,25.27-13.13,51.71-22.53,80.39-23.77Zm-325.85,151.57c4.71.84,7.66,4.24,8.45,9.09,1.09,6.73-.95,9.13-7.64,9.46-24.57,1.23-49.14,2.5-73.71,3.75-.1-.17-.2-.35-.29-.52,12.92-5.44,25.76-11.08,38.79-16.22,6.59-2.6,13.43-4.85,20.37-6.17,4.49-.86,9.44-.21,14.03.61Zm23.68,18.04c16.02-10.48,32.45-18.56,51.53-18.74,5.56-.05,11.22,2.22,16.71,3.85,7.86,2.33,10.63,9.08,12.51,16.06,1.11,4.14-2.56,4.85-5.36,4.64-24.85-1.8-49.69-3.8-75.39-5.81Zm725.54-198.57c13.21-9.44,26.42-18.87,39.62-28.31-.24-.37-.49-.74-.73-1.11-9.25,5.49-18.52,10.93-27.73,16.47-5.09,3.06-9.8,8.11-15.19,8.94-5.17.8-10.95-2.89-16.55-4.24-7.09-1.72-14.26-3.08-21.39-4.6-1.58-.34-3.14-.75-5.14-2.37,12.02-6.9,23.78-14.31,36.12-20.57,20.45-10.39,41.34-20.08,64.22-23.72,7.89-1.25,16.42-1.24,24.23.33,14.96,3,21.4,15.55,16.76,30.27-.91,2.9-2.12,5.76-3.56,8.43-4.61,8.56-4.82,7.56-14.32,7.41-11.8-.18-23.83.52-35.38,2.8-12.23,2.42-23.99,7.15-35.97,10.83-1.43.44-2.96.56-4.44.83-.19-.46-.37-.93-.56-1.39Zm211.23-30.02c6.84-12.16,12.94-23.03,19.08-33.89.58-1.03,1.4-1.92,2.05-2.91,7.29-11.15,16.53-18.73,30.25-21.88,11.42-2.62,22.08-8.53,33.07-12.99,2.63-1.07,5.25-2.15,7.88-3.23.32.33.63.65.95.98-23.26,22.13-37.3,49.82-48.38,79.94-13.89-5.93-28.31-6.87-44.89-6.01Zm241.85-106.92c-3.73-2.87-7.19-6.09-11.44-9.77,18.65-3.88,36.85-7.66,55.06-11.45.2.37.39.73.59,1.1-4.47,5.68-8.87,11.43-13.48,16.99-.67.81-2.36.92-3.62,1.09-7.54,1.03-15.09,2.06-22.65,2.9-1.46.16-3.37-.03-4.46-.86Zm39.16-1.77c1.35-2.4,2.31-4.44,3.57-6.27,1.34-1.95,3.21-3.55,4.42-5.56,4.39-7.36,10.51-10.7,19.27-11.77,15.79-1.93,31.39-5.43,47.08-8.25,1.6-.29,3.22-.44,5.52-.74-11.92,17.82-23.38,34.95-35.15,52.54-11.75-13.14-28.33-15.14-44.71-19.95Zm-17.29-23.72c-31.76,6.44-63.26,14.18-94.73,21.96-15.63,3.86-30.93,9.08-46.39,13.69-1.6.48-3.2.95-6.24,1.85,5.97-16.77,4.27-31.51-6.52-45.73,88.26-29.02,178.79-41.78,269.26-55.27-4.18,0-8.36-.13-12.54.04-4.25.16-8.5.48-12.73.96-25.17,2.86-50.52,4.67-75.45,8.96-34.44,5.93-68.71,13.05-102.74,20.99-21.6,5.04-42.66,12.43-63.92,18.89-5.39,1.63-10.01,1.32-14.86-2.15-8.58-6.13-18.68-7.78-29.03-8.16-5.26-.19-10.55-.23-15.76-.89-1.78-.23-3.34-2.15-5-3.29,1.3-1.28,2.38-3.11,3.94-3.76,30.66-12.68,62.29-22.55,94.67-29.45,43.83-9.34,87.99-17.12,131.9-26.11,28.65-5.86,57.42-6.55,86.33-3.83,16.9,1.59,33.78,4.02,49.39,11.44,6.02,2.86,11.82,6.28,14.77,12.67,1.37,2.97,2.8,6.3,2.77,9.45-.07,9.28-2.99,18.22-9.33,24.72-4.22,4.33-10.69,7.59-16.68,8.87-16.09,3.42-32.48,5.43-48.72,8.17-30.82,5.2-61.77,9.79-92.4,15.99Zm-28.4-181.58c15.54-24.73,30.34-48.3,45.15-71.87-.28-.32-.56-.64-.83-.97-.97,1.38-1.88,2.81-2.93,4.12-1.06,1.33-2.27,2.53-3.39,3.81-15.57,17.87-28.84,37.35-40.05,58.19-2.52,4.69-5.28,6.13-10.69,5.54-12.62-1.38-25.35-1.82-39.29-2.72,6.22-10.47,11.87-20.28,17.81-29.91,20.45-33.16,48.17-59.5,78.35-83.57,13.86-11.06,28.72-20.23,46.42-23.17,8.77-1.45,17.91-1.72,26.79-1.16,10.15.63,12.57,3.97,14.07,14.09,3.35,22.7-3.44,42.47-18.07,59.49-10.18,11.85-21.99,22.3-32,34.28-14.03,16.8-27.07,34.42-40.51,51.71-1.34,1.72-2.55,3.53-3.71,5.15-6.43-16.05-18.56-23-37.11-23.01Zm34.21-119.67c-4.14,4.23-8.74,8.05-13.34,11.81-23.08,18.88-42.79,40.66-57.9,66.5-6.85,11.72-13.95,23.31-21.08,34.86-.73,1.19-2.44,2.35-3.79,2.47-3.86.33-7.77.12-12.88.12,13.4-27.06,24.9-53.77,44.79-75.9-1.76,1.32-3.62,2.53-5.28,3.97-18.12,15.71-29.7,36.02-40.14,57.13-.3.61-.61,1.23-.79,1.88-3.01,10.68-9.74,15.26-20.89,13.1-2.6-.5-5.39-.07-9.21-.07,4.52-10.77,8.79-21.04,13.15-31.26,9.83-23.04,26.19-40.62,46.12-55.25,2.85-2.09,5.71-4.48,7.71-7.33,8.8-12.55,21.96-20.42,32.69-30.9,9.82-9.6,24.04-10.63,35.92-3.73,2.53,1.47,4.88,3.96,6.21,6.54.76,1.48-.02,4.77-1.3,6.08Zm-85.31,28.07c-23.19,12.49-36.18,33.33-47.1,55.88-4.5,9.28-7.92,19.1-11.62,28.76-1.12,2.91-2.59,4.07-5.85,4.24-11.17.57-22.32,1.59-34.69,2.53,6.18-10.65,9.29-21.99,19.3-29.38,15.53-11.46,26.76-25.89,29.53-45.75.3-2.16,1.91-4.14,1.98-7.04-.59,1.38-1.19,2.75-1.78,4.13-4.19-13.43-14.9-16.46-25.86-19.92,9.02-9.58,18.93-17.54,30.52-23.43,16.56-8.42,34.06-11.35,52.38-9.05,10.64,1.34,14.2,8,10.04,17.87-3.64,8.63-8.57,16.7-16.84,21.15Zm48.38-325.75c-12.04,4.61-22.84,11.1-33.15,18.64-1.89,1.38-4.05,2.4-6.09,3.59-.43-.37-.87-.73-1.3-1.1,4.85-6.07,9.21-12.62,14.63-18.13,16.53-16.81,33.46-33.22,50.04-50.25-1.41.95-2.96,1.74-4.21,2.86-17.19,15.35-34.52,30.55-51.39,46.24-5.17,4.8-8.87,11.15-13.62,16.45-1.85,2.06-4.55,4.03-7.18,4.6-9.06,1.97-18.27,3.3-27.78,4.94,1.08-2.16,2.07-4.97,3.72-7.32,13.04-18.62,25.57-37.64,39.48-55.59,18.14-23.42,41.72-39.93,69.19-51.25,24.22-9.98,48.5-19.5,74.54-23.61,5.67-.9,11.35-1.75,17.03-2.63.02.3.04.59.06.89-11.62,7.89-23.35,15.63-34.83,23.71-22.79,16.04-42.81,35-59.64,57.28-5.52,7.31-10.78,14.88-16.89,21.67-3.4,3.77-7.91,7.22-12.6,9.02Zm-51.51-25.56c-12.13,16.78-23.41,34.18-34.69,51.55-3.13,4.82-6.6,8.51-11.74,11.36-8.05,4.48-15.5,10.06-23.2,15.17-.24-.15-.49-.29-.73-.44,12.67-16.19,25.33-32.38,38-48.57-.19-.22-.38-.44-.57-.65-4.45,4.16-9.09,8.14-13.33,12.52-12.07,12.45-23.64,25.33-32.4,40.43-2.6,4.48-6.55,6.59-11.17,8.86-9.2,4.52-17.68,10.5-26.4,15.97-2.37,1.49-4.52,3.32-7.01,4.68,32.26-65.6,83.62-110.97,149.57-142.32-9.26,10.94-18.55,20.64-26.34,31.43Zm-73.26,30.71c-24.16,23.27-42.05,50.98-57.29,80.61-1.86,3.61-4.03,7.11-6.45,10.36-3.4,4.56-6.61,9.3-13.79,8.4-2.75-.35-5.76,1.74-8.71,2.44-1.43.34-3.02.06-4.53.06.46-1.47.54-3.26,1.44-4.35,7.91-9.55,16.04-18.92,23.95-28.47,3.08-3.72,5.77-7.78,8.64-11.69-.46-.33-.92-.66-1.38-.99-12.01,12.92-24.03,25.84-35.69,38.39-8.13-3.87-16.43-7.81-24.72-11.76,14.55-29.57,101.63-86.93,126.25-90.28-2.99,2.81-5.39,5.02-7.73,7.28Zm-130.51,81.97c-7.02-.95-14.17-1.03-21.26-1.47v-6.13c3.41-2.79,7.23-5.21,10.15-8.44,8.94-9.88,20.7-13.63,33.13-16.2,4.93-1.02,9.83-2.21,15.16-3.42-5.35,5.58-10.32,10.6-15.11,15.8-5.06,5.49-10.07,11.04-14.85,16.77-2.01,2.41-3.75,3.55-7.22,3.08Zm36.31-45.41c-4.48.39-8.88,1.75-13.7,2.76,35.09-25.78,69.73-51.24,104.37-76.7.32.42.63.84.95,1.26-7.34,5.87-14.68,11.74-22.01,17.62-16.69,13.38-34.3,25.96-47.29,43.1-6.12,8.08-13.07,11.16-22.33,11.97Zm59.21-58.86c-8.01,5.92-16.89,10.65-25.01,16.43-9.53,6.79-18.7,14.08-27.94,21.27-21.3,16.56-42.55,33.19-63.83,49.79-1.55,1.32-3.29,2.47-4.62,3.98-7.33,8.37-16.28,12.3-27.61,12.23-8.75-.06-17.52,1.61-26.06,2.49,7-3.41,14.6-6.33,21.31-10.64,4.98-3.2,9.83-7.57,12.9-12.55,5.31-8.61,2.58-16.36-7.81-26.26,10.69-8.18,21.3-16.3,31.9-24.41,29.44-21.24,58.88-42.48,88.32-63.72-1.38-.14-2.41.29-3.35.87-18.73,11.6-37.54,23.07-56.13,34.9-9.83,6.26-19.25,13.16-28.85,19.77v1.02c-10.51,7.98-21.03,15.96-31.54,23.95-1.88,1.43-3.7,2.93-5.55,2.93-8.11-1.13-16.19-2.42-24.33-3.33-6.36-.71-12.78-.95-20.68-1.51,6.42-5.19,11.76-9.69,17.28-13.95,20.41-15.74,40.87-31.4,61.34-47.06,1.03-.79,2.31-1.27,3.47-1.89v-1.02c10.94-6.46,21.62-13.39,32.86-19.27,21.69-11.35,43.96-21.52,68.26-25.92,6.76-1.22,13.96-1.37,20.78-.54,17.59,2.15,25.45,16.04,19.47,33.3-4.45,12.84-14.16,21.42-24.59,29.12Zm-116.78-25.89c-15.91,10.19-30.29,22.22-44.29,34.91-8.22,7.45-18.24,12.88-27.26,19.48-6.99,5.11-13.64,10.67-20.53,15.92-1.26.96-2.92,1.92-4.41,1.93-14.43.14-28.86.09-43.28.09-.14-.54-.28-1.08-.42-1.62,4.59-3.8,9.17-7.63,13.79-11.39,20.59-16.76,39.69-35.07,56.99-55.23,2.54-2.96,5.01-6.05,6.99-9.38,6.29-10.59,15.53-17.75,26.06-23.66,11.46-6.43,23.24-11.93,36.37-13.95,9.78-2.18,18.85.37,27.66,4.32,7.09,3.17,8.28,10.23,10.98,17.38-12.89,7.07-25.76,14.13-38.63,21.2Zm-73.58-3.39c-22.45,26.34-48.14,49.22-75.29,70.59-4.14,3.26-8.1,4.53-13.2,4.87-18.14,1.19-36.24,2.92-54.36,4.41-1.5.12-3.02.02-6.14.02,21.69-18.03,42.21-35.1,62.74-52.17-.17-.25-.34-.51-.52-.76-4.1,2.74-8.2,5.48-12.3,8.22,7-12.74,16.75-24.41,10.25-41.15,3.58-1.83,7.39-3.86,11.27-5.74,22.28-10.84,44.51-21.87,68.64-28.09,4.71-1.21,10.22-.86,15.05.19,7.83,1.71,10.75,7.81,8.71,15.57-2.51,9.53-8.68,16.81-14.84,24.05Zm-107.66-9.92c11.37,2.88,15.79,12.17,11.85,23.28-5.23,14.72-15.31,25.52-27.61,34.47-19.42,14.13-40.45,25.29-62.21,35.56-14.91,7.04-30.36,10.32-46,13.97-38.19,8.89-74.73,22.47-109.8,39.86-19.47,9.65-38.5,20.21-57.62,30.56-4.76,2.57-9.27,5.69-13.62,8.92-7.86,5.84-17.07,7.13-26.32,8.67-18.91,3.14-36.57,10.22-54.14,17.53-3.39,1.41-6.86,2.62-9.67,3.68,7.03-7.44,13.66-15.89,21.72-22.62,8.67-7.24,18.74-12.78,28.08-19.22,35.61-24.53,73.39-45.28,112.3-63.99,30.43-14.63,60.6-29.97,91.78-42.85,24.85-10.27,51.04-17.33,76.66-25.71,4.49-1.47,9.13-2.44,13.61-4.42-5.31.82-10.66,1.44-15.92,2.5-37.26,7.54-73.21,19.26-107.35,35.91-33.58,16.38-66.86,33.39-99.83,50.97-22.14,11.81-43.56,24.99-65.19,37.76-6.19,3.65-11.98,7.98-17.95,11.99,12.11-20.35,20.2-40.99,10.7-64.93,21.6-17.44,44.42-33.33,68.59-47.29,38.28-22.11,78.51-39.84,121.42-50.49,23.51-5.84,47.59-10,71.66-12.71,23.08-2.6,46.49-2.51,69.76-3.27,5.02-.16,10.22.62,15.11,1.86Zm-361.69,109.68c8.25,1.69,12.24,8.18,13.04,16.31,1.53,15.46-3.23,29.71-12.04,41.74-9.89,13.51-21.56,25.76-33.03,38.02-5.76,6.16-12.4,11.72-19.38,16.46-6.52,4.43-13.79,7.98-21.13,10.96-33.97,13.8-63.76,34.22-90.8,58.48-20.83,18.69-40.2,39.02-60.19,58.64-1.92,1.88-3.64,3.95-6.55,7.13.38-15.18-7.47-23.54-19.6-29.75,2.33-2.54,4.25-4.76,6.29-6.86,16.81-17.31,33.05-35.22,50.59-51.76,29.89-28.2,59.89-56.47,94.46-79,18.73-12.21,38.59-22.69,57.95-33.93,1.38-.8,2.84-1.48,4.26-2.21-.25-.53-.5-1.07-.74-1.6-13.2,6-26.64,11.53-39.55,18.1-26.52,13.5-49.57,32-71.72,51.64-32.92,29.19-66.05,58.17-95.33,91.17-1.24,1.4-2.42,2.85-3.64,4.26-4.79,5.53-8.69,12.29-17.54,12.01-1.25-.04-2.55.87-3.79,1.44-13.37,6.18-26.96,11.95-40.03,18.72-11.73,6.07-22.87,13.26-34.27,19.96-1.71,1.01-3.4,2.05-5.1,3.08-.24-.25-.49-.5-.73-.76,11.48-17.04,22.94-34.09,34.44-51.12,15.39-22.8,30.06-46.14,46.46-68.18,11.4-15.32,24.74-29.3,38.04-43.08,23.46-24.33,49.66-45.28,79.48-61.53,29.5-16.08,60.95-26.4,93.89-32.47,12.2-2.25,24.33-4.96,36.61-6.56,6.43-.84,13.29-.59,19.64.71Zm-152.25,29.01c-13.79,7.95-27.4,16.35-40.34,25.59-19.27,13.76-36.2,30.29-52.36,47.56-10.33,11.04-21.54,21.52-30.22,33.77-17.47,24.65-33.44,50.36-50.1,75.59-9.82,14.88-19.85,29.63-29.64,44.53-4.19,6.38-7.88,13.09-12.09,19.46-1.99,3.02-4.66,5.59-7.02,8.36-.38-.35-.76-.69-1.14-1.04,2.41-7.54,5-15.02,7.13-22.64.9-3.22,1.51-6.79,1.09-10.06-.98-7.64,1.24-14.35,4.33-21.11,14.8-32.39,29.29-64.91,44.2-97.25,12.68-27.48,29.47-52.51,49.27-75.2,17.06-19.55,35.89-37.54,53.94-56.22,1.03-1.07,2.05-2.16,3.07-3.24-13.74,7.4-25.41,17.16-36.2,28.01-23.45,23.58-44.9,48.9-61.11,77.96-10.64,19.07-19.07,39.39-28.05,59.35-8.9,19.78-17.23,39.8-25.83,59.71-1.28,2.95-2.63,5.87-4.1,9.17-10.29-18.56-27.74-15.14-44.86-14.87,3.11-8.61,5.93-16.9,9.08-25.06,15.88-41.09,35.08-80.63,56.7-118.96,30.63-54.31,72.77-96.27,131.69-119.45,10.22-4.02,20.74-7.5,31.4-10.13,10.29-2.54,20.65-.35,30.62,2.8,7.59,2.4,15.05,5.23,22.51,8.04,4.66,1.75,8.53,4.65,9.16,9.98,2.94,24.58-8.87,52.53-31.15,65.37Zm-54.17-85.61c-11.6,5.57-21.31,10.8-31.45,14.99-35.7,14.76-62.39,40.4-85.9,70.04-19.21,24.2-34.69,50.76-48.55,78.22-12.54,24.84-24.23,50.13-35.81,75.44-4.58,10-7.83,20.62-11.69,30.95-1.07,2.87-2,5.94-7.32,5.23.9-6.77,1.69-13.45,2.7-20.08,3.38-22.16,6.63-44.34,10.32-66.45,6.09-36.5,15.88-71.88,32.19-105.31,15.38-31.53,37.95-56.06,68.93-72.7,12.38-6.65,24.37-14.29,37.3-19.6,18.11-7.44,36.95-6.9,55.21.43,4.67,1.87,8.67,5.4,14.07,8.86Zm-86.23-8.79c-9.45,6.82-19.57,12.96-30.07,18.02-21.81,10.51-37.45,27.45-50.42,47.04-19.5,29.42-30.15,62.58-38.63,96.48-9.95,39.8-15.65,80.34-20.77,120.98-.17,1.32-.94,3.11-1.98,3.69-9.87,5.54-19.86,10.87-30.24,16.49-5.08-12.32-15.79-15.58-28.28-14.97,5.21-21.69,10.51-42.93,15.4-64.25,9.68-42.13,22.94-83.07,40.05-122.77,9.06-21.03,24-37.62,39.79-53.73,9.61-9.81,18.77-20.04,27.98-30.23-1.68,1.33-3.36,2.67-4.99,4.05-13.76,11.6-27.93,22.77-40.95,35.15-15.23,14.49-25.27,32.74-33.22,52.05-16.01,38.89-27.51,79.16-36.61,120.18-4.3,19.39-9.41,38.59-14.34,57.83-.43,1.67-1.93,3.92-3.38,4.32-9.43,2.63-16.13,9.17-23.15,15.32-1.87,1.64-3.91,3.08-5.39,4.23-2.04-4.13-2.94-9.35-5.96-11.3-4.75-3.07-10.83-4.3-16.52-5.59-3.37-.76-7.05-.14-11.25-.14,4.59-19.67,8.7-38.57,13.47-57.31,4.82-18.91,9.47-37.93,15.67-56.41,14.22-42.38,32.9-82.66,59.52-118.92,5.91-8.05,11.41-16.42,17.41-24.4,2-2.66,4.88-4.72,7.56-6.79,13.97-10.79,27.51-22.25,42.14-32.07,22.36-15,45.65-28.57,73.71-29.59,14.75-.53,28.71,3.07,41.55,10.26,9.8,5.49,10.94,15.84,1.89,22.36Zm-248.21,353.55c-18.12,15.71-29.7,36.02-40.14,57.13-.3.61-.61,1.23-.79,1.88-3.01,10.68-9.74,15.26-20.89,13.1-2.6-.5-5.39-.07-9.21-.07,4.52-10.77,8.79-21.04,13.15-31.26,9.83-23.04,26.19-40.62,46.12-55.25,2.85-2.09,5.71-4.48,7.71-7.33,8.8-12.55,21.96-20.42,32.69-30.9,9.82-9.6,24.04-10.63,35.92-3.73,2.53,1.47,4.88,3.96,6.21,6.54.76,1.48-.02,4.77-1.3,6.08-4.14,4.23-8.74,8.05-13.34,11.81-23.08,18.88-42.79,40.66-57.9,66.5-6.85,11.72-13.95,23.31-21.08,34.86-.73,1.19-2.44,2.35-3.79,2.47-3.86.33-7.77.12-12.88.12,13.4-27.06,24.9-53.77,44.79-75.9-1.76,1.32-3.62,2.53-5.28,3.97Zm52.46-385.88c-17.19,15.35-34.52,30.55-51.39,46.24-5.17,4.8-8.87,11.15-13.62,16.45-1.85,2.06-4.55,4.03-7.18,4.6-9.06,1.97-18.26,3.3-27.78,4.94,1.08-2.16,2.07-4.97,3.72-7.32,13.04-18.62,25.57-37.64,39.48-55.59,18.14-23.42,41.72-39.93,69.19-51.25,24.22-9.98,48.5-19.5,74.54-23.61,5.67-.9,11.35-1.75,17.03-2.63.02.3.04.59.06.89-11.62,7.89-23.35,15.63-34.83,23.71-22.79,16.04-42.81,35-59.64,57.28-5.52,7.31-10.78,14.88-16.89,21.67-3.4,3.77-7.91,7.22-12.6,9.02-12.03,4.61-22.84,11.1-33.15,18.64-1.89,1.38-4.05,2.4-6.09,3.59-.43-.37-.87-.73-1.3-1.1,4.85-6.07,9.21-12.62,14.63-18.13,16.53-16.81,33.46-33.22,50.04-50.25-1.41.95-2.96,1.74-4.21,2.86Zm-30.49,56.27c11.71-4.42,22.95-10.12,34.74-14.3,5.08-1.8,11.05-1.75,16.57-1.49,5.82.28,8.14,3.54,8.59,9.4.59,7.62-3.08,13.54-7.86,18.72-17.85,19.36-32.78,40.74-44.89,64.09-16.88,32.54-29.15,66.88-38.87,102.13-7.89,28.63-15.45,57.35-22.56,86.18-1.88,7.64-8.06,3.29-10.99,6.9-.28-.36-.55-.73-.83-1.1,1.48-13.13,2.96-26.25,4.43-39.38,2.26-20.28,4.47-40.56,6.78-60.83,3.59-31.51,13.46-60.89,30.01-87.99,6.64-10.86,13.21-21.77,19.78-32.68,1.3-2.15,2.46-4.38,3.69-6.58-13.89,14.9-25.33,31.66-35.01,49.7-14.92,27.81-20.7,58.03-24.2,88.9-3.3,29.05-6.53,58.11-9.94,87.15-.19,1.62-1.47,4.01-2.8,4.47-13.78,4.86-24.68,14.12-35.91,22.92-2.78,2.18-5.68,4.23-9.52,7.08,1.44-7.09,2.99-13.02,3.8-19.05,2.43-18.19,4.02-36.51,6.95-54.62,3.49-21.62,7.88-43.11,12.15-64.6,3.37-16.97,6.84-33.93,10.85-50.76,4.05-16.99,11.78-32.3,21.72-46.77,10.86-15.79,19.86-32.83,33.6-46.6,8.74-8.76,17.9-16.45,29.7-20.9Zm221.22-151.97c-4.53,3.58-9.08,7.15-13.59,10.76-28.74,22.99-54.09,49.33-73.82,80.33-7.6,11.94-15.36,21.57-28.05,28.58-12.63,6.98-23.37,17.37-34.96,26.26-1.71,1.31-3.47,2.54-5.3,3.89-2.1-7.68-.99-13.91,4.43-19.77,15.44-16.7,30.36-33.88,45.7-50.68,9.47-10.37,19.34-20.38,28.57-31-31.81,24.55-58.94,53.67-82.09,84.59-6.81-.93-12.07-2.18-17.35-2.23-5.17-.05-10.35,1.12-16.2,1.83.75-1.56,1.14-2.81,1.88-3.82,21.06-28.9,45.12-54.73,74.96-74.92,15.17-10.26,29.46-21.92,46.27-29.49,17-7.66,34.19-14.95,51.53-21.84,5.41-2.15,11.55-2.47,17.36-3.62.22.38.45.77.67,1.15Zm-235.83,83.11c-9.26,10.94-18.55,20.64-26.34,31.43-12.13,16.78-23.41,34.18-34.69,51.55-3.13,4.82-6.6,8.51-11.74,11.36-8.06,4.48-15.5,10.06-23.2,15.17-.24-.15-.49-.29-.73-.44,12.67-16.19,25.33-32.38,38-48.57-.19-.22-.38-.44-.57-.65-4.45,4.16-9.09,8.14-13.33,12.52-12.07,12.45-23.64,25.33-32.4,40.43-2.59,4.48-6.55,6.59-11.17,8.86-9.19,4.52-17.68,10.5-26.4,15.97-2.37,1.49-4.52,3.32-7.01,4.68,32.26-65.6,83.62-110.97,149.57-142.32ZM27.48,389.58c4.45-1.67,8.9-3.33,13.92-5.22-2.69,8.07-6.48,7.79-13.92,5.22Zm47.77,8.66c-10.24-2.4-20.55-4.48-31.68-6.86,3.62-3.65,6.92-7.68,10.89-10.87,13.63-10.93,27.32-21.8,41.37-32.16,4.08-3.01,9.46-4.24,14.25-6.29-11.48,17.47-21.41,35.03-29.42,53.65-1.24,2.87-2.58,3.19-5.4,2.53Zm45.22,21.19c8.14-19.54,17.31-38.65,26.23-58.42-16.32,19.71-27.53,41.76-35.59,64.63-3.35-4.87-6.17-10.68-10.54-14.87-4.42-4.22-10.39-6.83-16.42-10.62,3-5.7,6.08-12.06,9.61-18.16,9.71-16.74,19.04-33.75,33.23-47.39,18.5-17.78,40.4-27.72,66.06-29.27.76-.05,1.54.15,1.79.17-10.12,14.38-20.26,28.32-29.88,42.61-6.43,9.55-12.95,19.19-17.99,29.49-8.4,17.19-12.39,35.89-15.51,54.68-5.89,35.53-11.67,71.07-17.22,106.65-2.48,15.94-4.23,31.99-6.45,47.97-.48,3.49-1.55,6.91-2.35,10.4h-14.12c0-1.4-.08-2.38.01-3.35,2.68-29.45,5.63-58.87,7.99-88.35,2.39-29.92,9.64-58.62,21.13-86.19Zm-53.83,56.28c4.86-1.46,9.82-2.65,14.78-3.79,6.1-1.41,10.78-4.65,14.25-9.9,1.85-2.8,4.21-5.26,7.01-8.69-1.85,9.78-4.05,18.45-5.03,27.25-2.07,18.57-3.51,37.21-5.2,55.82-1.7,18.79-3.4,37.58-5.1,56.36-.22,2.39-.77,3.99-3.94,3.95-12.4-.13-24.8.07-37.2.13-.82,0-1.63-.12-3.02-.23,1.62-8.41,3.43-16.46,4.7-24.61,3.07-19.79,5.72-39.65,8.88-59.42,1.82-11.39,4.21-22.7,6.58-33.99.25-1.17,2-2.49,3.31-2.89Zm-57.59,109.5c5.13-6.5,8.83-14.4,11.91-22.19,3.46-8.76.05-16.43-7.18-22.03-2.68-2.08-3.82-4.04-3.02-7.21,4.06-15.92,8.09-31.84,12.23-47.75.26-1.02,1.14-2.5,1.96-2.66,10.74-2.16,21.51-4.11,32.27-6.12-6.42,40.39-12.74,80.2-19.08,120.06-11.97,1.43-22.54,2.69-33.37,3.98-.24-5.94.17-10.87,4.29-16.09Zm104.97,79.66c15.53-11.46,26.76-25.89,29.53-45.75.3-2.16,1.91-4.14,1.98-7.04-.59,1.38-1.19,2.75-1.78,4.13-4.19-13.43-14.9-16.46-25.86-19.92,9.03-9.58,18.93-17.54,30.52-23.43,16.56-8.42,34.06-11.35,52.38-9.05,10.64,1.34,14.2,8,10.03,17.87-3.64,8.63-8.57,16.7-16.84,21.15-23.19,12.49-36.18,33.33-47.1,55.88-4.5,9.28-7.92,19.1-11.62,28.76-1.12,2.91-2.59,4.07-5.85,4.24-11.17.57-22.32,1.59-34.69,2.53,6.18-10.65,9.29-21.99,19.3-29.38Zm-54.15,34.3c12.72-7.54,24.35-14.44,36.81-21.83-2.73,5.98-5.15,11.38-7.71,16.72-.3.62-1.32,1.15-2.08,1.26-8.71,1.3-17.43,2.5-27.02,3.86Zm185.22-4.74c15.54-24.73,30.34-48.3,45.15-71.87-.28-.32-.55-.64-.83-.97-.97,1.38-1.88,2.81-2.93,4.12-1.06,1.33-2.27,2.53-3.39,3.81-15.57,17.87-28.84,37.35-40.05,58.19-2.52,4.69-5.28,6.13-10.69,5.54-12.62-1.38-25.35-1.82-39.29-2.72,6.22-10.47,11.87-20.28,17.81-29.91,20.45-33.16,48.17-59.5,78.35-83.57,13.86-11.06,28.72-20.23,46.42-23.17,8.77-1.45,17.91-1.72,26.79-1.16,10.15.63,12.57,3.97,14.07,14.09,3.35,22.7-3.44,42.47-18.07,59.49-10.18,11.85-21.99,22.3-32,34.28-14.03,16.8-27.07,34.42-40.51,51.71-1.34,1.72-2.55,3.53-3.72,5.15-6.43-16.05-18.56-23-37.11-23.01Zm-6.7,57.03c5.74-2.47,11.6-4.68,17.17-7.49,5.83-2.93,11.37-6.44,17.5-9.96-.17,9.22-4.03,15.09-11.82,16.68-7.27,1.49-14.77,1.89-22.16,2.76-.23-.67-.46-1.33-.69-2Zm227.04-137.61c-.33-.45-.67-.9-1-1.35-1.1.39-2.26.66-3.29,1.18-17.49,8.82-32.77,20.79-46.16,34.84-19.44,20.39-38.74,40.99-56.79,62.6-9.89,11.85-17.1,25.94-25.75,39.39-15.7-3.28-32.48-3.55-49.32-2.86-1.86.08-3.76-.82-5.64-1.26.52-2.06.52-4.47,1.63-6.12,6.34-9.4,12.94-18.63,19.47-27.9,16.94-24.06,35.06-47.13,56.02-67.9,16.6-16.45,34.88-30.63,54.07-43.98,22.86-15.91,47.91-27.61,72.56-40.06,5.52-2.79,12.79-2.58,19.29-2.82,5.59-.21,8.86,3.68,10.49,8.85,5.11,16.22,3.11,31.88-3.75,47.14-.9,2.01-1.88,3.99-2.83,5.99-3.1,6.49-6.98,12.04-13.29,16.21-5.45,3.6-9.75,8.92-14.66,13.37-9.8,8.88-19.88,17.45-29.46,26.55-13.16,12.51-23.1,27.57-32.8,42.78-1.83,2.86-3.52,5.81-5.38,8.66-.73,1.11-1.51,2.51-2.61,3-8.79,3.9-17.8,7.35-26.49,11.47-8.51,4.04-17.02,8.25-24.96,13.27-4.25,2.69-6.46.34-9.5-1.12,31.94-53.73,67.89-103.75,120.15-139.92ZM54.44,834.57c-2.94-10.11-10.9-14.63-20.13-17.64-1.57-.51-3.11-1.07-5.93-2.04,7.4-2.97,13.57-5.64,19.88-7.94,30.77-11.22,62.12-20.6,94.04-27.87,31.77-7.24,63.62-14.23,95.62-20.39,24.62-4.74,49.67-6.21,74.67-3.53,10.88,1.17,21.66,3.83,32.28,6.61,3.68.96,7,4.02,9.97,6.69,1.35,1.22,2.48,4.27,1.86,5.67-.65,1.48-3.46,2.61-5.42,2.78-4.39.38-8.84.2-13.25,0-21.55-.94-42.6,1.76-63.64,6.64-22.13,5.14-44.57,9.15-67.04,12.6-39.73,6.1-78.58,15.44-116.44,28.93-10.55,3.76-21.15,7.37-31.73,11.05-1.97.68-3.82,1.58-4.74-1.57Zm65.16,33.21c88.26-29.02,178.79-41.78,269.26-55.27-4.18,0-8.36-.13-12.54.04-4.25.16-8.5.48-12.73.96-25.17,2.86-50.52,4.67-75.45,8.96-34.44,5.93-68.71,13.05-102.74,20.99-21.6,5.04-42.66,12.43-63.92,18.89-5.39,1.63-10.01,1.32-14.86-2.15-8.58-6.13-18.68-7.78-29.03-8.16-5.26-.19-10.55-.23-15.76-.89-1.78-.23-3.34-2.15-5-3.29,1.3-1.28,2.38-3.11,3.94-3.76,30.66-12.68,62.29-22.55,94.68-29.45,43.83-9.34,87.99-17.12,131.9-26.11,28.64-5.86,57.42-6.55,86.33-3.83,16.9,1.59,33.78,4.02,49.39,11.44,6.02,2.86,11.82,6.28,14.77,12.67,1.37,2.97,2.8,6.3,2.77,9.45-.07,9.28-2.99,18.22-9.33,24.72-4.22,4.33-10.69,7.59-16.68,8.87-16.09,3.42-32.48,5.43-48.72,8.17-30.82,5.2-61.77,9.79-92.4,15.99-31.76,6.44-63.26,14.18-94.73,21.96-15.63,3.86-30.93,9.08-46.39,13.69-1.6.48-3.2.95-6.24,1.85,5.97-16.77,4.28-31.51-6.52-45.73ZM9.76,1008.43c6.84-12.16,12.94-23.03,19.08-33.89.58-1.03,1.4-1.92,2.05-2.91,7.29-11.15,16.53-18.73,30.25-21.88,11.42-2.62,22.08-8.53,33.07-12.99,2.63-1.07,5.25-2.15,7.88-3.23.32.33.63.65.95.98-23.26,22.13-37.3,49.82-48.38,79.94-13.89-5.93-28.31-6.87-44.89-6.01Zm49.55,7.57c3.63-8.19,7.11-16.63,11.08-24.83,8.03-16.58,17.81-32.01,30.42-45.6,13.93-15.02,30.8-24.34,50.69-29.34,23.84-5.99,47.37-13.25,71.03-19.94,7.52-2.12,18.63,2.96,22.41,10.49-9.92,4.73-19.83,9.48-29.76,14.19-19.55,9.28-38.44,19.58-54.06,34.95-25.96,25.55-48.08,54.02-65.38,86.11-2.39,4.43-4.75,7.5-10.39,6.5-2.25-.4-4.68.27-7.15.47q5.1-16.29-18.9-33Zm86.87,56.68c26.01-43.96,58.74-80.69,96.09-113.78-6.69,1.48-26.58,16.8-40.18,31.67-11.57,12.65-23.16,25.36-33.67,38.88-10.57,13.6-19.82,28.22-29.77,42.58-10.43-11.41-23.05-19.88-40.03-22.85,5.38-9.26,10.14-17.98,15.39-26.39,15.36-24.64,33.36-47.11,55.54-66.02,17.02-14.51,35.49-26.83,56.11-35.58,12.92-5.49,26.04-10.62,39.38-14.98,12.24-4.01,24.61-1.66,36.58,2.19,7.1,2.28,14.03,5.1,21.05,7.65,6.96,2.53,9.9,7.49,9.95,14.86.14,21.11-6.36,39.61-22.36,53.67-6.39,5.61-14.47,9.35-21.96,13.64-21.79,12.48-40.92,28.41-59.06,45.57-9.49,8.98-18.39,18.56-27.66,27.77-1.04,1.04-3.01,2.27-4.13,1.94-16.57-4.8-33.22-4.24-51.26-.82Zm75.01,63.27c7.38-7.29,12.36-16.14,15.21-26.15,2.54-8.9-.19-16.43-7.4-21.63-5.99-4.32-12.89-7.39-20-11.36,10.53-10.38,20.81-21.18,31.78-31.22,38.27-35.03,82.12-60.13,132.9-71.9,22.12-5.12,44.61-8.68,67-12.53,4.01-.69,8.52.1,12.54,1.18,8.39,2.25,12.39,8.43,13.08,16.87,1.27,15.64-3.5,29.98-12.49,42.14-9.65,13.04-20.56,25.35-32.21,36.66-13.6,13.21-28.81,23.97-47.19,30.98-26.3,10.02-49.54,26.14-71,44.33-8.1,6.87-16.07,10.2-26.86,9.96-13.36-.29-26.76,1.67-41.78,2.78,56.35-53.53,111.07-106.69,181.98-138.84-.26-.49-.51-.99-.77-1.48-9.62,4.01-19.41,7.65-28.82,12.09-29.28,13.82-55.1,32.84-79.02,54.41-25.59,23.08-50.77,46.61-75.92,70.16-3.8,3.56-7.47,5.85-12.81,6.01-4.64.14-9.26,1.36-15.11,2.29,6.34-5.5,11.9-9.84,16.89-14.76Zm55.07,109.22c1.19-.73,2.35-1.53,3.58-2.19,20.04-10.85,39.67-22.43,56.94-37.38,10-8.65,17.13-19.62,20.76-32.65.66-2.37,2.43-4.82,4.38-6.37,21.45-17.19,45.15-30.9,69.72-42.92,29.25-14.3,59.05-27.49,88.61-41.16,1.38-.64,2.75-1.3,4.12-1.95-59.77,18.47-115.24,45.65-165.59,82.99-.37-.4-.63-.6-.79-.87-2.38-4.05-3.79-9.61-7.31-11.86-7.98-5.08-16.83-8.38-27.02-6.55-5.87,1.06-12.09.19-18.58-.91,5.29-4.12,10.49-8.38,15.9-12.34,28.21-20.67,58.64-37.29,90.95-50.74,31.45-13.1,63.64-23.55,97.16-29.64,31.14-5.66,62.49-9.62,94.22-9.68,6.79-.01,13.34,1.24,18.34,6.17,7.78,7.67,6.67,19.6-3.21,27.68-19.51,15.94-40.04,30.53-63.65,39.84-30.47,12.02-58.41,28.74-86.78,44.79-25.66,14.52-47.54,33.82-70.14,52.29-2.48,2.03-5.14,3.83-7.55,5.61-3.94-2.09-7.37-4.34-11.11-5.81-8.23-3.23-16.64-3.34-24.85.14-19.68,8.35-39.34,16.71-58.92,25.28-6.31,2.76-12.34,6.16-19.14,8.23Zm263.6,50.94c-20.54-2.79-41.04-1.88-63.12-.03,19.45-13.92,37.59-26.9,55.73-39.88-.21-.34-.42-.68-.63-1.02-12.65,7.52-25.31,15.05-38.27,22.75,4.15-13.02,5.41-18.91-9.01-30.55,20.84-9.15,41.14-19.18,63.84-22.18,9.64-1.27,19.37-1.3,28.31,3.72,7.97,4.47,12.39,14.53,9.84,23.15-.48,1.63-2.07,3.01-3.35,4.3-12.17,12.28-24.31,24.59-36.66,36.69-1.68,1.64-4.61,3.32-6.69,3.04Zm60.68,15.46c-.77,1.06-2.44,1.72-3.82,2.02-4.27.93-8.59,1.64-12.91,2.33-1.52.25-3.08.22-4.63.31.56-1.63.73-3.6,1.76-4.84,5.53-6.67,11.39-13.07,16.93-19.75,5.12-6.18,9.97-12.58,14.93-18.88-.51-.43-1.03-.86-1.54-1.29-11.87,12.68-23.74,25.35-35.07,37.46-8.58-3.96-16.77-7.75-24.93-11.52,15.83-29.33,96.08-84.55,121.62-86.59-6.83,7.48-13.92,14.73-20.42,22.48-14.89,17.77-27.04,37.34-37.83,57.85-3.82,7.27-9.23,13.72-14.09,20.41Zm91-61.9c-7.03,3.27-12.92,8.97-19.9,13.21,13.17-16.85,26.35-33.71,39.52-50.56-.34-.33-.68-.65-1.02-.98-8.29,8.6-17.05,16.79-24.73,25.9-7.75,9.18-14.5,19.21-21.56,28.96-2.56,3.55-5.39,6.21-9.88,7.37-11.02,2.83-19.29,10.42-28.06,17.09-1.6,1.22-3.16,2.48-5.19,3.33,14.82-32.27,36.01-59.85,61.85-83.94,25.74-24,55.03-42.71,88.04-58.34-7.62,8.52-14.9,15.44-20.73,23.43-12.71,17.41-25.03,35.13-36.81,53.18-5.75,8.81-11.48,16.69-21.53,21.37Zm104.37-41c-13,5.27-25.08,11.99-36.12,20.63-1.14.89-2.58,1.38-3.88,2.06-.41-.34-.82-.69-1.22-1.03,2.55-3.77,4.6-8.02,7.73-11.22,15.52-15.94,31.32-31.61,47.05-47.35,2.49-2.5,5.12-4.86,7.08-8.02-6.16,4.82-12.48,9.45-18.46,14.48-18.25,15.32-35.87,31.27-49.58,51.04-.9,1.3-2.93,2.19-4.58,2.52-9.6,1.93-19.25,3.63-29.16,5.47,1.11-2.34,2.01-5.23,3.67-7.59,13.59-19.28,26.66-38.98,41.18-57.55,17.04-21.79,39.19-37.3,64.78-48.01,22.1-9.25,44.16-18.5,67.82-23.08,8.47-1.64,17.02-2.92,25.53-4.36.06.37.12.75.18,1.12-12.91,8.98-25.95,17.78-38.71,26.97-19.52,14.07-36.9,30.44-51.59,49.58-6.92,9.02-13.71,18.15-21.08,26.79-2.75,3.22-6.68,5.96-10.62,7.56Zm105.08-26.58c-14.15,10.23-28.55,20.1-42.8,30.19-2.75,1.94-5.25,4.22-8.16,6.58-2.11-6.98-2.26-12.89,3.09-18.65,19.75-21.27,39.15-42.86,58.73-64.28,5.9-6.46,11.96-12.76,17.95-19.14-32.9,24.49-60.05,54.28-84.81,86.84-10.09-7.43-20.93-3.29-32.97-1.97,18.46-24.75,36.94-47.29,60.26-65.97,55.31-44.33,112.36-66,133.32-66.98-8.35,6.85-16.39,13.25-24.23,19.89-25.16,21.36-46.47,46.17-65.08,73.34-2.28,3.33-3.34,7.54-5.76,10.73-2.68,3.53-5.94,6.83-9.53,9.42Zm23.85-12.54c-1.7.71-3.4,1.41-6.09,1.42,2.37-4.29,4.38-8.83,7.17-12.82,16.83-24.04,35.49-46.47,59.03-64.32,13.64-10.35,27.03-21.25,41.66-30.02,24.29-14.56,51.26-18.83,80.76-16.47-3.33,2.09-5.75,3.42-7.95,5.04-18.05,13.26-36.16,26.45-54.06,39.9-14.17,10.65-24.63,24.71-34.72,39.04-6.35,9.03-12.72,18.05-18.95,27.17-1.66,2.43-3.19,3.46-6.28,2.28-3.11-1.19-6.54-1.55-10.56-2.43,16.99-27.5,42.97-45.83,63.89-69.19-1.01.54-2.06,1-3.01,1.63-25.98,17.11-47.53,38.81-66.11,63.63-1.19,1.58-3.25,3.51-4.96,3.55-14.33.4-26.99,6.23-39.83,11.59Zm97.74,22.8c-.56-7.1-.96-13.98-6.49-18.31-5.09-3.99-11.09-6.84-17.39-10.61,2.5-4.02,5.62-8.94,8.62-13.92,17.68-29.3,41.91-52.31,69.04-72.69,15.5-11.65,30.65-23.9,48.83-31.09,21.08-8.34,43.23-12.92,65.66-15.8,5.6-.72,11.56.06,17.18,1.07,7.57,1.36,10.18,6.39,5.64,12.51-4.63,6.25-10.6,11.86-16.93,16.44-12.77,9.24-26.6,17.03-39.25,26.41-27.98,20.73-52.21,45.5-74.59,72.09-5.45,6.48-10.21,13.55-15.1,20.48-3.62,5.14-8.14,7.75-14.63,7.4-6.86-.37-13.76-.08-20.78-.08,3.43-5.58,7.31-11.64,10.94-17.84,14.94-25.49,36.08-45.31,58.37-64.11,10.74-9.06,21.23-18.4,31.84-27.61-23.21,14.37-44.44,30.94-63.62,50.1-19.25,19.23-32.24,42.97-47.34,65.58Zm118.12,7.44c1.06-2.1,1.66-4.07,2.87-5.53,17.2-20.8,34.13-41.84,51.84-62.19,18.56-21.33,40.6-38.5,65.76-51.56,10.84-5.63,21.62-11.38,32.43-17.08,7.93-4.12,15.86-8.25,23.8-12.37-.15-.32-.31-.64-.46-.96-7.78,3.08-15.55,6.17-23.33,9.25-18.9,9.6-38.12,18.62-56.61,28.94-20.1,11.22-36.32,27.44-51.16,44.77-17.89,20.89-34.95,42.5-52.49,63.69-1.09,1.32-3.16,2.22-4.91,2.53-7.66,1.34-15.38,2.43-23.08,3.52-1.01.14-2.54.18-3.09-.42-8.42-9.18-19.02-13.98-32.57-15.54,3.2-4.33,5.63-7.93,8.37-11.27,23.85-29.12,49.98-55.99,79.22-79.75,13.29-10.8,26.14-22.34,40.39-31.7,11.24-7.38,24.42-11.76,36.57-17.8,19.07-9.48,38.98-16.66,59.35-22.71,9.45-2.65,18.78-5.89,28.37-7.83,25.45-5.14,50.02-3.56,72.24,11.72,1.79,1.23,3.47,2.75,4.89,4.4,6.22,7.2,2.75,16.63-6.48,19.26-17.25,4.91-34.63,9.57-51.45,15.73-17.07,6.25-32.84,15.4-47.57,26.18-18.69,12.67-35.32,27.8-49.39,45.28-15.41,19.13-29.44,39.39-43.91,59.27-5.17,7.1-9.88,14.54-15.08,22.24-11.76-13.29-28.43-15.16-44.51-20.05Zm45.39,55.3c.78-9.24,1.53-18.48,2.4-27.72.17-1.78.4-3.77,1.31-5.23,23.57-37.87,49.26-74.13,81.83-104.95,6.86-6.49,14.62-12.03,21.96-18.01v-1.02c9.28-5.55,18.26-11.74,27.94-16.48,9.85-4.82,20.36-8.3,30.65-12.17,11.1-4.18,22.28-8.15,33.44-12.17,20.47-7.38,39.82-3.92,58.35,6.32,5.87,3.24,11.47,6.99,17.07,11.36-62.74,12.04-116.89,41.33-167.45,78.3-35.89,34.18-71.77,68.37-107.51,102.41,0,.36-.04-.14,0-.64Zm303.97-92.29c-20.7,6.92-41.16,14.82-61.08,23.75-18.68,8.37-36.79,18.16-54.66,28.19-18.65,10.46-37.04,21.47-52.9,36.1-.87.8-1.89,1.45-2.77,2.25-4.13,3.75-8.14,5.58-13.78,2.1-3.14-1.93-7.48-1.93-11.28-2.79-7.97,1.11-15.93,2.21-23.9,3.32-.32-.27-.64-.54-.96-.81,8.29-8.67,16.57-17.33,24.86-26v-1.02c.94-.65,1.96-1.22,2.81-1.97,9.64-8.55,18.94-17.53,28.94-25.63,35.09-28.42,73.36-51.92,113.6-72.28,4.23-2.14,8.41-4.39,13.31-6.95-1.31-.21-1.68-.39-1.96-.3-24.64,8.07-47.68,19.51-69.53,33.38-31.18,19.79-60.49,42.01-87.16,67.62-10.94,10.9-21.83,21.84-32.87,32.63-1.33,1.3-3.32,2.42-5.14,2.66-25.22,3.33-49.51,10.01-73.05,19.56-.89.36-1.87.49-3.52-.16,1.68-1.92,3.27-3.93,5.06-5.73,27.64-27.85,55.19-55.79,83.04-83.44,8.4-8.34,17.63-15.85,26.48-23.74v-1.02c7.31-5.47,14.53-11.05,21.94-16.38,21.16-15.25,44.18-27.27,67.6-38.58,24.69-11.92,51.14-18.19,77.79-23.36,15.27-2.96,30.92-4.7,46.47-5.22,16.01-.54,31.28,3.85,44.7,13.16,7.37,5.11,8.39,8.71,5.01,17.48-4.94,12.79-13.24,23.16-23.42,32.25-12.58,11.23-28.06,15.75-43.61,20.95Zm386.12,62.43c9.64-1.27,19.37-1.3,28.31,3.72,7.97,4.47,12.39,14.53,9.84,23.15-.48,1.63-2.07,3.01-3.35,4.3-12.17,12.28-24.31,24.59-36.66,36.69-1.68,1.64-4.6,3.32-6.69,3.04-20.54-2.79-41.04-1.88-63.12-.03,19.45-13.92,37.59-26.9,55.73-39.88-.21-.34-.42-.68-.63-1.02-12.65,7.52-25.31,15.05-38.27,22.75,4.15-13.02,5.41-18.91-9.01-30.55,20.84-9.15,41.14-19.18,63.84-22.18Zm-96.09-6.93c5.56-.05,11.22,2.22,16.71,3.85,7.86,2.33,10.63,9.08,12.51,16.06,1.11,4.14-2.56,4.85-5.36,4.64-24.85-1.8-49.69-3.8-75.39-5.81,16.02-10.48,32.45-18.56,51.53-18.74Zm-75.21.7c4.71.84,7.66,4.24,8.45,9.09,1.09,6.73-.95,9.13-7.64,9.46-24.57,1.23-49.14,2.5-73.71,3.75-.1-.17-.2-.35-.29-.52,12.92-5.44,25.76-11.08,38.79-16.22,6.59-2.6,13.43-4.85,20.37-6.17,4.49-.86,9.44-.21,14.03.61Zm131.95-168.37c31.14-5.66,62.49-9.62,94.22-9.68,6.79-.01,13.34,1.24,18.34,6.17,7.78,7.67,6.67,19.6-3.21,27.68-19.51,15.94-40.04,30.53-63.65,39.84-30.47,12.02-58.41,28.74-86.78,44.79-25.66,14.52-47.54,33.82-70.14,52.29-2.48,2.03-5.14,3.83-7.55,5.61-3.93-2.09-7.37-4.34-11.11-5.81-8.23-3.23-16.64-3.34-24.85.14-19.68,8.35-39.34,16.71-58.92,25.28-6.31,2.76-12.34,6.16-19.14,8.23,1.19-.73,2.35-1.53,3.58-2.19,20.04-10.85,39.67-22.43,56.93-37.38,10-8.65,17.13-19.62,20.76-32.65.66-2.37,2.43-4.82,4.38-6.37,21.45-17.19,45.15-30.9,69.72-42.92,29.25-14.3,59.05-27.49,88.61-41.16,1.38-.64,2.75-1.3,4.12-1.95-59.77,18.47-115.24,45.65-165.59,82.99-.37-.4-.63-.6-.79-.87-2.38-4.05-3.79-9.61-7.31-11.86-7.97-5.08-16.83-8.38-27.02-6.55-5.88,1.06-12.09.19-18.58-.91,5.29-4.12,10.49-8.38,15.9-12.34,28.21-20.67,58.65-37.29,90.95-50.74,31.45-13.1,63.64-23.55,97.16-29.64Zm-135.37-76.92c22.12-5.12,44.61-8.68,67-12.53,4.01-.69,8.52.1,12.54,1.18,8.39,2.25,12.39,8.43,13.08,16.87,1.27,15.64-3.5,29.98-12.49,42.14-9.65,13.04-20.56,25.35-32.21,36.66-13.6,13.21-28.81,23.97-47.19,30.98-26.3,10.02-49.54,26.14-71,44.33-8.1,6.87-16.07,10.2-26.86,9.96-13.36-.29-26.76,1.67-41.78,2.78,56.35-53.53,111.07-106.69,181.98-138.84-.26-.49-.51-.99-.77-1.48-9.62,4.01-19.41,7.65-28.82,12.09-29.28,13.82-55.1,32.84-79.02,54.41-25.59,23.08-50.76,46.61-75.92,70.16-3.8,3.56-7.47,5.85-12.81,6.01-4.65.14-9.26,1.36-15.11,2.29,6.34-5.5,11.9-9.84,16.89-14.76,7.38-7.29,12.36-16.14,15.21-26.15,2.54-8.9-.19-16.43-7.4-21.63-5.99-4.32-12.89-7.39-20-11.36,10.53-10.38,20.81-21.18,31.78-31.22,38.27-35.03,82.12-60.13,132.9-71.9Zm-63.43,10.88c-6.39,5.61-14.47,9.35-21.96,13.64-21.79,12.48-40.92,28.41-59.06,45.57-9.49,8.98-18.39,18.56-27.66,27.77-1.04,1.04-3.01,2.27-4.13,1.94-16.57-4.8-33.22-4.24-51.26-.82,26.01-43.96,58.73-80.69,96.09-113.78-6.69,1.48-26.58,16.8-40.18,31.67-11.57,12.65-23.16,25.36-33.67,38.88-10.57,13.6-19.82,28.22-29.77,42.58-10.43-11.41-23.05-19.88-40.03-22.85,5.38-9.26,10.14-17.98,15.38-26.39,15.36-24.64,33.36-47.11,55.54-66.02,17.02-14.51,35.49-26.83,56.11-35.58,12.92-5.49,26.04-10.62,39.38-14.98,12.24-4.01,24.61-1.66,36.58,2.19,7.1,2.28,14.03,5.1,21.05,7.65,6.96,2.53,9.9,7.49,9.95,14.86.14,21.11-6.36,39.61-22.36,53.67Zm267.74-227.79c9.19,3.91,18.09,8.51,27,13.04,2.32,1.18,4.2,3.24,6.78,5.29-11.44,2.9-22.08,5.65-32.76,8.28-24.94,6.14-48.04,16.63-70.22,29.36-14.12,8.1-29.26,14.76-42.29,24.32-18.98,13.92-37.21,29.07-54.42,45.13-24.94,23.27-48.68,47.83-72.94,71.83-.69.68-1.43,1.31-2.81,2.57.97-5.49,1.88-10.06,2.55-14.68.34-2.34.78-4.86.29-7.11-1.7-7.79,1.06-14.01,5.47-20.24,10.21-14.41,20.27-28.93,29.83-43.78,3.92-6.1,9.72-6.56,15.58-7.7,7.16-1.38,14.38-2.52,21.53-3.94,20.43-4.05,29.1-19.63,35.19-37.09,2.62-7.51.55-15.13-5.15-22.91,11.66-6.81,22.53-14.5,34.47-19.78,15.46-6.84,31.75-11.81,47.72-17.49,6.05-2.15,12.16-4.14,18.28-6.08,12.07-3.84,24.2-4.01,35.92.97Zm-36.22-5.56c-31.17,6.49-60.6,17.46-87.55,34.63-4.43,2.82-8.65,5.99-13.14,8.72-1.13.69-3.22.9-4.35.32-8.85-4.48-17.57-9.21-26.6-14.01,18.84-9.78,38.36-19.92,57.89-30.06-.17-.38-.35-.76-.52-1.15-12.76,5.37-25.61,10.54-38.25,16.19-8.83,3.95-17.35,8.57-26.04,12.84-1.18.58-2.59,1.33-3.78,1.18-11.44-1.45-22.85-3.08-32.83-4.46-3.23-5.95-6.11-11.24-9.2-16.93,6.4-2.91,13.94-6.27,21.43-9.74,20.34-9.43,40.72-18.72,62.54-24.36,19.32-5,38.02-12.67,58.71-11.2,15.77,1.12,30.53,4.55,43.67,13.62,1.66,1.15,3.2,2.52,4.64,3.95,3.13,3.09,5.66,6.51,3.86,11.26-1.85,4.88-5.01,8.06-10.47,9.2Zm20.35-73.88c13.09-6.01,26.3-11.8,39.69-17.13,4.46-1.77,9.6-2.43,14.44-2.49,10.84-.14,15.7,6.57,11.74,16.75-2.1,5.39-5.42,10.68-9.36,14.92-15.59,16.81-28.53,35.41-39.3,55.57-1.56,2.93-3.17,4.12-6.65,3.83-5.36-.45-10.78-.12-15.09-.12.28-5.24.18-10.21.94-15.05.39-2.53,2.17-4.89,3.52-7.21,2.03-3.49,4.22-6.87,5.52-10.92-3.7,4.56-7.41,9.13-10.39,12.8-10.56-6-20.76-11.79-31.37-17.82,10.49-12.19,20.48-25.88,36.31-33.15Zm-28.91,12.64c-5.58,7.07-10.45,13.23-14.95,18.93h-40.93c17.33-12.22,35.51-17.51,55.88-18.93Zm20.55-83.65c-6.93,7.89-14.59,15.26-20.64,23.77-14.55,20.47-28.32,41.48-42.47,62.23-1.11,1.63-2.48,3.27-4.1,4.34-7.37,4.85-14.86,9.5-22.34,14.18-.94.59-2.02.97-3.04,1.46-.36-.34-.72-.68-1.07-1.02,11.86-15.18,23.73-30.36,35.59-45.54-.18-.2-.37-.4-.56-.6-3.64,3.3-7.38,6.51-10.91,9.93-3.54,3.42-7.14,6.84-10.24,10.64-7.39,9.07-14.49,18.38-21.74,27.56-.59.75-1.35,1.59-2.2,1.86-10.78,3.4-21.59,6.69-33.53,10.37,33.49-54.86,80.34-92.81,137.24-119.19Zm-72.55-45.9c5.52-2.79,12.79-2.58,19.29-2.82,5.59-.21,8.86,3.68,10.49,8.85,5.1,16.22,3.11,31.88-3.75,47.14-.9,2.01-1.88,3.99-2.83,5.99-3.1,6.49-6.98,12.04-13.29,16.21-5.45,3.6-9.75,8.92-14.66,13.37-9.8,8.88-19.88,17.45-29.46,26.55-13.16,12.51-23.1,27.57-32.8,42.78-1.83,2.86-3.52,5.81-5.38,8.66-.72,1.11-1.51,2.51-2.61,3-8.79,3.9-17.8,7.35-26.49,11.47-8.51,4.04-17.02,8.25-24.96,13.27-4.25,2.69-6.46.34-9.5-1.12,31.94-53.73,67.89-103.75,120.15-139.92-.33-.45-.67-.9-1-1.35-1.1.39-2.26.66-3.29,1.18-17.49,8.82-32.77,20.79-46.16,34.84-19.44,20.39-38.74,40.99-56.79,62.6-9.9,11.85-17.1,25.94-25.75,39.39-15.7-3.28-32.48-3.55-49.32-2.86-1.86.08-3.76-.82-5.64-1.26.52-2.06.52-4.47,1.63-6.12,6.34-9.4,12.94-18.63,19.47-27.9,16.94-24.06,35.06-47.13,56.02-67.9,16.6-16.45,34.88-30.63,54.07-43.98,22.86-15.91,47.91-27.61,72.56-40.06Zm116.69-284.37c7.59,2.4,15.05,5.23,22.51,8.04,4.66,1.75,8.53,4.65,9.16,9.98,2.94,24.58-8.87,52.53-31.15,65.37-13.79,7.95-27.4,16.35-40.34,25.59-19.27,13.76-36.21,30.29-52.36,47.56-10.32,11.04-21.54,21.52-30.21,33.77-17.47,24.65-33.44,50.36-50.1,75.59-9.82,14.88-19.85,29.63-29.64,44.53-4.19,6.38-7.89,13.09-12.09,19.46-1.99,3.02-4.66,5.59-7.02,8.36-.38-.35-.76-.69-1.14-1.04,2.41-7.54,5-15.02,7.13-22.64.9-3.22,1.51-6.79,1.09-10.06-.98-7.64,1.24-14.35,4.33-21.11,14.8-32.39,29.29-64.91,44.2-97.25,12.68-27.48,29.47-52.51,49.27-75.2,17.06-19.55,35.89-37.54,53.94-56.22,1.03-1.07,2.05-2.16,3.07-3.24-13.74,7.4-25.41,17.16-36.2,28.01-23.45,23.58-44.9,48.9-61.11,77.96-10.64,19.07-19.07,39.39-28.05,59.35-8.9,19.78-17.23,39.8-25.83,59.71-1.28,2.95-2.63,5.87-4.1,9.17-10.29-18.56-27.74-15.14-44.86-14.87,3.11-8.61,5.93-16.9,9.08-25.06,15.88-41.09,35.08-80.63,56.7-118.96,30.63-54.31,72.77-96.27,131.69-119.45,10.22-4.02,20.74-7.5,31.4-10.13,10.29-2.54,20.65-.35,30.62,2.8Zm-67.71-11.09c4.67,1.87,8.67,5.4,14.07,8.86-11.6,5.57-21.31,10.8-31.45,14.99-35.7,14.76-62.39,40.4-85.9,70.04-19.21,24.2-34.69,50.76-48.55,78.22-12.54,24.84-24.23,50.13-35.81,75.44-4.58,10-7.83,20.62-11.69,30.95-1.07,2.87-2,5.94-7.32,5.23.9-6.77,1.69-13.45,2.7-20.08,3.38-22.16,6.63-44.34,10.32-66.45,6.09-36.5,15.88-71.88,32.19-105.31,15.38-31.53,37.96-56.06,68.93-72.7,12.38-6.65,24.37-14.29,37.3-19.6,18.11-7.44,36.95-6.9,55.21.43Zm-74.05-22.29c9.8,5.49,10.94,15.84,1.89,22.36-9.45,6.82-19.57,12.96-30.07,18.02-21.81,10.51-37.45,27.45-50.42,47.04-19.5,29.42-30.15,62.58-38.64,96.48-9.95,39.8-15.65,80.34-20.77,120.98-.17,1.32-.94,3.11-1.98,3.69-9.87,5.54-19.86,10.87-30.24,16.49-5.08-12.32-15.79-15.58-28.28-14.97,5.21-21.69,10.51-42.93,15.4-64.25,9.67-42.13,22.94-83.07,40.05-122.77,9.06-21.03,24-37.62,39.79-53.73,9.61-9.81,18.77-20.04,27.98-30.23-1.68,1.33-3.36,2.67-4.99,4.05-13.76,11.6-27.93,22.77-40.95,35.15-15.23,14.49-25.27,32.74-33.22,52.05-16.01,38.89-27.51,79.16-36.6,120.18-4.3,19.39-9.42,38.59-14.34,57.83-.43,1.67-1.93,3.92-3.38,4.32-9.43,2.63-16.13,9.17-23.15,15.32-1.87,1.64-3.91,3.08-5.39,4.23-2.04-4.13-2.94-9.35-5.96-11.3-4.75-3.07-10.83-4.3-16.52-5.59-3.37-.76-7.05-.14-11.25-.14,4.59-19.67,8.7-38.57,13.47-57.31,4.82-18.91,9.47-37.93,15.67-56.41,14.22-42.38,32.9-82.66,59.52-118.92,5.91-8.05,11.41-16.42,17.41-24.4,2-2.66,4.88-4.72,7.56-6.79,13.97-10.79,27.51-22.25,42.14-32.07,22.36-15,45.65-28.57,73.71-29.59,14.75-.53,28.71,3.07,41.55,10.26Zm22.7-113.72c23.09-11.56,47.58-15.59,73.16-14.11.45.03.89.3,1.79.61-16.47,12.07-32.12,24.31-48.55,35.4-19.69,13.29-34.9,30.56-48.08,49.98-6.66,9.8-13.57,19.43-20.03,28.66-5.21-1.17-9.63-2.16-14.55-3.26,16.46-27.59,43.26-45.83,64.69-69.02-.29-.36-.58-.73-.88-1.1-8.55,6.52-17.29,12.81-25.61,19.61-16.65,13.62-30.85,29.58-43.73,46.78-1.28,1.7-3.91,3.15-6.03,3.32-11.52.96-22.22,4.61-32.72,9.11-3.56,1.53-7.16,2.96-11.82,3.61,2.32-4.12,4.34-8.45,7.02-12.33,16.48-23.87,35.22-45.66,58.03-63.84,15.14-12.07,29.82-24.66,47.3-33.42Zm-95.38,32.35c17-7.66,34.19-14.95,51.53-21.84,5.41-2.15,11.55-2.47,17.36-3.62.22.38.45.77.67,1.15-4.53,3.58-9.08,7.15-13.59,10.76-28.74,22.99-54.09,49.33-73.82,80.33-7.6,11.94-15.36,21.57-28.05,28.58-12.63,6.98-23.37,17.37-34.96,26.26-1.71,1.31-3.47,2.54-5.3,3.89-2.1-7.68-.99-13.91,4.43-19.77,15.44-16.7,30.36-33.88,45.7-50.68,9.47-10.37,19.34-20.38,28.57-31-31.81,24.55-58.94,53.67-82.09,84.59-6.81-.93-12.07-2.18-17.35-2.23-5.17-.05-10.35,1.12-16.2,1.83.75-1.56,1.14-2.81,1.88-3.82,21.06-28.9,45.12-54.73,74.96-74.92,15.17-10.26,29.46-21.92,46.27-29.49Zm-44.18,3.11c-28.09,5.23-54.23,15.77-79.9,27.33-8.84,3.98-16.42,10.7-24.73,15.92-4.43,2.78-9.01,5.52-13.86,7.43-20.11,7.91-39.56,17.16-57.6,29.03-7.58,4.99-14.3,11.37-21.11,17.44-4.78,4.26-9.23,7.79-16.45,7.39-8.67-.48-16.44,3.7-23.88,7.81-11.8,6.52-23.46,13.3-35.53,19.63,10.48-8.97,20.87-18.06,31.48-26.88,14.09-11.72,27.79-24.03,42.71-34.6,14.2-10.06,29.23-19.26,44.83-26.94,24.19-11.91,48.99-22.64,73.88-33.05,21.72-9.09,43.91-17.06,65.91-25.49,6.41-2.46,15.32,6.53,14.26,14.99Zm-48.06-85.53c11.93.77,23.45,3.44,33.85,9.98,18.54,11.66,16.36,36.8,8.06,47.96-3.46,4.65-10.53,7.11-16.42,9.38-44.63,17.22-89.69,33.36-133.94,51.48-22.04,9.02-42.68,21.49-63.95,32.41-1.46.75-2.88,1.55-4.55,2.46,2.94-27.56-5.16-40.27-28.41-43.05,63.18-36.86,131.38-58.57,198.46-83.22-8.16,1.92-16.44,3.41-24.44,5.83-23.22,6.99-46.61,13.57-69.42,21.75-36.32,13.03-71.24,29.3-104.43,49.11-6.44,3.84-13.02,6.68-20.77,7.68-16.12,2.07-31.04,8.44-45.74,15.17-2,.92-4.01,1.82-5.08,2.3-5.08-7.5-9.75-14.4-14.86-21.94,9.57-6.03,19.47-12.5,29.6-18.6,36.04-21.72,74.33-38.66,113.56-53.67,20.59-7.88,40.83-16.7,61.58-24.08,28.07-9.99,57.28-12.84,86.92-10.92Zm-56.21-38.74c5.6.54,11.24,2.45,16.46,4.69,9.76,4.19,12,13.22,12.73,22.67.08.98-2.39,2.87-3.89,3.15-13.71,2.49-27.4,5.19-41.21,6.91-19.64,2.44-36.85,11.26-54.53,19.11-10.19,4.52-20.8,8.1-31.18,12.22-15.92,6.33-32.03,12.25-47.66,19.24-33.55,15.02-65.32,33.27-95.48,54.3-1.12.78-2.76,1.17-4.15,1.15-6.77-.09-13.53-.39-20.3-.62-18.59,3.23-34.6,12.09-49.85,23.43-1.49-5.69-2.03-10.04,3.23-13.88,15.71-11.46,31.1-23.35,46.62-35.08v-1.02c7.88-4.94,15.63-10.08,23.65-14.77,19.93-11.65,39.8-23.42,60.06-34.47,7.81-4.26,16.77-6.37,24.92-10.08,10.63-4.84,20.54-11.62,31.53-15.2,20.57-6.69,37.81-19.92,57.76-27.6,22.94-8.82,46.18-16.56,71.28-14.16Zm-415.45,81.73c22.06-19.68,46.19-37.08,73.09-49.78,24.07-11.36,48.74-21.46,73.14-32.12,21.82-5.69,43.42-12.45,65.51-16.76,21.63-4.22,43.72-6.21,65.66-8.63,9.94-1.1,20.03-1.25,30.05-1.11,4.25.06,8.87,1.26,12.64,3.24,9.64,5.07,12.46,17.17,5.01,25.05-7.27,7.69-16.01,14.05-24.44,20.57-18.87,14.59-40.57,24-62.42,32.91-26.11,10.66-49.3,26.51-73.71,40.2-6.17,3.46-12.2,7.16-18.29,10.75v1.02c-9.85,7.76-19.71,15.49-29.53,23.28-7.32,5.81-14.5,11.79-21.96,17.41-1.09.82-3.75.68-5.06-.09-10.3-6.06-20.86-9.04-32.46-3.9-24.64,10.91-49.29,21.81-73.94,32.71-1.32.58-2.7,1.03-4.77.73,1.31-1.64,2.45-3.44,3.94-4.89,29.82-29.05,59.44-58.53,93.78-82.18,21.59-14.87,45.29-26.66,68.06-39.8.55-.32,1.29-.32,1.94-.46v-1.02c1.28-.41,2.61-.68,3.82-1.24,15.56-7.19,31.07-14.48,46.66-21.6,9.79-4.48,19.68-8.72,29.53-13.07-11.85,3.06-23.38,6.93-34.64,11.49-15.23,6.16-30.26,12.85-45.37,19.32v1.02c-8.04,3.91-16.23,7.55-24.1,11.79-47.71,25.66-89.21,59.49-127.48,97.51-6.38,6.34-12.32,13.12-18.7,19.45-1.03,1.02-3.82,1.62-4.94.96-5.52-3.25-11.34-2.72-17.33-2.61-10.6.2-21.2-.2-31.74-.35-.37-10.92,4.35-18.11,10.86-24.48,22.34-21.85,43.91-44.55,67.2-65.32Zm-105.41,40.19c.3-.13.66-.15,1-.19,14.49-2.05,19.46,1.67,22.06,16.16,1.75,9.72,1.02,19.26-1.28,28.78-.7,2.92-2.13,3.95-5.26,4.01-8.83.18-17.65.86-26.47,1.26-17.47.81-34.57,4.79-51.96,5.98,4.63-3.83,9.45-7.53,13.93-11.6,8.62-7.81,14.51-17.4,17.73-28.61.31-1.07.82-2.53,1.66-2.92,9.49-4.4,19.05-8.62,28.6-12.88Zm-78.08-14.89c13.03,1.43,25.24,5.42,36.08,12.91,7.02,4.85,8.04,8.64,5.03,16.66-5.14,13.71-14.06,24.58-25.02,34.14-13.59,11.85-30.36,16.04-46.94,21.04-28.39,8.55-55.49,20.39-81.52,34.4-21.06,11.34-41.49,23.88-61.9,36.37-6.9,4.22-12.88,9.95-19.32,14.93-3.75,2.9-7.58,5.69-11.45,8.59-13.87-9.02-27.71-5.26-41.72-2.57,49.33-59.59,113-99.48,180.86-133.72-.2-.44-.39-.88-.59-1.31-8.09,3.12-16.37,5.84-24.25,9.43-41.61,18.96-78.9,44.66-113.06,74.8-17.17,15.15-33.17,31.63-49.55,47.66-2.95,2.88-6.03,4.43-10.13,4.98-23.84,3.19-46.8,9.74-69.18,18.46-1.21.47-2.49.77-4.41.36,2.86-3.38,5.48-7.01,8.63-10.1,33.02-32.5,65.76-65.31,99.33-97.23,26.47-25.17,57.99-43.01,90.62-59.03,27.43-13.46,56.76-20.38,86.37-26.63,17.23-3.64,34.5-6.04,52.13-4.1Zm-78.72-18.71c8.15,3.94,15.88,8.75,23.79,13.17l-.57,1.84c-6.04,1.4-12.06,2.9-18.13,4.17-35.19,7.36-66.87,23.08-98,40.37-20.54,11.41-40.79,23.17-58.04,39.26-20.36,19-40.48,38.27-60.32,57.81-13.34,13.13-26.03,26.93-38.86,40.26.29-11.02.51-21.1.86-31.18.04-1.28.47-2.73,1.2-3.77,16.77-23.87,32.96-48.17,50.63-71.36,13.47-17.68,29.22-33.55,46.83-47.34,19.66-15.4,40.91-27.72,65.13-34.73,13.34-3.86,26.37-8.81,39.56-13.21,16-5.33,31.27-2.37,45.92,4.71Zm-133.22-39.91c14.72-3.61,29.04-8.4,44.44-7.56,16.2.88,31.64,4.16,45.05,13.96,1.5,1.1,2.99,2.26,4.27,3.6,3.01,3.16,5.76,6.64,4.01,11.34-1.8,4.83-5,8.18-10.47,9.29-60.17,12.21-109.83,42.13-149.42,88.95-20.66,24.44-38.44,50.92-55.51,77.91-.26.41-.63.75-1.36,1.6-11.65-13.06-28.27-15.12-44.48-19.89.99-2.1,1.49-4.09,2.68-5.52,18.6-22.3,36.92-44.85,56.07-66.67,20.35-23.2,45.92-39.64,73.23-53.54,14.52-7.39,28.96-14.94,43.44-22.41-.16-.4-.31-.81-.47-1.21-6.71,2.71-13.45,5.34-20.12,8.16-23.18,9.79-45.92,20.41-66.75,34.76-19.09,13.16-35.07,29.59-49.87,47.17-15.53,18.44-30.35,37.49-45.65,56.13-1.26,1.53-3.74,2.52-5.8,2.87-7.18,1.2-14.42,2.08-21.66,2.89-1.49.17-3.67.04-4.53-.88-8.15-8.73-18.34-13.17-31.75-14.93,4.16-5.43,7.52-10.11,11.19-14.53,26.11-31.51,55-60.22,87.48-85.15,12.08-9.27,22.25-21.01,36.58-27.41,32.52-14.53,64.45-30.36,99.39-38.93Zm-95.48,10.56c6.99,1.67,9.22,6.14,5.02,12.05-4.03,5.69-9.21,10.88-14.79,15.07-7.16,5.39-15.39,9.31-22.87,14.31-30.55,20.44-57.45,45.1-81.74,72.55-9.32,10.53-17.78,21.85-26.14,33.18-4.45,6.03-9.75,8.29-17.02,7.76-6.15-.45-12.36-.09-18.87-.09,3.79-6.13,7.88-12.65,11.86-19.24,14.86-24.66,35.44-44.06,57.18-62.41,10.28-8.68,20.38-17.58,30.56-26.38-.28-.36-.56-.73-.84-1.09-9.11,6.64-18.32,13.16-27.32,19.94-31.12,23.44-56.44,51.86-74.39,86.65-1.61,3.11-4.29,5.67-7.17,8.36.88-17.19-10.25-23.2-24.5-27.51,6.28-9.53,12.41-18.82,18.53-28.11,14.61-22.2,34.35-39.27,55.03-55.5,15.81-12.4,31.36-25.28,49.93-33.26,23.71-10.19,48.8-15.52,74.45-17.92,4.29-.4,8.83.61,13.09,1.63Zm-1.38-40.3c-.58,2.43-1.23,4.85-1.73,7.29-.51,2.5-.86,5.03-1.31,7.54-.94,5.18-2.09,10.33-2.78,15.53-.36,2.67-1.06,3.8-4.04,3.75-24.04-.42-46.75,5.38-68.59,15.05-7.01,3.1-14,4.1-21.79,2.73-18.27-3.22-36.23.2-53.96,4.41-14.11,3.35-27.49,8.64-39.69,16.72-1.86,1.23-4.46,1.77-6.74,1.84-19.82.67-37.77,7.78-55.39,15.96-7.84,3.64-15.5,7.68-23.26,11.49-1.04.51-2.23.99-3.36,1-8.61.08-17.22.05-24.83.05-3.65-5.83-7.13-11.39-10.76-17.19,7.67-2.44,16.11-5.43,24.71-7.82,32.84-9.13,65.55-18.88,98.68-26.82,28.53-6.84,57.55-11.64,86.39-17.13,25.85-4.92,51.72-9.83,77.67-14.2,13.38-2.25,23.18-8.94,29.7-20.92.36.24.73.48,1.09.72Zm-293.64-22.54c47.61-11.08,95.88-19.34,143.82-29.02,25.75-5.2,51.74-6.47,77.71-3.75,16.29,1.7,32.55,5.09,48.37,9.4,7.11,1.93,13.48,7.49,19.48,12.28,4.6,3.66,6.11,9.26,4.66,15.3-.56,2.31-.91,4.67-1.5,6.98-3.93,15.51-14.84,22.91-29.84,25.26-20.15,3.15-40.4,5.71-60.48,9.21-33.79,5.9-67.63,11.66-101.19,18.73-38.2,8.05-76.14,17.35-113.24,29.72-2.24.75-4.55,1.32-8.28,2.39,6.98-17.01,4.14-31.84-6.17-45.85,89.33-29.47,181.08-41.78,272.5-56.09-14.96,1.05-29.97,1.62-44.86,3.25-22.47,2.45-44.97,4.97-67.25,8.7-23.92,4-47.82,8.57-71.35,14.44-30.12,7.51-59.83,16.63-89.78,24.84-2.55.7-6.27.84-8.19-.53-13.59-9.67-29.09-10.62-44.86-10.76-.68,0-1.36.01-2.04-.02-2.9-.14-6.47.05-6.57-3.81-.03-1.34,2.77-3.43,4.65-4.04,28.07-9.13,55.75-19.96,84.41-26.63Z"/>
            <path class="cls-2" d="m744.29,1321.26h5.4c11.25-19.62,22.49-39.23,33.74-58.85-15.28,18.15-29.36,37.09-39.14,58.85Z"/>
            <path class="cls-2" d="m389.45,272.34c-2.88,3.13-5.73,6.29-8.58,9.44,3.38-2.67,6.83-5.28,10.22-7.94-.54-.5-1.09-1-1.63-1.5Z"/>
            <path class="cls-2" d="m1717.24,272.34c-2.88,3.13-5.73,6.29-8.58,9.44,3.38-2.67,6.83-5.28,10.22-7.94-.54-.5-1.09-1-1.63-1.5Z"/>
            <path class="cls-2" d="m1697.76,1275.63c-1.04-.68-2.02-.8-2.96-.66-12.92,1.99-25.86,3.86-38.73,6.07-42.02,7.22-83.46,16.82-123.61,31.4-7.22,2.62-14.27,5.76-21.33,8.82h11.58c3.18-1.3,6.36-2.57,9.59-3.71,42.97-15.13,87.2-25.53,131.71-34.87,11.25-2.36,22.51-4.7,33.76-7.06Z"/>
            <path class="cls-2" d="m926.45,1223.39c4.8-4.85,9.42-9.88,15.12-15.88-5.84,4.55-10.52,8.34-15.34,11.93-27.72,20.66-53.39,43.18-67.69,75.76-3.75,8.54-6.92,17.35-10.27,26.07h7.22c.42-1,.85-1.99,1.24-3,8.67-22.66,19.39-44.12,36.66-61.65,10.96-11.13,22.08-22.1,33.07-33.22Z"/>
            <path class="cls-2" d="m1090.39,1260.2c-.37-.43-.75-.85-1.12-1.28-8.07,6.31-16.93,11.85-24.05,19.09-13.76,13.97-26.7,28.75-39.91,43.26h6.67c15.19-16.32,30.35-32.66,45.64-48.88,4.03-4.28,8.5-8.14,12.78-12.19Z"/>
            <path class="cls-2" d="m1470.42,1243.86c35.47-17.58,72.12-32.34,110.15-43.49,11.69-3.43,23.5-6.45,35.8-9.81-1.04-.14-1.53-.33-1.98-.26-28.79,4.39-57.11,11-84.03,22.03-26.34,10.79-52.42,22.47-77.77,35.39-36.88,18.8-73.1,38.89-109.39,58.82-7.78,4.28-14.98,9.62-22.32,14.72h8.56c17.16-10.7,34.05-21.91,51.78-31.56,29.36-15.98,59.25-31,89.2-45.85Z"/>
            <path class="cls-2" d="m1267.89,1306.12c-4.53.98-8.93,2.23-13.04,4.11-7.8,3.56-15.51,7.31-23.23,11.04h7.78c.47-.3.94-.61,1.43-.88,9-4.8,18.04-9.52,27.07-14.27Z"/>
          </g>
        </g>
      </g>
    </g>
  </g>
</svg>