<?xml version="1.0" encoding="UTF-8"?>
<svg id="Capa_2" data-name="Capa 2" xmlns="http://www.w3.org/2000/svg" viewBox="0 0 94.28 94.08">
  <defs>
    <style>
      .cls-1 {
        fill: #63c5ea;
        stroke-width: 0px;
      }
    </style>
  </defs>
  <g id="Capa_1-2" data-name="Capa 1">
    <g>
      <path class="cls-1" d="m82.04,83.76c.62.68,1.15,1.26,1.82,1.99-.61.54-1.11,1.06-1.68,1.48-10.45,7.71-21.62,8.93-33.46,3.62-1.19-.53-2.05-.52-3.21.04C23.6,101.44-1.74,84.24.09,59.99c.75-9.85,5.25-17.79,13.32-23.52,1.61-1.15,2.12-2.24,2.05-4.16-.24-7.25,2.03-13.75,6.34-19.56.54-.73,1.16-1.4,1.82-2.19.69.61,1.27,1.12,2.02,1.79-5.16,6.03-7.77,12.95-7.48,20.81,3.16-.78,6.18-1.74,9.28-2.26,6.43-1.07,12.55.13,18.42,2.9.65.31,1.69.38,2.32.08,8.87-4.21,17.82-4.5,26.9-.75.22.09.45.17.68.25,2.16-6.06-3.37-18.33-10.69-24.24-8.16-6.58-23.69-10.27-37.57,1.2-.52-.57-1.04-1.15-1.71-1.88.78-.67,1.47-1.35,2.24-1.9C38.58-.88,49.85-2.18,61.36,3.64c11.57,5.85,17.37,15.69,17.44,28.7,0,1.92.49,3.01,2.09,4.14,14.92,10.51,17.81,31.42,6.39,45.67-.38.48-.8.92-1.29,1.48-.68-.61-1.3-1.16-1.92-1.72,13.51-15.59,6.78-36.4-5.71-43.66-.14.48-.28.92-.4,1.36-2.11,7.91-6.55,14.16-13.29,18.81-.58.4-1.21,1.3-1.18,1.94.43,11.32-3.89,20.4-12.75,27.38-.19.15-.35.32-.71.66,5.42,2.57,10.91,3.39,16.69,2.55,5.8-.84,10.84-3.29,15.32-7.2ZM15.92,37.93c-8.9,6.55-13.61,14.88-13.03,25.66.65,12,6.77,20.56,17.71,25.38,7.81,3.45,15.73,3.07,23.68-.56-.39-.36-.51-.49-.66-.6-8.93-7-13.29-16.11-12.82-27.5.02-.57-.46-1.32-.93-1.73-1.61-1.41-3.43-2.6-4.97-4.07-4.64-4.44-7.5-9.91-8.99-16.58Zm17.59,22.71c-.12,10.97,4.06,19.47,12.85,25.64.38.27,1.34.19,1.71-.11,1.9-1.54,3.88-3.04,5.48-4.86,5.13-5.8,7.44-12.66,7.17-20.64-9.1,3.99-18.08,3.98-27.22-.03Zm10.69-24.33c-6.28-4.12-19.64-3.9-25.65.42,1.53,8.14,5.69,14.55,12.76,19.45,1.88-8.45,6.19-14.94,12.89-19.87Zm5.69-.15c6.91,5.08,11.23,11.63,13.04,19.8,6.08-2.98,12.18-12.41,12.66-19.56-8.42-4.03-16.88-4.13-25.71-.23Zm10.53,21.54c-1.54-8.13-5.46-14.47-12.03-19.1-.51-.36-1.6-.59-2.03-.3-6.87,4.65-10.97,11.12-12.48,19.39,8.89,4.24,17.63,4.23,26.54,0Z"/>
      <path class="cls-1" d="m54.17,10.13v-2.54h2.5v2.54h-2.5Z"/>
      <path class="cls-1" d="m62.15,12.95c-.57.03-.99.06-1.41.06-.3,0-.59-.05-1.01-.09v-2.55h2.43v2.58Z"/>
      <path class="cls-1" d="m47.14,45.94c3.06,0,5.5,2.4,5.52,5.44.02,3.06-2.58,5.65-5.61,5.59-2.99-.06-5.45-2.6-5.43-5.59.02-3.03,2.47-5.44,5.52-5.44Zm2.71,5.52c.02-1.52-1.28-2.83-2.77-2.8-1.43.03-2.65,1.28-2.67,2.72-.02,1.49,1.11,2.69,2.59,2.75,1.58.07,2.82-1.11,2.84-2.68Z"/>
    </g>
  </g>
</svg>