<?xml version="1.0" encoding="UTF-8"?>
<svg id="Capa_2" data-name="Capa 2" xmlns="http://www.w3.org/2000/svg" xmlns:xlink="http://www.w3.org/1999/xlink" viewBox="0 0 2664.28 1332">
  <defs>
    <style>
      .cls-1, .cls-2, .cls-3 {
        stroke-width: 0px;
      }

      .cls-2 {
        fill: none;
      }

      .cls-4 {
        opacity: .03;
      }

      .cls-5 {
        clip-path: url(#clippath);
      }

      .cls-3 {
        fill: #fbb03b;
      }
    </style>
    <clipPath id="clippath">
      <rect class="cls-2" x="373.27" y="11.02" width="1920" height="1199.64"/>
    </clipPath>
  </defs>
  <g id="Capa_1-2" data-name="Capa 1">
    <g>
      <rect class="cls-3" x="373.27" y="11.02" width="1920" height="1199.64"/>
      <g class="cls-5">
        <g class="cls-4">
          <path class="cls-1" d="m1854.06,1331.87c-3.85-12.5-5.43-26.4-12.08-37.17-9.87-15.98-18.44-30.47-8.64-49.45,2.16-4.19,2.14-9.55,2.93-14.4,7.69-47.15,46.59-74.51,93.66-65.85,23.18,4.27,32.84,15.66,28.81,38.6-2.29,13.03,1.98,18.43,12.52,24.44,8.71,4.97,15.63,13.54,22.35,21.36,2.96,3.45,6.26,11.27,4.65,13.25-16.45,20.32-1.61,52.16-25.82,69.22h-118.39Zm62.13-19.01c28.67-.04,37.61-13.71,31.65-41.53-4.37-20.42-14.73-31.61-33.18-40.4-13.31-6.34-23.07-5.96-33.87,2.08-16.23,12.09-21.21,28.31-14.76,47.34,7.48,22.05,23.69,32.56,50.17,32.52Z"/>
          <path class="cls-1" d="m522.19,1331.87c-3.88-12.49-5.54-26.34-12.16-37.16-9.78-15.99-18.39-30.51-8.57-49.48,2.16-4.18,2.11-9.55,2.87-14.4,7.36-46.79,46.93-74.67,93.67-65.95,23.15,4.32,32.51,15.44,28.75,38.73-2.08,12.87,1.99,18.33,12.54,24.47,9.14,5.32,16.14,14.65,23.3,22.89,2.58,2.97,5.27,9.94,3.82,11.7-16.7,20.2-1.79,52.06-25.84,69.2h-118.39Zm61.34-19.01c29.59.27,38.3-13.58,32.21-42.63-4.25-20.25-14.99-30.04-32.35-38.92-13.97-7.15-24.19-6.33-35.41,2.35-15.38,11.9-20.12,27.64-14.12,45.96,7.3,22.27,23.33,33,49.67,33.24Z"/>
          <path class="cls-1" d="m.54,325.57c5.83,4.24,11.66,8.49,17.5,12.71,9.58,6.92,19.96,12.97,28.54,20.95,9.04,8.4,19.33,17.44,23.77,28.36,7.34,18.04,11.19,37.66,15.15,56.89,10.06,48.9-33.74,84.64-84.97,69.77,0-17.26,0-34.53,0-51.79,2.34.67,4.77,2.13,7.01,1.88,6.8-.77,16.27,0,19.49-4.02,3-3.75.13-13.04-1.55-19.54-3.94-15.3-8.13-30.59-13.42-45.45-2.32-6.53-7.59-12-11.52-17.96,0-17.26,0-34.53,0-51.79Z"/>
          <path class="cls-1" d="m1639.48,0c1.23,13.46,4.98,27.3,3.05,40.29-2.46,16.51-8.65,32.68-14.92,48.32-4.76,11.9-11.95,22.87-18.41,34.05-10.12,17.5-32.79,20.5-43.97,3.95-10.81-16-21.31-33.73-25.68-52.19-5.69-24.04-5.19-49.54-7.36-74.42,35.76,0,71.53,0,107.29,0Zm-27.62,23.17c-4.48-7.71-6.3-14.97-10.71-17.27-4.23-2.21-12.02-.88-16.71,1.69-19.78,10.85-25.17,34.3-11.56,51.87,2.45,3.17,14.06,4.38,15.59,2.27,8.77-12.14,15.78-25.55,23.4-38.55Z"/>
          <path class="cls-1" d="m307.61,0c1.2,13.46,4.37,27.11,3.06,40.32-1.34,13.57-5.74,27.27-11.16,39.91-6.76,15.76-15.16,30.98-24.29,45.53-9.09,14.47-29.95,15.44-41.1,2.44-6.36-7.42-12.61-15.46-16.68-24.25C202.19,71,199.64,35.71,200.33,0h107.29Zm-29.73,21.37c-3.27-10.77-6.75-22.95-19.36-16.35-9.95,5.21-21.59,15.86-23.33,25.71-1.87,10.6,6.93,23.07,11.08,34.73,7.75-6.77,16.82-12.56,22.84-20.62,4.88-6.54,6.08-15.82,8.77-23.47Z"/>
          <path class="cls-1" d="m2664.28,510.55c-17.58-5.07-35.56-9.08-52.68-15.42-44.73-16.56-61.73-46.51-42.19-89.25,12.96-28.36,37.09-52.29,59.15-75.41,7.11-7.45,23.55-5.99,35.72-8.61v51.79c-7.37-2.68-16.05-9.26-21.88-7.32-19.74,6.59-41.4,49.65-38.25,70.58,2.05,13.63,9.66,17.97,22.9,17.94,12.41-.03,24.83,2.49,37.24,3.89v51.79Z"/>
          <path class="cls-1" d="m2664.28,255.27c-28.43,1.43-49.03-10.78-62.98-35.41-14.88-26.26-16.23-53.39-6.8-81.6,1.92-5.75,4.42-11.7,4.54-17.6.92-42.85,25.16-58.98,65.23-42.97v44.4c-8.86-2.07-18.05-9.99-25.8,2.43-13.45,21.55-5.27,67.19,15.44,82.1,2.36,1.7,6.86.45,10.36.56v48.1Z"/>
          <path class="cls-1" d="m1214.02,1331.87c-7.55-18.43-4.41-35.4,8.82-49.69,16.95-18.31,34.43-36.19,52.58-53.29,12.95-12.2,31.26-7.22,39.28,9,7.2,14.57,17.17,28.2,21.82,43.48,4.88,16.06,4.87,33.6,7,50.5h-62.89c5.31-5.04,11.65-9.38,15.66-15.3,5.02-7.4,9.61-15.79,11.44-24.38.97-4.55-4.31-10.42-6.77-15.7-4.92,2.63-10.41,4.58-14.6,8.09-4.59,3.84-7.45,12.53-11.96,13.2-20.95,3.15-20.17,19.69-23.38,34.08h-37Z"/>
          <path class="cls-1" d="m684.98,1331.87c-6.73-42.12,5.23-60.74,45.93-73.8,10.38-3.33,19.83-9.51,29.77-14.24,28.81-13.73,67.15,2.38,77.17,32.36,6.37,19.08,1.61,29.38-18.12,31.08-12.65,1.09-25.97-3.06-38.68-6.14-6.33-1.54-11.95-8.45-17.92-8.48-9.22-.06-19.46,2.09-27.1,6.81-2.29,1.42,2.46,14.55,4.32,22.23.85,3.5,2.52,6.8,3.81,10.18h-59.19Z"/>
          <path class="cls-1" d="m2016.84,1331.87c-6.63-43.21,4.05-59.35,47.77-74.27,9.76-3.33,18.62-9.27,28.01-13.77,28.71-13.78,67.13,2.37,77.16,32.34,6.36,19.01,1.51,29.4-18.17,31.06-12.66,1.06-25.96-3.05-38.67-6.12-6.33-1.53-11.96-8.43-17.93-8.46-9.22-.05-19.42,2.13-27.1,6.82-2.24,1.37,2.54,14.52,4.4,22.19.85,3.5,2.45,6.82,3.72,10.22h-59.19Z"/>
          <path class="cls-1" d="m2545.89,1331.87c-7.12-17.49-4.95-34.18,7.52-47.93,17.44-19.23,35.65-37.87,54.66-55.54,12.69-11.8,30.3-5.88,38.97,9.87,4.1,7.44,11.39,13.13,17.24,19.61v73.99h-51.79c2.65-2.5,5.83-4.64,7.84-7.58,6.78-9.88,14.47-19.5,19.01-30.39,1.75-4.19-4.03-11.52-6.38-17.42-4.93,2.63-10.43,4.58-14.63,8.09-4.59,3.84-7.46,12.5-11.97,13.19-20.9,3.18-20.25,19.67-23.45,34.11h-37Z"/>
          <path class="cls-1" d="m914.35,1331.87c-7.41-24.97-4.1-46.48,17-64.61,14.78-12.7,28.24-13.99,45.23-4.88,6.66,3.57,16.38,1.62,24.71,1.74,2.27.03,4.5-1.99,6.86-2.32,26.5-3.77,65.81,43.89,57.88,70.07h-73.99c4.94-5.28,10.51-10.11,14.57-15.99,2.44-3.54,4.39-9.36,3.13-12.96-1.25-3.57-6.49-7.41-10.5-8.09-30.96-5.24-41.84,5.97-36.8,37.04h-48.1Z"/>
          <path class="cls-1" d="m2246.22,1331.87c-7.34-24.97-4.05-46.5,17.04-64.63,14.81-12.73,28.32-13.74,45.28-4.8,6.7,3.53,16.39,1.58,24.73,1.68,2.27.03,4.49-2.01,6.84-2.34,26.53-3.74,65.82,43.98,57.79,70.09h-73.99c4.95-5.27,10.53-10.1,14.6-15.98,2.45-3.54,4.4-9.36,3.15-12.97-1.23-3.57-6.47-7.43-10.47-8.1-31.06-5.22-41.72,5.73-36.88,37.05h-48.1Z"/>
          <path class="cls-1" d="m148.53,0c1.54,21.05-8.08,28.89-35.97,25.76-11.42-1.28-23.01-3.03-26,9.32-2.59,10.71-.67,23.33,2.22,34.32,2.42,9.2,11.74,16.85,13.23,25.97,1.51,9.2-.44,26.16-5.1,27.81-12.81,4.54-28.36,5.34-41.73,2.5-6.09-1.3-10.34-14.36-13.95-22.72-1.41-3.26.24-8.84,2.23-12.39,8.88-15.9,7.7-29.79-4.84-43.63-9.17-10.12-6.16-20.36,3.85-28.87C49.51,12.09,56.46,6.02,63.44,0c28.36,0,56.73,0,85.09,0Z"/>
          <path class="cls-1" d="m1480.4,0c1.64,20.44-8.93,29.01-35.91,25.76-11.44-1.38-22.95-3.02-25.97,9.23-2.64,10.7-.68,23.28,2.08,34.32,2.15,8.61,11.28,15.75,12.53,24.25,1.46,9.87.16,28-4.21,29.42-13.44,4.37-29.57,5.12-43.31,1.78-5.91-1.44-10.43-16.1-11.98-25.36-1.07-6.41,5.17-13.72,6.02-20.88.8-6.73,1.29-15.7-2.34-20.4-20.63-26.77-12.95-31.84,9.64-50.93,2.81-2.37,5.57-4.8,8.36-7.19,28.36,0,56.73,0,85.09,0Z"/>
          <path class="cls-1" d="m2664.28,1128.39c-3.98-9.38-5.8-20.59-20.47-19.01-14.61,1.57-21.63,15.29-12.11,28.46,8.94,12.36,9.24,22.96-1.74,32.45-11.45,9.9-22.14,2.46-31.45-4.89-22.3-17.6-27.82-63.86-10.71-86.16.37-.49.96-.84,1.23-1.37,6.85-13.6,11.88-30.64,31.61-27.95,14.81,2.02,29.11,7.77,43.64,11.86v66.59Z"/>
          <path class="cls-1" d="m2664.28,773.22c-35.52-.83-59.86-17.64-72.21-51.14-2.13-5.77-.53-13-.3-19.54.23-6.56,1.98-13.24,1.2-19.64-2.82-23.25,7.84-34.99,31.07-33.56,13.4.82,26.82,1.21,40.23,1.8v33.3c-8.94-1.53-18.52-5.68-26.61-3.71-5.75,1.4-14.54,12.94-13.15,16.64,3.6,9.59,10.84,19.13,19.22,24.96,3.32,2.31,13.49-5.24,20.55-8.3v59.19Z"/>
          <path class="cls-1" d="m.54,81.39c4.85,3.51,11.21,6.03,14.29,10.7,16.07,24.4,33.07,48.44,46.32,74.36,13.25,25.92,6.56,41.4-17.47,57.56-7.49,5.04-12.82,13.2-20.13,18.58-7,5.14-15.29,8.53-23.01,12.68,0-16.03,0-32.06,0-48.1,7.38-5.88,20.23-11.02,21.15-17.78,3.22-23.7-3.46-45.94-21.15-63.61,0-14.8,0-29.6,0-44.4Z"/>
          <path class="cls-1" d="m2076.04,0c2.76,22.23,2.42,21.07,24.05,14.76,7.67-2.24,19.79-.06,25.71,4.99,9.48,8.1,2.14,17.37-4.41,25.46-15.24,18.82-30.97,33.88-58.91,28.74-14.27-2.62-22.51-8.34-26.47-21.31-5.34-17.49-10.33-35.1-15.46-52.65,18.5,0,37,0,55.49,0Z"/>
          <path class="cls-1" d="m744.17,0c2.67,22.24,2.34,21.08,24.05,14.77,7.67-2.23,19.79-.05,25.68,5.01,9.48,8.14,1.98,17.31-4.52,25.42-15.17,18.93-30.9,33.82-58.85,28.74-14.34-2.61-22.46-8.38-26.41-21.3C698.76,35.15,693.8,17.55,688.68,0c18.5,0,37,0,55.49,0Z"/>
          <path class="cls-1" d="m448.2,1331.87c-10.97-12.22-23.15-23.6-32.5-36.96-6.33-9.05-11.28-20.73-11.87-31.51-.35-6.44,7.48-16.45,14.1-19.52,14.08-6.53,28.89-9.56,38.23,10.1,5.07,10.68,14.56,19.2,21.62,29.01,11.09,15.43,5.99,32.31,3.72,48.88h-33.3Z"/>
          <path class="cls-1" d="m1780.07,1331.87c-10.97-12.22-20.37-26.62-33.36-36.06-13.44-9.76-12.35-22.25-11.18-34.15.64-6.53,7.9-15.04,14.29-17.85,14.23-6.26,28.91-9.45,38.26,10.14,5.35,11.21,14.63,20.54,22.08,30.77,10.94,15.03,4.74,31.26,3.2,47.15h-33.3Z"/>
          <path class="cls-1" d="m1813.36,0c-5.82,31.56-12.16,62.78-42.26,81.94-8.68,5.53-16.46,14.6-27.37,4.43-10.61-9.9-21.58-20.94-13.23-36.42,4.56-8.46,13.38-15.27,21.57-20.95,10.97-7.6,24.26-12.49,24.29-28.99h37Z"/>
          <path class="cls-1" d="m481.5,0c-5.97,31.49-12.11,62.79-42.36,81.84-8.71,5.48-16.39,14.73-27.32,4.53-10.6-9.89-21.56-20.95-13.25-36.44,4.54-8.47,14.44-13.93,21.3-21.32C428.41,19.39,436.32,9.57,444.5,0c12.33,0,24.66,0,37,0Z"/>
          <path class="cls-1" d="m1339.81,0c-7,13.53-13.87,27.13-21.04,40.57-9.49,17.79-41.72,25.8-58.49,14.71-19.97-13.2-19.14-35.5,1.63-47.15,4.02-2.26,7.55-5.39,11.31-8.13,22.2,0,44.4,0,66.59,0Z"/>
          <path class="cls-1" d="m2664.28,14.8c-3.92,7.42-8.19,14.68-11.7,22.29-9.71,21.09-43.81,30.76-61.76,17.29-18.52-13.89-17.12-34.9,2.92-46.24,4.03-2.28,7.57-5.4,11.34-8.13,19.73,0,39.46,0,59.19,0v14.8Z"/>
          <path class="cls-1" d="m1532.19,1331.87c1.27-6.59,2.35-13.22,3.88-19.74.69-2.92,1.76-7.63,3.56-8.1,20.14-5.25,40.52-13.89,60.69-13.52,22.32.41,36.22,19.22,39.15,41.37h-107.29Z"/>
          <path class="cls-1" d="m1665.38,1331.87c.29-6.1,1.89-12.49.64-18.25-6-27.63,9.69-42.89,31.07-53.99,4.47-2.32,15.89-.48,17.53,2.76,4.66,9.24,7.95,20.18,8.03,30.48.11,12.98-3.48,25.99-5.47,38.99h-51.79Z"/>
          <path class="cls-1" d="m200.33,1331.87c2.81-9.87,3.53-26.78,8.81-28.36,21.24-6.33,44.4-12.3,65.86-9.83,16.8,1.93,33.84,15.12,32.61,38.19h-107.29Z"/>
          <path class="cls-1" d="m333.51,1331.87c.26-6.1,1.81-12.49.57-18.27-5.95-27.6,9.73-42.76,31.06-54,4.22-2.23,14.9-1.09,16.19,1.58,4.75,9.86,8.98,20.94,9.32,31.7.4,12.93-3.37,25.99-5.34,38.99h-51.79Z"/>
          <path class="cls-1" d="m.54,651.14c33.69,5.7,47.19,26.07,37.19,57.69-5.16,16.33-10.94,32.66-18.61,47.9-3.46,6.88-12.22,11.09-18.58,16.5,0-40.7,0-81.39,0-122.09Z"/>
          <path class="cls-1" d="m633.18,0c-21.6,12.54-42.64,26.28-65.16,36.89-6.65,3.13-20.23.4-25.7-4.82C533.47,23.63,528.69,10.91,522.19,0c37,0,73.99,0,110.99,0Z"/>
          <path class="cls-1" d="m1965.05,0c-21.58,12.54-42.6,26.27-65.09,36.88-6.64,3.13-20.2.35-25.7-4.87-8.87-8.42-13.68-21.12-20.2-32.01,37,0,73.99,0,110.99,0Z"/>
          <path class="cls-1" d="m2397.91,0c-11.18,30.55-31.5,43.53-61.95,37.03-5.6-1.19-11.13-10.48-13.4-17.15-1.97-5.8.73-13.19,1.36-19.88,24.66,0,49.33,0,73.99,0Z"/>
          <path class="cls-1" d="m1066.04,0c-11.31,30.55-31.44,43.4-62,37.02-5.58-1.17-11.12-10.48-13.38-17.15-1.96-5.8.74-13.18,1.38-19.87h73.99Z"/>
          <path class="cls-1" d="m385.31,0c-2.48,15.07-4.15,30.36-8.06,45.05-.88,3.29-10.81,7.61-14.49,6.16C339.8,42.21,336.09,21.23,333.51,0,350.78,0,368.04,0,385.31,0Z"/>
          <path class="cls-1" d="m1717.17,0c-2.45,15.08-4.09,30.37-7.98,45.07-.87,3.29-10.81,7.6-14.54,6.16C1671.51,42.32,1668.21,21.1,1665.38,0,1682.64,0,1699.91,0,1717.17,0Z"/>
          <path class="cls-1" d="m.54,1065.49c9.7,12.97,21.06,25.1,28.34,39.31,3.18,6.21.8,19.42-4.14,24.42-4.46,4.52-15.86,2.18-24.2,2.86,0-22.2,0-44.4,0-66.59Z"/>
          <path class="cls-1" d="m2298.02,0c3.96,7.84,12.55,16.96,10.83,23.24-2.88,10.46-25.18,11.72-35.66,2.59-8.67-7.56-15.57-17.14-23.26-25.82,16.03,0,32.06,0,48.1,0Z"/>
          <path class="cls-1" d="m966.15,0c3.94,7.85,12.5,16.96,10.78,23.26-2.83,10.37-25.27,11.63-35.66,2.55C932.61,18.25,925.72,8.68,918.05,0c16.03,0,32.06,0,48.1,0Z"/>
          <path class="cls-1" d="m2220.32,0c.16,4.85-.63,9.97.65,14.51,3.93,13.97-4.11,19.51-15.35,21.7-12.3,2.4-18.28-5.27-19.57-16.33-.76-6.5.58-13.25.98-19.89,11.1,0,22.2,0,33.3,0Z"/>
          <path class="cls-1" d="m888.46,0c.15,4.85-.63,9.96.62,14.52,3.83,13.93-4.15,19.54-15.41,21.71-12.26,2.36-18.31-5.21-19.51-16.35-.71-6.51.6-13.24,1.01-19.88,11.1,0,22.2,0,33.3,0Z"/>
          <path class="cls-1" d="m67.14,1331.87c26.1-19.77,60.25-19.77,77.69,0h-77.69Z"/>
          <path class="cls-1" d="m1399.01,1331.87c26.18-19.83,60.31-19.83,77.69,0h-77.69Z"/>
          <path class="cls-1" d="m.54,1268.97c3.7,20.96,7.4,41.93,11.1,62.89-6.12-.18-12.61,2.44-11.53-9.29,1.63-17.73.43-35.72.43-53.61Z"/>
          <path class="cls-1" d="m855.16,1331.87c13.06-20.42,19.33-20.42,33.3,0h-33.3Z"/>
          <path class="cls-1" d="m2187.03,1331.87c13.22-20.37,19.63-20.37,33.3,0h-33.3Z"/>
          <path class="cls-1" d="m955.1,647.55c-35.66.18-54.23-17.5-52.53-53.59.59-12.66-4.42-17.72-12.53-25.25-9.98-9.26-17.47-21.63-24.23-33.67-2.32-4.13-.51-11.89,1.7-17,4.94-11.42,10.93-22.44,17.21-33.2,9.54-16.34,18.46-33.27,29.93-48.19,10.79-14.03,25.24-21.13,43.71-10.81,4.64,2.59,12.07,2.6,17.46,1.08,30.98-8.75,58.68,12.28,55.44,45.53-1.7,17.44,2.67,31.01,10.98,45.1,9.12,15.46,13.89,31.35,1.91,48.29-3.74,5.29-5.53,12.45-6.67,19.02-7.5,43.34-48.74,62.67-82.38,62.69Zm58.4-109.71c.71-38.16-40.01-67.19-76.39-53.57-5.84,2.19-11.64,9.27-13.9,15.39-8.47,23.04,9.55,75.87,29.97,89.47,3.68,2.45,9.34,3.6,13.76,2.99,18.98-2.59,46.2-34.86,46.56-54.3Z"/>
          <path class="cls-1" d="m2285.86,647.54c-35.86-.23-52.34-18.73-52.21-56.63.02-6.37-4.71-13.45-8.86-18.99-7.64-10.18-17.58-18.74-24.54-29.3-7.06-10.71-6.52-21.68,4.72-31.14,4.16-3.5,6.5-9.99,8.1-15.57,7.28-25.43,19.46-47.72,39.51-65.36,10.62-9.35,21.62-12.8,35.38-5.62,5.4,2.81,13.31,3.79,19.17,2.22,31.93-8.52,58.84,11.08,56.02,44.61-1.52,18.01,2.94,32.18,11.56,46.79,8.8,14.94,13.03,30.34,1.58,46.64-3.73,5.31-4.92,12.53-6.78,19.02-11.82,41.36-41.1,63.6-83.65,63.33Zm-4.57-169.82c-8.68,6.89-21.05,12.03-25.32,21.02-10.81,22.74,8.34,77.53,29.64,90.75,3.75,2.33,9.48,3.31,13.86,2.5,28.81-5.27,51.98-45.14,42.84-72.89-8.04-24.42-25.77-35.83-61.02-41.38Z"/>
          <path class="cls-1" d="m1347.73,1206.57c8.37-19.39,17.05-38.65,25.02-58.2,8.5-20.85,16.97-40.82,42.59-46.43,33.48-7.32,66.82-13.86,98.22,5.93,27.23,17.16,31.93,40.41,12.57,67.47-6.52,9.11-5.63,15.16-2.83,24.63,3.2,10.82,4.88,23.25,2.73,34.09-1.39,7.03-10.35,13.04-16.81,18.44-4.9,4.1-11.05,6.85-16.91,9.66-20.72,9.95-41.4,19.98-62.45,29.2-4.07,1.78-10.03,1.07-14.5-.38-4.3-1.39-8.33-4.73-11.56-8.09-21.35-22.2-57.8-33.88-51.31-75.63-1.59-.23-3.18-.46-4.78-.69Zm143.12-35.41c-5.38-10.22-7.71-22.21-14.75-26.52-17.22-10.55-56.56,4.37-66.09,22.64-12.82,24.56-7.49,45.11,16.78,64.64,21.69,17.46,38.41,14.01,49.11-11.77,6.32-15.21,9.76-31.61,14.95-49Z"/>
          <path class="cls-1" d="m135.45,1093.94c9.27,2.07,23.1,3.24,35.34,8.25,36.21,14.83,43.81,43.26,22.58,75.87-3.21,4.93-2.75,12.83-2.49,19.3.54,13.25,2.94,26.46,2.78,39.66-.05,4.48-4.54,10.35-8.66,13.08-13.02,8.61-26.45,16.81-40.44,23.71-13.67,6.74-27.86,13.03-42.51,17.04-13.64,3.74-26.93,1.96-34.27-13.71-1.88-4.02-6.55-7.49-10.76-9.53-36.56-17.77-48.76-59.29-27.86-94.34,5.01-8.4,9.44-17.47,12.2-26.81,9.25-31.31,30.92-45.97,62.22-48.87,9.19-.85,18.34-2.09,31.86-3.65Zm18.49,82.19c1.47-.63,2.93-1.26,4.4-1.89-4.77-10.18-6.86-25.17-14.83-29.63-22.3-12.47-61.53,7.19-69.18,31.77-7.49,24.07,1.24,43.58,26.99,60.3,15.53,10.08,26.11,9.45,36.07-6.27,10.22-16.14,22.68-32.64,16.55-54.27Z"/>
          <path class="cls-1" d="m1418.86,451.66c.04,51.19-47.72,80.48-86.19,61.04-9.14-4.62-19.41-6.99-29.19-10.3-11.04-3.74-22.65-6.26-33.08-11.24-47.67-22.77-54.56-73.19-16.3-109.91,9.57-9.19,17.09-20.92,23.95-32.43,17.26-28.96,52.82-41.33,76.71-4.43,4.16,6.42,13.98,8.97,20.6,14.06,8.4,6.46,20.37,12.21,23.47,20.89,9.24,25.84,14.9,52.97,20.03,72.33Zm-148.12-15.64c3.57,4.16,10.21,17.72,15.71,17.27,21.14-1.71,39.23,3.95,58.17,11.95,11.8,4.99,20.56-5.94,16.85-17.83-6.17-19.74-12.19-39.53-18.24-59.31-4.58-14.97-25.51-28.65-34.55-21.31-20.02,16.23-35.01,36.15-37.94,69.23Z"/>
          <path class="cls-1" d="m225.61,773.55c-7.13-44.99,39.49-87.59,86.48-63.12,27.84,14.5,31.42,18.12,25.35,38.15-3.97,13.1-11.46,18.75-26.12,16.59-34.75-5.11-56.95,24.95-46.87,57.63,4.53,14.67.25,32.32-1.36,48.49-.71,7.11-5.33,13.75-7.1,20.86-2.8,11.24-.09,19.34,13.49,20.52,6.07.53,11.99,2.72,18.04,3.8,16.71,2.99,28.21-4.72,32.35-21.47,4.21-17.02,14.38-25.38,28.28-21.87,12.12,3.06,21.33,11.42,15.62,24.11-8.01,17.81-17.44,35.67-29.71,50.7-16.48,20.2-39.4,27.74-64.88,17.82-24.95-9.72-38.79-28.75-42.84-55.51-1.31-8.65-4.25-18.09-9.39-24.95-18.57-24.82-20.26-52.77-4.67-79.09,5.93-10.01,8.96-21.72,13.32-32.66Z"/>
          <path class="cls-1" d="m1622.19,971.73c-31.85-1.87-60.51-29.15-63.96-60.82-.94-8.64-3.82-18.21-8.9-25.06-19.29-25.99-20.55-52.92-4.75-80.54,5.66-9.91,8.86-22.7,8.77-34.14-.26-33.55,22.55-65.55,55.59-66.25,18.86-.4,38.9,8.84,56.34,17.77,4.76,2.44,4.8,20.4,1.78,29.49-1.99,6-14.57,13.78-20.27,12.33-24.25-6.16-37.95,7.3-48.82,24.12-4.58,7.09-6.62,19.96-3.3,27.22,9.06,19.81,6.33,38.25-.02,57.31-2.13,6.4-5.17,12.54-6.76,19.06-2.74,11.26,0,19.3,13.54,20.46,6.06.52,11.96,2.72,18,3.8,16.63,2.96,28.61-4.7,32.27-21.41,3.4-15.55,11.67-24.72,28.25-21.89,11.67,1.99,21.11,10.98,16.32,22.04-10.39,23.98-19.52,49.96-43.74,64.5-9.19,5.52-20.16,8.09-30.32,12.01Z"/>
          <path class="cls-1" d="m830.55,760.79c16.67-15.22,17.22-31.95,14.44-49.21-3.63-22.52-16.87-37.25-38.85-46.11-3.23,4.84-5.66,9-8.6,12.75-2.59,3.3-6.62,9.25-8.51,8.71-13.62-3.86-27.78-7.45-39.93-14.35-10.23-5.81-19.2-17.83-11.55-29.51,6.74-10.29,18.6-22.7,29.24-23.77,19.85-1.99,38.9-1.42,54.68-16.3,2.53-2.39,8.25-2.32,12.36-1.95,16.41,1.49,55.17,33.19,58.06,49.51,1.56,8.77,1.08,21.72-4.23,27.19-15.49,15.93-11.88,31.67-6.15,49.42,10.96,33.96,2.57,52.07-28.62,67.56-14.01,6.96-26.12,5.88-37.15-4.87-14.55-14.18-28.28-28.51-50.77-30.93-4.9-.53-12.4-13.72-11.93-20.61,1.65-23.82,31.35-35.09,49.81-19.58,6.42,5.4,11.48,12.69,16.2,19.76,4.2,6.3,7.05,13.5,11.5,22.28Z"/>
          <path class="cls-1" d="m2163.69,758.27c26-24.95,13.82-80.19-19.25-89.68-3.55-1.02-11.19,3.61-13.23,7.54-7.56,14.56-18.31,14.59-31.07,9.11-3.93-1.69-7.95-3.54-11.33-6.1-11.8-8.95-25.01-17.49-20.18-35.7,4.3-16.25,19.64-26.04,40.22-25.05,14.72.7,27.68-1.33,39.23-11.96,4.26-3.92,14.84-7.18,18.29-4.74,19.58,13.82,39.29,28.1,55.72,45.31,4.89,5.12,3.42,23.92-2.16,30-15.42,16.78-12.21,32.78-6.24,51.17,10.6,32.64,2.95,49.36-26.43,65.37-15.83,8.63-29.37,7.35-41.73-5.5-13.35-13.87-26.75-26.5-47.86-28.26-11.91-.99-15.16-11.36-13.18-22.45,4.08-22.91,32.53-34.64,49.36-18.87,11.64,10.91,19.58,25.78,29.86,39.82Z"/>
          <path class="cls-1" d="m2330.93,1008.69c5.32-14.05,10.65-28.08,15.94-42.14,5.34-14.17,12.01-28.01,15.63-42.61,5.17-20.79,13.94-37.65,34.22-47.39,9.9-4.76,18.67-11.83,28.29-17.25,8.64-4.87,16.18-4.43,21.44,5.79,5.59,10.85,11.84,21.38,18.11,31.86,13.58,22.71,11.75,45.69-4.39,67.87-3.04,4.18-3.62,11.16-3.16,16.67,1.05,12.77,4.73,25.4,5.01,38.13.92,41.79-39.25,65.87-75.86,46.11-2.63-1.42-5.65-2.36-8.6-2.9-35.64-6.51-43.52-16.07-46.65-54.15Zm102.91-28.8c-2.8-17.64-4.07-30.47-7.03-42.91-2.7-11.34-11.48-13.3-19.42-6.26-5.53,4.91-8.5,13.05-11.69,20.16-4.88,10.88-8.38,22.39-13.52,33.12-5.85,12.21,4.64,40.88,17.8,44.86,3.35,1.01,10.08-.15,11.27-2.41,8.78-16.67,16.55-33.87,22.59-46.57Z"/>
          <path class="cls-1" d="m1131.33,1016.82c-.51,29.88-16.35,55.14-45.89,55.38-24.17.2-50.48-10.09-72.04-22.38-16.47-9.39-14.03-54.42-3.17-76.6,8.75-17.88,15.57-36.82,21.86-55.76,5.66-17.04,13.64-31.38,30.47-39.59,14.17-6.92,29.81-21.99,41.63-19.34,11.17,2.51,18.49,23.22,27.03,36.24,15.27,23.28,13.72,47.83-2.43,69.52-3.34,4.49-3.88,12.21-3.33,18.22,1.05,11.52,3.81,22.87,5.86,34.3Zm-29.2-36.91c-2.53-15.37-3.94-27.54-6.78-39.35-1.14-4.72-5.09-11.86-8.4-12.23-5-.56-12.01,2.54-15.5,6.46-4.21,4.73-5.72,11.9-8.25,18.08-4.06,9.91-7.22,20.28-12.16,29.72-6.81,13.01,3.13,42.23,17.18,46.31,3.34.97,9.96-.32,11.19-2.64,8.6-16.1,16.18-32.74,22.71-46.36Z"/>
          <path class="cls-1" d="m1837.71,873.27c25.41-.18,48.08,15.2,55.97,40.04,2.02,6.36.76,19.17-2.72,20.74-7.27,3.28-17.15,1.87-25.71.66-3.49-.49-5.97-6.1-9.58-8.26-3.99-2.39-11.37-6.13-12.77-4.75-10.86,10.79-25.74,21.48-28.82,34.66-1.83,7.84,14.45,21.36,24.72,29.7,3.2,2.6,15.18-1.42,20.06-5.83,19.73-17.82,40.15-19.71,58.97-3.6,16.09,13.77,16.39,32.31.9,54.53-19.47,27.92-39.63,30.75-67.1,10.79-7.08-5.14-16.21-8.52-24.89-10.2-34.72-6.75-68.75-49.6-65.2-84.88.6-5.98,6.09-14.7,11.2-16.36,11.72-3.8,16.42-10.63,19.2-21.91,6.69-27.18,17.68-35.12,45.76-35.32Z"/>
          <path class="cls-1" d="m429.15,943.28c2.3-2.39,8.09-8.18,13.61-14.23,5.72-6.27,13.86-11.92,16.26-19.35,9.38-29.08,21.6-38.3,52.81-36.34,23.97,1.5,49.62,24.37,52.04,47.48.48,4.6-2,12.74-5.04,13.81-6.97,2.47-15.3,2.74-22.73,1.61-4.12-.63-7.28-6.27-11.35-8.92-3.96-2.58-11.25-6.98-12.43-5.83-11.29,11.04-24.1,21.76-31.32,35.31-5.05,9.47,17.57,31.38,31.07,30.95,5.68-.18,12.13-4.76,16.6-9.03,17.13-16.37,37.76-17.81,56.14-3,15.98,12.88,17.63,30.46,4.81,51.15-20.19,32.59-40.66,36.21-71.6,13.51-5.66-4.16-12.99-6.96-19.94-8.29-37.26-7.1-68.97-44.44-68.93-88.84Z"/>
          <path class="cls-1" d="m930.37,226.05c13.34-1.72,26.72-3.18,40.01-5.21,35.07-5.36,62.91,16.78,66.22,52.22,1.48,15.8,3.89,31.55,6.65,47.19,6.3,35.77-23.74,72.56-58.87,71.59-17.93-.49-24.39-7.31-23.63-25.2.71-16.6,5.85-30.97,18.84-42.52,6.18-5.49,12.67-12.77,14.57-20.36,2.01-8.02.9-18.67-3.21-25.57-1.94-3.26-14.08-.51-21.59-.36-6.58.14-13.37,1.62-19.7.48-13.42-2.42-18.92,1.08-15.36,15.39,1.45,5.82,2.29,12.37,1.17,18.15-2.95,15.15-22.13,22.08-30.71,10.29-15.35-21.08-36.73-40.29-21.54-72.42,11.25-23.79,13.58-27.46,47.14-23.67Z"/>
          <path class="cls-1" d="m2262.45,226.07c13.33-1.74,26.69-3.25,39.98-5.28,35.82-5.46,63.75,17.72,66.23,54.23.99,14.58,3.46,29.13,6.24,43.51,7.11,36.73-22.74,74.31-58.67,73.3-17.85-.5-26.51-7.81-22.93-25.12,3.06-14.79,11.57-28.61,18.7-42.32,3.57-6.87,11.78-11.93,13.66-18.94,2.2-8.23,2.41-19.24-1.62-26-2.24-3.75-14.89-1.44-22.85-1.57-7.18-.12-14.49,1.04-21.52.07-11.7-1.61-16.28,1.98-13.82,14.07,1.32,6.52,3.41,14.15,1.23,19.77-2.31,5.95-8.5,12.41-14.41,14.33-4.83,1.58-14.2-1.33-17.28-5.45-16.41-21.93-34.97-42.94-19.22-74.65,9.59-19.3,13.86-23.68,46.29-19.94Z"/>
          <path class="cls-1" d="m829.31,211.68c-28.23-3.09-41.67-13.38-51.18-37.87-2.89-7.45-11.03-13.08-17.4-18.84-2.53-2.28-7.96-1.62-10.08-4.04-7.69-8.8-17.44-17.5-20.46-27.96-1.48-5.11,8.84-16.12,16.17-20.69,10.73-6.7,22.31-10.38,35.67-.49,13.35,9.88,17.95,22.09,20.57,37.12,3.31,18.95,13.48,27.76,29.74,25.44,5.61-.8,11.09-5.96,15.55-10.25,2.88-2.77,3.56-7.72,5.68-11.44,4.65-8.18,9.57-16.21,14.38-24.29-11.7-5.92-23.31-12.03-35.17-17.63-2.61-1.23-6.11-.41-9.12-.98-16.9-3.23-27.23-15.26-24.93-28.86,1.78-10.55,18.87-19.47,33.19-15.47,19.44,5.44,38.73,11.77,57.51,19.17,21.3,8.39,34.1,25.78,42.71,46.22,7,16.62,3.31,24.38-14.41,27.74-12.45,2.36-18.55,7.34-21.69,20.4-2.15,8.95-9.67,19.2-17.69,23.6-15.25,8.37-32.58,12.97-49.05,19.14Z"/>
          <path class="cls-1" d="m2160.26,208.42c-27.66-.21-40.8-10.56-50.04-33.96-3.11-7.88-11.97-13.64-18.66-19.87-2.07-1.92-6.7-1.35-8.38-3.38-7.8-9.39-17.59-18.46-21.12-29.44-1.47-4.58,9.67-15.61,17.23-20.12,10.99-6.55,22.37-9.13,35.59.85,13.53,10.21,17,22.85,19.84,37.55,3.53,18.27,14.56,27.1,30.71,24.2,5.18-.93,10.2-5.54,14.15-9.58,2.82-2.88,3.53-7.74,5.54-11.52,4.62-8.69,9.46-17.26,14.2-25.88-11.92-5.58-23.77-11.33-35.82-16.62-2.68-1.17-6.13-.43-9.11-1.08-16.49-3.59-27.47-16.9-23.34-29.84,5.1-16.01,20.19-16.62,32.13-14.04,20.23,4.38,40.01,11.67,59.27,19.48,21.16,8.57,33.56,26.16,42.07,46.76,6.07,14.69,2.02,24.64-14.16,26.59-13.75,1.65-18.72,8.56-22.35,21.67-7.91,28.6-34.28,31.84-58.16,37.39-3.55.83-7.34.66-9.57.84Z"/>
          <path class="cls-1" d="m1233.41,73.35c-.87,18.3-4.64,34.69-20.03,47.63-8.12,6.83-12.87,17.83-18.67,27.23-14.55,23.6-42.02,35.37-63.87,5.15-3.36-4.65-9.09-9.36-14.46-10.48-18.69-3.89-26.09-16.84-30.13-33.35-2.05-8.37-2.67-17.44-6.37-25.01-15.31-31.38-3.97-55.25,21.72-73.12,8.3-5.78,22.13-7.7,32.36-5.75,19.71,3.76,38.81,11.07,57.87,17.74,28.34,9.92,42.1,26.93,41.58,49.95Zm-46.98,3.3c-8.77-7.76-13.58-14.87-20.08-17.14-11.15-3.89-23.31-5.22-35.16-6.64-4.3-.52-9.93.61-13.05,3.24-1.9,1.6-.99,7.74.07,11.44,3.36,11.7,7.81,23.09,11.03,34.82,3.84,14.01,18.87,25.5,25.83,18.08,11.31-12.06,19.6-26.96,31.36-43.81Z"/>
          <path class="cls-1" d="m2570.04,76.23c-7.99,14.39-15.65,28.98-24.09,43.1-5.97,10-13.37,19.14-19.46,29.07-14.4,23.47-42.13,35.13-63.91,4.81-3.33-4.64-9.11-9.2-14.5-10.37-17.7-3.85-25.28-15.84-29.49-31.76-3.62-13.67-7.32-27.34-11.73-40.77-9.21-28.04,9.52-43.68,26.55-59.53,14.09-13.12,29.33-6.85,44.81-.91,14.24,5.47,29.52,8.17,44.03,13.02,29.2,9.75,43.61,27.13,43.08,50.73,1.57.87,3.14,1.74,4.71,2.61Zm-50.85-1.12c-10.19-7.14-15.98-13.19-23.02-15.65-10.02-3.51-20.91-4.78-31.54-6.22-4.49-.61-10.03-.48-13.61,1.73-2.09,1.29-2.46,7.68-1.49,11.19,3.56,12.9,8.11,25.52,12.09,38.31,3.96,12.73,19.28,22.96,25.66,15.88,11.09-12.3,19.4-27.1,31.9-45.24Z"/>
          <path class="cls-1" d="m1398.9,184.85c.08,28.82-52.14,73.27-75.81,69.32-50.89-8.48-79.07-59.48-62.2-111.57,3.13-9.67,4.59-20.1,5.28-30.29,2.37-35.19,36.17-52.79,65.37-33.4,6.09,4.04,12.55,8.66,16.52,14.57,14.97,22.25,29.54,44.82,43.06,67.96,4.81,8.23,6.21,18.45,7.78,23.41Zm-101.25-22.33c6.32,12.13,14.09,27.69,22.7,42.77,1.26,2.2,6.56,2.91,9.99,2.9,15.55-.03,27.32-11.03,24.71-27.7-2.68-17.15-8.83-34.31-16.69-49.84-3.26-6.44-15.01-11.86-22.68-11.57-4.74.18-10.04,11.52-13.25,18.67-2.68,5.95-2.68,13.11-4.78,24.77Z"/>
          <path class="cls-1" d="m577.39,748.04c-8.67,19.29-19.04,47.23-33.48,72.89-10.63,18.89-31.17,26.75-52.27,31.44-26.45,5.88-52.1-10.84-57.02-36.96-1.79-9.47-4.8-18.95-8.79-27.72-6.72-14.79-5.52-29.34,6.53-38.7,16.11-12.51,34.74-21.84,52.53-32.12,6.31-3.64,13.12-6.65,20.05-8.91,10.38-3.38,20.94-7.67,31.63-8.34,28.03-1.76,40.96,11.45,40.82,48.42Zm-58.89-10.08c-10.7,4.31-19.05,5.08-22.7,9.62-10.81,13.46-20.32,28.09-28.91,43.07-1.43,2.5,3.26,10.37,7.03,13.37,2.84,2.26,9.14,1.91,13.16.55,6.28-2.13,11.7-6.66,17.88-9.19,17.9-7.31,24.29-22.37,24.67-39.59.13-5.88-7.22-11.92-11.12-17.84Z"/>
          <path class="cls-1" d="m1909.33,748.01c-8.57,19.12-18.92,47.07-33.34,72.74-11.01,19.6-32.32,27.35-53.98,32.03-25.03,5.41-50.64-11.99-55.45-37.14-1.81-9.47-4.83-18.93-8.77-27.73-6.59-14.71-5.79-29.34,6.31-38.77,16.1-12.54,34.7-21.91,52.49-32.21,6.3-3.65,13.14-6.66,20.08-8.84,10.98-3.45,22.17-7.93,33.43-8.47,27.06-1.3,39.24,11.72,39.23,48.38Zm-46.09,2.28c-4.51-2.7-11.07-9.9-15.91-8.88-10.26,2.16-21.7,6.56-28.82,13.81-8.61,8.77-14.08,21.08-19.14,32.63-1.58,3.62,1.18,11.21,4.48,14.3,3.09,2.9,10.01,4.01,14.35,2.77,6.89-1.98,12.8-7.11,19.52-9.95,17.93-7.59,22.15-23.22,25.53-44.69Z"/>
          <path class="cls-1" d="m698.09,1050.26c47.61-1.79,75.42,22,78.56,65.7.52,7.28-6,20.54-11.09,21.51-8.5,1.62-19.36-2.94-27.48-7.82-4.98-2.99-6.49-11.52-9.94-17.34-6.26-10.56-16.87-15.26-26.58-9-8.26,5.32-16.55,15.48-18.07,24.62-.94,5.65,10.16,14.11,17.04,19.91,3.31,2.79,10.37.99,13.96,3.66,7.7,5.72,19.61,12.77,19.9,19.69.37,8.71-7.06,21.14-14.86,26.08-15.79,10.01-34.24,7.49-48.39-4.37-15.8-13.25-30.88-28.02-43.46-44.3-15.34-19.87-10.57-42.55,8.47-59.15,5.78-5.04,11.17-11.04,15.11-17.58,11.9-19.76,29.82-24.18,46.83-21.59Z"/>
          <path class="cls-1" d="m2030.84,1050.49c49.55-5.19,67.99,18.89,77.64,66.72,1.25,6.21-6.49,19.21-12.18,20.64-7.67,1.93-18.35-2.81-25.91-7.59-4.97-3.15-6.54-11.51-9.94-17.36-6.08-10.47-16.44-16.13-26.24-9.67-8.61,5.68-16.65,16.2-18.82,25.95-1.08,4.86,11.08,13.31,18.14,19.05,2.96,2.41,8.19,2.19,12.43,2.85,12.37,1.91,22.87,8.58,20.97,21.12-1.41,9.34-8.5,20.66-16.47,25.57-15.28,9.41-33.21,6.92-46.74-4.5-16.23-13.69-31.11-29.3-44.71-45.63-5.34-6.41-7.91-17.07-7.8-25.74.37-27.73,47.03-71.35,74.77-71.41,3.07,0,6.15,0,4.85,0Z"/>
          <path class="cls-1" d="m363.47,587.92c-6.17,22.95-10.27,46.72-19.08,68.6-7.97,19.8-24.72,22.61-44.67,13.81-8.48-3.74-18.48-3.91-27.57-6.46-7.42-2.09-16.88-3.27-21.33-8.42-14.37-16.62-29.27-33.59-39.47-52.81-15.67-29.52,10.34-67.13,43.37-67.18,17.67-.02,35.34-3.58,53.02-3.67,36.68-.2,56.12,19.96,55.73,56.13Zm-86.28-11.98c-.55-1.48-1.09-2.96-1.64-4.44-6.84,2.91-17.57,4.24-19.55,9.12-2.63,6.47-1.3,19.34,3.4,23.08,13.25,10.52,29.04,24.44,43.92,24.53,16.87.11,17.63-21.62,19.71-36.75.33-2.42.81-4.86.84-7.29.2-14.91-8.4-20.54-22.8-15.43-7.83,2.77-15.91,4.81-23.88,7.18Z"/>
          <path class="cls-1" d="m1596.51,536.2c9.01-1.04,24.15-3.87,39.37-4.35,47.8-1.53,70.77,32.47,53.33,76.94-4.2,10.71-5.54,22.58-7.93,33.97-6.38,30.46-25.25,39.51-52.71,25.69-5.78-2.91-13.04-6.05-18.9-5.02-16.68,2.91-26.87-5.24-35.92-17.08-8.2-10.73-16.12-21.71-24.82-32.03-17.92-21.28-7.3-41.58,1.9-61.66,7.82-17.08,23.5-17.62,45.68-16.46Zm14.14,39.87c-.62-1.62-1.24-3.24-1.86-4.86-7.33,3.1-19.76,4.97-20.86,9.56-1.95,8.12,0,21.57,5.69,26.2,12.17,9.9,28.13,22.13,41.86,21.35,16.83-.96,17.58-21.93,19.51-37.13.23-1.82.63-3.63.71-5.46.73-16.32-7.75-22.42-22.98-16.83-7.26,2.66-14.71,4.8-22.07,7.17Z"/>
          <path class="cls-1" d="m913.56,1117.61c-10.04,34.91-5.25,70.17-25.51,99.96-8.67,12.74-17.8,15.55-31.05,8.4-4.09-2.21-10.06-5.42-13.29-3.98-18.83,8.42-28.99-2.31-41.15-14.3-14.12-13.93-9.04-28.2-7.97-44.29,3.1-46.42,34.67-73.99,64.51-102.81,13.25-12.79,34.15-8.12,40.98,9.41,6.16,15.82,9.4,32.78,13.47,47.6Zm-38.17,23.07c-1-2.2-2.49-11.73-7.76-14.82-3.68-2.16-14.13,2.91-18.72,7.55-7.99,8.07-15.69,17.5-20.01,27.83-5.4,12.9,3.37,21.55,17.07,19.23,17.78-3.01,28.85-15.93,29.43-39.78Z"/>
          <path class="cls-1" d="m2245.39,1117.23c-9.71,34.48-4.53,70.05-25.37,99.34-3.1,4.36-6.57,9.58-11.1,11.5-4.57,1.94-11.18,1.69-16-.07-22.7-8.28-53.69,1.4-65.96-29.61-1.98-5.01-3.84-10.87-3.16-16,4.5-34.08,10.66-67.63,37.56-92.78,9.44-8.83,18.27-18.3,27.66-27.18,15.11-14.3,35.88-10.81,43.42,8.53,5.95,15.26,8.99,31.65,12.97,46.27Zm-35.96,28.28c-3.04-6.82-4.44-16.25-9.69-19.55-3.5-2.2-13.82,2.85-18.72,7.28-7.57,6.83-14.4,15.25-18.99,24.3-2.52,4.95-2.09,14.5,1.22,18.41,3.12,3.68,12.42,4.92,17.85,3.33,15.74-4.62,27.51-13.85,28.32-33.76Z"/>
          <path class="cls-1" d="m408.96,1066.33c-3.55-1.75-9.58-4.53-15.44-7.64-28.57-15.15-52.83-2.63-56.56,29.05-.79,6.67-1.78,13.56-4.2,19.75-7.39,18.87-8.97,35.27,11.64,47.78,9.08,5.51,9.03,16.67.19,21.42-11.68,6.27-25.93,12.93-38.22,11.6-16.04-1.73-25.71-16.48-27.93-32.74-.86-6.32,1.79-15.81,6.37-19.7,14.51-12.34,13.17-26.68,8.67-42.06-8.78-30.05-5.73-56.9,18.67-79.34,35.03-32.2,98.94-18.8,117.46,25.02,5.73,13.55-3.01,26.85-20.64,26.87Z"/>
          <path class="cls-1" d="m1687.04,996.36c36.77.38,57.02,16.69,71.86,39.83,3.55,5.53,3.34,18.86-.68,22.52-5.29,4.82-16.1,4.84-24.45,4.54-4.9-.18-9.4-5.59-14.49-7.61-25.4-10.08-46.88,3.04-50.34,29.73-1.41,10.89-4.08,21.73-7.37,32.22-4.36,13.91-2.41,24.33,10.12,33.76,15.11,11.37,13.92,21.01-1.6,31.46-23.9,16.08-54.77,3.55-59.53-24.96-1.08-6.5.35-16.7,4.67-20.23,17.5-14.28,14.09-31.3,9.17-48.82-7.38-26.25-3.9-49.58,15.4-70.1,14.99-15.93,33.57-21.82,47.23-22.34Z"/>
          <path class="cls-1" d="m1384.89,912.38c-21.22,2.51-31.3-5.1-34.04-26.13-3.26-25-2.76-49.21,18.65-67.97,4.22-3.7,5.95-10.49,8.24-16.1,13.64-33.35,46.76-42.5,74.51-20.1,13.87,11.19,29.95,22.25,29.44,42.25-.31,12.06-6.11,24.01-9.7,35.94-2.02,6.71-6.04,13.13-6.64,19.9-2.9,32.76-31.88,49.82-61.16,35.95-5.74-2.72-12.83-2.56-19.3-3.73Zm27.95-41.46c12.89-.23,25.51-1.97,26.28-17.05.43-8.3-3.64-19.69-9.77-24.82-10.44-8.75-21.51-4.88-29.19,7.19-2.18,3.42-6.6,5.36-9.76,8.22-9.63,8.69-7.31,16.29,3.25,21.4,5.85,2.83,12.76,3.45,19.19,5.06Z"/>
          <path class="cls-1" d="m224.34,362.66c4.89-32.84,20.16-59.48,38.14-84.08,8.21-11.24,23.58-9.08,33.32-.22,18.91,17.19,37.46,35.17,53.39,55.04,7.32,9.13,11.26,23.65,10.73,35.45-.35,7.7-10.31,17.24-18.33,21.28-3.64,1.83-18.33-7.12-18.86-12.15-2.84-26.83-31.42-29.91-42.47-49.06-5.15-8.92-14.85-2.76-15.49,5.51-.65,8.45.91,19.92,6.27,25.4,11.34,11.59,26.75,19.12,38.61,30.32,7.17,6.77,15.3,17.44,14.99,26.06-.48,13.2-10.76,23.03-25.75,24.52-28.22,2.79-40.3-4.9-50.98-31.17-2.73-6.72-7.95-12.38-11.21-18.94-4.53-9.12-8.28-18.63-12.37-27.97Z"/>
          <path class="cls-1" d="m17.58,870.23c-.17-19.04,3.25-36.42,18.34-50.29,5.05-4.64,7.62-12.31,10.45-18.97,13.66-32.11,46.47-40.93,73.57-19.27,14.97,11.96,30.99,24.09,30.38,45.76-.28,9.97-4.35,19.95-7.42,29.7-2.8,8.87-8.5,17.2-9.55,26.16-3.49,29.66-33.49,46.35-60.65,32.94-3.68-1.82-8.08-2.92-12.18-3.01-34.87-.73-42.74-8.49-42.94-43.03Zm63.22.18c12.55.16,25.66-1.05,26.27-16.22.35-8.65-4.46-20.3-10.99-25.76-9.85-8.25-20.49-3.68-27.57,7.61-1.84,2.94-5.64,4.61-8.34,7.08-11.31,10.33-9.85,18.81,4.58,24.19,5.04,1.88,10.68,2.12,16.05,3.11Z"/>
          <path class="cls-1" d="m1809.76,684.45c-31.61-.45-59.68-19.56-70.51-50.33-2.29-6.51-.32-19.22,4.24-22.26,5.9-3.94,16.61-2.27,24.77-.65,4.79.95,8.53,6.7,12.97,9.98,9.58,7.08,17.53,5.48,25.71-3.4,15.3-16.61,31.77-32.14,46.98-48.82,2.83-3.1,3.44-9.84,2.48-14.35-1.09-5.14-4.82-9.84-7.89-14.41-6.03-8.97-20.19-15.38-9.79-29.45,8.22-11.11,33.14-17.54,43.7-8.36,9.9,8.61,17.95,21.47,22.08,34.02,4.21,12.77-7.78,19.38-17.28,27.09-7.47,6.06-12.6,17.15-14.86,26.91-2.27,9.81.68,20.75.69,31.19.02,39.42-24.27,63.38-63.32,62.82Z"/>
          <path class="cls-1" d="m1623.47,440.62c-27.12-.96-34.24-6.03-43.28-30.16-.86-2.3-1.23-5.14-2.82-6.76-24.88-25.25-20.25-53.88-8.12-82.23,6.6-15.42,14.92-30.87,25.78-43.45,8.93-10.35,23.52-8.32,33.4.84,18.28,16.96,36.88,34.1,52,53.75,7.78,10.11,10.71,25.69,11.13,38.94.2,6.24-9.75,16.14-16.87,18.17-5.36,1.53-18.95-6.11-19.58-10.88-3.43-26.17-30.68-30.64-42.11-49.3-5.41-8.84-17.83-3.9-16.75,7.39,1.02,10.7,6.29,22.31,13.09,30.78,6.63,8.26,16.98,14.24,26.76,19.08,13.83,6.84,25.97,14.66,20.53,31.95-4.88,15.51-16.45,24.31-33.15,21.87Z"/>
          <path class="cls-1" d="m476.78,684.44c-31.47-.84-59.99-20.93-69.91-51.27-2.03-6.2-.25-17.61,4.11-20.91,5.39-4.09,15.36-3.14,23.22-2.54,3.53.27,6.69,5.02,10.06,7.68,15.5,12.22,20.93,11.07,33.78-3.24,13.86-15.43,29.23-29.5,43.39-44.68,2.72-2.92,4.8-8.73,3.82-12.29-1.73-6.3-5.53-12.25-9.36-17.72-6.61-9.42-20.93-16.89-7.03-30.69,11.95-11.85,35.22-13.3,47.68-3.4,22.72,18.05,20.99,41.29-2.21,58.58-7.16,5.34-11.97,16.37-13.82,25.6-2.11,10.55.7,22.01.63,33.06-.25,39.02-25.22,62.85-64.36,61.8Z"/>
          <path class="cls-1" d="m2035.74,937.86c0-11.03-.28-21.49.07-31.92.51-15.17,8.24-24.16,23.69-25.42,14.95-1.22,31.48,10.03,35.31,24.44,3.9,14.69-.34,26.31-13.7,34.82-6.37,4.06-11.47,10.12-17.14,15.27,8.71,7.27,17.43,14.54,26.14,21.81,8.03-9.85,18.04-18.77,23.34-29.92,3.12-6.58-1.09-16.73-2.26-25.23-2.04-14.85,4.42-23.89,18.9-26.45,15.41-2.72,23.1,5.29,24.84,20.02.58,4.88.65,9.83,1.3,14.7,5.5,41.19-2.47,56.44-40.36,76.93-31.65,17.11-59.5,13.9-86.89-10.01-11.08-9.68-16.35-39.56-8-51.33,2.59-3.64,8.78-4.72,14.77-7.69Z"/>
          <path class="cls-1" d="m703.8,937.35c0-10.27-.14-20.11.03-29.94.25-14.83,6.62-24.82,22.3-26.76,15.52-1.92,33.04,9.46,36.87,24.71,3.67,14.63-.4,26.41-14.27,34.45-6.25,3.62-11.4,9.13-17.05,13.79,7.75,7.49,14.85,15.95,23.7,21.77,2.22,1.46,10.17-5.32,15.23-8.7,15.33-10.24,12.4-25.25,9.93-39.93-3.21-19.11,2.5-29.43,17.92-31.7,15.51-2.29,22.67,5.32,24.65,26.14.23,2.45.09,5.05.88,7.32,12.95,36.95-8,58.23-35.59,75.82-30.11,19.2-56.24,17.87-85.83-3.17-15.78-11.22-23.17-37.66-13.96-54.26,2.33-4.2,9.14-5.91,15.19-9.55Z"/>
          <path class="cls-1" d="m2076.11,282.29c-2.52,20.73-5.94,44.28-29.91,58.39-4.95,2.91-8.53,8.65-11.9,13.66-12.64,18.8-35.35,30.13-53.01,25.99-16.15-3.79-38.11-28.81-38.07-48,.03-14.79,1.21-39.13,9.09-42.53,22.18-9.58,27.66-28.66,39.41-45.01,9.15-12.72,23.58-23.59,39.3-4.1,2.69,3.33,10.03,3.39,15.34,4.05,21.77,2.69,29.92,11.84,29.75,37.54Zm-88.33,30.88c3.43,3.04,13.12,14.97,15.92,13.53,12.26-6.32,22.53-16.52,33.52-25.31-5.54-4.78-10.8-13.22-16.68-13.68-21.73-1.69-32.92,6.06-32.76,25.46Z"/>
          <path class="cls-1" d="m610.48,322.88c.47-28.05,5.27-34.29,30.52-43.8,3.63-1.37,7.15-7.88,7.51-12.27,1.44-17.92,13.44-26.87,27.37-34.17,3.35-1.75,10.31-2.76,11.79-.96,10.05,12.22,24.54,11.66,37.66,15.84,6.94,2.21,14.35,10.11,17.05,17.16,8.13,21.19-5.45,59.22-23.71,73.1-5.73,4.35-11.39,9.39-15.43,15.24-14.34,20.76-37.7,32.35-55.87,26.77-18.86-5.8-37.27-34.2-36.88-56.91Zm45.38-9.68c3.41,3.02,13.13,14.96,15.91,13.52,12.24-6.35,22.48-16.56,33.44-25.37-5.54-4.79-10.79-13.22-16.68-13.7-21.46-1.75-32.91,6.21-32.67,25.55Z"/>
          <path class="cls-1" d="m419.83,350.87c-1.24-37.99,24.49-62.59,70.6-53.87,7.97,1.51,16,12.71,20.23,21.3,4.85,9.84,7.67,19.46,20.86,19.69,1.71.03,3.52,1.12,5.06,2.08,14.99,9.31,24.03,63.44,13.35,79.6-14.7,22.22-50.59,27.81-72.15,10.82-8.73-6.88-24.15-12.72-17.23-26.48,6.26-12.46,16.67-24.09,34.6-23.58,5.68.16,11.54-5.98,17.31-9.24-3.64-5.64-6.41-12.19-11.12-16.73-9.21-8.89-19.78-19.54-32.32-5.63-5,5.55-6.57,14.38-9.11,21.91-2.33,6.91-3.87,14.09-5.76,21.15-8.27-3.34-19.48-4.45-24.08-10.56-6.12-8.12-7.08-20.13-10.25-30.47Z"/>
          <path class="cls-1" d="m1750.51,351.3c-.09-38.82,26.95-63.37,72.24-54.14,8.22,1.68,13.81,15.3,21.04,23,5.75,6.12,12.04,11.76,18.36,17.31,1.74,1.52,4.68,1.58,6.7,2.88,15.1,9.8,24.19,64.32,12.61,79.64-13.37,17.68-51.04,32.03-72.06,10.06-7.07-7.39-18.82-19.43-16.72-24.65,5.15-12.86,15.46-24.57,33.09-24.9,6.14-.11,12.19-5.23,18.28-8.06-3.67-6.15-6.44-13.13-11.2-18.26-9.77-10.52-21.45-18.57-33.62-3.78-4.39,5.34-5.31,13.7-7.29,20.82-1.85,6.64-3,13.47-4.46,20.21-7.47-2.02-18.14-1.69-21.74-6.57-7.14-9.66-10.38-22.21-15.23-33.56Z"/>
          <path class="cls-1" d="m1109.35,682.96c1.56-8.39.97-17.58,5.01-23.7,4.78-7.24,13-15.52,20.76-16.73,11.66-1.83,18.37,7.73,19.93,19.67,1.36,10.38,1.43,21.29,4.99,30.88,2.43,6.55,9.51,15.21,15.18,15.73,7.05.65,17.36-4.34,21.39-10.23,3.08-4.51-.96-14.29-2.62-21.55-5.1-22.29-12.15-44.28-15.3-66.82-1.72-12.24,12.8-18.17,21.71-8.84,9.52,9.96,18.64,21.84,23.29,34.58,6.27,17.16,12.66,36.47,10.63,53.89-2.37,20.31-13.65,39.62-21.43,59.22-.72,1.8-4.05,3.68-6.15,3.66-23.8-.3-47.89.93-71.23-2.66-7.41-1.14-15.32-14.56-18.5-23.89-4.68-13.76-5.33-28.89-7.66-43.19Z"/>
          <path class="cls-1" d="m2441.07,682.65c1.84-8.78,1.6-19.12,6.23-26.35,4.2-6.55,14.12-13.86,20.76-13.19,6.66.66,14.82,9.73,17.89,16.99,3.94,9.31,1.87,21.07,5.37,30.68,2.63,7.21,9.14,16.52,15.44,17.89,6.47,1.4,17.96-3.85,21.37-9.64,3.11-5.29-1.32-15.29-3.05-23.07-4.86-21.78-11.52-43.29-14.52-65.31-1.69-12.4,12.32-18.53,21.47-9.57,8.98,8.8,17.99,19.45,22.01,31.02,6.61,19.02,14.01,39.89,12.16,59.13-1.93,20.11-14.28,39.25-22.45,58.67-.74,1.75-4.12,3.28-6.34,3.36-19.73.79-39.66,3.13-59.16,1.22-17.96-1.76-29.87-12.63-30.89-33.06-.64-12.78-4.02-25.43-6.27-38.76Z"/>
          <path class="cls-1" d="m2560.61,1172.38c-11.46,44.25-7.89,92.84-52.37,120.33-9.2,5.69-17.5,15.89-29.11,5.42-12.04-10.86-25.19-22.95-15.47-40.82,5.17-9.51,15.39-16.43,23.8-24,8.04-7.23,17.83-12.82,24.74-20.92,7.02-8.23,7.02-18.05-2.58-25.97-10.46-8.64-22.93-16.03-30.38-26.82-6.68-9.68-9.82-23.15-10.39-35.14-.3-6.19,6.99-15.37,13.26-18.76,21.11-11.43,30-9.03,45.14,11.33,10.77,14.49,19.98,30.14,29.56,45.48,2.18,3.49,3.04,7.81,3.81,9.87Z"/>
          <path class="cls-1" d="m1127.98,1273.76c2.68-22.09,11.54-32.58,25.7-39.99,8.5-4.45,17.04-9.94,23.5-16.88,9.27-9.97,12.13-21.4-.8-31.82-10.09-8.13-22.16-15.1-29.11-25.43-6.59-9.79-9.75-23.18-10.31-35.18-.29-6.18,6.96-15.38,13.2-18.73,21.58-11.55,29.4-8.99,45.27,11.18,8.24,10.48,16.22,21.17,24.21,31.85,16.91,22.6,3.41,46.54.52,68.83-3.84,29.71-15.13,58.6-44.06,74.75-7.76,4.34-20.38,10.28-25.41,7.08-10.35-6.6-17.09-18.87-22.72-25.68Z"/>
          <path class="cls-1" d="m1411.25,229.51c7.13-27.72,14.51-52.56,43.64-62.6,2.22-.76,4.31-2.23,6.12-3.78q24.29-20.69,34.48,9.75c2.31,6.96,4.67,14.18,5.15,21.41.78,11.74-2.69,19.8-17.54,19.74-23.03-.09-29.13,9.25-22.9,31.85,1.31,4.73,2.25,9.89,4.86,13.86,2.85,4.33,8.18,11.06,11.11,10.45,6.08-1.27,12.59-5.7,16.48-10.73,3.47-4.49,3.05-11.78,5.4-17.39,6.66-15.94,25.55-19.28,37.66-6.98,12.62,12.81,15.2,34.91,6.26,53.47-9.09,18.87-27.29,29.98-45.84,27.87-14.56-1.65-23.28-10.43-27.59-23.78-3-9.27-6.15-15.11-18.17-10.67-12.18,4.49-22.37-1.8-27.03-13.14-5.3-12.89-8.32-26.72-12.08-39.32Z"/>
          <path class="cls-1" d="m79.2,230.42c7.38-27.91,13.94-53.6,44.33-63.87,5.22-1.76,8.72-8.24,13.38-12.09,11.05-9.13,18.51-6.92,23.01,6.67,2.7,8.16,5.73,16.27,7.56,24.63,4.57,20.86.54,25.99-20.55,27.71-16.29,1.33-23.04,9.62-20.19,25.83,1.16,6.6,2.85,13.48,6.08,19.23,2.74,4.88,8.6,12.04,12.11,11.53,5.88-.85,12.08-6.14,16.07-11.2,3.14-3.97,2.64-10.61,4.64-15.72,7.01-17.91,27.93-21.4,39.76-6.18,12.52,16.12,13.13,33.93,4.26,52.12-8.61,17.65-22.71,27.39-42.42,27.44-15.37.04-25.34-8.63-30.15-22.82-3.29-9.7-6.14-15.07-19.36-12.25-7.5,1.6-20.83-5.07-25.17-12-7.2-11.49-9.28-26.2-13.36-39.05Z"/>
          <path class="cls-1" d="m2532.58,504.51c-1.2,21.72-5.3,38.15-27.72,42.84-4.02.84-7.24,5.92-10.65,9.24-12.12,11.81-27.16,10.59-39.32,3.7-6.98-3.96-11.7-16.05-12.9-25.08-1.7-12.84,5.76-19.89,20.18-20.06,5.73-.07,14.67-4.85,16.38-9.57,3.12-8.61,1.93-18.77,2.54-28.29-7.81-.44-17.89-4.07-22.88-.54-6.61,4.68-8.89,15.2-13.7,22.78-3.54,5.58-8.58,15.02-12.23,14.7-7.39-.66-19.95-6.21-20.42-10.76-1.93-18.9-5.47-40.39,1.4-56.85,13.37-32.06,47.2-30.94,76.28-15.41,29.34,15.67,35.88,46.46,43.05,73.28Z"/>
          <path class="cls-1" d="m1200.36,509.68c-1.2,17.61-5.88,33.13-27.23,37.64-4.04.85-7.34,5.8-10.7,9.14-12.06,11.95-27.1,10.7-39.28,3.89-7-3.91-11.78-15.96-13.03-24.97-1.79-12.82,5.58-19.97,20.03-20.2,5.77-.09,14.73-4.76,16.45-9.46,3.16-8.6,2.01-18.78,2.65-28.29-7.81-.51-17.87-4.25-22.86-.75-6.64,4.65-9,15.15-13.81,22.75-3.54,5.59-8.45,15.14-12.07,14.84-7.42-.63-20.05-6.09-20.53-10.62-1.98-18.9-5.72-40.54,1.29-56.82,13.22-30.7,41.5-31.5,74.66-16.68,28.17,12.59,41.95,53.21,44.43,79.55Z"/>
          <path class="cls-1" d="m623.29,670.64c-3.57,7.77-7.14,15.53-10.71,23.3-8.16-4.05-16.8-7.36-24.38-12.3-21.25-13.84-12.88-33.27-7.98-51.2,4.05-14.79,9.74-29.18,15.27-43.52,8.94-23.17,18.92-28.46,45.13-25.12,2.91.37,6.21.45,8.88-.54,25.44-9.46,42.1-2.83,50.46,25.24,6.64,22.29,18.09,45.33,7.07,69.62-2.59,5.71-8.34,14.71-11.79,14.34-7.22-.77-16.05-5.27-20.11-11.1-3.52-5.05.31-14.69-2.14-21.15-3.64-9.61-8.74-19.47-15.96-26.37-1.85-1.77-16.86,5.37-20.74,11.59-8.48,13.57-13.7,29.17-20.25,43.95,2.42,1.09,4.84,2.17,7.26,3.26Z"/>
          <path class="cls-1" d="m1954.82,671.62c-3.23,7.44-6.46,14.88-9.69,22.32-7.82-3.45-16.28-5.92-23.34-10.53-21.08-13.75-15.68-33.4-9.86-52.39,4.5-14.69,9.87-29.14,15.3-43.53,8.94-23.67,19.43-29.51,44.69-25.8,2.93.43,6.26.76,8.96-.15,26.81-9.07,43.58-2.04,51.6,26.08,6.41,22.47,16.94,45.61,6.31,69.77-2.31,5.24-7.46,13.13-11.13,13.04-6.86-.18-16.22-3.58-19.67-8.84-3.8-5.79-.61-15.72-3.18-22.86-3.49-9.66-8.35-19.6-15.38-26.68-1.79-1.8-17.09,4.88-20.82,10.96-8.66,14.12-14.05,30.25-20.77,45.56,2.33,1.02,4.66,2.03,6.98,3.05Z"/>
          <path class="cls-1" d="m620.04,186.51c-3.21,18.07-5.16,36.48-10.05,54.08-3.42,12.32-12.03,22.39-27.48,18.14-14.29-3.93-21.54-14.15-20.26-28.97,1.17-13.44,4.53-26.7,5.35-40.14,1.12-18.5-18.24-46.86-35.25-53.61-20.88-8.29-28.65-24.87-20.2-43.13,7.66-16.55,27.33-22.67,45.76-11.67,39.35,23.49,67.31,54.35,62.13,105.31Z"/>
          <path class="cls-1" d="m1951.54,187.06c-2.76,16.91-4.37,34.11-8.64,50.63-3.57,13.79-11.73,25.73-29.06,20.87-16.25-4.55-21.52-17.04-19.41-33.04.56-4.25,1.77-8.41,2.64-12.62,8.19-39.94-2.78-61.52-40.32-79.36-13.79-6.56-19.49-23.78-13.07-39.55,6.22-15.27,23.86-23.87,39.95-15.3,32.57,17.33,61.92,38.72,65.03,80.47.68,9.19,1.02,18.41,1.51,27.61.46.1.91.2,1.37.31Z"/>
          <path class="cls-1" d="m1319.26,778.47c-12.54-6.16-23.31-8.57-29.66-15.2-10.9-11.39-19.77-24.98-27.98-38.56-3.11-5.14-2.64-12.8-2.72-19.32-.11-8.91,1.34-17.84,1.19-26.75-.21-12.81,2.81-26.16,16.59-26.55,24.5-.69,50.14-.94,73.39,5.52,21.61,6,27.37,23.87,20.87,46.25-5.27,18.12-10.66,36.92-20.32,52.79-5.86,9.63-19.93,14.25-31.35,21.82Zm-14.73-99.45c-2.89,3.74-13.62,13.29-12.02,16.35,5.73,10.89,15.66,19.57,24,29.09,7.44-8.65,20.29-16.85,21.07-26.06,1.22-14.42-13.46-18.2-33.05-19.37Z"/>
          <path class="cls-1" d="m1101.4,300.01c5.77-45.67,12.07-71.45,53.79-85.54,16.67-5.63,33.67-11.22,50.97-13.78,17.25-2.55,26.58,6.59,27.23,22,.68,16.24-9.96,29.88-25.24,30.84-7.88.49-15.9-1.25-23.86-1.84-23.31-1.7-31.47,6.43-29.82,29.48.83,11.65,2.53,23.34,2.03,34.94-.58,13.68-6.02,26.71-20.72,29.35-16.01,2.87-24.91-8.33-29.38-22.34-2.76-8.67-3.9-17.86-4.99-23.11Z"/>
          <path class="cls-1" d="m2487.73,279.37c0,14.09,2.45,28.78-.84,42.06-2.27,9.17-11.01,20.43-19.48,23.5-11.82,4.29-21.2-4.86-27.06-16.73-18.3-37.06.53-93.93,38.44-109.87,18.94-7.97,39.14-13.98,59.36-17.56,17.24-3.05,26.51,6.41,27.14,21.96.66,16.25-9.96,29.9-25.24,30.79-8.5.49-17.11-1.53-25.7-1.98-21.23-1.1-29.37,7.08-26.62,27.83Z"/>
          <path class="cls-1" d="m1369.41,1114.92c-9.07,8.7-14.21,16.87-21.47,19.83-10.79,4.41-16.44-2.73-18.88-13.73-2.89-13.01-14.53-15.03-22.98-9.65-5.55,3.53-7.08,14.7-8.49,22.78-.54,3.1,6.23,7.14,6.21,10.73-.04,7.88-.16,17.26-4.35,23.1-3.03,4.22-13.46,6.4-19.12,4.67-7.71-2.36-17.38-7.85-20.27-14.55-7.44-17.27-18.44-37.25-15.3-53.71,3.63-19.03,17.14-41.54,33.2-51.4,18.14-11.14,42.58-3.72,57.97,15.16,11.37,13.93,21.03,29.25,33.47,46.78Z"/>
          <path class="cls-1" d="m914.98,875.92c-.81,8.34-1.7,16.67-2.4,25.02-1.18,14.08,3.86,32.88-16.67,35.57-19.27,2.52-22.82-15.12-27.04-29.19-7.43-24.78-.97-47.7,12.11-68.63,13.02-20.83,43.64-24.62,63.45-8.68,22.57,18.16,30.3,43.39,27.9,70.7-.79,9.01-11.48,17.15-17.64,25.69-7.02-6.63-15.79-12.19-20.61-20.15-5.6-9.25-7.73-20.6-11.37-31.03-2.57.23-5.15.47-7.72.7Z"/>
          <path class="cls-1" d="m2246.79,876.12c-.74,8.34-1.51,16.68-2.21,25.03-1.18,14.09,3.61,32.95-16.96,35.38-19.12,2.26-22.67-15.39-26.88-29.46-7.42-24.81-.8-47.73,12.31-68.58,12.72-20.24,42.46-24.33,61.99-9.37,23.63,18.09,31.76,43.79,29.18,71.85-.83,8.99-11.6,17.06-17.82,25.55-6.96-6.74-15.59-12.47-20.44-20.48-5.57-9.22-7.8-20.46-11.48-30.82-2.56.31-5.13.61-7.69.92Z"/>
          <path class="cls-1" d="m1472.54,706.14c6.21-9.72,9.22-16.59,14.15-21.52,4.77-4.77,11.79-10.74,17.35-10.29,5.71.46,13.07,6.97,15.86,12.71,13.12,26.9,1.92,64.98-24.67,78.36-7.47,3.76-23.98,1.49-29.24-4.38-22.75-25.38-43.34-52.76-63.47-80.34-3.25-4.45-2.39-14.97.8-20.01,2.28-3.61,11.58-3.39,17.82-3.77,21.86-1.34,34,9.98,39.7,30.43,1.53,5.48,6.14,10.11,11.69,18.81Z"/>
          <path class="cls-1" d="m141.06,706.03c6.27-10.11,9.84-16.46,13.97-22.41,10.16-14.63,25.29-13.46,32.97,2.37,13.06,26.92,1.5,67.36-25.44,79.88-7.6,3.53-23.79.67-29.23-5.39-22.37-24.92-42.6-51.85-62.38-78.94-3.37-4.62-3.36-15.56-.08-20.04,2.96-4.04,12.5-4.03,19.21-4.41,20.95-1.18,32.84,9.56,38.45,29.37,1.67,5.9,6.78,10.83,12.53,19.58Z"/>
          <path class="cls-1" d="m2661.02,890.02c-2.02,2.41-7.03,13.38-12.65,13.7-6.07.34-15.3-7.98-18.64-14.75-12.2-24.74-38.87-36.25-63.66-25.11-13.9,6.25-24.17.87-32.01-9.92-8.78-12.08-10.4-25.08.82-36.94,21.2-22.41,61.03-25.2,85.86-6.9,24.83,18.29,38.52,42.35,40.28,79.93Z"/>
          <path class="cls-1" d="m1330.82,888.33c-3.81,4.39-8.34,14.04-14.82,15.59-4.72,1.13-12.31-8.07-18.08-13.27-12.48-11.23-23.79-24.04-37.41-33.59-4.2-2.94-14.9,1.37-21.64,4.49-16.59,7.68-28.82,5.22-38.11-9.27-9.4-14.65-6.35-29.69,8.13-40.12,42.23-30.42,103.32-6.78,114.77,44.4,2,8.95,4.03,17.89,7.16,31.75Z"/>
          <path class="cls-1" d="m2585.58,976.06c-24.77-.38-39.27-11.24-48.21-33.87-2.2-5.56-8.53-9.69-13.43-13.95-16.12-13.99-18.15-32.63-4.58-44.55,12.69-11.14,30.05-7.84,39.09,7.3,4.04,6.76,7.37,14.43,12.97,19.57,3.26,2.99,10.74,3.28,15.67,2.09,6.97-1.69,13.13-7.8,20-8.49,8.42-.85,20.95-1.08,24.95,3.87,5.66,7.01,8.23,19.54,6.64,28.76-3.21,18.67-33.76,39.56-53.1,39.27Z"/>
          <path class="cls-1" d="m1253.61,976.04c-24.66-.31-39.61-11.22-48.01-33.95-1.51-4.09-6.05-7.03-9.08-10.6-5.47-6.45-12.55-12.21-15.92-19.63-6.44-14.2.07-25.58,13.03-32.09,12.85-6.46,23.97-1.98,31.9,9.69,4.43,6.51,6.93,15.02,12.68,19.71,4.18,3.42,12.5,3.46,18.54,2.44,6.4-1.07,12.15-7.03,18.43-7.49,8.49-.62,20.96-1.05,24.94,3.9,5.66,7.04,8.2,19.55,6.65,28.81-3.12,18.62-33.65,39.46-53.16,39.21Z"/>
          <path class="cls-1" d="m1061.43,1192.61c-.09-1.54-.17-6.47-.67-11.35-3.1-30.4,7.51-49.6,36-60.61,5.04-1.95,15.82,1.4,18.88,5.82,7.56,10.9,13.07,23.33,5.38,37.63-3.29,6.12-4.1,13.84-4.94,20.96-2.66,22.38-4.24,44.89-7.4,67.19-1.3,9.14-7.78,10.94-16.72,7.22-20.99-8.73-33.02-32.81-30.52-66.86Z"/>
          <path class="cls-1" d="m2392.8,1199.24c0-7.91.41-12.87-.07-17.73-3.02-30.9,6.68-49.07,35.8-60.54,5.32-2.1,17.62,2.98,20.85,8.3,6.4,10.53,11.46,22.95,2.84,36.25-3.36,5.19-3.49,12.74-4.24,19.32-2.54,22.39-4.15,44.9-7.27,67.2-1.25,8.9-7.49,11.25-16.63,7.54-20.73-8.41-33.32-33.28-31.27-60.33Z"/>
          <path class="cls-1" d="m1800.07,537.54c-12.32-3.2-19.14,2.52-20.92,15.4-.08.6-.3,1.19-.51,1.77-5,14.07-6.05,31.96-27.75,30.59-15.06-.95-27.83-18.02-30.15-39.36-2.18-20.03,6.04-33.22,21.89-39.81,10.88-4.53,19.97-13.53,30.94-17.66,10.08-3.79,23.04-7.64,32.12-4.31,10.01,3.67,20.65,14.07,24.55,24.07,6.16,15.79-9.8,30.14-30.16,29.32Z"/>
          <path class="cls-1" d="m465.13,536.89c-10.83-2.67-15.25,4.94-18.48,16.8-3.86,14.18-4.98,32.26-26.68,31.66-14.97-.42-27.33-15.47-30.8-36.56-3.8-23.07,5.51-36.68,27.68-44.47,8.73-3.06,16.52-9.66,23.8-15.77,11.95-10.04,28.65-10.79,44.17-.24,11.71,7.95,18,18.17,12.38,33.02-5.25,13.85-15.15,18.51-32.07,15.56Z"/>
          <path class="cls-1" d="m1839.99,263.48c-9.67-6.39-19.49-12.56-28.95-19.25-4.85-3.43-8.57-8.61-13.64-11.56-17.11-9.97-22.33-25.52-21.17-43.86,1.09-17.24,9.44-30.14,25.19-38.03,12.14-6.08,21.28-3.23,27.92,8.47,10.27,18.1,20.81,36.05,30.74,54.33,3.18,5.85,5.96,12.39,6.89,18.9,2.78,19.49-4.93,27.63-26.98,31Z"/>
          <path class="cls-1" d="m508.27,263.7c-9.97-6.86-20.02-13.61-29.87-20.64-4.87-3.48-9.06-7.98-14.12-11.13-16.04-9.98-21.05-25.07-20-42.7,1.02-17.22,9.14-30.24,24.82-38.28,11.96-6.14,21.37-3.85,28.08,7.92,10.91,19.14,22,38.19,32.36,57.63,3.09,5.79,5.35,12.68,5.66,19.18.86,18.13-5.81,24.26-26.93,28.03Z"/>
          <path class="cls-1" d="m1503.98,489.31c2.14-9.95,3.32-20.24,6.74-29.73,2.49-6.9,7.95-12.73,12.08-19.04,6.41,5.22,16.33,9.24,18.63,15.88,9.5,27.56,1.18,53.38-13.86,76.73-11.03,17.13-43.38,17.52-57.09,1.62-14.07-16.32-19.26-36.21-15.53-56.72,1.42-7.79,11.58-13.99,17.76-20.91,5.38,5.73,11.21,11.12,15.97,17.32,3.19,4.15,4.86,9.47,7.21,14.26,2.69.19,5.39.39,8.08.58Z"/>
          <path class="cls-1" d="m172,489.38c2.18-9.96,3.41-20.26,6.84-29.76,2.5-6.91,7.9-12.77,12.01-19.1,6.43,5.21,16.37,9.21,18.67,15.85,9.52,27.56,1.21,53.41-13.86,76.75-11.5,17.81-46.57,18.55-57.64-.07-8.69-14.62-13.69-32.71-15.25-49.72-.74-8.06,8.61-21.49,16.6-24.86,11.88-5,15.01,8.2,18.31,17.56,1.56,4.43,4.31,8.44,6.52,12.64,2.6.24,5.19.48,7.79.73Z"/>
          <path class="cls-1" d="m117.55,559.67c14.46,10.02,27.12,17.61,38.33,26.92,10.18,8.46,19.67,18.12,27.73,28.58,4.55,5.9,5.61,14.49,8.24,21.87-7.98,2.14-17.44,8.06-23.64,5.64-13.09-5.1-24.12-15.23-36.74-21.87-4.35-2.29-11.89-2.27-16.28-.01-10.3,5.28-18.87,14.56-29.51,18.35-7.84,2.79-17.86-.54-26.91-1.14,1.34-7.77,1.09-16.3,4.37-23.13,5.27-10.98,11.47-22.21,19.89-30.78,8.81-8.97,20.7-14.91,34.53-24.44Z"/>
          <path class="cls-1" d="m1449.73,559.67c14.39,10.1,26.96,17.78,38.15,27.12,10.17,8.48,19.76,18.05,27.82,28.51,4.53,5.88,5.44,14.54,7.98,21.94-8,2.04-17.46,7.81-23.7,5.36-13.07-5.14-24.08-15.28-36.7-21.91-4.33-2.28-11.89-2.07-16.32.21-10.3,5.3-18.87,14.59-29.53,18.34-7.81,2.76-17.82-.7-26.84-1.39,1.43-7.75,1.33-16.24,4.62-23.09,5.29-10.98,11.39-22.29,19.81-30.83,8.82-8.95,20.79-14.8,34.71-24.27Z"/>
          <path class="cls-1" d="m2131.1,387.66c-2.21,16.01,2.49,27,20.19,31.13,16.36,3.82,15.92,16.95,12.07,29.53-4.03,13.17-11.04,23.68-27.74,20.45-44.68-8.66-68.55-65.12-42.72-102.81,3.33-4.86,13.86-9.89,17.94-8.03,7.93,3.62,14.11,11.7,19.99,18.78,1.81,2.18.28,7.13.28,10.95Z"/>
          <path class="cls-1" d="m751.05,405.2c2.1-10.8,2.11-22.69,7-32.03,3.71-7.08,15.92-16.67,20.32-14.93,8.49,3.34,19.81,13.88,19.85,21.49.1,20.51,2.18,35.22,25.73,41.49,13.92,3.71,10.28,17.86,6.95,28.44-3.98,12.64-11.56,23.38-26.74,18.95-37.14-10.84-53.42-27.83-53.11-63.41Z"/>
          <path class="cls-1" d="m1696.64,247.24c-29.5.03-68.81-37.06-67.75-59.88.27-5.93,5.98-14.81,11.14-16.55,7.13-2.4,16.53-.6,24.12,1.92,4.53,1.5,7.43,7.85,11.14,11.96,8.25,9.16,16.97,12.36,29.29,6.15,16.37-8.26,26.02-3.89,33.4,12.62,7.28,16.3,3.91,28.06-11.88,34.84-11.13,4.78-23.29,7.13-29.45,8.94Z"/>
          <path class="cls-1" d="m366.49,247.2c-31.05.17-70.35-36.73-69.5-59.67.22-5.93,6.21-15.68,10.87-16.55,8.47-1.56,21.53-.98,26.29,4.38,13.77,15.52,25.9,24.4,47.23,12.55,4.09-2.27,18.11,7.07,23.12,14.18,7.2,10.21,10.01,24.56-3.92,32.26-12.59,6.96-27.15,10.34-34.08,12.85Z"/>
          <path class="cls-1" d="m2592.68,275.83c-8.66,23.21-15.26,46.76-26.08,68.18-9.9,19.6-45.24,27.14-63.84,16.14-11.4-6.74-9.79-17.25-2.59-25.19,16.31-17.99,33.97-34.75,50.91-52.17,4.59-4.72,8.03-10.68,13.02-14.85,3.96-3.32,10.07-7.33,14.14-6.38,4.54,1.06,7.85,7.37,14.45,14.28Z"/>
          <path class="cls-1" d="m402.33,1184.25c-21.94-.31-35.86-4.75-38.47-21.67-2.42-15.68,5.93-25.76,22.76-27.12,11.54-.93,12.95-8.72,13.02-18.34.1-13.73-3.24-29.96,16.29-34.2,13.1-2.84,28.59,9.53,35.47,27.05,6.88,17.53,2.21,30.48-12.96,41.2-6.68,4.72-11.14,12.45-17.32,18.03-7.18,6.49-15.12,12.14-18.79,15.03Z"/>
          <path class="cls-1" d="m1016.25,821.37c-38.02.15-71.59-35.67-68.09-68.33.63-5.86,7.63-15.46,11.91-15.58,8.65-.25,22.2,2.3,25.32,8.16,9.89,18.6,20.33,29.07,43.48,23.33,4.32-1.07,14.88,12.13,18.16,20.47,4.14,10.54,2.43,22.78-10.88,27.6-7.97,2.88-16.69,3.68-19.9,4.34Z"/>
          <path class="cls-1" d="m2342.47,822.7c-32.59-1.41-66.56-38.32-62.36-70.21.77-5.82,8.07-15.19,12.38-15.2,8.66-.03,21.64,2.74,25.2,8.83,9.95,17.01,18.81,29.27,41.85,22.76,4.48-1.27,15.56,10.02,18.75,17.57,4.55,10.76,4.72,24.11-9.13,30.05-8.26,3.54-17.75,4.23-26.69,6.21Z"/>
          <path class="cls-1" d="m1260.28,277.21c-8.15,22.28-14.42,43.92-23.89,64.07-9.55,20.33-41.08,31.14-65.87,18.44-11.67-5.98-9.33-17.1-1.99-25.07,16.44-17.87,34-34.7,51-52.06,4.21-4.3,7.52-9.62,12.16-13.32,4.43-3.54,10.83-8.58,14.95-7.52,4.71,1.22,7.85,8.46,13.64,15.46Z"/>
          <path class="cls-1" d="m1734.39,1184.22c-21.93-.24-35.96-4.63-38.57-21.51-2.61-16.9,7.24-25.33,24.3-28.26,4.6-.79,9.74-10.82,10.79-17.23,2.2-13.5-2.57-29.86,16.78-34.31,12.98-2.99,28.59,9.36,35.57,26.9,6.96,17.47,2.32,30.63-12.72,41.3-6.68,4.74-11.24,12.37-17.41,17.96-7.17,6.5-15.06,12.22-18.73,15.15Z"/>
          <path class="cls-1" d="m624.21,899.32c-19.67-.76-36.39-11.75-47.19-30.1-9.78-16.61-.37-31.77,10.64-43.21,6.13-6.37,17.82-7.38,27-10.8,1.2,8.12,2.25,16.27,3.66,24.35.93,5.36,2.38,10.64,3.6,15.96,6.96-2.13,15.55-2.43,20.49-6.83,7.2-6.42,7.39-24.54,23.04-15.2,13.63,8.14,7.7,21.71,3.54,33.24-7.41,20.53-23.03,32.26-44.78,32.59Z"/>
          <path class="cls-1" d="m1954.19,899.18c-19.14-1.4-35.98-12.49-45.95-31.3-8.82-16.65,1.09-31.69,12.26-43.05,5.83-5.93,18-10.65,25.52-8.77,11.93,2.98,6.54,14.21,4.61,23.31-1.04,4.9.9,14.66,3.18,15.2,5.59,1.34,12.21-1.17,18.3-2.64,1.4-.34,2.49-2.61,3.42-4.17,4.96-8.41,7.11-22.76,21.68-14.52,12.18,6.89,8.49,18.97,5.06,29.75-7.53,23.62-23.86,36.67-48.06,36.2Z"/>
          <path class="cls-1" d="m680.47,486.27c-3.74,6.15-7.22,14.8-13.35,20.69-2.87,2.76-11.8,1.92-16.17-.52-2.88-1.61-4.68-9.82-3.21-13.62,3.49-8.98,6.08-16.79-4.85-21.61-11.31-4.99-16.19,1.55-21.08,11.11-2.1,4.11-11.46,8.36-15.3,6.87-6.28-2.45-13.63-8.72-15.4-14.86-4.16-14.47,19.44-48.37,34.41-52.29,20.19-5.28,39.17,5.87,46.95,28.77,3.52,10.38,4.93,21.48,8,35.46Z"/>
          <path class="cls-1" d="m2011.92,483.95c-2.32,5.75-3.44,14.05-8.17,18.63-4.26,4.12-12.47,4.16-18.94,6-1.48-6.15-5.56-13.16-3.87-18.26,3.15-9.49,2.41-17.33-7.05-18.85-5.65-.91-15.86,3.92-18.04,8.82-4.3,9.7-10.42,13.04-18.4,9.02-6.12-3.09-12.99-9.66-14.5-15.89-3.65-15.1,20.34-48.18,35.37-51.56,20.49-4.6,38.96,6.8,46.48,29.76,3.23,9.86,4.55,20.35,7.11,32.32Z"/>
          <path class="cls-1" d="m199.09,958.67c-1.45,5.57-2.91,16.13-6.94,25.59-7.68,18-17.65,19.78-31.67,5.66-9.18-9.25-17.72-7.66-28.44-3.55-6.33,2.42-14.21.81-21.39,1.01.6-7.82-1.87-18.8,2.34-22.9,15.63-15.18,32.17-30.31,50.84-41.22,17.88-10.45,34.91,5.64,35.26,35.42Z"/>
          <path class="cls-1" d="m1530.9,959.07c-1.23,4.9-2.59,14.81-6.22,23.81-7.79,19.33-17.99,21.55-32.48,6.81-10.07-10.25-19.04-6.91-30.03-2.27-5.57,2.35-16.11,2.55-18.97-.85-3.32-3.94-3.05-14.2-.2-19.46,11.95-22.03,31.68-36.05,54.46-45.03,18.1-7.13,33.44,8.3,33.45,36.99Z"/>
          <path class="cls-1" d="m2348.69,192.39c-14.85-5.31-30.46-9.21-44.16-16.65-5.41-2.94-11.06-16.68-8.67-20.33,4.45-6.82,16.05-15.09,22.27-13.48,18.98,4.91,32.8,4.83,43.31-14.89,1.84-3.45,17.86-3.4,23.8.46,6.78,4.41,13.92,15.25,13.31,22.67-1.63,19.82-29.23,40.4-49.87,42.21Z"/>
          <path class="cls-1" d="m1011.24,190.16c-7.88-2.74-24.06-6.74-38.43-14.21-5.46-2.84-11.3-16.55-8.96-20.27,4.33-6.87,15.91-15.32,22.08-13.75,18.93,4.83,32.78,4.88,43.34-14.81,1.89-3.52,17.82-3.55,23.81.25,6.84,4.34,14.08,15.04,13.61,22.51-1.17,18.86-28.23,40.06-55.45,40.27Z"/>
          <path class="cls-1" d="m1033.31,675.46c20.1,2.3,34.66,13.48,40.1,31.05,2.77,8.95-2.13,22.65-7.88,31.34-9.43,14.24-20.65,12.15-30.94-1.95-2.63-3.61-8.42-6.29-13.05-6.81-14.73-1.65-32.81,2.62-36.47-18.5-2.92-16.88,10.62-29.21,34.1-33.53,4.8-.88,9.71-1.11,14.15-1.59Z"/>
          <path class="cls-1" d="m2359.44,675.59c23.13.12,37.78,11.07,44.59,28.07,3.5,8.73.31,22.78-4.7,31.7-9.33,16.61-21.29,14.92-33.21.27-3.75-4.62-13.34-4.84-20.42-6.32-11.72-2.47-26.62-1.15-28.61-17.28-1.96-15.84,6.27-27.01,22.07-31.49,7.61-2.16,15.38-3.76,20.28-4.94Z"/>
          <path class="cls-1" d="m96.2,1027.48c1.03-2.71,2.42-10.3,6.43-16.07,7.1-10.2,15.65-15.04,27.21-3.8,3.63,3.53,11.25,3.74,17.11,4.02,11.1.54,22.25.03,33.38-.05-.54,10,.17,20.27-1.88,29.96-3.79,17.91-24.98,30.54-44.1,27.66-22.74-3.42-39.22-19.38-38.15-41.71Z"/>
          <path class="cls-1" d="m1428.19,1026.38c1.67-3.37,3.93-13.45,10.21-18.69,4.47-3.73,14.45-1.65,21.83-.85,6.32.68,12.37,4.26,18.66,4.7,11.08.76,22.25.11,33.39.04-.56,10.01.13,20.28-1.93,29.96-3.83,18-24.88,30.55-44.09,27.68-22.64-3.39-39.14-19.4-38.07-42.84Z"/>
          <path class="cls-1" d="m840.76,414.4c-7.2-9.74-13.44-17.49-18.9-25.75-4.5-6.81-6.96-15.26-12.31-21.17-11.12-12.27-8.39-30.85,6.74-38.16,14.36-6.94,36.37.2,48.89,15.88,13.62,17.05,16.77,38.27,5.25,50.49-6.68,7.08-16.86,10.87-29.66,18.72Z"/>
          <path class="cls-1" d="m2209.06,375.86c-.01,17.7-12.28,31.62-30.41,33.24-17.29,1.54-23.21-9.42-26-24.41-1.03-5.51-4.3-11.95-8.63-15.21-10.08-7.61-13.91-18.09-7.19-26.93,5.74-7.55,17.1-14.68,26.25-15.04,23.9-.95,45.99,24.1,45.97,48.36Z"/>
          <path class="cls-1" d="m349.87,100.46c33.71,2.82,55.64,28.39,44.91,53.54-7.44,17.43-20.79,21.43-37.37,12.16-6.63-3.71-14.57-4.99-21.58-8.13-7.75-3.48-19.73-6.36-21.55-12.13-2.63-8.33-.89-21.82,4.66-28.02,7.48-8.34,20.36-11.85,30.92-17.43Z"/>
          <path class="cls-1" d="m1681.81,100.45c30.21,2.9,51.36,23.18,46.94,46.51-4.33,22.81-20.97,29.87-40.98,18.12-5.99-3.52-13.58-4.2-20.04-7.06-7.76-3.44-19.72-6.37-21.53-12.14-2.62-8.33-.86-21.81,4.7-28.01,7.48-8.34,20.36-11.84,30.92-17.42Z"/>
          <path class="cls-1" d="m946.63,1076.94c3.62-5.13,10.2-20.19,14.64-19.58,10.63,1.45,21.45,8.96,29.88,16.57,5.78,5.22,7.42,14.87,11.38,22.3,8.79,16.49,1.65,39.74-15.46,49.49-19.12,10.89-31.82,3.62-32.8-18.35-.35-7.87-2.07-15.68-3.26-23.5-1.11-7.26-2.35-14.5-4.38-26.93Z"/>
          <path class="cls-1" d="m2341.89,1114.78c-7.54,10.21-13.31,23.08-23.21,30.31-17.69,12.93-31.14,4.29-32.6-17.59-.89-13.35-6.17-26.75-5.16-39.79.84-10.84,5.54-23.72,13.07-31,6.66-6.44,25.88,8.82,31.01,21.89,4.35,11.11,10.05,21.69,16.89,36.18Z"/>
          <path class="cls-1" d="m1002.64,95.01c-4.17,3.99-8.47,7.86-12.48,12-8.18,8.46-14.09,21.85-29.31,16.48-13.26-4.67-17.87-20-12.75-37.69,6.91-23.85,23.17-35.71,47.53-34.7,17.32.72,32.05,19.58,26.56,35.98-1.86,5.55-9.11,9.3-13.9,13.87-1.89-1.99-3.77-3.97-5.66-5.96Z"/>
          <path class="cls-1" d="m2335.58,94.75c-4.51,4.09-9.24,7.97-13.5,12.31-8.25,8.4-14.18,21.82-29.34,16.48-13.21-4.65-17.82-20.15-12.71-37.76,7.08-24.41,24.66-36.72,49.39-34.58,16.71,1.45,30.8,22.44,24.28,37.74-2.08,4.88-8.29,8-12.61,11.93-1.84-2.04-3.67-4.08-5.51-6.12Z"/>
          <path class="cls-1" d="m2057.65,526.33c.49-9.29,1.81-19.5,17.89-15.9,3.87.87,9.08.31,12.4-1.69,16.65-10.07,27.87.73,28.47,13.26.76,15.95-6.3,32.47-11.46,48.27-.73,2.24-10.22,3.55-14.82,2.28-20.55-5.66-32.62-22.73-32.48-46.22Z"/>
          <path class="cls-1" d="m744.58,511.62c4.1-1,8.88-.98,12.18-3.19,13.42-8.95,20.73-.54,26.95,9.29,6.3,9.95-.77,47.32-10.81,53.08-16.08,9.22-28.78-2.78-36.25-13.01-7.16-9.81-8.55-24.72-9.53-37.61-.29-3.86,9.31-8.48,14.38-12.75,1.03,1.4,2.06,2.79,3.08,4.19Z"/>
          <path class="cls-1" d="m325.12,802.85c8.83-10.04,14.29-21.89,21.72-23.3,9.6-1.81,22.09,2.65,30.91,8.24,9.36,5.94,11.08,16.51,4.42,27.63-3.92,6.56-6.17,14.5-7.54,22.11-2.44,13.49-11.63,19.14-21.03,9.29-11.19-11.72-18.14-27.5-28.48-43.98Z"/>
          <path class="cls-1" d="m1682.68,776.97c26.94,0,39.6,20.66,30.74,39.41-3.3,6.99-5.97,14.72-6.82,22.34-1.59,14.31-9.85,13.97-19.49,9.82-17.22-7.42-30.49-43.1-20.81-59.09,4.09-6.76,13.42-10.34,16.38-12.48Z"/>
          <path class="cls-1" d="m2645.69,589.42c-3.64,4.56-7.76,12.84-14.43,17.38-10.79,7.34-23.53,5.68-31.48-4.44-5.18-6.59-7.27-16.58-8.1-25.3-.71-7.48,3.45-15.31,3.46-22.99,0-14.19,7.49-20.15,20.48-13.55,17.83,9.06,25.33,25.59,30.08,48.91Z"/>
          <path class="cls-1" d="m1312.22,592.02c-2.41,2.8-6.85,10.84-13.65,15.19-11.07,7.08-23.5,4.66-31.42-5.37-4.89-6.19-7.04-15.63-7.64-23.82-.59-8.13,3.3-16.5,3.44-24.8.23-13.32,6.86-18.18,19.97-13.22,14.08,5.34,29.67,29.64,29.29,52.01Z"/>
          <path class="cls-1" d="m1551.51,1238.79c6.4-9.77,11.14-21.53,19.74-28.66,6.26-5.19,21.76-8.82,25.79-5.13,8.53,7.81,15.31,20.48,16.76,31.93.82,6.5-9.68,15.19-16.38,21.52-3.09,2.93-9.34,2.39-14.08,3.72-21.75,6.12-27.93,1.55-31.83-23.39Z"/>
          <path class="cls-1" d="m1950.76,67.41c.35-19.61,10.78-33.22,24.86-32.43,17.69.99,36.85,17.01,31.66,30.23-5.69,14.53-16.93,28.77-29.52,38-7.51,5.5-27.27-20.84-27.01-35.8Z"/>
          <path class="cls-1" d="m680.25,69.05c-11.13,11.69-20.57,26.25-33.96,34.08-9.28,5.43-28.25-21.33-27.38-37.26,1.03-18.92,10.94-31.46,24.47-30.94,17.38.66,33.46,15.48,36.87,34.12Z"/>
          <path class="cls-1" d="m223.33,1240.43c-.71-17.84,9.54-28.95,23.94-36.36,14.14-7.28,25.66.76,34.49,22.65,4.73,11.72-2.12,26.54-15.02,31.57-4.54,1.77-9.57,2.27-14.32,3.57-23.07,6.33-29.27,1.78-29.09-21.42Z"/>
          <path class="cls-1" d="m2120.81,828.71c-.91,18.1-16.99,33.02-32.26,29.91-14.9-3.04-24.37-23.74-21.02-47.31,2.11-14.82,14.06-15.56,25.19-15.1,16.59.7,28.94,15.66,28.09,32.5Z"/>
          <path class="cls-1" d="m760.74,859.25c-16.54-.26-25.88-16.74-25.41-45.63.25-15.26,11.71-17.23,23.09-17.51,17.36-.44,31.13,14.54,30.49,32.06-.59,15.97-14.48,31.3-28.17,31.08Z"/>
          <path class="cls-1" d="m30.66,964.17c17.8-.57,33.88,14.34,34.85,30.66.98,16.37-11.5,30.85-28.3,32.85-.61.07-1.22.16-1.83.18-12.79.56-24.54-17.84-24.64-41.07-.06-13.41,8.13-21.12,19.91-22.63Z"/>
          <path class="cls-1" d="m1397.5,996.28c.08,16.36-13.35,30.62-29.81,31.52-2.4.13-6.57.38-6.98-.63-6.17-15.02-14.85-29.9-16.64-45.54-1.29-11.3,10.57-18.33,23.54-17.25,15.99,1.33,29.81,16.18,29.89,31.89Z"/>
          <path class="cls-1" d="m1457.92,88.4c-.04-17.36,15.27-31.27,33.29-32.45,21.82-1.43,16.68,17.68,20.85,27.9,4.14,10.16-19.57,35.36-29.93,34.84-12.74-.64-24.16-14.94-24.2-30.29Z"/>
          <path class="cls-1" d="m126,88.36c-.02-17.37,15.26-31.21,33.33-32.38,21.83-1.42,16.61,17.75,20.79,27.94,4.17,10.18-19.59,35.31-29.97,34.76-12.75-.68-24.13-14.96-24.15-30.32Z"/>
          <path class="cls-1" d="m1720.78,465.25c-9.9-1.36-22.71-1.28-22.58-18.29.13-17.3,18.63-38.81,33.35-38.88,12.18-.05,21.87,13.79,21.84,31.19-.03,16.95-10.89,26.09-32.61,25.97Z"/>
          <path class="cls-1" d="m388.79,465.29c-10.06-1.37-22.72-1.56-22.5-18.51.22-17.45,18.65-38.69,33.52-38.67,12.02.01,21.85,14.24,21.67,31.35-.18,16.96-10.98,25.97-32.68,25.83Z"/>
          <path class="cls-1" d="m923.85,967.95c10.56,1.16,24.26.95,23.62,19.08-.59,16.93-20.84,37.85-35.34,37.05-12.89-.71-20.97-13.7-20.02-32.17.88-17.12,10.47-24.83,31.74-23.97Z"/>
          <path class="cls-1" d="m808.26,282.52c-20.22.3-19.45-16.2-21.03-28.62-2.19-17.21,8.8-27.92,26.49-27.3,12.62.44,27.83-.5,28.82,17.99.88,16.47-19.29,37.82-34.28,37.93Z"/>
          <path class="cls-1" d="m2147.86,226.37c10.43,1.75,25.88-.32,26.47,18.49.53,16.75-19.39,37.64-34.45,37.7-20.35.08-19.15-16.68-20.78-28.93-2.25-16.93,9.15-27.21,28.75-27.26Z"/>
          <path class="cls-1" d="m2279.51,983.44c-.24,19.22-19.87,40.83-34.57,40.7-13.35-.11-21.38-12.09-20.98-31.29.36-17.16,9.98-25.68,29.1-24.93,12.37.48,25.64.51,26.45,15.51Z"/>
          <path class="cls-1" d="m206.41,1077.88c2.58-29.66,13.47-43.8,28.61-42.3,13.26,1.32,21.99,7.35,20.66,22.39-1.56,17.7-20.53,38.43-34.09,34.52-7.15-2.06-12.17-11.53-15.18-14.61Z"/>
          <path class="cls-1" d="m1587.83,1052.44c-.28,20.33-17.84,40.91-32.41,40.71-12.58-.17-16.71-8.45-16.61-19.62.17-19.74,12.92-38.49,26.06-38.02,13.01.46,22.57,5.41,22.96,16.94Z"/>
          <path class="cls-1" d="m1883.65,1122.3c-.13,14.03-10.1,19.67-23.84,20.68-14.38,1.06-27.22-12.67-27.44-28.45-.23-16.25,12-18.71,23.58-20.05,14.51-1.68,27.17,11.07,27.71,27.82Z"/>
          <path class="cls-1" d="m1998.86,759.7c-12.88.14-25.54-13.4-24.95-29.32.58-15.41,12.76-18.3,24.36-19.41,14.42-1.38,26.75,11.93,26.66,27.06-.1,16.2-10.75,20.66-26.07,21.67Z"/>
          <path class="cls-1" d="m693.06,738.72c-.63,16.27-11.72,20.46-25.15,20.83-14.35.39-27.3-14.29-25.96-29.87,1.27-14.84,13.15-18.1,25.06-18.75,14.39-.79,26.41,12.8,26.05,27.79Z"/>
          <path class="cls-1" d="m551.71,1123.21c-.5,13.55-10.61,19-24.3,19.79-14.27.83-27.22-13.35-26.97-28.96.25-15.99,12.45-18.45,24.11-19.56,14.59-1.39,27,11.56,27.17,28.73Z"/>
          <path class="cls-1" d="m1159.37,847.9c-19.28.07-30.96-11.36-31.07-26.46-.1-14,12.83-28.9,25.96-28.41,11.82.44,22.19,7.58,19.09,19.33-3.28,12.44,6.82,33.64-13.98,35.54Z"/>
          <path class="cls-1" d="m1016.63,1210.51c-.2,13.05-16.77,32.02-24.42,26.55-10.16-7.26-19.9-20.34-21.99-32.29-2.51-14.33,12.87-19.36,25.11-21.1,12.12-1.73,21.54,11.2,21.3,26.85Z"/>
          <path class="cls-1" d="m2510.28,808.69c-12.23,14.52,3.1,37.92-22.75,39.16-15.16.73-27.08-11.17-27.31-26.19-.21-13.97,12.98-30.31,25.65-28.17,8.33,1.41,15.54,9.4,24.41,15.19Z"/>
          <path class="cls-1" d="m2348.59,1208.21c.24,14.34-12.93,29.96-24.05,29.87-9.49-.08-23.4-19.13-23.47-32.15-.06-10.94,14.23-23.24,27-22.48,16.27.96,18.36,13.7,20.52,24.76Z"/>
          <path class="cls-1" d="m2390.64,220.38c.48-16.27,11.15-29.34,23.71-27.1,12.12,2.16,22.32,8.35,22.01,22.99-.33,15.79-14.15,30.09-27.52,29.15-12.57-.89-18.67-9.27-18.21-25.04Z"/>
          <path class="cls-1" d="m1058.68,222.3c.53-18.07,11.21-31.27,23.7-29.08,12.13,2.13,22.25,8.41,22.05,22.96-.21,15.7-14.08,30.26-27.42,29.18-15.53-1.26-18.25-12.16-18.34-23.06Z"/>
          <path class="cls-1" d="m2515.68,1037.62c-.29-16.93,8.52-30.04,21.42-29.25,12.45.77,22.84,6.63,24.01,20.93,1.19,14.62-12.65,31.95-25.33,31.64-14.72-.36-20.27-9.62-20.1-23.32Z"/>
          <path class="cls-1" d="m1183.77,1036.86c-.05-16.67,9.33-29.74,22.15-28.47,12.35,1.22,22.6,7.21,23.23,21.68.65,14.92-13.27,31.51-26.07,30.85-14.91-.77-19.54-10.67-19.32-24.06Z"/>
          <path class="cls-1" d="m1113.02,610.1c-1.34,5.33-1.93,11-4.18,15.92-4.9,10.73-12.37,19.72-25.56,15.06-13.6-4.81-12.43-16.62-9.44-27.88,1.08-4.08,2.74-8.39,5.36-11.6,4.78-5.85,10.47-10.95,15.78-16.37,7.05,7.05,14.09,14.1,21.14,21.15-1.04,1.24-2.07,2.48-3.11,3.72Z"/>
          <path class="cls-1" d="m2446.41,605.09c-2.9,10.52-3.71,16.8-6.32,22.19-5.21,10.76-14.35,20.32-25.72,12.62-6.11-4.13-6.86-17.15-8.48-26.43-.61-3.47,3.79-7.56,4.87-11.63,2.47-9.31,5.45-20.48,17.25-15.6,8.02,3.32,13.27,13.31,18.4,18.84Z"/>
          <path class="cls-1" d="m182.38,390.14c.2,14.4-12.24,27.25-26.57,27.71-16.75.54-18.23-16.8-16.76-22.85,2.63-10.81,11.51-22.78,21.18-28.4,8.7-5.06,21.96,10.55,22.14,23.55Z"/>
          <path class="cls-1" d="m1517.7,385.26c-2.89,18.75-14.96,31.54-29.4,32.59-17.19,1.25-14.92-14.41-17.93-22.85-3.61-10.12,14.42-32.01,22.26-28.75,9.37,3.89,16.8,12.46,25.06,19.01Z"/>
          <path class="cls-1" d="m2020.16,179.36c-3.51,4.71-6.63,13.12-11.89,14.78-5.42,1.72-16.88-1.35-18.74-5.46-4.69-10.39-7.23-22.59-6.94-33.97.12-4.5,9.59-11.07,15.65-12.22,3.45-.66,9.8,7.03,12.73,12.17,3.83,6.72,5.58,14.62,9.18,24.7Z"/>
          <path class="cls-1" d="m644.93,161.38c6.18-6.38,11.52-14.48,19.03-18.16,2.5-1.22,10.73,8.75,15.97,13.97,1.59,1.58,1.91,4.4,2.86,6.64,5.17,12.18,7.46,24.33-7.19,31.18-10.42,4.87-22.56-5.65-26.29-21.46-.7-2.95-.9-6.01-1.33-9.01-1.02-1.05-2.04-2.11-3.06-3.16Z"/>
          <path class="cls-1" d="m2002.23,1013.86c-12.56,7.37-19.52,14.34-27.27,15.38-13.71,1.84-16.76-9.52-17.59-20.55-1.16-15.47,10.1-33.56,17.51-28.94,10.03,6.25,15.93,19.15,27.34,34.12Z"/>
          <path class="cls-1" d="m624.83,1003.33c1.83-4.36,3.96-12.08,8.2-18.38,2.23-3.31,8.78-6.54,12.32-5.65,18.68,4.72,14.54,22.33,15.89,34.94.48,4.52-11.29,14.04-18.26,14.91-14.81,1.85-16.63-10.87-18.15-25.82Z"/>
          <path class="cls-1" d="m1083.83,358.25c12.58-.37,17.4,7.42,18.34,18.36,1.23,14.27-10.62,28.21-23.77,27.24-15.15-1.11-15.09-14.3-16.46-24.7-1.72-13.06,6.82-20.45,21.89-20.9Z"/>
          <path class="cls-1" d="m2415.7,358.21c12.66-.31,17.48,7.47,18.38,18.44,1.17,14.37-10.68,28.2-23.81,27.19-15.19-1.16-15.04-14.37-16.5-24.74-2.27-16.15,9.84-18.9,21.94-20.89Z"/>
          <path class="cls-1" d="m55.71,559.18c-.34,20.47-11.73,33.56-24.1,32.08-15.7-1.88-15.57-15.73-16.38-26.94-1.21-16.75,12.98-19.43,23.87-18.37,7.06.69,13.24,10.35,16.6,13.23Z"/>
          <path class="cls-1" d="m1387.99,560.67c-1.45,20.02-16.41,35.5-25.37,29.85-7.91-4.99-13.7-17.76-15.01-27.8-1.99-15.3,13.18-18.18,23.01-16.71,7.52,1.12,13.68,11.3,17.37,14.66Z"/>
          <path class="cls-1" d="m54.1,316.24c-17.38-2.18-23.39-11.3-21.36-22.08,1.32-7.04,8.75-16.03,15.39-18.2,8.97-2.93,24.54,15.8,21.53,26.93-1.67,6.18-11.56,10.14-15.55,13.35Z"/>
          <path class="cls-1" d="m1356.17,294.14c11.08-8.85,16.71-16.49,23.8-18.25,9.4-2.33,22.62,15.25,22.36,27.24-.33,15.12-14.62,12.21-20.44,11-7.85-1.63-14.19-10.49-25.72-19.99Z"/>
        </g>
      </g>
    </g>
  </g>
</svg>