<?xml version="1.0" encoding="UTF-8"?>
<svg id="Capa_2" data-name="Capa 2" xmlns="http://www.w3.org/2000/svg" viewBox="0 0 88.09 79.96">
  <defs>
    <style>
      .cls-1 {
        fill: #fbb03b;
        stroke-width: 0px;
      }
    </style>
  </defs>
  <g id="Capa_1-2" data-name="Capa 1">
    <g>
      <path class="cls-1" d="m51.31,37.74c0-.94,0-1.78,0-2.63.01-1.06.28-2.02,1.56-2.05,1.3-.03,1.59.89,1.59,1.98,0,.85,0,1.7,0,2.79.78,0,1.38,0,1.99,0,6.25,0,12.5,0,18.75,0,2.21,0,2.78.48,2.46,2.65-.47,3.18-1.21,6.33-1.83,9.49.68-.37,1.55-.86,2.45-1.31,3.37-1.69,7.03-.72,8.86,2.33,1.84,3.06,1.02,6.84-2.14,8.88-8.15,5.23-16.34,10.38-24.55,15.51-2.74,1.71-5.8,2.13-8.95,1.67-9.23-1.36-18.45-2.84-27.7-4.11-1.34-.18-2.99.2-4.18.88-2.93,1.67-5.69,3.65-8.5,5.51-.94.62-1.94,1.07-2.7-.08-.73-1.11-.04-1.9.93-2.53,2.93-1.9,5.84-3.84,8.76-5.76,1.8-1.18,3.76-1.6,5.9-1.27,9.28,1.43,18.57,2.84,27.85,4.24,2.78.42,5.35-.18,7.72-1.69,7.74-4.9,15.5-9.79,23.23-14.7,2.08-1.32,2.66-3.17,1.63-4.92-1.04-1.76-2.94-2.14-5.1-.96-5.52,3.03-11.07,6.02-16.52,9.17-2.88,1.66-5.76,2.22-9.04,1.58-5.39-1.05-10.83-1.86-16.25-2.8-3.42-.59-5.32-3.08-4.87-6.3.41-2.94,2.98-4.83,6.29-4.42,3.29.41,6.56,1.01,9.85,1.52,1.8.28,3.16-.49,3.48-1.95.36-1.62-.56-2.95-2.4-3.32-6.68-1.36-13.34-2.78-20.04-3.99-4.43-.8-8.32.56-10.8,4.4-4.06,6.29-9.88,10.42-16.2,14.03-.93.53-1.87.78-2.55-.3-.7-1.12.03-1.83.91-2.38,1.6-1.01,3.21-1.99,4.83-2.97,3.93-2.39,7.22-5.46,9.75-9.3,3.1-4.7,7.4-6.92,13.04-6.82,6.93.12,13.87.04,20.81.04.5,0,1.01-.06,1.69-.09Zm-4.56,3.29c0,.08,0,.16,0,.24,1.34.27,2.68.5,4,.82,3.4.82,5.33,3.83,4.6,7.11-.67,3.04-3.64,4.89-6.97,4.35-3.16-.51-6.32-1.06-9.49-1.52-1.86-.27-2.95.43-3.13,1.81-.18,1.44.62,2.36,2.45,2.68,5.8,1.01,11.6,2.09,17.43,2.93,1.37.2,2.97-.18,4.28-.73,2.09-.89,3.95-2.33,6.05-3.23,3.74-1.6,5.74-4.62,7.05-8.19.73-1.98,1.1-4.08,1.67-6.27h-27.94Z"/>
      <path class="cls-1" d="m51.24,20.57c-1.75,1.89-2.09,4.01-1.21,6.37.18.48.58.97.54,1.43-.07.96-.08,2.19-.66,2.78-.57.59-1.92.91-2.74.68-7.37-2.04-9.98-11.09-4.91-16.82.76-.86,1.56-1.68,2.42-2.44,3.04-2.67,4.33-6.09,4.48-10.04.1-2.63,1.11-3.18,3.34-1.76,5.77,3.67,10.71,8.08,12.91,14.84,2.05,6.33.08,12.2-5.01,15.17-1.14.66-2.28,1.15-3.54.42-1.26-.72-1.36-1.93-1.46-3.25-.08-1.07-.52-2.19-1.08-3.12-.88-1.46-1.99-2.78-3.08-4.25Zm-4.07,7.8c-1.77-5.16-.09-8.95,3.94-11.89,1.51-1.1,2.47-.62,2.96,1.13.39,1.4.96,2.83,1.8,3.99,1.38,1.91,2.96,3.66,2.8,6.29,2.59-1.18,4.02-3.55,4.31-6.47.64-6.4-4.68-13.35-10.73-16.82-.08.22-.2.41-.23.62-.47,3.81-2.25,6.92-5.04,9.5-.96.89-1.94,1.81-2.75,2.84-2.8,3.58-1.48,8.78,2.93,10.81Z"/>
    </g>
  </g>
</svg>