<?xml version="1.0" encoding="UTF-8"?>
<svg id="Capa_2" data-name="Capa 2" xmlns="http://www.w3.org/2000/svg" viewBox="0 0 86.2 94.02">
  <defs>
    <style>
      .cls-1 {
        fill: #7f59b0;
        stroke-width: 0px;
      }
    </style>
  </defs>
  <g id="Capa_1-2" data-name="Capa 1">
    <g>
      <path class="cls-1" d="m17.54,67.19c-.49-.07-.72-.15-.96-.14-4.61.17-3.83-.56-3.87-4.14-.03-2.75-.03-5.5,0-8.26,0-.76.19-1.53.32-2.52-3.79-1.7-7.11-4.44-9.69-8.01-1.1-1.53-2.08-3.16-2.97-4.83-.81-1.52-.35-2.34,1.37-2.49,2.43-.21,4.87-.24,7.32-.35-.77-2.26-1.68-4.63-2.38-7.05-.5-1.75-.8-3.57-1.06-5.38-.31-2.19.24-2.68,2.45-2.13,2.71.67,5.39,1.49,8.09,2.24-.22-2.4-.57-4.87-.65-7.36-.08-2.56,0-5.14.2-7.69.16-2.14.81-2.46,2.75-1.6,5.24,2.33,9.95,5.46,14.13,9.4.26.25.55.47.94.8.51-1.48.83-2.93,1.49-4.21,2.12-4.11,4.28-8.21,6.59-12.21.99-1.72,1.84-1.62,3.04,0,3.22,4.36,5.65,9.13,7.3,14.3.18.58.38,1.16.58,1.73.04.11.15.18.28.34,4.34-4.16,9.16-7.56,14.63-9.99,2.34-1.04,3.05-.74,3.09,1.83.08,4.86-.08,9.73-.13,14.57,2.27-.63,4.9-1.44,7.58-2.1,2.45-.61,3.07-.14,2.56,2.28-.89,4.15-2.05,8.25-3.14,12.53,2.02,0,4.37-.09,6.72.03,2.15.11,2.56.94,1.55,2.88-2.87,5.52-6.87,9.92-12.46,12.46.11,1.2.27,2.25.29,3.31.04,3.06.02,6.12.01,9.17,0,2.15-.28,2.42-2.43,2.45-.72.01-1.44,0-2.4,0v2.87c0,2.94.05,5.87-.02,8.81-.04,2.02-.19,3.72,2.38,4.7,2.29.87,3.11,3.9,2.44,6.33-.64,2.31-2.76,4.1-5.23,4.2-2.5.1-5.02.09-7.52.01-2.7-.08-4.99-2.07-5.48-4.59-.55-2.81.8-5.54,3.49-6.54,1.21-.45,1.53-1.02,1.51-2.24-.07-3.85-.03-7.71-.03-11.56v-1.89c-.76-.04-1.3-.1-1.84-.1-10.15,0-20.3.03-30.46-.04-1.51,0-2,.4-1.96,1.94.1,3.97.06,7.95.02,11.92,0,.97.22,1.47,1.26,1.84,2.84,1.02,4.26,3.66,3.75,6.56-.47,2.67-2.85,4.63-5.77,4.69-2.26.04-4.53.04-6.79,0-2.96-.05-5.31-1.96-5.79-4.64-.53-2.92.89-5.45,3.65-6.67.5-.22,1.2-.8,1.2-1.22.09-4.7.05-9.4.05-14.25Zm53.39-2.87c0-3.15.06-6.08-.06-9-.02-.5-.72-1.22-1.25-1.4-5.71-1.96-11.38-4.09-17.21-5.62-3.72-.97-7.74-1.64-11.53-1.31-8.57.74-16.55,4.02-24.55,7.03-.44.16-.98.8-.99,1.24-.09,2.98-.05,5.96-.05,9.07h55.64ZM43.12,3.83c-8.84,9.42-10.8,30.57-3.84,40.42h7.76c6.73-12.9,5.45-27.56-3.92-40.42Zm-24.93,6.38c-.85,13.44,2.26,25.12,12.7,34.08,2.03,1.75,2.94,1.8,5.46.37-3.81-9.74-4.08-11.52-3.56-22.99.02-.39-.05-.91-.29-1.17-4.05-4.28-8.74-7.7-14.31-10.29Zm31.48,34.82c1.83-.06,3.18,1.36,4.9-.05,10.95-9.01,14.33-20.91,13.47-34.77-4.25,1.97-7.89,4.46-11.3,7.34-2.16,1.82-3.55,3.52-3.1,6.87.94,7.05-.86,13.82-3.96,20.61ZM8.18,24.24c1.81,9.58,5.55,17.15,13.34,22.5,2.98,2.05,5.24.79,8.07-.13-5.9-5.09-10.03-11-12.22-18.22-.12-.4-.53-.87-.91-1.02-2.59-1.03-5.21-1.98-8.28-3.13Zm48.39,22.42c1.12.34,1.98.47,2.71.86,1.88.99,3.41.44,5.07-.63,6.1-3.89,9.93-9.44,12.11-16.22.62-1.93,1.03-3.93,1.68-6.48-3.18,1.19-5.79,2.14-8.38,3.17-.39.15-.79.62-.92,1.02-2.19,7.21-6.32,13.13-12.28,18.27Zm26.37-7.37c-2.17,0-4.04.02-5.91,0-1.21-.02-1.89.62-2.7,1.5-2.37,2.6-4.94,5.01-7.46,7.47-.44.43-.99.74-1.86,1.37,1.78.41,3.25,1.22,4.44.93,6.18-1.52,10.23-5.74,13.48-11.27Zm-62.2,10.12c-1.7-1.38-3.52-2.63-5.07-4.16-1.59-1.58-2.91-3.44-4.35-5.17-.15-.18-.33-.43-.53-.47-2.41-.48-4.83-.73-7.55-.31,2.77,4.59,5.96,8.14,10.55,10.32,2.37,1.12,4.62,1.46,6.94-.2Zm1.04,41.99c1.16,0,2.32.05,3.48-.01,1.85-.1,3.14-1.4,3.19-3.13.05-1.74-1.15-3.23-2.98-3.32-2.44-.13-4.89-.12-7.33,0-1.85.09-3.03,1.53-3,3.3.04,1.76,1.29,3.05,3.15,3.16,1.16.07,2.32.01,3.48.01Zm42.52,0c1.22,0,2.45.06,3.67-.01,1.78-.11,3-1.35,3.1-3.01.1-1.77-1.03-3.31-2.85-3.42-2.5-.15-5.01-.14-7.51,0-1.82.1-3,1.61-2.93,3.36.07,1.73,1.36,3,3.23,3.09,1.1.06,2.2.01,3.3,0Zm-41.04-9.2v-15.17c-1.11.05-2.04.09-3.03.13v15.04h3.03Zm39.67-15.06v15.07h3.04v-15.07h-3.04Z"/>
      <path class="cls-1" d="m43.01,61.77c-.39-.27-.81-.5-1.15-.82-1.4-1.36-2.76-2.77-4.16-4.13-.88-.86-.87-1.65.02-2.5,1.4-1.36,2.79-2.74,4.15-4.14.87-.89,1.65-.85,2.5.02,1.36,1.4,2.83,2.7,4.1,4.18.39.46.62,1.66.33,2-1.52,1.75-3.22,3.33-4.88,4.95-.2.2-.53.26-.91.43Zm-2.71-6.26c.97.94,1.92,1.86,2.86,2.78.87-.88,1.8-1.81,2.63-2.65-.88-.9-1.8-1.83-2.69-2.73-.93.86-1.89,1.76-2.81,2.61Z"/>
    </g>
  </g>
</svg>