<?xml version="1.0" encoding="UTF-8"?>
<svg id="Capa_2" data-name="Capa 2" xmlns="http://www.w3.org/2000/svg" viewBox="0 0 88.63 88.59">
  <defs>
    <style>
      .cls-1 {
        fill: #7f59b0;
        stroke-width: 0px;
      }
    </style>
  </defs>
  <g id="Capa_1-2" data-name="Capa 1">
    <g>
      <path class="cls-1" d="m24.48,30.21c-7.21,10.18-3.82,26.48,6.55,32.34-.43-2.04-1.09-4.16-1.3-6.33-.34-3.45.68-6.64,2.79-9.4,3.08-4.03,6.2-8.04,9.36-12.01,1.5-1.9,3.39-1.86,4.92.08,3.08,3.89,6.18,7.76,9.14,11.74,3.45,4.64,3.92,9.71,1.68,15.04-.13.31-.26.61-.39.91.14.13.28.26.42.39,1.82-1.84,3.88-3.5,5.4-5.56,1.52-2.05,2.58-4.47,3.69-6.8.52-1.09,1.13-1.83,2.34-1.42,1.23.41,1.42,1.41.95,2.54-.78,1.85-1.58,3.7-2.44,5.69,3.52,1.03,7.09,2.07,10.66,3.11,1,.29,2,.54,2.99.86,5.85,1.89,8.85,8.09,6.65,13.72-2.18,5.55-8.47,8.05-14.05,5.58-.31-.14-.63-.28-1.1-.49-.17.43-.33.83-.48,1.23-2.15,6.16-8.79,8.92-14.63,6-3.97-1.98-7.9-4.05-11.79-6.17-1.08-.58-1.91-.64-3.01-.03-3.64,1.99-7.41,3.74-11.01,5.81-6.87,3.95-14.35-.2-15.69-6.38-.02-.1-.13-.18-.28-.4-.47.2-.98.42-1.49.63-5.42,2.23-11.59-.42-13.67-5.88-2.09-5.47.7-11.6,6.3-13.45,4.15-1.37,8.39-2.49,12.59-3.72.49-.14.98-.31,1.57-.49-2.27-3.93-3.68-8.02-3.94-12.49-.37-6.33,1.22-12.1,4.81-17.32,1.87-2.72,2.52-2.76,4.67-.36.26.29.55.57,1.01,1.06.08-.57.16-.92.17-1.26.23-7.47,4.72-13.17,11.92-15.13,5.18-1.41,7.76-4.47,8.25-9.79.18-2,1.29-2.57,3.06-1.58,5.66,3.16,8.01,10.29,5.34,16.53-1.22,2.85-1.3,5.53.48,8.32.45-1.06.78-1.99,1.22-2.85.72-1.41,1.71-1.69,2.94-.73,4.31,3.35,7.28,7.66,9.01,12.83.37,1.1.1,2.01-1.03,2.38-1.13.37-1.75-.27-2.29-1.27-1.53-2.82-3.17-5.57-4.78-8.34-.31-.54-.7-1.03-1.06-1.54-.18.09-.35.19-.53.28-.2.88-.41,1.75-.59,2.63-.4,1.93-1.65,2.41-3.27,1.24-4.16-3.02-5.65-8.74-3.47-13.82,1.42-3.32,1.37-6.48-.52-9.58-.21-.34-.47-.66-.73-.97-.14-.16-.33-.27-.61-.5-.18.48-.31.84-.45,1.2-1.69,4.53-4.79,7.74-9.52,8.74-7.67,1.63-12.27,9.9-8.69,17.46.29.62.15,1.99-.27,2.25-.58.37-1.85.35-2.42-.06-1.87-1.32-3.55-2.9-5.41-4.46Zm19.81,7.06c-3.33,4.34-6.68,8.3-9.57,12.58-3.05,4.54-1.77,10.9,2.45,14.34,4.31,3.52,10.43,3.39,14.59-.29,4.08-3.61,5.04-9.94,1.88-14.44-2.87-4.09-6.08-7.95-9.36-12.18Zm-7.86,43.39c2.22-1.15,4.29-2.15,6.28-3.28,1.14-.65,2.09-.62,3.22.02,2.01,1.13,4.1,2.13,6.31,3.27-.84-5.71,1.39-9.61,6.16-12.16-1.18-1.12-2.2-1.02-3.54-.46-7.15,2.99-14.35,2.96-21.45-.16-1.35-.59-2.2-.24-3.18.63,5.21,3.2,6.6,5.91,6.21,12.14Zm-19.15-9.36c0-3.79-3.18-6.93-6.96-6.9-3.72.03-6.81,3.11-6.85,6.84-.04,3.82,3.05,6.95,6.87,6.97,3.81.02,6.95-3.1,6.94-6.9Zm67.86.07c.03-3.8-3.09-6.96-6.88-6.97-3.78,0-6.94,3.16-6.93,6.94.02,3.73,3.08,6.82,6.81,6.87,3.83.05,6.98-3.02,7-6.83Zm-65.79,6.93c.03,3.83,3.15,6.88,6.99,6.82,3.72-.06,6.78-3.17,6.79-6.9,0-3.78-3.17-6.94-6.95-6.91-3.84.03-6.86,3.13-6.83,6.99Zm49.91-.02c.02-3.86-3.02-6.96-6.85-6.97-3.79,0-6.97,3.17-6.94,6.93.03,3.73,3.1,6.83,6.81,6.88,3.85.05,6.95-3,6.97-6.84Zm-52.69-15.94c1.53,2.33,2.98,4.54,4.5,6.86,2.3-1.21,4.82-2.53,6.53-3.42-1.22-1.57-2.47-3.24-3.8-4.84-.22-.27-.84-.42-1.2-.32-2.1.55-4.18,1.19-6.03,1.73Zm44.37,3.42c1.84.96,4.38,2.28,6.56,3.41,1.59-2.38,3.06-4.57,4.56-6.81-1.86-.55-3.93-1.2-6.03-1.74-.39-.1-1.07.11-1.33.41-1.31,1.54-2.53,3.16-3.77,4.72Z"/>
      <path class="cls-1" d="m71.65,43.51c-.64.41-1.24,1.08-1.92,1.17-1.07.15-1.85-.67-1.61-1.69.15-.63,1.03-1.5,1.61-1.52.64-.02,1.31.8,1.96,1.26-.02.26-.03.52-.05.78Z"/>
    </g>
  </g>
</svg>