<?xml version="1.0" encoding="UTF-8"?>
<svg id="Capa_2" data-name="Capa 2" xmlns="http://www.w3.org/2000/svg" viewBox="0 0 88.61 88.63">
  <defs>
    <style>
      .cls-1 {
        fill: #7f59b0;
        stroke-width: 0px;
      }
    </style>
  </defs>
  <g id="Capa_1-2" data-name="Capa 1">
    <path class="cls-1" d="m5.71,75.65c-2.78-2.56-4.03-5.34-2.59-8.74,1.31-3.08,3.88-4.27,7.21-4.27.04-.45.09-.89.13-1.33.27-3.09,2.15-5.52,5.13-6.26,1.11-.28,1.3-.81,1.42-1.77.25-2.06.69-4.1.97-6.15.36-2.66,1.91-4.07,4.46-4.6,1.98-.41,2.42-1.2,1.31-2.88-1.8-2.72-1.72-5.27.15-7.86,2.73-3.79,5.41-7.61,8.15-11.39,1.4-1.93,3.34-2.3,5.56-1.73,2.35.6,2.96.21,2.76-2.15-.24-2.94.79-5.07,3.38-6.43,4.49-2.35,8.97-4.72,13.5-6.99,2.12-1.06,4.11-.68,5.91.96,1.53,1.39,2.26,1.23,3.1-.68C67.19,1.25,68.7,0,71.04,0c3.34.01,6.71-.07,10.03.26,3.78.38,6.92,3.51,7.3,7.3.34,3.37.23,6.8.24,10.2.01,2.22-1.23,3.62-3.19,4.52-2.12.98-2.27,1.57-.75,3.31,1.49,1.71,1.75,3.52.96,5.62-1.9,5.05-4.42,9.76-7.45,14.24-1.43,2.12-3.25,2.95-5.71,2.79-2.74-.17-3.09.27-2.47,2.92.5,2.16.12,4.06-1.76,5.4-4.08,2.92-8.19,5.8-12.31,8.65-2.08,1.44-4.22,1.35-6.33,0-.29-.19-.6-.35-.91-.5-1.51-.74-2.26-.42-2.56,1.29-.49,2.74-2.01,4.31-4.79,4.69-2.06.29-4.11.6-6.15,1-.53.1-1.27.43-1.44.85-1.75,4.3-3.02,5.3-7.74,5.76-.04,3.42-1.32,6.19-4.76,7.4-3.25,1.14-5.86-.14-8.28-2.8-1.27,1.33-2.45,2.64-3.71,3.87-2.38,2.35-5.56,2.46-7.72.3-2.16-2.15-2.06-5.33.28-7.72,1.22-1.23,2.5-2.4,3.87-3.72Zm23.34-12.12c1.48-1.55,2.86-3.02,4.27-4.47.66-.69,1.4-1.43,2.34-.49.93.94.21,1.69-.5,2.34-1.51,1.39-3.05,2.75-4.44,4.01,1.05,1.43,1.69,2.46,2.49,3.35.38.42,1.07.86,1.57.81,2.18-.24,4.33-.65,6.5-1.02,1.28-.22,1.93-.96,2.22-2.28.88-4,3.39-5.17,6.88-3.09,1.79,1.07,3.27,1.07,4.93-.07,1.52-1.04,3.15-1.93,4.71-2.92.74-.48,1.42-1.05,2.36-1.75-5.08-1.41-9.9-2.46-14.49-4.12-3.38-1.22-5.81-.84-7.8,2.14-.16.24-.38.55-.61.59-.65.1-1.32.07-1.99.09.03-.62-.06-1.29.15-1.84.16-.44.69-.76,1.05-1.13,10.13-10.14,20.27-20.27,30.4-30.41.45-.45.94-.88,1.28-1.41.7-1.1.61-2.23-.28-3.18-.89-.96-2-1.14-3.15-.51-.49.27-.91.71-1.31,1.11-3.56,3.55-7.09,7.14-10.71,10.62-.41.39-1.37.22-2.08.3.09-.7-.05-1.57.32-2.08.69-.98,1.71-1.72,2.5-2.63.3-.34.61-.95.51-1.33-1.39-5.22-2.86-10.43-4.39-15.94-2.16,1.31-4.07,2.56-6.07,3.65-2.04,1.12-3.09,2.6-2.69,5.03.26,1.58-.31,2.97-1.65,3.95-1.41,1.04-2.91.79-4.47.35-2.29-.64-4.47,1.58-3.84,3.87.95,3.45,1.93,6.89,2.89,10.33.69,2.47,1.38,4.94,2.18,7.78,1.92-1.97,3.56-3.67,5.22-5.34,1.87-1.89,3.71-3.81,5.67-5.6.41-.37,1.3-.22,1.98-.3-.06.71-.03,1.44-.21,2.12-.09.34-.54.58-.82.87-7.81,7.81-15.61,15.61-23.42,23.42-.43.43-.83.89-1.16,1.24,1.24,1.32,2.37,2.54,3.67,3.92Zm52.47-29.08c.61-1.52,1.12-2.87,1.69-4.19.5-1.15.38-2.17-.56-2.99-2.56-2.23-1.87-6.35,1.71-7.41,1.18-.35,1.71-1.27,1.69-2.53-.03-2.66.09-5.32-.06-7.97-.25-4.21-2.47-6.46-6.68-6.71-2.65-.16-5.31-.03-7.97-.07-1.34-.02-2.09.63-2.66,1.8-1.77,3.63-4.16,4.11-7.3,1.65-.61-.48-1.62-.9-2.29-.74-1.66.4-3.22,1.16-4.92,1.81,1.45,5.21,2.85,10.24,4.31,15.49.61-.56,1.03-.92,1.43-1.31,1.56-1.55,3.07-3.15,4.68-4.64,2.17-2,5.36-1.89,7.35.15,1.94,1.99,2.02,5.1.08,7.22-1.4,1.54-2.93,2.96-4.39,4.44-.5.51-.98,1.03-1.62,1.69,5.32,1.48,10.32,2.86,15.51,4.31Zm-35.88,16.14c6.35,1.76,12.4,3.45,18.46,5.08.46.12,1.11-.04,1.53-.31,1.69-1.06,2.32-2.41,1.63-4.53-.93-2.85.95-5.16,3.97-5.24.81-.02,1.63.08,2.42-.02.54-.06,1.27-.22,1.53-.6,1.78-2.58,3.46-5.24,5.32-8.08-5.58-1.56-10.72-3.03-15.9-4.39-.49-.13-1.31.3-1.73.71-5.46,5.4-10.89,10.84-16.31,16.28-.27.27-.51.59-.94,1.09Zm-14.86-23.95c-.16-.06-.32-.13-.47-.19-1.47,2.38-2.89,4.79-4.43,7.12-1.01,1.53-.96,2.86-.03,4.46,2.17,3.72,1.07,6.18-3.08,7.13-1.24.28-1.96.88-2.16,2.11-.37,2.21-.77,4.43-1.07,6.65-.06.42.11,1.08.42,1.32,1.11.87,2.32,1.62,3.57,2.45,3.89-3.89,7.82-7.79,11.68-11.75.38-.39.57-1.27.43-1.81-1.56-5.84-3.21-11.66-4.84-17.48Zm-13.24,30.43c-1.92.32-3.48,1.32-4.11,2.95-.68,1.78-.36,3.41,1,4.78,3.1,3.11,6.19,6.23,9.32,9.31,1.88,1.84,4.49,1.9,6.2.23,1.78-1.73,1.74-4.37-.18-6.33-3.03-3.09-6.08-6.18-9.21-9.17-.82-.78-2.01-1.19-3.02-1.77Zm-7.96,7.93c-1.95.35-3.45,1.33-4.08,2.98-.69,1.8-.31,3.41,1.04,4.77,3.1,3.11,6.19,6.23,9.32,9.31,1.88,1.84,4.49,1.87,6.2.18,1.71-1.7,1.71-4.34-.11-6.2-3.07-3.14-6.16-6.26-9.34-9.29-.82-.78-2.01-1.17-3.03-1.74Zm-2.16,12.44c-1.42,1.44-2.79,2.76-4.07,4.16-.98,1.07-.9,2.63.04,3.6.93.96,2.53,1.08,3.6.12,1.45-1.3,2.82-2.69,4.19-4.01-1.3-1.34-2.46-2.53-3.76-3.87Z"/>
  </g>
</svg>