<?xml version="1.0" encoding="UTF-8"?>
<svg id="Capa_2" data-name="Capa 2" xmlns="http://www.w3.org/2000/svg" viewBox="0 0 98.78 98.78">
  <defs>
    <style>
      .cls-1 {
        fill: #ddc7ff;
        stroke-width: 0px;
      }
    </style>
  </defs>
  <g id="Capa_1-2" data-name="Capa 1">
    <g>
      <path class="cls-1" d="m36.55,48.25c-.27.08-.53.16-.8.25.13.54.25,1.08.38,1.62.32-.1.65-.2.97-.3-.18-.52-.37-1.04-.55-1.57Z"/>
      <path class="cls-1" d="m43.89,43.39h2.33c-.49-.75-.77-1.19-1.23-1.9-.43.74-.71,1.23-1.1,1.9Z"/>
      <path class="cls-1" d="m37.08,40.18c-.52.17-.88.88-1.3,1.36.42.36.82.95,1.27,1,.42.04.9-.5,1.67-.98-.76-.67-1.34-1.47-1.64-1.37Z"/>
      <path class="cls-1" d="m29.83,51.54c-.09.17-.18.34-.27.52.57.68,1.13,1.36,1.7,2.03.14-.03.28-.07.42-.1,0-.57.23-1.34-.05-1.66-.4-.44-1.17-.55-1.79-.79Z"/>
      <path class="cls-1" d="m51.99,42.6c.14.18.28.35.43.52.47-.28.95-.57,1.42-.85-.26-.29-.52-.59-.78-.88-.36.4-.71.8-1.07,1.21Z"/>
      <path class="cls-1" d="m46.11,35.87c-.07-.12-.14-.24-.21-.36h-2.43l-.26.51c.5.26,1.01.73,1.5.71.48-.02.93-.55,1.4-.86Z"/>
      <path class="cls-1" d="m20.15,77.33c0-.44.46-.87.71-1.31.31.34.8.64.91,1.03.23.84.55,1.34,1.65,1.12-2.51-3.65-.98-7.63-1.18-11.74-.95.35-1.75.64-2.54.93.37.67.83,1.3,1.07,2.01.32.94.57,1.93.65,2.91.02.27-.66.6-1.02.9-.21-.41-.49-.79-.59-1.22-.12-.48-.09-1-.12-1.5-.21,0-.43.01-.64.02,0,1.82-.03,3.64,0,5.46.05,2.69,1.41,4.66,3.67,5.95.52.3,1.43.2,2.04-.04.31-.12.33-.96.48-1.47-.6-.12-1.21-.35-1.81-.35-1.86.02-3.29-1.07-3.29-2.72Z"/>
      <path class="cls-1" d="m68.93,24.41c-.64-.01-1.19.56-1.18,1.21.01.89.51,1.58,1.16,1.61.71.03,1.39-.54,1.4-1.19.01-.79-.69-1.62-1.38-1.64Z"/>
      <path class="cls-1" d="m75.87,41.95c.56-.67,1.02-1.01,1.18-1.46.26-.7.38-1.46.47-2.2.23-1.91.45-3.82.57-5.74.02-.28-.52-.59-.8-.88-.2.37-.5.73-.57,1.13-.05.27.3.58.34.89.04.32.02.81-.18.96-.23.18-.85.22-1.01.05-.39-.42-.8-.96-.88-1.5-.24-1.5.38-2.66,1.91-3.38-1.11-1.56-2.09-3.1-3.25-4.51-1.38-1.68-2.17-3.48-1.94-5.69.15-1.39-.56-2.41-1.8-2.89-1.36-.53-2.24.26-3.13,1.27-.87.99-2,1.75-3.01,2.61-.21.18-.46.33-.65.53-1.97,2.13-3.94,4.27-5.9,6.41-1.07,1.17-1.02,1.75.32,2.96.12-.39.16-.79.36-1.06.27-.36.67-.61,1.01-.91.21.41.66.86.59,1.22-.14.8-.54,1.56-.92,2.58.59,1.36,1.85,1.74,3.31,1.49,1.99-.34,3.94-.88,5.93-1.21,3.81-.62,6.44,1.14,7.33,4.89.31,1.3.42,2.65.7,4.47Zm-13.4-15.11s-.75-.64-.69-.74c.3-.56.74-1.04,1.31-1.76.41.6.87,1.1.8,1.19-.39.51-.89.93-1.41,1.32Zm4.54-6.28c.06-.38,1.28-.56,2.23-.94-.1-.16-.34-.47-.5-.81-.14-.29-.38-.75-.26-.91.17-.23.64-.4.94-.35,1.12.16,1.7,1.7,1.38,3.41-.25,1.35-1.12,1.15-2.02.85-.73-.24-1.97-.02-1.78-1.23Zm1.8,7.92c-1.23-.06-2.16-1.35-2.18-3.02-.02-1.23,1.02-2.29,2.21-2.27,1.29.02,2.6,1.58,2.58,3.06-.02,1.21-1.29,2.29-2.61,2.23Zm4.18,1.74c-.37-.13-.8-.58-.84-.94-.04-.29.48-.93.72-.91.37.03.71.48,1.28.92-.55.47-.96,1-1.15.94Z"/>
      <path class="cls-1" d="m61.77,40.3c-.24-.03-.53.45-.79.7.27.26.5.65.82.75.21.06.55-.3,1.01-.59-.45-.4-.72-.82-1.04-.85Z"/>
      <path class="cls-1" d="m49.39,0C22.11,0,0,22.11,0,49.39s22.11,49.39,49.39,49.39,49.39-22.11,49.39-49.39S76.67,0,49.39,0Zm7.47,38.11c.32.46.68.9.93,1.39.03.05-.61.63-.76.57-.61-.27-1.33-.57-1.68-1.09-.61-.91-.4-1.95.43-2.67.35-.3.98-.26,1.48-.38-.06.48-.11.96-.2,1.42-.04.21-.2.4-.29.57.05.11.06.15.09.19Zm-1.26,4.1c.01,1.36-1.29,2.5-2.88,2.52-1.31.02-2.28-.9-2.29-2.16,0-1.6,1.09-2.92,2.45-2.94,1.27-.02,2.7,1.35,2.71,2.59Zm-5.66-4.96c.13-.46.53-.84.98-1.47.43.54.92.99.86,1.09-.28.46-.73.81-1.11,1.21-.26-.28-.78-.64-.72-.83Zm10,22.66c-4.78.79-9.58,1.51-14.37,2.22-2.88.42-3.81,1.57-4.16,4.51-.24,2.02-.77,4.04-1.45,5.97-.26.74-1.26,1.3-2.03,1.76-.25.15-.84-.28-1.28-.45.25-.37.47-.77.76-1.1.42-.48,1.1-.84,1.29-1.38.46-1.37.76-2.8,1.03-4.22.24-1.28.35-2.58.52-3.86-1.68-.13-2.5.55-2.57,2.38-.03.94-.02,1.88-.01,2.83.02,2.48-1.16,4.31-3.15,5.67-1.04.71-2.13.75-3.16,0-1-.73-.83-1.71-.65-2.8.24-1.46.28-2.96.23-4.44-.04-1.01-.72-1.43-1.79-1.24-1.62.29-3.25.49-5.1.76-.13,2.42-.29,4.72-.36,7.02-.05,1.84.7,3.36,2.03,4.64,1.51,1.46,1.75,3.32.68,4.67-1.03,1.29-3.12,1.54-4.75.46-2.76-1.84-4.38-4.33-4.32-7.77.05-2.72.01-5.44.01-8.3-.58.06-1.36.14-2.14.21-.7.07-1.58.26-1.63-.74-.01-.29.88-.82,1.4-.89,4.52-.6,9.06-1.14,13.59-1.67.77-.09,1.17-.34,1.42-1.2.36-1.25,1.03-2.42,1.61-3.59.51-1.02.35-1.84-.4-2.7-1.33-1.52-2.61-3.1-3.83-4.71-.75-.98-1.64-1.46-2.88-1.47-2.97-.03-5.93-.13-8.9-.19-.38,0-.8.08-1.12-.06-.37-.17-.66-.54-.98-.82.36-.28.71-.79,1.08-.8,1.6-.07,3.2,0,4.8.03.42,0,.83,0,1.23,0,.09-.22.17-.34.19-.47.66-4.81,3.38-8.34,6.86-11.5,2.11-1.92,4.4-2.92,7.26-2.86,3.3.06,6.6.09,9.89-.12,2.23-.14,4.43-.71,6.65-1.11.6-.11,1.19-.39,1.79-.38.46.01.91.36,1.36.56-.31.35-.56.89-.94,1.01-1.52.49-3.1.79-4.61,1.29-.52.17-1.17.65-1.31,1.12-.43,1.43-1.3,2.15-2.74,2.21-1.47.06-2.74-.36-3.28-1.89-.27-.74-.7-.97-1.47-.96-2.12.05-4.24-.02-6.36,0-2.45.03-4.18,1.35-5.82,3.25,1.3.31,2.05-.06,2.69-.98.23-.33.79-.41,1.21-.61.08.49.36,1.07.2,1.47-.59,1.47-2.35,2.28-4.16,1.84-1.21-.3-1.94.09-2.67.99-1.67,2.05-2.28,4.48-2.84,7.13.89.06,1.72.11,2.37.16.44-.57.78-1.01,1.12-1.45.43.43,1,.79,1.25,1.31.57,1.17,1.15,1.91,2.66,1.43,1.19-.37,2.37-.05,3.07,1.14.72,1.22.89,2.47-.05,3.69-.14.18-.25.39-.41.66,1.54,1.51,1.38,3.18.46,4.92-.39.75-.87,1.48-1.12,2.27-.18.58-.31,1.4-.04,1.86,1.44,2.48,1.46,5,.52,7.62-.06.16,0,.36,0,.86.6-.19,1.16-.23,1.54-.5,1.29-.92,2.26-2.2,2.05-3.8-.47-3.67.92-6.61,3.17-9.3.33-.39.69-.83.82-1.3.13-.44.16-1.17-.09-1.4-.37-.34-1.04-.34-1.59-.48-.01.55-.01,1.1-.05,1.64-.02.41-.09.83-.14,1.24-.42-.09-.96-.04-1.23-.29-.98-.9-.89-1.99-.31-3.09.57-1.09,1.43-1.6,2.66-1.34.4.09.79.28,1.4.51,0-1.99,0-3.89,0-5.79,0-.42-.11-.9.04-1.26.15-.36.57-.62.87-.92.26.29.58.54.77.87.12.22.06.54.09.99,3.28-.71,6.46-1.43,9.67-2.07.78-.16,2-.93,2.29.35.29,1.3-1.13,1.08-1.91,1.27-2.79.66-5.59,1.3-8.41,1.85-1.27.25-1.78.92-1.69,2.15.01.19,0,.38,0,.56.17,2.98,0,5.86-2.13,8.37,2.42-.42,4.84-.88,7.27-1.26,4.09-.63,8.19-1.24,12.3-1.78.46-.06.98.41,1.47.63-.41.34-.78.92-1.24.99Zm-10.26-14.15c-.52.35-.91.79-1.1.72-.34-.13-.56-.57-.82-.89.3-.23.59-.64.89-.65.27,0,.56.42,1.04.82Zm-2-2.76c.05,1.41-.91,2.18-2.77,2.21-1.66.03-2.52-.74-2.55-2.27-.03-1.41,1.21-2.76,2.58-2.83,1.27-.06,2.69,1.44,2.74,2.89Zm-13.61,6.36c.05-1.79.85-2.81,2.15-2.73,1.52.1,2.62,1.44,2.58,3.14-.04,1.35-.88,2.15-2.26,2.14-1.65,0-2.51-.89-2.46-2.55Zm1.32,13.52c-.61.48-1.03,1.02-1.28.95-.35-.1-.8-.64-.8-.99,0-.35.48-.89.83-.96.26-.06.65.5,1.25,1.01Zm1.26-18.55c-1.17-.04-2.63-1.74-2.64-3.09-.02-1.4,1.77-2.91,3.44-2.9,1.31,0,2.53,1.64,2.52,3.39,0,1.43-1.59,2.67-3.32,2.6Zm-4.43-.1c-.55.45-1.06.98-1.14.92-.39-.29-.8-.69-.94-1.14-.06-.21.61-.91.72-.86.43.18.77.58,1.36,1.08Zm-4.95.78c-.53.34-.86.73-1.15.7-.3-.03-.55-.47-.82-.74.3-.29.57-.73.91-.81.23-.05.57.43,1.06.85Zm54.95,10.84c-1.97.45-3.96.85-5.96,1.11-1.03.13-1.49.55-1.6,1.55-.21,1.92-.5,3.82-.73,5.73-.15,1.19-.7,2.05-1.91,2.33-1.25.29-2.25-.17-2.9-1.23-.19-.32-.05-.84-.06-1.27.42.03.84,0,1.25.1.47.11,1.11.58,1.32.43.36-.28.55-.9.63-1.4.27-1.8.46-3.62.7-5.57-.72.12-1.44.24-2.14.35-.2,1.08-.33,2.1-.58,3.1-.39,1.52-1.61,2.46-2.93,2.35-1.31-.11-2.37-1.27-2.46-2.81-.07-1.17-.49-2.15-1.51-2.72-2.21-1.23-4.42-2.47-6.72-3.53-2.03-.94-2.4-1.87-1.8-3.99.43-1.48.29-3.12.47-4.69.06-.53.33-1.04.5-1.55.39.42,1.01.79,1.14,1.28.52,1.97.38,3.93-.54,5.78-.35.7-.25,1.1.5,1.42,2.15.92,4.28,1.9,6.4,2.85.38-1.37.14-1.73-1.21-2.07-.42-.1-.74-.6-1.11-.91.45-.25.9-.72,1.35-.72,1.76,0,3.11,1.68,2.86,3.63-.12,1,.02,1.73.63,2.58.48.67.43,1.7.74,2.53.17.45.61.79.92,1.18.36-.31.91-.54,1.05-.93.64-1.73.59-3.39-.68-4.9-1.27-1.51-2.44-3.11-3.69-4.64-.68-.83-.84-1.62-.24-2.57,1.59-2.54,2.01-5.32,1.75-8.27-.05-.52.33-1.5.63-1.55,1.03-.19.96.78,1.02,1.45.1.98.1,1.96.16,3.11,1.82-.4,3.58-.68,5.26-1.23.53-.17,1.16-1.1,1.13-1.66-.06-1.34-.35-2.71-.81-3.97-.57-1.59-1.97-2.24-3.58-2.28-1.01-.02-2.03.19-3.11.3.04.35.11.54.08.7-.11.58-.25,1.15-.37,1.72-.4-.35-.78-.71-1.2-1.03-.3-.23-.63-.46-.98-.61-.19-.08-.46.01-.7.04-4.29.41-7.54-1.99-8.3-6.27-.11-.63.28-1.43.63-2.04.35-.59.87-1.16,1.45-1.52,1.47-.89,1.56-2.03,1.16-3.57-.28-1.03-.32-2.28,0-3.29.59-1.89,2.99-2.79,4.63-1.91.33.18.46.7.69,1.06-.33.19-.67.54-1,.53-2.99-.02-3.48.72-2.39,3.98.43-.55.73-1.06,1.15-1.47,1.9-1.82,3.7-3.79,5.79-5.36,2.48-1.86,6.42.17,6.36,3.38-.05,2.66.97,4.6,2.53,6.48.18.22.31.48.5.68,3.58,3.75,4.18,8.13,2.77,12.96-.15.53-.18,1.09-.3,1.82,1.04-.2,1.94-.46,2.85-.52.5-.03,1.36.15,1.47.45.34.91-.52,1.04-1.15,1.18-4.5.99-9,1.99-13.51,2.93-.98.2-1.66.53-1.76,1.61-.03.27-.12.58-.28.79-1.43,1.92-.87,3.48.7,5.02.93.92,1.74,2,2.41,3.12.5.83,1.07.87,1.87.72,3.23-.62,6.47-1.22,9.71-1.82.28-.05.58-.17.83-.1.44.12.84.37,1.25.57-.33.37-.61.97-1.01,1.06Zm-20.31-12.34c-1.28.07-2.64-1.12-2.71-2.37-.07-1.32,1.11-2.59,2.43-2.63,1.31-.03,2.65,1.3,2.64,2.62,0,1.21-1.1,2.3-2.36,2.37Zm.07,2.35c-.33.35-.67.69-1.23,1.28-.46-.63-.71-.98-.97-1.34.37-.27.75-.75,1.12-.74.37,0,.72.51,1.08.8Zm-2.23,3.48c.29.01.56.44,1.02.84-.52.32-.9.73-1.13.66-.32-.11-.53-.57-.78-.88.29-.22.6-.63.88-.62Z"/>
    </g>
  </g>
</svg>