<svg xmlns="http://www.w3.org/2000/svg" xmlns:xlink="http://www.w3.org/1999/xlink" viewBox="0 0 1255.34 1436.33"><defs><style>.cls-1{fill:none;}.cls-2{clip-path:url(#clip-path);}.cls-3{fill:#fff;}</style><clipPath id="clip-path" transform="translate(0 0)"><rect class="cls-1" width="1361.1" height="1436.32"/></clipPath></defs><g id="Capa_2" data-name="Capa 2"><g id="Capa_1-2" data-name="Capa 1"><g class="cls-2"><path class="cls-3" d="M191.7.27,191.49,0l.2.06Z" transform="translate(0 0)"/><path class="cls-3" d="M1255.34,1436.21l-.14.12Z" transform="translate(0 0)"/><path class="cls-3" d="M1255.2,1436.32c-.35-.44-.7-.88-1-1.33h0c.37.41.75.82,1.13,1.22Z" transform="translate(0 0)"/><path class="cls-3" d="M87.49,403.21c14.34,15.31,12.49,33.37,4,47.71-.57,1-2.4,1.56-3.68,1.63-2.27.12-4.56-.29-7,.07l7.49,3.44c-4,3.65-7.67,6.83-11.11,10.28C71.51,472,65,474.1,57.25,471.82a12.76,12.76,0,0,0-3-.33,18.28,18.28,0,0,0-2.42.37l12,3.82c-8.69,4.92-16.67,9.22-24.42,13.9-6.3,3.8-12.86,6.6-20.23,7.38l11.62,4c.2.34.39.68.58,1-20.36,1-27,13.32-26.19,32.47-3.13-4.08-4.88-7.13-5-11.23-.53-26.09,15-49.12,40.64-59.72,11.39-4.72,22.69-9.59,32.73-16.93,1.34-1,2.68-2,3.95-3,14-11.69,16.81-22.25,9.89-40.36" transform="translate(0 0)"/><path class="cls-3" d="M.15,504.08C-.68,490.68,2,480.58,6,480.18c1.49-14.13,13-19.43,23-26,1-.65,2.61-.37,4.49-.59,1.4-3.25,7.37-5.49,10.45-2.76,1.24-4.29,4.69-5.29,8.46-6.31,11.59-3.12,21.69-9.2,31.07-16.56a35.16,35.16,0,0,1,5.17-3.58c-1.54,5.28-4.71,9.44-8.46,13.19-8,8-17.85,13.21-28,17.93-7.53,3.49-15.18,6.9-22.25,11.21C15.24,475.58,8.77,484.08.15,504.08" transform="translate(0 0)"/></g></g></g></svg>