<svg xmlns="http://www.w3.org/2000/svg" xmlns:xlink="http://www.w3.org/1999/xlink" viewBox="0 0 1063.85 1436.33"><defs><style>.cls-1{fill:none;}.cls-2{clip-path:url(#clip-path);}.cls-3{fill:#fff;}</style><clipPath id="clip-path" transform="translate(-191.49 0)"><rect class="cls-1" width="1361.1" height="1436.32"/></clipPath></defs><g id="Capa_2" data-name="Capa 2"><g id="Capa_1-2" data-name="Capa 1"><g class="cls-2"><path class="cls-3" d="M191.7.27,191.49,0l.2.06Z" transform="translate(-191.49 0)"/><path class="cls-3" d="M1255.34,1436.21l-.14.12Z" transform="translate(-191.49 0)"/><path class="cls-3" d="M1255.2,1436.32c-.35-.44-.7-.88-1-1.33h0c.37.41.75.82,1.13,1.22Z" transform="translate(-191.49 0)"/><path class="cls-3" d="M1213.45,716.43c-2.64,7.31-5.21,14.65-8,21.91a88.77,88.77,0,0,1-4,8,29.65,29.65,0,0,1-6.17-18.7l1.77,3.79.6-.08a7.59,7.59,0,0,0-.14-2c-2.89-8.16-3.4-16.62-2.76-25.12.68-8.86.94-17.61-2.49-26,15-3.59,36.12,4.18,45.17,16.62a7.07,7.07,0,0,1,1.07,4.58,132.65,132.65,0,0,1-2.18,13.28c-1.35,6.14-3.14,12.1-10.31,14.51l4-.21a5.13,5.13,0,0,1-.17,1.27c-2.93,7-8.45,12.06-14.47,16-6.9,4.5-11.67,10.74-17,16.61a48.91,48.91,0,0,1-5.27,4.42v.21c9.23-13.57,16.27-28.13,20-44.17a36.62,36.62,0,0,0,.52-4.82c.18-.45.35-.9.52-1.34.28-2.13.55-4.25.83-6.37l.24-7.22-.78-2.41,1.67-1-.41-.18.55-.23c0,.15-.06.29-.08.44l-1.58,1,.76,2.39c-.27,2.37-.53,4.73-.8,7.1q-.49,3.15-1,6.3l-.06,1.46" transform="translate(-191.49 0)"/><path class="cls-3" d="M1172.51,649.75c1.77-.19,3.56-.27,5.31-.57a53.15,53.15,0,0,1,56.75,28.26,48,48,0,0,1,3.43,10.21c-19.15-11-39.42-15.56-61.7-13.14,1.74-1.27,3.42-2.65,5.24-3.8a68.44,68.44,0,0,1,6.12-3.37c2.07-1,4.21-1.92,6.25-3.18a88.73,88.73,0,0,0-29.11,5.73c-.11-.32-.22-.63-.34-.95l20.22-9.55c-13.85-1.39-26.57,2.13-38.82,8.15.45-7.72,9-18.37,18.28-22.74,13.47-6.33,26.62-5.84,39.35,2.24-10.54-1-21.07-2.12-31,2.85l-1.53.27.14.44,1.44-.85" transform="translate(-191.49 0)"/><path class="cls-3" d="M1193,765.26l.21.27-.2-.06Z" transform="translate(-191.49 0)"/></g></g></g></svg>