<svg xmlns="http://www.w3.org/2000/svg" xmlns:xlink="http://www.w3.org/1999/xlink" viewBox="0 0 1081.14 1436.33"><defs><style>.cls-1{fill:none;}.cls-2{clip-path:url(#clip-path);}.cls-3{fill:#fff;}</style><clipPath id="clip-path" transform="translate(-191.49 0)"><rect class="cls-1" width="1361.1" height="1436.32"/></clipPath></defs><g id="Capa_2" data-name="Capa 2"><g id="Capa_1-2" data-name="Capa 1"><g class="cls-2"><path class="cls-3" d="M191.7.27,191.49,0l.2.06Z" transform="translate(-191.49 0)"/><path class="cls-3" d="M1255.34,1436.21l-.14.12Z" transform="translate(-191.49 0)"/><path class="cls-3" d="M1255.2,1436.32c-.35-.44-.7-.88-1-1.33h0c.37.41.75.82,1.13,1.22Z" transform="translate(-191.49 0)"/><path class="cls-3" d="M1262.05,212.43c14.35,15.31,12.49,33.37,4,47.71-.57,1-2.4,1.56-3.68,1.63-2.26.12-4.55-.29-7,.06l7.48,3.45c-4,3.65-7.67,6.83-11.11,10.28-5.64,5.65-12.12,7.76-19.89,5.47a13.4,13.4,0,0,0-3-.32,18.52,18.52,0,0,0-2.42.37l12,3.81c-8.7,4.93-16.68,9.23-24.43,13.91-6.3,3.8-12.86,6.6-20.23,7.37l11.63,4,.57,1c-20.36,1-27,13.32-26.19,32.48-3.13-4.09-4.87-7.14-5-11.24-.53-26.08,15-49.11,40.64-59.71,11.4-4.72,22.7-9.59,32.73-16.93,1.34-1,2.68-2,4-3,14-11.69,16.8-22.25,9.88-40.36" transform="translate(-191.49 0)"/><path class="cls-3" d="M1174.72,313.29c-.83-13.4,1.81-23.49,5.84-23.89,1.49-14.14,13-19.43,23-26,1-.66,2.6-.37,4.49-.59,1.39-3.25,7.36-5.49,10.45-2.76,1.23-4.3,4.68-5.29,8.45-6.31,11.6-3.12,21.69-9.2,31.07-16.57a36.55,36.55,0,0,1,5.18-3.57c-1.55,5.27-4.72,9.44-8.46,13.19-8,8-17.86,13.21-28,17.92-7.54,3.5-15.18,6.91-22.26,11.22-14.62,8.89-21.08,17.39-29.7,37.38" transform="translate(-191.49 0)"/></g></g></g></svg>